# Blender v2.79 (sub 0) OBJ File: 'thrust0.blend'
# www.blender.org
o Model_Cube.001
v -0.225321 0.000000 0.000000
v -0.178110 0.178110 -0.462376
v -0.219106 0.000000 -0.462376
v 0.219106 0.000000 -0.462376
v 0.097278 -0.097278 -1.000000
v 0.119668 0.000000 -1.000000
v 0.178110 0.178110 -0.462376
v 0.225321 0.000000 0.000000
v 0.000000 0.219106 -0.462376
v 0.097278 0.097278 -1.000000
v 0.000000 0.119668 -1.000000
v 0.178110 -0.178110 -0.462376
v 0.000000 -0.225321 -0.000000
v 0.000000 -0.219106 -0.462376
v 0.000000 0.225321 0.000000
v 0.183162 -0.183162 -0.000000
v -0.097278 0.097278 -1.000000
v -0.178110 -0.178110 -0.462376
v -0.183162 -0.183162 -0.000000
v -0.097278 -0.097278 -1.000000
v -0.119668 0.000000 -1.000000
v 0.183162 0.183162 0.000000
v 0.000000 -0.119668 -1.000000
v -0.183162 0.183162 0.000000
vt 0.875000 0.000000
vt 0.750000 0.499486
vt 0.750000 0.000000
vt 0.125000 0.499485
vt 0.250000 1.000000
vt 0.125000 1.000000
vt 0.500000 0.499486
vt 0.625000 0.000000
vt 0.625000 0.499486
vt 0.000000 0.499485
vt 0.125000 0.000000
vt 1.000000 0.499486
vt 0.875000 0.499486
vt 0.000000 1.000000
vt 0.250000 0.499485
vt 0.250000 0.000000
vt 0.750000 1.000000
vt 0.500000 1.000000
vt 0.375000 0.499485
vt 0.375000 1.000000
vt 0.375000 0.000000
vt 0.500000 0.000000
vt 1.000000 1.000000
vt 0.875000 1.000000
vt 0.625000 1.000000
vt 0.000000 0.000000
vt 1.000000 0.000000
vn -0.9999 0.0000 -0.0134
vn -0.9704 -0.2233 -0.0923
vn -0.9744 -0.2243 -0.0131
vn 0.0000 0.9953 -0.0968
vn 0.2207 0.9591 -0.1774
vn 0.0000 0.9833 -0.1819
vn 0.2233 -0.9704 -0.0923
vn 0.0000 -0.9999 -0.0134
vn 0.0000 -0.9953 -0.0968
vn -0.2233 0.9704 -0.0923
vn 0.0000 0.9999 -0.0134
vn -0.9704 0.2233 -0.0923
vn -0.9953 0.0000 -0.0968
vn -0.2207 0.9591 -0.1774
vn 0.2233 0.9704 -0.0923
vn 0.2243 0.9744 -0.0131
vn -0.9591 -0.2207 -0.1774
vn 0.2207 -0.9591 -0.1774
vn 0.9953 0.0000 -0.0968
vn 0.9591 0.2207 -0.1774
vn 0.9704 0.2233 -0.0923
vn 0.9591 -0.2207 -0.1774
vn 0.9833 -0.0000 -0.1819
vn 0.9999 0.0000 -0.0134
vn 0.9704 -0.2233 -0.0923
vn 0.9744 -0.2243 -0.0131
vn -0.9591 0.2207 -0.1774
vn -0.9833 -0.0000 -0.1819
vn -0.2207 -0.9591 -0.1774
vn 0.0000 -0.9833 -0.1819
vn -0.2233 -0.9704 -0.0923
vn -0.2243 -0.9744 -0.0131
vn 0.2243 -0.9744 -0.0131
vn -0.2243 0.9744 -0.0131
vn -0.9744 0.2243 -0.0131
vn 0.9744 0.2243 -0.0131
s 1
f 1/1/1 18/2/2 19/3/3
f 9/4/4 10/5/5 11/6/6
f 12/7/7 13/8/8 14/9/9
f 2/10/10 15/11/11 9/4/4
f 1/1/1 2/12/12 3/13/13
f 9/4/4 17/14/14 2/10/10
f 7/15/15 15/11/11 22/16/16
f 3/13/13 20/17/17 18/2/2
f 14/9/9 5/18/18 12/7/7
f 4/19/19 10/5/20 7/15/21
f 4/19/19 5/18/22 6/20/23
f 7/15/21 8/21/24 4/19/19
f 12/7/25 8/21/24 16/22/26
f 3/13/13 17/23/27 21/24/28
f 14/9/9 20/17/29 23/25/30
f 18/2/31 13/8/8 19/3/32
f 1/1/1 3/13/13 18/2/2
f 9/4/4 7/15/15 10/5/5
f 12/7/7 16/22/33 13/8/8
f 2/10/10 24/26/34 15/11/11
f 1/1/1 24/27/35 2/12/12
f 9/4/4 11/6/6 17/14/14
f 7/15/15 9/4/4 15/11/11
f 3/13/13 21/24/28 20/17/17
f 14/9/9 23/25/30 5/18/18
f 4/19/19 6/20/23 10/5/20
f 4/19/19 12/7/25 5/18/22
f 7/15/21 22/16/36 8/21/24
f 12/7/25 4/19/19 8/21/24
f 3/13/13 2/12/12 17/23/27
f 14/9/9 18/2/31 20/17/29
f 18/2/31 14/9/9 13/8/8
