# Blender v2.79 (sub 0) OBJ File: 'thrust1.blend'
# www.blender.org
o Model_Cube.000
v -0.252777 0.000000 0.000000
v -0.144538 0.144538 -0.449007
v -0.177806 0.000000 -0.449007
v 0.177806 0.000000 -0.449007
v 0.055725 -0.055725 -1.131274
v 0.068551 0.000000 -1.131274
v 0.144538 0.144538 -0.449007
v 0.252777 0.000000 0.000000
v 0.000000 0.177806 -0.449007
v 0.055725 0.055725 -1.131274
v 0.000000 0.068551 -1.131274
v 0.144538 -0.144538 -0.449007
v 0.000000 -0.252777 -0.000000
v 0.000000 -0.177806 -0.449007
v 0.000000 0.252777 0.000000
v 0.205482 -0.205482 -0.000000
v -0.055725 0.055725 -1.131274
v -0.144538 -0.144538 -0.449007
v -0.205482 -0.205482 -0.000000
v -0.055725 -0.055725 -1.131274
v -0.068551 0.000000 -1.131274
v 0.205482 0.205482 0.000000
v 0.000000 -0.068551 -1.131274
v -0.205482 0.205482 0.000000
vt 0.375000 0.482834
vt 0.250000 1.000000
vt 0.250000 0.482834
vt 0.125000 0.000000
vt 0.250000 0.000000
vt 0.625000 0.482834
vt 0.750000 1.000000
vt 0.625000 1.000000
vt 0.750000 0.482834
vt 0.625000 0.000000
vt 0.750000 0.000000
vt 0.500000 0.482834
vt 0.375000 0.000000
vt 0.500000 0.000000
vt 0.500000 1.000000
vt 0.375000 1.000000
vt 0.875000 0.000000
vt 1.000000 0.482834
vt 0.875000 0.482834
vt 1.000000 1.000000
vt 0.875000 1.000000
vt 0.000000 0.482834
vt 0.125000 0.482834
vt 0.000000 1.000000
vt 0.125000 1.000000
vt 1.000000 0.000000
vt 0.000000 0.000000
vn 0.9869 -0.0000 -0.1615
vn 0.9629 0.2216 -0.1542
vn 0.9623 0.2215 -0.1576
vn 0.2215 0.9623 -0.1576
vn 0.0000 0.9863 -0.1647
vn 0.2214 0.9619 -0.1606
vn -0.0000 -0.9869 -0.1615
vn -0.2216 -0.9629 -0.1542
vn 0.0000 -0.9874 -0.1581
vn -0.2215 -0.9623 -0.1576
vn 0.0000 -0.9863 -0.1647
vn -0.2214 -0.9619 -0.1606
vn 0.9623 -0.2215 -0.1576
vn 0.9863 0.0000 -0.1647
vn 0.9619 -0.2214 -0.1606
vn 0.9629 -0.2216 -0.1542
vn 0.9874 -0.0000 -0.1581
vn -0.9863 0.0000 -0.1647
vn -0.9623 -0.2215 -0.1576
vn -0.9619 -0.2214 -0.1606
vn -0.9623 0.2215 -0.1576
vn -0.9869 0.0000 -0.1615
vn -0.9629 0.2216 -0.1542
vn -0.9874 -0.0000 -0.1581
vn 0.2216 -0.9629 -0.1542
vn 0.2215 -0.9623 -0.1576
vn -0.2215 0.9623 -0.1576
vn 0.0000 0.9869 -0.1615
vn -0.2216 0.9629 -0.1542
vn 0.2216 0.9629 -0.1542
vn 0.0000 0.9874 -0.1581
vn -0.9629 -0.2216 -0.1542
vn 0.9619 0.2214 -0.1606
vn -0.9619 0.2214 -0.1606
vn 0.2214 -0.9619 -0.1606
vn -0.2214 0.9619 -0.1606
s 1
f 4/1/1 10/2/2 7/3/3
f 7/3/4 15/4/5 22/5/6
f 14/6/7 20/7/8 23/8/9
f 18/9/10 13/10/11 19/11/12
f 12/12/13 8/13/14 16/14/15
f 4/1/1 5/15/16 6/16/17
f 1/17/18 18/9/19 19/11/20
f 7/3/3 8/13/14 4/1/1
f 1/17/18 2/18/21 3/19/22
f 3/19/22 17/20/23 21/21/24
f 14/6/7 5/15/25 12/12/26
f 12/12/26 13/10/11 14/6/7
f 2/22/27 15/4/5 9/23/28
f 9/23/28 17/24/29 2/22/27
f 9/23/28 10/2/30 11/25/31
f 3/19/22 20/7/32 18/9/19
f 4/1/1 6/16/17 10/2/2
f 7/3/4 9/23/28 15/4/5
f 14/6/7 18/9/10 20/7/8
f 18/9/10 14/6/7 13/10/11
f 12/12/13 4/1/1 8/13/14
f 4/1/1 12/12/13 5/15/16
f 1/17/18 3/19/22 18/9/19
f 7/3/3 22/5/33 8/13/14
f 1/17/18 24/26/34 2/18/21
f 3/19/22 2/18/21 17/20/23
f 14/6/7 23/8/9 5/15/25
f 12/12/26 16/14/35 13/10/11
f 2/22/27 24/27/36 15/4/5
f 9/23/28 11/25/31 17/24/29
f 9/23/28 7/3/4 10/2/30
f 3/19/22 21/21/24 20/7/32
