# Blender v2.79 (sub 0) OBJ File: 'thrust3.blend'
# www.blender.org
o Model_Cube.003
v -0.188752 0.188752 -0.489455
v -0.082915 -0.082915 -1.000000
v -0.188752 -0.188752 -0.489455
v 0.188752 -0.188752 -0.489455
v -0.224001 -0.224001 -0.000000
v 0.082915 0.082915 -1.000000
v 0.188752 0.188752 -0.489455
v 0.224001 -0.224001 -0.000000
v -0.082915 0.082915 -1.000000
v -0.224001 0.224001 0.000000
v 0.224001 0.224001 0.000000
v 0.082915 -0.082915 -1.000000
vt 0.500000 1.000000
vt 0.750000 0.489455
vt 0.750000 1.000000
vt 1.000000 0.000000
vt 0.750000 0.000000
vt 0.250000 1.000000
vt 0.000000 0.489455
vt 0.250000 0.489455
vt 0.500000 0.489455
vt 1.000000 1.000000
vt 1.000000 0.489455
vt 0.250000 0.000000
vt 0.500000 0.000000
vt 0.000000 0.000000
vt 0.000000 1.000000
vn 0.0000 -0.9792 -0.2030
vn 0.0000 -0.9913 -0.1318
vn -0.9974 0.0000 -0.0718
vn -0.9913 0.0000 -0.1318
vn 0.0000 0.9792 -0.2030
vn 0.0000 0.9913 -0.1318
vn 0.9792 0.0000 -0.2030
vn 0.9913 0.0000 -0.1318
vn -0.9792 0.0000 -0.2030
vn 0.9974 0.0000 -0.0718
vn 0.0000 -0.9974 -0.0718
vn 0.0000 0.9974 -0.0718
s 1
f 12/1/1 3/2/2 2/3/1
f 10/4/3 3/2/4 5/5/3
f 6/6/5 1/7/6 7/8/6
f 12/1/7 7/8/8 4/9/8
f 9/10/9 3/2/4 1/11/4
f 11/12/10 4/9/8 7/8/8
f 8/13/11 3/2/2 4/9/2
f 10/14/12 7/8/6 1/7/6
f 12/1/1 4/9/2 3/2/2
f 10/4/3 1/11/4 3/2/4
f 6/6/5 9/15/5 1/7/6
f 12/1/7 6/6/7 7/8/8
f 9/10/9 2/3/9 3/2/4
f 11/12/10 8/13/10 4/9/8
f 8/13/11 5/5/11 3/2/2
f 10/14/12 11/12/12 7/8/6
