# Blender v2.79 (sub 0) OBJ File: 'thrust4.blend'
# www.blender.org
o Cylinder
v 0.000000 0.250000 0.000000
v 0.176776 0.176777 -0.250000
v 0.000000 0.250000 -0.250000
v 0.176776 0.176776 0.000000
v 0.250000 0.000000 -0.250000
v 0.176776 -0.176776 -0.000000
v 0.176776 -0.176776 -0.250000
v 0.000000 -0.250000 -0.250000
v 0.000000 -0.250000 -0.000000
v -0.176776 -0.176776 -0.250000
v -0.176776 -0.176776 -0.000000
v -0.250000 0.000000 -0.250000
v -0.250000 0.000000 0.000000
v -0.176776 0.176777 -0.250000
v -0.176776 0.176776 0.000000
v -0.117174 0.117174 -0.750000
v 0.000000 0.062500 -1.000000
v -0.044194 0.044194 -1.000000
v -0.156266 0.156267 -0.500000
v 0.000000 0.165709 -0.750000
v 0.000000 0.220995 -0.500000
v -0.062500 0.000000 -1.000000
v -0.220995 0.000000 -0.500000
v -0.165708 0.000000 -0.750000
v -0.117174 -0.117173 -0.750000
v -0.044194 -0.044194 -1.000000
v -0.156266 -0.156266 -0.500000
v 0.000000 -0.165708 -0.750000
v 0.000000 -0.062500 -1.000000
v 0.000000 -0.220994 -0.500000
v 0.117174 -0.117173 -0.750000
v 0.044194 -0.044194 -1.000000
v 0.156266 -0.156266 -0.500000
v 0.062500 0.000000 -1.000000
v 0.220995 0.000000 -0.500000
v 0.165708 0.000000 -0.750000
v 0.117174 0.117174 -0.750000
v 0.044194 0.044194 -1.000000
v 0.156266 0.156267 -0.500000
v 0.250000 0.000000 0.000000
vt 1.000000 0.000000
vt 0.875000 0.197758
vt 0.875000 0.000000
vt 0.000000 0.000000
vt 0.125000 0.197758
vt 0.000000 0.197758
vt 0.750000 0.197758
vt 0.750000 0.000000
vt 0.625000 0.197758
vt 0.625000 0.000000
vt 0.250000 0.197758
vt 0.375000 0.000000
vt 0.375000 0.197758
vt 0.500000 0.197758
vt 0.500000 0.000000
vt 0.125000 0.000000
vt 1.000000 0.197758
vt 0.875000 0.427842
vt 0.500000 0.687216
vt 0.625000 1.000000
vt 0.500000 1.000000
vt 0.750000 0.427842
vt 0.625000 0.687216
vt 0.625000 0.427842
vt 0.125000 0.427842
vt 0.000000 0.427842
vt 0.250000 0.687216
vt 0.125000 1.000000
vt 0.125000 0.687216
vt 0.750000 1.000000
vt 0.500000 0.427843
vt 0.250000 1.000000
vt 0.375000 0.687216
vt 0.375000 1.000000
vt 0.375000 0.427842
vt 0.250000 0.427842
vt 0.000000 0.687216
vt 0.750000 0.687216
vt 0.875000 1.000000
vt 0.000000 1.000000
vt 0.875000 0.687215
vt 1.000000 1.000000
vt 1.000000 0.687216
vt 0.250000 0.000000
vt 1.000000 0.427842
vn 0.0000 1.0000 0.0000
vn -0.7060 0.7060 -0.0569
vn -0.7071 0.7071 0.0000
vn 0.7060 0.7060 -0.0569
vn 0.0000 0.9984 -0.0569
vn -0.9984 -0.0000 -0.0569
vn -0.9239 0.3827 0.0000
vn -0.9239 -0.3827 -0.0000
vn -0.7060 -0.7060 -0.0569
vn -0.7071 -0.7071 -0.0000
vn 0.9984 -0.0000 -0.0569
vn 0.7071 -0.7071 -0.0000
vn 0.7060 -0.7060 -0.0569
vn 0.0000 -0.9984 -0.0569
vn -0.3827 -0.9239 0.0000
vn 0.7071 0.7071 0.0000
vn -0.6976 0.6976 -0.1638
vn 0.0000 -0.9558 -0.2940
vn -0.6536 -0.6536 -0.3816
vn 0.0000 -0.9243 -0.3816
vn -0.9865 -0.0000 -0.1638
vn -0.6759 -0.6759 -0.2940
vn -0.6976 -0.6976 -0.1638
vn 0.6976 0.6976 -0.1638
vn -0.0000 0.9865 -0.1638
vn 0.9558 -0.0000 -0.2940
vn 0.6536 0.6536 -0.3816
vn 0.6759 0.6759 -0.2940
vn -0.9243 0.0000 -0.3816
vn 0.0000 -0.9865 -0.1638
vn 0.9243 0.0000 -0.3816
vn 0.6759 -0.6759 -0.2940
vn 0.6536 -0.6536 -0.3816
vn 0.6976 -0.6976 -0.1638
vn 0.9865 -0.0000 -0.1638
vn 0.0000 0.9558 -0.2940
vn -0.9558 -0.0000 -0.2940
vn -0.6536 0.6536 -0.3816
vn 0.0000 0.9243 -0.3816
vn -0.6759 0.6759 -0.2940
vn 0.3827 -0.9239 -0.0000
vn 0.9239 -0.3827 -0.0000
vn 0.9239 0.3827 0.0000
s 1
f 1/1/1 14/2/2 15/3/3
f 1/4/1 2/5/4 3/6/5
f 15/3/3 12/7/6 13/8/7
f 13/8/8 10/9/9 11/10/10
f 5/11/11 6/12/12 7/13/13
f 11/10/10 8/14/14 9/15/15
f 4/16/16 5/11/11 2/5/4
f 3/17/5 19/18/17 14/2/2
f 28/19/18 26/20/19 29/21/20
f 23/22/21 25/23/22 27/24/23
f 3/6/5 39/25/24 21/26/25
f 36/27/26 38/28/27 37/29/28
f 25/23/22 22/30/29 26/20/19
f 10/9/9 30/31/30 8/14/14
f 34/32/31 31/33/32 32/34/33
f 33/35/34 36/27/26 35/36/35
f 7/13/13 35/36/35 5/11/11
f 28/19/18 32/34/33 31/33/32
f 39/25/24 20/37/36 21/26/25
f 7/13/13 30/31/30 33/35/34
f 24/38/37 18/39/38 22/30/29
f 27/24/23 28/19/18 30/31/30
f 10/9/9 23/22/21 27/24/23
f 37/29/28 17/40/39 20/37/36
f 35/36/35 37/29/28 39/25/24
f 33/35/34 28/19/18 31/33/32
f 23/22/21 16/41/40 24/38/37
f 14/2/2 23/22/21 12/7/6
f 16/41/40 17/42/39 18/39/38
f 19/18/17 20/43/36 16/41/40
f 2/5/4 35/36/35 39/25/24
f 9/15/41 7/13/13 6/12/12
f 1/1/1 3/17/5 14/2/2
f 1/4/1 4/16/16 2/5/4
f 15/3/3 14/2/2 12/7/6
f 13/8/8 12/7/6 10/9/9
f 5/11/11 40/44/42 6/12/12
f 11/10/10 10/9/9 8/14/14
f 4/16/16 40/44/43 5/11/11
f 3/17/5 21/45/25 19/18/17
f 28/19/18 25/23/22 26/20/19
f 23/22/21 24/38/37 25/23/22
f 3/6/5 2/5/4 39/25/24
f 36/27/26 34/32/31 38/28/27
f 25/23/22 24/38/37 22/30/29
f 10/9/9 27/24/23 30/31/30
f 34/32/31 36/27/26 31/33/32
f 33/35/34 31/33/32 36/27/26
f 7/13/13 33/35/34 35/36/35
f 28/19/18 29/21/20 32/34/33
f 39/25/24 37/29/28 20/37/36
f 7/13/13 8/14/14 30/31/30
f 24/38/37 16/41/40 18/39/38
f 27/24/23 25/23/22 28/19/18
f 10/9/9 12/7/6 23/22/21
f 37/29/28 38/28/27 17/40/39
f 35/36/35 36/27/26 37/29/28
f 33/35/34 30/31/30 28/19/18
f 23/22/21 19/18/17 16/41/40
f 14/2/2 19/18/17 23/22/21
f 16/41/40 20/43/36 17/42/39
f 19/18/17 21/45/25 20/43/36
f 2/5/4 5/11/11 35/36/35
f 9/15/41 8/14/14 7/13/13
