# Blender v2.79 (sub 0) OBJ File: 'thrust5.blend'
# www.blender.org
o Model_Plane
v -0.291954 0.011771 -0.531064
v 0.203845 0.000000 -1.000000
v 0.291954 0.011771 -0.531064
v -0.333333 0.023542 0.000000
v 0.333333 0.023542 0.000000
v -0.291954 -0.011771 -0.531064
v 0.291954 -0.011771 -0.531064
v -0.333333 -0.023542 -0.000000
v 0.333333 -0.023542 -0.000000
v -0.203845 0.000000 -1.000000
vt 1.000000 0.531064
vt 0.000000 1.000000
vt 1.000000 1.000000
vt 1.000000 0.531064
vt 0.000000 0.531064
vt 1.000000 0.000000
vt 0.000000 0.000000
vt 0.000004 0.531063
vt 0.500004 1.000000
vt 1.000000 0.000000
vt 0.000000 0.531064
vt 1.000000 0.000000
vt 0.000000 0.000000
vt 0.500004 1.000000
vt 1.000000 0.531063
vt -0.000000 0.000000
vn 0.0000 -0.9997 -0.0235
vn 0.0000 -0.9997 -0.0251
vn 0.0000 0.9997 -0.0235
vn 0.0000 0.9997 -0.0251
vn 0.0000 0.9998 -0.0222
vn 0.9914 0.0000 -0.1306
vn 0.9828 0.0000 -0.1847
vn 0.0000 -0.9998 -0.0222
vn -0.9970 0.0000 -0.0777
vn -0.9914 0.0000 -0.1306
vn 0.9970 0.0000 -0.0777
vn -0.9828 0.0000 -0.1847
s 1
f 7/1/1 10/2/2 2/3/2
f 3/4/3 10/2/4 1/5/3
f 5/6/5 1/5/3 4/7/5
f 3/4/6 7/8/6 2/9/7
f 9/10/8 6/11/1 7/1/1
f 4/12/9 6/11/10 8/13/9
f 5/6/11 7/8/6 3/4/6
f 10/14/12 6/11/10 1/15/10
f 7/1/1 6/11/1 10/2/2
f 3/4/3 2/3/4 10/2/4
f 5/6/5 3/4/3 1/5/3
f 9/10/8 8/13/8 6/11/1
f 4/12/9 1/15/10 6/11/10
f 5/6/11 9/16/11 7/8/6
