# Blender v2.92.0 OBJ File: '0.blend'
# www.blender.org
o Glass_Plane.001
v 0.034310 0.012812 0.403333
v 0.034310 0.050189 0.349481
v 0.034310 0.028720 0.383132
v 0.034310 0.001590 0.424903
v 0.020148 0.028772 0.407064
v 0.020148 0.041093 0.387539
v 0.020148 0.049341 0.371694
v 0.020148 0.015478 0.419670
v -0.034310 0.012812 0.403333
v 0.000000 0.050189 0.349481
v -0.034310 0.050189 0.349481
v -0.034310 0.028720 0.383132
v 0.000000 0.001590 0.424903
v -0.034310 0.001590 0.424903
v 0.000000 0.030789 0.407610
v -0.020148 0.028772 0.407064
v 0.000000 0.042902 0.388268
v -0.020148 0.041093 0.387539
v 0.000000 0.050682 0.372977
v -0.020148 0.049341 0.371694
v 0.000000 0.015997 0.420633
v -0.020148 0.015478 0.419670
vt 0.185296 0.875000
vt 0.353432 0.750000
vt 0.353432 0.875000
vt 0.875000 0.250000
vt 0.750000 0.500000
vt 0.750000 0.250000
vt 0.500000 0.750000
vt 0.500000 0.875000
vt 0.314704 0.500000
vt 0.500000 0.250000
vt 0.314704 0.250000
vt 0.146568 0.250000
vt 0.146568 0.500000
vt 0.000000 0.250000
vt 0.000000 0.500000
vt 0.500000 0.250000
vt 0.750000 0.000000
vt 0.500000 0.000000
vt 0.000000 0.750000
vt 0.185296 0.750000
vt 0.353432 0.875000
vt 0.185296 0.750000
vt 0.353432 0.750000
vt 0.750000 0.000000
vt 0.875000 0.000000
vt 0.500000 0.875000
vt 0.500000 0.750000
vt 0.314704 0.000000
vt 0.146568 0.000000
vt 0.750000 0.500000
vt 0.500000 0.500000
vt 0.000000 0.875000
vt 0.000000 0.750000
vt 0.875000 0.500000
vt 0.500000 0.500000
vt 0.750000 0.250000
vt 0.000000 0.875000
vt 0.185296 0.875000
vt 0.500000 0.000000
vt 0.000000 0.000000
vn 0.6762 0.6197 0.3982
vn 0.4078 0.6993 0.5871
vn 0.6755 0.5893 0.4432
vn 0.0000 0.3121 0.9501
vn 0.2791 0.5778 0.7670
vn 0.0000 0.4912 0.8710
vn 0.5731 0.7270 0.3782
vn 0.4021 0.7952 0.4538
vn -0.0000 0.9727 0.2320
vn -0.0000 0.8704 0.4923
vn 0.0000 0.7641 0.6451
vn 0.0000 0.9999 0.0104
vn 0.3068 0.9038 0.2985
vn 0.0000 0.9993 0.0381
vn -0.4078 0.6993 0.5871
vn -0.6762 0.6197 0.3982
vn -0.6755 0.5893 0.4432
vn -0.2791 0.5778 0.7670
vn 0.0000 0.3526 0.9358
vn -0.5731 0.7270 0.3782
vn -0.4021 0.7952 0.4538
vn -0.3068 0.9038 0.2985
vn -0.6214 0.6605 0.4214
vn 0.6214 0.6605 0.4214
s 1
f 3/1/1 5/2/2 1/3/3
f 13/4/4 8/5/5 21/6/6
f 1/3/3 8/7/5 4/8/7
f 6/9/8 19/10/9 17/11/10
f 15/12/11 6/9/8 17/11/10
f 5/13/2 21/14/6 8/15/5
f 10/16/12 7/17/13 2/18/14
f 3/1/1 7/19/13 6/20/8
f 16/21/15 12/22/16 9/23/17
f 13/4/4 22/24/18 14/25/19
f 22/26/18 9/23/17 14/27/20
f 19/10/9 18/28/21 17/11/10
f 15/12/11 18/28/21 16/29/15
f 16/29/15 21/14/6 15/12/11
f 20/30/22 10/16/12 11/31/14
f 12/22/16 20/32/22 11/33/23
f 3/1/1 6/20/8 5/2/2
f 13/4/4 4/34/19 8/5/5
f 1/3/3 5/2/2 8/7/5
f 6/9/8 7/35/13 19/10/9
f 15/12/11 5/13/2 6/9/8
f 5/13/2 15/12/11 21/14/6
f 10/16/12 19/36/9 7/17/13
f 3/1/1 2/37/24 7/19/13
f 16/21/15 18/38/21 12/22/16
f 13/4/4 21/6/6 22/24/18
f 22/26/18 16/21/15 9/23/17
f 19/10/9 20/39/22 18/28/21
f 15/12/11 17/11/10 18/28/21
f 16/29/15 22/40/18 21/14/6
f 20/30/22 19/36/9 10/16/12
f 12/22/16 18/38/21 20/32/22
