# Blender v2.79 (sub 0) OBJ File: '102.blend'
# www.blender.org
o Cube.001
v 0.044109 0.112774 0.201510
v 0.041773 0.099864 0.436346
v 0.044109 0.094076 0.439452
v 0.041773 0.115150 0.365034
v 0.044109 0.110089 0.364749
v 0.026367 0.092503 0.472782
v 0.026367 0.085599 0.481411
v -0.044109 0.112774 0.201510
v -0.041773 0.099864 0.436346
v -0.044109 0.094076 0.439452
v -0.041773 0.115150 0.365034
v -0.044109 0.110089 0.364749
v -0.026367 0.092503 0.472782
v -0.026367 0.085599 0.481411
v 0.000000 0.085599 0.481411
v 0.000000 0.092503 0.472782
v 0.034070 0.096183 0.454564
v 0.035238 0.089837 0.460431
v 0.044109 0.099413 0.414551
v 0.044109 0.104751 0.389650
v 0.041773 0.110055 0.388804
v 0.041773 0.104959 0.412575
v 0.044109 0.110537 0.337543
v 0.044109 0.110984 0.310336
v 0.044109 0.111432 0.283130
v 0.044109 0.111879 0.255923
v 0.044109 0.112327 0.228717
v 0.043720 0.113170 0.228764
v 0.043331 0.113566 0.256018
v 0.042941 0.113962 0.283272
v 0.042552 0.114358 0.310526
v 0.042163 0.114754 0.337780
v -0.044109 0.110537 0.337543
v -0.044109 0.110984 0.310336
v -0.044109 0.111432 0.283130
v -0.044109 0.111879 0.255923
v -0.044109 0.112327 0.228717
v -0.043720 0.113170 0.228764
v -0.043331 0.113566 0.256018
v -0.042941 0.113962 0.283272
v -0.042552 0.114358 0.310526
v -0.042163 0.114754 0.337780
v -0.044109 0.099413 0.414551
v -0.044109 0.104751 0.389650
v -0.041773 0.110055 0.388804
v -0.041773 0.104959 0.412575
v -0.034070 0.096183 0.454564
v -0.035238 0.089837 0.460431
vt 0.000000 0.000000
vt 0.500000 0.000000
vt 0.500000 0.500000
vt 0.500000 0.000000
vt 0.000000 0.500000
vt 0.000000 0.000000
vt 0.500000 0.000000
vt 0.000000 0.500000
vt 0.000000 0.000000
vt 0.500000 0.000000
vt 0.000000 0.500000
vt 0.000000 0.000000
vt 0.000000 0.000000
vt 0.500000 0.000000
vt 0.500000 0.500000
vt 0.500000 0.000000
vt 0.000000 0.500000
vt 0.000000 0.000000
vt 0.500000 0.000000
vt 0.000000 0.500000
vt 0.000000 0.000000
vt 0.000000 0.000000
vt 0.500000 0.500000
vt 0.000000 0.500000
vt 0.500000 0.000000
vt 0.000000 0.500000
vt 0.000000 0.000000
vt 0.500000 0.000000
vt 0.000000 0.500000
vt 0.000000 0.000000
vt 0.500000 0.000000
vt 0.000000 0.500000
vt 0.000000 0.000000
vt 0.000000 0.500000
vt 0.000000 0.000000
vt 0.500000 0.000000
vt 0.000000 0.500000
vt 0.000000 0.000000
vt 0.500000 0.000000
vt 0.000000 0.500000
vt 0.000000 0.000000
vt 0.500000 0.000000
vt 0.000000 0.500000
vt 0.000000 0.000000
vt 0.500000 0.000000
vt 0.000000 0.500000
vt 0.000000 0.000000
vt 0.500000 0.000000
vt 0.000000 0.000000
vt 0.500000 0.000000
vt 0.000000 0.500000
vt 0.000000 0.000000
vt 0.500000 0.000000
vt 0.000000 0.500000
vt 0.000000 0.000000
vt 0.500000 0.000000
vt 0.000000 0.500000
vt 0.000000 0.000000
vt 0.500000 0.000000
vt 0.000000 0.500000
vt 0.000000 0.000000
vt 0.500000 0.000000
vt 0.000000 0.500000
vt 0.000000 0.000000
vt 0.500000 0.000000
vt 0.000000 0.500000
vt 0.000000 0.000000
vt 0.500000 0.000000
vt 0.000000 0.500000
vt 0.000000 0.000000
vt 0.500000 0.500000
vt 0.500000 0.500000
vt 0.500000 0.500000
vt 0.500000 0.500000
vt 0.500000 0.000000
vt 0.500000 0.500000
vt 0.500000 0.500000
vt 0.500000 0.500000
vt 0.500000 0.500000
vt 0.500000 0.500000
vt 0.500000 0.500000
vt 0.500000 0.500000
vt 0.500000 0.500000
vt 0.500000 0.500000
vt 0.500000 0.500000
vt 0.500000 0.500000
vt 0.500000 0.500000
vt 0.500000 0.500000
vt 0.500000 0.500000
vt 0.500000 0.500000
vn 0.9081 0.4187 0.0069
vn 0.9079 0.4163 0.0491
vn 0.9063 0.4133 0.0886
vn 0.7413 0.5241 0.4193
vn -0.0000 0.7809 0.6247
vn -0.9081 0.4187 0.0069
vn -0.9063 0.4133 0.0886
vn -0.9079 0.4163 0.0491
vn -0.7413 0.5241 0.4193
vn -0.7412 0.5241 0.4193
vn 0.8058 0.4975 0.3211
vn 0.8652 0.4583 0.2033
vn 0.9080 0.4164 0.0468
vn -0.9080 0.4164 0.0468
vn -0.8652 0.4583 0.2033
vn -0.8058 0.4975 0.3211
s 1
f 28/1/1 27/2/1 1/3/1
f 5/4/2 21/5/3 20/6/3
f 6/7/4 18/8/4 17/9/4
f 16/10/5 7/11/5 6/12/5
f 38/13/6 8/14/6 37/15/6
f 45/16/7 12/17/8 44/18/7
f 48/19/9 13/20/10 47/21/9
f 13/22/5 15/23/5 16/24/5
f 17/25/4 3/26/11 2/27/12
f 19/28/3 2/29/12 3/30/11
f 20/31/3 22/32/3 19/33/3
f 5/4/2 32/34/1 4/35/13
f 23/36/1 31/37/1 32/38/1
f 24/39/1 30/40/1 31/41/1
f 25/42/1 29/43/1 30/44/1
f 26/45/1 28/46/1 29/47/1
f 42/48/6 12/17/8 11/49/14
f 41/50/6 33/51/6 42/52/6
f 40/53/6 34/54/6 41/55/6
f 39/56/6 35/57/6 40/58/6
f 38/59/6 36/60/6 39/61/6
f 9/62/15 43/63/7 10/64/16
f 46/65/7 44/66/7 43/67/7
f 10/68/16 47/69/9 9/70/15
f 5/4/2 4/71/13 21/5/3
f 6/7/4 7/72/4 18/8/4
f 16/10/5 15/23/5 7/11/5
f 45/16/7 11/73/14 12/17/8
f 48/19/9 14/74/10 13/20/10
f 13/22/5 14/75/5 15/23/5
f 17/25/4 18/76/4 3/26/11
f 19/28/3 22/77/3 2/29/12
f 20/31/3 21/78/3 22/32/3
f 5/4/2 23/79/1 32/34/1
f 23/36/1 24/80/1 31/37/1
f 24/39/1 25/81/1 30/40/1
f 25/42/1 26/82/1 29/43/1
f 26/45/1 27/83/1 28/46/1
f 42/48/6 33/84/6 12/17/8
f 41/50/6 34/85/6 33/51/6
f 40/53/6 35/86/6 34/54/6
f 39/56/6 36/87/6 35/57/6
f 38/59/6 37/15/6 36/60/6
f 9/62/15 46/88/7 43/63/7
f 46/65/7 45/89/7 44/66/7
f 10/68/16 48/90/9 47/69/9
