# Blender v2.79 (sub 0) OBJ File: '104.blend'
# www.blender.org
o Cylinder.001
v -0.025505 -0.043435 0.533285
v -0.020914 -0.028959 0.533313
v 0.020915 -0.028959 0.533313
v 0.025506 -0.043435 0.533285
v -0.015169 -0.048813 0.576280
v -0.012409 -0.040666 0.576252
v 0.012409 -0.040666 0.576252
v 0.015169 -0.048813 0.576280
vt 0.000000 0.000000
vt 0.500000 0.500000
vt 0.000000 0.500000
vt 0.500000 0.000000
vt 0.000000 0.500000
vt 0.000000 0.000000
vt 0.000000 0.000000
vt 0.500000 0.500000
vt 0.000000 0.500000
vt 0.500000 0.000000
vt 0.500000 0.000000
vn -0.9195 0.2936 0.2613
vn -0.9157 0.3070 0.2593
vn -0.9201 0.2913 0.2617
vn 0.0000 0.9648 0.2630
vn 0.9195 0.2936 0.2613
vn 0.9157 0.3070 0.2593
vn 0.9146 0.3107 0.2588
vn -0.9146 0.3107 0.2588
vn 0.9201 0.2913 0.2617
s 1
f 1/1/1 6/2/2 2/3/3
f 6/4/4 3/5/4 2/6/4
f 4/7/5 7/8/6 8/9/7
f 1/1/1 5/10/8 6/2/2
f 6/4/4 7/8/4 3/5/4
f 4/7/5 3/11/9 7/8/6
