# Blender v2.79 (sub 0) OBJ File: '107.blend'
# www.blender.org
o Cylinder.001
v 0.018315 0.184535 -0.201885
v 0.018315 0.174810 -0.201859
v -0.016190 0.184700 -0.127010
v -0.016190 0.174975 -0.126984
v -0.018315 0.174810 -0.201859
v -0.018315 0.184535 -0.201885
v 0.016190 0.174975 -0.126984
v 0.016190 0.184700 -0.127010
v 0.045020 -0.004902 0.438639
v -0.058822 -0.004902 0.417983
v -0.045020 0.004915 0.438639
v -0.000000 0.004915 0.457287
v 0.058822 0.004915 0.417983
v -0.024365 0.004915 0.452440
v 0.024365 -0.004902 0.452440
v 0.058822 -0.004902 0.417983
v -0.058822 0.004915 0.417983
v 0.024365 0.004915 0.452440
v -0.000000 -0.004902 0.457287
v 0.045020 0.004915 0.438639
v -0.024365 -0.004902 0.452440
v -0.045020 -0.004902 0.438639
v 0.017890 0.184568 -0.186910
v 0.017465 0.184601 -0.171935
v 0.017040 0.184634 -0.156960
v 0.016615 0.184667 -0.141985
v 0.016615 0.174942 -0.141959
v 0.017040 0.174909 -0.156934
v 0.017465 0.174876 -0.171909
v 0.017890 0.174843 -0.186884
v 0.000000 0.184700 -0.127010
v 0.000000 0.174975 -0.126984
v -0.016615 0.184667 -0.141985
v -0.017040 0.184634 -0.156960
v -0.017465 0.184601 -0.171935
v -0.017890 0.184568 -0.186910
v -0.017890 0.174843 -0.186884
v -0.017465 0.174876 -0.171909
v -0.017040 0.174909 -0.156934
v -0.016615 0.174942 -0.141959
v 0.000000 0.184535 -0.201885
v 0.000000 0.174810 -0.201859
vt 0.500000 0.000000
vt 0.000000 0.500000
vt 0.000000 0.000000
vt 0.500000 0.000000
vt 0.000000 0.500000
vt 0.000000 0.000000
vt 0.500000 0.000000
vt 0.000000 0.500000
vt 0.000000 0.000000
vt 0.000000 0.000000
vt 0.500000 0.500000
vt 0.000000 0.500000
vt 0.500000 0.000000
vt 0.000000 0.500000
vt 0.000000 0.000000
vt 0.500000 0.000000
vt 0.000000 0.500000
vt 0.000000 0.000000
vt 0.500000 0.000000
vt 0.000000 0.500000
vt 0.000000 0.000000
vt 0.500000 0.000000
vt 0.000000 0.500000
vt 0.000000 0.000000
vt 0.500000 0.000000
vt 0.000000 0.500000
vt 0.000000 0.000000
vt 0.500000 0.000000
vt 0.000000 0.500000
vt 0.000000 0.000000
vt 0.500000 0.000000
vt 0.000000 0.500000
vt 0.000000 0.000000
vt 0.500000 0.000000
vt 0.000000 0.500000
vt 0.000000 0.000000
vt 0.500000 0.000000
vt 0.000000 0.500000
vt 0.000000 0.000000
vt 0.500000 0.000000
vt 0.000000 0.500000
vt 0.000000 0.000000
vt 0.500000 0.000000
vt 0.000000 0.500000
vt 0.000000 0.000000
vt 0.000000 0.000000
vt 0.500000 0.500000
vt 0.000000 0.500000
vt 0.000000 0.000000
vt 0.500000 0.500000
vt 0.000000 0.500000
vt 0.000000 0.000000
vt 0.500000 0.500000
vt 0.000000 0.500000
vt 0.000000 0.000000
vt 0.500000 0.500000
vt 0.000000 0.500000
vt 0.500000 0.000000
vt 0.000000 0.500000
vt 0.000000 0.000000
vt 0.500000 0.500000
vt 0.500000 0.500000
vt 0.500000 0.500000
vt 0.500000 0.000000
vt 0.500000 0.500000
vt 0.500000 0.500000
vt 0.500000 0.500000
vt 0.500000 0.500000
vt 0.500000 0.500000
vt 0.500000 0.500000
vt 0.500000 0.500000
vt 0.500000 0.500000
vt 0.500000 0.500000
vt 0.500000 0.500000
vt 0.500000 0.500000
vt 0.500000 0.000000
vt 0.500000 0.000000
vt 0.500000 0.000000
vt 0.500000 0.000000
vt 0.500000 0.500000
vn 0.0000 -0.0026 -1.0000
vn 0.0000 0.0026 1.0000
vn 0.9996 0.0001 0.0284
vn -0.9996 0.0001 0.0284
vn -0.0000 0.0000 1.0000
vn -0.3827 0.0000 0.9239
vn 0.3827 0.0000 0.9239
vn -0.7071 0.0000 0.7071
vn -0.8315 0.0000 0.5556
vn 0.7071 0.0000 0.7071
vn 0.8315 0.0000 0.5556
s 1
f 1/1/1 42/2/1 41/3/1
f 3/4/2 32/5/2 31/6/2
f 8/7/3 27/8/3 26/9/3
f 36/10/4 5/11/4 37/12/4
f 19/13/5 14/14/6 21/15/6
f 12/16/5 15/17/7 18/18/7
f 21/19/6 11/20/8 22/21/8
f 17/22/9 22/23/8 11/24/8
f 18/25/7 9/26/10 20/27/10
f 20/28/10 16/29/11 13/30/11
f 23/31/3 2/32/3 1/33/3
f 24/34/3 30/35/3 23/36/3
f 25/37/3 29/38/3 24/39/3
f 26/40/3 28/41/3 25/42/3
f 31/43/2 7/44/2 8/45/2
f 3/46/4 40/47/4 4/48/4
f 33/49/4 39/50/4 40/51/4
f 34/52/4 38/53/4 39/54/4
f 35/55/4 37/56/4 38/57/4
f 41/58/1 5/59/1 6/60/1
f 1/1/1 2/61/1 42/2/1
f 3/4/2 4/62/2 32/5/2
f 8/7/3 7/63/3 27/8/3
f 36/10/4 6/64/4 5/11/4
f 19/13/5 12/65/5 14/14/6
f 12/16/5 19/66/5 15/17/7
f 21/19/6 14/67/6 11/20/8
f 17/22/9 10/68/9 22/23/8
f 18/25/7 15/69/7 9/26/10
f 20/28/10 9/70/10 16/29/11
f 23/31/3 30/71/3 2/32/3
f 24/34/3 29/72/3 30/35/3
f 25/37/3 28/73/3 29/38/3
f 26/40/3 27/74/3 28/41/3
f 31/43/2 32/75/2 7/44/2
f 3/46/4 33/76/4 40/47/4
f 33/49/4 34/77/4 39/50/4
f 34/52/4 35/78/4 38/53/4
f 35/55/4 36/79/4 37/56/4
f 41/58/1 42/80/1 5/59/1
