# Blender v2.79 (sub 0) OBJ File: '109.blend'
# www.blender.org
o Cylinder.001_Cylinder.002
v 0.012946 0.106060 -0.078335
v 0.012946 0.109765 -0.078335
v 0.012946 0.109765 -0.147206
v 0.012946 0.106060 -0.147206
v 0.013272 0.117163 -0.238091
v 0.013272 0.120867 -0.238091
v 0.013272 0.120867 -0.168488
v 0.013272 0.117163 -0.168488
v -0.012946 0.106060 -0.078335
v -0.012946 0.109765 -0.078335
v -0.012946 0.109765 -0.147206
v -0.012946 0.106060 -0.147206
v -0.013272 0.117163 -0.238091
v -0.013272 0.120867 -0.238091
v -0.013272 0.120867 -0.168488
v -0.013272 0.117163 -0.168488
v 0.013272 0.117163 -0.180088
v 0.013272 0.117163 -0.191689
v 0.013272 0.117163 -0.203289
v 0.013272 0.117163 -0.214890
v 0.013272 0.117163 -0.226491
v 0.013272 0.120867 -0.226491
v 0.013272 0.120867 -0.214890
v 0.013272 0.120867 -0.203289
v 0.013272 0.120867 -0.191689
v 0.013272 0.120867 -0.180088
v 0.000000 0.117163 -0.168488
v 0.000000 0.120867 -0.168488
v 0.012946 0.106060 -0.089813
v 0.012946 0.106060 -0.101292
v 0.012946 0.106060 -0.112770
v 0.012946 0.106060 -0.124249
v 0.012946 0.106060 -0.135727
v 0.012946 0.109765 -0.135727
v 0.012946 0.109765 -0.124249
v 0.012946 0.109765 -0.112770
v 0.012946 0.109765 -0.101292
v 0.012946 0.109765 -0.089813
v -0.012946 0.106060 -0.089813
v -0.012946 0.106060 -0.101292
v -0.012946 0.106060 -0.112770
v -0.012946 0.106060 -0.124249
v -0.012946 0.106060 -0.135727
v -0.012946 0.109765 -0.135727
v -0.012946 0.109765 -0.124249
v -0.012946 0.109765 -0.112770
v -0.012946 0.109765 -0.101292
v -0.012946 0.109765 -0.089813
v 0.000000 0.106060 -0.078335
v 0.000000 0.109765 -0.078335
v -0.013272 0.117163 -0.180088
v -0.013272 0.117163 -0.191689
v -0.013272 0.117163 -0.203289
v -0.013272 0.117163 -0.214890
v -0.013272 0.117163 -0.226491
v -0.013272 0.120867 -0.226491
v -0.013272 0.120867 -0.214890
v -0.013272 0.120867 -0.203289
v -0.013272 0.120867 -0.191689
v -0.013272 0.120867 -0.180088
v 0.000000 0.109765 -0.147206
v 0.000000 0.106060 -0.147206
v 0.000000 0.120867 -0.238091
v 0.000000 0.117163 -0.238091
vt 0.500000 0.000000
vt 0.000000 0.500000
vt 0.000000 0.000000
vt 0.500000 0.000000
vt 0.000000 0.500000
vt 0.000000 0.000000
vt 0.500000 0.000000
vt 0.000000 0.500000
vt 0.000000 0.000000
vt 0.000000 0.000000
vt 0.500000 0.500000
vt 0.000000 0.500000
vt 0.500000 0.000000
vt 0.000000 0.500000
vt 0.000000 0.000000
vt 0.500000 0.000000
vt 0.000000 0.500000
vt 0.000000 0.000000
vt 0.500000 0.000000
vt 0.000000 0.500000
vt 0.000000 0.000000
vt 0.000000 0.000000
vt 0.500000 0.500000
vt 0.000000 0.500000
vt 0.000000 0.000000
vt 0.500000 0.500000
vt 0.000000 0.500000
vt 0.000000 0.000000
vt 0.500000 0.500000
vt 0.000000 0.500000
vt 0.000000 0.000000
vt 0.500000 0.500000
vt 0.000000 0.500000
vt 0.000000 0.000000
vt 0.500000 0.500000
vt 0.000000 0.500000
vt 0.000000 0.000000
vt 0.500000 0.500000
vt 0.000000 0.500000
vt 0.500000 0.000000
vt 0.000000 0.500000
vt 0.000000 0.000000
vt 0.500000 0.000000
vt 0.000000 0.500000
vt 0.000000 0.000000
vt 0.500000 0.000000
vt 0.000000 0.500000
vt 0.000000 0.000000
vt 0.500000 0.000000
vt 0.000000 0.500000
vt 0.000000 0.000000
vt 0.500000 0.000000
vt 0.000000 0.500000
vt 0.000000 0.000000
vt 0.500000 0.000000
vt 0.000000 0.500000
vt 0.000000 0.000000
vt 0.000000 0.500000
vt 0.000000 0.000000
vt 0.500000 0.000000
vt 0.000000 0.500000
vt 0.000000 0.000000
vt 0.500000 0.000000
vt 0.000000 0.500000
vt 0.000000 0.000000
vt 0.500000 0.000000
vt 0.000000 0.500000
vt 0.000000 0.000000
vt 0.500000 0.000000
vt 0.000000 0.500000
vt 0.000000 0.000000
vt 0.500000 0.000000
vt 0.000000 0.500000
vt 0.000000 0.000000
vt 0.000000 0.000000
vt 0.500000 0.500000
vt 0.000000 0.500000
vt 0.000000 0.000000
vt 0.500000 0.500000
vt 0.000000 0.500000
vt 0.000000 0.000000
vt 0.500000 0.500000
vt 0.000000 0.500000
vt 0.000000 0.000000
vt 0.500000 0.500000
vt 0.000000 0.500000
vt 0.000000 0.000000
vt 0.500000 0.500000
vt 0.000000 0.500000
vt 0.500000 0.000000
vt 0.000000 0.500000
vt 0.000000 0.000000
vt 0.500000 0.000000
vt 0.000000 0.500000
vt 0.500000 0.500000
vt 0.500000 0.000000
vt 0.500000 0.500000
vt 0.500000 0.500000
vt 0.500000 0.500000
vt 0.500000 0.000000
vt 0.500000 0.000000
vt 0.500000 0.000000
vt 0.500000 0.000000
vt 0.500000 0.000000
vt 0.500000 0.000000
vt 0.500000 0.500000
vt 0.500000 0.500000
vt 0.500000 0.500000
vt 0.500000 0.500000
vt 0.500000 0.500000
vt 0.500000 0.500000
vt 0.500000 0.500000
vt 0.500000 0.500000
vt 0.500000 0.500000
vt 0.500000 0.500000
vt 0.500000 0.500000
vt 0.500000 0.500000
vt 0.500000 0.000000
vt 0.500000 0.000000
vt 0.500000 0.000000
vt 0.500000 0.000000
vt 0.500000 0.000000
vt 0.500000 0.500000
vt 0.500000 0.500000
vn 1.0000 -0.0000 0.0000
vn 0.0000 0.0000 1.0000
vn 0.0000 0.0000 -1.0000
vn -1.0000 -0.0000 0.0000
s 1
f 2/1/1 29/2/1 38/3/1
f 15/4/2 27/5/2 28/6/2
f 49/7/2 2/8/2 50/9/2
f 26/10/1 8/11/1 17/12/1
f 6/13/3 64/14/3 63/15/3
f 12/16/3 61/17/3 62/18/3
f 39/19/4 10/20/4 48/21/4
f 60/22/4 16/23/4 15/24/4
f 6/25/1 21/26/1 5/27/1
f 22/28/1 20/29/1 21/30/1
f 23/31/1 19/32/1 20/33/1
f 24/34/1 18/35/1 19/36/1
f 25/37/1 17/38/1 18/39/1
f 28/40/2 8/41/2 7/42/2
f 34/43/1 4/44/1 3/45/1
f 35/46/1 33/47/1 34/48/1
f 36/49/1 32/50/1 35/51/1
f 37/52/1 31/53/1 36/54/1
f 38/55/1 30/56/1 37/57/1
f 12/16/4 44/58/4 11/59/4
f 43/60/4 45/61/4 44/62/4
f 42/63/4 46/64/4 45/65/4
f 41/66/4 47/67/4 46/68/4
f 40/69/4 48/70/4 47/71/4
f 9/72/2 50/73/2 10/74/2
f 14/75/4 55/76/4 56/77/4
f 56/78/4 54/79/4 57/80/4
f 57/81/4 53/82/4 58/83/4
f 58/84/4 52/85/4 59/86/4
f 59/87/4 51/88/4 60/89/4
f 62/90/3 3/91/3 4/92/3
f 63/93/3 13/94/3 14/75/3
f 2/1/1 1/95/1 29/2/1
f 15/4/2 16/23/2 27/5/2
f 49/7/2 1/95/2 2/8/2
f 26/10/1 7/96/1 8/11/1
f 6/13/3 5/97/3 64/14/3
f 12/16/3 11/98/3 61/17/3
f 39/19/4 9/99/4 10/20/4
f 60/22/4 51/100/4 16/23/4
f 6/25/1 22/101/1 21/26/1
f 22/28/1 23/102/1 20/29/1
f 23/31/1 24/103/1 19/32/1
f 24/34/1 25/104/1 18/35/1
f 25/37/1 26/105/1 17/38/1
f 28/40/2 27/106/2 8/41/2
f 34/43/1 33/107/1 4/44/1
f 35/46/1 32/108/1 33/47/1
f 36/49/1 31/109/1 32/50/1
f 37/52/1 30/110/1 31/53/1
f 38/55/1 29/111/1 30/56/1
f 12/16/4 43/112/4 44/58/4
f 43/60/4 42/113/4 45/61/4
f 42/63/4 41/114/4 46/64/4
f 41/66/4 40/115/4 47/67/4
f 40/69/4 39/116/4 48/70/4
f 9/72/2 49/117/2 50/73/2
f 14/75/4 13/118/4 55/76/4
f 56/78/4 55/119/4 54/79/4
f 57/81/4 54/120/4 53/82/4
f 58/84/4 53/121/4 52/85/4
f 59/87/4 52/122/4 51/88/4
f 62/90/3 61/123/3 3/91/3
f 63/93/3 64/124/3 13/94/3
