# Blender v2.79 (sub 0) OBJ File: '10.blend'
# www.blender.org
o Model.001_Plane.001
v 0.010396 0.141435 0.179750
v 0.012829 0.134873 0.180125
v 0.012782 0.134949 0.135590
v 0.010443 0.141391 0.142530
v -0.010396 0.141435 0.179750
v -0.012829 0.134873 0.180125
v -0.012782 0.134949 0.135590
v -0.010443 0.141391 0.142530
v 0.012806 0.134920 0.157858
v 0.010420 0.141422 0.161140
v -0.012806 0.134920 0.157858
v -0.010420 0.141422 0.161140
v -0.011613 0.138163 0.179938
v 0.011613 0.138163 0.179938
v -0.011613 0.138179 0.139060
v 0.011613 0.138179 0.139060
v 0.011613 0.138171 0.159499
v -0.011613 0.138171 0.159499
v -0.012817 0.134901 0.168991
v -0.010408 0.141433 0.170445
v -0.011613 0.138167 0.169718
v -0.010431 0.141412 0.151835
v -0.012794 0.134939 0.146724
v -0.011613 0.138175 0.149280
v 0.000000 0.141444 0.179750
v 0.000000 0.134882 0.180125
v 0.000000 0.138163 0.179938
v 0.012817 0.134901 0.168991
v 0.010408 0.141433 0.170445
v 0.011613 0.138167 0.169718
v 0.010431 0.141412 0.151835
v 0.012794 0.134939 0.146724
v 0.011613 0.138175 0.149280
v 0.000000 0.134958 0.135590
v 0.000000 0.141401 0.142530
v 0.000000 0.138179 0.139060
vt 0.000000 0.000000
vt 0.500000 0.500000
vt 0.000000 0.500000
vt 0.500000 0.000000
vt 0.000000 0.500000
vt 0.000000 0.000000
vt 0.000000 0.000000
vt 0.500000 0.500000
vt 0.000000 0.500000
vt 0.500000 0.000000
vt 0.000000 0.500000
vt 0.000000 0.000000
vt 0.000000 0.000000
vt 0.500000 0.500000
vt 0.000000 0.500000
vt 0.000000 0.000000
vt 0.500000 0.500000
vt 0.000000 0.500000
vt 0.000000 0.000000
vt 0.500000 0.500000
vt 0.000000 0.500000
vt 0.000000 0.000000
vt 0.500000 0.500000
vt 0.000000 0.500000
vt 0.500000 0.000000
vt 0.000000 0.500000
vt 0.000000 0.000000
vt 0.000000 0.000000
vt 0.500000 0.500000
vt 0.000000 0.500000
vt 0.500000 0.000000
vt 0.000000 0.500000
vt 0.000000 0.000000
vt 0.000000 0.000000
vt 0.500000 0.500000
vt 0.000000 0.500000
vt 0.000000 0.000000
vt 0.500000 0.500000
vt 0.000000 0.500000
vt 0.000000 0.000000
vt 0.500000 0.500000
vt 0.000000 0.500000
vt 0.000000 0.000000
vt 0.500000 0.500000
vt 0.000000 0.500000
vt 0.000000 0.000000
vt 0.500000 0.500000
vt 0.000000 0.500000
vt 0.000000 0.000000
vt 0.500000 0.500000
vt 0.000000 0.500000
vt 0.000000 0.000000
vt 0.500000 0.500000
vt 0.000000 0.500000
vt 0.000000 0.000000
vt 0.500000 0.500000
vt 0.000000 0.500000
vt 0.000000 0.000000
vt 0.500000 0.500000
vt 0.000000 0.500000
vt 0.000000 0.000000
vt 0.500000 0.500000
vt 0.000000 0.500000
vt 0.000000 0.000000
vt 0.500000 0.500000
vt 0.000000 0.500000
vt 0.500000 0.500000
vt 0.000000 0.500000
vt 0.500000 0.500000
vt 0.000000 0.500000
vt 0.500000 0.000000
vt 0.500000 0.000000
vt 0.500000 0.500000
vt 0.500000 0.000000
vt 0.500000 0.000000
vt 0.500000 0.000000
vt 0.500000 0.000000
vt 0.500000 0.500000
vt 0.500000 0.000000
vt 0.500000 0.000000
vt 0.500000 0.000000
vt 0.500000 0.000000
vt 0.500000 0.000000
vt 0.500000 0.000000
vt 0.500000 0.000000
vt 0.500000 0.000000
vt 0.500000 0.000000
vt 0.500000 0.000000
vt 0.500000 0.000000
vt 0.500000 0.000000
vt 0.500000 0.000000
vt 0.500000 0.000000
vn 0.9383 0.3460 0.0002
vn 0.9380 0.3466 0.0001
vn 0.9383 0.3459 -0.0000
vn 0.0000 0.0570 0.9984
vn 0.0000 0.0571 0.9984
vn -0.9383 0.3460 0.0002
vn -0.9380 0.3466 0.0001
vn -0.9377 0.3473 0.0005
vn 0.0000 0.7327 -0.6806
vn -0.0002 0.7329 -0.6803
vn -0.0000 0.7330 -0.6802
vn 0.9394 0.3429 0.0001
vn 0.9388 0.3444 -0.0001
vn 0.9394 0.3427 -0.0001
vn -0.9394 0.3429 0.0001
vn -0.9388 0.3444 -0.0001
vn -0.9388 0.3444 0.0002
vn -0.9394 0.3429 0.0003
vn -0.9388 0.3445 0.0004
vn 0.9394 0.3429 0.0003
vn 0.9388 0.3444 0.0002
vn -0.0002 0.7337 -0.6795
vn -0.0000 0.7329 -0.6803
vn -0.9381 0.3463 0.0005
vn -0.9373 0.3486 0.0011
vn 0.0000 0.0573 0.9984
vn 0.9381 0.3463 0.0005
vn 0.9377 0.3473 0.0005
vn -0.9383 0.3459 -0.0000
vn -0.9396 0.3422 0.0002
vn -0.9399 0.3416 -0.0004
vn -0.9394 0.3427 -0.0001
vn 0.9388 0.3445 0.0004
vn 0.9396 0.3422 0.0002
vn 0.9399 0.3416 -0.0004
vn 0.9400 0.3411 -0.0007
vn 0.0002 0.7337 -0.6795
vn 0.0002 0.7329 -0.6803
vn 0.0001 0.0568 0.9984
vn -0.0005 0.7320 -0.6813
vn 0.9373 0.3486 0.0011
vn -0.9400 0.3411 -0.0007
vn -0.0001 0.0568 0.9984
vn 0.0005 0.7320 -0.6813
s 1
f 30/1/1 2/2/2 28/3/3
f 26/4/4 14/5/5 27/6/5
f 21/7/6 6/8/7 13/9/8
f 34/10/9 15/11/10 36/12/11
f 33/13/12 9/14/13 32/15/14
f 24/16/15 11/17/16 18/18/17
f 22/19/18 18/20/17 12/21/19
f 31/22/20 17/23/21 33/24/12
f 36/25/11 8/26/22 35/27/23
f 20/28/24 13/29/8 5/30/25
f 27/31/5 1/32/26 25/33/5
f 29/34/27 14/35/28 30/36/1
f 12/37/19 21/38/6 20/39/24
f 18/40/17 19/41/29 21/42/6
f 8/43/30 24/44/15 22/45/18
f 15/46/31 23/47/32 24/48/15
f 5/49/26 27/50/5 25/51/5
f 13/52/5 26/53/4 27/54/5
f 10/55/33 30/56/1 17/57/21
f 17/58/21 28/59/3 9/60/13
f 4/61/34 33/62/12 16/63/35
f 16/64/35 32/65/14 3/66/36
f 4/61/37 36/67/11 35/68/23
f 16/64/38 34/69/9 36/70/11
f 30/1/1 14/71/28 2/2/2
f 26/4/4 2/2/39 14/5/5
f 21/7/6 19/72/29 6/8/7
f 34/10/9 7/73/40 15/11/10
f 33/13/12 17/74/21 9/14/13
f 24/16/15 23/75/32 11/17/16
f 22/19/18 24/76/15 18/20/17
f 31/22/20 10/77/33 17/23/21
f 36/25/11 15/78/10 8/26/22
f 20/28/24 21/79/6 13/29/8
f 27/31/5 14/35/5 1/32/26
f 29/34/27 1/80/41 14/35/28
f 12/37/19 18/81/17 21/38/6
f 18/40/17 11/82/16 19/41/29
f 8/43/30 15/83/31 24/44/15
f 15/46/31 7/84/42 23/47/32
f 5/49/26 13/85/5 27/50/5
f 13/52/5 6/86/43 26/53/4
f 10/55/33 29/87/27 30/56/1
f 17/58/21 30/88/1 28/59/3
f 4/61/34 31/89/20 33/62/12
f 16/64/35 33/90/12 32/65/14
f 4/61/37 16/91/38 36/67/11
f 16/64/38 3/92/44 34/69/9
