# Blender v2.79 (sub 0) OBJ File: '110.blend'
# www.blender.org
o Cylinder.001_Cylinder.002
v 0.042683 0.058748 0.486761
v 0.075567 0.052274 0.331949
v 0.064170 0.088323 0.332003
v -0.042683 0.058748 0.486761
v -0.075567 0.052274 0.331949
v -0.064170 0.088323 0.332003
v 0.000000 0.058748 0.486761
v 0.000000 0.088323 0.332003
vt 0.500000 0.000000
vt 0.000000 0.500000
vt 0.000000 0.000000
vt 0.000000 0.000000
vt 0.500000 0.000000
vt 0.500000 0.500000
vt 0.500000 0.000000
vt 0.000000 0.500000
vt 0.000000 0.000000
vt 0.500000 0.000000
vt 0.500000 0.500000
vt 0.500000 0.500000
vn 0.0000 0.9822 0.1877
vn 0.9368 0.2959 0.1866
vn -0.9368 0.2959 0.1866
s 1
f 1/1/1 8/2/1 7/3/1
f 1/4/2 2/5/2 3/6/2
f 8/7/1 4/8/1 7/3/1
f 4/9/3 6/10/3 5/11/3
f 1/1/1 3/6/1 8/2/1
f 8/7/1 6/12/1 4/8/1
