# Blender v2.79 (sub 0) OBJ File: '111.blend'
# www.blender.org
o Cube.001_Cube.003
v 0.088889 0.032758 0.548947
v 0.088889 0.014854 0.554593
v 0.100000 0.019913 0.436820
v -0.088889 0.032758 0.548947
v -0.088889 0.014854 0.554593
v -0.100000 0.019913 0.436820
v 0.000000 0.032758 0.548947
v 0.000000 0.014854 0.554593
vt 0.500000 0.000000
vt 0.000000 0.500000
vt 0.000000 0.000000
vt 0.000000 0.000000
vt 0.500000 0.000000
vt 0.500000 0.500000
vt 0.500000 0.000000
vt 0.000000 0.500000
vt 0.000000 0.000000
vt 0.500000 0.000000
vt 0.500000 0.500000
vt 0.500000 0.500000
vn 0.0000 0.3008 0.9537
vn 0.9950 0.0300 0.0952
vn -0.9950 0.0300 0.0952
s 1
f 8/1/1 1/2/1 7/3/1
f 3/4/2 1/5/2 2/6/2
f 4/7/1 8/8/1 7/3/1
f 6/9/3 5/10/3 4/11/3
f 8/1/1 2/6/1 1/2/1
f 4/7/1 5/12/1 8/8/1
