# Blender v2.79 (sub 0) OBJ File: '113.blend'
# www.blender.org
o Cube.001_Cube.000
v 0.013095 0.097350 0.259814
v 0.014171 0.079140 0.259814
v -0.014171 0.079140 0.259814
v -0.013095 0.097350 0.259814
v -0.015840 0.084305 0.147494
v -0.014268 0.102489 0.147494
v 0.014268 0.102489 0.147494
v 0.015840 0.084305 0.147494
v 0.013975 0.101204 0.175574
v 0.013682 0.099919 0.203654
v 0.013389 0.098635 0.231734
v 0.014588 0.080431 0.231734
v 0.015005 0.081722 0.203654
v 0.015422 0.083014 0.175574
v -0.013389 0.098635 0.231734
v -0.013682 0.099919 0.203654
v -0.013975 0.101204 0.175574
v -0.015422 0.083014 0.175574
v -0.015005 0.081722 0.203654
v -0.014588 0.080431 0.231734
vt 0.500000 0.000000
vt 0.000000 0.500000
vt 0.000000 0.000000
vt 0.000000 0.000000
vt 0.500000 0.500000
vt 0.000000 0.500000
vt 0.000000 0.000000
vt 0.500000 0.500000
vt 0.000000 0.500000
vt 0.500000 0.000000
vt 0.000000 0.500000
vt 0.000000 0.000000
vt 0.500000 0.000000
vt 0.000000 0.500000
vt 0.000000 0.000000
vt 0.500000 0.000000
vt 0.000000 0.500000
vt 0.000000 0.000000
vt 0.000000 0.000000
vt 0.500000 0.500000
vt 0.000000 0.500000
vt 0.000000 0.000000
vt 0.500000 0.500000
vt 0.000000 0.500000
vt 0.000000 0.000000
vt 0.500000 0.500000
vt 0.000000 0.500000
vt 0.500000 0.500000
vt 0.500000 0.000000
vt 0.500000 0.000000
vt 0.500000 0.500000
vt 0.500000 0.500000
vt 0.500000 0.500000
vt 0.500000 0.000000
vt 0.500000 0.000000
vt 0.500000 0.000000
vn 0.9980 0.0614 0.0160
vn 0.9978 0.0645 0.0163
vn 0.9976 0.0670 0.0149
vn -0.9966 0.0806 0.0155
vn -0.9964 0.0836 0.0158
vn -0.9968 0.0780 0.0170
vn 0.0000 0.0000 1.0000
vn 0.9966 0.0806 0.0155
vn 0.9964 0.0836 0.0158
vn 0.9962 0.0861 0.0143
vn 0.9972 0.0738 0.0152
vn 0.9968 0.0780 0.0170
vn 0.9973 0.0712 0.0166
vn -0.9980 0.0614 0.0160
vn -0.9978 0.0645 0.0163
vn -0.9981 0.0589 0.0175
vn -0.9976 0.0670 0.0149
vn -0.9973 0.0712 0.0166
vn -0.9972 0.0738 0.0152
vn 0.9981 0.0589 0.0175
vn -0.9962 0.0861 0.0143
s 1
f 1/1/1 12/2/2 11/3/3
f 17/4/4 5/5/5 18/6/6
f 1/7/7 3/8/7 2/9/7
f 9/10/8 8/11/9 7/12/10
f 10/13/11 14/14/12 9/15/8
f 11/16/3 13/17/13 10/18/11
f 4/19/14 20/20/15 3/21/16
f 15/22/17 19/23/18 20/24/15
f 16/25/19 18/26/6 19/27/18
f 1/1/1 2/28/20 12/2/2
f 17/4/4 6/29/21 5/5/5
f 1/7/7 4/30/7 3/8/7
f 9/10/8 14/31/12 8/11/9
f 10/13/11 13/32/13 14/14/12
f 11/16/3 12/33/2 13/17/13
f 4/19/14 15/34/17 20/20/15
f 15/22/17 16/35/19 19/23/18
f 16/25/19 17/36/4 18/26/6
