# Blender v2.79 (sub 0) OBJ File: '115.blend'
# www.blender.org
o Sphere.001_Sphere.002
v 0.030540 0.127276 0.375000
v -0.030540 0.127276 0.375000
v -0.027902 0.123873 0.386557
v -0.027902 0.130679 0.386557
v 0.011557 0.123873 0.402902
v 0.011557 0.130679 0.402902
v 0.027902 0.130679 0.386557
v 0.027902 0.123873 0.386557
v 0.021355 0.130679 0.396355
v 0.021355 0.123873 0.396355
v -0.011557 0.123873 0.402902
v -0.011557 0.130679 0.402902
v -0.021355 0.130679 0.396355
v -0.021355 0.123873 0.396355
v 0.000000 0.123873 0.405201
v 0.000000 0.130679 0.405201
vt 0.000000 0.000000
vt 0.500000 0.000000
vt 0.500000 0.500000
vt 0.000000 0.000000
vt 0.500000 0.000000
vt 0.500000 0.500000
vt 0.500000 0.000000
vt 0.000000 0.500000
vt 0.000000 0.000000
vt 0.000000 0.500000
vt 0.000000 0.000000
vt 0.500000 0.000000
vt 0.000000 0.500000
vt 0.000000 0.000000
vt 0.500000 0.000000
vt 0.000000 0.500000
vt 0.500000 0.000000
vt 0.000000 0.500000
vt 0.000000 0.000000
vt 0.500000 0.000000
vt 0.000000 0.500000
vt 0.000000 0.000000
vt 0.500000 0.500000
vt 0.500000 0.500000
vt 0.500000 0.500000
vt 0.500000 0.500000
vt 0.500000 0.500000
vt 0.500000 0.500000
vn -0.9112 0.0000 0.4121
vn -0.9749 0.0000 0.2225
vn 0.9112 0.0000 0.4121
vn 0.9749 0.0000 0.2225
vn -0.7071 0.0000 0.7071
vn -0.3827 0.0000 0.9239
vn 0.0000 0.0000 1.0000
vn 0.7071 0.0000 0.7071
vn 0.3827 0.0000 0.9239
s 1
f 3/1/1 4/2/1 2/3/2
f 7/4/3 8/5/3 1/6/4
f 13/7/5 11/8/6 12/9/6
f 4/2/1 14/10/5 13/11/5
f 12/12/6 15/13/7 16/14/7
f 9/15/8 8/16/3 7/4/3
f 16/17/7 5/18/9 6/19/9
f 6/20/9 10/21/8 9/22/8
f 13/7/5 14/23/5 11/8/6
f 4/2/1 3/24/1 14/10/5
f 12/12/6 11/25/6 15/13/7
f 9/15/8 10/26/8 8/16/3
f 16/17/7 15/27/7 5/18/9
f 6/20/9 5/28/9 10/21/8
