# Blender v2.79 (sub 0) OBJ File: '118.blend'
# www.blender.org
o Sphere.001
v 0.042614 0.059397 0.277178
v 0.078740 0.045460 0.329321
v 0.024603 0.059397 0.322204
v 0.045460 0.045460 0.412519
v -0.042614 0.059397 0.277178
v -0.078740 0.045460 0.329321
v -0.024603 0.059397 0.322204
v -0.045460 0.045460 0.412519
v 0.000000 0.059397 0.338685
v 0.000000 0.045460 0.442972
vt 0.000000 0.000000
vt 0.500000 0.500000
vt 0.000000 0.500000
vt 0.000000 0.000000
vt 0.500000 0.500000
vt 0.000000 0.500000
vt 0.000000 0.000000
vt 0.500000 0.500000
vt 0.000000 0.500000
vt 0.000000 0.000000
vt 0.000000 0.500000
vt 0.500000 0.000000
vt 0.500000 0.000000
vt 0.500000 0.000000
vt 0.500000 0.000000
vn 0.2365 0.9670 0.0946
vn 0.1889 0.9762 0.1070
vn 0.1248 0.9845 0.1231
vn 0.0000 0.9912 0.1325
vn -0.2365 0.9670 0.0946
vn -0.1889 0.9762 0.1070
vn -0.1248 0.9845 0.1231
s 1
f 2/1/1 3/2/2 4/3/3
f 4/4/3 9/5/4 10/6/4
f 6/7/5 7/8/6 5/9/5
f 8/10/7 9/5/4 7/11/6
f 2/1/1 1/12/1 3/2/2
f 4/4/3 3/13/2 9/5/4
f 6/7/5 8/14/7 7/8/6
f 8/10/7 10/15/4 9/5/4
