# Blender v2.92.0 OBJ File: 'ship11.blend'
# www.blender.org
o Glass_Cube.003
v 0.010657 0.105615 -0.005870
v 0.010657 0.098476 -0.005870
v 0.010657 0.098476 -0.104978
v 0.010657 0.105615 -0.104978
v -0.010657 0.105615 -0.005870
v -0.010657 0.098476 -0.005870
v -0.010657 0.098476 -0.104978
v -0.010657 0.105615 -0.104978
v 0.010657 0.098476 -0.030647
v 0.010657 0.098476 -0.055424
v 0.010657 0.098476 -0.080201
v 0.010657 0.105615 -0.080201
v 0.010657 0.105615 -0.055424
v 0.010657 0.105615 -0.030647
v -0.010657 0.098476 -0.030647
v -0.010657 0.098476 -0.055424
v -0.010657 0.098476 -0.080201
v -0.010657 0.105615 -0.080201
v -0.010657 0.105615 -0.055424
v -0.010657 0.105615 -0.030647
v 0.010657 0.102046 -0.104978
v 0.010657 0.102046 -0.005870
v -0.010657 0.102046 -0.104978
v -0.010657 0.102046 -0.005870
v 0.010657 0.102046 -0.080201
v 0.010657 0.102046 -0.055424
v 0.010657 0.102046 -0.030647
v -0.010657 0.102046 -0.080201
v -0.010657 0.102046 -0.055424
v -0.010657 0.102046 -0.030647
vt 0.500000 0.875000
vt 0.000000 1.000000
vt 0.500000 1.000000
vt 0.875000 0.500000
vt 0.750000 0.000000
vt 0.875000 0.000000
vt 1.000000 0.500000
vt 0.875000 0.000000
vt 1.000000 0.000000
vt 0.875000 0.500000
vt 0.750000 0.000000
vt 0.750000 0.500000
vt 0.875000 0.500000
vt 1.000000 0.000000
vt 0.875000 0.000000
vt 0.500000 1.000000
vt 0.000000 0.875000
vt 0.000000 1.000000
vt 0.500000 0.750000
vt 0.000000 0.875000
vt 0.000000 0.750000
vt 0.500000 0.750000
vt 0.000000 0.875000
vt 0.500000 0.875000
vt 0.000000 0.875000
vt 0.500000 1.000000
vt 0.000000 1.000000
vt 0.500000 1.000000
vt 0.000000 0.875000
vt 0.500000 0.875000
vt 0.000000 1.000000
vt 0.500000 0.875000
vt 0.000000 0.875000
vt 0.750000 0.500000
vt 0.875000 0.000000
vt 0.875000 0.500000
vt 0.750000 0.500000
vt 0.875000 0.000000
vt 0.875000 0.500000
vt 0.500000 1.000000
vt 0.000000 0.875000
vt 0.000000 1.000000
vt 0.500000 0.875000
vt 0.500000 1.000000
vt 0.000000 0.750000
vt 0.500000 0.875000
vt 0.500000 0.750000
vt 0.500000 1.000000
vt 0.000000 1.000000
vt 0.500000 0.875000
vt 0.000000 1.000000
vt 0.000000 0.875000
vt 0.500000 0.750000
vt 0.000000 0.875000
vt 0.000000 0.750000
vt 0.000000 0.875000
vt 0.500000 0.875000
vt 0.000000 0.875000
vt 0.750000 0.500000
vt 0.875000 0.000000
vt 1.000000 0.500000
vt 0.500000 0.875000
vt 0.500000 0.875000
vt 0.000000 0.750000
vt 0.500000 0.875000
vt 0.000000 1.000000
vt 0.500000 1.000000
vt 0.750000 0.000000
vt 0.750000 0.000000
vt 0.500000 0.875000
vt 0.000000 0.875000
vt 0.500000 0.875000
vt 0.500000 1.000000
vt 0.500000 0.875000
vn 0.0000 0.0000 1.0000
vn 1.0000 0.0000 0.0000
vn 0.0000 0.0000 -1.0000
vn -1.0000 0.0000 0.0000
s 1
f 6/1/1 22/2/1 24/3/1
f 22/4/2 9/5/2 27/6/2
f 23/7/3 4/8/3 21/9/3
f 15/10/4 24/11/4 30/12/4
f 25/13/2 3/14/2 21/15/2
f 26/16/2 11/17/2 25/18/2
f 27/19/2 10/20/2 26/21/2
f 7/22/4 28/23/4 23/24/4
f 17/25/4 29/26/4 28/27/4
f 16/28/4 30/29/4 29/30/4
f 29/31/4 20/32/4 19/33/4
f 28/34/4 19/35/4 18/36/4
f 23/37/4 18/38/4 8/39/4
f 14/40/2 26/41/2 13/42/2
f 13/42/2 25/43/2 12/44/2
f 12/45/2 21/46/2 4/47/2
f 30/29/4 5/48/4 20/49/4
f 7/50/3 21/51/3 3/52/3
f 1/53/2 27/54/2 14/55/2
f 24/3/1 1/56/1 5/57/1
f 6/1/1 2/58/1 22/2/1
f 22/4/2 2/59/2 9/5/2
f 23/7/3 8/39/3 4/8/3
f 15/10/4 6/60/4 24/11/4
f 25/13/2 11/61/2 3/14/2
f 26/16/2 10/62/2 11/17/2
f 27/19/2 9/63/2 10/20/2
f 7/22/4 17/64/4 28/23/4
f 17/25/4 16/65/4 29/26/4
f 16/28/4 15/66/4 30/29/4
f 29/31/4 30/67/4 20/32/4
f 28/34/4 29/68/4 19/35/4
f 23/37/4 28/69/4 18/38/4
f 14/40/2 27/70/2 26/41/2
f 13/42/2 26/41/2 25/43/2
f 12/45/2 25/71/2 21/46/2
f 30/29/4 24/72/4 5/48/4
f 7/50/3 23/73/3 21/51/3
f 1/53/2 22/74/2 27/54/2
f 24/3/1 22/2/1 1/56/1
