# Blender v2.79 (sub 0) OBJ File: '120.blend'
# www.blender.org
o Cube.001
v 0.034154 0.009758 0.446135
v -0.034154 0.009758 0.446135
v 0.034154 -0.009758 0.446135
v -0.034154 -0.009758 0.446135
v -0.065757 -0.000000 0.361215
v 0.065757 -0.000000 0.361215
vt 0.500000 0.000000
vt 0.000000 0.500000
vt 0.000000 0.000000
vt 0.000000 0.000000
vt 0.500000 0.000000
vt 0.500000 0.500000
vt 0.000000 0.000000
vt 0.500000 0.000000
vt 0.500000 0.500000
vt 0.500000 0.500000
vn -0.0000 0.0000 1.0000
vn 0.9372 0.0000 0.3488
vn -0.9372 0.0000 0.3488
s 1
f 3/1/1 2/2/1 4/3/1
f 6/4/2 1/5/2 3/6/2
f 5/7/3 4/8/3 2/9/3
f 3/1/1 1/10/1 2/2/1
