# Blender v2.79 (sub 0) OBJ File: '121.blend'
# www.blender.org
o Cube.001_Cube.003
v 0.140476 0.070739 0.345734
v 0.120762 0.090089 0.347013
v 0.100732 0.070419 0.461627
v 0.120109 0.051074 0.460285
v -0.140476 0.070739 0.345734
v -0.120762 0.090089 0.347013
v -0.100732 0.070419 0.461627
v -0.120109 0.051074 0.460285
vt 0.500000 0.000000
vt 0.000000 0.500000
vt 0.000000 0.000000
vt 0.500000 0.500000
vt 0.000000 0.500000
vt 0.000000 0.000000
vt 0.500000 0.500000
vt 0.000000 0.500000
vt 0.500000 0.500000
vt 0.500000 0.000000
vt 0.500000 0.000000
vn 0.0000 0.9856 0.1691
vn 0.6888 0.6842 0.2396
vn 0.6935 0.6799 0.2382
vn 0.6879 0.6850 0.2399
vn -0.6888 0.6842 0.2396
vn -0.6935 0.6799 0.2382
vn -0.6944 0.6791 0.2379
vn 0.6944 0.6791 0.2379
vn -0.6879 0.6850 0.2399
s 1
f 6/1/1 3/2/1 2/3/1
f 2/3/2 4/4/3 1/5/4
f 6/6/5 8/7/6 7/8/7
f 6/1/1 7/9/1 3/2/1
f 2/3/2 3/10/8 4/4/3
f 6/6/5 5/11/9 8/7/6
