# Blender v2.79 (sub 0) OBJ File: '122.blend'
# www.blender.org
o Cube.001
v 0.066034 0.070420 0.137618
v 0.065622 0.070256 0.247478
v 0.057115 0.103649 0.303782
v 0.051253 0.103489 0.203914
v 0.066058 0.070859 0.272579
v 0.066065 0.070861 0.391409
v 0.057052 0.103394 0.447598
v 0.057059 0.103781 0.328478
v 0.066842 0.043880 0.423125
v 0.066842 -0.029906 0.468396
v 0.059867 0.077942 0.483236
v -0.054884 0.082002 0.485722
v 0.054884 0.082002 0.485722
v 0.062646 -0.038020 0.469207
v -0.062646 -0.038020 0.469207
v -0.051611 0.106198 0.333926
v -0.051611 0.105787 0.461231
v 0.051611 0.106198 0.333926
v 0.051611 0.105787 0.461231
v -0.045496 0.106226 0.209578
v -0.051365 0.106226 0.316941
v 0.045496 0.106226 0.209578
v 0.051365 0.106226 0.316941
v -0.065622 0.070256 0.247478
v -0.057115 0.103649 0.303782
v -0.066034 0.070420 0.137618
v -0.051253 0.103489 0.203914
v -0.057052 0.103394 0.447598
v -0.066065 0.070861 0.391409
v -0.066058 0.070859 0.272579
v -0.057059 0.103781 0.328478
v -0.059867 0.077942 0.483236
v -0.066842 -0.029906 0.468396
v -0.066842 0.043880 0.423125
v -0.062016 0.065920 0.122172
v -0.046024 0.103363 0.196716
v 0.062016 0.065920 0.122172
v 0.046024 0.103363 0.196716
vt 0.000000 0.000000
vt 0.500000 0.500000
vt 0.000000 0.500000
vt 0.000000 0.000000
vt 0.500000 0.500000
vt 0.000000 0.500000
vt 0.000000 0.000000
vt 0.500000 0.000000
vt 0.500000 0.500000
vt 0.000000 0.000000
vt 0.500000 0.500000
vt 0.000000 0.500000
vt 0.500000 0.000000
vt 0.000000 0.500000
vt 0.000000 0.000000
vt 0.000000 0.000000
vt 0.500000 0.500000
vt 0.000000 0.500000
vt 0.000000 0.000000
vt 0.500000 0.500000
vt 0.000000 0.500000
vt 0.000000 0.000000
vt 0.500000 0.500000
vt 0.000000 0.500000
vt 0.000000 0.000000
vt 0.500000 0.000000
vt 0.500000 0.500000
vt 0.500000 0.000000
vt 0.000000 0.500000
vt 0.000000 0.000000
vt 0.500000 0.000000
vt 0.500000 0.000000
vt 0.500000 0.000000
vt 0.500000 0.500000
vt 0.500000 0.000000
vt 0.500000 0.000000
vt 0.500000 0.000000
vt 0.500000 0.500000
vn 0.9351 0.3521 -0.0398
vn 0.9231 0.3843 -0.0113
vn 0.9410 0.3338 -0.0558
vn 0.9642 0.2652 0.0007
vn 0.9645 0.2641 0.0001
vn 0.9641 0.2655 0.0009
vn 0.9949 0.0526 0.0857
vn 0.0000 -0.1363 0.9907
vn 0.0000 1.0000 0.0032
vn 0.0000 1.0000 0.0000
vn -0.9351 0.3521 -0.0398
vn -0.9231 0.3843 -0.0113
vn -0.9159 0.4013 0.0040
vn -0.9642 0.2652 0.0007
vn -0.9645 0.2641 0.0001
vn -0.9646 0.2637 -0.0001
vn -0.9949 0.0526 0.0857
vn 0.0000 0.8936 -0.4489
vn 0.9159 0.4013 0.0040
vn 0.9646 0.2637 -0.0001
vn -0.9410 0.3338 -0.0558
vn -0.9641 0.2655 0.0009
s 1
f 2/1/1 4/2/2 3/3/3
f 6/4/4 8/5/5 7/6/6
f 10/7/7 9/8/7 11/9/7
f 13/10/8 15/11/8 14/12/8
f 17/13/9 18/14/9 16/15/9
f 20/16/10 23/17/10 22/18/10
f 24/19/11 27/20/12 26/21/13
f 29/22/14 31/23/15 30/24/16
f 33/25/17 32/26/17 34/27/17
f 36/28/18 37/29/18 35/30/18
f 2/1/1 1/31/19 4/2/2
f 6/4/4 5/32/20 8/5/5
f 13/10/8 12/33/8 15/11/8
f 17/13/9 19/34/9 18/14/9
f 20/16/10 21/35/10 23/17/10
f 24/19/11 25/36/21 27/20/12
f 29/22/14 28/37/22 31/23/15
f 36/28/18 38/38/18 37/29/18
