# Blender v2.79 (sub 0) OBJ File: '123.blend'
# www.blender.org
o Cube.001_Cube.002
v 0.040858 -0.033503 0.110458
v 0.042253 -0.028847 0.200654
v -0.042253 -0.028847 0.200654
v -0.040858 -0.033503 0.110458
v -0.039464 -0.038158 0.200654
v 0.039464 -0.038158 0.200654
v 0.042253 -0.028847 0.260587
v 0.039464 -0.038158 0.230915
v -0.042253 -0.028847 0.260587
v -0.039464 -0.038158 0.230915
v -0.000000 -0.028847 0.260587
v 0.000000 -0.038158 0.230915
vt 0.000000 0.000000
vt 0.500000 0.000000
vt 0.500000 0.500000
vt 0.000000 0.000000
vt 0.500000 0.000000
vt 0.500000 0.500000
vt 0.500000 0.500000
vt 0.000000 0.500000
vt 0.000000 0.500000
vt 0.000000 0.000000
vt 0.000000 0.000000
vt 0.500000 0.500000
vt 0.000000 0.500000
vt 0.500000 0.000000
vt 0.000000 0.500000
vt 0.000000 0.000000
vt 0.500000 0.000000
vt 0.500000 0.500000
vt 0.500000 0.000000
vt 0.500000 0.500000
vn -0.9579 -0.2870 0.0000
vn 0.9579 -0.2870 0.0000
vn 0.0000 -0.9541 0.2994
s off
f 5/1/1 3/2/1 4/3/1
f 2/4/2 6/5/2 1/6/2
f 2/4/2 8/7/2 6/8/2
f 3/2/1 10/9/1 9/10/1
f 11/11/3 10/12/3 12/13/3
f 11/14/3 8/15/3 7/16/3
f 2/4/2 7/17/2 8/7/2
f 3/2/1 5/18/1 10/9/1
f 11/11/3 9/19/3 10/12/3
f 11/14/3 12/20/3 8/15/3
