# Blender v2.79 (sub 0) OBJ File: '125.blend'
# www.blender.org
o Cube.001_Cube.002
v 0.000000 0.047599 0.214185
v 0.000000 -0.028537 0.486796
v 0.127793 0.045081 0.213380
v 0.174299 0.011070 0.213320
v -0.127793 0.045081 0.213380
v -0.174299 0.011070 0.213320
v 0.108277 -0.018466 0.441308
v -0.108277 -0.018466 0.441307
v -0.116850 0.047925 0.214277
v -0.093506 -0.028084 0.486923
v 0.116850 0.047925 0.214277
v 0.093506 -0.028084 0.486923
vt 0.000000 0.000000
vt 0.500000 0.000000
vt 0.500000 0.500000
vt 0.000000 0.000000
vt 0.500000 0.000000
vt 0.500000 0.500000
vt 0.500000 0.000000
vt 0.000000 0.500000
vt 0.000000 0.000000
vt 0.500000 0.000000
vt 0.000000 0.500000
vt 0.500000 0.500000
vt 0.500000 0.500000
vn 0.5693 0.7780 0.2657
vn -0.5693 0.7780 0.2657
vn -0.0045 0.9632 0.2688
vn -0.0000 0.9633 0.2685
vn 0.0000 0.9631 0.2690
vn 0.0045 0.9632 0.2688
vn -0.0029 0.9633 0.2683
vn 0.0029 0.9633 0.2683
s 1
f 7/1/1 4/2/1 3/3/1
f 8/4/2 5/5/2 6/6/2
f 12/7/3 1/8/4 2/9/5
f 1/10/4 10/11/6 2/9/5
f 12/7/3 11/12/7 1/8/4
f 1/10/4 9/13/8 10/11/6
