# Blender v2.79 (sub 0) OBJ File: '127.blend'
# www.blender.org
o Model.001_Turret1_Cube.000
v 0.090521 0.034100 -0.291522
v 0.046748 0.052307 -0.220663
v -0.090521 0.034100 -0.291522
v -0.046748 0.052307 -0.220663
v 0.000000 0.034100 0.019116
v 0.000000 0.034100 -0.291522
v 0.000000 0.057744 -0.226960
v 0.000000 0.052506 -0.067925
vt 0.000000 0.000000
vt 0.500000 0.500000
vt 0.000000 0.500000
vt 0.000000 0.000000
vt 0.500000 0.000000
vt 0.500000 0.000000
vt 0.000000 0.500000
vt 0.000000 0.000000
vt 0.500000 0.500000
vt 0.000000 0.500000
vt 0.500000 0.000000
vt 0.500000 0.500000
vt 0.000000 0.500000
vt 0.000000 0.000000
vt 0.500000 0.000000
vt 0.500000 0.500000
vn 0.5782 0.7973 0.1733
vn 0.3422 0.9396 -0.0070
vn 0.0000 0.9823 0.1873
vn 0.0000 0.9852 -0.1716
vn 0.0000 0.9589 -0.2836
vn 0.0000 0.9685 -0.2489
vn -0.5782 0.7973 0.1733
vn -0.3422 0.9396 -0.0070
vn -0.6088 0.7732 0.1774
vn 0.6088 0.7732 0.1774
s 1
f 5/1/1 2/2/2 8/3/3
f 7/4/4 8/5/3 2/2/2
f 6/6/5 2/7/2 1/8/6
f 5/1/7 4/9/8 3/10/9
f 7/4/4 4/11/8 8/12/3
f 4/11/8 6/13/5 3/14/6
f 5/1/1 1/15/10 2/2/2
f 6/6/5 7/16/4 2/7/2
f 5/1/7 8/5/3 4/9/8
f 4/11/8 7/16/4 6/13/5
