# Blender v2.79 (sub 0) OBJ File: '128.blend'
# www.blender.org
o Model.001_Cube.000
v 0.059470 0.038906 0.449326
v 0.059470 0.060009 0.450991
v 0.050738 0.069349 0.451728
v 0.019807 0.079272 0.452510
v 0.019807 0.008452 0.446924
v 0.038456 0.033021 0.448862
v 0.038456 0.058942 0.450907
v 0.050738 0.024139 0.448161
v -0.059470 0.038906 0.449326
v -0.059470 0.060009 0.450991
v -0.050738 0.069349 0.451728
v -0.019807 0.079272 0.452510
v -0.019807 0.008452 0.446924
v -0.038456 0.033021 0.448862
v -0.038456 0.058942 0.450907
v -0.050738 0.024139 0.448161
vt 0.500000 0.000000
vt 0.000000 0.500000
vt 0.000000 0.000000
vt 0.500000 0.000000
vt 0.000000 0.500000
vt 0.000000 0.000000
vt 0.500000 0.000000
vt 0.000000 0.500000
vt 0.000000 0.000000
vt 0.000000 0.000000
vt 0.500000 0.500000
vt 0.000000 0.000000
vt 0.500000 0.500000
vt 0.500000 0.000000
vt 0.000000 0.000000
vt 0.000000 0.000000
vt 0.500000 0.500000
vt 0.000000 0.500000
vt 0.000000 0.000000
vt 0.500000 0.500000
vt 0.000000 0.500000
vt 0.000000 0.500000
vt 0.000000 0.000000
vt 0.500000 0.500000
vt 0.500000 0.000000
vt 0.500000 0.000000
vt 0.500000 0.500000
vt 0.500000 0.000000
vt 0.500000 0.500000
vn 0.0000 -0.0786 0.9969
s 1
f 12/1/1 7/2/1 4/3/1
f 14/4/1 5/5/1 6/6/1
f 15/7/1 6/8/1 7/9/1
f 1/10/1 7/11/1 6/8/1
f 8/12/1 6/13/1 5/5/1
f 3/14/1 7/2/1 2/15/1
f 9/16/1 15/17/1 10/18/1
f 16/19/1 14/20/1 9/21/1
f 15/7/1 11/22/1 10/23/1
f 12/1/1 15/17/1 7/2/1
f 14/4/1 13/24/1 5/5/1
f 15/7/1 14/20/1 6/8/1
f 1/10/1 2/25/1 7/11/1
f 8/12/1 1/26/1 6/13/1
f 3/14/1 4/27/1 7/2/1
f 9/16/1 14/4/1 15/17/1
f 16/19/1 13/28/1 14/20/1
f 15/7/1 12/29/1 11/22/1
