# Blender v2.79 (sub 0) OBJ File: '12.blend'
# www.blender.org
o Cube.000
v 0.046444 0.023187 0.502466
v 0.045565 0.017457 0.502343
v 0.036836 0.017445 0.539536
v 0.037575 0.023186 0.540025
v 0.014352 0.023185 0.563235
v 0.014069 0.017426 0.562441
v 0.046441 0.020279 0.337230
v -0.046444 0.023187 0.502466
v -0.045565 0.017457 0.502343
v -0.036836 0.017445 0.539536
v -0.037575 0.023186 0.540025
v -0.014352 0.023185 0.563235
v -0.014069 0.017426 0.562441
v -0.046441 0.020279 0.337230
v 0.019696 0.097699 -0.144749
v 0.019696 0.107979 -0.144749
v 0.019696 0.097699 0.012067
v 0.019696 0.107979 0.012067
v -0.019696 0.097699 -0.144749
v -0.019696 0.107979 -0.144749
v -0.019696 0.097699 0.012067
v -0.019696 0.107979 0.012067
v 0.045784 0.018162 0.461064
v 0.046003 0.018868 0.419785
v 0.046222 0.019574 0.378507
v 0.046442 0.021006 0.378538
v 0.046442 0.021733 0.419847
v 0.046443 0.022460 0.461156
v -0.045784 0.018162 0.461064
v -0.046003 0.018868 0.419785
v -0.046222 0.019574 0.378507
v -0.046442 0.021006 0.378538
v -0.046442 0.021733 0.419847
v -0.046443 0.022460 0.461156
v 0.019696 0.097699 -0.105545
v 0.019696 0.097699 -0.066341
v 0.019696 0.097699 -0.027137
v 0.019696 0.107979 -0.027137
v 0.019696 0.107979 -0.066341
v 0.019696 0.107979 -0.105545
v -0.019696 0.097699 -0.105545
v -0.019696 0.097699 -0.066341
v -0.019696 0.097699 -0.027137
v -0.019696 0.107979 -0.027137
v -0.019696 0.107979 -0.066341
v -0.019696 0.107979 -0.105545
vt 0.000000 0.000000
vt 0.500000 0.000000
vt 0.500000 0.500000
vt 0.000000 0.000000
vt 0.500000 0.500000
vt 0.000000 0.500000
vt 0.000000 0.000000
vt 0.500000 0.500000
vt 0.000000 0.500000
vt 0.500000 0.000000
vt 0.000000 0.500000
vt 0.000000 0.000000
vt 0.500000 0.000000
vt 0.000000 0.500000
vt 0.000000 0.000000
vt 0.500000 0.000000
vt 0.000000 0.500000
vt 0.000000 0.000000
vt 0.500000 0.000000
vt 0.000000 0.500000
vt 0.000000 0.000000
vt 0.000000 0.000000
vt 0.500000 0.000000
vt 0.500000 0.500000
vt 0.000000 0.000000
vt 0.500000 0.500000
vt 0.000000 0.500000
vt 0.000000 0.000000
vt 0.500000 0.500000
vt 0.000000 0.500000
vt 0.500000 0.000000
vt 0.000000 0.500000
vt 0.000000 0.000000
vt 0.500000 0.000000
vt 0.000000 0.500000
vt 0.500000 0.000000
vt 0.000000 0.500000
vt 0.000000 0.000000
vt 0.500000 0.000000
vt 0.000000 0.500000
vt 0.000000 0.000000
vt 0.500000 0.000000
vt 0.000000 0.500000
vt 0.500000 0.000000
vt 0.000000 0.500000
vt 0.000000 0.000000
vt 0.500000 0.000000
vt 0.000000 0.500000
vt 0.000000 0.000000
vt 0.500000 0.000000
vt 0.000000 0.500000
vt 0.000000 0.000000
vt 0.500000 0.000000
vt 0.000000 0.500000
vt 0.000000 0.000000
vt 0.500000 0.000000
vt 0.000000 0.500000
vt 0.000000 0.000000
vt 0.000000 0.500000
vt 0.000000 0.000000
vt 0.500000 0.000000
vt 0.000000 0.500000
vt 0.000000 0.000000
vt 0.000000 0.000000
vt 0.500000 0.500000
vt 0.000000 0.500000
vt 0.500000 0.000000
vt 0.500000 0.000000
vt 0.500000 0.500000
vt 0.500000 0.500000
vt 0.500000 0.500000
vt 0.500000 0.000000
vt 0.500000 0.000000
vt 0.500000 0.500000
vt 0.500000 0.500000
vt 0.500000 0.500000
vt 0.500000 0.500000
vt 0.500000 0.500000
vt 0.500000 0.500000
vt 0.500000 0.500000
vt 0.500000 0.500000
vt 0.500000 0.500000
vt 0.500000 0.500000
vt 0.500000 0.000000
vn 0.9884 -0.1516 0.0027
vn 0.7013 -0.1474 0.6975
vn 0.7009 -0.1332 0.7007
vn 0.7013 -0.1495 0.6970
vn 0.9815 -0.1525 0.1159
vn 0.9631 -0.1441 0.2273
vn 0.9815 -0.1529 0.1153
vn 0.0000 -0.1366 0.9906
vn 1.0000 0.0000 0.0000
vn 0.0000 0.0000 1.0000
vn 0.0000 0.0000 -1.0000
vn -0.9884 -0.1516 0.0027
vn -0.7013 -0.1474 0.6975
vn -0.7009 -0.1332 0.7007
vn -0.7008 -0.1312 0.7012
vn -0.9815 -0.1525 0.1159
vn -0.9631 -0.1441 0.2273
vn -0.9632 -0.1433 0.2274
vn -1.0000 0.0000 0.0000
vn -0.9815 -0.1529 0.1153
vn -0.9884 -0.1515 0.0027
vn 0.9884 -0.1515 0.0027
vn 0.7008 -0.1312 0.7012
vn 0.9632 -0.1433 0.2274
vn -0.7013 -0.1495 0.6970
s 1
f 26/1/1 25/2/1 7/3/1
f 4/4/2 6/5/3 3/6/4
f 1/7/5 3/8/6 2/9/7
f 12/10/8 6/11/8 5/12/8
f 40/13/9 15/14/9 16/15/9
f 21/16/10 18/17/10 22/18/10
f 19/19/11 16/20/11 15/21/11
f 32/22/12 14/23/12 31/24/12
f 11/25/13 13/26/14 12/27/15
f 8/28/16 10/29/17 11/30/18
f 41/31/19 20/32/19 19/33/19
f 34/34/12 9/35/20 8/28/16
f 33/36/21 29/37/12 34/38/12
f 32/39/12 30/40/21 33/41/21
f 2/42/7 28/43/1 1/7/5
f 23/44/1 27/45/22 28/46/1
f 24/47/22 26/48/1 27/49/22
f 39/50/9 35/51/9 40/52/9
f 18/53/9 37/54/9 38/55/9
f 42/56/19 46/57/19 41/58/19
f 21/16/19 44/59/19 43/60/19
f 38/61/9 36/62/9 39/63/9
f 42/64/19 44/65/19 45/66/19
f 4/4/2 5/67/23 6/5/3
f 1/7/5 4/68/24 3/8/6
f 12/10/8 13/26/8 6/11/8
f 40/13/9 35/69/9 15/14/9
f 21/16/10 17/70/10 18/17/10
f 19/19/11 20/71/11 16/20/11
f 11/25/13 10/72/25 13/26/14
f 8/28/16 9/73/20 10/29/17
f 41/31/19 46/74/19 20/32/19
f 34/34/12 29/75/12 9/35/20
f 33/36/21 30/76/21 29/37/12
f 32/39/12 31/24/12 30/40/21
f 2/42/7 23/77/1 28/43/1
f 23/44/1 24/78/22 27/45/22
f 24/47/22 25/79/1 26/48/1
f 39/50/9 36/80/9 35/51/9
f 18/53/9 17/70/9 37/54/9
f 42/56/19 45/81/19 46/57/19
f 21/16/19 22/82/19 44/59/19
f 38/61/9 37/83/9 36/62/9
f 42/64/19 43/84/19 44/65/19
