# Blender v2.79 (sub 0) OBJ File: '130.blend'
# www.blender.org
o Model.001_Cube.008
v 0.068441 0.044776 0.171011
v 0.059434 0.086182 -0.027459
v -0.068441 0.044776 0.171011
v -0.059434 0.086182 -0.027459
v 0.070881 0.082796 -0.027093
v 0.104826 0.056886 -0.020465
v 0.078056 0.049813 0.131001
v -0.104826 0.056886 -0.020465
v -0.078056 0.049813 0.131001
v -0.070881 0.082796 -0.027093
vt 0.000000 0.000000
vt 0.500000 0.500000
vt 0.000000 0.500000
vt 0.000000 0.000000
vt 0.500000 0.000000
vt 0.500000 0.500000
vt 0.000000 0.000000
vt 0.500000 0.000000
vt 0.500000 0.500000
vt 0.500000 0.000000
vn 0.0000 0.9789 0.2042
vn 0.5832 0.8001 0.1404
vn -0.5832 0.8001 0.1404
s 1
f 1/1/1 4/2/1 3/3/1
f 6/4/2 5/5/2 7/6/2
f 8/7/3 9/8/3 10/9/3
f 1/1/1 2/10/1 4/2/1
