# Blender v2.79 (sub 0) OBJ File: '135.blend'
# www.blender.org
o Model.001_Cube.000
v 0.018977 0.067964 0.514220
v 0.016109 0.069075 0.508456
v 0.075507 0.069075 0.508456
v 0.072639 0.067964 0.514220
v 0.073699 0.067372 0.514062
v 0.076690 0.068530 0.508051
v 0.076690 0.047148 0.508051
v 0.073699 0.048306 0.514062
v 0.018234 -0.050605 0.479526
v 0.014590 -0.054763 0.462842
v 0.014590 0.027000 0.503520
v 0.018234 0.011877 0.510611
v 0.075507 0.046603 0.508456
v 0.072639 0.047714 0.514220
v 0.016109 0.046603 0.508456
v 0.018977 0.047714 0.514220
v 0.073349 0.011875 0.510617
v 0.076868 0.026991 0.503529
v 0.076868 -0.054764 0.462855
v 0.073349 -0.050609 0.479531
v 0.015438 0.028961 0.503775
v 0.019225 0.013244 0.511144
v 0.076023 0.028961 0.503775
v 0.072364 0.013244 0.511144
v 0.076034 -0.056226 0.461324
v 0.072357 -0.051886 0.478744
v 0.015428 -0.056226 0.461324
v 0.019232 -0.051886 0.478744
v 0.072095 0.010920 0.510924
v 0.072095 -0.050244 0.480495
v 0.019503 -0.050244 0.480495
v 0.019503 0.010920 0.510924
v 0.017917 0.048306 0.514062
v 0.014926 0.047148 0.508051
v 0.014926 0.068530 0.508051
v 0.017917 0.067372 0.514062
v -0.018977 0.067964 0.514220
v -0.016109 0.069075 0.508456
v -0.075507 0.069075 0.508456
v -0.072639 0.067964 0.514220
v -0.073699 0.067372 0.514062
v -0.076690 0.068530 0.508051
v -0.076690 0.047148 0.508051
v -0.073699 0.048306 0.514062
v -0.018234 -0.050605 0.479526
v -0.014590 -0.054763 0.462842
v -0.014590 0.027000 0.503520
v -0.018234 0.011877 0.510611
v -0.075507 0.046603 0.508456
v -0.072639 0.047714 0.514220
v -0.016109 0.046603 0.508456
v -0.018977 0.047714 0.514220
v -0.073349 0.011875 0.510617
v -0.076868 0.026991 0.503529
v -0.076868 -0.054764 0.462855
v -0.073349 -0.050609 0.479531
v -0.015438 0.028961 0.503775
v -0.019225 0.013244 0.511144
v -0.076023 0.028961 0.503775
v -0.072364 0.013244 0.511144
v -0.076034 -0.056226 0.461324
v -0.072357 -0.051886 0.478744
v -0.015428 -0.056226 0.461324
v -0.019232 -0.051886 0.478744
v -0.072095 0.010920 0.510924
v -0.072095 -0.050244 0.480495
v -0.019503 -0.050244 0.480495
v -0.019503 0.010920 0.510924
v -0.017917 0.048306 0.514062
v -0.014926 0.047148 0.508051
v -0.014926 0.068530 0.508051
v -0.017917 0.067372 0.514062
v 0.072104 0.067148 0.514803
v 0.072104 0.048530 0.514803
v 0.019512 0.048530 0.514803
v 0.019512 0.067148 0.514803
v -0.072104 0.067148 0.514803
v -0.072104 0.048530 0.514803
v -0.019512 0.048530 0.514803
v -0.019512 0.067148 0.514803
vt 0.000000 0.000000
vt 0.500000 0.500000
vt 0.000000 0.500000
vt 0.500000 0.000000
vt 0.000000 0.500000
vt 0.000000 0.000000
vt 0.500000 0.000000
vt 0.000000 0.500000
vt 0.000000 0.000000
vt 0.500000 0.000000
vt 0.000000 0.500000
vt 0.000000 0.000000
vt 0.000000 0.000000
vt 0.500000 0.500000
vt 0.000000 0.500000
vt 0.500000 0.000000
vt 0.000000 0.500000
vt 0.000000 0.000000
vt 0.000000 0.000000
vt 0.500000 0.500000
vt 0.000000 0.500000
vt 0.500000 0.000000
vt 0.000000 0.500000
vt 0.000000 0.000000
vt 0.000000 0.000000
vt 0.500000 0.500000
vt 0.000000 0.500000
vt 0.000000 0.000000
vt 0.500000 0.500000
vt 0.000000 0.500000
vt 0.500000 0.000000
vt 0.000000 0.500000
vt 0.000000 0.000000
vt 0.500000 0.000000
vt 0.000000 0.500000
vt 0.000000 0.000000
vt 0.500000 0.000000
vt 0.000000 0.500000
vt 0.000000 0.000000
vt 0.000000 0.000000
vt 0.500000 0.500000
vt 0.000000 0.500000
vt 0.500000 0.000000
vt 0.000000 0.500000
vt 0.000000 0.000000
vt 0.000000 0.000000
vt 0.500000 0.500000
vt 0.000000 0.500000
vt 0.500000 0.000000
vt 0.000000 0.500000
vt 0.000000 0.000000
vt 0.000000 0.000000
vt 0.500000 0.500000
vt 0.000000 0.500000
vt 0.500000 0.000000
vt 0.000000 0.500000
vt 0.000000 0.000000
vt 0.500000 0.000000
vt 0.000000 0.500000
vt 0.000000 0.000000
vt 0.500000 0.000000
vt 0.500000 0.500000
vt 0.500000 0.500000
vt 0.500000 0.500000
vt 0.500000 0.000000
vt 0.500000 0.500000
vt 0.500000 0.000000
vt 0.500000 0.500000
vt 0.500000 0.000000
vt 0.500000 0.000000
vt 0.500000 0.500000
vt 0.500000 0.500000
vt 0.500000 0.500000
vt 0.500000 0.000000
vt 0.500000 0.500000
vt 0.500000 0.000000
vt 0.500000 0.500000
vt 0.500000 0.000000
vt 0.500000 0.500000
vt 0.500000 0.500000
vn 0.0000 0.9819 0.1892
vn 0.8953 0.0000 0.4454
vn -0.9633 -0.1195 0.2402
vn 0.0000 -0.9819 0.1891
vn 0.9656 -0.1157 0.2327
vn 0.9656 -0.1157 0.2326
vn 0.0000 0.4245 0.9054
vn 0.0000 -0.9703 0.2418
vn 0.0000 -0.4454 0.8953
vn -0.8953 0.0000 0.4454
vn 0.9633 -0.1195 0.2402
vn -0.9656 -0.1157 0.2327
vn -0.9656 -0.1157 0.2326
vn 0.0000 0.0000 1.0000
s 1
f 2/1/1 4/2/1 3/3/1
f 5/4/2 7/5/2 6/6/2
f 9/7/3 11/8/3 10/9/3
f 14/10/4 15/11/4 13/12/4
f 18/13/5 20/14/6 19/15/6
f 22/16/7 23/17/7 21/18/7
f 25/19/8 28/20/8 27/21/8
f 29/22/9 31/23/9 30/24/9
f 34/25/10 36/26/10 35/27/10
f 38/28/1 40/29/1 37/30/1
f 43/31/10 41/32/10 42/33/10
f 47/34/11 45/35/11 46/36/11
f 51/37/4 50/38/4 49/39/4
f 54/40/12 56/41/13 53/42/12
f 59/43/7 58/44/7 57/45/7
f 61/46/8 64/47/8 62/48/8
f 67/49/9 65/50/9 66/51/9
f 70/52/2 72/53/2 69/54/2
f 73/55/14 75/56/14 74/57/14
f 79/58/14 77/59/14 78/60/14
f 2/1/1 1/61/1 4/2/1
f 5/4/2 8/62/2 7/5/2
f 9/7/3 12/63/3 11/8/3
f 14/10/4 16/64/4 15/11/4
f 18/13/5 17/65/5 20/14/6
f 22/16/7 24/66/7 23/17/7
f 25/19/8 26/67/8 28/20/8
f 29/22/9 32/68/9 31/23/9
f 34/25/10 33/69/10 36/26/10
f 38/28/1 39/70/1 40/29/1
f 43/31/10 44/71/10 41/32/10
f 47/34/11 48/72/11 45/35/11
f 51/37/4 52/73/4 50/38/4
f 54/40/12 55/74/13 56/41/13
f 59/43/7 60/75/7 58/44/7
f 61/46/8 63/76/8 64/47/8
f 67/49/9 68/77/9 65/50/9
f 70/52/2 71/78/2 72/53/2
f 73/55/14 76/79/14 75/56/14
f 79/58/14 80/80/14 77/59/14
