# Blender v2.79 (sub 0) OBJ File: '136.blend'
# www.blender.org
o Model.001_Cube.000
v 0.096378 0.000653 0.289135
v 0.045984 0.008053 0.376172
v 0.046098 0.000777 0.377274
v -0.096378 0.000653 0.289135
v -0.045984 0.008053 0.376172
v -0.046098 0.000777 0.377274
v 0.000000 0.000862 0.408604
v 0.000000 0.007966 0.407523
v 0.071181 0.004353 0.332654
v 0.071238 0.000715 0.333205
v -0.071181 0.004353 0.332654
v -0.071238 0.000715 0.333205
vt 0.500000 0.000000
vt 0.000000 0.500000
vt 0.000000 0.000000
vt 0.500000 0.000000
vt 0.000000 0.500000
vt 0.000000 0.000000
vt 0.000000 0.000000
vt 0.500000 0.000000
vt 0.500000 0.500000
vt 0.000000 0.500000
vt 0.000000 0.000000
vt 0.500000 0.000000
vt 0.500000 0.500000
vt 0.500000 0.000000
vt 0.000000 0.500000
vt 0.000000 0.000000
vt 0.500000 0.500000
vt 0.500000 0.500000
vt 0.500000 0.000000
vn 0.7366 0.1126 0.6669
vn 0.8653 0.0883 0.4935
vn -0.7206 0.1145 0.6839
vn -0.5579 0.1254 0.8204
vn -0.7366 0.1126 0.6669
vn -0.8653 0.0883 0.4935
vn 0.5579 0.1254 0.8204
vn 0.7206 0.1145 0.6839
vn -0.5579 0.1248 0.8205
vn 0.5579 0.1248 0.8205
s 1
f 2/1/1 10/2/2 9/3/2
f 6/4/3 8/5/4 5/6/5
f 11/7/6 4/8/6 12/9/6
f 5/6/5 12/9/6 6/10/3
f 1/11/2 9/12/2 10/13/2
f 8/14/7 3/15/8 2/16/1
f 2/1/1 3/17/8 10/2/2
f 6/4/3 7/18/9 8/5/4
f 5/6/5 11/19/6 12/9/6
f 8/14/7 7/18/10 3/15/8
