# Blender v2.79 (sub 0) OBJ File: '139.blend'
# www.blender.org
o Cube.001_Cube.002
v 0.029805 0.006662 0.212929
v 0.029805 -0.006662 0.216260
v 0.029805 -0.040906 0.224821
v 0.029805 -0.054469 0.228212
v 0.029805 0.052767 0.201403
v 0.029805 0.042608 0.203942
v -0.029805 0.006662 0.212929
v -0.029805 -0.006662 0.216260
v -0.029805 -0.040906 0.224821
v -0.029805 -0.054469 0.228212
v -0.029805 0.052767 0.201403
v -0.029805 0.042608 0.203942
v 0.000000 -0.015533 0.349330
v 0.000000 -0.058560 0.289571
v 0.000000 0.028810 0.410918
v 0.000000 -0.003542 0.365985
v 0.000000 -0.046353 0.306525
v 0.000000 0.037953 0.423616
v 0.023557 -0.015533 0.349330
v 0.027259 -0.014808 0.338448
v 0.026843 -0.002816 0.355103
v 0.023141 -0.003542 0.365985
v 0.025051 -0.058560 0.289571
v 0.028753 -0.057834 0.278689
v 0.028329 -0.045628 0.295643
v 0.024627 -0.046353 0.306525
v 0.022017 0.028810 0.410918
v 0.025719 0.029535 0.400036
v 0.025402 0.038678 0.412734
v 0.021700 0.037953 0.423616
v -0.027259 -0.014808 0.338448
v -0.023557 -0.015533 0.349330
v -0.023141 -0.003542 0.365985
v -0.026843 -0.002816 0.355103
v -0.028753 -0.057834 0.278689
v -0.025051 -0.058560 0.289571
v -0.024627 -0.046353 0.306525
v -0.028329 -0.045628 0.295643
v -0.025719 0.029535 0.400036
v -0.022017 0.028810 0.410918
v -0.021700 0.037953 0.423616
v -0.025402 0.038678 0.412734
v 0.026283 0.041496 0.370468
v 0.027163 0.044314 0.328202
v 0.028044 0.047131 0.285935
v 0.028924 0.049949 0.243669
v 0.028988 0.039994 0.243161
v 0.028171 0.037379 0.282380
v 0.027354 0.034765 0.321599
v 0.026537 0.032150 0.360817
v -0.028924 0.049949 0.243669
v -0.028044 0.047131 0.285935
v -0.027163 0.044314 0.328202
v -0.026283 0.041496 0.370468
v -0.026537 0.032150 0.360817
v -0.027354 0.034765 0.321599
v -0.028171 0.037379 0.282380
v -0.028988 0.039994 0.243161
v 0.029168 -0.008699 0.246807
v 0.028532 -0.010735 0.277354
v 0.027896 -0.012772 0.307901
v 0.029064 0.004293 0.248473
v 0.028324 0.001923 0.284016
v 0.027583 -0.000447 0.319560
v 0.029279 -0.056152 0.253450
v 0.029067 -0.043267 0.260232
v -0.029279 -0.056152 0.253450
v -0.029067 -0.043267 0.260232
v -0.027896 -0.012772 0.307901
v -0.028532 -0.010735 0.277354
v -0.029168 -0.008699 0.246807
v -0.027583 -0.000447 0.319560
v -0.028324 0.001923 0.284016
v -0.029064 0.004293 0.248472
v 0.029805 0.047688 0.202673
v -0.029805 0.047688 0.202673
v 0.000000 0.033381 0.417267
v 0.025561 0.034107 0.406385
v 0.021859 0.033381 0.417267
v -0.021859 0.033381 0.417267
v -0.025561 0.034107 0.406385
v 0.028956 0.044971 0.243415
v 0.028107 0.042255 0.284158
v 0.027258 0.039539 0.324900
v 0.026410 0.036823 0.365643
v -0.028956 0.044971 0.243415
v -0.028107 0.042255 0.284158
v -0.027258 0.039539 0.324900
v -0.026410 0.036823 0.365643
v 0.029805 -0.000000 0.214594
v -0.029805 -0.000000 0.214594
v 0.000000 -0.009538 0.357657
v 0.027051 -0.008812 0.346776
v 0.023349 -0.009538 0.357657
v -0.023349 -0.009538 0.357657
v -0.027051 -0.008812 0.346776
v 0.029116 -0.002203 0.247640
v 0.028428 -0.004406 0.280685
v 0.027739 -0.006609 0.313730
v -0.029116 -0.002203 0.247640
v -0.028428 -0.004406 0.280685
v -0.027739 -0.006609 0.313730
v 0.029805 -0.047688 0.226516
v -0.029805 -0.047688 0.226516
v 0.000000 -0.052456 0.298048
v 0.028541 -0.051731 0.287166
v 0.024839 -0.052456 0.298048
v -0.024839 -0.052456 0.298048
v -0.028541 -0.051731 0.287166
v 0.029173 -0.049709 0.256841
v -0.029173 -0.049709 0.256841
vt 0.000000 0.000000
vt 0.500000 0.500000
vt 0.000000 0.500000
vt 0.000000 0.000000
vt 0.500000 0.500000
vt 0.000000 0.500000
vt 0.500000 0.000000
vt 0.000000 0.500000
vt 0.000000 0.000000
vt 0.000000 0.000000
vt 0.500000 0.500000
vt 0.000000 0.500000
vt 0.000000 0.000000
vt 0.500000 0.500000
vt 0.000000 0.500000
vt 0.500000 0.000000
vt 0.000000 0.500000
vt 0.000000 0.000000
vt 0.000000 0.000000
vt 0.500000 0.500000
vt 0.000000 0.500000
vt 0.000000 0.000000
vt 0.500000 0.500000
vt 0.000000 0.500000
vt 0.000000 0.000000
vt 0.500000 0.500000
vt 0.000000 0.500000
vt 0.000000 0.000000
vt 0.500000 0.500000
vt 0.000000 0.500000
vt 0.000000 0.000000
vt 0.500000 0.500000
vt 0.000000 0.500000
vt 0.500000 0.000000
vt 0.000000 0.500000
vt 0.000000 0.000000
vt 0.500000 0.000000
vt 0.000000 0.000000
vt 0.500000 0.000000
vt 0.000000 0.000000
vt 0.500000 0.000000
vt 0.000000 0.000000
vt 0.500000 0.500000
vt 0.500000 0.500000
vt 0.500000 0.500000
vt 0.500000 0.000000
vt 0.000000 0.500000
vt 0.000000 0.000000
vt 0.000000 0.000000
vt 0.500000 0.500000
vt 0.000000 0.500000
vt 0.000000 0.000000
vt 0.500000 0.500000
vt 0.000000 0.500000
vt 0.000000 0.000000
vt 0.500000 0.500000
vt 0.000000 0.500000
vt 0.500000 0.000000
vt 0.000000 0.500000
vt 0.000000 0.000000
vt 0.000000 0.000000
vt 0.500000 0.500000
vt 0.000000 0.500000
vt 0.000000 0.000000
vt 0.500000 0.500000
vt 0.000000 0.500000
vt 0.000000 0.000000
vt 0.500000 0.500000
vt 0.000000 0.500000
vt 0.500000 0.000000
vt 0.000000 0.500000
vt 0.000000 0.000000
vt 0.000000 0.000000
vt 0.500000 0.500000
vt 0.000000 0.500000
vt 0.000000 0.000000
vt 0.500000 0.500000
vt 0.000000 0.500000
vt 0.000000 0.000000
vt 0.500000 0.500000
vt 0.000000 0.500000
vt 0.000000 0.000000
vt 0.500000 0.500000
vt 0.000000 0.500000
vt 0.500000 0.000000
vt 0.000000 0.500000
vt 0.000000 0.000000
vt 0.000000 0.000000
vt 0.500000 0.500000
vt 0.000000 0.500000
vt 0.000000 0.000000
vt 0.500000 0.500000
vt 0.000000 0.500000
vt 0.000000 0.000000
vt 0.500000 0.500000
vt 0.000000 0.500000
vt 0.000000 0.000000
vt 0.500000 0.500000
vt 0.000000 0.500000
vt 0.000000 0.000000
vt 0.500000 0.500000
vt 0.000000 0.500000
vt 0.500000 0.000000
vt 0.000000 0.500000
vt 0.000000 0.000000
vt 0.000000 0.000000
vt 0.500000 0.500000
vt 0.000000 0.500000
vt 0.000000 0.000000
vt 0.500000 0.500000
vt 0.000000 0.500000
vt 0.000000 0.000000
vt 0.500000 0.500000
vt 0.000000 0.500000
vt 0.500000 0.000000
vt 0.000000 0.500000
vt 0.000000 0.000000
vt 0.000000 0.000000
vt 0.500000 0.500000
vt 0.000000 0.500000
vt 0.500000 0.000000
vt 0.000000 0.500000
vt 0.000000 0.000000
vt 0.000000 0.000000
vt 0.000000 0.500000
vt 0.000000 0.000000
vt 0.500000 0.500000
vt 0.000000 0.500000
vt 0.000000 0.000000
vt 0.500000 0.500000
vt 0.000000 0.500000
vt 0.500000 0.000000
vt 0.000000 0.500000
vt 0.000000 0.000000
vt 0.000000 0.000000
vt 0.500000 0.500000
vt 0.000000 0.500000
vt 0.000000 0.000000
vt 0.500000 0.500000
vt 0.000000 0.500000
vt 0.500000 0.000000
vt 0.000000 0.500000
vt 0.000000 0.000000
vt 0.000000 0.000000
vt 0.500000 0.500000
vt 0.000000 0.500000
vt 0.000000 0.000000
vt 0.500000 0.500000
vt 0.000000 0.500000
vt 0.500000 0.000000
vt 0.000000 0.500000
vt 0.000000 0.000000
vt 0.000000 0.000000
vt 0.500000 0.500000
vt 0.000000 0.500000
vt 0.500000 0.000000
vt 0.000000 0.500000
vt 0.000000 0.000000
vt 0.500000 0.000000
vt 0.000000 0.500000
vt 0.000000 0.000000
vt 0.000000 0.000000
vt 0.000000 0.500000
vt 0.000000 0.000000
vt 0.500000 0.500000
vt 0.000000 0.500000
vt 0.000000 0.000000
vt 0.500000 0.500000
vt 0.000000 0.500000
vt 0.000000 0.000000
vt 0.500000 0.500000
vt 0.000000 0.500000
vt 0.000000 0.000000
vt 0.500000 0.500000
vt 0.000000 0.500000
vt 0.000000 0.000000
vt 0.500000 0.500000
vt 0.000000 0.500000
vt 0.500000 0.000000
vt 0.000000 0.500000
vt 0.000000 0.000000
vt 0.000000 0.000000
vt 0.000000 0.500000
vt 0.000000 0.000000
vt 0.500000 0.500000
vt 0.000000 0.500000
vt 0.500000 0.000000
vt 0.000000 0.500000
vt 0.000000 0.000000
vt 0.000000 0.000000
vt 0.500000 0.500000
vt 0.000000 0.500000
vt 0.500000 0.000000
vt 0.500000 0.500000
vt 0.500000 0.500000
vt 0.500000 0.000000
vt 0.500000 0.000000
vt 0.500000 0.000000
vt 0.500000 0.000000
vt 0.500000 0.000000
vt 0.500000 0.500000
vt 0.500000 0.500000
vt 0.500000 0.500000
vt 0.500000 0.500000
vt 0.500000 0.000000
vt 0.500000 0.000000
vt 0.500000 0.000000
vt 0.500000 0.500000
vt 0.500000 0.000000
vt 0.500000 0.000000
vt 0.500000 0.000000
vt 0.500000 0.500000
vt 0.500000 0.000000
vt 0.500000 0.000000
vt 0.500000 0.000000
vt 0.500000 0.500000
vt 0.500000 0.000000
vt 0.500000 0.000000
vt 0.500000 0.000000
vt 0.500000 0.000000
vt 0.500000 0.500000
vt 0.500000 0.000000
vt 0.500000 0.000000
vt 0.500000 0.000000
vt 0.500000 0.000000
vt 0.500000 0.000000
vt 0.500000 0.500000
vt 0.500000 0.000000
vt 0.500000 0.000000
vt 0.500000 0.000000
vt 0.500000 0.500000
vt 0.500000 0.000000
vt 0.500000 0.500000
vt 0.500000 0.000000
vt 0.500000 0.000000
vt 0.500000 0.000000
vt 0.500000 0.500000
vt 0.500000 0.000000
vt 0.500000 0.000000
vt 0.500000 0.500000
vt 0.500000 0.000000
vt 0.500000 0.500000
vt 0.500000 0.000000
vt 0.500000 0.000000
vt 0.500000 0.000000
vt 0.500000 0.000000
vt 0.500000 0.500000
vt 0.500000 0.000000
vn 0.0000 -0.8115 0.5843
vn 0.9998 0.0053 0.0212
vn 0.9933 -0.0805 0.0828
vn -0.9998 0.0053 0.0212
vn -0.9933 -0.0805 0.0828
vn -0.9713 -0.1807 0.1544
vn 0.9327 -0.2813 0.2258
vn 0.8913 -0.3571 0.2794
vn 0.9713 -0.1807 0.1544
vn -0.8913 -0.3571 0.2794
vn -0.9327 -0.2813 0.2258
s 1
f 95/1/1 13/2/1 92/3/1
f 99/4/2 20/5/3 61/6/2
f 15/7/1 79/8/1 77/9/1
f 85/10/2 28/11/3 50/12/2
f 110/13/2 24/14/3 65/15/2
f 14/16/1 107/17/1 105/18/1
f 102/19/4 31/20/5 96/21/6
f 80/22/1 15/23/1 77/24/1
f 108/25/1 14/26/1 105/27/1
f 111/28/4 35/29/5 109/30/6
f 89/31/4 39/32/5 81/33/6
f 13/34/1 94/35/1 92/36/1
f 21/37/7 94/35/8 93/38/9
f 25/39/7 107/17/8 106/40/9
f 29/41/7 79/8/8 78/42/9
f 95/1/10 34/43/11 96/21/6
f 108/25/10 38/44/11 109/30/6
f 80/22/10 42/45/11 81/33/6
f 82/46/2 6/47/2 75/48/2
f 82/49/2 48/50/2 47/51/2
f 83/52/2 49/53/2 48/54/2
f 84/55/2 50/56/2 49/57/2
f 12/58/4 86/59/4 76/60/4
f 86/61/4 57/62/4 87/63/4
f 87/64/4 56/65/4 88/66/4
f 88/67/4 55/68/4 89/69/4
f 97/70/2 2/71/2 90/72/2
f 97/73/2 60/74/2 59/75/2
f 98/76/2 61/77/2 60/78/2
f 103/79/2 65/80/2 4/81/2
f 104/82/4 67/83/4 111/84/4
f 8/85/4 100/86/4 91/87/4
f 100/88/4 70/89/4 101/90/4
f 101/91/4 69/92/4 102/93/4
f 53/94/4 89/95/4 54/96/4
f 52/97/4 88/98/4 53/99/4
f 51/100/4 87/101/4 52/102/4
f 76/103/4 51/104/4 11/105/4
f 44/106/2 85/107/2 84/108/2
f 45/109/2 84/110/2 83/111/2
f 46/112/2 83/113/2 82/114/2
f 46/115/2 75/116/2 5/117/2
f 40/118/10 81/119/6 39/120/5
f 78/121/9 27/122/8 28/123/3
f 54/124/4 81/119/6 42/125/11
f 41/126/1 77/127/1 18/128/1
f 43/129/2 78/130/9 85/131/2
f 77/132/1 30/133/1 18/134/1
f 73/135/4 102/136/4 72/137/4
f 74/138/4 101/139/4 73/140/4
f 91/141/4 74/142/4 7/143/4
f 63/144/2 99/145/2 98/146/2
f 62/147/2 98/148/2 97/149/2
f 62/150/2 90/151/2 1/152/2
f 32/153/10 96/154/6 31/155/5
f 93/156/9 19/157/8 20/158/3
f 92/159/1 22/160/1 16/161/1
f 72/162/4 96/154/6 34/163/11
f 64/164/2 93/165/9 99/166/2
f 33/167/1 92/168/1 16/169/1
f 9/170/4 111/171/4 68/172/4
f 3/173/2 110/174/2 103/175/2
f 36/176/10 109/177/6 35/178/5
f 106/179/9 23/180/8 24/181/3
f 68/182/4 109/177/6 38/183/11
f 37/184/1 105/185/1 17/186/1
f 105/187/1 26/188/1 17/189/1
f 66/190/2 106/191/9 110/192/2
f 95/1/1 32/193/1 13/2/1
f 99/4/2 93/156/9 20/5/3
f 15/7/1 27/194/1 79/8/1
f 85/10/2 78/121/9 28/11/3
f 110/13/2 106/179/9 24/14/3
f 14/16/1 23/195/1 107/17/1
f 102/19/4 69/196/4 31/20/5
f 80/22/1 40/197/1 15/23/1
f 108/25/1 36/198/1 14/26/1
f 111/28/4 67/199/4 35/29/5
f 89/31/4 55/200/4 39/32/5
f 13/34/1 19/201/1 94/35/1
f 21/37/7 22/202/8 94/35/8
f 25/39/7 26/203/8 107/17/8
f 29/41/7 30/204/8 79/8/8
f 95/1/10 33/205/10 34/43/11
f 108/25/10 37/206/10 38/44/11
f 80/22/10 41/207/10 42/45/11
f 82/46/2 47/208/2 6/47/2
f 82/49/2 83/209/2 48/50/2
f 83/52/2 84/210/2 49/53/2
f 84/55/2 85/211/2 50/56/2
f 12/58/4 58/212/4 86/59/4
f 86/61/4 58/213/4 57/62/4
f 87/64/4 57/214/4 56/65/4
f 88/67/4 56/215/4 55/68/4
f 97/70/2 59/216/2 2/71/2
f 97/73/2 98/217/2 60/74/2
f 98/76/2 99/218/2 61/77/2
f 103/79/2 110/219/2 65/80/2
f 104/82/4 10/220/4 67/83/4
f 8/85/4 71/221/4 100/86/4
f 100/88/4 71/222/4 70/89/4
f 101/91/4 70/223/4 69/92/4
f 53/94/4 88/224/4 89/95/4
f 52/97/4 87/225/4 88/98/4
f 51/100/4 86/226/4 87/101/4
f 76/103/4 86/227/4 51/104/4
f 44/106/2 43/228/2 85/107/2
f 45/109/2 44/229/2 84/110/2
f 46/112/2 45/230/2 83/113/2
f 46/115/2 82/231/2 75/116/2
f 40/118/10 80/232/10 81/119/6
f 78/121/9 79/233/8 27/122/8
f 54/124/4 89/234/4 81/119/6
f 41/126/1 80/232/1 77/127/1
f 43/129/2 29/41/7 78/130/9
f 77/132/1 79/233/1 30/133/1
f 73/135/4 101/235/4 102/136/4
f 74/138/4 100/236/4 101/139/4
f 91/141/4 100/237/4 74/142/4
f 63/144/2 64/238/2 99/145/2
f 62/147/2 63/239/2 98/148/2
f 62/150/2 97/240/2 90/151/2
f 32/153/10 95/241/10 96/154/6
f 93/156/9 94/242/8 19/157/8
f 92/159/1 94/242/1 22/160/1
f 72/162/4 102/243/4 96/154/6
f 64/164/2 21/37/7 93/165/9
f 33/167/1 95/241/1 92/168/1
f 9/170/4 104/244/4 111/171/4
f 3/173/2 66/245/2 110/174/2
f 36/176/10 108/246/10 109/177/6
f 106/179/9 107/247/8 23/180/8
f 68/182/4 111/248/4 109/177/6
f 37/184/1 108/246/1 105/185/1
f 105/187/1 107/247/1 26/188/1
f 66/190/2 25/39/7 106/191/9
