# Blender v2.79 (sub 0) OBJ File: '13.blend'
# www.blender.org
o Model.001_Cube.000
v 0.009515 0.120929 -0.008431
v 0.009515 0.124562 -0.008431
v 0.000000 0.124562 -0.008431
v 0.000000 0.120929 -0.008431
v 0.000000 0.124562 -0.057654
v 0.000000 0.120929 -0.057654
v 0.009515 0.120929 -0.057654
v 0.009515 0.124562 -0.057654
v -0.009515 0.120929 -0.008431
v -0.009515 0.124562 -0.008431
v -0.009515 0.120929 -0.057654
v -0.009515 0.124562 -0.057654
v 0.000000 0.083690 0.213012
v 0.000000 0.080549 0.213012
v 0.000000 0.080549 0.235685
v 0.000000 0.083690 0.235685
v 0.010043 0.083690 0.213012
v 0.010043 0.080549 0.213012
v 0.010043 0.083690 0.235685
v 0.010043 0.080549 0.235685
v -0.010043 0.083690 0.213012
v -0.010043 0.080549 0.213012
v -0.010043 0.083690 0.235685
v -0.010043 0.080549 0.235685
v 0.009515 0.124562 -0.049450
v 0.009515 0.124562 -0.041246
v 0.009515 0.124562 -0.033043
v 0.009515 0.124562 -0.024839
v 0.009515 0.124562 -0.016635
v 0.009515 0.120929 -0.016635
v 0.009515 0.120929 -0.024839
v 0.009515 0.120929 -0.033043
v 0.009515 0.120929 -0.041246
v 0.009515 0.120929 -0.049450
v -0.009515 0.120929 -0.016635
v -0.009515 0.120929 -0.024839
v -0.009515 0.120929 -0.033043
v -0.009515 0.120929 -0.041246
v -0.009515 0.120929 -0.049450
v -0.009515 0.124562 -0.049450
v -0.009515 0.124562 -0.041246
v -0.009515 0.124562 -0.033043
v -0.009515 0.124562 -0.024839
v -0.009515 0.124562 -0.016635
v 0.010043 0.083690 0.224348
v 0.010043 0.080549 0.224348
v -0.010043 0.083690 0.224348
v -0.010043 0.080549 0.224348
vt 0.500000 0.000000
vt 0.000000 0.500000
vt 0.000000 0.000000
vt 0.500000 0.000000
vt 0.000000 0.500000
vt 0.000000 0.000000
vt 0.500000 0.000000
vt 0.000000 0.500000
vt 0.000000 0.000000
vt 0.500000 0.000000
vt 0.000000 0.500000
vt 0.000000 0.000000
vt 0.500000 0.000000
vt 0.000000 0.500000
vt 0.000000 0.000000
vt 0.500000 0.000000
vt 0.000000 0.500000
vt 0.000000 0.000000
vt 0.500000 0.000000
vt 0.000000 0.500000
vt 0.500000 0.000000
vt 0.000000 0.500000
vt 0.500000 0.000000
vt 0.000000 0.500000
vt 0.000000 0.000000
vt 0.000000 0.000000
vt 0.500000 0.500000
vt 0.000000 0.500000
vt 0.500000 0.000000
vt 0.000000 0.500000
vt 0.000000 0.000000
vt 0.500000 0.000000
vt 0.000000 0.500000
vt 0.000000 0.000000
vt 0.500000 0.000000
vt 0.000000 0.500000
vt 0.000000 0.000000
vt 0.500000 0.000000
vt 0.000000 0.500000
vt 0.000000 0.000000
vt 0.500000 0.000000
vt 0.000000 0.500000
vt 0.000000 0.000000
vt 0.000000 0.000000
vt 0.500000 0.500000
vt 0.000000 0.500000
vt 0.000000 0.000000
vt 0.500000 0.500000
vt 0.000000 0.500000
vt 0.500000 0.000000
vt 0.000000 0.500000
vt 0.000000 0.000000
vt 0.500000 0.000000
vt 0.000000 0.500000
vt 0.000000 0.000000
vt 0.500000 0.000000
vt 0.000000 0.500000
vt 0.000000 0.000000
vt 0.000000 0.000000
vt 0.500000 0.500000
vt 0.000000 0.500000
vt 0.000000 0.000000
vt 0.500000 0.500000
vt 0.000000 0.500000
vt 0.500000 0.000000
vt 0.000000 0.500000
vt 0.000000 0.000000
vt 0.500000 0.000000
vt 0.000000 0.500000
vt 0.000000 0.000000
vt 0.500000 0.500000
vt 0.500000 0.500000
vt 0.500000 0.500000
vt 0.500000 0.500000
vt 0.500000 0.500000
vt 0.500000 0.500000
vt 0.500000 0.500000
vt 0.500000 0.000000
vt 0.500000 0.500000
vt 0.500000 0.500000
vt 0.500000 0.500000
vt 0.500000 0.500000
vt 0.500000 0.500000
vt 0.500000 0.000000
vt 0.500000 0.000000
vt 0.500000 0.500000
vt 0.500000 0.500000
vt 0.500000 0.500000
vt 0.500000 0.000000
vt 0.500000 0.000000
vt 0.500000 0.500000
vt 0.500000 0.500000
vn 0.0000 0.0000 1.0000
vn 0.0000 0.0000 -1.0000
vn -1.0000 0.0000 0.0000
vn 1.0000 -0.0000 -0.0000
s 1
f 3/1/1 1/2/1 2/3/1
f 8/4/2 6/5/2 5/6/2
f 17/7/2 14/8/2 13/9/2
f 48/10/3 23/11/3 47/12/3
f 16/13/1 20/14/1 19/15/1
f 9/16/1 3/17/1 10/18/1
f 6/19/2 12/20/2 5/6/2
f 14/21/2 21/22/2 13/9/2
f 24/23/1 16/24/1 23/25/1
f 44/26/3 9/27/3 10/28/3
f 2/29/4 30/30/4 29/31/4
f 19/32/4 46/33/4 45/34/4
f 25/35/4 7/36/4 8/37/4
f 26/38/4 34/39/4 25/40/4
f 27/41/4 33/42/4 26/43/4
f 27/44/4 31/45/4 32/46/4
f 28/47/4 30/48/4 31/49/4
f 11/50/3 40/51/3 12/52/3
f 39/53/3 41/54/3 40/55/3
f 38/56/3 42/57/3 41/58/3
f 42/59/3 36/60/3 43/61/3
f 43/62/3 35/63/3 44/64/3
f 45/65/4 18/66/4 17/67/4
f 22/68/3 47/69/3 21/70/3
f 3/1/1 4/71/1 1/2/1
f 8/4/2 7/72/2 6/5/2
f 17/7/2 18/73/2 14/8/2
f 48/10/3 24/74/3 23/11/3
f 16/13/1 15/75/1 20/14/1
f 9/16/1 4/71/1 3/17/1
f 6/19/2 11/76/2 12/20/2
f 14/21/2 22/77/2 21/22/2
f 24/23/1 15/75/1 16/24/1
f 44/26/3 35/78/3 9/27/3
f 2/29/4 1/79/4 30/30/4
f 19/32/4 20/80/4 46/33/4
f 25/35/4 34/81/4 7/36/4
f 26/38/4 33/82/4 34/39/4
f 27/41/4 32/83/4 33/42/4
f 27/44/4 28/84/4 31/45/4
f 28/47/4 29/85/4 30/48/4
f 11/50/3 39/86/3 40/51/3
f 39/53/3 38/87/3 41/54/3
f 38/56/3 37/88/3 42/57/3
f 42/59/3 37/89/3 36/60/3
f 43/62/3 36/90/3 35/63/3
f 45/65/4 46/91/4 18/66/4
f 22/68/3 48/92/3 47/69/3
