# Blender v2.79 (sub 0) OBJ File: '140.blend'
# www.blender.org
o Cube.001_Cube.002
v 0.033198 0.096617 -0.196790
v -0.033198 0.096634 -0.309430
v 0.033198 0.096634 -0.309430
v 0.033198 0.082312 -0.196794
v 0.033198 0.082329 -0.309434
v -0.033198 0.096617 -0.196790
v -0.033198 0.082329 -0.309434
v -0.033198 0.082312 -0.196794
v 0.033198 0.096630 -0.281270
v 0.033198 0.096626 -0.253110
v 0.033198 0.096621 -0.224950
v 0.033198 0.082317 -0.224954
v 0.033198 0.082321 -0.253114
v 0.033198 0.082325 -0.281274
v -0.000000 0.096634 -0.309430
v -0.000000 0.082329 -0.309434
v -0.033198 0.096621 -0.224950
v -0.033198 0.096626 -0.253110
v -0.033198 0.096630 -0.281270
v -0.033198 0.082325 -0.281274
v -0.033198 0.082321 -0.253114
v -0.033198 0.082317 -0.224954
v -0.000000 0.096617 -0.196790
v -0.000000 0.082312 -0.196794
vt 0.500000 0.000000
vt 0.000000 0.500000
vt 0.000000 0.000000
vt 0.500000 0.000000
vt 0.000000 0.500000
vt 0.000000 0.000000
vt 0.000000 0.000000
vt 0.500000 0.500000
vt 0.000000 0.500000
vt 0.500000 0.000000
vt 0.000000 0.500000
vt 0.000000 0.000000
vt 0.000000 0.000000
vt 0.500000 0.500000
vt 0.000000 0.500000
vt 0.000000 0.000000
vt 0.500000 0.500000
vt 0.000000 0.500000
vt 0.000000 0.000000
vt 0.500000 0.500000
vt 0.000000 0.500000
vt 0.500000 0.000000
vt 0.000000 0.500000
vt 0.000000 0.000000
vt 0.500000 0.000000
vt 0.000000 0.500000
vt 0.000000 0.000000
vt 0.500000 0.000000
vt 0.000000 0.500000
vt 0.000000 0.000000
vt 0.500000 0.000000
vt 0.000000 0.500000
vt 0.000000 0.000000
vt 0.500000 0.000000
vt 0.000000 0.500000
vt 0.000000 0.000000
vt 0.500000 0.500000
vt 0.500000 0.500000
vt 0.500000 0.000000
vt 0.500000 0.500000
vt 0.500000 0.000000
vt 0.500000 0.000000
vt 0.500000 0.000000
vt 0.500000 0.500000
vt 0.500000 0.500000
vt 0.500000 0.500000
vt 0.500000 0.500000
vt 0.500000 0.500000
vn 0.0000 -0.0003 1.0000
vn 0.0000 0.0003 -1.0000
vn 1.0000 0.0000 -0.0000
vn -1.0000 0.0000 0.0000
s 1
f 6/1/1 24/2/1 23/3/1
f 3/4/2 16/5/2 15/6/2
f 11/7/3 4/8/3 12/9/3
f 2/10/4 20/11/4 19/12/4
f 3/13/3 14/14/3 5/15/3
f 9/16/3 13/17/3 14/18/3
f 10/19/3 12/20/3 13/21/3
f 15/22/2 7/23/2 2/24/2
f 17/25/4 8/26/4 6/27/4
f 18/28/4 22/29/4 17/30/4
f 19/31/4 21/32/4 18/33/4
f 23/34/1 4/35/1 1/36/1
f 6/1/1 8/37/1 24/2/1
f 3/4/2 5/38/2 16/5/2
f 11/7/3 1/39/3 4/8/3
f 2/10/4 7/40/4 20/11/4
f 3/13/3 9/41/3 14/14/3
f 9/16/3 10/42/3 13/17/3
f 10/19/3 11/43/3 12/20/3
f 15/22/2 16/44/2 7/23/2
f 17/25/4 22/45/4 8/26/4
f 18/28/4 21/46/4 22/29/4
f 19/31/4 20/47/4 21/32/4
f 23/34/1 24/48/1 4/35/1
