# Blender v2.79 (sub 0) OBJ File: '141.blend'
# www.blender.org
o Cube.001_Cube.002
v -0.000000 0.155688 -0.387965
v -0.000000 0.170666 -0.387965
v -0.058074 0.155688 -0.387965
v -0.058074 0.170666 -0.387965
v 0.058074 0.170666 -0.387965
v 0.058074 0.155688 -0.387965
v -0.058074 0.170666 -0.454211
v -0.058074 0.155688 -0.454211
v -0.000000 0.155688 -0.454211
v -0.000000 0.170666 -0.454211
v 0.058074 0.155688 -0.454211
v 0.058074 0.170666 -0.454211
v 0.058074 0.170666 -0.421088
v 0.058074 0.155688 -0.421088
v 0.029037 0.170666 -0.387965
v 0.029037 0.155688 -0.387965
v -0.029037 0.170666 -0.387965
v -0.029037 0.155688 -0.387965
v -0.058074 0.170666 -0.421088
v -0.058074 0.155688 -0.421088
v -0.029037 0.170666 -0.454211
v -0.029037 0.155688 -0.454211
v 0.029037 0.170666 -0.454211
v 0.029037 0.155688 -0.454211
vt 0.500000 0.000000
vt 0.000000 0.500000
vt 0.000000 0.000000
vt 0.500000 0.000000
vt 0.000000 0.500000
vt 0.000000 0.000000
vt 0.500000 0.000000
vt 0.000000 0.500000
vt 0.000000 0.000000
vt 0.500000 0.000000
vt 0.000000 0.500000
vt 0.000000 0.000000
vt 0.500000 0.000000
vt 0.000000 0.500000
vt 0.000000 0.000000
vt 0.500000 0.000000
vt 0.000000 0.500000
vt 0.000000 0.000000
vt 0.500000 0.000000
vt 0.000000 0.500000
vt 0.000000 0.000000
vt 0.500000 0.000000
vt 0.000000 0.500000
vt 0.000000 0.000000
vt 0.500000 0.000000
vt 0.000000 0.500000
vt 0.000000 0.000000
vt 0.500000 0.000000
vt 0.000000 0.500000
vt 0.000000 0.000000
vt 0.500000 0.000000
vt 0.000000 0.500000
vt 0.000000 0.000000
vt 0.500000 0.000000
vt 0.000000 0.500000
vt 0.000000 0.000000
vt 0.500000 0.500000
vt 0.500000 0.500000
vt 0.500000 0.500000
vt 0.500000 0.500000
vt 0.500000 0.500000
vt 0.500000 0.500000
vt 0.500000 0.500000
vt 0.500000 0.500000
vt 0.500000 0.500000
vt 0.500000 0.500000
vt 0.500000 0.500000
vt 0.500000 0.500000
vn 1.0000 0.0000 0.0000
vn -1.0000 0.0000 0.0000
vn 0.0000 0.0000 -1.0000
vn 0.0000 0.0000 1.0000
s 1
f 5/1/1 14/2/1 13/3/1
f 7/4/2 20/5/2 19/6/2
f 12/7/3 24/8/3 23/9/3
f 10/10/3 22/11/3 21/12/3
f 4/13/4 18/14/4 17/15/4
f 2/16/4 16/17/4 15/18/4
f 13/19/1 11/20/1 12/21/1
f 15/22/4 6/23/4 5/24/4
f 17/25/4 1/26/4 2/27/4
f 19/28/2 3/29/2 4/30/2
f 21/31/3 8/32/3 7/33/3
f 23/34/3 9/35/3 10/36/3
f 5/1/1 6/37/1 14/2/1
f 7/4/2 8/38/2 20/5/2
f 12/7/3 11/39/3 24/8/3
f 10/10/3 9/40/3 22/11/3
f 4/13/4 3/41/4 18/14/4
f 2/16/4 1/42/4 16/17/4
f 13/19/1 14/43/1 11/20/1
f 15/22/4 16/44/4 6/23/4
f 17/25/4 18/45/4 1/26/4
f 19/28/2 20/46/2 3/29/2
f 21/31/3 22/47/3 8/32/3
f 23/34/3 24/48/3 9/35/3
