# Blender v2.79 (sub 0) OBJ File: '143.blend'
# www.blender.org
o Model.001_Cube.002
v 0.000000 0.065160 0.415118
v 0.000000 0.040522 0.444863
v 0.057094 0.037737 0.434798
v 0.000000 0.000000 0.458424
v 0.060836 0.000000 0.441693
v 0.000000 -0.065160 0.415118
v 0.000000 -0.040522 0.444863
v 0.057094 -0.037737 0.434798
v -0.057094 0.037737 0.434798
v -0.060836 0.000000 0.441693
v -0.057094 -0.037737 0.434798
v 0.081388 0.027445 0.418720
v 0.061620 0.037473 0.432859
v 0.086429 0.000000 0.418545
v 0.065306 0.000000 0.439816
v 0.081388 -0.027445 0.418720
v 0.061620 -0.037473 0.432859
v -0.081388 0.027445 0.418720
v -0.061620 0.037473 0.432859
v -0.086429 -0.000000 0.418545
v -0.065306 -0.000000 0.439816
v -0.081388 -0.027445 0.418720
v -0.061620 -0.037473 0.432859
v 0.036986 0.061993 0.417065
v 0.036986 -0.061993 0.417065
v -0.036986 0.061993 0.417065
v -0.036986 -0.061993 0.417065
v 0.063732 0.050150 0.419454
v 0.063732 -0.050150 0.419454
v -0.063732 0.050150 0.419454
v -0.063732 -0.050150 0.419454
v 0.044764 0.059683 0.417716
v 0.058656 0.042975 0.430002
v 0.060422 0.053355 0.419100
v 0.044764 -0.059683 0.417716
v 0.058656 -0.042975 0.430002
v 0.060422 -0.053355 0.419100
v -0.044764 0.059683 0.417716
v -0.058656 0.042975 0.430002
v -0.060422 0.053355 0.419100
v -0.044764 -0.059683 0.417716
v -0.058656 -0.042975 0.430002
v -0.060422 -0.053355 0.419100
vt 0.500000 0.000000
vt 0.000000 0.500000
vt 0.000000 0.000000
vt 0.500000 0.000000
vt 0.000000 0.500000
vt 0.000000 0.000000
vt 0.500000 0.000000
vt 0.000000 0.500000
vt 0.000000 0.000000
vt 0.500000 0.000000
vt 0.000000 0.500000
vt 0.500000 0.000000
vt 0.000000 0.500000
vt 0.000000 0.000000
vt 0.000000 0.500000
vt 0.000000 0.000000
vt 0.500000 0.000000
vt 0.000000 0.500000
vt 0.000000 0.000000
vt 0.500000 0.000000
vt 0.500000 0.000000
vt 0.000000 0.500000
vt 0.000000 0.000000
vt 0.500000 0.000000
vt 0.000000 0.500000
vt 0.500000 0.000000
vt 0.000000 0.500000
vt 0.000000 0.000000
vt 0.500000 0.000000
vt 0.000000 0.500000
vt 0.000000 0.000000
vt 0.500000 0.000000
vt 0.500000 0.500000
vt 0.000000 0.000000
vt 0.500000 0.000000
vt 0.500000 0.500000
vt 0.000000 0.000000
vt 0.500000 0.000000
vt 0.500000 0.500000
vt 0.000000 0.000000
vt 0.500000 0.000000
vt 0.500000 0.500000
vt 0.000000 0.000000
vt 0.500000 0.000000
vt 0.500000 0.500000
vt 0.000000 0.000000
vt 0.500000 0.000000
vt 0.500000 0.500000
vt 0.000000 0.000000
vt 0.500000 0.000000
vt 0.500000 0.500000
vt 0.000000 0.000000
vt 0.500000 0.000000
vt 0.500000 0.500000
vt 0.500000 0.500000
vt 0.500000 0.500000
vt 0.500000 0.500000
vt 0.500000 0.500000
vt 0.500000 0.500000
vt 0.500000 0.500000
vn 0.1132 0.7078 0.6973
vn 0.0000 0.5332 0.8460
vn 0.2095 0.4165 0.8847
vn 0.0000 0.0000 1.0000
vn 0.2652 0.0000 0.9642
vn -0.0000 -0.5332 0.8460
vn 0.1132 -0.7078 0.6973
vn 0.2095 -0.4165 0.8847
vn -0.1132 0.7078 0.6973
vn -0.2095 0.4165 0.8847
vn -0.2652 0.0000 0.9642
vn -0.1132 -0.7078 0.6973
vn -0.2095 -0.4165 0.8847
vn 0.6715 0.2512 0.6971
vn 0.6820 0.0000 0.7313
vn 0.7096 -0.0000 0.7046
vn 0.6715 -0.2512 0.6971
vn -0.6820 -0.0000 0.7313
vn -0.6715 0.2512 0.6971
vn -0.7096 0.0000 0.7046
vn -0.6715 -0.2512 0.6971
vn 0.6567 -0.3602 0.6626
vn 0.6576 -0.4929 0.5698
vn 0.6576 0.4929 0.5698
vn 0.6567 0.3602 0.6626
vn -0.6567 0.3602 0.6626
vn -0.6576 0.4929 0.5698
vn -0.6576 -0.4929 0.5698
vn -0.6567 -0.3602 0.6626
vn 0.2174 0.6891 0.6913
vn 0.2174 -0.6891 0.6913
vn -0.2174 0.6891 0.6913
vn -0.2174 -0.6891 0.6913
vn 0.0000 0.7701 0.6379
vn -0.0000 -0.7701 0.6379
s 1
f 24/1/1 2/2/2 3/3/3
f 3/4/3 4/5/4 5/6/5
f 7/7/6 25/8/7 8/9/8
f 4/10/4 8/11/8 5/6/5
f 2/12/2 26/13/9 9/14/10
f 4/10/4 9/15/10 10/16/11
f 27/17/12 7/18/6 11/19/13
f 11/20/13 4/5/4 10/16/11
f 12/21/14 15/22/15 14/23/16
f 15/24/15 16/25/17 14/23/16
f 21/26/18 18/27/19 20/28/20
f 22/29/21 21/30/18 20/28/20
f 16/31/17 17/32/22 29/33/23
f 12/34/14 28/35/24 13/36/25
f 18/37/19 19/38/26 30/39/27
f 22/40/21 31/41/28 23/42/29
f 34/43/30 32/44/30 33/45/30
f 36/46/31 35/47/31 37/48/31
f 39/49/32 38/50/32 40/51/32
f 43/52/33 41/53/33 42/54/33
f 24/1/1 1/55/34 2/2/2
f 3/4/3 2/56/2 4/5/4
f 7/7/6 6/57/35 25/8/7
f 4/10/4 7/58/6 8/11/8
f 2/12/2 1/55/34 26/13/9
f 4/10/4 2/56/2 9/15/10
f 27/17/12 6/57/35 7/18/6
f 11/20/13 7/58/6 4/5/4
f 12/21/14 13/36/25 15/22/15
f 15/24/15 17/59/22 16/25/17
f 21/26/18 19/60/26 18/27/19
f 22/29/21 23/42/29 21/30/18
