# Blender v2.79 (sub 0) OBJ File: '146.blend'
# www.blender.org
o Model.001_Plane.006
v -0.000000 0.128838 0.018203
v 0.019831 0.123061 0.019075
v 0.035502 0.135614 -0.012649
v 0.035497 0.140375 -0.206116
v 0.028495 0.109115 0.019907
v 0.052653 0.109845 -0.010594
v 0.068794 0.110937 -0.056242
v 0.074462 0.112225 -0.110087
v 0.068794 0.113513 -0.163933
v 0.052653 0.114606 -0.209580
v -0.028495 0.109115 0.019907
v -0.052653 0.109845 -0.010594
v -0.068794 0.110937 -0.056242
v -0.074462 0.112225 -0.110087
v -0.068794 0.113513 -0.163933
v -0.052653 0.114606 -0.209580
v -0.019831 0.123061 0.019075
v -0.035502 0.135614 -0.012649
v -0.035497 0.140375 -0.206116
v -0.000000 0.146288 -0.016109
v -0.000000 0.151049 -0.202169
v 0.045210 0.144606 -0.057618
v 0.048485 0.148669 -0.109114
v 0.045204 0.147183 -0.160748
v -0.045210 0.144606 -0.057618
v -0.048485 0.148669 -0.109114
v -0.045204 0.147183 -0.160748
v -0.000000 0.158553 -0.059567
v -0.000000 0.163764 -0.108772
v -0.000000 0.161129 -0.158182
vt 0.000000 0.000000
vt 0.500000 0.500000
vt 0.000000 0.500000
vt 0.000000 0.000000
vt 0.500000 0.500000
vt 0.000000 0.500000
vt 0.396946 0.047746
vt 0.103054 0.047746
vt 0.250000 0.500000
vt 0.500000 0.000000
vt 0.000000 0.500000
vt 0.000000 0.000000
vt 0.500000 0.000000
vt 0.000000 0.500000
vt 0.000000 0.000000
vt 0.000000 0.000000
vt 0.500000 0.500000
vt 0.000000 0.500000
vt 0.000000 0.000000
vt 0.500000 0.500000
vt 0.000000 0.500000
vt 0.500000 0.000000
vt 0.000000 0.500000
vt 0.000000 0.000000
vt 0.500000 0.000000
vt 0.000000 0.500000
vt 0.000000 0.000000
vt 0.000000 0.000000
vt 0.500000 0.500000
vt 0.000000 0.500000
vt 0.500000 0.000000
vt 0.000000 0.500000
vt 0.000000 0.000000
vt 0.000000 0.000000
vt 0.500000 0.500000
vt 0.000000 0.500000
vt 0.000000 0.000000
vt 0.500000 0.500000
vt 0.000000 0.500000
vt 0.500000 0.000000
vt 0.000000 0.500000
vt 0.000000 0.000000
vt 0.500000 0.000000
vt 0.000000 0.500000
vt 0.000000 0.000000
vt 0.000000 0.000000
vt 0.500000 0.500000
vt 0.000000 0.500000
vt 0.500000 0.000000
vt 0.000000 0.500000
vt 0.000000 0.000000
vt 0.000000 0.000000
vt 0.500000 0.500000
vt 0.000000 0.500000
vt 0.000000 0.000000
vt 0.500000 0.500000
vt 0.000000 0.500000
vt 0.500000 0.000000
vt 0.000000 0.500000
vt 0.000000 0.000000
vt 0.500000 0.000000
vt 0.000000 0.500000
vt 0.000000 0.000000
vt 0.500000 0.000000
vt 0.500000 0.000000
vt 0.012236 0.327254
vt 0.487764 0.327254
vt 0.500000 0.500000
vt 0.500000 0.500000
vt 0.500000 0.000000
vt 0.500000 0.000000
vt 0.500000 0.500000
vt 0.500000 0.500000
vt 0.500000 0.000000
vt 0.500000 0.500000
vt 0.500000 0.000000
vt 0.500000 0.000000
vt 0.500000 0.500000
vt 0.500000 0.500000
vt 0.500000 0.000000
vt 0.500000 0.500000
vt 0.500000 0.000000
vt 0.500000 0.000000
vt 0.500000 0.500000
vt 0.500000 0.500000
vn -0.0000 0.9367 0.3502
vn 0.2252 0.8667 0.4452
vn 0.2405 0.9097 0.3386
vn 0.7476 0.5247 0.4071
vn 0.6923 0.4795 0.5393
vn 0.7448 0.5320 0.4027
vn 0.0130 0.0673 0.9976
vn -0.0130 0.0673 0.9976
vn 0.0000 0.0744 0.9972
vn -0.6923 0.4795 0.5393
vn -0.7476 0.5247 0.4071
vn -0.7448 0.5320 0.4027
vn -0.2252 0.8667 0.4452
vn -0.2405 0.9097 0.3386
vn 0.2871 0.9495 -0.1269
vn 0.2946 0.9553 0.0244
vn 0.2825 0.9512 -0.1244
vn 0.2695 0.9407 -0.2063
vn 0.2620 0.9446 -0.1978
vn 0.2796 0.9447 0.1713
vn 0.2852 0.9424 0.1746
vn 0.2973 0.9544 0.0249
vn 0.8020 0.5752 -0.1609
vn 0.8149 0.5794 0.0146
vn 0.8007 0.5764 -0.1631
vn 0.7845 0.5644 -0.2569
vn 0.7893 0.5595 -0.2528
vn 0.8022 0.5667 0.1881
vn 0.8002 0.5690 0.1895
vn 0.8147 0.5796 0.0151
vn -0.8002 0.5690 0.1895
vn -0.8147 0.5796 0.0151
vn -0.8149 0.5794 0.0146
vn -0.8020 0.5752 -0.1609
vn -0.8007 0.5764 -0.1631
vn -0.7845 0.5644 -0.2569
vn -0.7893 0.5595 -0.2528
vn -0.8022 0.5667 0.1881
vn -0.2796 0.9447 0.1713
vn -0.2852 0.9424 0.1746
vn -0.2946 0.9553 0.0244
vn -0.2973 0.9544 0.0249
vn -0.2871 0.9495 -0.1269
vn -0.2825 0.9512 -0.1244
vn -0.2695 0.9407 -0.2063
vn -0.2620 0.9446 -0.1978
vn 0.0000 0.8914 0.4533
vn 0.7039 0.4691 0.5333
vn -0.0324 0.0395 0.9987
vn 0.0324 0.0395 0.9987
vn -0.7039 0.4691 0.5333
s 1
f 20/1/1 2/2/2 3/3/3
f 3/4/4 5/5/5 6/6/6
f 11/7/7 5/8/8 1/9/9
f 11/10/10 18/11/11 12/12/12
f 17/13/13 20/14/1 18/15/14
f 30/16/15 23/17/16 24/18/17
f 21/19/18 24/20/17 4/21/19
f 20/22/1 22/23/20 28/24/21
f 28/25/21 23/26/16 29/27/22
f 24/28/23 8/29/24 9/30/25
f 24/31/23 10/32/26 4/33/27
f 22/34/28 6/35/6 7/36/29
f 23/37/30 7/38/29 8/39/24
f 13/40/31 26/41/32 14/42/33
f 14/43/33 27/44/34 15/45/35
f 16/46/36 27/47/34 19/48/37
f 12/49/12 25/50/38 13/51/31
f 25/52/39 20/53/1 28/54/40
f 26/55/41 28/56/40 29/57/42
f 26/58/41 30/59/43 27/60/44
f 27/61/44 21/62/45 19/63/46
f 20/1/1 1/64/47 2/2/2
f 3/4/4 2/65/48 5/5/5
f 2/66/49 1/9/9 5/8/8
f 17/67/50 11/7/7 1/9/9
f 11/10/10 17/68/51 18/11/11
f 17/13/13 1/69/47 20/14/1
f 30/16/15 29/70/22 23/17/16
f 21/19/18 30/71/15 24/20/17
f 20/22/1 3/72/3 22/23/20
f 28/25/21 22/73/20 23/26/16
f 24/28/23 23/74/30 8/29/24
f 24/31/23 9/75/25 10/32/26
f 22/34/28 3/76/4 6/35/6
f 23/37/30 22/77/28 7/38/29
f 13/40/31 25/78/38 26/41/32
f 14/43/33 26/79/32 27/44/34
f 16/46/36 15/80/35 27/47/34
f 12/49/12 18/81/11 25/50/38
f 25/52/39 18/82/14 20/53/1
f 26/55/41 25/83/39 28/56/40
f 26/58/41 29/84/42 30/59/43
f 27/61/44 30/85/43 21/62/45
