# Blender v2.79 (sub 0) OBJ File: '150.blend'
# www.blender.org
o Model.001_Cube.001
v 0.076219 0.087638 -0.198669
v 0.038508 0.067188 0.055099
v 0.035028 0.103379 -0.145824
v 0.026531 0.085697 0.004912
v -0.076219 0.087638 -0.198669
v -0.038508 0.067188 0.055099
v -0.035028 0.103379 -0.145824
v -0.026531 0.085697 0.004912
v 0.000000 0.098952 -0.200321
v 0.000000 0.069530 0.056770
v 0.000000 0.110136 -0.146546
v 0.000000 0.087070 0.005962
vt 0.500000 0.000000
vt 0.000000 0.500000
vt 0.000000 0.000000
vt 0.500000 0.000000
vt 0.000000 0.000000
vt 0.000000 0.000000
vt 0.500000 0.500000
vt 0.000000 0.500000
vt 0.500000 0.000000
vt 0.000000 0.500000
vt 0.000000 0.000000
vt 0.500000 0.000000
vt 0.000000 0.500000
vt 0.000000 0.000000
vt 0.000000 0.500000
vt 0.000000 0.000000
vt 0.500000 0.500000
vt 0.000000 0.500000
vt 0.500000 0.000000
vt 0.000000 0.500000
vt 0.000000 0.000000
vt 0.500000 0.500000
vt 0.500000 0.500000
vt 0.500000 0.000000
vt 0.500000 0.500000
vt 0.500000 0.500000
vt 0.500000 0.000000
vn 0.3012 0.9520 -0.0545
vn 0.3122 0.9270 0.2078
vn 0.5901 0.7929 0.1516
vn 0.0000 0.9992 -0.0389
vn 0.3075 0.9514 0.0154
vn -0.0000 0.9441 0.3296
vn 0.0000 0.9707 0.2404
vn -0.0000 0.9825 -0.1864
vn -0.3122 0.9270 0.2078
vn -0.3012 0.9520 -0.0545
vn -0.5901 0.7929 0.1516
vn -0.3075 0.9514 0.0154
vn -0.0716 0.9412 0.3300
vn 0.0716 0.9412 0.3300
s 1
f 1/1/1 4/2/2 2/3/3
f 11/4/4 4/2/2 3/5/5
f 10/6/6 4/7/2 12/8/7
f 9/9/8 3/10/5 1/11/1
f 8/12/9 5/13/10 6/14/11
f 8/12/9 11/15/4 7/16/12
f 10/6/6 8/17/9 6/18/13
f 7/19/12 9/20/8 5/21/10
f 1/1/1 3/22/5 4/2/2
f 11/4/4 12/23/7 4/2/2
f 10/6/6 2/24/14 4/7/2
f 9/9/8 11/25/4 3/10/5
f 8/12/9 7/26/12 5/13/10
f 8/12/9 12/23/7 11/15/4
f 10/6/6 12/27/7 8/17/9
f 7/19/12 11/25/4 9/20/8
