# Blender v2.92.0 OBJ File: '16.blend'
# www.blender.org
o Glass_Cube.003
v 0.109860 0.024095 0.374593
v 0.092296 0.014559 0.412017
v -0.109860 0.024095 0.374593
v -0.087664 0.027772 0.410977
v -0.092296 0.014559 0.412017
v -0.076851 0.025303 0.448977
v -0.081419 0.012173 0.451135
v 0.000000 0.019607 0.492051
v 0.087664 0.027772 0.410977
v 0.076851 0.025303 0.448977
v 0.081419 0.012173 0.451135
v 0.051096 0.019618 0.482972
v 0.055640 0.006519 0.485429
v -0.051096 0.019618 0.482972
v -0.055640 0.006519 0.485429
v 0.000000 0.006521 0.494633
vt 0.165792 0.937500
vt 0.167150 0.878680
vt 0.000000 0.902775
vt 0.322638 0.933624
vt 0.493371 0.937500
vt 0.328298 0.875000
vt 0.937500 0.000000
vt 0.875000 0.250000
vt 0.875000 0.000000
vt 0.165792 0.875000
vt 0.000000 0.909725
vt 0.167150 0.933820
vt 0.322638 0.878876
vt 0.328298 0.937500
vt 0.493371 0.875000
vt 0.937500 0.500000
vt 0.937500 0.250000
vt 0.500000 0.878954
vt 0.500000 0.933546
vt 0.875000 0.500000
vn 0.8672 0.3332 0.3702
vn 0.8670 0.3353 0.3687
vn 0.8216 0.3249 0.4684
vn 0.8261 0.3568 0.4363
vn 0.7165 0.3582 0.5986
vn 0.8158 0.3597 0.4529
vn 0.1604 0.2290 0.9601
vn 0.0000 0.2009 0.9796
vn 0.1586 0.2349 0.9590
vn -0.8672 0.3332 0.3702
vn -0.8216 0.3249 0.4684
vn -0.8670 0.3353 0.3687
vn -0.8261 0.3568 0.4363
vn -0.8158 0.3597 0.4529
vn -0.7165 0.3582 0.5986
vn -0.1604 0.2290 0.9601
vn 0.0000 0.1936 0.9811
vn 0.7161 0.3605 0.5977
vn -0.7161 0.3605 0.5977
vn -0.1586 0.2349 0.9590
s 1
f 9/1/1 2/2/2 1/3/3
f 10/4/4 2/2/2 9/1/1
f 12/5/5 11/6/6 10/4/4
f 12/7/7 16/8/8 13/9/9
f 4/10/10 3/11/11 5/12/12
f 5/12/12 6/13/13 4/10/10
f 7/14/14 14/15/15 6/13/13
f 14/16/16 16/8/8 8/17/17
f 10/4/4 11/6/6 2/2/2
f 12/5/5 13/18/18 11/6/6
f 12/7/7 8/17/17 16/8/8
f 5/12/12 7/14/14 6/13/13
f 7/14/14 15/19/19 14/15/15
f 14/16/16 15/20/20 16/8/8
