# Blender v2.92.0 OBJ File: '18.blend'
# www.blender.org
o Glass_Cube.002
v 0.026912 0.039243 -0.039278
v 0.033939 0.028798 0.066071
v 0.019761 0.018277 0.186872
v 0.021714 0.040977 -0.021466
v 0.024982 0.034476 0.069318
v 0.018388 0.027927 0.173418
v -0.026912 0.039243 -0.039278
v -0.033939 0.028798 0.066071
v -0.019761 0.018277 0.186872
v -0.021714 0.040977 -0.021466
v -0.024982 0.034476 0.069318
v -0.018388 0.027927 0.173418
v 0.000000 0.043129 -0.027194
v 0.000000 0.018958 0.225801
v 0.000000 0.042106 -0.011052
v 0.000000 0.050099 0.092116
v 0.000000 0.028351 0.206964
vt 0.288251 0.750000
vt 0.456490 0.762495
vt 0.285128 0.767435
vt 0.064676 0.794433
vt 0.039867 0.837717
vt 0.000000 0.841665
vt 0.440326 0.798713
vt 0.250696 0.817014
vt 0.094962 0.801166
vt 0.470945 0.795847
vt 0.489103 0.751248
vt 0.305362 0.875000
vt 0.465519 0.830925
vt 0.500000 0.835755
vt 0.075832 0.875000
vt 0.297617 0.858656
vt 0.103452 0.862586
vn 0.5616 0.8251 0.0619
vn 0.2751 0.9610 0.0283
vn 0.5199 0.8537 0.0296
vn 0.7502 0.5761 0.3247
vn -0.0000 0.9157 0.4020
vn 0.6730 0.6619 0.3300
vn -0.0000 0.9986 0.0526
vn 0.0000 0.9983 0.0589
vn 0.7014 0.6852 0.1962
vn 0.0000 0.9998 0.0202
vn 0.2347 0.9717 -0.0261
vn -0.5616 0.8251 0.0619
vn -0.2751 0.9610 0.0283
vn -0.2347 0.9717 -0.0261
vn -0.7502 0.5761 0.3247
vn -0.6730 0.6619 0.3300
vn -0.5199 0.8537 0.0296
vn -0.7014 0.6852 0.1962
s 1
f 2/1/1 4/2/2 5/3/3
f 3/4/4 17/5/5 14/6/6
f 15/7/7 5/3/3 4/2/2
f 16/8/8 6/9/9 5/3/3
f 2/1/1 6/9/9 3/4/4
f 13/10/10 4/2/2 1/11/11
f 8/12/12 10/13/13 7/14/14
f 17/5/5 9/15/15 14/6/16
f 11/16/17 15/7/7 10/13/13
f 12/17/18 16/8/8 11/16/17
f 12/17/18 8/12/12 9/15/15
f 10/13/13 13/10/10 7/14/14
f 2/1/1 1/11/11 4/2/2
f 3/4/4 6/9/9 17/5/5
f 15/7/7 16/8/8 5/3/3
f 16/8/8 17/5/5 6/9/9
f 2/1/1 5/3/3 6/9/9
f 13/10/10 15/7/7 4/2/2
f 8/12/12 11/16/17 10/13/13
f 17/5/5 12/17/18 9/15/15
f 11/16/17 16/8/8 15/7/7
f 12/17/18 17/5/5 16/8/8
f 12/17/18 11/16/17 8/12/12
f 10/13/13 15/7/7 13/10/10
