# Blender v2.92.0 OBJ File: '19.blend'
# www.blender.org
o Glass_Cube_Cube.002
v 0.078200 -0.033706 0.439656
v 0.078280 0.024601 0.450119
v 0.058336 0.007329 0.461460
v 0.058336 -0.021754 0.456349
v 0.078227 -0.014271 0.443144
v 0.078254 0.005165 0.446631
v 0.058336 -0.002365 0.459756
v 0.058336 -0.012060 0.458053
v -0.078200 -0.033706 0.439656
v -0.078280 0.024601 0.450119
v -0.058336 0.007329 0.461460
v -0.058336 -0.021754 0.456349
v -0.078227 -0.014271 0.443144
v -0.078254 0.005165 0.446631
v -0.058336 -0.002365 0.459756
v -0.058336 -0.012060 0.458053
v 0.000000 -0.031157 0.454697
v 0.000000 -0.035875 0.441262
v 0.000000 0.026103 0.452658
v 0.000000 0.016732 0.463112
v 0.000000 -0.015194 0.457502
v 0.000000 0.000769 0.460307
vt 0.875000 0.000000
vt 0.750000 0.500000
vt 0.750000 0.000000
vt 0.166667 0.750000
vt 0.000000 0.500000
vt 0.166667 0.500000
vt 0.750000 0.500000
vt 0.875000 0.000000
vt 0.750000 0.000000
vt 0.500000 0.583333
vt 0.000000 0.500000
vt 0.000000 0.583333
vt 0.000000 0.750000
vt 0.500000 0.666667
vt 0.000000 0.666667
vt 0.333333 0.750000
vt 0.500000 0.500000
vt 0.500000 0.750000
vt 0.333333 0.500000
vt 0.875000 0.500000
vt 0.750000 0.000000
vt 0.875000 0.000000
vt 0.333333 0.500000
vt 0.500000 0.750000
vt 0.500000 0.500000
vt 0.750000 0.000000
vt 0.875000 0.500000
vt 0.875000 0.000000
vt 0.000000 0.750000
vt 0.500000 0.666667
vt 0.000000 0.666667
vt 0.000000 0.500000
vt 0.500000 0.583333
vt 0.500000 0.500000
vt 0.000000 0.583333
vt 0.166667 0.500000
vt 0.000000 0.500000
vt 0.333333 0.750000
vt 0.875000 0.500000
vt 0.000000 0.750000
vt 0.875000 0.500000
vt 0.500000 0.500000
vt 0.500000 0.750000
vt 0.750000 0.500000
vt 0.750000 0.500000
vt 0.500000 0.750000
vt 0.166667 0.750000
vn -0.0000 -0.9192 0.3938
vn 0.0458 -0.8115 0.5825
vn 0.0000 -0.9435 0.3314
vn 0.5813 -0.1440 0.8008
vn 0.5811 -0.1421 0.8013
vn 0.5823 -0.1416 0.8006
vn 0.0000 0.7012 0.7129
vn 0.0481 0.5426 0.8386
vn 0.0377 0.5177 0.8547
vn 0.0000 -0.1731 0.9849
vn 0.5834 -0.1434 0.7994
vn 0.5840 -0.1418 0.7993
vn 0.5844 -0.1441 0.7986
vn 0.5838 -0.1405 0.7997
vn -0.0458 -0.8115 0.5825
vn -0.0345 -0.7927 0.6086
vn -0.5813 -0.1440 0.8008
vn -0.5811 -0.1421 0.8013
vn -0.5807 -0.1446 0.8012
vn -0.0481 0.5426 0.8386
vn 0.0000 0.7446 0.6675
vn -0.5840 -0.1418 0.7993
vn -0.5834 -0.1434 0.7994
vn -0.5844 -0.1441 0.7986
vn -0.5823 -0.1416 0.8006
vn 0.0345 -0.7927 0.6086
vn 0.5807 -0.1446 0.8012
vn -0.0377 0.5177 0.8547
vn -0.5838 -0.1405 0.7997
s 1
f 18/1/1 4/2/2 17/3/3
f 6/4/4 3/5/5 7/6/6
f 19/7/7 3/8/8 2/9/9
f 21/10/10 4/11/10 8/12/10
f 3/13/10 22/14/10 7/15/10
f 7/15/10 21/10/10 8/12/10
f 5/16/11 4/17/12 1/18/13
f 5/16/11 7/6/6 8/19/14
f 18/20/1 12/21/15 9/22/16
f 14/23/17 11/24/18 10/25/19
f 19/26/7 11/27/20 20/28/21
f 12/29/10 21/30/10 16/31/10
f 11/32/10 22/33/10 20/34/10
f 15/35/10 21/30/10 22/33/10
f 12/29/22 13/36/23 9/37/24
f 13/36/23 15/38/25 14/23/17
f 18/1/1 1/39/26 4/2/2
f 6/4/4 2/40/27 3/5/5
f 19/7/7 20/41/21 3/8/8
f 21/10/10 17/42/10 4/11/10
f 3/13/10 20/43/10 22/14/10
f 7/15/10 22/14/10 21/10/10
f 5/16/11 8/19/14 4/17/12
f 5/16/11 6/4/4 7/6/6
f 18/20/1 17/44/3 12/21/15
f 14/23/17 15/38/25 11/24/18
f 19/26/7 10/45/28 11/27/20
f 12/29/10 17/46/10 21/30/10
f 11/32/10 15/35/10 22/33/10
f 15/35/10 16/31/10 21/30/10
f 12/29/22 16/47/29 13/36/23
f 13/36/23 16/47/29 15/38/25
