# Blender v2.92.0 OBJ File: '21.blend'
# www.blender.org
o Glass_Plane.001
v 0.034595 0.034595 0.128051
v 0.025574 0.025574 0.145878
v 0.034595 -0.034595 0.128051
v 0.025574 -0.025574 0.145878
v 0.043053 0.000000 0.128051
v 0.031827 0.000000 0.145878
v -0.034595 0.034595 0.128051
v -0.025574 0.025574 0.145878
v -0.034595 -0.034595 0.128051
v -0.025574 -0.025574 0.145878
v -0.043053 0.000000 0.128051
v -0.031827 0.000000 0.145878
v 0.000000 0.043053 0.128051
v 0.000000 0.031827 0.145878
v 0.000000 -0.043053 0.128051
v 0.000000 -0.031827 0.145878
v 0.000000 0.000000 0.145878
v 0.047428 0.047428 0.057747
v 0.047428 -0.047428 0.057747
v 0.059025 0.000000 0.057747
v -0.047428 0.047428 0.057747
v -0.047428 -0.047428 0.057747
v -0.059025 0.000000 0.057747
v 0.000000 0.059025 0.057747
v 0.000000 -0.059025 0.057747
vt 0.500000 0.000000
vt 0.750000 0.500000
vt 0.750000 0.000000
vt 0.750000 0.500000
vt 0.500000 0.000000
vt 0.750000 0.000000
vt 0.000000 0.500000
vt 0.500000 0.000000
vt 0.500000 0.500000
vt 0.000000 0.500000
vt 0.500000 0.500000
vt 0.500000 0.500000
vt 0.000000 0.000000
vt 0.500000 0.000000
vt 0.750000 0.500000
vt 0.500000 0.000000
vt 0.750000 0.000000
vt 0.000000 0.500000
vt 0.500000 0.750000
vt 0.000000 0.750000
vt 0.000000 0.000000
vt 0.500000 0.500000
vt 0.000000 0.500000
vt 0.000000 0.000000
vt 0.500000 0.500000
vt 0.000000 0.000000
vt 0.500000 0.000000
vt 0.000000 0.750000
vt 0.500000 0.500000
vt 0.500000 0.750000
vt 0.500000 0.750000
vt 0.000000 0.500000
vt 0.500000 0.500000
vt 0.500000 0.000000
vt 0.000000 0.000000
vt 0.500000 0.500000
vt 0.000000 0.000000
vt 0.500000 0.000000
vt 0.500000 0.000000
vt 0.000000 0.500000
vt 0.500000 0.500000
vt 0.000000 0.750000
vt 0.500000 0.750000
vt 0.500000 0.500000
vt 0.750000 0.000000
vt 0.000000 0.000000
vt 0.000000 0.500000
vt 0.000000 0.500000
vt 0.500000 0.500000
vt 0.500000 0.500000
vt 0.500000 0.500000
vt 0.000000 0.000000
vt 0.000000 0.500000
vt 0.500000 0.000000
vt 0.000000 0.500000
vt 0.000000 0.500000
vt 0.000000 0.750000
vt 0.500000 0.500000
vt 0.000000 0.500000
vt 0.000000 0.500000
vt 0.750000 0.500000
vt 0.000000 0.000000
vn -0.0000 0.9752 0.2215
vn 0.2224 0.9097 0.3508
vn 0.2319 0.9486 0.2155
vn 0.9752 -0.0000 0.2215
vn 0.9097 0.2224 0.3508
vn 0.9275 -0.0000 0.3739
vn -0.0000 0.9275 0.3739
vn 0.2026 0.8286 0.5218
vn 0.0000 0.0000 1.0000
vn 0.8286 0.2026 0.5218
vn 0.8462 0.0000 0.5329
vn 0.2224 -0.9097 0.3508
vn 0.0000 -0.9752 0.2215
vn 0.2319 -0.9486 0.2155
vn 0.9097 -0.2224 0.3508
vn 0.9486 -0.2319 0.2155
vn 0.2026 -0.8286 0.5218
vn 0.0000 -0.9275 0.3739
vn 0.8286 -0.2026 0.5218
vn -0.2224 0.9097 0.3508
vn -0.2319 0.9486 0.2155
vn -0.9752 0.0000 0.2215
vn -0.9097 0.2224 0.3508
vn -0.9486 0.2319 0.2155
vn -0.2026 0.8286 0.5218
vn -0.9275 -0.0000 0.3739
vn -0.8286 0.2026 0.5218
vn -0.2224 -0.9097 0.3508
vn -0.2319 -0.9486 0.2155
vn -0.9097 -0.2224 0.3508
vn -0.2026 -0.8286 0.5218
vn -0.8286 -0.2026 0.5218
vn -0.8462 0.0000 0.5329
vn 0.9486 0.2319 0.2155
vn 0.0000 0.8462 0.5329
vn 0.0000 -0.8462 0.5329
vn -0.9486 -0.2319 0.2155
s 1
f 24/1/1 1/2/2 18/3/3
f 20/4/4 1/5/5 5/6/6
f 13/7/7 2/8/8 1/9/2
f 2/8/9 17/10/9 6/11/9
f 5/12/6 2/13/10 6/14/11
f 3/15/12 25/16/13 19/17/14
f 20/18/4 3/19/15 19/20/16
f 4/21/17 15/22/18 3/23/12
f 17/24/9 4/25/9 6/14/9
f 5/26/6 4/25/19 3/27/15
f 7/28/20 24/29/1 21/30/21
f 23/31/22 7/32/23 21/33/24
f 8/34/25 13/7/7 7/35/20
f 17/36/9 8/37/9 12/38/9
f 11/39/26 8/40/27 7/35/23
f 25/41/13 9/42/28 22/43/29
f 23/44/22 9/45/30 11/39/26
f 15/22/18 10/46/31 9/47/28
f 10/46/9 17/36/9 12/38/9
f 11/39/26 10/48/32 12/49/33
f 24/1/1 13/50/7 1/2/2
f 20/4/4 18/51/34 1/5/5
f 13/7/7 14/52/35 2/8/8
f 2/8/9 14/52/9 17/10/9
f 5/12/6 1/53/5 2/13/10
f 3/15/12 15/22/18 25/16/13
f 20/18/4 5/12/6 3/19/15
f 4/21/17 16/54/36 15/22/18
f 17/24/9 16/55/9 4/25/9
f 5/26/6 6/56/11 4/25/19
f 7/28/20 13/7/7 24/29/1
f 23/31/22 11/57/26 7/32/23
f 8/34/25 14/58/35 13/7/7
f 17/36/9 14/59/9 8/37/9
f 11/39/26 12/49/33 8/40/27
f 25/41/13 15/60/18 9/42/28
f 23/44/22 22/61/37 9/45/30
f 15/22/18 16/54/36 10/46/31
f 10/46/9 16/55/9 17/36/9
f 11/39/26 9/62/30 10/48/32
