# Blender v2.79 (sub 0) OBJ File: '23_0.blend'
# www.blender.org
o Model.001_Cube.002
v 0.119261 0.026696 0.360045
v 0.119978 -0.055251 0.449402
v 0.089203 -0.129705 0.513720
v 0.075618 0.104237 0.251536
v 0.046648 0.089172 0.310447
v 0.060545 -0.092281 0.503674
v 0.078476 -0.047618 0.468452
v 0.077760 0.032023 0.385858
v -0.119261 0.026696 0.360045
v -0.119978 -0.055251 0.449402
v -0.089203 -0.129705 0.513720
v -0.075618 0.104237 0.251536
v -0.046648 0.089172 0.310447
v -0.060545 -0.092281 0.503674
v -0.078476 -0.047618 0.468452
v -0.077760 0.032023 0.385858
vt 0.000000 0.000000
vt 0.500000 0.500000
vt 0.000000 0.500000
vt 0.250000 0.000000
vt 0.073223 0.073223
vt 0.426777 0.426777
vt 0.000000 0.000000
vt 0.500000 0.500000
vt 0.000000 0.500000
vt 0.500000 0.000000
vt 0.000000 0.500000
vt 0.000000 0.000000
vt 0.000000 0.000000
vt 0.500000 0.500000
vt 0.000000 0.500000
vt 0.500000 0.000000
vt 0.000000 0.500000
vt 0.000000 0.000000
vt 0.000000 0.000000
vt 0.500000 0.500000
vt 0.000000 0.500000
vt 0.500000 0.500000
vt 0.000000 0.500000
vt 0.500000 0.000000
vt 0.000000 0.500000
vt 0.000000 0.000000
vt 0.500000 0.000000
vt 0.073223 0.426777
vt 0.250000 0.500000
vt 0.500000 0.250000
vt 0.426777 0.073223
vt 0.000000 0.250000
vt 0.500000 0.000000
vt 0.500000 0.500000
vt 0.500000 0.000000
vt 0.500000 0.000000
vt 0.500000 0.000000
vt 0.500000 0.500000
vn 0.2345 0.7586 0.6079
vn 0.4237 0.5870 0.6898
vn 0.4237 0.7472 0.5121
vn -0.2345 0.7586 0.6079
vn -0.2400 0.6159 0.7503
vn -0.1422 0.4626 0.8751
vn 0.2109 0.4008 0.8915
vn 0.1422 0.4626 0.8751
vn 0.1565 0.8870 0.4345
vn -0.1831 0.9271 0.3271
vn -0.1565 0.8870 0.4345
vn 0.1831 0.9271 0.3271
vn 0.2400 0.6159 0.7503
vn -0.4237 0.5870 0.6898
vn -0.4237 0.7472 0.5121
vn -0.2109 0.4008 0.8915
s 1
f 8/1/1 2/2/2 1/3/3
f 16/4/4 15/5/5 8/6/1
f 14/7/6 3/8/7 6/9/8
f 5/10/9 12/11/10 13/12/11
f 5/13/9 1/14/3 4/15/12
f 6/16/8 2/17/2 7/18/13
f 16/19/4 10/20/14 15/21/5
f 13/12/11 9/22/15 16/23/4
f 10/24/14 14/25/6 15/26/5
f 8/1/1 7/27/13 2/2/2
f 6/28/8 7/29/13 15/5/5
f 8/6/1 5/30/9 13/31/11
f 13/31/11 16/4/4 8/6/1
f 15/5/5 14/32/6 6/28/8
f 7/29/13 8/6/1 15/5/5
f 14/7/6 11/33/16 3/8/7
f 5/10/9 4/34/12 12/11/10
f 5/13/9 8/35/1 1/14/3
f 6/16/8 3/8/7 2/17/2
f 16/19/4 9/36/15 10/20/14
f 13/12/11 12/37/10 9/22/15
f 10/24/14 11/38/16 14/25/6
