# Blender v2.92.0 OBJ File: '23.blend'
# www.blender.org
o Glass_Cube.002
v 0.119464 0.050641 0.324820
v 0.120182 -0.033548 0.414329
v 0.089355 -0.112398 0.478756
v 0.075746 0.133436 0.216126
v 0.046727 0.120279 0.279413
v 0.061840 0.129663 0.249562
v 0.060648 -0.073132 0.472969
v 0.076955 -0.095168 0.476271
v 0.102316 -0.027347 0.423190
v 0.078610 -0.025341 0.437688
v 0.077892 0.058544 0.354953
v 0.100738 0.054938 0.341265
v 0.000000 -0.116977 0.479036
v 0.000000 0.135966 0.213819
v -0.119464 0.050641 0.324820
v 0.000000 0.062102 0.359315
v 0.000000 -0.023462 0.441951
v -0.120182 -0.033548 0.414329
v -0.089355 -0.112398 0.478756
v -0.075746 0.133436 0.216126
v -0.046727 0.120279 0.279413
v -0.061840 0.129663 0.249562
v -0.060648 -0.073132 0.472969
v -0.076955 -0.095168 0.476271
v -0.102316 -0.027347 0.423190
v -0.078610 -0.025341 0.437688
v 0.000000 -0.098069 0.476914
v 0.000000 -0.073589 0.475535
v 0.000000 0.121576 0.278306
v 0.000000 0.131333 0.247709
v -0.077892 0.058544 0.354953
v -0.100738 0.054938 0.341265
vt 0.500000 0.618278
vt 0.000000 0.500000
vt 0.500000 0.500000
vt 0.809139 0.000000
vt 0.750000 0.250000
vt 0.750000 0.000000
vt 0.618278 0.500000
vt 0.500000 0.000000
vt 0.500000 0.500000
vt 0.875000 0.500000
vt 0.812500 0.371863
vt 0.812500 0.500000
vt 0.875000 0.371863
vt 0.812500 0.186895
vt 0.875000 0.000000
vt 0.875000 0.186895
vt 0.618278 0.500000
vt 0.618278 0.000000
vt 0.750000 0.500000
vt 0.750000 0.000000
vt 0.809139 0.250000
vt 0.875000 0.000000
vt 0.875000 0.250000
vt 0.250000 0.618278
vt 0.500000 0.750000
vt 0.000000 0.618278
vt 0.750000 0.500000
vt 0.250000 0.500000
vt 0.500000 0.618278
vt 0.000000 0.500000
vt 0.000000 0.618278
vt 0.809139 0.500000
vt 0.000000 0.631722
vt 0.500000 0.750000
vt 0.500000 0.631722
vt 0.750000 0.500000
vt 0.750000 0.371863
vt 0.750000 0.186895
vt 0.750000 0.000000
vt 0.750000 0.000000
vt 0.631722 0.500000
vt 0.631722 0.000000
vt 0.500000 0.500000
vt 0.500000 0.000000
vt 0.875000 0.500000
vt 0.000000 0.750000
vt 0.000000 0.618278
vt 0.500000 0.750000
vt 0.000000 0.750000
vt 0.000000 0.500000
vt 0.500000 0.500000
vt 0.812500 0.000000
vt 0.500000 0.500000
vt 0.250000 0.750000
vt 0.000000 0.750000
vt 0.500000 0.500000
vt 0.750000 0.500000
vt 0.000000 0.750000
vt 0.000000 0.500000
vn 0.2946 0.9086 0.2959
vn 0.5663 0.6883 0.4534
vn 0.5871 0.7402 0.3277
vn -0.0014 0.1409 0.9900
vn -0.0000 0.1158 0.9933
vn -0.0041 0.1399 0.9902
vn 0.5105 0.6898 0.5133
vn 0.5211 0.5251 0.6728
vn 0.2663 0.5106 0.8176
vn 0.0000 0.6328 0.7743
vn 0.0000 0.5566 0.8308
vn 0.2973 0.5722 0.7643
vn -0.0000 0.7481 0.6636
vn 0.1759 0.8663 0.4676
vn 0.2770 0.7340 0.6200
vn 0.4605 0.4416 0.7700
vn 0.4936 0.5246 0.6937
vn -0.0000 0.0952 0.9955
vn 0.0094 0.1338 0.9910
vn 0.0000 0.0562 0.9984
vn -0.0000 0.9757 0.2193
vn -0.0000 0.9913 0.1318
vn -0.2946 0.9086 0.2959
vn -0.5663 0.6883 0.4534
vn -0.5105 0.6898 0.5133
vn 0.0014 0.1409 0.9900
vn -0.5211 0.5251 0.6728
vn -0.4936 0.5246 0.6937
vn -0.2663 0.5106 0.8176
vn -0.2973 0.5722 0.7643
vn -0.2770 0.7340 0.6200
vn -0.1759 0.8663 0.4676
vn -0.4605 0.4416 0.7700
vn -0.0094 0.1338 0.9910
vn -0.0000 0.8927 0.4507
vn 0.4642 0.4445 0.7661
vn 0.0294 0.9918 0.1241
vn -0.5871 0.7402 0.3277
vn 0.0041 0.1399 0.9902
vn -0.4642 0.4445 0.7661
vn -0.0294 0.9918 0.1241
s 1
f 6/1/1 1/2/2 4/3/3
f 8/4/4 13/5/5 3/6/6
f 12/7/7 2/8/8 1/9/2
f 7/10/9 17/11/10 28/12/11
f 10/13/12 16/14/13 17/11/10
f 5/15/14 16/14/13 11/16/15
f 8/17/16 2/8/8 9/18/17
f 7/19/9 9/18/17 10/20/12
f 27/21/18 7/22/19 28/23/20
f 30/24/21 5/25/14 6/1/1
f 5/25/14 12/26/7 6/1/1
f 11/27/15 9/18/17 12/7/7
f 6/1/1 14/28/22 30/24/21
f 22/29/23 15/30/24 32/31/25
f 24/32/26 13/5/5 27/21/18
f 32/33/25 18/34/27 25/35/28
f 23/36/29 17/11/10 26/37/30
f 26/37/30 16/14/13 31/38/31
f 16/14/13 21/39/32 31/38/31
f 18/40/27 24/41/33 25/42/28
f 25/42/28 23/43/29 26/44/30
f 27/21/18 23/45/34 24/32/26
f 21/46/32 30/24/21 22/47/23
f 21/48/32 32/31/25 31/49/31
f 31/50/31 25/35/28 26/51/30
f 14/28/22 22/47/23 30/24/21
f 6/1/1 12/26/7 1/2/2
f 8/4/4 27/21/18 13/5/5
f 12/7/7 9/18/17 2/8/8
f 7/10/9 10/13/12 17/11/10
f 10/13/12 11/16/15 16/14/13
f 5/15/14 29/52/35 16/14/13
f 8/17/16 3/53/36 2/8/8
f 7/19/9 8/17/16 9/18/17
f 27/21/18 8/4/4 7/22/19
f 30/24/21 29/54/35 5/25/14
f 5/25/14 11/55/15 12/26/7
f 11/27/15 10/20/12 9/18/17
f 6/1/1 4/3/37 14/28/22
f 22/29/23 20/56/38 15/30/24
f 24/32/26 19/57/39 13/5/5
f 32/33/25 15/58/24 18/34/27
f 23/36/29 28/12/11 17/11/10
f 26/37/30 17/11/10 16/14/13
f 16/14/13 29/52/35 21/39/32
f 18/40/27 19/57/40 24/41/33
f 25/42/28 24/41/33 23/43/29
f 27/21/18 28/23/20 23/45/34
f 21/46/32 29/54/35 30/24/21
f 21/48/32 22/29/23 32/31/25
f 31/50/31 32/33/25 25/35/28
f 14/28/22 20/59/41 22/47/23
