# Blender v2.79 (sub 0) OBJ File: '25.blend'
# www.blender.org
o Cube.001_Cube.004
v -0.116848 0.004667 0.500130
v -0.116848 -0.004667 0.471580
v -0.116848 -0.004667 0.500130
v -0.052525 0.004667 0.524068
v -0.052525 -0.004667 0.524068
v 0.116848 0.004667 0.471580
v 0.116848 -0.004667 0.500130
v 0.116848 -0.004667 0.471580
v 0.029541 0.004667 0.524068
v -0.029541 -0.004667 0.524068
v 0.029541 -0.004667 0.524068
v 0.052525 0.004667 0.524068
v 0.052525 -0.004667 0.524068
v -0.029541 0.004667 0.524068
v 0.116848 0.004667 0.500130
v -0.116848 0.004667 0.471580
v -0.095407 -0.004667 0.508109
v -0.073966 -0.004667 0.516089
v -0.095407 0.004667 0.508109
v -0.073966 0.004667 0.516089
v 0.000000 -0.004667 0.524068
v 0.000000 0.004667 0.524068
v 0.095407 -0.004667 0.508109
v 0.073966 -0.004667 0.516089
v 0.073966 0.004667 0.516089
v 0.095407 0.004667 0.508109
v -0.116848 0.004667 0.485855
v -0.116848 -0.004667 0.485855
v 0.116848 0.004667 0.485855
v 0.116848 -0.004667 0.485855
vt 0.500000 0.000000
vt 0.000000 0.500000
vt 0.000000 0.000000
vt 0.500000 0.000000
vt 0.000000 0.500000
vt 0.000000 0.000000
vt 0.000000 0.000000
vt 0.500000 0.500000
vt 0.000000 0.500000
vt 0.500000 0.000000
vt 0.000000 0.500000
vt 0.000000 0.000000
vt 0.000000 0.000000
vt 0.500000 0.500000
vt 0.000000 0.500000
vt 0.500000 0.000000
vt 0.000000 0.500000
vt 0.000000 0.000000
vt 0.500000 0.000000
vt 0.000000 0.500000
vt 0.000000 0.000000
vt 0.500000 0.000000
vt 0.000000 0.500000
vt 0.000000 0.000000
vt 0.500000 0.000000
vt 0.000000 0.500000
vt 0.000000 0.000000
vt 0.500000 0.000000
vt 0.000000 0.500000
vt 0.000000 0.000000
vt 0.000000 0.000000
vt 0.500000 0.500000
vt 0.000000 0.500000
vt 0.500000 0.000000
vt 0.000000 0.500000
vt 0.000000 0.000000
vt 0.500000 0.000000
vt 0.000000 0.500000
vt 0.000000 0.000000
vt 0.500000 0.000000
vt 0.000000 0.500000
vt 0.000000 0.000000
vt 0.500000 0.500000
vt 0.500000 0.500000
vt 0.500000 0.000000
vt 0.500000 0.500000
vt 0.500000 0.000000
vt 0.500000 0.500000
vt 0.500000 0.500000
vt 0.500000 0.500000
vt 0.500000 0.500000
vt 0.500000 0.500000
vt 0.500000 0.000000
vt 0.500000 0.500000
vt 0.500000 0.500000
vt 0.500000 0.500000
vn -0.3488 0.0000 0.9372
vn -0.1772 0.0000 0.9842
vn 0.0000 0.0000 1.0000
vn -1.0000 0.0000 0.0000
vn 1.0000 0.0000 0.0000
vn 0.3488 0.0000 0.9372
vn 0.1772 0.0000 0.9842
s 1
f 20/1/1 5/2/2 4/3/2
f 4/4/2 10/5/3 14/6/3
f 27/7/4 2/8/4 28/9/4
f 15/10/5 30/11/5 29/12/5
f 25/13/6 13/14/7 24/15/6
f 14/16/3 21/17/3 22/18/3
f 1/19/1 17/20/1 19/21/1
f 19/22/1 18/23/1 20/24/1
f 27/25/4 3/26/4 1/27/4
f 22/28/3 11/29/3 9/30/3
f 15/31/6 23/32/6 7/33/6
f 25/34/6 23/35/6 26/36/6
f 29/37/5 8/38/5 6/39/5
f 9/40/3 13/41/7 12/42/7
f 20/1/1 18/43/1 5/2/2
f 4/4/2 5/44/2 10/5/3
f 27/7/4 16/45/4 2/8/4
f 15/10/5 7/46/5 30/11/5
f 25/13/6 12/47/7 13/14/7
f 14/16/3 10/48/3 21/17/3
f 1/19/1 3/49/1 17/20/1
f 19/22/1 17/50/1 18/23/1
f 27/25/4 28/51/4 3/26/4
f 22/28/3 21/52/3 11/29/3
f 15/31/6 26/53/6 23/32/6
f 25/34/6 24/54/6 23/35/6
f 29/37/5 30/55/5 8/38/5
f 9/40/3 11/56/3 13/41/7
