# Blender v2.79 (sub 0) OBJ File: '26.blend'
# www.blender.org
o Cylinder.001
v 0.081697 -0.058606 0.049229
v 0.081697 -0.071306 0.049229
v 0.062528 -0.058606 0.087705
v 0.062528 -0.071306 0.087705
v 0.033840 -0.058606 0.113415
v 0.033840 -0.071306 0.113415
v 0.000000 -0.058606 0.122442
v 0.000000 -0.071306 0.122442
v -0.033840 -0.058606 0.113415
v -0.033840 -0.071306 0.113415
v -0.062528 -0.058606 0.087705
v -0.062528 -0.071306 0.087705
v -0.081697 -0.058606 0.049229
v -0.081697 -0.071306 0.049229
v 0.087283 -0.058606 0.011563
v -0.087283 -0.058606 0.011563
v 0.087283 -0.071306 0.011563
v -0.087283 -0.071306 0.011563
vt 0.500000 0.000000
vt 0.000000 0.500000
vt 0.000000 0.000000
vt 0.500000 0.000000
vt 0.000000 0.500000
vt 0.000000 0.000000
vt 0.500000 0.000000
vt 0.000000 0.500000
vt 0.000000 0.000000
vt 0.500000 0.000000
vt 0.000000 0.500000
vt 0.000000 0.000000
vt 0.500000 0.000000
vt 0.000000 0.500000
vt 0.000000 0.000000
vt 0.500000 0.000000
vt 0.000000 0.500000
vt 0.000000 0.000000
vt 0.500000 0.000000
vt 0.000000 0.500000
vt 0.000000 0.000000
vt 0.500000 0.000000
vt 0.000000 0.500000
vt 0.000000 0.000000
vt 0.500000 0.500000
vt 0.500000 0.500000
vt 0.500000 0.500000
vt 0.500000 0.500000
vt 0.500000 0.500000
vt 0.500000 0.500000
vt 0.500000 0.500000
vt 0.500000 0.500000
vn -0.7954 0.0000 0.6061
vn -0.4756 0.0000 0.8796
vn 0.0000 0.0000 1.0000
vn 0.7954 0.0000 0.6061
vn 0.9539 0.0000 0.3000
vn 0.4756 0.0000 0.8796
vn -0.9892 0.0000 0.1467
vn -0.9539 0.0000 0.3000
vn 0.9892 0.0000 0.1467
s 1
f 11/1/1 10/2/2 9/3/2
f 9/4/2 8/5/3 7/6/3
f 3/7/4 2/8/5 1/9/5
f 7/10/3 6/11/6 5/12/6
f 5/13/6 4/14/4 3/15/4
f 16/16/7 14/17/8 13/18/8
f 13/19/8 12/20/1 11/21/1
f 1/22/5 17/23/9 15/24/9
f 11/1/1 12/25/1 10/2/2
f 9/4/2 10/26/2 8/5/3
f 3/7/4 4/27/4 2/8/5
f 7/10/3 8/28/3 6/11/6
f 5/13/6 6/29/6 4/14/4
f 16/16/7 18/30/7 14/17/8
f 13/19/8 14/31/8 12/20/1
f 1/22/5 2/32/5 17/23/9
