# Blender v2.79 (sub 0) OBJ File: ''
# www.blender.org
o Cube_Cube.001
v 0.118909 -0.191911 0.339604
v 0.102129 0.194419 0.126569
v 0.127994 -0.207618 -0.030703
v 0.165579 0.207618 -0.103809
v 0.207618 0.174394 -0.628161
v 0.165579 0.207618 -0.628161
v 0.212531 -0.002342 -0.059364
v 0.191911 -0.065010 0.339604
v 0.212531 0.101543 -0.059364
v 0.116303 0.151611 0.200391
v 0.165579 0.207618 0.103809
v 0.191911 0.123423 0.279245
v 0.207618 -0.007256 0.124070
v 0.127994 -0.207618 0.288206
v 0.207618 0.079748 0.105545
v 0.255607 -0.142491 -0.052718
v 0.215470 -0.212262 0.002958
v 0.215470 -0.212262 0.245830
v 0.255607 -0.142491 0.245830
v 0.006896 0.181290 -0.628161
v 0.006896 0.200722 -0.628161
v 0.163183 0.200722 -0.628161
v 0.187770 0.181290 -0.628161
v 0.013115 0.200005 -0.583944
v 0.013115 0.182007 -0.583944
v 0.180645 0.182007 -0.583944
v 0.157871 0.200005 -0.583944
v 0.207618 0.174394 -0.103809
v 0.207618 -0.069206 -0.103809
v 0.207618 0.138412 0.223151
v 0.207618 -0.069206 0.288206
v 0.231227 0.101543 -0.059364
v 0.231227 -0.002342 -0.059364
v 0.207618 0.079748 0.105545
v 0.207618 -0.007256 0.124070
v 0.207618 0.106456 -0.059364
v 0.207618 -0.007256 -0.059364
v 0.236140 0.106456 -0.059364
v 0.236140 -0.007256 -0.059364
v 0.214749 0.081144 0.013179
v 0.214749 0.001910 0.013179
v 0.214749 0.081144 0.013179
v 0.214749 0.001910 0.013179
v -0.118909 -0.191911 0.339604
v -0.102129 0.194419 0.126569
v -0.127994 -0.207618 -0.030703
v -0.165579 0.207618 -0.103809
v -0.207618 0.174394 -0.628161
v -0.165579 0.207618 -0.628161
v -0.212531 -0.002342 -0.059364
v -0.191911 -0.065010 0.339604
v -0.212531 0.101543 -0.059364
v -0.116303 0.151611 0.200391
v -0.165579 0.207618 0.103809
v -0.191911 0.123423 0.279245
v 0.000000 -0.207618 -0.030703
v 0.000000 0.227529 -0.103809
v 0.000000 -0.191911 0.371839
v 0.000000 0.207618 0.103809
v 0.000000 0.174394 -0.628161
v 0.000000 0.207618 -0.628161
v 0.000000 -0.069206 0.371839
v 0.000000 -0.069206 -0.103809
v 0.000000 0.123423 0.311481
v 0.000000 0.174394 -0.103809
v 0.000000 0.194419 0.126569
v 0.000000 0.151611 0.200391
v -0.207618 -0.007256 0.124070
v -0.127994 -0.207618 0.288206
v 0.000000 -0.207618 0.288206
v -0.207618 0.079748 0.105545
v 0.000000 0.138412 0.223151
v -0.255607 -0.142491 -0.052718
v -0.215470 -0.212262 0.002958
v -0.215470 -0.212262 0.245830
v -0.255607 -0.142491 0.245830
v -0.006896 0.181290 -0.628161
v -0.006896 0.200722 -0.628161
v -0.163183 0.200722 -0.628161
v -0.187770 0.181290 -0.628161
v -0.013115 0.200005 -0.583944
v -0.013115 0.182007 -0.583944
v -0.180645 0.182007 -0.583944
v -0.157871 0.200005 -0.583944
v -0.207618 0.174394 -0.103809
v -0.207618 -0.069206 -0.103809
v -0.207618 0.138412 0.223151
v -0.207618 -0.069206 0.288206
v -0.231227 0.101543 -0.059364
v -0.231227 -0.002342 -0.059364
v -0.207618 0.079748 0.105545
v -0.207618 -0.007256 0.124070
v -0.207618 0.106456 -0.059364
v -0.207618 -0.007256 -0.059364
v -0.236140 0.106456 -0.059364
v -0.236140 -0.007256 -0.059364
v -0.214749 0.081144 0.013179
v -0.214749 0.001910 0.013179
v -0.214749 0.081144 0.013179
v -0.214749 0.001910 0.013179
vt 0.500000 0.000000
vt 0.000000 0.500000
vt 0.000000 0.000000
vt 0.000000 0.000000
vt 0.500000 0.500000
vt 0.000000 0.500000
vt 0.500000 0.000000
vt 0.000000 0.500000
vt 0.000000 0.000000
vt 0.500000 0.000000
vt 0.000000 0.500000
vt 0.500000 0.000000
vt 0.000000 0.500000
vt 0.000000 0.000000
vt 0.000000 0.000000
vt 0.500000 0.500000
vt 0.000000 0.500000
vt 0.000000 0.000000
vt 0.500000 0.500000
vt 0.000000 0.500000
vt 0.500000 0.000000
vt 0.000000 0.500000
vt 0.000000 0.000000
vt 0.500000 0.000000
vt 0.000000 0.500000
vt 0.000000 0.000000
vt 0.500000 0.000000
vt 0.000000 0.500000
vt 0.000000 0.000000
vt 0.500000 0.000000
vt 0.000000 0.500000
vt 0.000000 0.000000
vt 0.000000 0.000000
vt 0.500000 0.500000
vt 0.000000 0.000000
vt 0.500000 0.500000
vt 0.000000 0.500000
vt 0.000000 0.500000
vt 0.000000 0.000000
vt 0.500000 0.500000
vt 0.000000 0.500000
vt 0.500000 0.500000
vt 0.500000 0.000000
vt 0.000000 0.500000
vt 0.500000 0.500000
vt 0.000000 0.500000
vt 0.000000 0.000000
vt 0.500000 0.500000
vt 0.500000 0.000000
vt 0.000000 0.500000
vt 0.000000 0.000000
vt 0.000000 0.000000
vt 0.500000 0.500000
vt 0.000000 0.500000
vt 0.500000 0.000000
vt 0.000000 0.500000
vt 0.000000 0.000000
vt 0.000000 0.000000
vt 0.500000 0.500000
vt 0.000000 0.500000
vt 0.000000 0.000000
vt 0.000000 0.000000
vt 0.500000 0.500000
vt 0.000000 0.500000
vt 0.500000 0.000000
vt 0.000000 0.500000
vt 0.000000 0.000000
vt 0.000000 0.000000
vt 0.500000 0.500000
vt 0.000000 0.500000
vt 0.500000 0.000000
vt 0.000000 0.500000
vt 0.000000 0.000000
vt 0.000000 0.000000
vt 0.500000 0.500000
vt 0.000000 0.500000
vt 0.500000 0.000000
vt 0.000000 0.000000
vt 0.500000 0.000000
vt 0.000000 0.500000
vt 0.000000 0.000000
vt 0.000000 0.000000
vt 0.500000 0.500000
vt 0.000000 0.500000
vt 0.000000 0.000000
vt 0.500000 0.500000
vt 0.000000 0.500000
vt 0.000000 0.000000
vt 0.500000 0.500000
vt 0.500000 0.000000
vt 0.000000 0.000000
vt 0.000000 0.000000
vt 0.500000 0.500000
vt 0.000000 0.000000
vt 0.500000 0.500000
vt 0.000000 0.500000
vt 0.500000 0.500000
vt 0.000000 0.500000
vt 0.500000 0.500000
vt 0.000000 0.500000
vt 0.500000 0.000000
vt 0.000000 0.500000
vt 0.000000 0.000000
vt 0.000000 0.000000
vt 0.500000 0.500000
vt 0.000000 0.500000
vt 0.500000 0.000000
vt 0.000000 0.000000
vt 0.500000 0.000000
vt 0.000000 0.500000
vt 0.000000 0.000000
vt 0.500000 0.500000
vt 0.000000 0.500000
vt 0.000000 0.500000
vt 0.000000 0.500000
vt 0.500000 0.500000
vt 0.500000 0.000000
vt 0.000000 0.000000
vt 0.500000 0.500000
vt 0.500000 0.000000
vt 0.000000 0.500000
vt 0.000000 0.500000
vt 0.500000 0.000000
vt 0.000000 0.000000
vt 0.000000 0.500000
vt 0.500000 0.000000
vt 0.000000 0.000000
vt 0.000000 0.000000
vt 0.500000 0.500000
vt 0.500000 0.000000
vt 0.000000 0.500000
vt 0.000000 0.500000
vt 0.500000 0.000000
vt 0.000000 0.000000
vt 0.500000 0.000000
vt 0.000000 0.500000
vt 0.500000 0.000000
vt 0.000000 0.000000
vt 0.000000 0.000000
vt 0.500000 0.000000
vt 0.000000 0.000000
vt 0.500000 0.000000
vt 0.000000 0.500000
vt 0.000000 0.000000
vt 0.500000 0.000000
vt 0.500000 0.000000
vt 0.000000 0.500000
vt 0.500000 0.000000
vt 0.500000 0.000000
vt 0.000000 0.000000
vt 0.500000 0.500000
vt 0.000000 0.000000
vt 0.500000 0.500000
vt 0.500000 0.000000
vt 0.000000 0.500000
vt 0.500000 0.000000
vt 0.000000 0.000000
vt 0.000000 0.000000
vt 0.500000 0.500000
vt 0.500000 0.000000
vt 0.000000 0.500000
vt 0.000000 0.000000
vt 0.500000 0.500000
vt 0.500000 0.000000
vt 0.000000 0.500000
vt 0.500000 0.000000
vt 0.000000 0.000000
vt 0.500000 0.500000
vt 0.500000 0.000000
vt 0.000000 0.500000
vt 0.000000 0.000000
vt 0.000000 0.000000
vt 0.500000 0.500000
vt 0.500000 0.000000
vt 0.000000 0.500000
vt 0.500000 0.000000
vt 0.000000 0.000000
vt 0.000000 0.500000
vt 0.500000 0.000000
vt 0.000000 0.000000
vt 0.000000 0.000000
vt 0.500000 0.500000
vt 0.500000 0.000000
vt 0.000000 0.000000
vt 0.500000 0.500000
vt 0.500000 0.000000
vt 0.000000 0.000000
vt 0.500000 0.500000
vt 0.500000 0.000000
vt 0.500000 0.000000
vt 0.000000 0.000000
vt 0.000000 0.000000
vt 0.500000 0.500000
vt 0.500000 0.000000
vt 0.000000 0.000000
vt 0.500000 0.500000
vt 0.500000 0.000000
vt 0.500000 0.500000
vt 0.500000 0.500000
vt 0.000000 0.500000
vt 0.500000 0.000000
vt 0.000000 0.000000
vt 0.000000 0.000000
vt 0.500000 0.500000
vt 0.500000 0.000000
vt 0.000000 0.500000
vt 0.000000 0.000000
vt 0.000000 0.500000
vt 0.500000 0.000000
vt 0.000000 0.000000
vt 0.500000 0.500000
vt 0.500000 0.000000
vt 0.000000 0.500000
vt 0.500000 0.500000
vt 0.500000 0.500000
vt 0.500000 0.500000
vt 0.500000 0.500000
vt 0.500000 0.000000
vt 0.500000 0.500000
vt 0.500000 0.500000
vt 0.500000 0.000000
vt 0.500000 0.000000
vt 0.500000 0.000000
vt 0.500000 0.500000
vt 0.500000 0.500000
vt 0.500000 0.000000
vt 0.500000 0.500000
vt 0.500000 0.000000
vt 0.500000 0.500000
vt 0.500000 0.000000
vt 0.500000 0.000000
vt 0.500000 0.000000
vt 0.500000 0.000000
vt 0.500000 0.000000
vt 0.500000 0.500000
vt 0.500000 0.000000
vt 0.500000 0.500000
vt 0.500000 0.000000
vt 0.500000 0.500000
vt 0.500000 0.500000
vt 0.000000 0.500000
vt 0.500000 0.500000
vt 0.500000 0.500000
vt 0.500000 0.500000
vt 0.000000 0.500000
vt 0.500000 0.500000
vt 0.000000 0.500000
vt 0.000000 0.500000
vt 0.500000 0.500000
vt 0.000000 0.500000
vt 0.500000 0.500000
vt 0.000000 0.500000
vt 0.500000 0.500000
vt 0.500000 0.500000
vt 0.000000 0.500000
vt 0.000000 0.500000
vt 0.000000 0.500000
vt 0.000000 0.500000
vt 0.500000 0.500000
vt 0.000000 0.500000
vt 0.500000 0.500000
vt 0.000000 0.500000
vt 0.500000 0.500000
vt 0.000000 0.500000
vn 0.0823 0.9965 0.0121
vn 0.0000 1.0000 -0.0074
vn 0.0000 0.9996 0.0287
vn 0.6405 0.7679 0.0068
vn 0.7832 0.6189 0.0596
vn 0.7984 0.5986 0.0659
vn -0.0230 -0.9997 0.0000
vn 0.0000 -0.9942 0.1076
vn 0.0000 -1.0000 0.0000
vn 0.0000 -0.2406 -0.9706
vn 0.0716 -0.5287 -0.8458
vn 0.0000 -0.4670 -0.8842
vn 0.6200 0.7846 0.0000
vn 0.4132 -0.2377 0.8791
vn 0.9995 -0.0000 -0.0306
vn 0.0000 0.0000 -1.0000
vn 0.0322 -0.2882 -0.9570
vn 0.9903 0.0000 -0.1393
vn -0.0000 0.8651 0.5017
vn 0.0000 0.9375 0.3481
vn 0.0000 0.9243 0.3817
vn 0.1626 0.1486 0.9754
vn 0.0000 0.3021 0.9533
vn -0.0000 0.1222 0.9925
vn 0.2030 -0.0600 0.9773
vn 0.2616 0.0000 0.9652
vn 0.0000 0.9992 0.0410
vn 0.0000 1.0000 0.0000
vn 0.8290 -0.4769 0.2923
vn 0.0171 -0.9666 0.2558
vn -0.0147 -0.9948 0.1012
vn 0.9526 0.0912 0.2902
vn 0.9842 0.0538 0.1687
vn 0.9944 0.0315 0.1004
vn 0.0064 0.9714 0.2376
vn 0.0000 0.9859 0.1673
vn 0.8668 -0.4986 0.0000
vn 0.8366 0.5478 0.0000
vn 0.1527 -0.5717 -0.8061
vn 0.2299 -0.6844 -0.6919
vn -0.0530 -0.9986 0.0000
vn 0.0000 0.9999 -0.0162
vn 0.0000 -0.9999 -0.0162
vn -0.6177 -0.7816 -0.0869
vn 1.0000 0.0000 0.0000
vn 0.9862 0.0100 0.1653
vn 0.9870 0.0219 0.1591
vn 0.9876 0.0327 0.1536
vn 0.0000 0.0000 1.0000
vn 0.0000 0.9871 0.1599
vn -0.9752 0.0000 -0.2215
vn -0.0823 0.9965 0.0121
vn -0.6405 0.7679 0.0068
vn -0.7832 0.6189 0.0596
vn -0.6200 0.7846 0.0000
vn 0.0230 -0.9997 0.0000
vn -0.0716 -0.5287 -0.8458
vn -0.4132 -0.2377 0.8791
vn -0.9995 -0.0000 -0.0306
vn -0.0322 -0.2882 -0.9570
vn -0.9903 0.0000 -0.1393
vn -0.1626 0.1486 0.9754
vn -0.1580 0.3012 0.9404
vn -0.2030 -0.0600 0.9773
vn -0.8290 -0.4769 0.2923
vn -0.0171 -0.9666 0.2558
vn 0.0000 -0.9828 0.1846
vn -0.9526 0.0912 0.2902
vn -0.9842 0.0538 0.1687
vn -0.9544 0.0910 0.2842
vn -0.0064 0.9714 0.2376
vn -0.8668 -0.4986 0.0000
vn -0.8366 0.5478 0.0000
vn -0.1527 -0.5717 -0.8061
vn 0.0530 -0.9986 0.0000
vn 0.0147 -0.9948 0.1012
vn 0.6177 -0.7816 -0.0869
vn -1.0000 0.0000 0.0000
vn -0.9944 0.0315 0.1004
vn -0.9862 0.0100 0.1653
vn -0.9870 0.0219 0.1591
vn -0.9854 0.0000 0.1704
vn 0.9752 -0.0000 -0.2215
vn 0.0000 -0.9627 -0.2707
vn 0.0000 0.9983 -0.0585
vn 0.1580 0.3012 0.9404
vn 0.9544 0.0910 0.2842
vn 0.9854 0.0000 0.1704
vn -0.7984 0.5986 0.0659
vn -0.2616 0.0000 0.9652
vn -0.2299 -0.6844 -0.6919
vn -0.9876 0.0327 0.1536
s 1
f 4/1/1 61/2/2 57/3/3
f 28/4/4 11/5/5 30/6/6
f 3/7/7 70/8/8 56/9/9
f 63/10/10 3/11/11 56/9/12
f 28/12/4 6/13/13 4/14/13
f 31/15/14 18/16/14 19/17/14
f 7/18/15 40/19/15 41/20/15
f 65/21/16 29/22/17 63/23/10
f 21/24/18 25/25/18 20/26/18
f 2/27/19 59/28/19 66/29/19
f 10/30/19 11/31/19 2/32/19
f 10/33/19 72/34/20 30/6/21
f 8/35/22 64/36/23 62/37/24
f 65/21/9 5/38/9 28/4/9
f 1/39/25 62/40/24 58/41/26
f 4/14/1 59/42/27 11/31/28
f 1/43/29 31/44/29 8/35/29
f 1/39/30 70/45/8 14/46/31
f 12/47/32 31/48/33 30/6/34
f 12/49/35 72/50/20 64/51/36
f 17/52/37 19/53/37 18/54/37
f 31/55/38 16/56/38 29/57/38
f 3/58/11 16/59/39 17/60/40
f 3/7/7 18/54/41 14/61/31
f 60/62/16 21/63/16 20/64/16
f 6/65/16 21/66/16 61/67/16
f 6/68/16 23/69/16 22/70/16
f 60/71/16 23/72/16 5/73/16
f 25/74/16 27/75/16 26/76/16
f 20/77/42 26/76/42 23/78/42
f 22/79/43 24/80/43 21/81/43
f 22/82/44 26/83/44 27/84/44
f 36/85/45 29/86/45 28/87/45
f 13/88/45 30/89/34 31/44/33
f 13/90/45 29/22/45 37/91/45
f 15/92/45 28/93/45 30/6/34
f 39/94/46 34/95/47 35/96/48
f 15/92/49 35/97/49 34/98/49
f 13/88/49 39/99/49 35/96/49
f 36/85/50 34/95/50 38/100/50
f 7/101/16 36/102/16 9/103/16
f 33/104/16 38/105/16 39/106/16
f 9/107/16 38/100/16 32/108/16
f 33/109/16 37/110/16 7/18/16
f 41/111/49 42/112/49 43/113/49
f 33/109/51 42/114/51 32/108/51
f 9/103/49 42/112/49 40/115/49
f 33/104/49 41/116/49 43/113/49
f 61/2/2 47/117/52 57/3/3
f 85/118/53 54/119/54 47/117/55
f 70/8/8 46/120/56 56/9/9
f 46/121/57 63/10/10 56/9/12
f 49/122/55 85/123/53 47/124/55
f 76/125/58 69/126/58 88/127/58
f 50/128/59 97/129/59 52/130/59
f 86/131/60 65/21/16 63/23/10
f 82/132/61 78/133/61 77/134/61
f 59/28/19 45/135/19 66/29/19
f 54/136/19 53/137/19 45/138/19
f 53/139/19 72/34/20 67/140/19
f 51/141/62 64/36/23 55/142/63
f 48/143/9 65/21/9 85/118/9
f 44/144/64 62/40/24 51/145/62
f 47/124/52 59/42/27 57/146/3
f 88/147/65 44/148/65 51/141/65
f 44/144/66 70/45/8 58/149/67
f 55/150/68 88/151/69 51/145/70
f 72/50/20 55/142/71 64/51/36
f 74/152/72 76/153/72 73/154/72
f 73/155/73 88/156/73 86/157/73
f 46/158/57 73/159/74 86/160/60
f 75/161/75 46/120/56 69/162/76
f 60/62/16 78/163/16 61/164/16
f 78/165/16 49/166/16 61/67/16
f 49/167/16 80/168/16 48/169/16
f 80/170/16 60/71/16 48/171/16
f 82/172/16 84/173/16 81/174/16
f 83/175/42 77/176/42 80/177/42
f 81/178/43 79/179/43 78/180/43
f 79/181/77 83/182/77 80/183/77
f 93/184/78 86/185/78 94/186/78
f 68/187/78 87/188/79 71/189/78
f 86/131/78 68/190/78 94/191/78
f 71/192/78 85/193/78 93/194/78
f 96/195/80 91/196/81 95/197/82
f 71/192/49 92/198/49 68/190/49
f 68/187/9 96/199/9 94/186/9
f 93/184/49 91/196/49 71/189/49
f 93/200/16 50/201/16 52/202/16
f 90/203/16 95/204/16 89/205/16
f 95/206/16 52/130/16 89/207/16
f 94/208/16 90/209/16 50/128/16
f 98/210/49 99/211/49 97/212/49
f 99/213/83 90/209/83 89/207/83
f 52/202/84 99/211/84 89/205/84
f 90/203/85 98/214/85 50/201/85
f 4/1/1 6/215/28 61/2/2
f 28/4/4 4/1/13 11/5/5
f 3/7/7 14/216/31 70/8/8
f 63/10/10 29/86/17 3/11/11
f 28/12/4 5/217/13 6/13/13
f 31/15/14 14/218/14 18/16/14
f 7/18/15 9/107/15 40/19/15
f 65/21/16 28/93/16 29/22/17
f 21/24/18 24/219/18 25/25/18
f 2/27/19 11/5/19 59/28/19
f 10/30/19 30/89/21 11/31/19
f 10/33/19 67/140/19 72/34/20
f 8/35/22 12/49/86 64/36/23
f 65/21/9 60/220/9 5/38/9
f 1/39/25 8/221/22 62/40/24
f 4/14/1 57/146/3 59/42/27
f 1/43/29 14/216/29 31/44/29
f 1/39/30 58/149/67 70/45/8
f 12/47/32 8/221/87 31/48/33
f 12/49/35 30/89/21 72/50/20
f 17/52/37 16/222/37 19/53/37
f 31/55/38 19/53/38 16/56/38
f 3/58/11 29/223/17 16/59/39
f 3/7/7 17/224/41 18/54/41
f 60/62/16 61/164/16 21/63/16
f 6/65/16 22/225/16 21/66/16
f 6/68/16 5/226/16 23/69/16
f 60/71/16 20/227/16 23/72/16
f 25/74/16 24/228/16 27/75/16
f 20/77/42 25/229/42 26/76/42
f 22/79/43 27/75/43 24/80/43
f 22/82/44 23/230/44 26/83/44
f 36/85/45 37/231/45 29/86/45
f 13/88/45 15/232/45 30/89/34
f 13/90/45 31/48/33 29/22/45
f 15/92/45 36/233/45 28/93/45
f 39/94/46 38/234/88 34/95/47
f 15/92/49 13/90/49 35/97/49
f 13/88/9 37/231/9 39/99/9
f 36/85/49 15/232/49 34/95/49
f 7/101/16 37/235/16 36/102/16
f 33/104/16 32/236/16 38/105/16
f 9/107/16 36/237/16 38/100/16
f 33/109/16 39/99/16 37/110/16
f 41/111/49 40/238/49 42/112/49
f 33/109/51 43/239/51 42/114/51
f 9/103/84 32/236/84 42/112/84
f 33/104/85 7/101/85 41/116/85
f 61/2/2 49/240/28 47/117/52
f 85/118/53 87/241/89 54/119/54
f 70/8/8 69/242/76 46/120/56
f 46/121/57 86/185/60 63/10/10
f 49/122/55 48/243/55 85/123/53
f 76/125/58 75/244/58 69/126/58
f 50/128/59 98/245/59 97/129/59
f 86/131/60 85/193/16 65/21/16
f 82/132/61 81/246/61 78/133/61
f 59/28/19 54/119/19 45/135/19
f 54/136/19 87/188/21 53/137/19
f 53/139/19 87/241/21 72/34/20
f 51/141/62 62/37/24 64/36/23
f 48/143/9 60/220/9 65/21/9
f 44/144/64 58/41/90 62/40/24
f 47/124/52 54/136/28 59/42/27
f 88/147/65 69/242/65 44/148/65
f 44/144/66 69/247/76 70/45/8
f 55/150/68 87/241/79 88/151/69
f 72/50/20 87/188/21 55/142/71
f 74/152/72 75/161/72 76/153/72
f 73/155/73 76/153/73 88/156/73
f 46/158/57 74/248/91 73/159/74
f 75/161/75 74/249/75 46/120/56
f 60/62/16 77/250/16 78/163/16
f 78/165/16 79/251/16 49/166/16
f 49/167/16 79/252/16 80/168/16
f 80/170/16 77/253/16 60/71/16
f 82/172/16 83/175/16 84/173/16
f 83/175/42 82/254/42 77/176/42
f 81/178/43 84/173/43 79/179/43
f 79/181/77 84/255/77 83/182/77
f 93/184/78 85/256/78 86/185/78
f 68/187/78 88/147/69 87/188/79
f 86/131/78 88/151/69 68/190/78
f 71/192/78 87/241/79 85/193/78
f 96/195/80 92/257/92 91/196/81
f 71/192/49 91/258/49 92/198/49
f 68/187/49 92/257/49 96/199/49
f 93/184/50 95/206/50 91/196/50
f 93/200/16 94/259/16 50/201/16
f 90/203/16 96/260/16 95/204/16
f 95/206/16 93/261/16 52/130/16
f 94/208/16 96/199/16 90/209/16
f 98/210/49 100/262/49 99/211/49
f 99/213/83 100/263/83 90/209/83
f 52/202/49 97/264/49 99/211/49
f 90/203/49 100/262/49 98/214/49
