# Blender v2.79 (sub 0) OBJ File: '28.blend'
# www.blender.org
o Cube.001_Cube.003
v 0.025098 0.085998 -0.394237
v 0.025098 0.100033 -0.394237
v -0.025098 0.085998 -0.394237
v -0.025098 0.100033 -0.394237
v 0.025098 0.085998 -0.295648
v 0.025098 0.100033 -0.295648
v -0.025098 0.085998 -0.295648
v -0.025098 0.100033 -0.295648
v 0.025098 0.100033 -0.344942
v 0.025098 0.085998 -0.344942
v -0.025098 0.100033 -0.344942
v -0.025098 0.085998 -0.344942
vt 0.500000 0.000000
vt 0.000000 0.500000
vt 0.000000 0.000000
vt 0.500000 0.000000
vt 0.000000 0.500000
vt 0.000000 0.000000
vt 0.500000 0.000000
vt 0.000000 0.500000
vt 0.000000 0.000000
vt 0.500000 0.000000
vt 0.000000 0.500000
vt 0.000000 0.000000
vt 0.500000 0.000000
vt 0.000000 0.500000
vt 0.000000 0.000000
vt 0.500000 0.000000
vt 0.000000 0.500000
vt 0.000000 0.000000
vt 0.500000 0.500000
vt 0.500000 0.500000
vt 0.500000 0.500000
vt 0.500000 0.500000
vt 0.500000 0.500000
vt 0.500000 0.500000
vn 1.0000 0.0000 0.0000
vn 0.0000 0.0000 -1.0000
vn 0.0000 0.0000 1.0000
vn -1.0000 0.0000 0.0000
s 1
f 6/1/1 10/2/1 9/3/1
f 2/4/2 3/5/2 4/6/2
f 8/7/3 5/8/3 6/9/3
f 4/10/4 12/11/4 11/12/4
f 9/13/1 1/14/1 2/15/1
f 11/16/4 7/17/4 8/18/4
f 6/1/1 5/19/1 10/2/1
f 2/4/2 1/20/2 3/5/2
f 8/7/3 7/21/3 5/8/3
f 4/10/4 3/22/4 12/11/4
f 9/13/1 10/23/1 1/14/1
f 11/16/4 12/24/4 7/17/4
