# Blender v2.79 (sub 0) OBJ File: '30.blend'
# www.blender.org
o Plane.001
v 0.025609 0.055160 0.437944
v 0.026213 0.040436 0.443715
v 0.025319 0.064990 0.260739
v 0.025615 0.048553 0.261394
v -0.000000 0.044195 0.448768
v -0.000000 0.059273 0.443063
v -0.025609 0.055160 0.437944
v -0.026213 0.040436 0.443715
v -0.025319 0.064990 0.260739
v -0.025615 0.048553 0.261394
v 0.026114 0.041789 0.413328
v 0.026014 0.043142 0.382941
v 0.025914 0.044495 0.352555
v 0.025814 0.045847 0.322168
v 0.025714 0.047200 0.291781
v 0.025367 0.063352 0.290274
v 0.025416 0.061713 0.319808
v 0.025464 0.060075 0.349342
v 0.025512 0.058437 0.378876
v 0.025561 0.056798 0.408410
v -0.026114 0.041789 0.413328
v -0.026014 0.043142 0.382941
v -0.025914 0.044495 0.352555
v -0.025814 0.045847 0.322168
v -0.025714 0.047200 0.291781
v -0.025367 0.063352 0.290274
v -0.025416 0.061713 0.319808
v -0.025464 0.060075 0.349342
v -0.025512 0.058437 0.378876
v -0.025561 0.056798 0.408410
vt 0.000000 0.000000
vt 0.500000 0.500000
vt 0.000000 0.500000
vt 0.500000 0.000000
vt 0.000000 0.500000
vt 0.000000 0.000000
vt 0.000000 0.000000
vt 0.000000 0.500000
vt 0.500000 0.000000
vt 0.000000 0.500000
vt 0.000000 0.000000
vt 0.500000 0.000000
vt 0.000000 0.500000
vt 0.000000 0.000000
vt 0.500000 0.000000
vt 0.000000 0.500000
vt 0.000000 0.000000
vt 0.500000 0.000000
vt 0.000000 0.500000
vt 0.000000 0.000000
vt 0.500000 0.000000
vt 0.000000 0.500000
vt 0.000000 0.000000
vt 0.500000 0.000000
vt 0.000000 0.500000
vt 0.000000 0.000000
vt 0.500000 0.000000
vt 0.000000 0.500000
vt 0.000000 0.000000
vt 0.500000 0.000000
vt 0.000000 0.500000
vt 0.000000 0.000000
vt 0.500000 0.000000
vt 0.000000 0.500000
vt 0.000000 0.000000
vt 0.500000 0.000000
vt 0.000000 0.500000
vt 0.000000 0.000000
vt 0.500000 0.000000
vt 0.000000 0.500000
vt 0.000000 0.000000
vt 0.500000 0.000000
vt 0.500000 0.500000
vt 0.500000 0.000000
vt 0.500000 0.500000
vt 0.500000 0.500000
vt 0.500000 0.500000
vt 0.500000 0.500000
vt 0.500000 0.500000
vt 0.500000 0.500000
vt 0.500000 0.500000
vt 0.500000 0.500000
vt 0.500000 0.500000
vt 0.500000 0.500000
vt 0.500000 0.500000
vn 0.2299 0.3569 0.9054
vn 0.0000 0.3604 0.9328
vn 0.2263 0.3635 0.9037
vn -0.9998 0.0208 -0.0012
vn -0.9998 0.0190 -0.0012
vn -0.9998 0.0219 -0.0016
vn -0.2299 0.3569 0.9054
vn 0.0000 0.3539 0.9353
vn 0.9998 0.0190 -0.0012
vn 0.9998 0.0208 -0.0012
vn 0.9998 0.0219 -0.0016
vn 0.9993 0.0373 -0.0007
vn 0.9992 0.0395 -0.0010
vn 0.9992 0.0404 -0.0015
vn 0.9994 0.0332 -0.0010
vn 0.9994 0.0359 -0.0006
vn 0.9996 0.0293 -0.0012
vn 0.9995 0.0319 -0.0007
vn 0.9997 0.0255 -0.0014
vn 0.9996 0.0280 -0.0009
vn 0.9997 0.0243 -0.0010
vn -0.9992 0.0395 -0.0010
vn -0.9993 0.0373 -0.0007
vn -0.9992 0.0404 -0.0015
vn -0.9994 0.0359 -0.0006
vn -0.9994 0.0332 -0.0010
vn -0.9995 0.0319 -0.0007
vn -0.9996 0.0293 -0.0012
vn -0.9996 0.0280 -0.0009
vn -0.9997 0.0255 -0.0014
vn -0.9997 0.0243 -0.0010
vn -0.9998 0.0180 -0.0006
vn -0.2263 0.3635 0.9037
vn 0.9998 0.0180 -0.0006
s 1
f 1/1/1 5/2/2 2/3/3
f 26/4/4 10/5/5 25/6/6
f 7/7/7 5/2/2 6/8/8
f 4/9/9 16/10/10 15/11/11
f 11/12/12 1/13/13 2/14/14
f 12/15/15 20/16/16 11/17/12
f 13/18/17 19/19/18 12/20/15
f 14/21/19 18/22/20 13/23/17
f 15/24/11 17/25/21 14/26/19
f 7/27/22 21/28/23 8/29/24
f 30/30/25 22/31/26 21/32/23
f 29/33/27 23/34/28 22/35/26
f 28/36/29 24/37/30 23/38/28
f 27/39/31 25/40/6 24/41/30
f 1/1/1 6/42/8 5/2/2
f 26/4/4 9/43/32 10/5/5
f 7/7/7 8/44/33 5/2/2
f 4/9/9 3/45/34 16/10/10
f 11/12/12 20/46/16 1/13/13
f 12/15/15 19/47/18 20/16/16
f 13/18/17 18/48/20 19/19/18
f 14/21/19 17/49/21 18/22/20
f 15/24/11 16/50/10 17/25/21
f 7/27/22 30/51/25 21/28/23
f 30/30/25 29/52/27 22/31/26
f 29/33/27 28/53/29 23/34/28
f 28/36/29 27/54/31 24/37/30
f 27/39/31 26/55/4 25/40/6
