# Blender v2.79 (sub 0) OBJ File: '31.blend'
# www.blender.org
o Cube.001_Cube.002
v 0.000000 0.019179 0.500886
v 0.041125 0.018950 0.500915
v -0.041125 0.018950 0.500915
v 0.000000 0.064050 0.346673
v 0.024698 0.059736 0.346673
v -0.024698 0.059736 0.346673
v 0.024698 0.059736 0.464734
v 0.000000 0.064050 0.464734
v -0.024698 0.059736 0.464734
vt 0.500000 0.000000
vt 0.000000 0.500000
vt 0.000000 0.000000
vt 0.000000 0.000000
vt 0.500000 0.000000
vt 0.500000 0.500000
vt 0.000000 0.000000
vt 0.500000 0.500000
vt 0.000000 0.000000
vt 0.500000 0.500000
vt 0.000000 0.500000
vt 0.500000 0.000000
vt 0.000000 0.500000
vt 0.500000 0.000000
vt 0.000000 0.500000
vt 0.000000 0.000000
vt 0.500000 0.500000
vt 0.500000 0.000000
vn -0.1720 0.9851 0.0000
vn 0.0000 1.0000 0.0000
vn 0.9276 0.3736 0.0000
vn -0.9276 0.3736 0.0000
vn 0.0709 0.6393 0.7657
vn -0.0000 0.6545 0.7561
vn 0.0032 0.6643 0.7474
vn -0.0709 0.6393 0.7657
vn -0.0032 0.6643 0.7474
vn 0.1720 0.9851 0.0000
vn 0.0000 0.6274 0.7787
s 1
f 9/1/1 4/2/2 6/3/1
f 2/4/3 5/5/3 7/6/3
f 3/7/4 9/1/4 6/8/4
f 7/9/5 1/10/6 2/11/7
f 1/12/6 9/13/8 3/7/9
f 4/14/2 7/15/10 5/16/10
f 9/1/1 8/17/2 4/2/2
f 7/9/5 8/18/11 1/10/6
f 1/12/6 8/17/11 9/13/8
f 4/14/2 8/17/2 7/15/10
