# Blender v2.79 (sub 0) OBJ File: '32.blend'
# www.blender.org
o Plane.001
v 0.061608 0.017438 0.350501
v 0.042614 0.018866 0.457549
v 0.041807 0.026527 0.456288
v 0.000000 0.026527 0.456288
v 0.000000 0.018866 0.457549
v -0.061608 0.017438 0.350501
v -0.041807 0.026527 0.456288
v -0.042614 0.018866 0.457549
v 0.048945 0.018390 0.421866
v 0.055277 0.017914 0.386184
v 0.055008 0.020468 0.385763
v 0.048408 0.023498 0.421026
v -0.055277 0.017914 0.386184
v -0.048945 0.018390 0.421866
v -0.048408 0.023498 0.421026
v -0.055008 0.020468 0.385763
vt 0.000000 0.000000
vt 0.500000 0.500000
vt 0.000000 0.500000
vt 0.500000 0.000000
vt 0.000000 0.500000
vt 0.000000 0.000000
vt 0.500000 0.000000
vt 0.000000 0.500000
vt 0.000000 0.000000
vt 0.000000 0.000000
vt 0.500000 0.500000
vt 0.000000 0.500000
vt 0.000000 0.000000
vt 0.500000 0.000000
vt 0.500000 0.500000
vt 0.500000 0.000000
vt 0.000000 0.500000
vt 0.000000 0.000000
vt 0.000000 0.000000
vt 0.500000 0.000000
vt 0.500000 0.500000
vt 0.000000 0.000000
vt 0.500000 0.500000
vt 0.000000 0.500000
vt 0.500000 0.000000
vt 0.500000 0.500000
vt 0.500000 0.500000
vt 0.500000 0.000000
vt 0.500000 0.500000
vt 0.500000 0.000000
vn 0.0000 0.1624 0.9867
vn 0.9764 0.1310 0.1715
vn -0.9764 0.1310 0.1715
s 1
f 5/1/1 3/2/1 4/3/1
f 3/4/2 9/5/2 12/6/2
f 7/7/1 5/8/1 4/9/1
f 14/10/3 7/11/3 15/12/3
f 1/13/2 11/14/2 10/15/2
f 12/16/2 10/17/2 11/18/2
f 6/19/3 13/20/3 16/21/3
f 13/22/3 15/23/3 16/24/3
f 5/1/1 2/25/1 3/2/1
f 3/4/2 2/26/2 9/5/2
f 7/7/1 8/27/1 5/8/1
f 14/10/3 8/28/3 7/11/3
f 12/16/2 9/29/2 10/17/2
f 13/22/3 14/30/3 15/23/3
