# Blender v2.79 (sub 0) OBJ File: '34_0.blend'
# www.blender.org
o Cube.001_Cube.000
v -0.063297 0.037067 0.418220
v 0.063297 0.037067 0.418220
v -0.044322 0.032270 0.466110
v 0.011625 0.058428 0.466110
v -0.011625 0.058428 0.466110
v 0.044322 0.032270 0.466110
v -0.025903 0.088461 0.330827
v 0.025903 0.088461 0.330827
v -0.017622 0.073607 0.418219
v 0.017622 0.073607 0.418219
vt 0.000000 0.000000
vt 0.500000 0.000000
vt 0.500000 0.500000
vt 0.000000 0.000000
vt 0.500000 0.000000
vt 0.500000 0.500000
vt 0.500000 0.000000
vt 0.000000 0.500000
vt 0.000000 0.000000
vt 0.000000 0.000000
vt 0.500000 0.500000
vt 0.000000 0.500000
vt 0.500000 0.000000
vt 0.000000 0.500000
vt 0.000000 0.000000
vt 0.500000 0.000000
vt 0.000000 0.500000
vt 0.000000 0.000000
vt 0.500000 0.500000
vt 0.500000 0.000000
vt 0.500000 0.500000
vn 0.6053 0.7567 0.2471
vn 0.6033 0.7541 0.2594
vn 0.6135 0.7669 0.1885
vn -0.6033 0.7541 0.2594
vn -0.6053 0.7567 0.2471
vn -0.6135 0.7669 0.1885
vn 0.0000 0.9533 0.3021
vn 0.0000 0.9730 0.2308
vn -0.5940 0.7425 0.3097
vn 0.5940 0.7425 0.3097
vn 0.0000 0.9859 0.1676
s 1
f 10/1/1 2/2/2 8/3/3
f 1/4/4 9/5/5 7/6/6
f 4/7/7 9/8/8 5/9/7
f 3/10/9 9/11/5 1/12/4
f 6/13/10 10/14/1 4/15/10
f 10/16/8 7/17/11 9/18/8
f 4/7/7 10/19/8 9/8/8
f 3/10/9 5/20/9 9/11/5
f 6/13/10 2/21/2 10/14/1
f 10/16/8 8/3/11 7/17/11
