# Blender v2.79 (sub 0) OBJ File: '36_0.blend'
# www.blender.org
o Cube.001_Cube.003
v 0.072138 0.000000 0.421206
v -0.067370 0.003057 0.424270
v -0.067370 -0.003057 0.424270
v -0.072138 0.000000 0.421206
v 0.067370 0.003057 0.424270
v 0.067370 -0.003057 0.424270
v -0.011693 0.003057 0.424270
v -0.011693 -0.003057 0.424270
v 0.011693 -0.003057 0.424270
v 0.011693 0.003057 0.424270
vt 0.000000 0.000000
vt 0.500000 0.000000
vt 0.500000 0.500000
vt 0.000000 0.000000
vt 0.500000 0.000000
vt 0.500000 0.500000
vt 0.500000 0.000000
vt 0.000000 0.500000
vt 0.000000 0.000000
vt 0.500000 0.000000
vt 0.000000 0.500000
vt 0.000000 0.500000
vt 0.000000 0.000000
vt 0.500000 0.500000
vt 0.500000 0.500000
vt 0.500000 0.500000
vn -0.2287 0.0000 0.9735
vn -0.5405 0.0000 0.8413
vn 0.2287 0.0000 0.9735
vn 0.5405 0.0000 0.8413
vn 0.0000 0.0000 1.0000
s 1
f 3/1/1 2/2/1 4/3/2
f 5/4/3 6/5/3 1/6/4
f 9/7/5 7/8/5 8/9/5
f 8/10/5 2/11/1 3/1/1
f 6/5/3 10/12/5 9/13/5
f 9/7/5 10/14/5 7/8/5
f 8/10/5 7/15/5 2/11/1
f 6/5/3 5/16/3 10/12/5
