# Blender v2.79 (sub 0) OBJ File: '39.blend'
# www.blender.org
o Cylinder.001
v 0.011966 0.120466 -0.178334
v 0.011966 0.129114 -0.178334
v 0.011966 0.129114 -0.286284
v 0.011966 0.120466 -0.286284
v -0.011966 0.120466 -0.178334
v -0.011966 0.129114 -0.178334
v -0.011966 0.129114 -0.286284
v -0.011966 0.120466 -0.286284
v 0.011966 0.129114 -0.259296
v 0.011966 0.129114 -0.232309
v 0.011966 0.129114 -0.205321
v 0.011966 0.120466 -0.205321
v 0.011966 0.120466 -0.232309
v 0.011966 0.120466 -0.259296
vt 0.500000 0.000000
vt 0.000000 0.500000
vt 0.000000 0.000000
vt 0.500000 0.000000
vt 0.000000 0.500000
vt 0.000000 0.000000
vt 0.500000 0.000000
vt 0.000000 0.500000
vt 0.000000 0.000000
vt 0.500000 0.000000
vt 0.000000 0.500000
vt 0.000000 0.000000
vt 0.500000 0.000000
vt 0.000000 0.500000
vt 0.000000 0.000000
vt 0.500000 0.000000
vt 0.000000 0.500000
vt 0.000000 0.000000
vt 0.500000 0.000000
vt 0.000000 0.500000
vt 0.000000 0.000000
vt 0.500000 0.500000
vt 0.500000 0.500000
vt 0.500000 0.500000
vt 0.500000 0.500000
vt 0.500000 0.500000
vt 0.500000 0.500000
vt 0.500000 0.500000
vn 1.0000 0.0000 0.0000
vn -1.0000 0.0000 0.0000
vn 0.0000 0.0000 1.0000
vn 0.0000 0.0000 -1.0000
s 1
f 2/1/1 12/2/1 11/3/1
f 7/4/2 5/5/2 6/6/2
f 6/7/3 1/8/3 2/9/3
f 3/10/4 8/11/4 7/12/4
f 9/13/1 4/14/1 3/15/1
f 10/16/1 14/17/1 9/18/1
f 11/19/1 13/20/1 10/21/1
f 2/1/1 1/22/1 12/2/1
f 7/4/2 8/23/2 5/5/2
f 6/7/3 5/24/3 1/8/3
f 3/10/4 4/25/4 8/11/4
f 9/13/1 14/26/1 4/14/1
f 10/16/1 13/27/1 14/17/1
f 11/19/1 12/28/1 13/20/1
