# Blender v2.79 (sub 0) OBJ File: '41.blend'
# www.blender.org
o Cube.001_Cube.000
v 0.019925 0.108949 -0.015616
v 0.038483 0.108949 -0.036867
v 0.038483 0.116550 -0.036867
v 0.019925 0.116550 -0.015616
v -0.019925 0.116550 -0.015616
v -0.038483 0.116550 -0.036867
v -0.038483 0.108949 -0.036867
v -0.019925 0.108949 -0.015616
v 0.041083 0.108949 -0.148203
v 0.023518 0.108949 -0.169453
v 0.023518 0.116550 -0.169453
v 0.041083 0.116550 -0.148203
v -0.041083 0.116550 -0.148203
v -0.023518 0.116550 -0.169453
v -0.023518 0.108949 -0.169453
v -0.041083 0.108949 -0.148203
v 0.040217 0.108949 -0.111091
v 0.039350 0.108949 -0.073979
v 0.039350 0.116550 -0.073979
v 0.040217 0.116550 -0.111091
v 0.000000 0.108949 -0.015616
v 0.000000 0.116550 -0.015616
v -0.039350 0.108949 -0.073979
v -0.040217 0.108949 -0.111091
v -0.040217 0.116550 -0.111091
v -0.039350 0.116550 -0.073979
v 0.000000 0.108949 -0.169453
v 0.000000 0.116550 -0.169453
vt 0.500000 0.000000
vt 0.000000 0.500000
vt 0.000000 0.000000
vt 0.500000 0.000000
vt 0.000000 0.500000
vt 0.000000 0.000000
vt 0.500000 0.000000
vt 0.000000 0.500000
vt 0.000000 0.000000
vt 0.500000 0.000000
vt 0.000000 0.500000
vt 0.000000 0.000000
vt 0.000000 0.500000
vt 0.000000 0.000000
vt 0.500000 0.000000
vt 0.000000 0.500000
vt 0.000000 0.000000
vt 0.000000 0.500000
vt 0.000000 0.000000
vt 0.500000 0.000000
vt 0.000000 0.500000
vt 0.000000 0.000000
vt 0.500000 0.000000
vt 0.000000 0.000000
vt 0.500000 0.000000
vt 0.000000 0.500000
vt 0.000000 0.000000
vt 0.500000 0.000000
vt 0.000000 0.000000
vt 0.500000 0.000000
vt 0.000000 0.500000
vt 0.500000 0.000000
vt 0.000000 0.500000
vt 0.000000 0.000000
vt 0.500000 0.000000
vt 0.000000 0.500000
vt 0.500000 0.500000
vt 0.500000 0.500000
vt 0.500000 0.500000
vt 0.500000 0.500000
vt 0.500000 0.500000
vt 0.500000 0.500000
vt 0.500000 0.500000
vt 0.500000 0.500000
vt 0.500000 0.500000
vt 0.500000 0.500000
vt 0.500000 0.500000
vt 0.500000 0.500000
vn -0.9448 0.0000 -0.3275
vn -0.9997 0.0000 0.0233
vn 0.0000 0.0000 1.0000
vn 0.0000 0.0000 -1.0000
vn 0.9321 -0.0000 0.3622
vn 0.9997 -0.0000 0.0233
vn 0.7532 0.0000 0.6578
vn -0.9321 0.0000 0.3622
vn -0.7532 0.0000 0.6578
vn 0.7708 0.0000 -0.6371
vn 0.9448 -0.0000 -0.3275
vn -0.7708 0.0000 -0.6371
s 1
f 13/1/1 24/2/2 25/3/2
f 5/4/3 21/5/3 22/6/3
f 11/7/4 27/8/4 28/9/4
f 3/10/5 18/11/6 19/12/6
f 3/10/5 1/13/7 2/14/5
f 7/15/8 5/16/9 6/17/8
f 11/7/10 9/18/11 10/19/10
f 15/20/12 13/21/1 14/22/12
f 20/23/6 9/18/11 12/24/11
f 19/25/6 17/26/6 20/27/6
f 22/28/3 1/13/3 4/29/3
f 26/30/2 7/31/8 6/17/8
f 25/32/2 23/33/2 26/34/2
f 28/35/4 15/36/4 14/22/4
f 13/1/1 16/37/1 24/2/2
f 5/4/3 8/38/3 21/5/3
f 11/7/4 10/39/4 27/8/4
f 3/10/5 2/40/5 18/11/6
f 3/10/5 4/41/7 1/13/7
f 7/15/8 8/38/9 5/16/9
f 11/7/10 12/42/11 9/18/11
f 15/20/12 16/37/1 13/21/1
f 20/23/6 17/43/6 9/18/11
f 19/25/6 18/44/6 17/26/6
f 22/28/3 21/45/3 1/13/3
f 26/30/2 23/46/2 7/31/8
f 25/32/2 24/47/2 23/33/2
f 28/35/4 27/48/4 15/36/4
