# Blender v2.79 (sub 0) OBJ File: '42.blend'
# www.blender.org
o Cube.001_Cube.004
v 0.039167 0.029893 0.513872
v 0.031019 0.062339 0.506480
v 0.043670 0.087932 0.446497
v 0.050684 0.111349 0.395042
v 0.055064 0.045105 0.450752
v 0.000000 0.062339 0.506480
v 0.000000 0.087932 0.446497
v 0.000000 0.110111 0.394514
v 0.000000 0.029636 0.512474
v 0.064918 0.059228 0.393340
v -0.039167 0.029893 0.513872
v -0.031019 0.062339 0.506480
v -0.043670 0.087932 0.446497
v -0.050684 0.111349 0.395042
v -0.055064 0.045105 0.450752
v -0.064918 0.059228 0.393340
vt 0.500000 0.000000
vt 0.000000 0.500000
vt 0.000000 0.000000
vt 0.500000 0.000000
vt 0.000000 0.500000
vt 0.000000 0.000000
vt 0.000000 0.000000
vt 0.500000 0.500000
vt 0.000000 0.500000
vt 0.000000 0.000000
vt 0.500000 0.500000
vt 0.000000 0.500000
vt 0.000000 0.500000
vt 0.000000 0.000000
vt 0.500000 0.000000
vt 0.000000 0.500000
vt 0.000000 0.000000
vt 0.500000 0.000000
vt 0.000000 0.500000
vt 0.000000 0.000000
vt 0.500000 0.500000
vt 0.000000 0.500000
vt 0.000000 0.000000
vt 0.500000 0.500000
vt 0.000000 0.500000
vt 0.500000 0.000000
vt 0.500000 0.500000
vt 0.500000 0.500000
vt 0.500000 0.000000
vt 0.500000 0.000000
vt 0.500000 0.500000
vt 0.500000 0.500000
vt 0.500000 0.000000
vt 0.500000 0.000000
vt 0.500000 0.500000
vn -0.0199 0.1984 0.9799
vn 0.0000 0.1976 0.9803
vn -0.0363 0.2133 0.9763
vn -0.0067 0.9177 0.3972
vn 0.0000 0.9150 0.4034
vn 0.0000 0.9198 0.3924
vn 0.9084 0.2884 0.3027
vn 0.9212 0.2765 0.2736
vn 0.9281 0.2656 0.2608
vn 0.9370 0.2582 0.2352
vn 0.9382 0.2484 0.2409
vn 0.0199 0.1984 0.9799
vn 0.0363 0.2133 0.9763
vn 0.0067 0.9177 0.3972
vn -0.9084 0.2884 0.3027
vn -0.9212 0.2765 0.2736
vn -0.9069 0.2960 0.2998
vn -0.9281 0.2656 0.2608
vn -0.9370 0.2582 0.2352
vn 0.0000 0.1803 0.9836
vn -0.0265 0.9112 0.4111
vn 0.9069 0.2960 0.2998
vn 0.0265 0.9112 0.4111
vn -0.9382 0.2484 0.2409
s 1
f 2/1/1 9/2/2 1/3/3
f 3/4/4 8/5/5 7/6/6
f 2/7/7 5/8/8 3/9/9
f 3/10/9 10/11/10 4/12/11
f 2/1/6 7/13/6 6/14/6
f 9/15/2 12/16/12 11/17/13
f 8/18/5 13/19/14 7/6/6
f 12/20/15 15/21/16 11/22/17
f 13/23/18 16/24/19 15/25/16
f 7/26/6 12/16/6 6/14/6
f 2/1/1 6/27/20 9/2/2
f 3/4/4 4/28/21 8/5/5
f 2/7/7 1/29/22 5/8/8
f 3/10/9 5/30/8 10/11/10
f 2/1/6 3/31/4 7/13/6
f 9/15/2 6/27/20 12/16/12
f 8/18/5 14/32/23 13/19/14
f 12/20/15 13/33/18 15/21/16
f 13/23/18 14/34/24 16/24/19
f 7/26/6 13/35/14 12/16/6
