# Blender v2.79 (sub 0) OBJ File: '45.blend'
# www.blender.org
o Cylinder.001
v 0.058643 -0.033858 0.390079
v -0.000000 -0.067716 0.390079
v -0.058643 0.033858 0.390079
v -0.058643 -0.033858 0.390079
v 0.058643 0.033858 0.390079
v -0.000000 0.067716 0.390079
v 0.030942 0.017864 0.499108
v -0.000000 0.035728 0.499108
v -0.000000 -0.035728 0.499108
v 0.030942 -0.017864 0.499108
v -0.030942 0.017864 0.499108
v -0.030942 -0.017864 0.499108
vt 0.500000 0.000000
vt 0.000000 0.500000
vt 0.000000 0.000000
vt 0.500000 0.000000
vt 0.000000 0.500000
vt 0.000000 0.000000
vt 0.500000 0.000000
vt 0.000000 0.500000
vt 0.000000 0.000000
vt 0.500000 0.000000
vt 0.000000 0.500000
vt 0.500000 0.000000
vt 0.000000 0.500000
vt 0.000000 0.000000
vt 0.500000 0.000000
vt 0.000000 0.500000
vt 0.000000 0.000000
vt 0.466506 0.125000
vt 0.250000 0.000000
vt 0.033494 0.375000
vt 0.500000 0.500000
vt 0.500000 0.500000
vt 0.500000 0.500000
vt 0.500000 0.500000
vt 0.500000 0.500000
vt 0.250000 0.500000
vt 0.466506 0.375000
vt 0.033494 0.125000
vn 0.4846 0.8394 0.2463
vn 0.4846 -0.8394 0.2463
vn 0.9692 -0.0000 0.2463
vn -0.4846 0.8394 0.2463
vn -0.4846 -0.8394 0.2463
vn -0.9692 -0.0000 0.2463
vn -0.0000 -0.0000 1.0000
s 1
f 7/1/1 6/2/1 8/3/1
f 9/4/2 1/5/2 10/6/2
f 10/7/3 5/8/3 7/9/3
f 6/10/4 11/11/4 8/3/4
f 4/12/5 9/13/5 12/14/5
f 3/15/6 12/16/6 11/17/6
f 9/18/7 10/19/7 8/20/7
f 7/1/1 5/21/1 6/2/1
f 9/4/2 2/22/2 1/5/2
f 10/7/3 1/23/3 5/8/3
f 6/10/4 3/24/4 11/11/4
f 4/12/5 2/22/5 9/13/5
f 3/15/6 4/25/6 12/16/6
f 8/20/7 11/26/7 12/27/7
f 12/27/7 9/18/7 8/20/7
f 10/19/7 7/28/7 8/20/7
