# Blender v2.79 (sub 0) OBJ File: '48.blend'
# www.blender.org
o Cube.001_Cube.000
v 0.551436 -0.034364 -0.138010
v 0.592074 -0.034364 -0.138010
v 0.551436 0.032853 -0.103782
v 0.592074 0.032853 -0.103782
v 0.551436 -0.000136 -0.103782
v 0.592074 -0.000136 -0.103782
v 0.592074 -0.000136 -0.087328
v 0.551436 -0.000136 -0.087328
v 0.551436 -0.034364 -0.121556
v 0.592074 -0.034364 -0.121556
v 0.551436 0.032853 -0.087328
v 0.592074 0.032853 -0.087328
v 0.586872 -0.003282 -0.080799
v 0.556637 -0.003282 -0.080799
v 0.556637 -0.031684 -0.109200
v 0.586872 -0.031684 -0.109200
v 0.556637 0.025923 -0.080799
v 0.586872 0.025923 -0.080799
vt 0.500000 0.000000
vt 0.000000 0.500000
vt 0.000000 0.000000
vt 0.500000 0.000000
vt 0.000000 0.500000
vt 0.000000 0.000000
vt 0.500000 0.000000
vt 0.000000 0.500000
vt 0.000000 0.000000
vt 0.500000 0.000000
vt 0.000000 0.500000
vt 0.000000 0.000000
vt 0.500000 0.000000
vt 0.000000 0.500000
vt 0.000000 0.000000
vt 0.500000 0.000000
vt 0.000000 0.500000
vt 0.000000 0.000000
vt 0.500000 0.000000
vt 0.000000 0.500000
vt 0.000000 0.000000
vt 0.000000 0.000000
vt 0.500000 0.500000
vt 0.000000 0.500000
vt 0.500000 0.000000
vt 0.000000 0.500000
vt 0.000000 0.000000
vt 0.500000 0.000000
vt 0.000000 0.000000
vt 0.500000 0.000000
vt 0.000000 0.500000
vt 0.000000 0.000000
vt 0.000000 0.000000
vt 0.500000 0.500000
vt 0.000000 0.500000
vt 0.000000 0.000000
vt 0.500000 0.500000
vt 0.000000 0.000000
vt 0.500000 0.500000
vt 0.000000 0.500000
vt 0.500000 0.500000
vt 0.500000 0.500000
vt 0.500000 0.500000
vt 0.500000 0.500000
vt 0.500000 0.500000
vt 0.500000 0.500000
vt 0.500000 0.500000
vt 0.500000 0.000000
vt 0.500000 0.500000
vt 0.500000 0.000000
vt 0.500000 0.000000
vt 0.500000 0.000000
vn 0.0000 -1.0000 0.0000
vn 0.0000 -0.9958 0.0915
vn 1.0000 0.0000 0.0000
vn 0.9279 -0.1372 0.3466
vn 0.0000 0.6857 0.7279
vn 0.0000 0.4189 0.9080
vn 0.7960 -0.4280 0.4280
vn 0.9901 -0.0994 0.0994
vn 0.0000 1.0000 0.0000
vn -1.0000 0.0000 0.0000
vn -0.9719 0.0000 0.2355
vn -0.9901 -0.0994 0.0994
vn -0.9280 -0.1372 0.3465
vn 0.0000 -0.8929 0.4503
vn 0.0000 -0.7071 0.7071
vn 0.0000 0.0000 1.0000
vn -0.7822 0.0000 0.6231
vn -0.7961 -0.4279 0.4279
vn -0.8121 -0.2279 0.5371
vn 0.7821 0.0000 0.6232
vn 0.8121 -0.2280 0.5372
vn 0.9719 0.0000 0.2355
s 1
f 2/1/1 9/2/2 1/3/1
f 4/4/3 7/5/4 6/6/3
f 11/7/5 18/8/6 12/9/5
f 7/10/4 16/11/7 10/12/8
f 6/13/3 10/14/8 2/15/3
f 3/16/9 12/17/9 4/18/9
f 5/19/10 11/20/11 3/21/10
f 5/22/10 9/23/12 8/24/13
f 15/25/14 13/26/15 14/27/15
f 14/28/16 18/8/6 17/29/6
f 8/30/13 17/31/17 11/32/11
f 8/33/13 15/34/18 14/35/19
f 7/36/4 18/37/20 13/26/21
f 9/38/2 16/39/14 15/40/14
f 2/1/1 10/41/2 9/2/2
f 4/4/3 12/42/22 7/5/4
f 11/7/5 17/43/6 18/8/6
f 7/10/4 13/44/21 16/11/7
f 6/13/3 7/45/4 10/14/8
f 3/16/9 11/46/9 12/17/9
f 5/19/10 8/47/13 11/20/11
f 5/22/10 1/48/10 9/23/12
f 15/25/14 16/39/14 13/26/15
f 14/28/16 13/44/16 18/8/6
f 8/30/13 14/49/19 17/31/17
f 8/33/13 9/50/12 15/34/18
f 7/36/4 12/51/22 18/37/20
f 9/38/2 10/52/2 16/39/14
