# Blender v2.79 (sub 0) OBJ File: '49_0.blend'
# www.blender.org
o Cube.001_Cube.005
v 0.013663 0.049958 -0.407050
v 0.013663 0.058161 -0.407050
v 0.013663 0.058161 -0.368018
v 0.013663 0.049958 -0.368018
v 0.013663 0.058161 -0.394039
v 0.013663 0.058161 -0.381029
v 0.013663 0.049958 -0.381029
v 0.013663 0.049958 -0.394039
v 0.000000 0.049958 -0.407050
v 0.000000 0.058161 -0.407050
v 0.000000 0.049958 -0.368018
v 0.000000 0.058161 -0.368018
v -0.013663 0.049958 -0.407050
v -0.013663 0.058161 -0.407050
v -0.013663 0.058161 -0.368018
v -0.013663 0.049958 -0.368018
v -0.013663 0.058161 -0.394039
v -0.013663 0.058161 -0.381029
v -0.013663 0.049958 -0.381029
v -0.013663 0.049958 -0.394039
vt 0.500000 0.000000
vt 0.000000 0.500000
vt 0.000000 0.000000
vt 0.500000 0.000000
vt 0.000000 0.500000
vt 0.000000 0.000000
vt 0.500000 0.000000
vt 0.000000 0.500000
vt 0.000000 0.000000
vt 0.500000 0.000000
vt 0.000000 0.500000
vt 0.000000 0.000000
vt 0.500000 0.000000
vt 0.000000 0.500000
vt 0.000000 0.000000
vt 0.000000 0.500000
vt 0.500000 0.000000
vt 0.000000 0.000000
vt 0.500000 0.000000
vt 0.000000 0.500000
vt 0.000000 0.000000
vt 0.000000 0.500000
vt 0.500000 0.000000
vt 0.000000 0.000000
vt 0.000000 0.500000
vt 0.500000 0.000000
vt 0.000000 0.000000
vt 0.500000 0.500000
vt 0.500000 0.500000
vt 0.500000 0.500000
vt 0.500000 0.500000
vt 0.500000 0.500000
vt 0.500000 0.500000
vt 0.500000 0.500000
vt 0.500000 0.500000
vt 0.500000 0.500000
vn 1.0000 0.0000 0.0000
vn 0.0000 0.0000 -1.0000
vn 0.0000 0.0000 1.0000
vn -1.0000 0.0000 0.0000
s off
f 3/1/1 7/2/1 6/3/1
f 2/4/2 9/5/2 10/6/2
f 12/7/3 4/8/3 3/9/3
f 5/10/1 1/11/1 2/12/1
f 6/13/1 8/14/1 5/15/1
f 19/16/4 15/17/4 18/18/4
f 9/5/2 14/19/2 10/6/2
f 16/20/3 12/7/3 15/21/3
f 13/22/4 17/23/4 14/24/4
f 20/25/4 18/26/4 17/27/4
f 3/1/1 4/28/1 7/2/1
f 2/4/2 1/29/2 9/5/2
f 12/7/3 11/30/3 4/8/3
f 5/10/1 8/31/1 1/11/1
f 6/13/1 7/32/1 8/14/1
f 19/16/4 16/33/4 15/17/4
f 9/5/2 13/34/2 14/19/2
f 16/20/3 11/30/3 12/7/3
f 13/22/4 20/35/4 17/23/4
f 20/25/4 19/36/4 18/26/4
