# Blender v2.79 (sub 0) OBJ File: '54.blend'
# www.blender.org
o Cube.001_Cube.002
v -0.045031 0.084201 -0.441593
v -0.045031 0.084201 -0.393133
v 0.045031 0.084201 -0.441593
v 0.045031 0.084201 -0.393133
v 0.045031 0.094242 -0.393133
v 0.000000 0.084201 -0.296213
v -0.045031 0.094242 -0.441593
v -0.045031 0.094242 -0.393133
v 0.045031 0.094242 -0.441593
v 0.000000 0.094242 -0.296213
vt 0.500000 0.000000
vt 0.000000 0.500000
vt 0.000000 0.000000
vt 0.500000 0.000000
vt 0.000000 0.500000
vt 0.000000 0.000000
vt 0.500000 0.000000
vt 0.000000 0.500000
vt 0.000000 0.000000
vt 0.500000 0.000000
vt 0.000000 0.500000
vt 0.000000 0.000000
vt 0.500000 0.000000
vt 0.000000 0.500000
vt 0.000000 0.000000
vt 0.500000 0.500000
vt 0.500000 0.500000
vt 0.500000 0.500000
vt 0.500000 0.500000
vt 0.500000 0.500000
vn -0.9764 0.0000 0.2158
vn -1.0000 0.0000 0.0000
vn 0.9764 0.0000 0.2158
vn 0.9069 0.0000 0.4214
vn -0.9069 0.0000 0.4214
vn 0.0000 0.0000 -1.0000
vn 1.0000 0.0000 0.0000
s 1
f 2/1/1 7/2/2 1/3/2
f 4/4/3 10/5/4 6/6/4
f 6/7/5 8/8/1 2/9/1
f 1/10/6 9/11/6 3/12/6
f 3/13/7 5/14/3 4/15/3
f 2/1/1 8/16/1 7/2/2
f 4/4/3 5/17/3 10/5/4
f 6/7/5 10/18/5 8/8/1
f 1/10/6 7/19/6 9/11/6
f 3/13/7 9/20/7 5/14/3
