# Blender v2.79 (sub 0) OBJ File: '55.blend'
# www.blender.org
o Cube.001_Cube.000
v -0.075181 0.042529 0.489826
v -0.090796 0.020764 0.502759
v 0.090796 0.020764 0.502759
v 0.075181 0.042529 0.489826
v 0.000000 0.042529 0.489826
v 0.119801 0.040721 0.402924
v -0.119801 0.040721 0.402924
v 0.000000 0.020764 0.502759
vt 0.000000 0.000000
vt 0.500000 0.500000
vt 0.000000 0.500000
vt 0.000000 0.000000
vt 0.500000 0.000000
vt 0.500000 0.500000
vt 0.500000 0.000000
vt 0.000000 0.500000
vt 0.000000 0.000000
vt 0.000000 0.000000
vt 0.500000 0.500000
vt 0.500000 0.000000
vt 0.500000 0.500000
vn 0.0000 0.5108 0.8597
vn -0.6648 0.6715 0.3274
vn 0.6648 0.6715 0.3274
s off
f 8/1/1 1/2/1 2/3/1
f 1/4/2 7/5/2 2/6/2
f 4/7/1 8/8/1 3/9/1
f 6/10/3 4/7/3 3/11/3
f 8/1/1 5/12/1 1/2/1
f 4/7/1 5/13/1 8/8/1
