# Blender v2.79 (sub 0) OBJ File: '57.blend'
# www.blender.org
o Cube.001_Cube.003
v -0.004902 0.085750 -0.333771
v -0.004902 0.079448 -0.333771
v -0.008816 0.079448 -0.402109
v -0.008816 0.085750 -0.402109
v -0.006278 0.085750 -0.357793
v -0.006278 0.079448 -0.357793
v 0.008816 0.079448 -0.402109
v 0.008816 0.085750 -0.402109
v 0.006278 0.085750 -0.357793
v 0.006278 0.079448 -0.357793
v 0.004902 0.079448 -0.333771
v 0.004902 0.085750 -0.333771
v 0.007547 0.079448 -0.379951
v 0.007547 0.085750 -0.379951
v -0.007547 0.079448 -0.379951
v -0.007547 0.085750 -0.379951
vt 0.500000 0.000000
vt 0.000000 0.500000
vt 0.000000 0.000000
vt 0.500000 0.000000
vt 0.000000 0.500000
vt 0.000000 0.000000
vt 0.500000 0.000000
vt 0.000000 0.500000
vt 0.000000 0.000000
vt 0.500000 0.000000
vt 0.000000 0.500000
vt 0.000000 0.000000
vt 0.500000 0.000000
vt 0.000000 0.500000
vt 0.000000 0.000000
vt 0.500000 0.000000
vt 0.000000 0.500000
vt 0.000000 0.000000
vt 0.500000 0.000000
vt 0.000000 0.500000
vt 0.000000 0.000000
vt 0.500000 0.000000
vt 0.000000 0.500000
vt 0.000000 0.000000
vt 0.500000 0.500000
vt 0.500000 0.500000
vt 0.500000 0.500000
vt 0.500000 0.500000
vt 0.500000 0.500000
vt 0.500000 0.500000
vt 0.500000 0.500000
vt 0.500000 0.500000
vn -0.9984 0.0000 0.0572
vn 0.9984 0.0000 0.0572
vn 0.0000 0.0000 -1.0000
vn 0.0000 0.0000 1.0000
s 1
f 4/1/1 15/2/1 16/3/1
f 5/4/1 2/5/1 1/6/1
f 9/7/2 13/8/2 14/9/2
f 8/10/3 3/11/3 4/12/3
f 1/13/4 11/14/4 12/15/4
f 12/16/2 10/17/2 9/18/2
f 14/19/2 7/20/2 8/21/2
f 16/22/1 6/23/1 5/24/1
f 4/1/1 3/25/1 15/2/1
f 5/4/1 6/26/1 2/5/1
f 9/7/2 10/27/2 13/8/2
f 8/10/3 7/28/3 3/11/3
f 1/13/4 2/29/4 11/14/4
f 12/16/2 11/30/2 10/17/2
f 14/19/2 13/31/2 7/20/2
f 16/22/1 15/32/1 6/23/1
