# Blender v2.79 (sub 0) OBJ File: '58.blend'
# www.blender.org
o Cylinder.001_Cylinder.002
v 0.157355 0.000000 0.342589
v 0.145377 0.011656 0.402806
v 0.145377 -0.011656 0.402806
v 0.111266 -0.011656 0.453856
v 0.111266 0.011656 0.453856
v 0.060217 -0.011656 0.487966
v 0.060217 0.011656 0.487966
v -0.157355 0.000000 0.342589
v -0.145377 0.011656 0.402806
v -0.145377 -0.011656 0.402806
v -0.111266 -0.011656 0.453856
v -0.111266 0.011656 0.453856
v -0.060217 -0.011656 0.487966
v -0.060217 0.011656 0.487966
v 0.000000 -0.011656 0.499944
v 0.000000 0.011656 0.499944
vt 0.000000 0.000000
vt 0.500000 0.000000
vt 0.500000 0.500000
vt 0.500000 0.000000
vt 0.000000 0.500000
vt 0.000000 0.000000
vt 0.500000 0.000000
vt 0.000000 0.500000
vt 0.000000 0.000000
vt 0.500000 0.000000
vt 0.000000 0.500000
vt 0.000000 0.000000
vt 0.500000 0.000000
vt 0.500000 0.500000
vt 0.500000 0.000000
vt 0.000000 0.500000
vt 0.000000 0.000000
vt 0.500000 0.000000
vt 0.000000 0.500000
vt 0.000000 0.000000
vt 0.500000 0.500000
vt 0.000000 0.500000
vt 0.500000 0.500000
vt 0.500000 0.500000
vt 0.500000 0.500000
vt 0.500000 0.500000
vt 0.500000 0.000000
vn 0.9190 0.0000 0.3943
vn 0.9808 0.0000 0.1951
vn -0.0000 0.0000 1.0000
vn 0.3827 0.0000 0.9239
vn 0.7071 0.0000 0.7071
vn -0.9190 0.0000 0.3943
vn -0.9808 0.0000 0.1951
vn -0.3827 0.0000 0.9239
vn -0.7071 0.0000 0.7071
s 1
f 2/1/1 3/2/1 1/3/2
f 16/4/3 6/5/4 7/6/4
f 7/7/4 4/8/5 5/9/5
f 5/10/5 3/11/1 2/1/1
f 9/12/6 8/13/7 10/14/6
f 13/15/8 16/16/3 14/17/8
f 11/18/9 14/19/8 12/20/9
f 9/12/6 11/21/9 12/22/9
f 16/4/3 15/23/3 6/5/4
f 7/7/4 6/24/4 4/8/5
f 5/10/5 4/25/5 3/11/1
f 13/15/8 15/23/3 16/16/3
f 11/18/9 13/26/8 14/19/8
f 9/12/6 10/27/6 11/21/9
