# Blender v2.79 (sub 0) OBJ File: '61.blend'
# www.blender.org
o Cube.001_Cube.000
v 0.002645 0.082717 0.515420
v 0.036426 0.082717 0.515420
v 0.053188 0.100165 0.483210
v 0.002645 0.100165 0.483210
v -0.039470 0.079814 0.515424
v -0.056237 0.097267 0.483206
v -0.058651 0.046583 0.483206
v -0.041068 0.046260 0.515424
v -0.002645 0.082717 0.515420
v -0.002645 0.100165 0.483210
v -0.053188 0.100165 0.483210
v -0.036426 0.082717 0.515420
v 0.037151 0.046288 0.517745
v 0.035602 0.078812 0.517745
v 0.002645 0.078812 0.517745
v 0.002645 0.046881 0.517745
v -0.037151 0.046288 0.517745
v -0.002645 0.046881 0.517745
v -0.002645 0.078812 0.517745
v -0.035602 0.078812 0.517745
v 0.039470 0.079814 0.515424
v 0.041068 0.046260 0.515424
v 0.058651 0.046583 0.483206
v 0.056237 0.097267 0.483206
vt 0.500000 0.000000
vt 0.000000 0.500000
vt 0.000000 0.000000
vt 0.000000 0.000000
vt 0.500000 0.500000
vt 0.000000 0.500000
vt 0.500000 0.000000
vt 0.000000 0.500000
vt 0.000000 0.000000
vt 0.500000 0.000000
vt 0.000000 0.500000
vt 0.000000 0.000000
vt 0.500000 0.000000
vt 0.000000 0.500000
vt 0.000000 0.000000
vt 0.000000 0.000000
vt 0.500000 0.500000
vt 0.000000 0.500000
vt 0.500000 0.500000
vt 0.500000 0.000000
vt 0.500000 0.500000
vt 0.500000 0.500000
vt 0.500000 0.500000
vt 0.500000 0.000000
vn -0.0000 0.8793 0.4763
vn -0.8769 0.0418 0.4789
vn -0.0000 0.0000 1.0000
vn 0.8769 0.0418 0.4789
s 1
f 2/1/1 4/2/1 1/3/1
f 5/4/2 7/5/2 8/6/2
f 10/7/1 12/8/1 9/9/1
f 14/10/3 16/11/3 13/12/3
f 18/13/3 20/14/3 17/15/3
f 21/16/4 23/17/4 24/18/4
f 2/1/1 3/19/1 4/2/1
f 5/4/2 6/20/2 7/5/2
f 10/7/1 11/21/1 12/8/1
f 14/10/3 15/22/3 16/11/3
f 18/13/3 19/23/3 20/14/3
f 21/16/4 22/24/4 23/17/4
