# Blender v2.79 (sub 0) OBJ File: '67_0.blend'
# www.blender.org
o Cube.001_Cube.002
v 0.028168 0.128062 -0.006417
v 0.028168 0.146300 -0.006417
v 0.028168 0.146300 -0.086474
v 0.028168 0.128062 -0.086474
v -0.028168 0.128062 -0.006417
v -0.028168 0.146300 -0.006417
v -0.028168 0.146300 -0.086474
v -0.028168 0.128062 -0.086474
v 0.000000 0.128062 -0.006417
v 0.000000 0.146300 -0.006417
v 0.028168 0.146300 -0.059789
v 0.028168 0.146300 -0.033103
v 0.028168 0.128062 -0.033103
v 0.028168 0.128062 -0.059789
v -0.028168 0.146300 -0.059789
v -0.028168 0.146300 -0.033103
v -0.028168 0.128062 -0.033103
v -0.028168 0.128062 -0.059789
v 0.000000 0.146300 -0.086474
v 0.000000 0.128062 -0.086474
vt 0.000000 0.000000
vt 0.500000 0.500000
vt 0.000000 0.500000
vt 0.500000 0.000000
vt 0.000000 0.500000
vt 0.000000 0.000000
vt 0.000000 0.000000
vt 0.500000 0.500000
vt 0.000000 0.500000
vt 0.500000 0.000000
vt 0.000000 0.500000
vt 0.000000 0.000000
vt 0.500000 0.000000
vt 0.000000 0.500000
vt 0.000000 0.000000
vt 0.000000 0.000000
vt 0.500000 0.500000
vt 0.000000 0.500000
vt 0.000000 0.000000
vt 0.500000 0.500000
vt 0.000000 0.500000
vt 0.000000 0.000000
vt 0.500000 0.500000
vt 0.000000 0.500000
vt 0.000000 0.000000
vt 0.500000 0.500000
vt 0.000000 0.500000
vt 0.500000 0.000000
vt 0.000000 0.500000
vt 0.000000 0.000000
vt 0.500000 0.000000
vt 0.500000 0.500000
vt 0.500000 0.000000
vt 0.500000 0.500000
vt 0.500000 0.000000
vt 0.500000 0.000000
vt 0.500000 0.000000
vt 0.500000 0.500000
vn 1.0000 -0.0000 0.0000
vn 0.0000 0.0000 -1.0000
vn -1.0000 -0.0000 0.0000
vn 0.0000 0.0000 1.0000
s 1
f 12/1/1 1/2/1 13/3/1
f 8/4/2 19/5/2 20/6/2
f 16/7/3 5/8/3 6/9/3
f 9/10/4 2/11/4 10/12/4
f 5/13/4 10/14/4 6/15/4
f 3/16/1 14/17/1 4/18/1
f 11/19/1 13/20/1 14/21/1
f 7/22/3 18/23/3 15/24/3
f 15/25/3 17/26/3 16/27/3
f 20/28/2 3/29/2 4/30/2
f 12/1/1 2/31/1 1/2/1
f 8/4/2 7/32/2 19/5/2
f 16/7/3 17/33/3 5/8/3
f 9/10/4 1/2/4 2/11/4
f 5/13/4 9/34/4 10/14/4
f 3/16/1 11/35/1 14/17/1
f 11/19/1 12/36/1 13/20/1
f 7/22/3 8/4/3 18/23/3
f 15/25/3 18/37/3 17/26/3
f 20/28/2 19/38/2 3/29/2
