# Blender v2.79 (sub 0) OBJ File: '68.blend'
# www.blender.org
o Cube.001_Cube.002
v 0.020837 0.079642 0.347799
v 0.020837 0.046378 0.406499
v -0.020837 0.046378 0.406499
v -0.020837 0.079642 0.347799
v 0.025757 0.046357 0.406189
v 0.100658 0.046387 0.397385
v 0.025759 0.079458 0.347842
v 0.070488 0.075641 0.348007
v -0.074212 0.075612 0.286918
v -0.109543 0.046849 0.286917
v -0.073035 0.075339 0.344182
v -0.109568 0.046880 0.344450
v -0.070669 0.077000 0.286899
v -0.069522 0.076816 0.344141
v -0.025689 0.082168 0.286900
v -0.025683 0.080453 0.343960
v 0.070669 0.077000 0.286899
v 0.069522 0.076816 0.344141
v 0.025683 0.080453 0.343960
v 0.025689 0.082168 0.286900
v 0.109543 0.046849 0.286917
v 0.074212 0.075612 0.286918
v 0.109568 0.046880 0.344451
v 0.073035 0.075339 0.344182
v -0.020837 0.082379 0.286878
v 0.020837 0.082379 0.286878
v 0.020837 0.080722 0.343930
v -0.020837 0.080722 0.343930
v -0.100658 0.046387 0.397385
v -0.025757 0.046357 0.406189
v -0.070488 0.075641 0.348007
v -0.025759 0.079458 0.347842
v -0.075196 0.073374 0.349076
v -0.109172 0.046850 0.349326
v -0.102523 0.046850 0.393790
v 0.102523 0.046850 0.393790
v 0.109172 0.046850 0.349326
v 0.075196 0.073374 0.349076
vt 0.500000 0.000000
vt 0.000000 0.500000
vt 0.000000 0.000000
vt 0.000000 0.000000
vt 0.500000 0.500000
vt 0.000000 0.500000
vt 0.000000 0.000000
vt 0.500000 0.500000
vt 0.000000 0.500000
vt 0.500000 0.000000
vt 0.000000 0.500000
vt 0.000000 0.000000
vt 0.000000 0.000000
vt 0.500000 0.500000
vt 0.000000 0.500000
vt 0.500000 0.000000
vt 0.000000 0.500000
vt 0.000000 0.000000
vt 0.500000 0.000000
vt 0.000000 0.500000
vt 0.000000 0.000000
vt 0.500000 0.000000
vt 0.000000 0.500000
vt 0.000000 0.000000
vt 0.000000 0.000000
vt 0.500000 0.000000
vt 0.500000 0.500000
vt 0.000000 0.000000
vt 0.500000 0.000000
vt 0.500000 0.500000
vt 0.500000 0.500000
vt 0.500000 0.000000
vt 0.500000 0.000000
vt 0.500000 0.500000
vt 0.500000 0.000000
vt 0.500000 0.500000
vt 0.500000 0.500000
vt 0.500000 0.500000
vn 0.0000 0.8700 0.4930
vn 0.0629 0.8712 0.4869
vn 0.0640 0.8708 0.4875
vn 0.0722 0.8675 0.4922
vn -0.6241 0.7813 0.0067
vn -0.6217 0.7832 0.0091
vn -0.6144 0.7888 0.0164
vn -0.0960 0.9952 0.0195
vn -0.1010 0.9948 0.0157
vn -0.1141 0.9934 0.0055
vn 0.0960 0.9952 0.0195
vn 0.1010 0.9948 0.0157
vn 0.0825 0.9961 0.0299
vn 0.6241 0.7813 0.0067
vn 0.6217 0.7832 0.0091
vn 0.6313 0.7755 -0.0007
vn 0.0000 0.9996 0.0290
vn -0.0629 0.8712 0.4869
vn -0.0640 0.8708 0.4875
vn -0.0564 0.8737 0.4832
vn -0.6124 0.7852 0.0916
vn 0.6124 0.7852 0.0916
vn 0.0564 0.8737 0.4832
vn -0.6313 0.7755 -0.0007
vn -0.0825 0.9961 0.0299
vn 0.1141 0.9934 0.0055
vn 0.6144 0.7888 0.0164
vn -0.0722 0.8675 0.4922
s 1
f 1/1/1 3/2/1 2/3/1
f 5/4/2 8/5/3 7/6/4
f 9/7/5 12/8/6 11/9/7
f 14/10/8 15/11/9 13/12/10
f 18/13/11 20/14/12 19/15/13
f 22/16/14 23/17/15 21/18/16
f 25/19/17 27/20/17 26/21/17
f 30/22/18 31/23/19 29/24/20
f 33/25/21 34/26/21 35/27/21
f 36/28/22 37/29/22 38/30/22
f 1/1/1 4/31/1 3/2/1
f 5/4/2 6/32/23 8/5/3
f 9/7/5 10/33/24 12/8/6
f 14/10/8 16/34/25 15/11/9
f 18/13/11 17/35/26 20/14/12
f 22/16/14 24/36/27 23/17/15
f 25/19/17 28/37/17 27/20/17
f 30/22/18 32/38/28 31/23/19
