# Blender v2.79 (sub 0) OBJ File: '72.blend'
# www.blender.org
o Plane.001_Plane.002
v 0.044088 -0.032448 0.108685
v 0.045801 -0.046782 0.104325
v -0.044088 -0.032448 0.108685
v -0.045801 -0.046782 0.104325
v 0.048009 -0.028244 0.102955
v 0.050726 -0.050986 0.096038
v -0.048009 -0.028244 0.102955
v -0.050726 -0.050986 0.096038
v -0.024005 -0.028244 0.102955
v 0.000000 -0.028244 0.102955
v 0.024005 -0.028244 0.102955
v -0.025363 -0.050986 0.096038
v 0.000000 -0.050986 0.096038
v 0.025363 -0.050986 0.096038
v -0.022044 -0.032448 0.108685
v 0.000000 -0.032448 0.108685
v 0.022044 -0.032448 0.108685
v -0.022901 -0.046782 0.104325
v 0.000000 -0.046782 0.104325
v 0.022901 -0.046782 0.104325
vt 0.500000 0.000000
vt 0.000000 0.500000
vt 0.000000 0.000000
vt 0.500000 0.000000
vt 0.000000 0.500000
vt 0.000000 0.000000
vt 0.500000 0.000000
vt 0.000000 0.500000
vt 0.000000 0.000000
vt 0.500000 0.000000
vt 0.000000 0.500000
vt 0.000000 0.000000
vt 0.000000 0.000000
vt 0.500000 0.500000
vt 0.000000 0.500000
vt 0.000000 0.000000
vt 0.500000 0.500000
vt 0.000000 0.500000
vt 0.000000 0.000000
vt 0.500000 0.500000
vt 0.000000 0.500000
vt 0.500000 0.000000
vt 0.000000 0.500000
vt 0.000000 0.000000
vt 0.000000 0.000000
vt 0.500000 0.500000
vt 0.000000 0.500000
vt 0.500000 0.500000
vt 0.000000 0.500000
vt 0.500000 0.000000
vt 0.000000 0.500000
vt 0.000000 0.000000
vt 0.500000 0.500000
vt 0.000000 0.500000
vt 0.500000 0.500000
vt 0.000000 0.500000
vt 0.500000 0.000000
vt 0.000000 0.500000
vt 0.500000 0.500000
vt 0.500000 0.500000
vt 0.500000 0.500000
vt 0.500000 0.500000
vt 0.500000 0.000000
vt 0.500000 0.000000
vt 0.500000 0.500000
vt 0.500000 0.000000
vt 0.500000 0.500000
vt 0.500000 0.500000
vn 0.0000 -0.2910 0.9567
vn 0.8441 -0.0612 0.5327
vn 0.0000 0.8063 0.5915
vn 0.0000 -0.8918 0.4524
vn -0.8441 -0.0612 0.5327
s 1
f 3/1/1 18/2/1 15/3/1
f 2/4/2 5/5/2 1/6/2
f 1/7/3 11/8/3 17/9/3
f 4/10/4 12/11/4 18/12/4
f 4/13/5 7/14/5 8/15/5
f 2/16/4 14/17/4 6/18/4
f 20/19/4 13/20/4 14/21/4
f 18/22/4 13/23/4 19/24/4
f 3/25/3 9/26/3 7/27/3
f 15/3/3 10/28/3 9/29/3
f 17/30/3 10/31/3 16/32/3
f 1/6/1 20/33/1 2/34/1
f 17/9/1 19/35/1 20/36/1
f 15/37/1 19/38/1 16/32/1
f 3/1/1 4/39/1 18/2/1
f 2/4/2 6/40/2 5/5/2
f 1/7/3 5/41/3 11/8/3
f 4/10/4 8/42/4 12/11/4
f 4/13/5 3/1/5 7/14/5
f 2/16/4 20/43/4 14/17/4
f 20/19/4 19/44/4 13/20/4
f 18/22/4 12/45/4 13/23/4
f 3/25/3 15/37/3 9/26/3
f 15/3/3 16/46/3 10/28/3
f 17/30/3 11/47/3 10/31/3
f 1/6/1 17/30/1 20/33/1
f 17/9/1 16/46/1 19/35/1
f 15/37/1 18/48/1 19/38/1
