# Blender v2.79 (sub 0) OBJ File: '74.blend'
# www.blender.org
o Cube.001_Cube.002
v 0.031686 0.024209 0.470588
v -0.031686 0.024209 0.470588
v -0.031686 0.015860 0.529412
v -0.031686 0.029515 0.522965
v 0.031686 0.029515 0.522965
v 0.031686 0.015860 0.529412
vt 0.000000 0.000000
vt 0.500000 0.000000
vt 0.500000 0.500000
vt 0.000000 0.000000
vt 0.500000 0.000000
vt 0.500000 0.500000
vt 0.000000 0.500000
vt 0.500000 0.500000
vn -1.0000 0.0000 0.0000
vn 1.0000 0.0000 0.0000
vn 0.0000 0.4269 0.9043
s 1
f 3/1/1 4/2/1 2/3/1
f 5/4/2 6/5/2 1/6/2
f 4/2/3 6/7/3 5/4/3
f 4/2/3 3/8/3 6/7/3
