# Blender v2.79 (sub 0) OBJ File: '75.blend'
# www.blender.org
o Plane.001_Plane.002
v -0.008947 0.083255 -0.087772
v -0.008947 0.076319 -0.138289
v -0.008947 0.076319 -0.087772
v -0.008947 0.076319 -0.155128
v -0.008947 0.076319 -0.070933
v -0.008947 0.083255 -0.070933
v 0.008944 0.076319 -0.070933
v 0.008944 0.083255 -0.070933
v 0.008944 0.083255 -0.171967
v 0.008944 0.076319 -0.171967
v -0.008947 0.083255 -0.171967
v -0.008947 0.076319 -0.171967
v -0.008947 0.076319 -0.104611
v -0.008947 0.076319 -0.121450
v 0.008944 0.083255 -0.155128
v 0.008944 0.083255 -0.138289
v 0.008944 0.083255 -0.121450
v 0.008944 0.083255 -0.104611
v 0.008944 0.083255 -0.087772
v 0.008944 0.076319 -0.087772
v 0.008944 0.076319 -0.104611
v 0.008944 0.076319 -0.121450
v 0.008944 0.076319 -0.138289
v 0.008944 0.076319 -0.155128
v -0.008947 0.083255 -0.104611
v -0.008947 0.083255 -0.121450
v -0.008947 0.083255 -0.138289
v -0.008947 0.083255 -0.155128
vt 0.500000 0.000000
vt 0.000000 0.500000
vt 0.000000 0.000000
vt 0.000000 0.000000
vt 0.500000 0.500000
vt 0.000000 0.500000
vt 0.500000 0.000000
vt 0.000000 0.500000
vt 0.000000 0.000000
vt 0.500000 0.000000
vt 0.000000 0.500000
vt 0.000000 0.000000
vt 0.000000 0.000000
vt 0.500000 0.500000
vt 0.000000 0.500000
vt 0.000000 0.000000
vt 0.500000 0.500000
vt 0.000000 0.500000
vt 0.500000 0.000000
vt 0.000000 0.500000
vt 0.000000 0.000000
vt 0.500000 0.500000
vt 0.000000 0.500000
vt 0.000000 0.000000
vt 0.500000 0.500000
vt 0.000000 0.500000
vt 0.000000 0.000000
vt 0.500000 0.500000
vt 0.000000 0.500000
vt 0.000000 0.000000
vt 0.500000 0.500000
vt 0.000000 0.500000
vt 0.000000 0.000000
vt 0.500000 0.500000
vt 0.000000 0.500000
vt 0.000000 0.000000
vt 0.500000 0.500000
vt 0.000000 0.500000
vt 0.000000 0.000000
vt 0.500000 0.500000
vt 0.000000 0.500000
vt 0.500000 0.500000
vt 0.500000 0.000000
vt 0.500000 0.500000
vt 0.500000 0.500000
vt 0.500000 0.000000
vt 0.500000 0.000000
vt 0.500000 0.000000
vt 0.500000 0.000000
vt 0.500000 0.000000
vt 0.500000 0.000000
vt 0.500000 0.000000
vt 0.500000 0.000000
vt 0.500000 0.000000
vn 0.0000 0.0000 -1.0000
vn -1.0000 0.0000 -0.0000
vn 1.0000 0.0000 -0.0000
vn 0.0000 0.0000 1.0000
s 1
f 9/1/1 12/2/1 11/3/1
f 28/4/2 12/5/2 4/6/2
f 8/7/3 20/8/3 19/9/3
f 1/10/2 5/11/2 6/12/2
f 1/13/2 13/14/2 3/15/2
f 26/16/2 2/17/2 14/18/2
f 5/19/4 8/20/4 6/12/4
f 9/21/3 24/22/3 10/23/3
f 15/24/3 23/25/3 24/26/3
f 16/27/3 22/28/3 23/29/3
f 17/30/3 21/31/3 22/32/3
f 18/33/3 20/34/3 21/35/3
f 25/36/2 14/37/2 13/38/2
f 27/39/2 4/40/2 2/41/2
f 9/1/1 10/42/1 12/2/1
f 28/4/2 11/43/2 12/5/2
f 8/7/3 7/44/3 20/8/3
f 1/10/2 3/45/2 5/11/2
f 1/13/2 25/46/2 13/14/2
f 26/16/2 27/47/2 2/17/2
f 5/19/4 7/44/4 8/20/4
f 9/21/3 15/48/3 24/22/3
f 15/24/3 16/49/3 23/25/3
f 16/27/3 17/50/3 22/28/3
f 17/30/3 18/51/3 21/31/3
f 18/33/3 19/52/3 20/34/3
f 25/36/2 26/53/2 14/37/2
f 27/39/2 28/54/2 4/40/2
