# Blender v2.79 (sub 0) OBJ File: '77_0.blend'
# www.blender.org
o Cube.001_Cube.004
v 0.047602 0.067264 -0.104795
v 0.044878 0.086880 -0.110245
v -0.047602 0.067264 -0.104795
v -0.044878 0.086880 -0.110245
v -0.044878 0.086880 -0.289756
v 0.044878 0.086880 -0.289756
vt 0.000000 0.000000
vt 0.500000 0.000000
vt 0.500000 0.500000
vt 0.500000 0.000000
vt 0.000000 0.500000
vt 0.000000 0.000000
vt 0.000000 0.000000
vt 0.500000 0.000000
vt 0.500000 0.500000
vn -0.9905 0.1376 0.0000
vn 0.0000 0.2676 0.9635
vn 0.9905 0.1376 0.0000
s 1
f 4/1/1 5/2/1 3/3/1
f 4/4/2 1/5/2 2/6/2
f 6/7/3 2/8/3 1/9/3
f 4/4/2 3/3/2 1/5/2
