# Blender v2.79 (sub 0) OBJ File: '78.blend'
# www.blender.org
o Plane.001
v -0.021181 0.091990 0.423972
v -0.028524 0.073793 0.432761
v -0.062357 0.073793 0.245649
v -0.051835 0.091990 0.254438
v 0.021181 0.091990 0.423972
v 0.028524 0.073793 0.432761
v 0.051835 0.091990 0.254438
v 0.062357 0.073793 0.245649
v 0.036982 0.073793 0.385983
v 0.045440 0.073793 0.339205
v 0.053898 0.073793 0.292427
v 0.044172 0.091990 0.296821
v 0.036508 0.091990 0.339205
v 0.028844 0.091990 0.381588
v -0.028844 0.091990 0.381588
v -0.036508 0.091990 0.339205
v -0.044172 0.091990 0.296821
v -0.053898 0.073793 0.292427
v -0.045440 0.073793 0.339205
v -0.036982 0.073793 0.385983
vt 0.500000 0.000000
vt 0.000000 0.500000
vt 0.000000 0.000000
vt 0.500000 0.000000
vt 0.000000 0.500000
vt 0.000000 0.000000
vt 0.000000 0.000000
vt 0.500000 0.500000
vt 0.000000 0.500000
vt 0.000000 0.000000
vt 0.500000 0.500000
vt 0.000000 0.500000
vt 0.500000 0.000000
vt 0.000000 0.500000
vt 0.000000 0.000000
vt 0.500000 0.000000
vt 0.000000 0.500000
vt 0.000000 0.000000
vt 0.000000 0.000000
vt 0.500000 0.500000
vt 0.000000 0.500000
vt 0.500000 0.000000
vt 0.000000 0.500000
vt 0.000000 0.000000
vt 0.500000 0.000000
vt 0.000000 0.500000
vt 0.000000 0.000000
vt 0.000000 0.000000
vt 0.500000 0.500000
vt 0.000000 0.500000
vt 0.500000 0.500000
vt 0.500000 0.500000
vt 0.500000 0.000000
vt 0.500000 0.000000
vt 0.500000 0.500000
vt 0.500000 0.500000
vt 0.500000 0.000000
vt 0.500000 0.500000
vt 0.500000 0.500000
vt 0.500000 0.000000
vn 0.0000 0.4349 -0.9005
vn 0.0000 0.4350 -0.9005
vn 0.0000 0.4350 0.9005
vn 0.0000 0.4349 0.9005
vn 0.8861 0.4349 0.1602
vn -0.8861 0.4349 0.1602
s 1
f 3/1/1 7/2/1 8/3/2
f 6/4/3 1/5/4 2/6/4
f 11/7/5 7/8/5 12/9/5
f 20/10/6 1/11/6 15/12/6
f 9/13/5 5/14/5 6/15/5
f 10/16/5 14/17/5 9/18/5
f 10/19/5 12/20/5 13/21/5
f 18/22/6 4/23/6 3/24/6
f 19/25/6 17/26/6 18/27/6
f 19/28/6 15/29/6 16/30/6
f 3/1/1 4/31/1 7/2/1
f 6/4/3 5/32/3 1/5/4
f 11/7/5 8/33/5 7/8/5
f 20/10/6 2/34/6 1/11/6
f 9/13/5 14/35/5 5/14/5
f 10/16/5 13/36/5 14/17/5
f 10/19/5 11/37/5 12/20/5
f 18/22/6 17/38/6 4/23/6
f 19/25/6 16/39/6 17/26/6
f 19/28/6 20/40/6 15/29/6
