# Blender v2.79 (sub 0) OBJ File: '79_0.blend'
# www.blender.org
o Plane.001_Plane.005
v -0.038289 0.048883 0.412065
v -0.079622 0.037107 0.178483
v 0.079622 0.037107 0.178483
v 0.038289 0.048883 0.412065
v -0.048797 0.025331 0.429295
v 0.048797 0.025331 0.429295
vt 0.000000 0.000000
vt 0.500000 0.000000
vt 0.500000 0.500000
vt 0.000000 0.000000
vt 0.500000 0.000000
vt 0.500000 0.500000
vt 0.000000 0.500000
vt 0.500000 0.500000
vn -0.8670 0.4813 0.1292
vn 0.8670 0.4813 0.1292
vn 0.0000 0.5904 0.8071
s 1
f 5/1/1 1/2/1 2/3/1
f 4/4/2 6/5/2 3/6/2
f 6/5/3 1/7/3 5/1/3
f 6/5/3 4/8/3 1/7/3
