# Blender v2.79 (sub 0) OBJ File: '82.blend'
# www.blender.org
o Plane.001_Plane.002
v -0.049173 0.125728 -0.216677
v 0.049173 0.125728 -0.216677
v -0.053241 0.129797 -0.052601
v -0.060859 0.105427 -0.040250
v 0.053241 0.129797 -0.052601
v 0.060859 0.105427 -0.040250
vt 0.000000 0.000000
vt 0.500000 0.000000
vt 0.500000 0.500000
vt 0.500000 0.000000
vt 0.000000 0.500000
vt 0.000000 0.000000
vt 0.000000 0.000000
vt 0.500000 0.000000
vt 0.500000 0.500000
vn 0.9583 0.2840 -0.0308
vn -0.0000 0.4521 0.8920
vn -0.9583 0.2840 -0.0308
s 1
f 6/1/1 2/2/1 5/3/1
f 6/4/2 3/5/2 4/6/2
f 3/7/3 1/8/3 4/9/3
f 6/4/2 5/3/2 3/5/2
