# Blender v2.79 (sub 0) OBJ File: '83.blend'
# www.blender.org
o Cube.001_Cube.004
v 0.049562 0.051037 0.277442
v 0.060205 0.008464 0.277442
v 0.047826 0.052988 0.276436
v -0.047826 0.052988 0.276436
v -0.049562 0.051037 0.277442
v -0.060205 0.008464 0.277442
v -0.039527 0.003193 0.438425
v 0.039527 0.003193 0.438425
v 0.042466 0.008464 0.415938
v -0.042466 0.008464 0.415938
vt 0.000000 0.000000
vt 0.500000 0.000000
vt 0.500000 0.500000
vt 0.000000 0.000000
vt 0.500000 0.000000
vt 0.500000 0.500000
vt 0.500000 0.000000
vt 0.000000 0.500000
vt 0.000000 0.000000
vt 0.500000 0.500000
vn -0.9627 0.2407 0.1233
vn 0.9627 0.2407 0.1233
vn 0.0000 0.9559 0.2938
s 1
f 6/1/1 10/2/1 5/3/1
f 2/4/2 1/5/2 9/6/2
f 7/7/3 3/8/3 4/9/3
f 7/7/3 8/10/3 3/8/3
