# Blender v2.79 (sub 0) OBJ File: '84.blend'
# www.blender.org
o Cube.001_Cube.004
v 0.017889 0.004719 0.544111
v 0.017889 0.013796 0.544111
v 0.017889 0.013796 0.514519
v 0.017889 0.004719 0.514519
v -0.017889 0.004719 0.544111
v -0.017889 0.013796 0.544111
v -0.017889 0.013796 0.514519
v -0.017889 0.004719 0.514519
vt 0.500000 0.000000
vt 0.000000 0.500000
vt 0.000000 0.000000
vt 0.500000 0.000000
vt 0.000000 0.500000
vt 0.000000 0.000000
vt 0.500000 0.000000
vt 0.000000 0.500000
vt 0.500000 0.500000
vt 0.500000 0.500000
vt 0.500000 0.500000
vn 1.0000 0.0000 0.0000
vn -1.0000 0.0000 0.0000
vn 0.0000 0.0000 1.0000
s 1
f 1/1/1 3/2/1 2/3/1
f 7/4/2 5/5/2 6/6/2
f 6/7/3 1/8/3 2/3/3
f 1/1/1 4/9/1 3/2/1
f 7/4/2 8/10/2 5/5/2
f 6/7/3 5/11/3 1/8/3
