# Blender v2.79 (sub 0) OBJ File: '85.blend'
# www.blender.org
o Cube.001_Cube.007
v 0.058042 0.041818 0.355099
v 0.114397 0.041818 0.355099
v 0.114397 0.011286 0.446694
v 0.058042 0.011286 0.446694
v 0.028177 0.041818 0.355099
v 0.028177 0.011286 0.446694
v -0.058042 0.041818 0.355099
v -0.114397 0.041818 0.355099
v -0.114397 0.011286 0.446694
v -0.058042 0.011286 0.446694
v -0.028177 0.041818 0.355099
v -0.028177 0.011286 0.446694
vt 0.500000 0.000000
vt 0.000000 0.500000
vt 0.000000 0.000000
vt 0.500000 0.000000
vt 0.000000 0.500000
vt 0.000000 0.000000
vt 0.500000 0.000000
vt 0.000000 0.500000
vt 0.000000 0.000000
vt 0.500000 0.500000
vt 0.500000 0.500000
vt 0.500000 0.500000
vn 0.0000 0.9487 0.3162
s 1
f 1/1/1 3/2/1 2/3/1
f 12/4/1 5/5/1 11/6/1
f 9/7/1 7/8/1 8/9/1
f 1/1/1 4/10/1 3/2/1
f 12/4/1 6/11/1 5/5/1
f 9/7/1 10/12/1 7/8/1
