# Blender v2.79 (sub 0) OBJ File: '88.blend'
# www.blender.org
o Cube.001_Cube.004
v 0.052895 0.044079 0.388750
v 0.035303 0.046083 0.521371
v 0.036029 0.037379 0.523010
v 0.052155 0.048395 0.486630
v 0.052895 0.039613 0.486630
v -0.052895 0.044079 0.388750
v -0.035303 0.046083 0.521371
v -0.036029 0.037379 0.523010
v -0.052155 0.048395 0.486630
v -0.052895 0.039613 0.486630
v 0.000000 0.048608 0.521371
v 0.000000 0.039427 0.523010
v 0.052525 0.046237 0.437690
v 0.052895 0.041846 0.437690
v -0.052525 0.046237 0.437690
v -0.052895 0.041846 0.437690
vt 0.500000 0.000000
vt 0.000000 0.500000
vt 0.000000 0.000000
vt 0.000000 0.000000
vt 0.500000 0.000000
vt 0.500000 0.500000
vt 0.500000 0.000000
vt 0.000000 0.000000
vt 0.000000 0.000000
vt 0.500000 0.000000
vt 0.500000 0.500000
vt 0.500000 0.000000
vt 0.000000 0.500000
vt 0.000000 0.000000
vt 0.000000 0.000000
vt 0.500000 0.500000
vt 0.000000 0.500000
vt 0.000000 0.000000
vt 0.000000 0.000000
vt 0.500000 0.500000
vt 0.000000 0.500000
vt 0.500000 0.500000
vt 0.500000 0.500000
vt 0.500000 0.500000
vt 0.500000 0.000000
vt 0.500000 0.000000
vn 0.0000 0.1773 0.9842
vn 0.0109 0.1844 0.9828
vn 0.0000 0.1758 0.9844
vn 0.9965 0.0840 0.0038
vn 0.9690 0.0874 0.2309
vn 0.8934 0.1442 0.4255
vn 0.8927 0.1542 0.4233
vn -0.9965 0.0840 0.0038
vn -0.8934 0.1442 0.4255
vn -0.9690 0.0874 0.2309
vn -0.8927 0.1542 0.4233
vn -0.0109 0.1844 0.9828
vn -0.9700 0.0817 0.2289
vn 0.9700 0.0817 0.2289
vn 0.0106 0.1859 0.9825
vn -0.0106 0.1859 0.9825
s 1
f 12/1/1 2/2/2 11/3/3
f 13/4/4 14/5/4 1/6/4
f 5/7/5 2/2/6 3/8/7
f 15/9/8 6/10/8 16/11/8
f 7/12/9 10/13/10 8/14/11
f 7/15/12 12/16/1 11/17/3
f 9/18/13 16/11/8 10/13/10
f 4/19/14 14/20/4 13/21/4
f 12/1/1 3/22/15 2/2/2
f 5/7/5 4/23/14 2/2/6
f 7/12/9 9/24/13 10/13/10
f 7/15/12 8/25/16 12/16/1
f 9/18/13 15/26/8 16/11/8
f 4/19/14 5/7/5 14/20/4
