# Blender v2.92.0 OBJ File: '8.blend'
# www.blender.org
o Glass_Cube.003
v 0.014341 0.104941 0.440819
v 0.023236 0.071453 0.465308
v 0.000000 0.073159 0.472725
v 0.000000 0.106709 0.440819
v -0.014341 0.104941 0.440819
v -0.023236 0.071453 0.465308
v 0.000000 0.105000 0.449758
v 0.009736 0.103800 0.449758
v 0.000000 0.082222 0.471420
v 0.015775 0.081064 0.466384
v -0.009736 0.103800 0.449758
v -0.015775 0.081064 0.466384
vt 0.500000 0.000000
vt 0.750000 0.500000
vt 0.750000 0.000000
vt 0.750000 0.000000
vt 0.500000 0.500000
vt 0.750000 0.500000
vt 0.000000 0.500000
vt 0.250000 0.000000
vt 0.000000 0.000000
vt 0.500000 0.500000
vt 0.250000 0.500000
vt 0.875000 0.500000
vt 0.750000 0.000000
vt 0.750000 0.500000
vt 0.750000 0.250000
vt 0.500000 0.250000
vt 0.750000 0.500000
vt 0.875000 0.000000
vt 0.750000 0.000000
vt 0.500000 0.000000
vt 0.750000 0.000000
vt 0.250000 0.750000
vt 0.000000 0.875000
vt 0.000000 0.750000
vt 0.500000 0.875000
vt 0.250000 0.875000
vt 0.500000 0.500000
vt 0.500000 0.000000
vt 0.500000 0.000000
vt 0.875000 0.000000
vt 0.750000 0.500000
vt 0.875000 0.500000
vt 0.500000 0.750000
vn -0.1414 -0.6689 -0.7298
vn 0.0000 -0.6511 -0.7590
vn 0.0000 -0.6891 -0.7246
vn 0.1414 -0.6689 -0.7298
vn 0.2806 -0.6140 -0.7377
vn 0.3731 0.7883 0.4892
vn 0.0000 0.4042 0.9147
vn 0.4989 0.4281 0.7536
vn -0.3731 0.7883 0.4892
vn 0.0000 0.8830 0.4694
vn -0.7316 0.5182 0.4430
vn -0.4989 0.4281 0.7536
vn 0.0000 0.9822 0.1878
vn 0.7316 0.5182 0.4430
vn 0.5559 0.3469 0.7555
vn 0.1202 0.9751 0.1864
vn 0.0000 0.1425 0.9898
vn -0.5559 0.3469 0.7555
vn -0.2806 -0.6140 -0.7377
vn -0.1202 0.9751 0.1864
s 1
f 1/1/1 3/2/2 4/3/3
f 5/4/4 3/5/2 6/6/5
f 8/7/6 9/8/7 10/9/8
f 11/10/9 9/8/7 7/11/10
f 5/12/11 12/13/12 11/14/9
f 4/15/13 11/10/9 7/16/10
f 1/17/14 10/18/8 2/19/15
f 4/15/13 8/20/6 1/21/16
f 3/22/17 12/23/12 6/24/18
f 3/22/17 10/25/8 9/26/7
f 1/1/1 2/27/19 3/2/2
f 5/4/4 4/28/3 3/5/2
f 8/7/6 7/11/10 9/8/7
f 11/10/9 12/29/12 9/8/7
f 5/12/11 6/30/18 12/13/12
f 4/15/13 5/31/20 11/10/9
f 1/17/14 8/32/6 10/18/8
f 4/15/13 7/16/10 8/20/6
f 3/22/17 9/26/7 12/23/12
f 3/22/17 2/33/15 10/25/8
