# Blender v2.79 (sub 0) OBJ File: '90.blend'
# www.blender.org
o Cube.001_Cube.000
v 0.108952 -0.026172 0.487590
v 0.106501 -0.032229 0.490618
v 0.087040 -0.084572 0.516790
v 0.086684 -0.090629 0.519819
v 0.106501 -0.029200 0.352228
v 0.086684 -0.087601 0.381428
v -0.108952 -0.026172 0.487590
v -0.106501 -0.032229 0.490618
v -0.087040 -0.084572 0.516790
v -0.086684 -0.090629 0.519819
v -0.106501 -0.029200 0.352228
v -0.086684 -0.087601 0.381428
v 0.114715 0.089281 0.354763
v 0.114715 0.085921 0.360643
v 0.114715 0.087601 0.248202
v -0.114715 0.089281 0.354763
v -0.114715 0.085921 0.360643
v -0.114715 0.087601 0.248202
v 0.114715 0.088021 0.274842
v 0.114715 0.088441 0.301483
v 0.114715 0.088861 0.328123
v 0.114715 0.086341 0.332533
v 0.114715 0.086761 0.304423
v 0.114715 0.087181 0.276312
v -0.114715 0.088021 0.274842
v -0.114715 0.088441 0.301483
v -0.114715 0.088861 0.328123
v -0.114715 0.086341 0.332533
v -0.114715 0.086761 0.304423
v -0.114715 0.087181 0.276312
v 0.107113 -0.028443 0.386068
v 0.107726 -0.027686 0.419909
v 0.108339 -0.026929 0.453749
v 0.106501 -0.031472 0.456021
v 0.106501 -0.030715 0.421423
v 0.106501 -0.029957 0.386825
v 0.086684 -0.089872 0.485221
v 0.086684 -0.089115 0.450623
v 0.086684 -0.088358 0.416026
v 0.086773 -0.086844 0.415268
v 0.086862 -0.086086 0.449109
v 0.086951 -0.085329 0.482949
v -0.107113 -0.028443 0.386068
v -0.107726 -0.027686 0.419909
v -0.108339 -0.026929 0.453749
v -0.106501 -0.031472 0.456021
v -0.106501 -0.030715 0.421423
v -0.106501 -0.029957 0.386825
v -0.086684 -0.089872 0.485221
v -0.086684 -0.089115 0.450623
v -0.086684 -0.088358 0.416026
v -0.086773 -0.086844 0.415268
v -0.086862 -0.086086 0.449109
v -0.086951 -0.085329 0.482949
v 0.072635 -0.026172 0.487590
v 0.036317 -0.026172 0.487590
v -0.000000 -0.026172 0.487590
v -0.036317 -0.026172 0.487590
v -0.072635 -0.026172 0.487590
v -0.071000 -0.032229 0.490618
v -0.035500 -0.032229 0.490618
v 0.000000 -0.032229 0.490618
v 0.035500 -0.032229 0.490618
v 0.071000 -0.032229 0.490618
v -0.058027 -0.084572 0.516790
v -0.029013 -0.084572 0.516790
v 0.000000 -0.084572 0.516790
v 0.029013 -0.084572 0.516790
v 0.058027 -0.084572 0.516790
v 0.057789 -0.090629 0.519819
v 0.028895 -0.090629 0.519819
v -0.000000 -0.090629 0.519819
v -0.028895 -0.090629 0.519819
v -0.057789 -0.090629 0.519819
v 0.076477 0.089281 0.354763
v 0.038238 0.089281 0.354763
v -0.000000 0.089281 0.354763
v -0.038238 0.089281 0.354763
v -0.076477 0.089281 0.354763
v -0.076477 0.085921 0.360643
v -0.038238 0.085921 0.360643
v 0.000000 0.085921 0.360643
v 0.038238 0.085921 0.360643
v 0.076477 0.085921 0.360643
vt 0.500000 0.000000
vt 0.000000 0.500000
vt 0.000000 0.000000
vt 0.000000 0.000000
vt 0.500000 0.500000
vt 0.000000 0.500000
vt 0.000000 0.000000
vt 0.500000 0.500000
vt 0.000000 0.500000
vt 0.000000 0.000000
vt 0.500000 0.500000
vt 0.000000 0.500000
vt 0.000000 0.000000
vt 0.500000 0.000000
vt 0.500000 0.500000
vt 0.000000 0.000000
vt 0.500000 0.500000
vt 0.000000 0.500000
vt 0.000000 0.000000
vt 0.500000 0.500000
vt 0.000000 0.500000
vt 0.500000 0.000000
vt 0.000000 0.500000
vt 0.000000 0.000000
vt 0.500000 0.000000
vt 0.000000 0.500000
vt 0.000000 0.000000
vt 0.000000 0.000000
vt 0.500000 0.000000
vt 0.500000 0.500000
vt 0.500000 0.000000
vt 0.000000 0.500000
vt 0.000000 0.000000
vt 0.500000 0.000000
vt 0.000000 0.500000
vt 0.000000 0.000000
vt 0.500000 0.000000
vt 0.000000 0.500000
vt 0.000000 0.000000
vt 0.000000 0.000000
vt 0.500000 0.000000
vt 0.500000 0.500000
vt 0.500000 0.000000
vt 0.000000 0.500000
vt 0.000000 0.000000
vt 0.500000 0.000000
vt 0.000000 0.500000
vt 0.000000 0.000000
vt 0.000000 0.000000
vt 0.500000 0.000000
vt 0.500000 0.500000
vt 0.500000 0.000000
vt 0.000000 0.500000
vt 0.000000 0.000000
vt 0.500000 0.000000
vt 0.000000 0.500000
vt 0.000000 0.000000
vt 0.000000 0.000000
vt 0.500000 0.000000
vt 0.500000 0.500000
vt 0.000000 0.000000
vt 0.500000 0.500000
vt 0.000000 0.500000
vt 0.000000 0.000000
vt 0.500000 0.500000
vt 0.000000 0.500000
vt 0.000000 0.000000
vt 0.500000 0.000000
vt 0.500000 0.500000
vt 0.000000 0.000000
vt 0.500000 0.500000
vt 0.000000 0.500000
vt 0.000000 0.000000
vt 0.500000 0.500000
vt 0.000000 0.500000
vt 0.000000 0.000000
vt 0.500000 0.500000
vt 0.000000 0.500000
vt 0.500000 0.000000
vt 0.000000 0.500000
vt 0.000000 0.000000
vt 0.500000 0.000000
vt 0.000000 0.500000
vt 0.000000 0.000000
vt 0.500000 0.000000
vt 0.000000 0.500000
vt 0.000000 0.000000
vt 0.500000 0.000000
vt 0.000000 0.500000
vt 0.000000 0.000000
vt 0.000000 0.000000
vt 0.500000 0.500000
vt 0.000000 0.500000
vt 0.000000 0.000000
vt 0.500000 0.500000
vt 0.000000 0.500000
vt 0.000000 0.000000
vt 0.500000 0.500000
vt 0.000000 0.500000
vt 0.000000 0.000000
vt 0.500000 0.500000
vt 0.000000 0.500000
vt 0.000000 0.000000
vt 0.500000 0.500000
vt 0.000000 0.500000
vt 0.500000 0.000000
vt 0.000000 0.500000
vt 0.000000 0.000000
vt 0.500000 0.000000
vt 0.000000 0.500000
vt 0.000000 0.000000
vt 0.500000 0.000000
vt 0.000000 0.500000
vt 0.000000 0.000000
vt 0.000000 0.000000
vt 0.500000 0.500000
vt 0.000000 0.500000
vt 0.000000 0.000000
vt 0.500000 0.500000
vt 0.000000 0.500000
vt 0.000000 0.000000
vt 0.500000 0.500000
vt 0.000000 0.500000
vt 0.000000 0.000000
vt 0.500000 0.500000
vt 0.000000 0.500000
vt 0.500000 0.500000
vt 0.500000 0.000000
vt 0.500000 0.000000
vt 0.500000 0.000000
vt 0.500000 0.000000
vt 0.500000 0.000000
vt 0.500000 0.500000
vt 0.500000 0.500000
vt 0.500000 0.500000
vt 0.500000 0.500000
vt 0.500000 0.500000
vt 0.500000 0.500000
vt 0.500000 0.500000
vt 0.500000 0.500000
vt 0.500000 0.500000
vt 0.500000 0.000000
vt 0.500000 0.000000
vt 0.500000 0.000000
vt 0.500000 0.000000
vt 0.500000 0.000000
vt 0.500000 0.500000
vt 0.500000 0.500000
vt 0.500000 0.500000
vt 0.500000 0.500000
vt 0.500000 0.000000
vt 0.500000 0.000000
vt 0.500000 0.000000
vt 0.500000 0.000000
vt 0.500000 0.000000
vt 0.500000 0.500000
vt 0.500000 0.500000
vt 0.500000 0.500000
vt 0.500000 0.000000
vt 0.500000 0.000000
vt 0.500000 0.000000
vt 0.500000 0.000000
vn 1.0000 0.0000 0.0000
vn -1.0000 0.0000 0.0000
vn -0.9255 -0.3787 -0.0083
vn -0.9982 -0.0593 -0.0013
vn 0.9255 -0.3787 -0.0083
vn 0.9982 -0.0593 -0.0013
vn 0.0000 0.8682 0.4961
vn 0.0000 0.4472 0.8944
s 1
f 13/1/1 22/2/1 21/3/1
f 28/4/2 16/5/2 27/6/2
f 46/7/3 7/8/3 45/9/3
f 49/10/4 9/11/4 54/12/4
f 18/13/2 30/14/2 25/15/2
f 30/16/2 26/17/2 25/18/2
f 29/19/2 27/20/2 26/21/2
f 1/22/5 34/23/5 33/24/5
f 3/25/6 37/26/6 42/27/6
f 15/28/1 19/29/1 24/30/1
f 20/31/1 24/32/1 19/33/1
f 21/34/1 23/35/1 20/36/1
f 16/37/7 80/38/7 79/39/7
f 6/40/6 40/41/6 39/42/6
f 41/43/6 39/44/6 40/45/6
f 42/46/6 38/47/6 41/48/6
f 5/49/5 31/50/5 36/51/5
f 32/52/5 36/53/5 31/54/5
f 33/55/5 35/56/5 32/57/5
f 12/58/4 51/59/4 52/60/4
f 51/61/4 53/62/4 52/63/4
f 50/64/4 54/65/4 53/66/4
f 11/67/3 48/68/3 43/69/3
f 48/70/3 44/71/3 43/72/3
f 47/73/3 45/74/3 44/75/3
f 59/76/8 8/77/8 60/78/8
f 4/79/8 69/80/8 70/81/8
f 55/82/8 2/83/8 1/84/8
f 56/85/8 64/86/8 55/87/8
f 57/88/8 63/89/8 56/90/8
f 57/91/8 61/92/8 62/93/8
f 58/94/8 60/95/8 61/96/8
f 10/97/8 65/98/8 9/99/8
f 74/100/8 66/101/8 65/102/8
f 73/103/8 67/104/8 66/105/8
f 71/106/8 67/107/8 72/108/8
f 70/109/8 68/110/8 71/111/8
f 75/112/7 14/113/7 13/114/7
f 75/115/7 83/116/7 84/117/7
f 76/118/7 82/119/7 83/120/7
f 77/121/7 81/122/7 82/123/7
f 78/124/7 80/125/7 81/126/7
f 13/1/1 14/127/1 22/2/1
f 28/4/2 17/128/2 16/5/2
f 46/7/3 8/129/3 7/8/3
f 49/10/4 10/130/4 9/11/4
f 30/16/2 29/131/2 26/17/2
f 29/19/2 28/132/2 27/20/2
f 1/22/5 2/133/5 34/23/5
f 3/25/6 4/134/6 37/26/6
f 20/31/1 23/135/1 24/32/1
f 21/34/1 22/136/1 23/35/1
f 16/37/7 17/137/7 80/38/7
f 41/43/6 38/138/6 39/44/6
f 42/46/6 37/139/6 38/47/6
f 32/52/5 35/140/5 36/53/5
f 33/55/5 34/141/5 35/56/5
f 51/61/4 50/142/4 53/62/4
f 50/64/4 49/143/4 54/65/4
f 48/70/3 47/144/3 44/71/3
f 47/73/3 46/145/3 45/74/3
f 59/76/8 7/146/8 8/77/8
f 4/79/8 3/147/8 69/80/8
f 55/82/8 64/148/8 2/83/8
f 56/85/8 63/149/8 64/86/8
f 57/88/8 62/150/8 63/89/8
f 57/91/8 58/151/8 61/92/8
f 58/94/8 59/152/8 60/95/8
f 10/97/8 74/153/8 65/98/8
f 74/100/8 73/154/8 66/101/8
f 73/103/8 72/155/8 67/104/8
f 71/106/8 68/156/8 67/107/8
f 70/109/8 69/157/8 68/110/8
f 75/112/7 84/158/7 14/113/7
f 75/115/7 76/159/7 83/116/7
f 76/118/7 77/160/7 82/119/7
f 77/121/7 78/161/7 81/122/7
f 78/124/7 79/162/7 80/125/7
