# Blender v2.79 (sub 0) OBJ File: '93.blend'
# www.blender.org
o Cube.001_Cube.003
v 0.067866 0.127251 0.207767
v 0.092899 0.056530 0.453677
v -0.067866 0.127251 0.207767
v -0.092899 0.056530 0.453677
v 0.000000 0.127251 0.207767
v 0.000000 0.056530 0.453677
v 0.067867 0.127251 0.326378
v 0.000000 0.127251 0.326378
v -0.067867 0.127251 0.326378
vt 0.000000 0.000000
vt 0.500000 0.500000
vt 0.000000 0.500000
vt 0.000000 0.000000
vt 0.500000 0.000000
vt 0.500000 0.500000
vt 0.500000 0.000000
vt 0.000000 0.500000
vt 0.000000 0.000000
vt 0.000000 0.000000
vt 0.000000 0.500000
vt 0.000000 0.000000
vt 0.500000 0.000000
vt 0.500000 0.500000
vt 0.500000 0.000000
vt 0.000000 0.500000
vt 0.000000 0.000000
vt 0.500000 0.000000
vt 0.500000 0.000000
vn 0.0000 1.0000 0.0000
vn 0.0000 0.9680 0.2508
vn 0.0000 0.9646 0.2637
vn 0.9427 0.3337 -0.0000
vn 0.0000 0.8742 0.4856
vn -0.9427 0.3337 -0.0000
s 1
f 1/1/1 8/2/2 7/3/3
f 7/4/4 2/5/4 1/6/4
f 6/7/5 9/8/3 4/9/5
f 3/10/1 8/2/2 5/11/1
f 9/12/6 3/13/6 4/14/6
f 7/15/3 6/16/5 2/17/5
f 1/1/1 5/18/1 8/2/2
f 6/7/5 8/2/2 9/8/3
f 3/10/1 9/19/3 8/2/2
f 7/15/3 8/2/2 6/16/5
