# Blender v2.79 (sub 0) OBJ File: '94.blend'
# www.blender.org
o Cube.001_Cube.005
v 0.015989 0.009185 0.502976
v 0.015989 -0.009185 0.502976
v 0.027981 0.009185 0.272606
v 0.027981 -0.009185 0.272606
v -0.015989 0.009185 0.502976
v -0.015989 -0.009185 0.502976
v -0.027981 0.009185 0.272606
v -0.027981 -0.009185 0.272606
v 0.025982 0.009185 0.311001
v 0.023983 0.009185 0.349396
v 0.021985 0.009185 0.387791
v 0.019986 0.009185 0.426186
v 0.017987 0.009185 0.464581
v 0.017987 -0.009185 0.464581
v 0.019986 -0.009185 0.426186
v 0.021985 -0.009185 0.387791
v 0.023983 -0.009185 0.349396
v 0.025982 -0.009185 0.311001
v -0.025982 0.009185 0.311001
v -0.023983 0.009185 0.349396
v -0.021985 0.009185 0.387791
v -0.019986 0.009185 0.426186
v -0.017987 0.009185 0.464581
v -0.017987 -0.009185 0.464581
v -0.019986 -0.009185 0.426186
v -0.021985 -0.009185 0.387791
v -0.023983 -0.009185 0.349396
v -0.025982 -0.009185 0.311001
vt 0.000000 0.000000
vt 0.500000 0.500000
vt 0.000000 0.500000
vt 0.500000 0.000000
vt 0.000000 0.500000
vt 0.000000 0.000000
vt 0.000000 0.000000
vt 0.500000 0.500000
vt 0.000000 0.500000
vt 0.500000 0.000000
vt 0.000000 0.500000
vt 0.000000 0.000000
vt 0.500000 0.000000
vt 0.000000 0.500000
vt 0.000000 0.000000
vt 0.500000 0.000000
vt 0.000000 0.500000
vt 0.000000 0.000000
vt 0.500000 0.000000
vt 0.000000 0.500000
vt 0.000000 0.000000
vt 0.500000 0.000000
vt 0.000000 0.500000
vt 0.000000 0.000000
vt 0.500000 0.000000
vt 0.000000 0.500000
vt 0.000000 0.000000
vt 0.500000 0.000000
vt 0.000000 0.500000
vt 0.000000 0.000000
vt 0.500000 0.000000
vt 0.000000 0.500000
vt 0.000000 0.000000
vt 0.500000 0.000000
vt 0.000000 0.500000
vt 0.000000 0.000000
vt 0.500000 0.000000
vt 0.000000 0.500000
vt 0.000000 0.000000
vt 0.500000 0.000000
vt 0.500000 0.000000
vt 0.500000 0.500000
vt 0.500000 0.500000
vt 0.500000 0.500000
vt 0.500000 0.500000
vt 0.500000 0.500000
vt 0.500000 0.500000
vt 0.500000 0.500000
vt 0.500000 0.500000
vt 0.500000 0.500000
vt 0.500000 0.500000
vn 0.9986 0.0000 0.0520
vn 0.0000 0.0000 1.0000
vn -0.9986 0.0000 0.0520
s 1
f 13/1/1 2/2/1 14/3/1
f 5/4/2 2/5/2 1/6/2
f 23/7/3 6/8/3 5/9/3
f 9/10/1 4/11/1 3/12/1
f 10/13/1 18/14/1 9/15/1
f 11/16/1 17/17/1 10/18/1
f 12/19/1 16/20/1 11/21/1
f 13/22/1 15/23/1 12/24/1
f 8/25/3 19/26/3 7/27/3
f 28/28/3 20/29/3 19/30/3
f 27/31/3 21/32/3 20/33/3
f 26/34/3 22/35/3 21/36/3
f 25/37/3 23/38/3 22/39/3
f 13/1/1 1/40/1 2/2/1
f 5/4/2 6/8/2 2/5/2
f 23/7/3 24/41/3 6/8/3
f 9/10/1 18/42/1 4/11/1
f 10/13/1 17/43/1 18/14/1
f 11/16/1 16/44/1 17/17/1
f 12/19/1 15/45/1 16/20/1
f 13/22/1 14/46/1 15/23/1
f 8/25/3 28/47/3 19/26/3
f 28/28/3 27/48/3 20/29/3
f 27/31/3 26/49/3 21/32/3
f 26/34/3 25/50/3 22/35/3
f 25/37/3 24/51/3 23/38/3
