# Blender v2.79 (sub 0) OBJ File: '95.blend'
# www.blender.org
o Cube.001_Cube.009
v -0.038547 0.079702 0.043350
v -0.038547 0.004363 0.114132
v 0.038547 0.004363 0.114132
v 0.038547 0.079702 0.043350
v 0.038547 0.004363 -0.009218
v -0.038547 0.004363 -0.009218
v -0.038547 0.096875 -0.009218
v 0.038547 0.096875 -0.009218
vt 0.500000 0.000000
vt 0.000000 0.500000
vt 0.000000 0.000000
vt 0.000000 0.000000
vt 0.500000 0.500000
vt 0.000000 0.500000
vt 0.500000 0.000000
vt 0.000000 0.000000
vt 0.000000 0.500000
vt 0.000000 0.000000
vt 0.500000 0.500000
vt 0.500000 0.000000
vt 0.500000 0.500000
vt 0.500000 0.500000
vn 0.0000 0.9506 0.3105
vn 0.0000 0.8440 0.5364
vn 1.0000 -0.0000 0.0000
vn 0.0000 0.6847 0.7288
vn -1.0000 -0.0000 0.0000
s 1
f 7/1/1 4/2/2 8/3/1
f 5/4/3 4/5/3 3/6/3
f 1/7/2 3/6/4 4/8/2
f 1/7/5 6/9/5 2/10/5
f 7/1/1 1/11/2 4/2/2
f 5/4/3 8/12/3 4/5/3
f 1/7/2 2/13/4 3/6/4
f 1/7/5 7/14/5 6/9/5
