# Blender v2.92.0 OBJ File: 'ship9.blend'
# www.blender.org
o Glass_Cube.003
v 0.070793 0.074084 0.452902
v 0.087384 -0.000481 0.528676
v -0.070793 0.074084 0.452902
v -0.087384 -0.000481 0.528676
v -0.000000 0.082246 0.483634
v -0.000000 -0.000481 0.567702
v 0.049533 0.067972 0.488783
v 0.060054 0.019572 0.537261
v 0.000000 0.073371 0.509947
v 0.000000 0.019822 0.564364
v -0.049533 0.067972 0.488783
v -0.060054 0.019572 0.537261
vt 0.000000 0.500000
vt 0.250000 0.750000
vt 0.000000 0.750000
vt 0.500000 0.500000
vt 0.250000 0.500000
vt 0.500000 0.750000
vt 0.000000 0.875000
vt 0.500000 0.875000
vt 0.875000 0.000000
vt 0.750000 0.500000
vt 0.875000 0.500000
vt 0.000000 0.750000
vt 0.500000 0.500000
vt 0.000000 0.500000
vt 0.500000 0.500000
vt 0.000000 0.000000
vt 0.000000 0.500000
vt 0.500000 0.000000
vt 0.000000 0.500000
vt 0.500000 0.500000
vt 0.500000 0.500000
vt 0.000000 0.750000
vt 0.000000 0.500000
vt 0.000000 0.750000
vt 0.500000 0.750000
vt 0.500000 0.750000
vt 0.000000 0.750000
vt 0.500000 0.750000
vt 0.000000 0.750000
vt 0.750000 0.000000
vt 0.500000 0.000000
vt 0.000000 0.000000
vt 0.000000 0.500000
vt 0.500000 0.500000
vn -0.3181 -0.6900 -0.6502
vn -0.0000 -0.7349 -0.6782
vn -0.3492 -0.7050 -0.6173
vn 0.3181 -0.6900 -0.6502
vn 0.0000 -0.7128 -0.7014
vn 0.4698 0.4774 0.7425
vn 0.4064 0.1510 0.9011
vn 0.5711 0.4915 0.6575
vn -0.4698 0.4774 0.7425
vn -0.4064 0.1510 0.9011
vn 0.0000 0.4304 0.9027
vn -0.4141 0.7867 0.4579
vn 0.0000 0.9488 0.3158
vn -0.4734 0.7780 0.4130
vn 0.0000 0.8389 0.5442
vn -0.5711 0.4915 0.6575
vn 0.4141 0.7867 0.4579
vn 0.3492 -0.7050 -0.6173
vn 0.4734 0.7780 0.4130
s 1
f 2/1/1 5/2/2 1/3/3
f 4/4/4 5/2/2 6/5/5
f 8/6/6 6/7/7 2/8/8
f 12/9/9 6/10/10 10/11/11
f 11/12/12 5/13/13 3/14/14
f 12/15/9 9/16/15 11/17/12
f 8/18/6 9/19/15 10/20/11
f 11/21/12 4/22/16 12/23/9
f 7/24/17 5/13/13 9/25/15
f 2/1/8 7/26/17 8/27/6
f 2/1/1 6/5/5 5/2/2
f 4/4/4 3/28/18 5/2/2
f 8/6/6 10/29/11 6/7/7
f 12/9/9 4/30/16 6/10/10
f 11/12/12 9/25/15 5/13/13
f 12/15/9 10/31/11 9/16/15
f 8/18/6 7/32/17 9/19/15
f 11/21/12 3/28/14 4/22/16
f 7/24/17 1/33/19 5/13/13
f 2/1/8 1/34/19 7/26/17
