# Blender v2.79 (sub 0) OBJ File: 'box1.blend'
# www.blender.org
o Cube_Cube.000
v 0.147322 0.166667 -0.480655
v 0.145744 0.156584 0.459708
v 0.147322 0.166667 0.480655
v 0.055556 0.166667 -0.500000
v 0.166667 0.055556 -0.500000
v 0.055556 0.055556 -0.500000
v -0.036211 0.166667 0.480655
v -0.034633 0.156584 -0.459708
v -0.036211 0.166667 -0.480655
v -0.055556 0.166667 0.500000
v -0.166667 0.055556 0.500000
v -0.055556 0.055556 0.500000
v -0.074900 -0.166667 -0.480655
v -0.145744 -0.156584 -0.459708
v -0.147322 -0.166667 -0.480655
v -0.036211 -0.166667 -0.480655
v -0.034633 -0.156584 0.459708
v -0.036211 -0.166667 0.480655
v 0.166667 -0.074900 0.480655
v 0.156584 -0.076478 -0.459708
v 0.166667 -0.074900 -0.480655
v 0.166667 0.036211 -0.480655
v 0.156584 -0.034633 -0.459708
v 0.166667 -0.036211 -0.480655
v -0.166667 -0.147322 0.480655
v -0.156584 -0.145744 -0.459708
v -0.166667 -0.147322 -0.480655
v -0.166667 0.036211 -0.480655
v -0.156584 0.034633 0.459708
v -0.166667 0.036211 0.480655
v 0.166667 0.166667 0.500000
v 0.055556 0.055556 0.500000
v 0.166667 0.055556 0.500000
v 0.055556 0.166667 0.500000
v -0.166667 0.166667 -0.500000
v -0.055556 0.055556 -0.500000
v -0.166667 0.055556 -0.500000
v -0.055556 0.166667 -0.500000
v -0.055556 -0.055556 -0.500000
v 0.055556 -0.166667 -0.500000
v -0.055556 -0.166667 -0.500000
v 0.055556 -0.055556 -0.500000
v -0.166667 -0.055556 -0.500000
v -0.166667 -0.166667 -0.500000
v 0.055556 -0.055556 0.500000
v -0.055556 -0.166667 0.500000
v 0.055556 -0.166667 0.500000
v -0.055556 -0.055556 0.500000
v 0.166667 -0.055556 0.500000
v 0.166667 -0.166667 0.500000
v -0.166667 -0.166667 0.500000
v -0.166667 -0.055556 0.500000
v 0.166667 0.074900 0.480655
v 0.156584 0.145744 0.459708
v 0.166667 0.147322 0.480655
v 0.076478 0.156584 0.459708
v 0.074900 0.166667 0.480655
v 0.166667 -0.166667 -0.500000
v 0.166667 -0.055556 -0.500000
v 0.034633 -0.156584 0.459708
v 0.036211 -0.166667 0.480655
v -0.156584 -0.076478 -0.459708
v -0.166667 -0.074900 -0.480655
v -0.166667 0.166667 0.500000
v -0.166667 0.074900 0.480655
v -0.166667 0.147322 0.480655
v -0.166667 0.147322 -0.480655
v -0.166667 0.074900 -0.480655
v 0.166667 0.166667 -0.500000
v 0.166667 0.074900 -0.480655
v 0.166667 0.147322 -0.480655
v 0.074900 -0.166667 -0.480655
v 0.147322 -0.166667 -0.480655
v 0.147322 -0.166667 0.480655
v 0.074900 -0.166667 0.480655
v -0.074900 0.166667 -0.480655
v -0.147322 0.166667 -0.480655
v -0.147322 0.166667 0.480655
v -0.074900 0.166667 0.480655
v 0.074900 0.166667 -0.480655
v 0.036211 0.166667 -0.480655
v 0.036211 0.166667 0.480655
v -0.074900 -0.166667 0.480655
v -0.147322 -0.166667 0.480655
v 0.036211 -0.166667 -0.480655
v 0.166667 -0.147322 -0.480655
v 0.166667 -0.147322 0.480655
v 0.166667 0.036211 0.480655
v 0.166667 -0.036211 0.480655
v -0.166667 -0.074900 0.480655
v -0.166667 -0.036211 0.480655
v -0.166667 -0.036211 -0.480655
v -0.156584 0.145744 0.459708
v -0.156584 0.076478 -0.459708
v -0.156584 0.076478 0.459708
v 0.156584 0.145744 -0.459708
v 0.156584 0.076478 0.459708
v 0.156584 0.076478 -0.459708
v 0.145744 -0.156584 -0.459708
v 0.076478 -0.156584 0.459708
v 0.076478 -0.156584 -0.459708
v -0.145744 0.156584 -0.459708
v -0.076478 0.156584 0.459708
v -0.076478 0.156584 -0.459708
v 0.076478 0.156584 -0.459708
v 0.145744 0.156584 -0.459708
v 0.034633 0.156584 0.459708
v 0.034633 0.156584 -0.459708
v -0.076478 -0.156584 -0.459708
v -0.145744 -0.156584 0.459708
v 0.034633 -0.156584 -0.459708
v -0.034633 -0.156584 -0.459708
v 0.156584 -0.145744 0.459708
v 0.156584 -0.145744 -0.459708
v 0.156584 0.034633 -0.459708
v 0.156584 -0.034633 0.459708
v -0.156584 -0.076478 0.459708
v -0.156584 -0.145744 0.459708
v -0.156584 -0.034633 -0.459708
v -0.156584 -0.034633 0.459708
v -0.156584 0.034633 -0.459708
v 0.156584 -0.076478 0.459708
v -0.034633 0.156584 0.459708
v 0.145744 -0.156584 0.459708
v 0.156584 0.034633 0.459708
v -0.076478 -0.156584 0.459708
v -0.145744 0.156584 0.459708
v -0.156584 0.145744 -0.459708
vt 0.500000 0.000000
vt 0.000000 0.500000
vt 0.000000 0.000000
vt 0.500000 0.000000
vt 0.000000 0.500000
vt 0.000000 0.000000
vt 0.500000 0.000000
vt 0.000000 0.500000
vt 0.000000 0.000000
vt 0.500000 0.000000
vt 0.000000 0.500000
vt 0.000000 0.000000
vt 0.500000 0.000000
vt 0.000000 0.500000
vt 0.000000 0.000000
vt 0.500000 0.000000
vt 0.000000 0.500000
vt 0.000000 0.000000
vt 0.500000 0.000000
vt 0.000000 0.500000
vt 0.000000 0.000000
vt 0.500000 0.000000
vt 0.000000 0.500000
vt 0.000000 0.000000
vt 0.500000 0.000000
vt 0.000000 0.500000
vt 0.000000 0.000000
vt 0.500000 0.000000
vt 0.000000 0.500000
vt 0.000000 0.000000
vt 0.500000 0.000000
vt 0.000000 0.500000
vt 0.000000 0.000000
vt 0.500000 0.000000
vt 0.000000 0.500000
vt 0.000000 0.000000
vt 0.500000 0.000000
vt 0.000000 0.500000
vt 0.000000 0.000000
vt 0.500000 0.000000
vt 0.000000 0.500000
vt 0.000000 0.000000
vt 0.500000 0.000000
vt 0.000000 0.500000
vt 0.000000 0.000000
vt 0.500000 0.000000
vt 0.000000 0.500000
vt 0.000000 0.000000
vt 0.500000 0.000000
vt 0.000000 0.500000
vt 0.000000 0.000000
vt 0.500000 0.000000
vt 0.000000 0.500000
vt 0.000000 0.000000
vt 0.500000 0.000000
vt 0.000000 0.500000
vt 0.000000 0.000000
vt 0.000000 0.000000
vt 0.500000 0.500000
vt 0.000000 0.500000
vt 0.500000 0.000000
vt 0.000000 0.500000
vt 0.000000 0.000000
vt 0.500000 0.000000
vt 0.000000 0.500000
vt 0.000000 0.000000
vt 0.000000 0.500000
vt 0.000000 0.000000
vt 0.500000 0.000000
vt 0.000000 0.500000
vt 0.000000 0.000000
vt 0.000000 0.000000
vt 0.500000 0.500000
vt 0.000000 0.500000
vt 0.500000 0.000000
vt 0.000000 0.500000
vt 0.000000 0.000000
vt 0.500000 0.000000
vt 0.000000 0.500000
vt 0.000000 0.000000
vt 0.000000 0.000000
vt 0.500000 0.500000
vt 0.000000 0.500000
vt 0.500000 0.000000
vt 0.000000 0.500000
vt 0.000000 0.000000
vt 0.500000 0.000000
vt 0.000000 0.500000
vt 0.000000 0.000000
vt 0.500000 0.000000
vt 0.000000 0.500000
vt 0.000000 0.000000
vt 0.500000 0.000000
vt 0.000000 0.500000
vt 0.000000 0.000000
vt 0.500000 0.000000
vt 0.500000 0.000000
vt 0.000000 0.000000
vt 0.500000 0.000000
vt 0.000000 0.000000
vt 0.500000 0.500000
vt 0.000000 0.500000
vt 0.000000 0.000000
vt 0.500000 0.500000
vt 0.500000 0.500000
vt 0.500000 0.000000
vt 0.500000 0.000000
vt 0.000000 0.500000
vt 0.500000 0.000000
vt 0.000000 0.500000
vt 0.000000 0.000000
vt 0.500000 0.000000
vt 0.000000 0.000000
vt 0.500000 0.000000
vt 0.500000 0.500000
vt 0.000000 0.500000
vt 0.500000 0.000000
vt 0.000000 0.500000
vt 0.000000 0.000000
vt 0.500000 0.500000
vt 0.000000 0.500000
vt 0.500000 0.000000
vt 0.000000 0.500000
vt 0.500000 0.000000
vt 0.000000 0.500000
vt 0.500000 0.500000
vt 0.000000 0.500000
vt 0.500000 0.000000
vt 0.000000 0.000000
vt 0.500000 0.500000
vt 0.000000 0.500000
vt 0.000000 0.000000
vt 0.500000 0.500000
vt 0.000000 0.500000
vt 0.000000 0.000000
vt 0.500000 0.000000
vt 0.000000 0.500000
vt 0.000000 0.000000
vt 0.000000 0.500000
vt 0.000000 0.000000
vt 0.500000 0.500000
vt 0.000000 0.500000
vt 0.500000 0.500000
vt 0.000000 0.500000
vt 0.500000 0.000000
vt 0.000000 0.500000
vt 0.500000 0.500000
vt 0.500000 0.000000
vt 0.000000 0.000000
vt 0.500000 0.500000
vt 0.000000 0.500000
vt 0.500000 0.000000
vt 0.000000 0.500000
vt 0.500000 0.000000
vt 0.000000 0.500000
vt 0.500000 0.500000
vt 0.500000 0.000000
vt 0.000000 0.500000
vt 0.000000 0.000000
vt 0.000000 0.500000
vt 0.000000 0.000000
vt 0.000000 0.500000
vt 0.000000 0.000000
vt 0.500000 0.000000
vt 0.000000 0.500000
vt 0.000000 0.000000
vt 0.500000 0.000000
vt 0.000000 0.500000
vt 0.000000 0.000000
vt 0.500000 0.000000
vt 0.000000 0.000000
vt 0.500000 0.000000
vt 0.500000 0.000000
vt 0.000000 0.500000
vt 0.000000 0.000000
vt 0.500000 0.000000
vt 0.000000 0.500000
vt 0.000000 0.000000
vt 0.500000 0.000000
vt 0.000000 0.500000
vt 0.500000 0.000000
vt 0.000000 0.500000
vt 0.000000 0.000000
vt 0.500000 0.000000
vt 0.000000 0.000000
vt 0.500000 0.000000
vt 0.000000 0.500000
vt 0.000000 0.000000
vt 0.500000 0.000000
vt 0.000000 0.500000
vt 0.000000 0.000000
vt 0.500000 0.000000
vt 0.000000 0.500000
vt 0.000000 0.000000
vt 0.000000 0.500000
vt 0.000000 0.000000
vt 0.500000 0.000000
vt 0.000000 0.500000
vt 0.000000 0.000000
vt 0.000000 0.500000
vt 0.000000 0.000000
vt 0.500000 0.000000
vt 0.000000 0.500000
vt 0.000000 0.000000
vt 0.500000 0.000000
vt 0.000000 0.500000
vt 0.000000 0.000000
vt 0.500000 0.000000
vt 0.000000 0.500000
vt 0.000000 0.000000
vt 0.500000 0.000000
vt 0.000000 0.500000
vt 0.000000 0.000000
vt 0.000000 0.000000
vt 0.000000 0.000000
vt 0.500000 0.500000
vt 0.000000 0.500000
vt 0.500000 0.000000
vt 0.000000 0.500000
vt 0.000000 0.000000
vt 0.000000 0.500000
vt 0.000000 0.000000
vt 0.500000 0.000000
vt 0.000000 0.500000
vt 0.000000 0.000000
vt 0.500000 0.000000
vt 0.000000 0.500000
vt 0.000000 0.000000
vt 0.500000 0.000000
vt 0.000000 0.000000
vt 0.000000 0.000000
vt 0.500000 0.500000
vt 0.000000 0.500000
vt 0.500000 0.000000
vt 0.000000 0.500000
vt 0.000000 0.000000
vt 0.500000 0.000000
vt 0.000000 0.500000
vt 0.000000 0.000000
vt 0.000000 0.500000
vt 0.000000 0.000000
vt 0.500000 0.000000
vt 0.000000 0.500000
vt 0.000000 0.000000
vt 0.500000 0.000000
vt 0.000000 0.500000
vt 0.000000 0.000000
vt 0.500000 0.000000
vt 0.000000 0.500000
vt 0.000000 0.000000
vt 0.500000 0.000000
vt 0.000000 0.500000
vt 0.000000 0.000000
vt 0.500000 0.000000
vt 0.000000 0.500000
vt 0.000000 0.000000
vt 0.000000 0.000000
vt 0.500000 0.000000
vt 0.000000 0.500000
vt 0.000000 0.000000
vt 0.500000 0.000000
vt 0.000000 0.500000
vt 0.000000 0.000000
vt 0.000000 0.500000
vt 0.000000 0.000000
vt 0.500000 0.000000
vt 0.000000 0.500000
vt 0.000000 0.000000
vt 0.500000 0.000000
vt 0.000000 0.500000
vt 0.000000 0.000000
vt 0.500000 0.000000
vt 0.000000 0.000000
vt 0.500000 0.000000
vt 0.000000 0.500000
vt 0.000000 0.000000
vt 0.500000 0.000000
vt 0.000000 0.000000
vt 0.500000 0.000000
vt 0.000000 0.500000
vt 0.000000 0.000000
vt 0.000000 0.000000
vt 0.500000 0.000000
vt 0.500000 0.500000
vt 0.500000 0.000000
vt 0.500000 0.500000
vt 0.500000 0.000000
vt 0.500000 0.500000
vt 0.500000 0.000000
vt 0.500000 0.500000
vt 0.500000 0.000000
vt 0.500000 0.500000
vt 0.500000 0.000000
vt 0.500000 0.500000
vt 0.500000 0.000000
vt 0.500000 0.500000
vt 0.500000 0.000000
vt 0.500000 0.500000
vt 0.500000 0.000000
vt 0.500000 0.500000
vt 0.500000 0.000000
vt 0.500000 0.500000
vt 0.500000 0.000000
vt 0.500000 0.500000
vt 0.500000 0.000000
vt 0.500000 0.500000
vt 0.500000 0.000000
vt 0.500000 0.500000
vt 0.500000 0.000000
vt 0.500000 0.500000
vt 0.500000 0.000000
vt 0.500000 0.500000
vt 0.500000 0.000000
vt 0.500000 0.500000
vt 0.000000 0.500000
vt 0.000000 0.000000
vt 0.500000 0.000000
vt 0.500000 0.500000
vt 0.500000 0.500000
vt 0.500000 0.500000
vt 0.500000 0.500000
vt 0.500000 0.500000
vt 0.500000 0.500000
vt 0.500000 0.500000
vt 0.500000 0.500000
vt 0.500000 0.500000
vt 0.500000 0.500000
vt 0.500000 0.500000
vt 0.500000 0.500000
vt 0.500000 0.500000
vt 0.500000 0.500000
vt 0.500000 0.500000
vt 0.500000 0.500000
vt 0.500000 0.500000
vt 0.500000 0.000000
vt 0.500000 0.500000
vt 0.500000 0.500000
vt 0.500000 0.500000
vt 0.500000 0.000000
vt 0.500000 0.500000
vt 0.500000 0.500000
vt 0.500000 0.000000
vt 0.500000 0.500000
vt 0.500000 0.500000
vt 0.500000 0.500000
vt 0.500000 0.500000
vt 0.500000 0.500000
vt 0.500000 0.500000
vt 0.500000 0.500000
vt 0.500000 0.000000
vt 0.500000 0.000000
vt 0.500000 0.000000
vt 0.500000 0.500000
vt 0.500000 0.500000
vt 0.500000 0.500000
vt 0.500000 0.500000
vt 0.500000 0.000000
vt 0.500000 0.500000
vt 0.500000 0.000000
vt 0.500000 0.500000
vt 0.500000 0.500000
vt 0.500000 0.000000
vt 0.500000 0.500000
vt 0.500000 0.000000
vt 0.500000 0.500000
vt 0.500000 0.500000
vt 0.500000 0.500000
vt 0.500000 0.500000
vt 0.500000 0.000000
vt 0.500000 0.000000
vt 0.500000 0.500000
vt 0.500000 0.500000
vt 0.500000 0.500000
vt 0.500000 0.000000
vt 0.500000 0.500000
vt 0.500000 0.500000
vt 0.500000 0.500000
vt 0.500000 0.500000
vt 0.500000 0.500000
vt 0.500000 0.500000
vt 0.500000 0.500000
vt 0.500000 0.500000
vt 0.500000 0.500000
vt 0.500000 0.500000
vt 0.500000 0.500000
vt 0.500000 0.500000
vt 0.500000 0.500000
vt 0.500000 0.500000
vt 0.500000 0.500000
vt 0.500000 0.500000
vt 0.500000 0.500000
vt 0.500000 0.500000
vt 0.500000 0.500000
vt 0.500000 0.500000
vt 0.500000 0.500000
vt 0.500000 0.000000
vt 0.500000 0.500000
vt 0.500000 0.500000
vt 0.500000 0.500000
vt 0.500000 0.000000
vt 0.500000 0.500000
vt 0.500000 0.500000
vt 0.500000 0.500000
vt 0.500000 0.500000
vt 0.500000 0.500000
vt 0.500000 0.500000
vt 0.500000 0.500000
vt 0.500000 0.500000
vt 0.500000 0.500000
vt 0.500000 0.500000
vt 0.500000 0.500000
vt 0.500000 0.500000
vt 0.500000 0.500000
vt 0.500000 0.500000
vt 0.500000 0.500000
vt 0.500000 0.500000
vn -0.1546 0.9880 0.0000
vn 0.0000 0.0000 -1.0000
vn 0.0000 0.0000 1.0000
vn 0.0000 0.9739 0.2271
vn 0.0000 0.9943 0.1068
vn 0.1546 0.9880 0.0000
vn -0.9880 0.1546 0.0000
vn 0.9880 0.1546 0.0000
vn 0.1546 -0.9880 -0.0000
vn -0.9739 -0.0000 0.2271
vn -0.9739 0.0000 -0.2271
vn 0.9739 -0.0000 -0.2271
vn 0.9739 0.0000 0.2271
vn 0.0000 0.9739 -0.2271
vn 0.0000 -0.9739 -0.2271
vn 0.0000 -0.9739 0.2271
vn -0.9943 -0.0000 -0.1068
vn 0.0000 -0.9943 0.1068
vn -0.0000 0.9943 -0.1068
vn -0.9943 0.0000 0.1068
vn 0.9943 0.0000 0.1068
vn -0.0000 -0.9943 -0.1068
vn -0.0000 -1.0000 0.0000
vn -0.0000 1.0000 0.0000
vn -1.0000 -0.0000 0.0000
vn 1.0000 0.0000 0.0000
vn 0.9943 0.0000 -0.1068
vn -0.9880 -0.1546 -0.0000
vn -0.1546 -0.9880 -0.0000
vn 0.9880 -0.1546 -0.0000
s 1
f 118/1/1 27/2/1 25/3/1
f 38/4/2 37/5/2 35/6/2
f 120/7/1 92/8/1 91/9/1
f 34/10/3 33/11/3 31/12/3
f 105/13/4 1/14/5 80/15/5
f 23/16/6 89/17/6 24/18/6
f 104/19/7 79/20/7 76/21/7
f 123/22/8 9/23/8 7/24/8
f 125/25/9 22/26/9 88/27/9
f 45/28/3 50/29/3 49/30/3
f 62/31/10 118/32/11 117/33/11
f 39/34/2 44/35/2 43/36/2
f 122/37/12 114/38/13 20/39/13
f 56/40/14 106/41/4 105/42/4
f 124/43/15 101/44/16 99/45/16
f 59/46/2 40/47/2 42/48/2
f 54/49/12 98/50/13 96/51/13
f 10/52/3 32/53/3 34/54/3
f 32/55/3 49/56/3 33/57/3
f 30/58/17 120/59/11 91/60/17
f 48/61/3 47/62/3 45/63/3
f 69/64/2 6/65/2 4/66/2
f 125/25/12 23/67/13 115/68/13
f 99/69/16 72/70/18 73/71/18
f 79/72/19 127/73/14 78/74/19
f 64/75/3 12/76/3 10/77/3
f 126/78/15 14/79/16 109/80/16
f 92/81/20 121/82/10 28/83/20
f 115/84/13 24/85/21 22/86/21
f 84/87/22 46/88/23 51/89/23
f 1/90/5 31/91/24 69/92/24
f 27/93/20 43/94/25 44/95/25
f 9/96/5 79/20/19 10/77/24
f 73/97/18 40/47/23 58/98/23
f 25/99/17 44/35/25 51/89/25
f 59/100/26 86/101/21 58/102/26
f 47/103/23 74/104/22 50/29/23
f 33/57/26 55/105/27 31/91/26
f 86/106/21 50/29/26 58/98/26
f 71/107/21 5/108/26 69/92/26
f 18/109/22 13/110/18 41/111/23
f 87/112/27 49/56/26 50/113/26
f 74/114/22 58/102/23 50/113/23
f 4/66/24 1/115/5 69/116/24
f 89/117/27 21/118/21 59/100/26
f 37/119/25 67/120/20 35/121/25
f 85/122/18 75/123/22 47/103/23
f 77/124/5 38/125/24 35/6/24
f 44/95/23 84/126/22 51/127/23
f 92/128/20 37/5/25 43/36/25
f 40/129/23 16/130/18 41/131/23
f 64/132/24 77/133/5 35/121/24
f 92/128/20 90/134/17 52/135/25
f 3/136/19 34/137/24 31/12/24
f 18/109/22 47/62/23 46/138/23
f 9/96/5 4/139/24 38/140/24
f 34/54/24 7/141/19 10/142/24
f 10/77/24 78/143/19 64/144/24
f 22/145/21 53/146/27 33/57/26
f 41/111/23 15/147/18 44/35/23
f 55/148/27 69/116/26 31/12/26
f 89/117/27 33/11/26 49/30/26
f 74/149/28 99/150/28 73/151/28
f 66/152/17 11/153/25 64/132/25
f 30/154/17 68/155/20 37/119/25
f 52/135/25 25/156/17 51/127/25
f 67/157/20 64/144/25 35/6/25
f 22/145/21 59/158/26 5/159/26
f 30/154/17 52/160/25 11/161/25
f 123/22/14 108/162/4 8/163/4
f 12/164/3 45/165/3 32/166/3
f 11/167/3 48/168/3 12/169/3
f 52/170/3 46/88/3 48/171/3
f 36/172/2 43/94/2 37/119/2
f 6/173/2 39/174/2 36/175/2
f 127/176/14 104/177/4 102/178/4
f 4/179/2 36/180/2 38/140/2
f 121/181/10 120/182/11 29/183/11
f 42/184/2 41/131/2 39/185/2
f 60/186/15 112/187/16 111/188/16
f 5/189/2 42/190/2 6/191/2
f 110/192/15 83/193/22 84/194/22
f 56/40/8 80/195/8 57/196/8
f 100/197/15 74/198/22 75/199/22
f 121/181/29 30/200/29 28/201/29
f 113/202/12 19/203/27 87/204/27
f 97/205/12 55/206/27 53/207/27
f 93/208/11 65/209/17 66/210/17
f 116/211/12 88/212/27 89/213/27
f 122/37/9 21/118/9 19/214/9
f 13/215/18 14/216/16 15/217/18
f 14/218/30 84/219/30 15/220/30
f 127/176/8 77/221/8 78/222/8
f 94/223/10 67/224/20 68/225/20
f 102/226/4 76/227/5 77/228/5
f 98/229/6 53/146/6 70/230/6
f 1/231/7 2/232/7 3/233/7
f 17/234/15 61/235/22 18/236/22
f 128/237/29 66/238/29 67/239/29
f 60/186/28 85/240/28 61/241/28
f 111/242/16 16/243/18 85/244/18
f 20/245/13 86/246/21 21/247/21
f 96/248/13 70/249/21 71/250/21
f 8/251/4 81/252/5 9/253/5
f 2/254/14 57/255/19 3/256/19
f 126/78/28 13/110/28 83/257/28
f 114/258/6 87/259/6 86/260/6
f 107/261/14 7/262/19 82/263/19
f 54/49/9 71/264/9 55/265/9
f 112/266/30 18/267/30 16/268/30
f 26/269/10 63/270/20 27/271/20
f 95/272/1 68/155/1 65/273/1
f 117/274/11 25/275/17 90/276/17
f 101/277/30 75/123/30 72/278/30
f 108/279/7 82/280/7 81/281/7
f 62/31/29 90/134/29 63/282/29
f 11/161/25 65/283/17 68/284/20
f 5/159/26 70/285/21 53/286/27
f 40/129/23 72/287/18 75/288/22
f 38/140/24 76/289/5 79/290/19
f 34/54/24 57/291/19 80/292/5
f 10/77/24 7/293/19 9/294/5
f 4/66/24 81/295/5 82/296/19
f 46/138/23 83/297/22 13/298/18
f 47/103/23 61/299/22 85/300/18
f 41/111/23 16/301/18 18/302/22
f 49/30/26 19/303/27 21/304/21
f 33/57/26 88/305/27 22/306/21
f 59/100/26 24/307/21 89/308/27
f 43/36/25 63/309/20 90/310/17
f 37/119/25 28/311/20 30/312/17
f 52/135/25 91/313/17 92/314/20
f 128/237/10 95/315/11 93/316/11
f 82/317/19 80/195/5 4/66/24
f 118/1/1 26/318/1 27/2/1
f 38/4/2 36/319/2 37/5/2
f 120/7/1 119/320/1 92/8/1
f 34/10/3 32/321/3 33/11/3
f 105/13/4 106/322/4 1/14/5
f 23/16/6 116/323/6 89/17/6
f 104/19/7 103/324/7 79/20/7
f 123/22/8 8/325/8 9/23/8
f 125/25/9 115/326/9 22/26/9
f 45/28/3 47/327/3 50/29/3
f 62/31/10 26/318/10 118/32/11
f 39/34/2 41/328/2 44/35/2
f 122/37/12 113/329/12 114/38/13
f 56/40/14 2/232/14 106/41/4
f 124/43/15 100/330/15 101/44/16
f 59/46/2 58/331/2 40/47/2
f 54/49/12 97/332/12 98/50/13
f 10/52/3 12/333/3 32/53/3
f 32/55/3 45/334/3 49/56/3
f 30/58/17 29/335/11 120/59/11
f 48/61/3 46/336/3 47/62/3
f 69/64/2 5/337/2 6/65/2
f 125/25/12 116/323/12 23/67/13
f 99/69/16 101/338/16 72/70/18
f 79/72/19 103/339/14 127/73/14
f 64/75/3 11/340/3 12/76/3
f 126/78/15 110/341/15 14/79/16
f 92/81/20 119/342/10 121/82/10
f 115/84/13 23/343/13 24/85/21
f 84/87/22 83/344/22 46/88/23
f 1/90/5 3/345/19 31/91/24
f 27/93/20 63/346/20 43/94/25
f 9/96/5 38/347/24 79/20/19
f 73/97/18 72/348/18 40/47/23
f 25/99/17 27/349/20 44/35/25
f 59/100/26 21/350/21 86/101/21
f 47/103/23 75/351/22 74/104/22
f 33/57/26 53/352/27 55/105/27
f 86/106/21 87/353/27 50/29/26
f 71/107/21 70/354/21 5/108/26
f 18/109/22 46/336/23 13/110/18
f 87/112/27 19/355/27 49/56/26
f 74/114/22 73/356/18 58/102/23
f 4/66/24 80/357/5 1/115/5
f 89/117/27 49/358/26 21/118/21
f 37/119/25 68/359/20 67/120/20
f 85/122/18 40/360/23 75/123/22
f 77/124/5 76/361/5 38/125/24
f 44/95/23 15/362/18 84/126/22
f 92/128/20 28/363/20 37/5/25
f 40/129/23 85/122/18 16/130/18
f 64/132/24 78/364/19 77/133/5
f 92/128/20 43/365/25 90/134/17
f 3/136/19 57/366/19 34/137/24
f 18/109/22 61/367/22 47/62/23
f 9/96/5 81/368/5 4/139/24
f 34/54/24 82/317/19 7/141/19
f 10/77/24 79/369/19 78/143/19
f 22/145/21 5/337/26 53/146/27
f 41/111/23 13/370/18 15/147/18
f 55/148/27 71/371/21 69/116/26
f 89/117/27 88/372/27 33/11/26
f 74/149/28 124/43/28 99/150/28
f 66/152/17 65/373/17 11/153/25
f 30/154/17 11/340/25 68/155/20
f 52/135/25 90/374/17 25/156/17
f 67/157/20 66/375/17 64/144/25
f 22/145/21 24/376/21 59/158/26
f 30/154/17 91/377/17 52/160/25
f 123/22/14 107/378/14 108/162/4
f 12/164/3 48/379/3 45/165/3
f 11/167/3 52/380/3 48/168/3
f 52/170/3 51/381/3 46/88/3
f 36/172/2 39/382/2 43/94/2
f 6/173/2 42/383/2 39/174/2
f 127/176/14 103/324/14 104/177/4
f 4/179/2 6/384/2 36/180/2
f 121/181/10 119/320/10 120/182/11
f 42/184/2 40/360/2 41/131/2
f 60/186/15 17/385/15 112/187/16
f 5/189/2 59/386/2 42/190/2
f 110/192/15 126/387/15 83/193/22
f 56/40/8 105/388/8 80/195/8
f 100/197/15 124/389/15 74/198/22
f 121/181/29 29/390/29 30/200/29
f 113/202/12 122/391/12 19/203/27
f 97/205/12 54/392/12 55/206/27
f 93/208/11 95/393/11 65/209/17
f 116/211/12 125/394/12 88/212/27
f 122/37/9 20/395/9 21/118/9
f 13/215/18 109/396/16 14/216/16
f 14/218/30 110/341/30 84/219/30
f 127/176/8 102/397/8 77/221/8
f 94/223/10 128/398/10 67/224/20
f 102/226/4 104/399/4 76/227/5
f 98/229/6 97/332/6 53/146/6
f 1/231/7 106/400/7 2/232/7
f 17/234/15 60/401/15 61/235/22
f 128/237/29 93/402/29 66/238/29
f 60/186/28 111/403/28 85/240/28
f 111/242/16 112/404/16 16/243/18
f 20/245/13 114/405/13 86/246/21
f 96/248/13 98/406/13 70/249/21
f 8/251/4 108/407/4 81/252/5
f 2/254/14 56/408/14 57/255/19
f 126/78/28 109/409/28 13/110/28
f 114/258/6 113/329/6 87/259/6
f 107/261/14 123/410/14 7/262/19
f 54/49/9 96/411/9 71/264/9
f 112/266/30 17/385/30 18/267/30
f 26/269/10 62/412/10 63/270/20
f 95/272/1 94/413/1 68/155/1
f 117/274/11 118/414/11 25/275/17
f 101/277/30 100/330/30 75/123/30
f 108/279/7 107/378/7 82/280/7
f 62/31/29 117/415/29 90/134/29
f 128/237/10 94/413/10 95/315/11
f 82/317/19 34/416/24 80/195/5
