# Blender v2.79 (sub 0) OBJ File: 'box2.blend'
# www.blender.org
o Cube_Cube.003
v -0.166667 0.145472 -0.187862
v -0.152303 0.134560 -0.467893
v -0.152303 0.134560 -0.198774
v -0.145472 -0.166667 -0.145472
v -0.134560 -0.152303 0.134560
v -0.145472 -0.166667 0.145472
v 0.145472 -0.145472 0.500000
v -0.134560 -0.134560 0.485636
v -0.145472 -0.145472 0.500000
v 0.134560 -0.152303 0.134560
v 0.145472 -0.166667 0.145472
v -0.134560 0.134560 0.485636
v -0.145472 0.145472 0.500000
v -0.166667 0.145472 0.478805
v -0.152303 -0.134560 0.467893
v -0.166667 -0.145472 0.478805
v -0.145472 0.166667 -0.478805
v 0.134560 0.152303 -0.467893
v 0.145472 0.166667 -0.478805
v -0.152303 -0.134560 -0.198774
v -0.166667 -0.145472 -0.187862
v 0.166667 0.145472 0.145472
v 0.152303 0.134560 -0.134560
v 0.166667 0.145472 -0.145472
v -0.145472 0.166667 0.187862
v -0.134560 0.152303 0.467893
v -0.134560 0.152303 0.198774
v -0.145472 -0.166667 -0.187862
v -0.134560 -0.152303 -0.467893
v -0.134560 -0.152303 -0.198774
v 0.166667 -0.145472 0.187862
v 0.152303 -0.134560 0.467893
v 0.166667 -0.145472 0.478805
v 0.134560 -0.152303 -0.198774
v 0.145472 -0.166667 -0.187862
v 0.152303 0.134560 0.467893
v 0.166667 0.145472 0.478805
v -0.166667 0.166667 -0.166667
v -0.166667 -0.166667 -0.166667
v -0.166667 0.166667 -0.500000
v -0.166667 -0.166667 -0.500000
v -0.166667 0.145472 -0.478805
v -0.166667 -0.145472 -0.478805
v -0.145472 -0.145472 -0.500000
v 0.166667 0.166667 -0.500000
v -0.145472 0.145472 -0.500000
v 0.166667 -0.166667 -0.500000
v 0.145472 0.145472 -0.500000
v 0.145472 -0.145472 -0.500000
v 0.166667 0.166667 0.166667
v 0.166667 -0.166667 0.166667
v 0.166667 0.166667 0.500000
v 0.166667 0.145472 0.187862
v 0.166667 -0.166667 0.500000
v -0.166667 0.166667 0.500000
v 0.145472 0.145472 0.500000
v -0.166667 -0.166667 0.500000
v -0.145472 -0.166667 0.187862
v -0.166667 -0.166667 0.166667
v 0.145472 -0.166667 0.187862
v 0.145472 -0.166667 0.478805
v -0.145472 -0.166667 0.478805
v -0.166667 0.166667 0.166667
v 0.145472 0.166667 0.187862
v -0.145472 0.166667 0.478805
v 0.145472 0.166667 0.478805
v 0.166667 0.166667 -0.166667
v -0.145472 0.166667 -0.187862
v 0.145472 0.166667 -0.187862
v 0.145472 0.166667 -0.145472
v -0.145472 0.166667 -0.145472
v -0.145472 0.166667 0.145472
v 0.145472 0.166667 0.145472
v -0.145472 -0.166667 -0.478805
v 0.166667 -0.166667 -0.166667
v 0.145472 -0.166667 -0.478805
v 0.145472 -0.166667 -0.145472
v 0.166667 -0.145472 -0.478805
v 0.166667 0.145472 -0.478805
v 0.166667 0.145472 -0.187862
v 0.166667 -0.145472 -0.187862
v 0.166667 -0.145472 -0.145472
v 0.166667 -0.145472 0.145472
v -0.166667 0.145472 0.187862
v -0.166667 -0.145472 0.187862
v -0.166667 -0.145472 0.145472
v -0.166667 0.145472 0.145472
v -0.166667 0.145472 -0.145472
v -0.166667 -0.145472 -0.145472
v -0.152303 -0.134560 -0.467893
v -0.134560 0.134560 -0.485636
v 0.134560 -0.134560 -0.485636
v -0.134560 -0.134560 -0.485636
v 0.152303 0.134560 0.198774
v 0.152303 -0.134560 0.198774
v 0.134560 0.134560 0.485636
v 0.134560 -0.134560 0.485636
v 0.134560 -0.152303 0.198774
v -0.134560 -0.152303 0.467893
v -0.134560 -0.152303 0.198774
v 0.134560 0.152303 0.467893
v 0.134560 0.152303 0.198774
v -0.134560 0.152303 -0.467893
v 0.134560 0.152303 -0.198774
v -0.134560 0.152303 -0.134560
v 0.134560 0.152303 0.134560
v 0.134560 0.152303 -0.134560
v 0.134560 -0.152303 -0.467893
v 0.134560 -0.152303 -0.134560
v -0.134560 -0.152303 -0.134560
v 0.152303 0.134560 -0.467893
v 0.152303 -0.134560 -0.198774
v 0.152303 -0.134560 -0.467893
v 0.152303 -0.134560 0.134560
v 0.152303 -0.134560 -0.134560
v -0.152303 0.134560 0.467893
v -0.152303 -0.134560 0.198774
v -0.152303 0.134560 0.134560
v -0.152303 -0.134560 -0.134560
v -0.152303 -0.134560 0.134560
v 0.134560 -0.152303 0.467893
v 0.152303 0.134560 -0.198774
v 0.152303 0.134560 0.134560
v -0.134560 0.152303 -0.198774
v -0.152303 0.134560 0.198774
v 0.134560 0.134560 -0.485636
v -0.134560 0.152303 0.134560
v -0.152303 0.134560 -0.134560
vt 0.500000 0.000000
vt 0.000000 0.500000
vt 0.000000 0.000000
vt 0.500000 0.000000
vt 0.000000 0.500000
vt 0.000000 0.000000
vt 0.500000 0.000000
vt 0.000000 0.500000
vt 0.000000 0.000000
vt 0.500000 0.000000
vt 0.000000 0.500000
vt 0.000000 0.000000
vt 0.500000 0.000000
vt 0.000000 0.500000
vt 0.000000 0.000000
vt 0.500000 0.000000
vt 0.000000 0.500000
vt 0.000000 0.000000
vt 0.500000 0.000000
vt 0.000000 0.500000
vt 0.000000 0.000000
vt 0.500000 0.000000
vt 0.000000 0.500000
vt 0.000000 0.000000
vt 0.500000 0.000000
vt 0.000000 0.500000
vt 0.000000 0.000000
vt 0.500000 0.000000
vt 0.000000 0.500000
vt 0.000000 0.000000
vt 0.500000 0.000000
vt 0.000000 0.500000
vt 0.000000 0.000000
vt 0.000000 0.000000
vt 0.500000 0.500000
vt 0.000000 0.500000
vt 0.500000 0.000000
vt 0.000000 0.500000
vt 0.000000 0.000000
vt 0.500000 0.000000
vt 0.000000 0.500000
vt 0.000000 0.000000
vt 0.500000 0.000000
vt 0.000000 0.500000
vt 0.000000 0.000000
vt 0.500000 0.000000
vt 0.000000 0.500000
vt 0.000000 0.000000
vt 0.500000 0.000000
vt 0.000000 0.000000
vt 0.500000 0.000000
vt 0.000000 0.500000
vt 0.500000 0.000000
vt 0.000000 0.500000
vt 0.000000 0.000000
vt 0.500000 0.000000
vt 0.500000 0.000000
vt 0.000000 0.500000
vt 0.500000 0.000000
vt 0.000000 0.500000
vt 0.000000 0.000000
vt 0.500000 0.000000
vt 0.000000 0.500000
vt 0.000000 0.000000
vt 0.500000 0.000000
vt 0.000000 0.500000
vt 0.000000 0.000000
vt 0.500000 0.000000
vt 0.000000 0.000000
vt 0.500000 0.000000
vt 0.000000 0.500000
vt 0.000000 0.000000
vt 0.500000 0.000000
vt 0.000000 0.500000
vt 0.500000 0.000000
vt 0.500000 0.000000
vt 0.000000 0.000000
vt 0.500000 0.000000
vt 0.000000 0.000000
vt 0.500000 0.000000
vt 0.000000 0.500000
vt 0.500000 0.000000
vt 0.000000 0.000000
vt 0.000000 0.500000
vt 0.000000 0.000000
vt 0.500000 0.000000
vt 0.500000 0.000000
vt 0.500000 0.000000
vt 0.500000 0.000000
vt 0.500000 0.000000
vt 0.500000 0.000000
vt 0.000000 0.000000
vt 0.500000 0.000000
vt 0.500000 0.000000
vt 0.500000 0.000000
vt 0.000000 0.500000
vt 0.500000 0.000000
vt 0.500000 0.000000
vt 0.000000 0.000000
vt 0.500000 0.000000
vt 0.000000 0.500000
vt 0.500000 0.000000
vt 0.500000 0.000000
vt 0.500000 0.000000
vt 0.000000 0.500000
vt 0.500000 0.000000
vt 0.500000 0.000000
vt 0.500000 0.000000
vt 0.500000 0.500000
vt 0.500000 0.000000
vt 0.500000 0.000000
vt 0.500000 0.000000
vt 0.500000 0.000000
vt 0.500000 0.000000
vt 0.500000 0.000000
vt 0.500000 0.000000
vt 0.500000 0.000000
vt 0.500000 0.000000
vt 0.500000 0.000000
vt 0.500000 0.000000
vt 0.500000 0.000000
vt 0.500000 0.000000
vt 0.500000 0.000000
vt 0.000000 0.500000
vt 0.000000 0.000000
vt 0.000000 0.500000
vt 0.000000 0.000000
vt 0.000000 0.500000
vt 0.000000 0.000000
vt 0.500000 0.000000
vt 0.000000 0.500000
vt 0.000000 0.000000
vt 0.500000 0.000000
vt 0.000000 0.500000
vt 0.000000 0.000000
vt 0.500000 0.000000
vt 0.000000 0.500000
vt 0.000000 0.000000
vt 0.500000 0.000000
vt 0.000000 0.500000
vt 0.000000 0.000000
vt 0.500000 0.000000
vt 0.000000 0.500000
vt 0.000000 0.000000
vt 0.500000 0.000000
vt 0.000000 0.500000
vt 0.000000 0.000000
vt 0.000000 0.500000
vt 0.000000 0.000000
vt 0.500000 0.000000
vt 0.000000 0.500000
vt 0.000000 0.000000
vt 0.500000 0.000000
vt 0.000000 0.500000
vt 0.000000 0.000000
vt 0.500000 0.000000
vt 0.000000 0.500000
vt 0.000000 0.000000
vt 0.500000 0.000000
vt 0.000000 0.500000
vt 0.000000 0.000000
vt 0.500000 0.000000
vt 0.000000 0.500000
vt 0.000000 0.000000
vt 0.500000 0.000000
vt 0.000000 0.500000
vt 0.000000 0.000000
vt 0.000000 0.000000
vt 0.500000 0.500000
vt 0.000000 0.500000
vt 0.000000 0.500000
vt 0.000000 0.000000
vt 0.500000 0.000000
vt 0.000000 0.500000
vt 0.000000 0.000000
vt 0.500000 0.000000
vt 0.000000 0.500000
vt 0.000000 0.000000
vt 0.500000 0.000000
vt 0.000000 0.500000
vt 0.000000 0.000000
vt 0.500000 0.000000
vt 0.000000 0.500000
vt 0.000000 0.000000
vt 0.000000 0.500000
vt 0.500000 0.000000
vt 0.000000 0.500000
vt 0.500000 0.000000
vt 0.000000 0.500000
vt 0.500000 0.000000
vt 0.000000 0.500000
vt 0.000000 0.000000
vt 0.500000 0.000000
vt 0.000000 0.500000
vt 0.000000 0.000000
vt 0.500000 0.000000
vt 0.000000 0.500000
vt 0.000000 0.000000
vt 0.500000 0.000000
vt 0.000000 0.500000
vt 0.500000 0.000000
vt 0.000000 0.500000
vt 0.000000 0.000000
vt 0.000000 0.000000
vt 0.500000 0.500000
vt 0.000000 0.500000
vt 0.000000 0.500000
vt 0.000000 0.000000
vt 0.500000 0.000000
vt 0.000000 0.500000
vt 0.000000 0.000000
vt 0.500000 0.000000
vt 0.000000 0.500000
vt 0.000000 0.000000
vt 0.500000 0.000000
vt 0.000000 0.500000
vt 0.000000 0.000000
vt 0.500000 0.000000
vt 0.000000 0.500000
vt 0.000000 0.000000
vt 0.500000 0.000000
vt 0.000000 0.500000
vt 0.000000 0.000000
vt 0.000000 0.500000
vt 0.000000 0.000000
vt 0.000000 0.500000
vt 0.000000 0.500000
vt 0.000000 0.000000
vt 0.500000 0.000000
vt 0.000000 0.500000
vt 0.000000 0.000000
vt 0.500000 0.000000
vt 0.000000 0.500000
vt 0.000000 0.000000
vt 0.500000 0.000000
vt 0.000000 0.500000
vt 0.000000 0.000000
vt 0.000000 0.000000
vt 0.500000 0.500000
vt 0.000000 0.500000
vt 0.000000 0.500000
vt 0.000000 0.500000
vt 0.000000 0.000000
vt 0.500000 0.000000
vt 0.000000 0.500000
vt 0.000000 0.000000
vt 0.500000 0.000000
vt 0.000000 0.500000
vt 0.000000 0.000000
vt 0.500000 0.500000
vt 0.000000 0.500000
vt 0.500000 0.000000
vt 0.000000 0.500000
vt 0.000000 0.000000
vt 0.000000 0.500000
vt 0.000000 0.000000
vt 0.000000 0.000000
vt 0.500000 0.500000
vt 0.000000 0.500000
vt 0.500000 0.000000
vt 0.000000 0.500000
vt 0.000000 0.000000
vt 0.500000 0.000000
vt 0.000000 0.500000
vt 0.000000 0.000000
vt 0.500000 0.000000
vt 0.000000 0.500000
vt 0.000000 0.000000
vt 0.500000 0.000000
vt 0.000000 0.500000
vt 0.500000 0.000000
vt 0.000000 0.500000
vt 0.000000 0.000000
vt 0.500000 0.500000
vt 0.500000 0.000000
vt 0.500000 0.500000
vt 0.500000 0.500000
vt 0.500000 0.500000
vt 0.500000 0.500000
vt 0.500000 0.500000
vt 0.500000 0.500000
vt 0.500000 0.500000
vt 0.500000 0.500000
vt 0.500000 0.500000
vt 0.500000 0.500000
vt 0.500000 0.500000
vt 0.500000 0.000000
vt 0.500000 0.500000
vt 0.500000 0.500000
vt 0.500000 0.500000
vt 0.500000 0.500000
vt 0.500000 0.500000
vt 0.500000 0.500000
vt 0.500000 0.500000
vt 0.500000 0.500000
vt 0.500000 0.500000
vt 0.500000 0.500000
vt 0.500000 0.500000
vt 0.500000 0.500000
vt 0.500000 0.500000
vt 0.500000 0.500000
vt 0.500000 0.500000
vt 0.500000 0.500000
vt 0.500000 0.500000
vt 0.500000 0.500000
vt 0.500000 0.500000
vt 0.500000 0.500000
vt 0.500000 0.500000
vt 0.500000 0.500000
vt 0.500000 0.500000
vt 0.500000 0.500000
vt 0.500000 0.500000
vt 0.500000 0.500000
vt 0.500000 0.500000
vt 0.500000 0.500000
vt 0.500000 0.500000
vt 0.500000 0.500000
vt 0.500000 0.500000
vt 0.500000 0.500000
vt 0.500000 0.500000
vt 0.500000 0.500000
vt 0.500000 0.500000
vt 0.500000 0.500000
vt 0.500000 0.500000
vt 0.500000 0.500000
vt 0.500000 0.500000
vt 0.500000 0.500000
vt 0.500000 0.500000
vt 0.500000 0.500000
vt 0.500000 0.500000
vt 0.500000 0.500000
vt 0.500000 0.500000
vt 0.500000 0.500000
vt 0.500000 0.500000
vt 0.500000 0.500000
vt 0.500000 0.500000
vt 0.500000 0.500000
vt 0.500000 0.500000
vt 0.500000 0.500000
vt 0.500000 0.500000
vt 0.500000 0.500000
vt 0.500000 0.500000
vt 0.500000 0.500000
vt 0.500000 0.500000
vt 0.500000 0.500000
vt 0.500000 0.500000
vt 0.500000 0.500000
vt 0.500000 0.500000
vt 0.500000 0.500000
vt 0.500000 0.500000
vt 0.500000 0.500000
vt 0.500000 0.000000
vt 0.500000 0.500000
vt 0.500000 0.500000
vt 0.500000 0.500000
vt 0.500000 0.500000
vt 0.500000 0.500000
vt 0.500000 0.500000
vt 0.500000 0.500000
vt 0.500000 0.500000
vt 0.500000 0.500000
vt 0.500000 0.500000
vt 0.500000 0.500000
vt 0.500000 0.500000
vt 0.500000 0.500000
vt 0.500000 0.500000
vt 0.500000 0.500000
vt 0.500000 0.500000
vt 0.500000 0.500000
vt 0.500000 0.500000
vt 0.500000 0.500000
vt 0.500000 0.000000
vt 0.500000 0.500000
vt 0.500000 0.500000
vt 0.500000 0.000000
vt 0.500000 0.500000
vt 0.500000 0.500000
vt 0.500000 0.000000
vt 0.500000 0.500000
vt 0.500000 0.500000
vn 0.7963 0.6049 0.0000
vn -0.7963 0.0000 -0.6049
vn -0.7963 0.6049 0.0000
vn -0.7963 -0.6049 -0.0000
vn 0.6049 -0.0000 0.7963
vn 0.6049 0.0000 -0.7963
vn 0.0000 0.7963 0.6049
vn 0.7963 -0.6049 -0.0000
vn 0.0000 0.7963 -0.6049
vn -0.6049 0.7963 0.0000
vn -1.0000 0.0000 0.0000
vn -0.0000 0.0000 -1.0000
vn 0.0000 -1.0000 -0.0000
vn -0.0000 1.0000 0.0000
vn 1.0000 0.0000 0.0000
vn -0.0000 -0.0000 1.0000
vn 0.6049 0.7963 0.0000
vn 0.0000 -0.6049 -0.7963
vn -0.6049 0.0000 -0.7963
vn 0.6049 -0.7963 -0.0000
vn 0.0000 0.6049 0.7963
vn 0.0000 0.6049 -0.7963
vn -0.6049 -0.0000 0.7963
vn -0.7963 -0.0000 0.6049
vn 0.0000 -0.6049 0.7963
vn -0.6049 -0.7963 -0.0000
vn 0.7963 -0.0000 0.6049
vn 0.0000 -0.7963 0.6049
vn 0.0000 -0.7963 -0.6049
vn 0.7963 0.0000 -0.6049
s 1
f 124/1/1 17/2/1 68/3/1
f 92/4/2 48/5/2 49/6/2
f 19/7/3 104/8/3 69/9/3
f 34/10/4 76/11/4 35/12/4
f 65/13/1 27/14/1 25/15/1
f 127/16/1 71/17/1 72/18/1
f 94/19/5 31/20/5 53/21/5
f 114/22/6 22/23/6 83/24/6
f 97/25/7 9/26/7 7/27/7
f 110/28/8 6/29/8 4/30/8
f 93/31/9 49/32/9 44/33/9
f 79/34/5 113/35/5 78/36/5
f 16/37/10 117/38/10 85/39/10
f 42/40/11 38/41/11 40/42/11
f 43/43/11 40/44/11 41/45/11
f 21/46/11 41/47/11 39/48/11
f 48/49/12 40/44/12 45/50/12
f 44/51/12 47/52/12 41/45/12
f 49/53/12 45/54/12 47/55/12
f 46/56/12 41/47/12 40/42/12
f 74/57/13 39/58/13 41/45/13
f 25/59/14 50/60/14 63/61/14
f 33/62/15 52/63/15 54/64/15
f 66/65/14 55/66/14 52/67/14
f 64/68/14 52/63/14 50/69/14
f 31/70/15 54/71/15 51/72/15
f 7/73/16 57/74/16 54/64/16
f 84/75/11 55/66/11 63/61/11
f 58/76/13 57/74/13 59/77/13
f 80/78/15 45/54/15 67/79/15
f 61/80/13 51/81/13 54/64/13
f 62/82/13 54/71/13 57/83/13
f 65/13/14 63/84/14 55/85/14
f 73/86/14 63/84/14 50/69/14
f 13/87/16 52/63/16 55/85/16
f 53/88/15 51/81/15 50/69/15
f 9/89/16 55/66/16 57/83/16
f 17/90/14 45/54/14 40/42/14
f 68/91/14 40/44/14 38/92/14
f 69/93/14 38/41/14 67/79/14
f 70/94/14 50/60/14 67/79/14
f 71/95/14 67/96/14 38/92/14
f 72/97/14 38/41/14 63/61/14
f 19/7/14 67/96/14 45/50/14
f 35/98/13 47/52/13 75/99/13
f 28/100/13 75/101/13 39/48/13
f 77/102/13 39/58/13 75/99/13
f 76/103/13 41/47/13 47/55/13
f 4/104/13 59/105/13 39/48/13
f 60/106/13 59/105/13 51/72/13
f 11/107/13 75/101/13 51/72/13
f 6/108/13 51/81/13 59/77/13
f 47/55/15 81/109/15 75/101/15
f 79/110/15 47/52/15 45/50/15
f 82/111/15 51/81/15 75/99/15
f 22/112/15 67/96/15 50/69/15
f 83/113/15 50/60/15 51/72/15
f 81/114/15 67/96/15 75/99/15
f 24/115/15 75/101/15 67/79/15
f 16/37/11 59/105/11 57/83/11
f 14/116/11 57/74/11 55/85/11
f 87/117/11 59/105/11 63/61/11
f 85/118/11 63/84/11 59/77/11
f 88/119/11 63/84/11 38/92/11
f 86/120/11 39/58/11 59/77/11
f 1/121/11 39/58/11 38/92/11
f 89/122/11 38/41/11 39/48/11
f 123/123/15 115/124/15 23/125/15
f 34/10/13 29/126/13 108/127/13
f 124/1/14 18/128/14 103/129/14
f 2/130/11 20/131/11 3/132/11
f 10/133/13 110/134/13 109/135/13
f 128/136/11 120/137/11 118/138/11
f 122/139/15 113/140/15 111/141/15
f 126/142/12 93/143/12 91/144/12
f 36/145/15 95/146/15 94/147/15
f 127/16/14 107/148/14 105/149/14
f 26/150/14 102/151/14 27/152/14
f 125/153/11 15/154/11 116/155/11
f 115/156/17 83/157/17 82/158/17
f 12/159/16 97/160/16 96/161/16
f 30/162/18 35/163/18 28/164/18
f 95/165/17 33/166/17 31/167/17
f 1/168/19 20/169/19 21/170/19
f 123/123/20 24/171/20 22/172/20
f 78/173/17 112/174/17 81/175/17
f 105/176/21 70/177/21 71/178/21
f 102/179/3 66/180/3 64/181/3
f 118/182/19 86/183/19 87/184/19
f 74/57/8 30/185/8 28/164/8
f 112/186/6 80/187/6 81/175/6
f 104/188/22 68/189/22 69/9/22
f 119/190/23 88/191/23 89/192/23
f 96/193/24 7/194/24 56/195/24
f 116/196/19 16/197/19 14/198/19
f 27/199/21 64/200/21 25/15/21
f 108/201/25 74/202/25 76/203/25
f 84/204/26 116/205/26 14/206/26
f 128/136/26 87/207/26 88/208/26
f 100/209/8 62/210/8 58/211/8
f 8/212/27 13/213/27 9/214/27
f 90/215/23 42/216/23 43/217/23
f 98/218/25 58/219/25 60/220/25
f 5/221/18 11/222/18 6/223/18
f 12/159/28 56/224/28 13/225/28
f 42/40/26 3/226/26 1/168/26
f 126/142/29 46/227/29 48/228/29
f 109/229/25 4/230/25 77/231/25
f 23/232/5 82/233/5 24/234/5
f 101/235/22 65/236/22 66/237/22
f 33/238/6 36/239/6 37/240/6
f 61/80/4 98/241/4 60/220/4
f 122/139/20 79/242/20 80/243/20
f 120/244/10 89/245/10 86/246/10
f 99/247/18 61/248/18 62/249/18
f 85/39/23 125/250/23 84/251/23
f 106/252/22 72/253/22 73/254/22
f 10/133/4 77/255/4 11/256/4
f 21/257/10 90/258/10 43/259/10
f 103/260/21 19/261/21 17/262/21
f 91/263/30 44/264/30 46/265/30
f 107/266/3 73/267/3 70/268/3
f 37/269/20 94/270/20 53/21/20
f 121/271/13 100/272/13 98/273/13
f 52/67/15 53/274/15 50/60/15
f 56/275/16 54/71/16 52/67/16
f 124/1/1 103/276/1 17/2/1
f 92/4/2 126/277/2 48/5/2
f 19/7/3 18/278/3 104/8/3
f 34/10/4 108/279/4 76/11/4
f 65/13/1 26/280/1 27/14/1
f 127/16/1 105/281/1 71/17/1
f 94/19/5 95/282/5 31/20/5
f 114/22/6 123/283/6 22/23/6
f 97/25/7 8/284/7 9/26/7
f 110/28/8 5/285/8 6/29/8
f 93/31/9 92/286/9 49/32/9
f 79/34/5 111/287/5 113/35/5
f 16/37/10 15/288/10 117/38/10
f 42/40/11 1/289/11 38/41/11
f 43/43/11 42/290/11 40/44/11
f 21/46/11 43/291/11 41/47/11
f 48/49/12 46/292/12 40/44/12
f 44/51/12 49/293/12 47/52/12
f 49/53/12 48/294/12 45/54/12
f 46/56/12 44/295/12 41/47/12
f 74/57/13 28/296/13 39/58/13
f 25/59/14 64/297/14 50/60/14
f 33/62/15 37/298/15 52/63/15
f 66/65/14 65/299/14 55/66/14
f 64/68/14 66/300/14 52/63/14
f 31/70/15 33/301/15 54/71/15
f 7/73/16 9/302/16 57/74/16
f 84/75/11 14/303/11 55/66/11
f 58/76/13 62/304/13 57/74/13
f 80/78/15 79/305/15 45/54/15
f 61/80/13 60/306/13 51/81/13
f 62/82/13 61/307/13 54/71/13
f 65/13/14 25/308/14 63/84/14
f 73/86/14 72/309/14 63/84/14
f 13/87/16 56/310/16 52/63/16
f 53/88/15 31/311/15 51/81/15
f 9/89/16 13/312/16 55/66/16
f 17/90/14 19/313/14 45/54/14
f 68/91/14 17/314/14 40/44/14
f 69/93/14 68/315/14 38/41/14
f 70/94/14 73/316/14 50/60/14
f 71/95/14 70/317/14 67/96/14
f 72/97/14 71/318/14 38/41/14
f 19/7/14 69/319/14 67/96/14
f 35/98/13 76/320/13 47/52/13
f 28/100/13 35/321/13 75/101/13
f 77/102/13 4/322/13 39/58/13
f 76/103/13 74/323/13 41/47/13
f 4/104/13 6/324/13 59/105/13
f 60/106/13 58/325/13 59/105/13
f 11/107/13 77/326/13 75/101/13
f 6/108/13 11/327/13 51/81/13
f 47/55/15 78/173/15 81/109/15
f 79/110/15 78/328/15 47/52/15
f 82/111/15 83/329/15 51/81/15
f 22/112/15 24/330/15 67/96/15
f 83/113/15 22/331/15 50/60/15
f 81/114/15 80/332/15 67/96/15
f 24/115/15 82/333/15 75/101/15
f 16/37/11 85/334/11 59/105/11
f 14/116/11 16/335/11 57/74/11
f 87/117/11 86/336/11 59/105/11
f 85/118/11 84/337/11 63/84/11
f 88/119/11 87/338/11 63/84/11
f 86/120/11 89/339/11 39/58/11
f 1/121/11 21/340/11 39/58/11
f 89/122/11 88/341/11 38/41/11
f 123/123/15 114/342/15 115/124/15
f 34/10/13 30/343/13 29/126/13
f 124/1/14 104/344/14 18/128/14
f 2/130/11 90/258/11 20/131/11
f 10/133/13 5/285/13 110/134/13
f 128/136/11 119/345/11 120/137/11
f 122/139/15 112/346/15 113/140/15
f 126/142/12 92/286/12 93/143/12
f 36/145/15 32/347/15 95/146/15
f 127/16/14 106/348/14 107/148/14
f 26/150/14 101/349/14 102/151/14
f 125/153/11 117/350/11 15/154/11
f 115/156/17 114/342/17 83/157/17
f 12/159/16 8/284/16 97/160/16
f 30/162/18 34/351/18 35/163/18
f 95/165/17 32/347/17 33/166/17
f 1/168/19 3/352/19 20/169/19
f 123/123/20 23/353/20 24/171/20
f 78/173/17 113/35/17 112/174/17
f 105/176/21 107/354/21 70/177/21
f 102/179/3 101/349/3 66/180/3
f 118/182/19 120/355/19 86/183/19
f 74/57/8 29/356/8 30/185/8
f 112/186/6 122/357/6 80/187/6
f 104/188/22 124/358/22 68/189/22
f 119/190/23 128/359/23 88/191/23
f 96/193/24 97/360/24 7/194/24
f 116/196/19 15/288/19 16/197/19
f 27/199/21 102/361/21 64/200/21
f 108/201/25 29/356/25 74/202/25
f 84/204/26 125/153/26 116/205/26
f 128/136/26 118/362/26 87/207/26
f 100/209/8 99/363/8 62/210/8
f 8/212/27 12/364/27 13/213/27
f 90/215/23 2/365/23 42/216/23
f 98/218/25 100/366/25 58/219/25
f 5/221/18 10/367/18 11/222/18
f 12/159/28 96/368/28 56/224/28
f 42/40/26 2/365/26 3/226/26
f 126/142/29 91/369/29 46/227/29
f 109/229/25 110/370/25 4/230/25
f 23/232/5 115/371/5 82/233/5
f 101/235/22 26/280/22 65/236/22
f 33/238/6 32/372/6 36/239/6
f 61/80/4 121/373/4 98/241/4
f 122/139/20 111/374/20 79/242/20
f 120/244/10 119/345/10 89/245/10
f 99/247/18 121/373/18 61/248/18
f 85/39/23 117/375/23 125/250/23
f 106/252/22 127/376/22 72/253/22
f 10/133/4 109/377/4 77/255/4
f 21/257/10 20/378/10 90/258/10
f 103/260/21 18/278/21 19/261/21
f 91/263/30 93/379/30 44/264/30
f 107/266/3 106/348/3 73/267/3
f 37/269/20 36/239/20 94/270/20
f 121/271/13 99/363/13 100/272/13
f 52/67/15 37/269/15 53/274/15
f 56/275/16 7/380/16 54/71/16
