# Blender v2.79 (sub 0) OBJ File: 'box5.blend'
# www.blender.org
o Cube
v -0.141667 -0.166667 0.475000
v -0.141667 -0.141667 0.500000
v -0.166667 -0.141667 0.475000
v -0.166667 0.141667 0.475000
v -0.141667 0.141667 0.500000
v -0.141667 0.166667 0.475000
v -0.166667 -0.141667 -0.475000
v -0.141667 -0.141667 -0.500000
v -0.141667 -0.166667 -0.475000
v -0.141667 0.166667 -0.475000
v -0.141667 0.141667 -0.500000
v -0.166667 0.141667 -0.475000
v 0.166667 -0.141667 0.475000
v 0.141667 -0.141667 0.500000
v 0.141667 -0.166667 0.475000
v 0.141667 0.166667 0.475000
v 0.141667 0.141667 0.500000
v 0.166667 0.141667 0.475000
v 0.141667 -0.166667 -0.475000
v 0.141667 -0.141667 -0.500000
v 0.166667 -0.141667 -0.475000
v 0.141667 0.166667 -0.475000
v 0.166667 0.141667 -0.475000
v 0.141667 0.141667 -0.500000
v -0.166667 -0.141667 -0.191667
v -0.141667 -0.166667 -0.191667
v -0.141667 -0.166667 -0.141667
v -0.166667 -0.141667 -0.141667
v -0.166667 -0.141667 0.191667
v -0.166667 -0.141667 0.141667
v -0.141667 -0.166667 0.141667
v -0.141667 -0.166667 0.191667
v -0.166667 0.141667 0.191667
v -0.141667 0.166667 0.191667
v -0.141667 0.166667 0.141667
v -0.166667 0.141667 0.141667
v -0.166667 0.141667 -0.191667
v -0.166667 0.141667 -0.141667
v -0.141667 0.166667 -0.141667
v -0.141667 0.166667 -0.191667
v 0.166667 -0.141667 0.191667
v 0.141667 -0.166667 0.191667
v 0.141667 -0.166667 0.141667
v 0.166667 -0.141667 0.141667
v 0.166667 -0.141667 -0.191667
v 0.166667 -0.141667 -0.141667
v 0.141667 -0.166667 -0.141667
v 0.141667 -0.166667 -0.191667
v 0.166667 0.141667 -0.191667
v 0.141667 0.166667 -0.191667
v 0.141667 0.166667 -0.141667
v 0.166667 0.141667 -0.141667
v 0.166667 0.141667 0.191667
v 0.166667 0.141667 0.141667
v 0.141667 0.166667 0.141667
v 0.141667 0.166667 0.191667
vt 0.500000 0.000000
vt 0.000000 0.500000
vt 0.000000 0.000000
vt 0.500000 0.000000
vt 0.000000 0.500000
vt 0.000000 0.000000
vt 0.500000 0.000000
vt 0.000000 0.500000
vt 0.000000 0.000000
vt 0.500000 0.000000
vt 0.000000 0.500000
vt 0.000000 0.000000
vt 0.500000 0.000000
vt 0.000000 0.500000
vt 0.000000 0.000000
vt 0.500000 0.000000
vt 0.000000 0.500000
vt 0.000000 0.000000
vt 0.500000 0.000000
vt 0.000000 0.500000
vt 0.000000 0.000000
vt 0.500000 0.000000
vt 0.000000 0.500000
vt 0.000000 0.000000
vt 0.500000 0.000000
vt 0.000000 0.500000
vt 0.000000 0.000000
vt 0.500000 0.000000
vt 0.000000 0.500000
vt 0.000000 0.000000
vt 0.500000 0.000000
vt 0.000000 0.500000
vt 0.000000 0.000000
vt 0.500000 0.000000
vt 0.000000 0.500000
vt 0.000000 0.000000
vt 0.500000 0.000000
vt 0.000000 0.500000
vt 0.000000 0.000000
vt 0.000000 0.000000
vt 0.500000 0.000000
vt 0.500000 0.500000
vt 0.000000 0.000000
vt 0.500000 0.000000
vt 0.500000 0.500000
vt 0.000000 0.000000
vt 0.500000 0.000000
vt 0.500000 0.500000
vt 0.000000 0.000000
vt 0.500000 0.500000
vt 0.000000 0.000000
vt 0.500000 0.000000
vt 0.500000 0.500000
vt 0.000000 0.000000
vt 0.500000 0.500000
vt 0.000000 0.000000
vt 0.500000 0.000000
vt 0.500000 0.500000
vt 0.500000 0.500000
vt 0.500000 0.000000
vt 0.500000 0.000000
vt 0.000000 0.500000
vt 0.000000 0.000000
vt 0.000000 0.500000
vt 0.000000 0.000000
vt 0.500000 0.000000
vt 0.000000 0.500000
vt 0.000000 0.000000
vt 0.500000 0.000000
vt 0.000000 0.500000
vt 0.000000 0.000000
vt 0.500000 0.000000
vt 0.000000 0.500000
vt 0.000000 0.000000
vt 0.500000 0.000000
vt 0.000000 0.500000
vt 0.000000 0.000000
vt 0.500000 0.000000
vt 0.000000 0.500000
vt 0.000000 0.500000
vt 0.000000 0.000000
vt 0.000000 0.500000
vt 0.000000 0.000000
vt 0.000000 0.500000
vt 0.000000 0.000000
vt 0.500000 0.000000
vt 0.500000 0.000000
vt 0.000000 0.500000
vt 0.500000 0.000000
vt 0.000000 0.500000
vt 0.000000 0.000000
vt 0.000000 0.000000
vt 0.500000 0.000000
vt 0.000000 0.500000
vt 0.000000 0.500000
vt 0.000000 0.000000
vt 0.500000 0.000000
vt 0.500000 0.000000
vt 0.000000 0.500000
vt 0.500000 0.000000
vt 0.000000 0.500000
vt 0.000000 0.000000
vt 0.000000 0.000000
vt 0.000000 0.000000
vt 0.000000 0.000000
vt 0.000000 0.500000
vt 0.500000 0.000000
vt 0.500000 0.000000
vt 0.000000 0.000000
vt 0.500000 0.000000
vt 0.000000 0.500000
vt 0.000000 0.000000
vt 0.500000 0.000000
vt 0.000000 0.000000
vt 0.500000 0.000000
vt 0.000000 0.500000
vt 0.000000 0.000000
vt 0.000000 0.500000
vt 0.000000 0.000000
vt 0.500000 0.000000
vt 0.000000 0.500000
vt 0.000000 0.500000
vt 0.000000 0.000000
vt 0.500000 0.000000
vt 0.000000 0.500000
vt 0.500000 0.000000
vt 0.000000 0.000000
vt 0.500000 0.500000
vt 0.500000 0.500000
vt 0.500000 0.500000
vt 0.500000 0.500000
vt 0.500000 0.500000
vt 0.500000 0.500000
vt 0.500000 0.500000
vt 0.500000 0.500000
vt 0.500000 0.500000
vt 0.500000 0.500000
vt 0.500000 0.500000
vt 0.500000 0.500000
vt 0.500000 0.500000
vt 0.500000 0.500000
vt 0.500000 0.500000
vt 0.500000 0.500000
vt 0.500000 0.500000
vt 0.500000 0.500000
vt 0.500000 0.500000
vt 0.500000 0.500000
vt 0.500000 0.500000
vt 0.500000 0.500000
vt 0.500000 0.500000
vt 0.500000 0.500000
vt 0.500000 0.500000
vt 0.500000 0.500000
vt 0.500000 0.500000
vt 0.500000 0.500000
vt 0.500000 0.500000
vt 0.500000 0.500000
vt 0.500000 0.500000
vn 0.0000 1.0000 0.0000
vn 0.0000 -1.0000 0.0000
vn 1.0000 0.0000 0.0000
vn 0.0000 0.0000 -1.0000
vn -1.0000 0.0000 0.0000
vn 0.0000 0.0000 1.0000
vn -0.5774 -0.5774 0.5773
vn -0.5774 0.5774 0.5773
vn -0.5774 -0.5774 -0.5773
vn -0.5774 0.5774 -0.5773
vn 0.5774 -0.5774 0.5773
vn 0.5774 0.5774 0.5773
vn 0.5774 -0.5774 -0.5773
vn 0.5774 0.5774 -0.5773
vn -0.7071 -0.7071 0.0000
vn -0.7071 0.7071 0.0000
vn 0.7071 -0.7071 0.0000
vn 0.7071 0.7071 0.0000
vn -0.7071 0.0000 0.7071
vn -0.7071 0.0000 -0.7071
vn 0.0000 -0.7071 -0.7071
vn 0.0000 0.7071 -0.7071
vn 0.7071 0.0000 -0.7071
vn 0.7071 0.0000 0.7071
vn 0.0000 -0.7071 0.7071
vn 0.0000 0.7071 0.7071
s 1
f 10/1/1 50/2/1 22/3/1
f 19/4/2 26/5/2 9/6/2
f 23/7/3 45/8/3 21/9/3
f 42/10/2 1/11/2 32/12/2
f 34/13/1 16/14/1 56/15/1
f 11/16/4 20/17/4 8/18/4
f 53/19/3 13/20/3 41/21/3
f 52/22/3 44/23/3 46/24/3
f 37/25/5 7/26/5 25/27/5
f 39/28/1 55/29/1 51/30/1
f 36/31/5 28/32/5 30/33/5
f 17/34/6 2/35/6 14/36/6
f 47/37/2 31/38/2 27/39/2
f 1/40/7 2/41/7 3/42/7
f 4/43/8 5/44/8 6/45/8
f 7/46/9 8/47/9 9/48/9
f 10/49/10 11/16/10 12/50/10
f 13/51/11 14/52/11 15/53/11
f 16/54/12 17/34/12 18/55/12
f 19/56/13 20/57/13 21/58/13
f 22/3/14 23/7/14 24/59/14
f 26/60/15 28/32/15 25/27/15
f 30/61/15 32/62/15 29/63/15
f 34/13/16 36/64/16 33/65/16
f 38/66/16 40/67/16 37/68/16
f 42/10/17 44/23/17 41/21/17
f 46/69/17 48/70/17 45/71/17
f 50/72/18 52/73/18 49/74/18
f 54/75/18 56/76/18 53/77/18
f 1/78/15 29/79/15 32/12/15
f 5/44/19 3/80/19 2/81/19
f 10/1/16 37/82/16 40/83/16
f 8/47/20 12/84/20 11/85/20
f 9/86/21 20/17/21 19/56/21
f 22/87/22 11/88/22 10/49/22
f 21/89/23 24/90/23 23/91/23
f 19/4/17 45/8/17 48/92/17
f 16/93/18 53/94/18 56/15/18
f 14/52/24 18/95/24 17/96/24
f 15/97/25 2/35/25 1/40/25
f 6/98/26 17/99/26 16/54/26
f 26/60/15 7/26/15 9/6/15
f 31/100/15 28/32/15 27/39/15
f 34/13/16 4/101/16 6/102/16
f 39/28/16 36/64/16 35/103/16
f 42/10/17 13/20/17 15/104/17
f 47/37/17 44/23/17 43/105/17
f 50/72/18 23/106/18 22/3/18
f 55/107/18 52/73/18 51/30/18
f 51/108/1 40/67/1 39/109/1
f 56/110/1 35/111/1 34/112/1
f 27/113/2 48/70/2 47/114/2
f 32/115/2 43/116/2 42/117/2
f 46/69/3 49/118/3 52/119/3
f 41/120/3 54/121/3 53/77/3
f 30/61/5 33/122/5 36/123/5
f 25/124/5 38/125/5 37/68/5
f 4/126/5 29/79/5 3/127/5
f 10/1/1 40/128/1 50/2/1
f 19/4/2 48/129/2 26/5/2
f 23/7/3 49/130/3 45/8/3
f 42/10/2 15/53/2 1/11/2
f 34/13/1 6/45/1 16/14/1
f 11/16/4 24/59/4 20/17/4
f 53/19/3 18/55/3 13/20/3
f 52/22/3 54/131/3 44/23/3
f 37/25/5 12/50/5 7/26/5
f 39/28/1 35/132/1 55/29/1
f 36/31/5 38/133/5 28/32/5
f 17/34/6 5/134/6 2/35/6
f 47/37/2 43/135/2 31/38/2
f 26/60/15 27/136/15 28/32/15
f 30/61/15 31/137/15 32/62/15
f 34/13/16 35/132/16 36/64/16
f 38/66/16 39/138/16 40/67/16
f 42/10/17 43/135/17 44/23/17
f 46/69/17 47/139/17 48/70/17
f 50/72/18 51/140/18 52/73/18
f 54/75/18 55/141/18 56/76/18
f 1/78/15 3/42/15 29/79/15
f 5/44/19 4/142/19 3/80/19
f 10/1/16 12/50/16 37/82/16
f 8/47/20 7/143/20 12/84/20
f 9/86/21 8/144/21 20/17/21
f 22/87/22 24/59/22 11/88/22
f 21/89/23 20/145/23 24/90/23
f 19/4/17 21/58/17 45/8/17
f 16/93/18 18/55/18 53/94/18
f 14/52/24 13/146/24 18/95/24
f 15/97/25 14/147/25 2/35/25
f 6/98/26 5/134/26 17/99/26
f 26/60/15 25/148/15 7/26/15
f 31/100/15 30/149/15 28/32/15
f 34/13/16 33/150/16 4/101/16
f 39/28/16 38/133/16 36/64/16
f 42/10/17 41/151/17 13/20/17
f 47/37/17 46/152/17 44/23/17
f 50/72/18 49/130/18 23/106/18
f 55/107/18 54/131/18 52/73/18
f 51/108/1 50/153/1 40/67/1
f 56/110/1 55/141/1 35/111/1
f 27/113/2 26/154/2 48/70/2
f 32/115/2 31/137/2 43/116/2
f 46/69/3 45/155/3 49/118/3
f 41/120/3 44/156/3 54/121/3
f 30/61/5 29/157/5 33/122/5
f 25/124/5 28/158/5 38/125/5
f 4/126/5 33/150/5 29/79/5
