# Blender v2.79 (sub 0) OBJ File: 'cylinder4.blend'
# www.blender.org
o Cube_Cube.010
v 0.166667 0.074569 -0.500000
v 0.045183 0.100987 -0.500000
v 0.074569 0.166667 -0.500000
v 0.074569 0.166667 -0.258531
v -0.074569 0.166667 0.008531
v -0.166667 0.074569 0.241469
v -0.074569 0.166667 0.241469
v -0.074569 0.166667 0.258531
v -0.166667 0.074569 0.500000
v -0.074569 0.166667 0.500000
v -0.074569 0.166667 -0.500000
v -0.100987 0.045183 -0.500000
v -0.166667 0.074569 -0.500000
v -0.166667 -0.074569 0.258531
v -0.166667 -0.074569 0.500000
v 0.074569 -0.166667 0.258531
v 0.166667 -0.074569 0.500000
v 0.074569 -0.166667 0.500000
v 0.166667 -0.074569 -0.258531
v 0.166667 -0.074569 -0.500000
v -0.071792 -0.160461 -0.241786
v 0.071792 -0.160461 -0.258214
v 0.071792 -0.160461 -0.241786
v -0.074569 -0.166667 0.500000
v -0.074569 -0.166667 0.258531
v -0.100987 -0.045183 -0.464563
v -0.100987 -0.045183 -0.500000
v 0.045183 -0.100987 -0.500000
v 0.100987 -0.045183 -0.464563
v 0.100987 -0.045183 -0.500000
v -0.045183 -0.100987 0.500000
v 0.100987 0.045183 -0.500000
v -0.166667 -0.074569 -0.500000
v -0.045183 -0.100987 -0.500000
v -0.074569 -0.166667 -0.500000
v -0.045183 0.100987 -0.500000
v 0.074569 -0.166667 -0.500000
v 0.045183 0.100987 0.500000
v 0.074569 0.166667 0.500000
v -0.045183 0.100987 0.500000
v 0.100987 0.045183 0.500000
v 0.166667 0.074569 0.500000
v 0.100987 -0.045183 0.500000
v -0.100987 -0.045183 0.500000
v 0.045183 -0.100987 0.500000
v -0.100987 0.045183 0.500000
v 0.045183 0.100987 0.464563
v -0.100987 0.045183 0.464563
v -0.045183 -0.100987 0.464563
v -0.045183 0.100987 -0.464563
v 0.100987 0.045183 -0.464563
v 0.045183 -0.100987 -0.464563
v 0.045183 -0.100987 0.464563
v -0.100987 0.045183 -0.464563
v -0.045183 0.100987 0.464563
v -0.100987 -0.045183 0.464563
v 0.100987 0.045183 0.464563
v 0.045183 0.100987 -0.464563
v 0.100987 -0.045183 0.464563
v -0.045183 -0.100987 -0.464563
v -0.074569 -0.166667 -0.008531
v -0.166667 -0.074569 -0.241469
v -0.074569 -0.166667 -0.241469
v -0.074569 -0.166667 0.241469
v -0.166667 -0.074569 0.008531
v -0.074569 -0.166667 0.008531
v 0.074569 0.166667 -0.008531
v 0.166667 0.074569 -0.241469
v 0.074569 0.166667 -0.241469
v 0.074569 0.166667 0.241469
v 0.166667 0.074569 0.008531
v 0.074569 0.166667 0.008531
v 0.166667 0.074569 0.258531
v 0.074569 0.166667 0.258531
v 0.074569 -0.166667 0.008531
v 0.166667 -0.074569 0.241469
v 0.074569 -0.166667 0.241469
v 0.074569 -0.166667 -0.241469
v 0.166667 -0.074569 -0.008531
v 0.074569 -0.166667 -0.008531
v 0.074569 -0.166667 -0.258531
v -0.074569 0.166667 -0.241469
v -0.074569 -0.166667 -0.258531
v -0.166667 -0.074569 0.241469
v -0.166667 0.074569 -0.008531
v -0.166667 -0.074569 -0.008531
v -0.166667 0.074569 -0.258531
v -0.166667 -0.074569 -0.258531
v -0.074569 0.166667 -0.258531
v -0.074569 0.166667 -0.008531
v 0.166667 -0.074569 -0.241469
v 0.166667 -0.074569 0.008531
v 0.166667 -0.074569 0.258531
v -0.071792 -0.160461 -0.258214
v -0.160461 0.071792 0.258214
v -0.166667 0.074569 0.258531
v 0.071792 -0.160461 -0.008214
v 0.071792 -0.160461 0.258214
v -0.071792 0.160461 -0.258214
v -0.071792 -0.160461 0.258214
v -0.071792 0.160461 -0.241786
v -0.166667 0.074569 0.008531
v -0.160461 -0.071792 0.008214
v 0.160461 0.071792 -0.241786
v 0.160461 0.071792 0.241786
v 0.166667 0.074569 0.241469
v 0.071792 -0.160461 0.008214
v 0.160461 -0.071792 -0.241786
v -0.160461 -0.071792 -0.258214
v 0.160461 -0.071792 0.008214
v -0.071792 0.160461 -0.008214
v -0.160461 0.071792 -0.008214
v -0.160461 -0.071792 0.241786
v -0.071792 0.160461 0.008214
v 0.160461 -0.071792 0.241786
v 0.160461 0.071792 -0.008214
v 0.166667 0.074569 -0.008531
v -0.071792 0.160461 0.241786
v -0.160461 0.071792 -0.258214
v 0.166667 0.074569 -0.258531
v 0.160461 -0.071792 -0.258214
v -0.071792 -0.160461 0.008214
v 0.071792 -0.160461 0.241786
v 0.071792 0.160461 -0.258214
v 0.071792 0.160461 -0.241786
v 0.160461 0.071792 0.008214
v 0.071792 0.160461 -0.008214
v 0.071792 0.160461 0.008214
v 0.160461 0.071792 0.258214
v 0.071792 0.160461 0.241786
v 0.071792 0.160461 0.258214
v 0.160461 -0.071792 -0.008214
v -0.160461 0.071792 0.241786
v -0.071792 0.160461 0.258214
v -0.160461 -0.071792 -0.241786
v -0.071792 -0.160461 -0.008214
v -0.160461 -0.071792 0.258214
v -0.071792 -0.160461 0.241786
v -0.160461 -0.071792 -0.008214
v -0.160461 0.071792 0.008214
v -0.160461 0.071792 -0.241786
v 0.160461 0.071792 -0.258214
v 0.160461 -0.071792 0.258214
v -0.166667 0.074569 -0.241469
vt 0.500000 0.000000
vt 0.000000 0.500000
vt 0.000000 0.000000
vt 0.000000 0.000000
vt 0.500000 0.500000
vt 0.000000 0.500000
vt 0.500000 0.000000
vt 0.000000 0.500000
vt 0.000000 0.000000
vt 0.500000 0.000000
vt 0.000000 0.500000
vt 0.000000 0.000000
vt 0.500000 0.000000
vt 0.000000 0.500000
vt 0.000000 0.000000
vt 0.500000 0.000000
vt 0.000000 0.500000
vt 0.000000 0.000000
vt 0.500000 0.000000
vt 0.000000 0.500000
vt 0.000000 0.000000
vt 0.500000 0.000000
vt 0.000000 0.500000
vt 0.000000 0.000000
vt 0.500000 0.000000
vt 0.000000 0.500000
vt 0.000000 0.000000
vt 0.500000 0.000000
vt 0.000000 0.500000
vt 0.000000 0.000000
vt 0.500000 0.000000
vt 0.000000 0.500000
vt 0.000000 0.000000
vt 0.500000 0.000000
vt 0.000000 0.500000
vt 0.000000 0.000000
vt 0.000000 0.000000
vt 0.500000 0.500000
vt 0.000000 0.500000
vt 0.500000 0.000000
vt 0.000000 0.500000
vt 0.000000 0.000000
vt 0.500000 0.000000
vt 0.000000 0.500000
vt 0.000000 0.000000
vt 0.500000 0.000000
vt 0.000000 0.500000
vt 0.500000 0.000000
vt 0.000000 0.500000
vt 0.000000 0.000000
vt 0.500000 0.000000
vt 0.000000 0.500000
vt 0.000000 0.000000
vt 0.500000 0.000000
vt 0.000000 0.500000
vt 0.000000 0.000000
vt 0.500000 0.000000
vt 0.000000 0.500000
vt 0.000000 0.000000
vt 0.000000 0.000000
vt 0.500000 0.500000
vt 0.000000 0.500000
vt 0.500000 0.000000
vt 0.000000 0.500000
vt 0.000000 0.000000
vt 0.500000 0.000000
vt 0.000000 0.000000
vt 0.500000 0.000000
vt 0.000000 0.500000
vt 0.000000 0.000000
vt 0.500000 0.000000
vt 0.000000 0.500000
vt 0.000000 0.000000
vt 0.500000 0.000000
vt 0.000000 0.500000
vt 0.000000 0.000000
vt 0.500000 0.000000
vt 0.000000 0.500000
vt 0.000000 0.000000
vt 0.500000 0.000000
vt 0.000000 0.500000
vt 0.000000 0.000000
vt 0.000000 0.000000
vt 0.500000 0.500000
vt 0.000000 0.500000
vt 0.500000 0.000000
vt 0.000000 0.500000
vt 0.000000 0.000000
vt 0.000000 0.000000
vt 0.500000 0.500000
vt 0.000000 0.500000
vt 0.000000 0.000000
vt 0.500000 0.500000
vt 0.500000 0.000000
vt 0.000000 0.500000
vt 0.000000 0.000000
vt 0.500000 0.500000
vt 0.500000 0.000000
vt 0.000000 0.500000
vt 0.000000 0.000000
vt 0.500000 0.000000
vt 0.000000 0.500000
vt 0.000000 0.000000
vt 0.500000 0.000000
vt 0.000000 0.000000
vt 0.500000 0.000000
vt 0.000000 0.500000
vt 0.000000 0.000000
vt 0.000000 0.000000
vt 0.500000 0.500000
vt 0.000000 0.500000
vt 0.500000 0.000000
vt 0.000000 0.500000
vt 0.000000 0.000000
vt 0.500000 0.000000
vt 0.000000 0.500000
vt 0.000000 0.000000
vt 0.500000 0.000000
vt 0.000000 0.500000
vt 0.000000 0.000000
vt 0.500000 0.000000
vt 0.000000 0.500000
vt 0.000000 0.000000
vt 0.500000 0.000000
vt 0.000000 0.500000
vt 0.000000 0.000000
vt 0.000000 0.500000
vt 0.000000 0.000000
vt 0.500000 0.000000
vt 0.000000 0.500000
vt 0.000000 0.000000
vt 0.000000 0.500000
vt 0.000000 0.000000
vt 0.500000 0.000000
vt 0.000000 0.500000
vt 0.000000 0.000000
vt 0.500000 0.000000
vt 0.000000 0.500000
vt 0.000000 0.000000
vt 0.500000 0.000000
vt 0.500000 0.000000
vt 0.000000 0.500000
vt 0.000000 0.000000
vt 0.500000 0.000000
vt 0.000000 0.000000
vt 0.500000 0.000000
vt 0.000000 0.500000
vt 0.000000 0.000000
vt 0.500000 0.000000
vt 0.000000 0.500000
vt 0.500000 0.000000
vt 0.000000 0.500000
vt 0.000000 0.000000
vt 0.500000 0.000000
vt 0.000000 0.500000
vt 0.000000 0.000000
vt 0.500000 0.000000
vt 0.000000 0.500000
vt 0.000000 0.000000
vt 0.500000 0.000000
vt 0.000000 0.500000
vt 0.000000 0.000000
vt 0.000000 0.500000
vt 0.500000 0.500000
vt 0.500000 0.000000
vt 0.000000 0.500000
vt 0.000000 0.000000
vt 0.500000 0.000000
vt 0.000000 0.500000
vt 0.500000 0.000000
vt 0.000000 0.000000
vt 0.500000 0.500000
vt 0.000000 0.500000
vt 0.500000 0.000000
vt 0.500000 0.000000
vt 0.000000 0.000000
vt 0.500000 0.000000
vt 0.000000 0.500000
vt 0.000000 0.000000
vt 0.500000 0.000000
vt 0.500000 0.000000
vt 0.000000 0.500000
vt 0.000000 0.000000
vt 0.500000 0.000000
vt 0.000000 0.500000
vt 0.000000 0.000000
vt 0.500000 0.000000
vt 0.000000 0.500000
vt 0.000000 0.000000
vt 0.500000 0.000000
vt 0.000000 0.000000
vt 0.500000 0.000000
vt 0.000000 0.500000
vt 0.000000 0.000000
vt 0.500000 0.000000
vt 0.000000 0.500000
vt 0.000000 0.000000
vt 0.500000 0.000000
vt 0.500000 0.000000
vt 0.000000 0.500000
vt 0.000000 0.000000
vt 0.500000 0.000000
vt 0.000000 0.500000
vt 0.000000 0.000000
vt 0.500000 0.000000
vt 0.000000 0.000000
vt 0.500000 0.000000
vt 0.000000 0.500000
vt 0.000000 0.000000
vt 0.000000 0.500000
vt 0.000000 0.000000
vt 0.500000 0.000000
vt 0.000000 0.500000
vt 0.000000 0.500000
vt 0.000000 0.000000
vt 0.500000 0.000000
vt 0.000000 0.500000
vt 0.500000 0.000000
vt 0.000000 0.500000
vt 0.000000 0.000000
vt 0.000000 0.000000
vt 0.500000 0.500000
vt 0.000000 0.500000
vt 0.500000 0.000000
vt 0.000000 0.500000
vt 0.000000 0.000000
vt 0.500000 0.000000
vt 0.000000 0.500000
vt 0.000000 0.000000
vt 0.000000 0.500000
vt 0.000000 0.000000
vt 0.000000 0.000000
vt 0.500000 0.500000
vt 0.000000 0.500000
vt 0.500000 0.000000
vt 0.000000 0.500000
vt 0.000000 0.000000
vt 0.500000 0.000000
vt 0.000000 0.500000
vt 0.000000 0.000000
vt 0.500000 0.000000
vt 0.000000 0.500000
vt 0.000000 0.000000
vt 0.500000 0.000000
vt 0.000000 0.500000
vt 0.000000 0.000000
vt 0.500000 0.000000
vt 0.000000 0.500000
vt 0.000000 0.000000
vt 0.500000 0.000000
vt 0.000000 0.500000
vt 0.000000 0.000000
vt 0.500000 0.000000
vt 0.500000 0.000000
vt 0.000000 0.500000
vt 0.000000 0.000000
vt 0.500000 0.000000
vt 0.000000 0.000000
vt 0.000000 0.500000
vt 0.000000 0.000000
vt 0.500000 0.000000
vt 0.000000 0.500000
vt 0.000000 0.000000
vt 0.000000 0.500000
vt 0.500000 0.000000
vt 0.500000 0.000000
vt 0.500000 0.000000
vt 0.500000 0.000000
vt 0.500000 0.000000
vt 0.000000 0.500000
vt 0.000000 0.000000
vt 0.500000 0.000000
vt 0.000000 0.500000
vt 0.000000 0.000000
vt 0.000000 0.500000
vt 0.000000 0.000000
vt 0.500000 0.000000
vt 0.000000 0.500000
vt 0.000000 0.000000
vt 0.000000 0.500000
vt 0.000000 0.000000
vt 0.000000 0.000000
vt 0.500000 0.500000
vt 0.000000 0.500000
vt 0.500000 0.000000
vt 0.000000 0.500000
vt 0.000000 0.000000
vt 0.500000 0.500000
vt 0.500000 0.000000
vt 0.000000 0.000000
vt 0.500000 0.500000
vt 0.000000 0.500000
vt 0.000000 0.500000
vt 0.000000 0.000000
vt 0.000000 0.500000
vt 0.000000 0.000000
vt 0.500000 0.000000
vt 0.000000 0.500000
vt 0.000000 0.000000
vt 0.500000 0.500000
vt 0.500000 0.500000
vt 0.500000 0.000000
vt 0.000000 0.500000
vt 0.000000 0.000000
vt 0.500000 0.000000
vt 0.000000 0.500000
vt 0.000000 0.000000
vt 0.500000 0.000000
vt 0.000000 0.500000
vt 0.000000 0.000000
vt 0.500000 0.000000
vt 0.000000 0.500000
vt 0.000000 0.000000
vt 0.000000 0.000000
vt 0.500000 0.500000
vt 0.500000 0.500000
vt 0.000000 0.500000
vt 0.500000 0.500000
vt 0.000000 0.500000
vt 0.000000 0.000000
vt 0.500000 0.000000
vt 0.000000 0.500000
vt 0.426777 0.073223
vt 0.000000 0.250000
vt 0.073223 0.426777
vt 0.426777 0.073223
vt 0.000000 0.250000
vt 0.073223 0.426777
vt 0.000000 0.000000
vt 0.500000 0.500000
vt 0.000000 0.500000
vt 0.500000 0.500000
vt 0.500000 0.500000
vt 0.500000 0.500000
vt 0.500000 0.500000
vt 0.500000 0.500000
vt 0.500000 0.500000
vt 0.500000 0.500000
vt 0.500000 0.500000
vt 0.500000 0.500000
vt 0.500000 0.000000
vt 0.500000 0.500000
vt 0.500000 0.500000
vt 0.500000 0.500000
vt 0.500000 0.500000
vt 0.500000 0.500000
vt 0.500000 0.500000
vt 0.500000 0.500000
vt 0.500000 0.000000
vt 0.500000 0.500000
vt 0.500000 0.500000
vt 0.500000 0.500000
vt 0.500000 0.500000
vt 0.500000 0.500000
vt 0.500000 0.500000
vt 0.500000 0.500000
vt 0.500000 0.000000
vt 0.500000 0.000000
vt 0.500000 0.500000
vt 0.500000 0.500000
vt 0.500000 0.500000
vt 0.500000 0.500000
vt 0.500000 0.500000
vt 0.500000 0.500000
vt 0.500000 0.500000
vt 0.500000 0.500000
vt 0.500000 0.500000
vt 0.500000 0.500000
vt 0.500000 0.500000
vt 0.500000 0.500000
vt 0.500000 0.500000
vt 0.500000 0.500000
vt 0.500000 0.500000
vt 0.500000 0.500000
vt 0.500000 0.500000
vt 0.500000 0.500000
vt 0.500000 0.500000
vt 0.500000 0.500000
vt 0.500000 0.500000
vt 0.500000 0.500000
vt 0.500000 0.500000
vt 0.500000 0.000000
vt 0.500000 0.500000
vt 0.500000 0.500000
vt 0.500000 0.500000
vt 0.500000 0.500000
vt 0.500000 0.500000
vt 0.500000 0.500000
vt 0.500000 0.500000
vt 0.500000 0.500000
vt 0.500000 0.500000
vt 0.500000 0.500000
vt 0.500000 0.500000
vt 0.500000 0.500000
vt 0.500000 0.500000
vt 0.500000 0.500000
vt 0.500000 0.500000
vt 0.500000 0.500000
vt 0.500000 0.500000
vt 0.500000 0.500000
vt 0.500000 0.500000
vt 0.500000 0.500000
vt 0.500000 0.500000
vt 0.500000 0.500000
vt 0.500000 0.500000
vt 0.500000 0.500000
vt 0.500000 0.500000
vt 0.500000 0.500000
vt 0.500000 0.500000
vt 0.500000 0.500000
vt 0.500000 0.500000
vt 0.500000 0.500000
vt 0.500000 0.000000
vt 0.500000 0.500000
vt 0.500000 0.500000
vt 0.500000 0.500000
vt 0.500000 0.500000
vt 0.500000 0.000000
vt 0.500000 0.500000
vt 0.500000 0.500000
vt 0.500000 0.000000
vt 0.500000 0.500000
vt 0.250000 0.500000
vt 0.426777 0.426777
vt 0.500000 0.250000
vt 0.250000 0.000000
vt 0.073223 0.073223
vt 0.250000 0.500000
vt 0.426777 0.426777
vt 0.500000 0.250000
vt 0.250000 0.000000
vt 0.073223 0.073223
vn -0.0174 -0.0433 -0.9989
vn 0.0180 -0.0430 -0.9989
vn -0.0180 -0.0430 -0.9989
vn -0.7071 0.7071 0.0000
vn 0.7071 -0.7071 -0.0000
vn 0.0000 0.0000 1.0000
vn -1.0000 0.0000 0.0000
vn 0.0000 1.0000 0.0000
vn 1.0000 0.0000 0.0000
vn 0.0000 -1.0000 -0.0000
vn 0.0000 0.0000 -1.0000
vn -0.7071 -0.7071 -0.0000
vn 0.7071 0.7071 0.0000
vn -0.0432 -0.0174 -0.9989
vn -0.0180 -0.0429 -0.9989
vn -0.0429 -0.0180 -0.9989
vn -0.0429 0.0180 -0.9989
vn 0.0432 0.0174 -0.9989
vn 0.0180 0.0429 -0.9989
vn 0.0429 0.0180 -0.9989
vn 0.0432 -0.0174 -0.9989
vn 0.0429 -0.0180 -0.9989
vn -0.0174 -0.0433 0.9989
vn -0.0430 -0.0180 0.9989
vn -0.0180 -0.0430 0.9989
vn 0.0433 0.0174 -0.9989
vn 0.0180 0.0430 -0.9989
vn 0.0430 0.0180 -0.9989
vn -0.0174 -0.0432 -0.9989
vn 0.0180 -0.0429 -0.9989
vn -0.0174 0.0433 0.9989
vn 0.0180 0.0430 0.9989
vn -0.0180 0.0430 0.9989
vn 0.0174 0.0432 -0.9989
vn -0.0180 0.0429 -0.9989
vn 0.0432 -0.0174 0.9989
vn 0.0180 -0.0429 0.9989
vn 0.0429 -0.0180 0.9989
vn 0.0174 0.0433 0.9989
vn 0.0430 0.0180 0.9989
vn -0.0432 0.0174 0.9989
vn -0.0180 0.0429 0.9989
vn -0.0429 0.0180 0.9989
vn -0.0433 0.0174 0.9989
vn -0.0430 0.0180 0.9989
vn 0.0180 -0.0430 0.9989
vn 0.0174 0.0433 -0.9989
vn -0.0180 0.0430 -0.9989
vn -0.0433 -0.0174 -0.9989
vn -0.0430 -0.0180 -0.9989
vn -0.0433 -0.0174 0.9989
vn -0.0174 0.0433 -0.9989
vn -0.0430 0.0180 -0.9989
vn 0.0433 -0.0174 -0.9989
vn 0.0430 -0.0180 -0.9989
vn -0.0429 -0.0180 0.9989
vn 0.0432 0.0174 0.9989
vn 0.0429 0.0180 0.9989
vn -0.0432 -0.0174 0.9989
vn 0.0174 -0.0432 0.9989
vn -0.0180 -0.0429 0.9989
vn 0.0174 -0.0433 -0.9989
vn 0.0433 -0.0174 0.9989
vn 0.0430 -0.0180 0.9989
vn 0.0433 0.0174 0.9989
vn -0.0432 0.0174 -0.9989
vn 0.0174 -0.0433 0.9989
vn -0.0433 0.0174 -0.9989
vn -0.0174 0.0432 0.9989
vn 0.0180 0.0429 0.9989
vn 0.0174 -0.0432 -0.9989
vn 0.0174 0.0432 0.9989
vn -0.0174 0.0432 -0.9989
vn -0.0174 -0.0432 0.9989
s 1
f 21/1/1 78/2/2 63/3/3
f 11/4/4 87/5/4 89/6/4
f 91/7/5 80/8/5 78/9/5
f 59/10/4 45/11/4 43/12/4
f 46/13/6 10/14/6 9/15/6
f 29/16/7 32/17/7 30/18/7
f 60/19/8 28/20/8 34/21/8
f 121/22/9 104/23/9 108/24/9
f 81/25/10 35/26/10 37/27/10
f 117/28/9 91/29/9 68/30/9
f 10/31/8 74/32/8 8/33/8
f 108/34/5 22/35/5 121/36/5
f 35/37/11 28/38/11 37/39/11
f 38/40/6 42/41/6 39/42/6
f 45/43/6 24/44/6 18/45/6
f 36/46/11 13/47/11 11/4/11
f 44/48/6 9/49/6 15/50/6
f 2/51/11 11/52/11 3/53/11
f 43/54/6 18/55/6 17/56/6
f 31/57/6 15/58/6 24/59/6
f 10/60/6 38/61/6 39/62/6
f 32/63/11 3/64/11 1/65/11
f 27/66/11 35/26/11 33/67/11
f 41/68/6 17/69/6 42/70/6
f 30/71/11 1/72/11 20/73/11
f 86/74/12 63/75/12 61/76/12
f 144/77/7 86/78/7 85/79/7
f 48/80/5 40/81/5 46/82/5
f 110/83/9 116/84/9 126/85/9
f 94/86/10 23/87/10 21/88/10
f 113/89/7 95/90/7 133/91/7
f 83/92/12 33/93/12 35/26/12
f 13/94/7 88/95/7 87/96/7
f 8/33/4 9/97/4 10/14/4
f 50/98/5 12/99/5 36/100/5
f 26/101/13 34/102/13 27/103/13
f 93/104/5 18/55/5 16/105/5
f 109/106/12 21/107/12 135/108/12
f 132/109/5 107/110/5 97/111/5
f 51/112/12 2/113/12 32/114/12
f 92/115/5 77/116/5 75/117/5
f 106/118/13 72/119/13 70/120/13
f 130/121/8 134/122/8 131/123/8
f 103/124/14 66/125/15 65/126/16
f 144/77/4 90/127/4 82/128/4
f 142/129/13 125/130/13 104/131/13
f 117/28/13 69/132/13 67/133/13
f 139/134/12 122/135/12 103/136/12
f 54/137/9 27/138/9 12/139/9
f 89/140/8 3/64/8 11/4/8
f 105/141/13 131/142/13 129/143/13
f 7/144/8 72/119/8 5/145/8
f 55/146/10 38/147/10 40/148/10
f 18/149/10 25/150/10 16/105/10
f 127/151/8 114/152/8 128/153/8
f 115/154/9 129/155/9 143/156/9
f 56/157/9 46/158/9 44/159/9
f 102/160/7 84/161/7 6/162/7
f 102/160/4 7/163/4 5/145/4
f 24/59/12 14/164/12 25/150/12
f 143/165/5 123/166/5 115/167/5
f 120/168/9 20/169/9 1/65/9
f 96/170/7 15/58/7 9/15/7
f 102/171/17 103/172/14 65/173/16
f 28/174/11 20/169/11 37/27/11
f 126/175/18 72/119/19 71/176/20
f 110/177/21 71/178/20 92/179/22
f 94/86/23 88/95/24 83/92/25
f 104/180/26 69/132/27 68/30/28
f 122/181/29 75/182/30 66/183/15
f 99/184/31 4/185/32 89/186/33
f 128/187/34 5/188/35 72/189/19
f 132/190/36 80/8/37 79/191/38
f 12/192/11 33/193/11 13/194/11
f 124/195/39 120/196/40 4/197/32
f 112/198/41 90/127/42 85/79/43
f 133/199/44 7/163/33 6/162/45
f 121/22/36 81/200/46 19/201/38
f 125/202/47 82/203/48 69/204/27
f 135/205/49 63/75/3 62/206/50
f 100/207/1 16/208/2 25/209/3
f 109/106/51 87/210/43 88/211/24
f 134/212/52 96/213/53 8/33/48
f 143/165/54 73/214/20 93/215/55
f 101/216/52 144/217/17 82/128/48
f 118/218/31 70/219/32 7/220/33
f 86/221/56 112/222/41 85/223/43
f 95/224/4 118/225/4 133/226/4
f 52/227/4 30/228/4 28/229/4
f 124/195/8 101/230/8 125/231/8
f 126/232/13 127/233/13 128/234/13
f 57/235/7 43/236/7 41/237/7
f 136/238/10 107/239/10 122/240/10
f 120/168/13 3/64/13 4/197/13
f 53/241/8 31/242/8 45/243/8
f 141/244/4 99/245/4 119/246/4
f 140/247/4 111/248/4 112/249/4
f 138/250/10 98/251/10 100/252/10
f 42/253/13 74/32/13 39/42/13
f 47/254/12 41/255/12 38/256/12
f 84/257/12 66/125/12 64/258/12
f 103/124/7 112/259/7 139/260/7
f 49/261/13 44/262/13 31/263/13
f 106/118/9 92/264/9 71/176/9
f 77/265/10 66/125/10 75/117/10
f 20/266/5 81/200/5 37/27/5
f 80/267/10 63/75/10 78/9/10
f 90/268/8 69/132/8 82/128/8
f 58/269/10 36/270/10 2/271/10
f 113/272/12 100/273/12 137/274/12
f 42/253/9 93/275/9 73/276/9
f 116/277/57 79/278/38 117/279/58
f 113/272/59 6/280/45 84/281/56
f 91/282/55 104/283/26 68/284/28
f 97/285/60 61/286/61 80/287/37
f 78/9/2 108/288/54 91/29/55
f 98/289/62 93/275/55 16/105/2
f 106/290/40 115/291/63 76/292/64
f 142/129/65 19/293/38 120/294/40
f 141/244/66 62/295/50 144/296/17
f 22/297/67 83/298/25 81/299/46
f 138/250/23 84/161/56 64/258/25
f 87/96/43 99/300/31 89/6/33
f 61/76/61 139/301/59 86/78/56
f 129/302/18 74/32/27 73/276/20
f 95/224/68 14/303/16 96/304/53
f 111/305/69 67/306/70 90/307/42
f 131/308/47 8/309/48 74/310/27
f 123/311/67 64/312/25 77/313/46
f 14/314/16 100/315/1 25/150/3
f 70/120/32 105/316/65 106/317/40
f 5/145/35 140/318/66 102/319/17
f 115/154/63 77/116/46 76/320/64
f 107/321/71 92/264/22 75/117/30
f 127/151/72 117/322/58 67/133/70
f 56/323/6 59/324/6 57/325/6
f 58/326/11 52/327/11 60/328/11
f 109/329/7 141/330/7 119/331/7
f 21/1/1 23/332/62 78/2/2
f 11/4/4 13/94/4 87/5/4
f 91/7/5 79/333/5 80/8/5
f 59/10/4 53/334/4 45/11/4
f 46/13/6 40/335/6 10/14/6
f 29/16/7 51/336/7 32/17/7
f 60/19/8 52/337/8 28/20/8
f 121/22/9 142/338/9 104/23/9
f 81/25/10 83/339/10 35/26/10
f 117/28/9 79/333/9 91/29/9
f 10/31/8 39/340/8 74/32/8
f 108/34/5 23/332/5 22/35/5
f 35/37/11 34/341/11 28/38/11
f 38/40/6 41/342/6 42/41/6
f 45/43/6 31/343/6 24/44/6
f 36/46/11 12/344/11 13/47/11
f 44/48/6 46/345/6 9/49/6
f 2/51/11 36/346/11 11/52/11
f 43/54/6 45/347/6 18/55/6
f 31/57/6 44/348/6 15/58/6
f 10/60/6 40/349/6 38/61/6
f 32/63/11 2/350/11 3/64/11
f 27/66/11 34/351/11 35/26/11
f 41/68/6 43/352/6 17/69/6
f 30/71/11 32/353/11 1/72/11
f 86/74/12 62/354/12 63/75/12
f 144/77/7 62/354/7 86/78/7
f 48/80/5 55/355/5 40/81/5
f 110/83/9 132/190/9 116/84/9
f 94/86/10 22/356/10 23/87/10
f 113/89/7 137/357/7 95/90/7
f 83/92/12 88/358/12 33/93/12
f 13/94/7 33/93/7 88/95/7
f 8/33/4 96/170/4 9/97/4
f 50/98/5 54/359/5 12/99/5
f 26/101/13 60/360/13 34/102/13
f 93/104/5 17/361/5 18/55/5
f 109/106/12 94/362/12 21/107/12
f 132/109/5 110/177/5 107/110/5
f 51/112/12 58/363/12 2/113/12
f 92/115/5 76/364/5 77/116/5
f 106/118/13 71/365/13 72/119/13
f 130/121/8 118/366/8 134/122/8
f 103/124/14 122/367/29 66/125/15
f 144/77/4 85/368/4 90/127/4
f 142/129/13 124/369/13 125/130/13
f 117/28/13 68/370/13 69/132/13
f 139/134/12 136/371/12 122/135/12
f 54/137/9 26/372/9 27/138/9
f 89/140/8 4/373/8 3/64/8
f 105/141/13 130/374/13 131/142/13
f 7/144/8 70/375/8 72/119/8
f 55/146/10 47/376/10 38/147/10
f 18/149/10 24/377/10 25/150/10
f 127/151/8 111/378/8 114/152/8
f 115/154/9 105/316/9 129/155/9
f 56/157/9 48/379/9 46/158/9
f 102/160/7 65/380/7 84/161/7
f 102/160/4 6/381/4 7/163/4
f 24/59/12 15/382/12 14/164/12
f 143/165/5 98/383/5 123/166/5
f 120/168/9 19/384/9 20/169/9
f 96/170/7 14/164/7 15/58/7
f 102/171/17 140/247/66 103/172/14
f 28/174/11 30/385/11 20/169/11
f 126/175/18 128/386/34 72/119/19
f 110/177/21 126/387/18 71/178/20
f 94/86/23 109/388/51 88/95/24
f 104/180/26 125/389/47 69/132/27
f 122/181/29 107/110/71 75/182/30
f 99/184/31 124/369/39 4/185/32
f 128/187/34 114/390/73 5/188/35
f 132/190/36 97/391/60 80/8/37
f 12/192/11 27/392/11 33/193/11
f 124/195/39 142/338/65 120/196/40
f 112/198/41 111/378/69 90/127/42
f 133/199/44 118/366/31 7/163/33
f 121/22/36 22/356/67 81/200/46
f 125/202/47 101/393/52 82/203/48
f 135/205/49 21/394/1 63/75/3
f 100/207/1 98/383/62 16/208/2
f 109/106/51 119/395/41 87/210/43
f 134/212/52 95/90/68 96/213/53
f 143/165/54 129/396/18 73/214/20
f 101/216/52 141/330/66 144/217/17
f 118/218/31 130/374/39 70/219/32
f 86/221/56 139/134/59 112/222/41
f 95/224/4 134/397/4 118/225/4
f 52/227/4 29/398/4 30/228/4
f 124/195/8 99/300/8 101/230/8
f 126/232/13 116/277/13 127/233/13
f 57/235/7 59/399/7 43/236/7
f 136/238/10 97/391/10 107/239/10
f 120/168/13 1/400/13 3/64/13
f 53/241/8 49/401/8 31/242/8
f 141/244/4 101/393/4 99/245/4
f 140/247/4 114/390/4 111/248/4
f 138/250/10 123/402/10 98/251/10
f 42/253/13 73/403/13 74/32/13
f 47/254/12 57/404/12 41/255/12
f 84/257/12 65/380/12 66/125/12
f 103/124/7 140/318/7 112/259/7
f 49/261/13 56/405/13 44/262/13
f 106/118/9 76/364/9 92/264/9
f 77/265/10 64/406/10 66/125/10
f 20/266/5 19/384/5 81/200/5
f 80/267/10 61/407/10 63/75/10
f 90/268/8 67/408/8 69/132/8
f 58/269/10 50/409/10 36/270/10
f 113/272/12 138/410/12 100/273/12
f 42/253/9 17/361/9 93/275/9
f 116/277/57 132/411/36 79/278/38
f 113/272/59 133/412/44 6/280/45
f 91/282/55 108/34/54 104/283/26
f 97/285/60 136/371/74 61/286/61
f 78/9/2 23/413/62 108/288/54
f 98/289/62 143/414/54 93/275/55
f 106/290/40 105/141/65 115/291/63
f 142/129/65 121/415/36 19/293/38
f 141/244/66 135/416/49 62/295/50
f 22/297/67 94/362/23 83/298/25
f 138/250/23 113/417/59 84/161/56
f 87/96/43 119/418/41 99/300/31
f 61/76/61 136/238/74 139/301/59
f 129/302/18 131/419/47 74/32/27
f 95/224/68 137/420/14 14/303/16
f 111/305/69 127/233/72 67/306/70
f 131/308/47 134/397/52 8/309/48
f 123/311/67 138/410/23 64/312/25
f 14/314/16 137/357/14 100/315/1
f 70/120/32 130/121/39 105/316/65
f 5/145/35 114/421/73 140/318/66
f 115/154/63 123/402/67 77/116/46
f 107/321/71 110/422/21 92/264/22
f 127/151/72 116/84/57 117/322/58
f 57/325/6 47/423/6 55/424/6
f 55/424/6 48/425/6 57/325/6
f 56/323/6 49/426/6 53/427/6
f 53/427/6 59/324/6 56/323/6
f 57/325/6 48/425/6 56/323/6
f 60/328/11 26/428/11 54/429/11
f 54/429/11 50/430/11 60/328/11
f 58/326/11 51/431/11 29/432/11
f 29/432/11 52/327/11 58/326/11
f 60/328/11 50/430/11 58/326/11
f 109/329/7 135/205/7 141/330/7
