# Blender v2.79 (sub 0) OBJ File: 'cylinder2.blend'
# www.blender.org
o Cylinder_Cylinder.001
v -0.105559 0.105559 -0.500000
v 0.000000 0.166667 -0.477962
v 0.000000 0.149283 -0.500000
v 0.149283 0.000000 -0.500000
v 0.117851 -0.117851 -0.477962
v 0.105559 -0.105559 -0.500000
v 0.000000 -0.149283 -0.500000
v 0.000000 -0.166667 -0.477962
v -0.105559 -0.105559 -0.500000
v -0.117851 -0.117851 -0.477962
v -0.149283 0.000000 -0.500000
v -0.117851 0.117851 -0.477962
v -0.105559 -0.105559 0.500000
v 0.000000 -0.149283 0.500000
v 0.149283 -0.000000 0.500000
v 0.105559 0.105559 -0.500000
v 0.117851 0.117851 -0.477962
v -0.149283 -0.000000 0.500000
v -0.117851 0.117851 0.477962
v -0.166667 -0.000000 0.477962
v -0.117851 -0.117851 0.477962
v 0.000000 -0.166667 0.477962
v 0.105559 -0.105559 0.500000
v 0.117851 -0.117851 0.477962
v 0.166667 -0.000000 0.477962
v 0.105559 0.105559 0.500000
v 0.117851 0.117851 0.477962
v 0.000000 0.149283 0.500000
v 0.000000 0.166667 0.477962
v -0.166667 0.000000 -0.477962
v 0.166667 0.000000 -0.477962
v -0.105559 0.105559 0.500000
vt 0.000000 0.000000
vt 0.500000 0.500000
vt 0.000000 0.500000
vt 0.000000 0.000000
vt 0.500000 0.500000
vt 0.000000 0.500000
vt 0.500000 0.000000
vt 0.000000 0.500000
vt 0.000000 0.000000
vt 0.500000 0.000000
vt 0.000000 0.500000
vt 0.000000 0.000000
vt 0.000000 0.000000
vt 0.500000 0.500000
vt 0.000000 0.500000
vt 0.426777 0.073223
vt 0.073223 0.073223
vt 0.073223 0.426777
vt 0.500000 0.000000
vt 0.000000 0.500000
vt 0.000000 0.000000
vt 0.000000 0.000000
vt 0.500000 0.500000
vt 0.000000 0.500000
vt 0.500000 0.000000
vt 0.000000 0.000000
vt 0.000000 0.000000
vt 0.500000 0.500000
vt 0.000000 0.500000
vt 0.500000 0.000000
vt 0.000000 0.500000
vt 0.000000 0.000000
vt 0.500000 0.000000
vt 0.000000 0.500000
vt 0.000000 0.000000
vt 0.500000 0.000000
vt 0.000000 0.000000
vt 0.000000 0.000000
vt 0.500000 0.500000
vt 0.000000 0.500000
vt 0.000000 0.000000
vt 0.500000 0.500000
vt 0.000000 0.500000
vt 0.500000 0.000000
vt 0.000000 0.500000
vt 0.000000 0.000000
vt 0.500000 0.500000
vt 0.000000 0.500000
vt 0.000000 0.000000
vt 0.500000 0.500000
vt 0.500000 0.000000
vt 0.000000 0.000000
vt 0.000000 0.000000
vt 0.500000 0.500000
vt 0.000000 0.000000
vt 0.000000 0.000000
vt 0.000000 0.000000
vt 0.000000 0.000000
vt 0.500000 0.500000
vt 0.426777 0.073223
vt 0.000000 0.250000
vt 0.073223 0.426777
vt 0.000000 0.000000
vt 0.500000 0.000000
vt 0.500000 0.500000
vt 0.500000 0.500000
vt 0.500000 0.000000
vt 0.250000 0.500000
vt 0.426777 0.426777
vt 0.500000 0.250000
vt 0.250000 0.000000
vt 0.000000 0.250000
vt 0.500000 0.500000
vt 0.500000 0.000000
vt 0.500000 0.500000
vt 0.500000 0.500000
vt 0.500000 0.500000
vt 0.500000 0.500000
vt 0.500000 0.000000
vt 0.500000 0.000000
vt 0.500000 0.500000
vt 0.500000 0.000000
vt 0.500000 0.500000
vt 0.500000 0.500000
vt 0.250000 0.500000
vt 0.426777 0.426777
vt 0.500000 0.250000
vt 0.250000 0.000000
vt 0.073223 0.073223
vn -0.7466 0.3093 -0.5890
vn -0.7466 0.3093 0.5890
vn -0.7466 -0.3093 0.5890
vn -0.3093 0.7466 0.5890
vn 0.7466 0.3093 -0.5890
vn 0.0000 -0.0000 1.0000
vn -0.3093 -0.7466 -0.5890
vn 0.3093 0.7466 0.5890
vn -0.3093 -0.7466 0.5890
vn 0.3093 -0.7466 -0.5890
vn 0.7466 0.3093 0.5890
vn 0.3093 0.7466 -0.5890
vn -0.3093 0.7466 -0.5890
vn 0.7466 -0.3093 0.5890
vn -0.7466 -0.3093 -0.5890
vn 0.3827 -0.9239 -0.0000
vn -0.3827 -0.9239 -0.0000
vn 0.9239 -0.3827 -0.0000
vn -0.9239 -0.3827 -0.0000
vn 0.9239 0.3827 0.0000
vn -0.3827 0.9239 0.0000
vn -0.9239 0.3827 0.0000
vn 0.3093 -0.7466 0.5890
vn 0.7466 -0.3093 -0.5890
vn 0.0000 0.0000 -1.0000
vn 0.3827 0.9239 0.0000
s 1
f 11/1/1 12/2/1 1/3/1
f 18/4/2 19/5/2 20/6/2
f 18/7/3 21/8/3 13/9/3
f 28/10/4 19/11/4 32/12/4
f 17/13/5 4/14/5 16/15/5
f 23/16/6 26/17/6 32/18/6
f 10/19/7 7/20/7 8/21/7
f 28/22/8 27/23/8 29/24/8
f 14/25/9 21/8/9 22/26/9
f 5/27/10 7/28/10 6/29/10
f 15/30/11 27/31/11 26/32/11
f 17/33/12 3/34/12 2/35/12
f 12/36/13 3/34/13 1/37/13
f 15/38/14 24/39/14 25/40/14
f 10/41/15 11/42/15 9/43/15
f 8/44/16 24/45/16 22/26/16
f 21/46/17 8/47/17 22/48/17
f 24/49/18 31/50/18 25/40/18
f 30/51/19 21/8/19 20/52/19
f 25/53/20 17/54/20 27/31/20
f 29/55/21 12/2/21 19/11/21
f 12/36/22 20/6/22 19/56/22
f 14/25/23 24/45/23 23/57/23
f 4/58/24 5/59/24 6/29/24
f 7/60/25 1/61/25 3/62/25
f 17/33/26 29/24/26 27/63/26
f 11/1/1 30/51/1 12/2/1
f 18/4/2 32/64/2 19/5/2
f 18/7/3 20/65/3 21/8/3
f 28/10/4 29/66/4 19/11/4
f 17/13/5 31/67/5 4/14/5
f 32/18/6 18/68/6 13/69/6
f 13/69/6 14/70/6 23/16/6
f 23/16/6 15/71/6 26/17/6
f 26/17/6 28/72/6 32/18/6
f 32/18/6 13/69/6 23/16/6
f 10/19/7 9/73/7 7/20/7
f 28/22/8 26/74/8 27/23/8
f 14/25/9 13/75/9 21/8/9
f 5/27/10 8/44/10 7/28/10
f 15/30/11 25/76/11 27/31/11
f 17/33/12 16/77/12 3/34/12
f 12/36/13 2/78/13 3/34/13
f 15/38/14 23/79/14 24/39/14
f 10/41/15 30/51/15 11/42/15
f 8/44/16 5/59/16 24/45/16
f 21/46/17 10/19/17 8/47/17
f 24/49/18 5/80/18 31/50/18
f 30/51/19 10/81/19 21/8/19
f 25/53/20 31/67/20 17/54/20
f 29/55/21 2/82/21 12/2/21
f 12/36/22 30/83/22 20/6/22
f 14/25/23 22/84/23 24/45/23
f 4/58/24 31/67/24 5/59/24
f 3/62/25 16/85/25 4/86/25
f 4/86/25 6/87/25 3/62/25
f 7/60/25 9/88/25 11/89/25
f 11/89/25 1/61/25 7/60/25
f 3/62/25 6/87/25 7/60/25
f 17/33/26 2/78/26 29/24/26
