# Blender v2.79 (sub 0) OBJ File: 'lod.blend'
# www.blender.org
o Cube
v 0.000000 1.000000 0.000000
v 0.000000 -1.000000 0.000000
v 0.000000 0.000000 1.000000
v 1.000000 0.000000 0.000000
v 0.000000 0.000000 -1.000000
v -1.000000 0.000000 0.000000
v -0.707107 0.000000 0.707107
v -0.707107 0.707107 0.000000
v -0.707107 -0.707107 0.000000
v -0.707107 0.000000 -0.707107
v 0.000000 0.707107 -0.707107
v 0.707107 0.000000 -0.707107
v 0.000000 -0.707107 -0.707107
v 0.707107 -0.707107 0.000000
v 0.707107 0.000000 0.707107
v 0.000000 -0.707107 0.707107
v 0.707107 0.707107 0.000000
v 0.000000 0.707107 0.707107
v 0.577351 0.577351 -0.577350
v 0.577351 -0.577351 -0.577350
v 0.577351 0.577351 0.577350
v 0.577351 -0.577351 0.577350
v -0.577351 0.577351 -0.577350
v -0.577351 -0.577351 -0.577350
v -0.577351 0.577351 0.577350
v -0.577351 -0.577351 0.577350
vt 1.000000 0.000000
vt 0.000000 1.000000
vt 0.000000 0.000000
vt 1.000000 0.000000
vt 0.000000 1.000000
vt 0.000000 0.000000
vt 1.000000 0.000000
vt 0.000000 1.000000
vt 0.000000 0.000000
vt 1.000000 1.000000
vt 0.000000 1.000000
vt 1.000000 0.000000
vt 0.000000 1.000000
vt 0.000000 0.000000
vt 1.000000 0.000000
vt 0.000000 1.000000
vt 0.000000 0.000000
vt 0.000000 0.000000
vt 1.000000 1.000000
vt 0.000000 1.000000
vt 1.000000 0.000000
vt 0.000000 1.000000
vt 0.000000 0.000000
vt 1.000000 0.000000
vt 0.000000 1.000000
vt 0.000000 0.000000
vt 1.000000 1.000000
vt 0.000000 1.000000
vt 0.000000 0.000000
vt 0.000000 1.000000
vt 0.000000 0.000000
vt 1.000000 1.000000
vt 0.000000 1.000000
vt 1.000000 0.000000
vt 0.000000 1.000000
vt 0.000000 0.000000
vt 1.000000 0.000000
vt 0.000000 0.000000
vt 0.000000 0.000000
vt 1.000000 1.000000
vt 0.000000 0.000000
vt 1.000000 1.000000
vt 0.000000 1.000000
vt 0.000000 0.000000
vt 1.000000 1.000000
vt 0.000000 1.000000
vt 1.000000 0.000000
vt 0.000000 1.000000
vt 0.000000 0.000000
vt 1.000000 0.000000
vt 0.000000 1.000000
vt 0.000000 0.000000
vt 0.000000 0.000000
vt 1.000000 1.000000
vt 0.000000 1.000000
vt 0.000000 0.000000
vt 1.000000 1.000000
vt 0.000000 1.000000
vt 1.000000 1.000000
vt 0.000000 1.000000
vt 0.000000 0.000000
vt 0.000000 0.000000
vt 1.000000 1.000000
vt 0.000000 1.000000
vt 1.000000 1.000000
vt 1.000000 1.000000
vt 1.000000 1.000000
vt 1.000000 0.000000
vt 1.000000 1.000000
vt 1.000000 1.000000
vt 1.000000 0.000000
vt 1.000000 1.000000
vt 1.000000 1.000000
vt 1.000000 0.000000
vt 1.000000 0.000000
vt 1.000000 0.000000
vt 1.000000 1.000000
vt 1.000000 1.000000
vt 1.000000 0.000000
vt 1.000000 0.000000
vt 1.000000 0.000000
vt 1.000000 1.000000
vt 1.000000 0.000000
vt 1.000000 0.000000
vn -1.0000 0.0000 0.0000
vn -0.5773 -0.5773 -0.5773
vn -0.7071 -0.7071 0.0000
vn 1.0000 0.0000 0.0000
vn 0.5773 -0.5773 0.5773
vn 0.7071 -0.7071 0.0000
vn 0.0000 -1.0000 0.0000
vn -0.5773 -0.5773 0.5773
vn 0.0000 1.0000 0.0000
vn -0.5773 0.5773 0.5773
vn 0.0000 0.7071 0.7071
vn -0.7071 0.0000 0.7071
vn 0.5773 -0.5773 -0.5773
vn 0.0000 -0.7071 -0.7071
vn 0.0000 -0.7071 0.7071
vn 0.5773 0.5773 -0.5773
vn 0.7071 0.0000 -0.7071
vn 0.0000 0.0000 -1.0000
vn 0.0000 0.0000 1.0000
vn -0.5773 0.5773 -0.5773
vn -0.7071 0.0000 -0.7071
vn 0.5773 0.5773 0.5773
vn 0.7071 0.0000 0.7071
vn 0.7071 0.7071 0.0000
vn 0.0000 0.7071 -0.7071
vn -0.7071 0.7071 0.0000
s 1
f 6/1/1 24/2/2 9/3/3
f 4/4/4 22/5/5 14/6/6
f 2/7/7 26/8/8 9/3/3
f 1/9/9 25/10/10 18/11/11
f 25/12/10 6/13/1 7/14/12
f 20/15/13 2/16/7 13/17/14
f 2/18/7 22/19/5 16/20/15
f 19/21/16 4/22/4 12/23/17
f 5/24/18 20/25/13 13/17/14
f 24/26/2 5/27/18 13/28/14
f 3/29/19 25/10/10 7/30/12
f 26/31/8 6/32/1 9/33/3
f 23/34/20 5/35/18 10/36/21
f 3/37/19 26/8/8 16/38/15
f 22/39/5 3/40/19 16/20/15
f 4/41/4 21/42/22 15/43/23
f 20/44/13 4/45/4 14/46/6
f 21/47/22 3/48/19 15/49/23
f 1/50/9 21/51/22 17/52/24
f 19/53/16 1/54/9 17/55/24
f 5/56/18 19/57/16 12/58/17
f 24/26/2 2/59/7 9/33/3
f 23/34/20 1/60/9 11/61/25
f 6/62/1 23/63/20 10/64/21
f 6/1/1 10/65/21 24/2/2
f 4/4/4 15/66/23 22/5/5
f 2/7/7 16/67/15 26/8/8
f 1/9/9 8/68/26 25/10/10
f 25/12/10 8/69/26 6/13/1
f 20/15/13 14/70/6 2/16/7
f 2/18/7 14/71/6 22/19/5
f 19/21/16 17/72/24 4/22/4
f 5/24/18 12/73/17 20/25/13
f 24/26/2 10/74/21 5/27/18
f 3/29/19 18/75/11 25/10/10
f 26/31/8 7/76/12 6/32/1
f 23/34/20 11/77/25 5/35/18
f 3/37/19 7/78/12 26/8/8
f 22/39/5 15/79/23 3/40/19
f 4/41/4 17/80/24 21/42/22
f 20/44/13 12/81/17 4/45/4
f 21/47/22 18/82/11 3/48/19
f 1/50/9 18/82/11 21/51/22
f 19/53/16 11/83/25 1/54/9
f 5/56/18 11/83/25 19/57/16
f 24/26/2 13/84/14 2/59/7
f 23/34/20 8/69/26 1/60/9
f 6/62/1 8/68/26 23/63/20
