# Blender v2.79 (sub 0) OBJ File: 'lod.blend'
# www.blender.org
o Cube.001
v -0.577350 -0.577351 0.577351
v -0.577350 0.577351 0.577351
v -0.577350 -0.577351 -0.577351
v -0.577350 0.577351 -0.577351
v 0.577350 -0.577351 0.577351
v 0.577350 0.577351 0.577351
v 0.577350 -0.577351 -0.577351
v 0.577350 0.577351 -0.577351
v -0.692277 -0.692278 -0.203724
v -0.692277 -0.692278 0.203724
v -0.692277 -0.203724 0.692278
v -0.692277 0.203724 0.692278
v -0.692277 0.692278 0.203724
v -0.692277 0.692278 -0.203724
v -0.692277 0.203724 -0.692278
v -0.692277 -0.203724 -0.692278
v 0.203723 -0.692278 -0.692278
v -0.203724 -0.692278 -0.692278
v -0.203723 0.692278 -0.692278
v 0.203724 0.692278 -0.692278
v 0.692277 0.203724 -0.692278
v 0.692277 -0.203724 -0.692278
v 0.692277 -0.692278 0.203724
v 0.692277 -0.692278 -0.203724
v 0.692277 0.692278 -0.203724
v 0.692277 0.692278 0.203724
v 0.692277 0.203724 0.692278
v 0.692277 -0.203724 0.692278
v -0.203723 -0.692278 0.692278
v 0.203724 -0.692278 0.692278
v 0.203723 0.692278 0.692278
v -0.203724 0.692278 0.692278
v 0.280916 0.923856 -0.251798
v 0.280916 0.923856 0.251798
v -0.280916 0.923856 -0.251798
v -0.280916 0.923856 0.251798
v -0.280916 -0.923856 -0.251798
v -0.280916 -0.923856 0.251798
v 0.280916 -0.923856 -0.251798
v 0.280916 -0.923856 0.251798
v 0.251798 -0.280917 0.923856
v -0.251798 -0.280917 0.923856
v 0.251798 0.280917 0.923856
v -0.251798 0.280917 0.923856
v 0.923855 -0.280917 -0.251798
v 0.923855 -0.280917 0.251798
v 0.923855 0.280917 -0.251798
v 0.923855 0.280917 0.251798
v -0.251798 -0.280917 -0.923856
v 0.251798 -0.280917 -0.923856
v -0.251798 0.280917 -0.923856
v 0.251798 0.280917 -0.923856
v -0.923855 -0.280917 0.251798
v -0.923855 -0.280917 -0.251798
v -0.923855 0.280917 0.251798
v -0.923855 0.280917 -0.251798
vt 0.000000 0.000000
vt 1.000000 1.000000
vt 0.000000 1.000000
vt 0.000000 0.000000
vt 1.000000 1.000000
vt 0.000000 1.000000
vt 0.000000 0.000000
vt 1.000000 1.000000
vt 0.000000 1.000000
vt 0.000000 0.000000
vt 1.000000 1.000000
vt 0.000000 1.000000
vt 0.000000 0.000000
vt 1.000000 1.000000
vt 0.000000 1.000000
vt 0.000000 0.000000
vt 0.000000 1.000000
vt 1.000000 0.000000
vt 0.000000 1.000000
vt 0.000000 0.000000
vt 1.000000 0.000000
vt 0.000000 1.000000
vt 0.000000 0.000000
vt 0.000000 0.000000
vt 1.000000 1.000000
vt 0.000000 1.000000
vt 1.000000 0.000000
vt 0.000000 1.000000
vt 0.000000 0.000000
vt 1.000000 0.000000
vt 0.000000 1.000000
vt 0.000000 0.000000
vt 1.000000 0.000000
vt 0.000000 1.000000
vt 0.000000 0.000000
vt 1.000000 0.000000
vt 0.000000 1.000000
vt 0.000000 0.000000
vt 1.000000 0.000000
vt 0.000000 1.000000
vt 0.000000 0.000000
vt 1.000000 0.000000
vt 0.000000 1.000000
vt 0.000000 0.000000
vt 1.000000 0.000000
vt 0.000000 1.000000
vt 0.000000 0.000000
vt 0.000000 0.000000
vt 1.000000 1.000000
vt 0.000000 1.000000
vt 1.000000 0.000000
vt 0.000000 1.000000
vt 0.000000 0.000000
vt 1.000000 0.000000
vt 0.000000 1.000000
vt 0.000000 0.000000
vt 1.000000 0.000000
vt 0.000000 1.000000
vt 0.000000 0.000000
vt 1.000000 0.000000
vt 0.000000 1.000000
vt 0.000000 0.000000
vt 1.000000 0.000000
vt 0.000000 1.000000
vt 0.000000 0.000000
vt 1.000000 0.000000
vt 0.000000 0.000000
vt 1.000000 0.000000
vt 0.000000 1.000000
vt 0.000000 0.000000
vt 0.000000 0.000000
vt 1.000000 1.000000
vt 1.000000 0.000000
vt 0.000000 0.000000
vt 1.000000 0.000000
vt 0.000000 1.000000
vt 0.000000 0.000000
vt 1.000000 0.000000
vt 0.000000 1.000000
vt 0.000000 0.000000
vt 1.000000 0.000000
vt 0.000000 1.000000
vt 0.000000 0.000000
vt 0.000000 0.000000
vt 1.000000 1.000000
vt 0.000000 1.000000
vt 1.000000 0.000000
vt 0.000000 1.000000
vt 0.000000 0.000000
vt 1.000000 0.000000
vt 0.000000 1.000000
vt 0.000000 0.000000
vt 0.000000 0.000000
vt 1.000000 1.000000
vt 0.000000 1.000000
vt 1.000000 0.000000
vt 0.000000 1.000000
vt 0.000000 0.000000
vt 1.000000 0.000000
vt 0.000000 1.000000
vt 0.000000 0.000000
vt 1.000000 0.000000
vt 0.000000 1.000000
vt 0.000000 0.000000
vt 1.000000 0.000000
vt 0.000000 1.000000
vt 0.000000 0.000000
vt 1.000000 0.000000
vt 0.000000 1.000000
vt 0.000000 0.000000
vt 1.000000 0.000000
vt 0.000000 1.000000
vt 1.000000 0.000000
vt 0.000000 1.000000
vt 0.000000 0.000000
vt 1.000000 1.000000
vt 0.000000 1.000000
vt 1.000000 0.000000
vt 0.000000 1.000000
vt 1.000000 0.000000
vt 0.000000 1.000000
vt 0.000000 0.000000
vt 0.000000 0.000000
vt 1.000000 1.000000
vt 0.000000 1.000000
vt 0.000000 1.000000
vt 0.000000 0.000000
vt 0.000000 0.000000
vt 1.000000 1.000000
vt 0.000000 1.000000
vt 1.000000 0.000000
vt 0.000000 1.000000
vt 1.000000 0.000000
vt 0.000000 1.000000
vt 0.000000 0.000000
vt 0.000000 0.000000
vt 1.000000 1.000000
vt 1.000000 0.000000
vt 1.000000 0.000000
vt 0.000000 1.000000
vt 0.000000 0.000000
vt 1.000000 0.000000
vt 0.000000 1.000000
vt 0.000000 0.000000
vt 1.000000 0.000000
vt 0.000000 1.000000
vt 0.000000 0.000000
vt 1.000000 0.000000
vt 0.000000 1.000000
vt 0.000000 0.000000
vt 1.000000 0.000000
vt 1.000000 0.000000
vt 1.000000 0.000000
vt 1.000000 0.000000
vt 1.000000 1.000000
vt 1.000000 1.000000
vt 1.000000 1.000000
vt 1.000000 1.000000
vt 1.000000 1.000000
vt 1.000000 1.000000
vt 1.000000 1.000000
vt 1.000000 1.000000
vt 1.000000 0.000000
vt 1.000000 1.000000
vt 1.000000 1.000000
vt 1.000000 1.000000
vt 1.000000 1.000000
vt 1.000000 1.000000
vt 1.000000 1.000000
vt 1.000000 1.000000
vt 1.000000 0.000000
vt 1.000000 1.000000
vt 1.000000 1.000000
vt 1.000000 1.000000
vt 1.000000 0.000000
vt 1.000000 1.000000
vt 1.000000 1.000000
vt 1.000000 0.000000
vt 1.000000 1.000000
vt 1.000000 1.000000
vt 1.000000 1.000000
vt 1.000000 1.000000
vt 1.000000 1.000000
vt 1.000000 1.000000
vt 1.000000 1.000000
vt 1.000000 0.000000
vt 1.000000 1.000000
vt 1.000000 1.000000
vt 1.000000 0.000000
vt 1.000000 1.000000
vt 1.000000 1.000000
vt 1.000000 1.000000
vt 1.000000 0.000000
vt 1.000000 1.000000
vt 1.000000 1.000000
vt 1.000000 1.000000
vn -0.9394 0.2481 -0.2365
vn -0.5773 0.5769 -0.5778
vn -0.6958 0.1781 -0.6958
vn 0.2365 0.2481 -0.9394
vn 0.5773 0.5769 -0.5778
vn 0.6958 0.1781 -0.6958
vn 0.9394 0.2481 0.2365
vn 0.5773 0.5769 0.5778
vn 0.6958 0.1781 0.6958
vn -0.2365 0.2481 0.9394
vn -0.5773 0.5769 0.5778
vn -0.6958 0.1781 0.6958
vn 0.2481 -0.9394 0.2365
vn 0.5773 -0.5769 0.5778
vn 0.1815 -0.7023 0.6884
vn -0.2481 0.9394 0.2365
vn -0.1815 0.7023 0.6884
vn 0.2481 0.9394 0.2365
vn 0.6949 0.6949 0.1849
vn 0.1815 0.7023 0.6884
vn 0.2481 0.9394 -0.2365
vn 0.6949 0.6949 -0.1849
vn -0.1815 0.7023 -0.6884
vn 0.1815 0.7023 -0.6884
vn -0.2481 0.9394 -0.2365
vn -0.6949 0.6949 -0.1849
vn -0.2481 -0.9394 0.2365
vn -0.5773 -0.5769 0.5778
vn -0.6949 -0.6949 0.1849
vn -0.1815 -0.7023 0.6884
vn -0.5773 -0.5769 -0.5778
vn -0.2481 -0.9394 -0.2365
vn -0.6949 -0.6949 -0.1849
vn 0.1815 -0.7023 -0.6884
vn -0.1815 -0.7023 -0.6884
vn 0.2481 -0.9394 -0.2365
vn 0.5773 -0.5769 -0.5778
vn 0.6949 -0.6949 -0.1849
vn -0.2365 -0.2481 0.9394
vn -0.6958 -0.1781 0.6958
vn 0.2365 -0.2481 0.9394
vn 0.6958 -0.1781 0.6958
vn 0.2365 0.2481 0.9394
vn 0.9394 -0.2481 0.2365
vn 0.6949 -0.6949 0.1849
vn 0.9394 -0.2481 -0.2365
vn 0.6958 -0.1781 -0.6958
vn 0.9394 0.2481 -0.2365
vn 0.2365 -0.2481 -0.9394
vn -0.2365 -0.2481 -0.9394
vn -0.6958 -0.1781 -0.6958
vn -0.2365 0.2481 -0.9394
vn -0.9394 -0.2481 -0.2365
vn -0.9394 -0.2481 0.2365
vn -0.9394 0.2481 0.2365
vn -0.6949 0.6949 0.1849
s 1
f 56/1/1 4/2/2 15/3/3
f 52/4/4 8/5/5 21/6/6
f 48/7/7 6/8/8 27/9/9
f 44/10/10 2/11/11 12/12/12
f 40/13/13 5/14/14 30/15/15
f 36/16/16 2/11/11 32/17/17
f 34/18/18 6/19/8 26/20/19
f 36/21/16 31/22/20 34/23/18
f 8/24/5 33/25/21 25/26/22
f 33/27/21 26/28/19 25/29/22
f 19/30/23 33/31/21 20/32/24
f 35/33/25 34/34/18 33/35/21
f 4/36/2 35/37/25 19/38/23
f 14/39/26 36/40/16 35/41/25
f 38/42/27 1/43/28 10/44/29
f 40/45/13 29/46/30 38/47/27
f 3/48/31 37/49/32 9/50/33
f 37/51/32 10/52/29 9/53/33
f 17/54/34 37/55/32 18/56/35
f 39/57/36 38/58/27 37/59/32
f 7/60/37 39/61/36 17/62/34
f 24/63/38 40/64/13 39/65/36
f 42/66/39 1/43/28 29/67/30
f 44/68/10 11/69/40 42/70/39
f 5/71/14 41/72/41 30/15/15
f 41/73/41 29/46/30 30/74/15
f 27/75/9 41/76/41 28/77/42
f 43/78/43 42/79/39 41/80/41
f 6/81/8 43/82/43 27/83/9
f 43/84/43 32/85/17 44/86/10
f 46/87/44 5/88/14 23/89/45
f 48/90/7 28/91/42 46/92/44
f 7/93/37 45/94/46 24/95/38
f 45/96/46 23/97/45 24/98/38
f 21/99/6 45/100/46 22/101/47
f 47/102/48 46/103/44 45/104/46
f 8/105/5 47/106/48 21/107/6
f 25/108/22 48/109/7 47/110/48
f 50/111/49 7/112/37 17/62/34
f 52/113/4 22/114/47 50/115/49
f 3/48/31 49/116/50 18/117/35
f 49/118/50 17/119/34 18/56/35
f 15/120/3 49/121/50 16/122/51
f 49/123/50 52/124/4 50/125/49
f 4/36/2 51/126/52 15/127/3
f 51/128/52 20/129/24 52/130/4
f 54/131/53 3/132/31 9/53/33
f 56/133/1 16/134/51 54/135/53
f 1/136/28 53/137/54 10/52/29
f 53/138/54 9/50/33 10/44/29
f 12/139/12 53/140/54 11/141/40
f 55/142/55 54/143/53 53/144/54
f 2/145/11 55/146/55 12/147/12
f 13/148/56 56/149/1 55/150/55
f 56/1/1 14/39/26 4/2/2
f 52/4/4 20/151/24 8/5/5
f 48/7/7 26/152/19 6/8/8
f 44/10/10 32/153/17 2/11/11
f 40/13/13 23/154/45 5/14/14
f 36/16/16 13/148/56 2/11/11
f 34/18/18 31/155/20 6/19/8
f 36/21/16 32/85/17 31/22/20
f 8/24/5 20/151/24 33/25/21
f 33/27/21 34/156/18 26/28/19
f 19/30/23 35/157/25 33/31/21
f 35/33/25 36/158/16 34/34/18
f 4/36/2 14/159/26 35/37/25
f 14/39/26 13/160/56 36/40/16
f 38/42/27 29/161/30 1/43/28
f 40/45/13 30/162/15 29/46/30
f 3/48/31 18/163/35 37/49/32
f 37/51/32 38/164/27 10/52/29
f 17/54/34 39/165/36 37/55/32
f 39/57/36 40/166/13 38/58/27
f 7/60/37 24/167/38 39/61/36
f 24/63/38 23/168/45 40/64/13
f 42/66/39 11/169/40 1/43/28
f 44/68/10 12/170/12 11/69/40
f 5/71/14 28/171/42 41/72/41
f 41/73/41 42/172/39 29/46/30
f 27/75/9 43/173/43 41/76/41
f 43/78/43 44/174/10 42/79/39
f 6/81/8 31/155/20 43/82/43
f 43/84/43 31/175/20 32/85/17
f 46/87/44 28/176/42 5/88/14
f 48/90/7 27/177/9 28/91/42
f 7/93/37 22/178/47 45/94/46
f 45/96/46 46/179/44 23/97/45
f 21/99/6 47/180/48 45/100/46
f 47/102/48 48/181/7 46/103/44
f 8/105/5 25/182/22 47/106/48
f 25/108/22 26/183/19 48/109/7
f 50/111/49 22/184/47 7/112/37
f 52/113/4 21/185/6 22/114/47
f 3/48/31 16/186/51 49/116/50
f 49/118/50 50/187/49 17/119/34
f 15/120/3 51/188/52 49/121/50
f 49/123/50 51/189/52 52/124/4
f 4/36/2 19/190/23 51/126/52
f 51/128/52 19/30/23 20/129/24
f 54/131/53 16/191/51 3/132/31
f 56/133/1 15/192/3 16/134/51
f 1/136/28 11/193/40 53/137/54
f 53/138/54 54/194/53 9/50/33
f 12/139/12 55/195/55 53/140/54
f 55/142/55 56/196/1 54/143/53
f 2/145/11 13/160/56 55/146/55
f 13/148/56 14/159/26 56/149/1
