# Blender v2.79 (sub 0) OBJ File: 'afterburn.blend'
# www.blender.org
o Plane
v 0.193710 -0.020876 -0.063735
v 0.000000 -0.020876 -0.063735
v -0.000000 0.271307 -0.052446
v -0.182764 -0.097841 -0.050988
v 0.182765 -0.097841 -0.050988
v 0.000000 -0.097841 -0.050988
v -0.193710 -0.020876 -0.063735
v -0.387420 -0.020876 0.000000
v 0.387420 -0.020876 -0.000000
v -0.337512 0.221530 0.000000
v 0.337511 0.221529 0.000000
v -0.000000 0.452786 -0.011289
v 0.193710 -0.020876 0.063735
v 0.000000 -0.020876 0.063735
v 0.168756 0.221529 0.063735
v -0.000000 0.221529 0.063735
v -0.168756 0.221529 0.063736
v 0.182765 -0.120196 -0.000000
v 0.000000 -0.120196 -0.000000
v -0.182764 -0.120196 -0.000000
v -0.182764 -0.097841 0.050988
v 0.182765 -0.097841 0.050988
v 0.000000 -0.097841 0.050988
v -0.193710 -0.020876 0.063735
v 0.175603 -0.096669 -0.008975
v 0.007161 -0.096669 -0.008975
v 0.007161 -0.082183 -0.042013
v 0.175603 -0.082184 -0.042013
v 0.091383 -0.497436 -0.018809
v 0.015008 -0.497436 -0.018809
v -0.175603 -0.096668 -0.008975
v -0.007161 -0.096669 -0.008975
v -0.007161 -0.082183 -0.042013
v -0.175603 -0.082183 -0.042013
v -0.091382 -0.497436 -0.018809
v -0.015007 -0.497436 -0.018809
v 0.175603 -0.096669 0.008975
v 0.007161 -0.096669 0.008975
v 0.007161 -0.082183 0.042013
v 0.175603 -0.082184 0.042013
v 0.091383 -0.497436 0.018808
v 0.015008 -0.497436 0.018808
v -0.175603 -0.096668 0.008975
v -0.007161 -0.096669 0.008975
v -0.007161 -0.082183 0.042013
v -0.175603 -0.082183 0.042013
v -0.091382 -0.497436 0.018808
v -0.015007 -0.497436 0.018808
v 0.168756 0.221529 -0.063735
v -0.000000 0.221529 -0.063735
v -0.168756 0.221529 -0.063735
v -0.071789 0.502564 0.000000
v -0.000000 0.502564 0.000000
v 0.071788 0.502564 0.000000
v 0.098389 0.271307 -0.052446
v -0.098389 0.271307 -0.052446
v -0.035772 0.452786 -0.011289
v 0.035771 0.452786 -0.011289
v -0.000000 0.437329 -0.038077
v -0.000000 0.291352 -0.071183
v 0.073295 0.291352 -0.071183
v -0.073295 0.291352 -0.071183
v -0.022928 0.437330 -0.038077
v 0.022927 0.437329 -0.038077
vt 0.500000 0.000000
vt 0.000000 0.500000
vt 0.000000 0.000000
vt 0.000000 0.000000
vt 0.500000 0.500000
vt 0.000000 0.500000
vt 0.000000 0.000000
vt 0.500000 0.500000
vt 0.000000 0.500000
vt 0.500000 0.000000
vt 0.000000 0.500000
vt 0.000000 0.000000
vt 0.000000 0.000000
vt 0.500000 0.500000
vt 0.000000 0.500000
vt 0.500000 0.000000
vt 0.000000 0.500000
vt 0.000000 0.000000
vt 0.500000 0.000000
vt 0.000000 0.000000
vt 0.500000 0.000000
vt 0.500000 0.500000
vt 0.500000 0.000000
vt 0.000000 0.000000
vt 0.500000 0.000000
vt 0.500000 0.500000
vt 0.500000 0.000000
vt 0.500000 0.500000
vt 0.500000 0.000000
vt 0.000000 0.500000
vt 0.000000 0.000000
vt 0.500000 0.000000
vt 0.000000 0.500000
vt 0.500000 0.000000
vt 0.500000 0.500000
vt 0.500000 0.000000
vt 0.000000 0.500000
vt 0.000000 0.000000
vt 0.000000 0.000000
vt 0.500000 0.500000
vt 0.000000 0.500000
vt 0.000000 0.000000
vt 0.500000 0.500000
vt 0.000000 0.500000
vt 0.500000 0.000000
vt 0.000000 0.500000
vt 0.000000 0.000000
vt 0.000000 0.000000
vt 0.000000 0.500000
vt 0.000000 0.000000
vt 0.500000 0.000000
vt 0.500000 0.500000
vt 0.000000 0.000000
vt 0.500000 0.000000
vt 0.500000 0.500000
vt 0.500000 0.500000
vt 0.000000 0.000000
vt 0.500000 0.500000
vt 0.500000 0.000000
vt 0.500000 0.000000
vt 0.000000 0.500000
vt 0.000000 0.000000
vt 0.000000 0.500000
vt 0.000000 0.500000
vt 0.500000 0.000000
vt 0.500000 0.500000
vt 0.500000 0.000000
vt 0.000000 0.500000
vt 0.000000 0.000000
vt 0.500000 0.000000
vt 0.500000 0.500000
vt 0.000000 0.000000
vt 0.000000 0.500000
vt 0.500000 0.000000
vt 0.500000 0.500000
vt 0.500000 0.000000
vt 0.000000 0.500000
vt 0.000000 0.000000
vt 0.500000 0.000000
vt 0.500000 0.500000
vt 0.000000 0.000000
vt 0.500000 0.500000
vt 0.000000 0.500000
vt 0.500000 0.000000
vt 0.500000 0.500000
vt 0.500000 0.000000
vt 0.000000 0.500000
vt 0.000000 0.000000
vt 0.500000 0.000000
vt 0.500000 0.500000
vt 0.000000 0.000000
vt 0.500000 0.500000
vt 0.000000 0.500000
vt 0.500000 0.000000
vt 0.500000 0.500000
vt 0.500000 0.000000
vt 0.000000 0.500000
vt 0.000000 0.000000
vt 0.500000 0.000000
vt 0.500000 0.500000
vt 0.000000 0.000000
vt 0.000000 0.500000
vt 0.500000 0.000000
vt 0.500000 0.500000
vt 0.500000 0.000000
vt 0.000000 0.500000
vt 0.000000 0.000000
vt 0.000000 0.000000
vt 0.500000 0.500000
vt 0.000000 0.500000
vt 0.500000 0.000000
vt 0.000000 0.500000
vt 0.000000 0.000000
vt 0.000000 0.000000
vt 0.500000 0.500000
vt 0.000000 0.500000
vt 0.500000 0.000000
vt 0.000000 0.500000
vt 0.000000 0.000000
vt 0.000000 0.000000
vt 0.000000 0.500000
vt 0.500000 0.000000
vt 0.000000 0.500000
vt 0.500000 0.500000
vt 0.000000 0.500000
vt 0.500000 0.000000
vt 0.000000 0.500000
vt 0.500000 0.500000
vt 0.000000 0.500000
vt 0.500000 0.000000
vt 0.000000 0.500000
vt 0.000000 0.000000
vt 0.000000 0.500000
vt 0.500000 0.000000
vt 0.000000 0.500000
vt 0.000000 0.000000
vt 0.500000 0.500000
vt 0.000000 0.500000
vt 0.500000 0.500000
vt 0.500000 0.000000
vt 0.500000 0.500000
vt 0.500000 0.500000
vt 0.500000 0.500000
vt 0.500000 0.000000
vt 0.500000 0.000000
vt 0.500000 0.000000
vt 0.500000 0.000000
vt 0.500000 0.500000
vt 0.500000 0.000000
vt 0.500000 0.500000
vt 0.500000 0.000000
vt 0.500000 0.000000
vt 0.500000 0.500000
vt 0.500000 0.000000
vt 0.500000 0.000000
vt 0.500000 0.500000
vt 0.500000 0.000000
vt 0.500000 0.500000
vt 0.500000 0.000000
vt 0.500000 0.500000
vt 0.500000 0.000000
vt 0.500000 0.500000
vn -0.0000 -0.0820 -0.9966
vn -0.1235 -0.1792 -0.9760
vn -0.1728 -0.0774 -0.9819
vn 0.1235 -0.1792 -0.9760
vn -0.0000 -0.1634 -0.9866
vn -0.1860 0.1489 -0.9712
vn 0.1860 0.1489 -0.9712
vn -0.0000 0.1113 -0.9938
vn 0.1728 -0.0774 -0.9819
vn 0.3381 0.1386 -0.9309
vn 0.3125 0.0103 -0.9499
vn -0.3381 0.1386 -0.9309
vn 0.0675 0.2428 -0.9677
vn -0.2028 -0.8968 -0.3932
vn -0.1952 -0.8982 -0.3938
vn -0.4062 -0.8369 -0.3669
vn -0.3125 0.0103 -0.9499
vn 0.2028 -0.8968 -0.3932
vn 0.4062 -0.8369 -0.3669
vn 0.1952 -0.8982 -0.3938
vn -0.0000 -0.9158 -0.4015
vn -0.0675 0.2428 -0.9677
vn -0.1235 -0.1792 0.9760
vn 0.0000 -0.0820 0.9966
vn -0.1728 -0.0774 0.9819
vn 0.1235 -0.1792 0.9760
vn 0.1728 -0.0774 0.9819
vn -0.1860 0.1489 0.9712
vn 0.0000 0.1113 0.9938
vn 0.1860 0.1489 0.9712
vn 0.3381 0.1386 0.9309
vn -0.3381 0.1386 0.9309
vn 0.0675 0.2428 0.9677
vn -0.2028 -0.8968 0.3932
vn -0.4062 -0.8369 0.3669
vn -0.1952 -0.8982 0.3938
vn -0.3125 0.0103 0.9499
vn 0.3125 0.0103 0.9499
vn 0.2028 -0.8968 0.3932
vn 0.1952 -0.8982 0.3938
vn 0.4062 -0.8369 0.3669
vn -0.0000 -0.9158 0.4015
vn -0.0675 0.2428 0.9677
vn 0.0000 -0.0245 0.9997
vn -0.9998 -0.0194 -0.0085
vn -0.0000 -0.0558 -0.9984
vn 0.9752 -0.2028 -0.0889
vn 0.9998 -0.0194 -0.0085
vn -0.9752 -0.2028 -0.0889
vn -0.0000 -0.0245 -0.9997
vn -0.9998 -0.0194 0.0085
vn 0.0000 -0.0558 0.9984
vn 0.9752 -0.2028 0.0889
vn 0.9998 -0.0194 0.0085
vn -0.9752 -0.2028 0.0889
vn -0.0000 0.2212 -0.9752
vn -0.0000 -0.6829 -0.7306
vn 0.0000 0.8662 -0.4998
vn -0.7289 0.3806 -0.5691
vn 0.7289 0.3806 -0.5691
vn 0.0000 -0.1634 0.9866
vn 0.0000 0.2212 0.9752
s 1
f 2/1/1 4/2/2 7/3/3
f 2/4/1 5/5/4 6/6/5
f 51/7/6 2/8/1 7/9/3
f 49/10/7 2/11/1 50/12/8
f 1/13/9 11/14/10 9/15/11
f 7/16/3 10/17/12 51/7/6
f 49/18/7 54/19/13 11/14/10
f 4/20/14 20/21/15 8/22/16
f 7/3/3 4/23/2 8/22/17
f 5/24/4 1/25/9 9/26/11
f 5/24/18 9/27/19 18/28/20
f 5/29/18 19/30/21 6/31/21
f 6/32/21 20/33/15 4/20/14
f 51/7/6 10/34/12 52/35/22
f 21/36/23 14/37/24 24/38/25
f 14/39/24 22/40/26 13/41/27
f 17/42/28 14/43/24 16/44/29
f 14/45/24 15/46/30 16/47/29
f 13/48/27 11/14/31 15/46/30
f 10/34/32 24/49/25 17/42/28
f 15/50/30 11/51/31 54/52/33
f 21/53/34 8/54/35 20/55/36
f 24/38/25 8/54/37 21/56/23
f 22/57/26 9/27/38 13/58/27
f 22/57/39 18/59/40 9/26/41
f 19/60/42 22/61/39 23/62/42
f 20/21/36 23/63/42 21/53/34
f 16/47/29 52/35/43 17/64/28
f 54/19/33 16/44/29 15/50/30
f 17/42/28 52/65/43 10/66/32
f 29/67/44 26/68/44 30/69/44
f 30/69/45 26/70/45 27/71/45
f 29/72/46 27/71/46 28/73/46
f 29/72/47 28/74/47 25/75/47
f 32/76/44 35/77/44 36/78/44
f 36/78/48 33/79/48 32/80/48
f 35/81/46 33/82/46 36/83/46
f 35/81/49 31/84/49 34/85/49
f 38/86/50 41/87/50 42/88/50
f 42/88/51 39/89/51 38/90/51
f 41/91/52 39/92/52 42/93/52
f 41/91/53 37/94/53 40/95/53
f 47/96/50 44/97/50 48/98/50
f 48/98/54 44/99/54 45/100/54
f 47/101/52 45/100/52 46/102/52
f 47/101/55 46/103/55 43/104/55
f 55/105/56 50/106/8 3/107/56
f 56/108/56 50/109/8 51/110/6
f 57/111/56 53/112/56 12/113/56
f 58/114/56 53/115/56 54/116/13
f 56/117/56 52/118/22 57/119/56
f 55/120/56 54/52/13 49/121/7
f 62/122/57 3/123/57 56/108/57
f 12/113/58 63/124/58 57/125/58
f 64/126/58 12/127/58 58/114/58
f 57/119/59 62/128/59 56/129/59
f 61/130/60 58/131/60 55/120/60
f 60/132/56 63/124/56 59/133/56
f 60/134/56 64/135/56 61/136/56
f 3/107/57 61/137/57 55/138/57
f 2/1/1 6/139/5 4/2/2
f 2/4/1 1/25/9 5/5/4
f 51/7/6 50/140/8 2/8/1
f 49/10/7 1/141/9 2/11/1
f 1/13/9 49/10/7 11/14/10
f 7/16/3 8/22/17 10/17/12
f 5/29/18 18/28/20 19/30/21
f 6/32/21 19/142/21 20/33/15
f 21/36/23 23/143/61 14/37/24
f 14/39/24 23/144/61 22/40/26
f 17/42/28 24/145/25 14/43/24
f 14/45/24 13/58/27 15/46/30
f 13/48/27 9/27/38 11/14/31
f 10/34/32 8/22/37 24/49/25
f 19/60/42 18/28/40 22/61/39
f 20/21/36 19/142/42 23/63/42
f 16/47/29 53/146/62 52/35/43
f 54/19/33 53/115/62 16/44/29
f 29/67/44 25/75/44 26/68/44
f 29/72/46 30/147/46 27/71/46
f 32/76/44 31/148/44 35/77/44
f 35/81/46 34/149/46 33/82/46
f 38/86/50 37/150/50 41/87/50
f 41/91/52 40/151/52 39/92/52
f 47/96/50 43/104/50 44/97/50
f 47/101/52 48/152/52 45/100/52
f 55/105/56 49/153/7 50/106/8
f 56/108/56 3/154/56 50/109/8
f 57/111/56 52/35/22 53/112/56
f 58/114/56 12/155/56 53/115/56
f 56/117/56 51/156/6 52/118/22
f 55/120/56 58/157/56 54/52/13
f 62/122/57 60/158/57 3/123/57
f 12/113/58 59/159/58 63/124/58
f 64/126/58 59/160/58 12/127/58
f 57/119/59 63/161/59 62/128/59
f 61/130/60 64/162/60 58/131/60
f 60/132/56 62/122/56 63/124/56
f 60/134/56 59/160/56 64/135/56
f 3/107/57 60/134/57 61/137/57
