# Blender v2.79 (sub 0) OBJ File: 'cargo.blend'
# www.blender.org
o Cube_Cube.002
v -0.376641 -0.500000 0.376641
v -0.376641 -0.376641 0.500000
v -0.500000 -0.376641 0.376641
v -0.376641 0.376641 0.500000
v -0.376641 0.500000 0.376641
v -0.500000 0.376641 0.376641
v -0.376641 -0.500000 -0.376641
v -0.500000 -0.376641 -0.376641
v -0.376641 -0.376641 -0.500000
v -0.376641 0.500000 -0.376641
v -0.376641 0.376641 -0.500000
v -0.500000 0.376641 -0.376641
v 0.376641 -0.500000 0.376641
v 0.500000 -0.376641 0.376641
v 0.376641 -0.376641 0.500000
v 0.376641 0.500000 0.376641
v 0.376641 0.376641 0.500000
v 0.500000 0.376641 0.376641
v 0.376641 -0.500000 -0.376641
v 0.376641 -0.376641 -0.500000
v 0.500000 -0.376641 -0.376641
v 0.376641 0.500000 -0.376641
v 0.500000 0.376641 -0.376641
v 0.376641 0.376641 -0.500000
v -0.411841 -0.500000 -0.411841
v -0.411841 -0.500000 0.411841
v -0.500000 -0.411841 0.411841
v -0.500000 -0.411841 -0.411841
v -0.411841 -0.411841 0.500000
v -0.411841 0.411841 0.500000
v -0.500000 0.411841 0.411841
v -0.411841 0.500000 0.411841
v -0.411841 0.500000 -0.411841
v -0.500000 0.411841 -0.411841
v -0.411841 0.411841 -0.500000
v -0.411841 -0.411841 -0.500000
v 0.411841 -0.500000 -0.411841
v 0.411841 -0.411841 -0.500000
v 0.411841 0.500000 -0.411841
v 0.411841 0.411841 -0.500000
v 0.500000 0.411841 -0.411841
v 0.500000 -0.411841 -0.411841
v 0.411841 -0.500000 0.411841
v 0.500000 -0.411841 0.411841
v 0.411841 0.500000 0.411841
v 0.500000 0.411841 0.411841
v 0.411841 0.411841 0.500000
v 0.411841 -0.411841 0.500000
v -0.348864 -0.463082 -0.348864
v -0.348864 -0.463082 0.348864
v -0.463082 -0.348864 0.348864
v -0.463082 -0.348864 -0.348864
v -0.348864 -0.348864 0.463082
v -0.348864 0.348864 0.463082
v -0.463082 0.348864 0.348864
v -0.348864 0.463082 0.348864
v -0.348864 0.463082 -0.348864
v -0.463082 0.348864 -0.348864
v -0.348864 0.348864 -0.463082
v -0.348864 -0.348864 -0.463082
v 0.348864 -0.463082 -0.348864
v 0.348864 -0.348864 -0.463082
v 0.348864 0.463082 -0.348864
v 0.348864 0.348864 -0.463082
v 0.463082 0.348864 -0.348864
v 0.463082 -0.348864 -0.348864
v 0.348864 -0.463082 0.348864
v 0.463082 -0.348864 0.348864
v 0.348864 0.463082 0.348864
v 0.463082 0.348864 0.348864
v 0.348864 0.348864 0.463082
v 0.348864 -0.348864 0.463082
vt 0.500000 0.000000
vt 0.000000 0.500000
vt 0.000000 0.000000
vt 0.500000 0.000000
vt 0.000000 0.500000
vt 0.000000 0.000000
vt 0.500000 0.000000
vt 0.000000 0.500000
vt 0.000000 0.000000
vt 0.500000 0.000000
vt 0.000000 0.500000
vt 0.000000 0.000000
vt 0.500000 0.000000
vt 0.000000 0.500000
vt 0.000000 0.000000
vt 0.000000 0.000000
vt 0.500000 0.000000
vt 0.500000 0.500000
vt 0.000000 0.000000
vt 0.500000 0.000000
vt 0.500000 0.500000
vt 0.000000 0.000000
vt 0.500000 0.000000
vt 0.500000 0.500000
vt 0.000000 0.000000
vt 0.500000 0.000000
vt 0.500000 0.500000
vt 0.000000 0.000000
vt 0.500000 0.000000
vt 0.500000 0.500000
vt 0.000000 0.000000
vt 0.500000 0.000000
vt 0.500000 0.500000
vt 0.000000 0.000000
vt 0.500000 0.000000
vt 0.500000 0.500000
vt 0.000000 0.000000
vt 0.500000 0.000000
vt 0.500000 0.500000
vt 0.500000 0.000000
vt 0.000000 0.500000
vt 0.500000 0.000000
vt 0.000000 0.500000
vt 0.000000 0.000000
vt 0.500000 0.000000
vt 0.000000 0.500000
vt 0.000000 0.000000
vt 0.500000 0.000000
vt 0.000000 0.500000
vt 0.000000 0.000000
vt 0.500000 0.000000
vt 0.000000 0.500000
vt 0.500000 0.000000
vt 0.000000 0.500000
vt 0.500000 0.000000
vt 0.000000 0.500000
vt 0.000000 0.000000
vt 0.500000 0.000000
vt 0.000000 0.500000
vt 0.500000 0.000000
vt 0.000000 0.500000
vt 0.500000 0.000000
vt 0.000000 0.500000
vt 0.000000 0.000000
vt 0.500000 0.000000
vt 0.000000 0.500000
vt 0.000000 0.500000
vt 0.500000 0.000000
vt 0.000000 0.500000
vt 0.000000 0.000000
vt 0.000000 0.000000
vt 0.500000 0.500000
vt 0.000000 0.500000
vt 0.500000 0.500000
vt 0.000000 0.000000
vt 0.500000 0.500000
vt 0.000000 0.000000
vt 0.000000 0.000000
vt 0.500000 0.500000
vt 0.000000 0.500000
vt 0.000000 0.000000
vt 0.000000 0.000000
vt 0.000000 0.000000
vt 0.500000 0.500000
vt 0.000000 0.500000
vt 0.000000 0.000000
vt 0.500000 0.500000
vt 0.000000 0.500000
vt 0.000000 0.000000
vt 0.500000 0.500000
vt 0.000000 0.500000
vt 0.000000 0.000000
vt 0.500000 0.500000
vt 0.000000 0.000000
vt 0.500000 0.500000
vt 0.000000 0.500000
vt 0.000000 0.000000
vt 0.500000 0.500000
vt 0.000000 0.500000
vt 0.000000 0.000000
vt 0.500000 0.500000
vt 0.000000 0.500000
vt 0.000000 0.000000
vt 0.500000 0.500000
vt 0.000000 0.000000
vt 0.000000 0.000000
vt 0.500000 0.500000
vt 0.000000 0.500000
vt 0.000000 0.000000
vt 0.500000 0.500000
vt 0.000000 0.500000
vt 0.000000 0.000000
vt 0.500000 0.500000
vt 0.000000 0.500000
vt 0.500000 0.500000
vt 0.000000 0.500000
vt 0.500000 0.000000
vt 0.000000 0.500000
vt 0.000000 0.000000
vt 0.500000 0.000000
vt 0.000000 0.000000
vt 0.500000 0.000000
vt 0.000000 0.500000
vt 0.000000 0.000000
vt 0.500000 0.000000
vt 0.000000 0.500000
vt 0.000000 0.000000
vt 0.500000 0.000000
vt 0.000000 0.000000
vt 0.500000 0.000000
vt 0.000000 0.500000
vt 0.000000 0.000000
vt 0.500000 0.000000
vt 0.000000 0.500000
vt 0.500000 0.000000
vt 0.000000 0.500000
vt 0.500000 0.000000
vt 0.000000 0.500000
vt 0.500000 0.000000
vt 0.000000 0.500000
vt 0.500000 0.000000
vt 0.500000 0.000000
vt 0.000000 0.500000
vt 0.500000 0.000000
vt 0.000000 0.500000
vt 0.500000 0.000000
vt 0.000000 0.500000
vt 0.500000 0.000000
vt 0.000000 0.500000
vt 0.500000 0.000000
vt 0.000000 0.500000
vt 0.500000 0.000000
vt 0.500000 0.000000
vt 0.000000 0.500000
vt 0.500000 0.000000
vt 0.000000 0.500000
vt 0.500000 0.000000
vt 0.000000 0.500000
vt 0.500000 0.000000
vt 0.000000 0.500000
vt 0.500000 0.000000
vt 0.500000 0.000000
vt 0.500000 0.000000
vt 0.000000 0.500000
vt 0.500000 0.500000
vt 0.500000 0.500000
vt 0.500000 0.500000
vt 0.500000 0.500000
vt 0.500000 0.500000
vt 0.500000 0.500000
vt 0.500000 0.500000
vt 0.500000 0.500000
vt 0.500000 0.500000
vt 0.500000 0.500000
vt 0.500000 0.500000
vt 0.500000 0.500000
vt 0.500000 0.500000
vt 0.500000 0.500000
vt 0.500000 0.500000
vt 0.500000 0.500000
vt 0.500000 0.500000
vt 0.500000 0.500000
vt 0.500000 0.500000
vt 0.500000 0.500000
vt 0.500000 0.500000
vt 0.500000 0.500000
vt 0.500000 0.500000
vt 0.500000 0.500000
vn 0.7991 0.0000 0.6012
vn -0.6012 0.0000 -0.7991
vn 0.0000 -0.6012 -0.7991
vn -0.7991 -0.6012 0.0000
vn 0.6012 0.7991 0.0000
vn -0.5774 -0.5774 0.5774
vn -0.5774 0.5774 0.5774
vn -0.5774 -0.5774 -0.5774
vn -0.5774 0.5774 -0.5774
vn 0.5774 -0.5774 0.5774
vn 0.5774 0.5774 0.5774
vn 0.5774 -0.5774 -0.5774
vn 0.5774 0.5774 -0.5774
vn -0.7071 -0.7071 0.0000
vn -0.7071 0.0000 0.7071
vn -0.7071 0.7071 0.0000
vn -0.7071 0.0000 -0.7071
vn 0.0000 -0.7071 -0.7071
vn 0.0000 0.7071 -0.7071
vn 0.7071 0.0000 -0.7071
vn 0.7071 -0.7071 0.0000
vn 0.7071 0.7071 0.0000
vn 0.7071 0.0000 0.7071
vn 0.0000 -0.7071 0.7071
vn 0.0000 0.7071 0.7071
vn 0.0000 0.7991 -0.6012
vn 0.0000 -1.0000 -0.0000
vn -1.0000 -0.0000 0.0000
vn -0.0000 0.0000 1.0000
vn 0.0000 1.0000 0.0000
vn -0.0000 0.0000 -1.0000
vn 1.0000 0.0000 0.0000
vn 0.0000 -0.6012 0.7991
vn -0.7991 0.0000 -0.6012
vn 0.6012 0.0000 -0.7991
vn -0.7991 0.0000 0.6012
vn -0.6012 0.7991 0.0000
vn -0.6012 0.0000 0.7991
vn 0.7991 0.0000 -0.6012
vn 0.6012 0.0000 0.7991
vn 0.6012 -0.7991 0.0000
vn 0.0000 -0.7991 0.6012
vn 0.7991 -0.6012 0.0000
vn 0.0000 0.6012 -0.7991
vn -0.6012 -0.7991 0.0000
vn 0.0000 -0.7991 -0.6012
vn 0.0000 0.6012 0.7991
vn -0.7991 0.6012 0.0000
vn 0.0000 0.7991 0.6012
vn 0.7991 0.6012 0.0000
s 1
f 2/1/1 54/2/1 4/3/1
f 6/4/2 51/5/2 3/6/2
f 1/7/3 67/8/3 13/9/3
f 13/10/4 61/11/4 19/12/4
f 21/13/5 68/14/5 14/15/5
f 26/16/6 29/17/6 27/18/6
f 30/19/7 32/20/7 31/21/7
f 25/22/8 28/23/8 36/24/8
f 33/25/9 35/26/9 34/27/9
f 43/28/10 44/29/10 48/30/10
f 45/31/11 47/32/11 46/33/11
f 37/34/12 38/35/12 42/36/12
f 39/37/13 41/38/13 40/39/13
f 26/40/14 28/41/14 25/22/14
f 30/42/15 27/43/15 29/44/15
f 33/45/16 31/46/16 32/47/16
f 36/48/17 34/49/17 35/50/17
f 25/51/18 38/52/18 37/34/18
f 39/53/19 35/54/19 33/25/19
f 42/55/20 40/56/20 41/57/20
f 37/58/21 44/59/21 43/28/21
f 45/60/22 41/61/22 39/37/22
f 48/62/23 46/63/23 47/64/23
f 43/65/24 29/66/24 26/16/24
f 32/20/25 47/67/25 45/31/25
f 9/68/26 62/69/26 20/70/26
f 7/71/27 26/72/27 25/73/27
f 3/6/28 28/74/28 27/43/28
f 2/75/29 30/76/29 29/66/29
f 6/77/28 27/18/28 31/46/28
f 5/78/30 33/79/30 32/80/30
f 12/81/28 31/21/28 34/49/28
f 11/82/31 36/24/31 35/54/31
f 8/83/28 34/27/28 28/41/28
f 19/12/27 25/84/27 37/85/27
f 9/86/31 38/87/31 36/88/31
f 10/89/30 39/90/30 33/91/30
f 24/92/31 35/93/31 40/56/31
f 23/94/32 42/36/32 41/61/32
f 20/70/31 40/39/31 38/52/31
f 13/9/27 37/95/27 43/96/27
f 21/97/32 44/98/32 42/99/32
f 22/100/30 45/101/30 39/102/30
f 18/103/32 41/104/32 46/63/32
f 17/105/29 48/30/29 47/67/29
f 14/15/32 46/33/32 44/59/32
f 1/106/27 43/107/27 26/108/27
f 15/109/29 29/110/29 48/111/29
f 16/112/30 32/113/30 45/114/30
f 4/3/29 47/115/29 30/116/29
f 71/117/29 53/118/29 72/119/29
f 65/120/32 68/14/32 66/121/32
f 57/122/30 69/123/30 63/124/30
f 55/125/28 52/126/28 51/127/28
f 59/128/31 62/69/31 60/129/31
f 61/130/27 50/131/27 49/132/27
f 19/133/33 49/134/33 7/71/33
f 20/135/34 64/136/34 24/92/34
f 14/137/35 70/138/35 18/103/35
f 17/139/36 72/140/36 15/109/36
f 3/141/37 52/126/37 8/83/37
f 8/142/38 58/143/38 12/81/38
f 11/144/39 60/145/39 9/86/39
f 23/146/40 66/147/40 21/97/40
f 18/148/41 65/149/41 23/94/41
f 4/150/42 71/151/42 17/105/42
f 7/152/43 50/131/43 1/106/43
f 16/153/44 56/154/44 5/78/44
f 12/155/45 55/156/45 6/77/45
f 24/157/46 59/158/46 11/82/46
f 10/159/47 63/160/47 22/100/47
f 22/161/48 69/123/48 16/112/48
f 15/162/49 53/118/49 2/75/49
f 5/163/50 57/164/50 10/89/50
f 2/1/1 53/165/1 54/2/1
f 6/4/2 55/166/2 51/5/2
f 1/7/3 50/167/3 67/8/3
f 13/10/4 67/168/4 61/11/4
f 21/13/5 66/169/5 68/14/5
f 26/40/14 27/18/14 28/41/14
f 30/42/15 31/21/15 27/43/15
f 33/45/16 34/27/16 31/46/16
f 36/48/17 28/74/17 34/49/17
f 25/51/18 36/24/18 38/52/18
f 39/53/19 40/39/19 35/54/19
f 42/55/20 38/87/20 40/56/20
f 37/58/21 42/36/21 44/59/21
f 45/60/22 46/33/22 41/61/22
f 48/62/23 44/98/23 46/63/23
f 43/65/24 48/30/24 29/66/24
f 32/20/25 30/76/25 47/67/25
f 9/68/26 60/170/26 62/69/26
f 7/71/27 1/7/27 26/72/27
f 3/6/28 8/142/28 28/74/28
f 2/75/29 4/150/29 30/76/29
f 6/77/28 3/141/28 27/18/28
f 5/78/30 10/159/30 33/79/30
f 12/81/28 6/4/28 31/21/28
f 11/82/31 9/68/31 36/24/31
f 8/83/28 12/155/28 34/27/28
f 19/12/27 7/152/27 25/84/27
f 9/86/31 20/135/31 38/87/31
f 10/89/30 22/161/30 39/90/30
f 24/92/31 11/144/31 35/93/31
f 23/94/32 21/13/32 42/36/32
f 20/70/31 24/157/31 40/39/31
f 13/9/27 19/133/27 37/95/27
f 21/97/32 14/137/32 44/98/32
f 22/100/30 16/153/30 45/101/30
f 18/103/32 23/146/32 41/104/32
f 17/105/29 15/162/29 48/30/29
f 14/15/32 18/148/32 46/33/32
f 1/106/27 13/10/27 43/107/27
f 15/109/29 2/1/29 29/110/29
f 16/112/30 5/163/30 32/113/30
f 4/3/29 17/139/29 47/115/29
f 71/117/29 54/171/29 53/118/29
f 65/120/32 70/172/32 68/14/32
f 57/122/30 56/173/30 69/123/30
f 55/125/28 58/174/28 52/126/28
f 59/128/31 64/175/31 62/69/31
f 61/130/27 67/168/27 50/131/27
f 19/133/33 61/176/33 49/134/33
f 20/135/34 62/177/34 64/136/34
f 14/137/35 68/178/35 70/138/35
f 17/139/36 71/179/36 72/140/36
f 3/141/37 51/180/37 52/126/37
f 8/142/38 52/181/38 58/143/38
f 11/144/39 59/182/39 60/145/39
f 23/146/40 65/183/40 66/147/40
f 18/148/41 70/172/41 65/149/41
f 4/150/42 54/171/42 71/151/42
f 7/152/43 49/184/43 50/131/43
f 16/153/44 69/185/44 56/154/44
f 12/155/45 58/174/45 55/156/45
f 24/157/46 64/175/46 59/158/46
f 10/159/47 57/186/47 63/160/47
f 22/161/48 63/187/48 69/123/48
f 15/162/49 72/188/49 53/118/49
f 5/163/50 56/173/50 57/164/50
