# Blender v2.79 (sub 0) OBJ File: 'circle.blend'
# www.blender.org
o Cylinder.001_Cylinder.002
v 0.047788 0.336465 0.007424
v 0.204126 0.271708 0.007424
v 0.271708 0.204125 0.007424
v 0.336465 0.047788 0.007424
v 0.336465 -0.047788 0.007424
v 0.271708 -0.204125 0.007424
v 0.204126 -0.271708 0.007424
v 0.047788 -0.336465 0.007424
v -0.047788 -0.336465 0.007424
v -0.204126 -0.271708 0.007424
v -0.271708 -0.204125 0.007424
v -0.336465 -0.047788 0.007424
v -0.336465 0.047788 0.007424
v -0.271708 0.204125 0.007424
v -0.204126 0.271708 0.007424
v -0.047788 0.336465 0.007424
v 0.047788 0.441528 0.007424
v 0.278417 0.345999 0.007424
v 0.345999 0.278416 0.007424
v 0.441529 0.047788 0.007424
v 0.441529 -0.047788 0.007424
v 0.345999 -0.278416 0.007424
v 0.278417 -0.345999 0.007424
v 0.047788 -0.441528 0.007424
v -0.047788 -0.441528 0.007424
v -0.278417 -0.345998 0.007424
v -0.345999 -0.278416 0.007424
v -0.441529 -0.047788 0.007424
v -0.441529 0.047788 0.007424
v -0.345999 0.278416 0.007424
v -0.278417 0.345998 0.007424
v -0.047788 0.441528 0.007424
v 0.047788 0.336465 -0.007424
v 0.204126 0.271708 -0.007424
v 0.271708 0.204125 -0.007424
v 0.336465 0.047788 -0.007424
v 0.336465 -0.047788 -0.007424
v 0.271708 -0.204125 -0.007424
v 0.204126 -0.271708 -0.007424
v 0.047788 -0.336465 -0.007424
v -0.047788 -0.336465 -0.007424
v -0.204126 -0.271708 -0.007424
v -0.271708 -0.204125 -0.007424
v -0.336465 -0.047788 -0.007424
v -0.336465 0.047788 -0.007424
v -0.271708 0.204125 -0.007424
v -0.204126 0.271708 -0.007424
v -0.047788 0.336465 -0.007424
v 0.047788 0.441528 -0.007424
v 0.278417 0.345999 -0.007424
v 0.345999 0.278416 -0.007424
v 0.441529 0.047788 -0.007424
v 0.441529 -0.047788 -0.007424
v 0.345999 -0.278416 -0.007424
v 0.278417 -0.345999 -0.007424
v 0.047788 -0.441528 -0.007424
v -0.047788 -0.441528 -0.007424
v -0.278417 -0.345998 -0.007424
v -0.345999 -0.278416 -0.007424
v -0.441529 -0.047788 -0.007424
v -0.441529 0.047788 -0.007424
v -0.345999 0.278416 -0.007424
v -0.278417 0.345998 -0.007424
v -0.047788 0.441528 -0.007424
vt 0.062500 0.000000
vt 0.000000 1.000000
vt 0.000000 0.000000
vt 0.125000 0.000000
vt 0.062500 1.000000
vt 0.062500 0.000000
vt 0.187500 1.000000
vt 0.125000 0.000000
vt 0.187500 0.000000
vt 0.250000 1.000000
vt 0.187500 0.000000
vt 0.250000 0.000000
vt 0.312500 0.000000
vt 0.250000 1.000000
vt 0.250000 0.000000
vt 0.375000 0.000000
vt 0.312500 1.000000
vt 0.312500 0.000000
vt 0.437500 1.000000
vt 0.375000 0.000000
vt 0.437500 0.000000
vt 0.500000 1.000000
vt 0.437500 0.000000
vt 0.500000 0.000000
vt 0.062500 0.000000
vt 0.000000 1.000000
vt 0.062500 1.000000
vt 0.125000 0.000000
vt 0.062500 1.000000
vt 0.125000 1.000000
vt 0.125000 0.000000
vt 0.187500 1.000000
vt 0.187500 0.000000
vt 0.187500 0.000000
vt 0.250000 1.000000
vt 0.250000 0.000000
vt 0.312500 0.000000
vt 0.250000 1.000000
vt 0.312500 1.000000
vt 0.375000 0.000000
vt 0.312500 1.000000
vt 0.375000 1.000000
vt 0.375000 0.000000
vt 0.437500 1.000000
vt 0.437500 0.000000
vt 0.437500 0.000000
vt 0.500000 1.000000
vt 0.500000 0.000000
vt 0.062500 1.000000
vt 0.125000 1.000000
vt 0.125000 1.000000
vt 0.187500 1.000000
vt 0.312500 1.000000
vt 0.375000 1.000000
vt 0.375000 1.000000
vt 0.437500 1.000000
vt 0.000000 0.000000
vt 0.062500 0.000000
vt 0.125000 1.000000
vt 0.187500 1.000000
vt 0.250000 0.000000
vt 0.312500 0.000000
vt 0.375000 1.000000
vt 0.437500 1.000000
vn 0.0000 -0.0000 1.0000
vn 0.0000 -0.0000 -1.0000
s 1
f 2/1/1 17/2/1 1/3/1
f 4/4/1 19/5/1 3/6/1
f 22/7/1 5/8/1 6/9/1
f 24/10/1 7/11/1 8/12/1
f 10/13/1 25/14/1 9/15/1
f 12/16/1 27/17/1 11/18/1
f 30/19/1 13/20/1 14/21/1
f 32/22/1 15/23/1 16/24/1
f 34/25/2 49/26/2 50/27/2
f 36/28/2 51/29/2 52/30/2
f 37/31/2 54/32/2 38/33/2
f 39/34/2 56/35/2 40/36/2
f 42/37/2 57/38/2 58/39/2
f 44/40/2 59/41/2 60/42/2
f 45/43/2 62/44/2 46/45/2
f 47/46/2 64/47/2 48/48/2
f 2/1/1 18/49/1 17/2/1
f 4/4/1 20/50/1 19/5/1
f 22/7/1 21/51/1 5/8/1
f 24/10/1 23/52/1 7/11/1
f 10/13/1 26/53/1 25/14/1
f 12/16/1 28/54/1 27/17/1
f 30/19/1 29/55/1 13/20/1
f 32/22/1 31/56/1 15/23/1
f 34/25/2 33/57/2 49/26/2
f 36/28/2 35/58/2 51/29/2
f 37/31/2 53/59/2 54/32/2
f 39/34/2 55/60/2 56/35/2
f 42/37/2 41/61/2 57/38/2
f 44/40/2 43/62/2 59/41/2
f 45/43/2 61/63/2 62/44/2
f 47/46/2 63/64/2 64/47/2
