# Blender v2.79 (sub 0) OBJ File: 'flare.blend'
# www.blender.org
o Sphere.001
v 0.094617 0.000000 0.769758
v 0.144471 0.000000 0.778600
v 0.111893 0.000000 0.906838
v 0.072233 0.000000 0.884904
v 0.032613 0.000000 0.949534
v 0.053619 0.000000 0.980752
v -0.029635 0.000000 0.996121
v -0.026395 0.000000 0.962973
v -0.110359 0.000000 0.950605
v -0.083677 0.000000 0.923174
v -0.116787 0.000000 0.834261
v -0.159333 0.000000 0.850472
v -0.170927 0.000000 0.692051
v -0.125959 0.000000 0.693393
v -0.119654 0.000000 0.520326
v -0.162039 0.000000 0.494012
v 0.089525 0.000000 0.520326
v 0.136001 0.000000 0.494539
v 0.144889 0.000000 0.692261
v 0.095831 0.000000 0.693393
v 0.133296 0.000000 0.850500
v 0.086658 0.000000 0.834261
v 0.084322 0.000000 0.950605
v 0.053548 0.000000 0.923174
v 0.010388 0.000000 0.962973
v 0.021024 0.000000 0.996121
v -0.079656 0.000000 0.980752
v -0.062742 0.000000 0.949534
v -0.102362 0.000000 0.884904
v -0.137931 0.000000 0.906838
v -0.170508 0.000000 0.778484
v -0.124746 0.000000 0.769758
v -0.164970 0.000000 0.595844
v -0.122412 0.000000 0.609044
v 0.138933 0.000000 0.596132
v 0.092283 0.000000 0.609044
v 0.096010 0.000000 0.732861
v 0.145884 0.000000 0.737018
v 0.091539 0.000000 0.803664
v 0.140368 0.000000 0.816535
v 0.080161 0.000000 0.861369
v 0.123667 0.000000 0.880357
v 0.063240 0.000000 0.905449
v 0.098578 0.000000 0.930334
v 0.043294 0.000000 0.937921
v 0.069283 0.000000 0.967470
v 0.021609 0.000000 0.957917
v 0.037481 0.000000 0.990339
v -0.004473 0.000000 0.964669
v 0.000051 0.000000 0.998060
v -0.048207 0.000000 0.957917
v -0.059162 0.000000 0.990339
v -0.073423 0.000000 0.937921
v -0.095321 0.000000 0.967470
v -0.093369 0.000000 0.905449
v -0.124615 0.000000 0.930334
v -0.110290 0.000000 0.861369
v -0.149704 0.000000 0.880357
v -0.121667 0.000000 0.803664
v -0.166406 0.000000 0.816466
v -0.126138 0.000000 0.732861
v -0.171922 0.000000 0.736854
v -0.124590 0.000000 0.651907
v -0.168338 0.000000 0.644766
v -0.120431 0.000000 0.565545
v -0.162358 0.000000 0.546147
v -0.117804 0.000000 0.462608
v -0.160139 0.000000 0.428530
v 0.087676 0.000000 0.462608
v 0.134101 0.000000 0.429231
v 0.090302 0.000000 0.565545
v 0.136321 0.000000 0.546504
v 0.094461 0.000000 0.651907
v 0.142301 0.000000 0.645018
vt 0.222223 0.000000
vt 0.194445 1.000000
vt 0.194445 0.000000
vt 0.333333 0.000000
vt 0.305555 1.000000
vt 0.305555 0.000000
vt 0.444444 0.000000
vt 0.416666 1.000000
vt 0.416666 0.000000
vt 0.277778 1.000000
vt 0.277778 0.000000
vt 0.555557 0.000000
vt 0.527779 1.000000
vt 0.527779 0.000000
vt 0.388889 1.000000
vt 0.388889 0.000000
vt 0.666668 1.000000
vt 0.638890 0.000000
vt 0.666668 0.000000
vt 0.500001 0.000000
vt 0.722223 0.000000
vt 0.750000 1.000000
vt 0.722223 1.000000
vt 0.638890 1.000000
vt 0.611112 0.000000
vt 0.777778 1.000000
vt 0.750000 0.000000
vt 0.777778 0.000000
vt 0.888889 0.000000
vt 0.861111 1.000000
vt 0.861111 0.000000
vt 1.000000 0.000000
vt 0.972222 1.000000
vt 0.972222 0.000000
vt 0.833334 0.000000
vt 0.944445 1.000000
vt 0.944445 0.000000
vt -0.000000 0.000000
vt 0.027778 1.000000
vt -0.000000 1.000000
vt 0.055555 1.000000
vt 0.027778 0.000000
vt 0.055555 0.000000
vt 0.166667 0.000000
vt 0.138889 1.000000
vt 0.138889 0.000000
vt 0.111111 0.000000
vt 0.250000 1.000000
vt 0.250000 0.000000
vt 0.361111 1.000000
vt 0.361111 0.000000
vt 0.222223 1.000000
vt 0.472223 1.000000
vt 0.444444 1.000000
vt 0.333333 1.000000
vt 0.500001 1.000000
vt 0.472223 0.000000
vt 0.611112 1.000000
vt 0.583334 0.000000
vt 0.694445 0.000000
vt 0.583334 1.000000
vt 0.833334 1.000000
vt 0.805556 0.000000
vt 0.694445 1.000000
vt 0.916667 1.000000
vt 0.916667 0.000000
vt 0.805556 1.000000
vt 0.888889 1.000000
vt 0.111111 1.000000
vt 0.083333 0.000000
vt 0.083333 1.000000
vt 0.166667 1.000000
vt 0.555557 1.000000
vt 1.000000 1.000000
vn 0.0000 1.0000 0.0000
s 1
f 39/1/1 2/2/1 1/3/1
f 43/4/1 3/5/1 4/6/1
f 47/7/1 6/8/1 5/9/1
f 4/6/1 42/10/1 41/11/1
f 51/12/1 7/13/1 8/14/1
f 5/9/1 46/15/1 45/16/1
f 56/17/1 10/18/1 55/19/1
f 7/13/1 49/20/1 8/14/1
f 57/21/1 12/22/1 58/23/1
f 9/24/1 53/25/1 10/18/1
f 60/26/1 11/27/1 59/28/1
f 63/29/1 13/30/1 14/31/1
f 67/32/1 16/33/1 15/34/1
f 13/30/1 61/35/1 14/31/1
f 15/34/1 66/36/1 65/37/1
f 69/38/1 18/39/1 70/40/1
f 72/41/1 17/42/1 71/43/1
f 37/44/1 19/45/1 20/46/1
f 19/45/1 73/47/1 20/46/1
f 41/11/1 21/48/1 22/49/1
f 45/16/1 23/50/1 24/51/1
f 22/49/1 40/52/1 39/1/1
f 47/7/1 26/53/1 48/54/1
f 24/51/1 44/55/1 43/4/1
f 50/56/1 25/57/1 49/20/1
f 54/58/1 28/59/1 53/25/1
f 58/23/1 29/60/1 57/21/1
f 27/61/1 51/12/1 28/59/1
f 62/62/1 32/63/1 61/35/1
f 30/64/1 55/19/1 29/60/1
f 65/37/1 33/65/1 34/66/1
f 31/67/1 59/28/1 32/63/1
f 34/66/1 64/68/1 63/29/1
f 74/69/1 36/70/1 73/47/1
f 35/71/1 71/43/1 36/70/1
f 1/3/1 38/72/1 37/44/1
f 39/1/1 40/52/1 2/2/1
f 43/4/1 44/55/1 3/5/1
f 47/7/1 48/54/1 6/8/1
f 4/6/1 3/5/1 42/10/1
f 51/12/1 52/73/1 7/13/1
f 5/9/1 6/8/1 46/15/1
f 56/17/1 9/24/1 10/18/1
f 7/13/1 50/56/1 49/20/1
f 57/21/1 11/27/1 12/22/1
f 9/24/1 54/58/1 53/25/1
f 60/26/1 12/22/1 11/27/1
f 63/29/1 64/68/1 13/30/1
f 67/32/1 68/74/1 16/33/1
f 13/30/1 62/62/1 61/35/1
f 15/34/1 16/33/1 66/36/1
f 69/38/1 17/42/1 18/39/1
f 72/41/1 18/39/1 17/42/1
f 37/44/1 38/72/1 19/45/1
f 19/45/1 74/69/1 73/47/1
f 41/11/1 42/10/1 21/48/1
f 45/16/1 46/15/1 23/50/1
f 22/49/1 21/48/1 40/52/1
f 47/7/1 25/57/1 26/53/1
f 24/51/1 23/50/1 44/55/1
f 50/56/1 26/53/1 25/57/1
f 54/58/1 27/61/1 28/59/1
f 58/23/1 30/64/1 29/60/1
f 27/61/1 52/73/1 51/12/1
f 62/62/1 31/67/1 32/63/1
f 30/64/1 56/17/1 55/19/1
f 65/37/1 66/36/1 33/65/1
f 31/67/1 60/26/1 59/28/1
f 34/66/1 33/65/1 64/68/1
f 74/69/1 35/71/1 36/70/1
f 35/71/1 72/41/1 71/43/1
f 1/3/1 2/2/1 38/72/1
