# Blender v2.79 (sub 0) OBJ File: 'hud.blend'
# www.blender.org
o HUD2_Plane.002
v 0.908370 -0.666038 0.299014
v 1.273240 -0.666038 0.109020
v 0.908370 0.979455 0.299014
v 1.273240 0.979455 0.109020
v 0.908370 0.568082 0.299014
v 0.908370 0.156709 0.299014
v 0.908370 -0.254665 0.299014
v 1.273240 -0.254665 0.109020
v 1.273240 0.156709 0.109020
v 1.273240 0.568082 0.109020
v 0.953736 0.606402 0.303168
v 1.250631 0.606402 0.148569
v 1.250631 0.941136 0.148569
v 0.953736 0.941136 0.303168
v 0.953736 -0.627718 0.303168
v 1.250631 -0.627718 0.148569
v 1.250631 -0.292984 0.148569
v 0.953736 -0.292984 0.303168
v 0.953736 -0.216345 0.303168
v 1.250631 -0.216345 0.148569
v 1.250631 0.118389 0.148569
v 0.953736 0.118389 0.303168
v 0.953736 0.195028 0.303168
v 1.250631 0.195028 0.148569
v 1.250631 0.529762 0.148569
v 0.953736 0.529762 0.303168
v 0.923065 -0.271233 0.291362
v 0.923065 -0.649470 0.291362
v 1.258545 -0.649470 0.116672
v 1.258545 0.584650 0.116672
v 1.258545 0.962887 0.116672
v 0.923065 0.962887 0.291362
v 0.923065 0.584650 0.291362
v 0.923065 0.551514 0.291362
v 0.923065 0.173277 0.291362
v 0.923065 0.140141 0.291362
v 0.923065 -0.238096 0.291362
v 1.258545 -0.271233 0.116672
v 1.258545 -0.238096 0.116672
v 1.258545 0.140141 0.116672
v 1.258545 0.173277 0.116672
v 1.258545 0.551514 0.116672
v 0.962665 -0.254665 0.352389
v 1.285838 -0.254665 0.184107
v 0.962665 0.568082 0.352389
v 1.285838 0.568082 0.184107
v 0.962665 0.156709 0.352389
v 1.261964 -0.181230 0.231027
v 1.285838 0.156709 0.184107
v 1.261964 0.494647 0.231027
v 1.289963 -0.666038 0.141135
v 0.925093 -0.666038 0.331129
v 0.925093 0.156709 0.331129
v 0.925093 0.568082 0.331129
v 0.925093 0.979455 0.331129
v 1.289963 -0.254665 0.141135
v 1.289963 0.979455 0.141135
v 0.925093 -0.254665 0.331129
v 1.289963 0.156709 0.141135
v 1.289963 0.568082 0.141135
v 1.261964 0.156709 0.231027
v 1.303279 0.494647 0.310370
v 1.303279 -0.181230 0.310370
v 1.499835 0.494647 0.208019
v 1.499835 0.156709 0.208019
v 1.458520 0.494647 0.128677
v 1.458520 0.156709 0.128677
v 1.499835 -0.181230 0.208019
v 1.458520 -0.181230 0.128677
v -0.908370 -0.666038 0.299014
v -1.273240 -0.666038 0.109020
v -0.908370 0.979455 0.299014
v -1.273240 0.979455 0.109020
v -0.908370 0.568082 0.299014
v -0.908370 0.156709 0.299014
v -0.908370 -0.254665 0.299014
v -1.273240 -0.254665 0.109020
v -1.273240 0.156709 0.109020
v -1.273240 0.568082 0.109020
v -0.953736 0.606402 0.303168
v -1.250631 0.606402 0.148569
v -1.250631 0.941136 0.148569
v -0.953736 0.941136 0.303168
v -0.953736 -0.627718 0.303168
v -1.250631 -0.627718 0.148569
v -1.250631 -0.292984 0.148569
v -0.953736 -0.292984 0.303168
v -0.953736 -0.216345 0.303168
v -1.250631 -0.216345 0.148569
v -1.250631 0.118389 0.148569
v -0.953736 0.118389 0.303168
v -0.953736 0.195028 0.303168
v -1.250631 0.195028 0.148569
v -1.250631 0.529762 0.148569
v -0.953736 0.529762 0.303168
v -0.923065 -0.271233 0.291362
v -0.923065 -0.649470 0.291362
v -1.258545 -0.649470 0.116672
v -1.258545 0.584650 0.116672
v -1.258545 0.962887 0.116672
v -0.923065 0.962887 0.291362
v -0.923065 0.584650 0.291362
v -0.923065 0.551514 0.291362
v -0.923065 0.173277 0.291362
v -0.923065 0.140141 0.291362
v -0.923065 -0.238096 0.291362
v -1.258545 -0.271233 0.116672
v -1.258545 -0.238096 0.116672
v -1.258545 0.140141 0.116672
v -1.258545 0.173277 0.116672
v -1.258545 0.551514 0.116672
v -0.962665 -0.254665 0.352389
v -1.285838 -0.254665 0.184107
v -0.962665 0.568082 0.352389
v -1.285838 0.568082 0.184107
v -0.962665 0.156709 0.352389
v -1.261964 -0.181230 0.231027
v -1.285838 0.156709 0.184107
v -1.261964 0.494647 0.231027
v -1.289963 -0.666038 0.141135
v -0.925093 -0.666038 0.331129
v -0.925093 0.156709 0.331129
v -0.925093 0.568082 0.331129
v -0.925093 0.979455 0.331129
v -1.289963 -0.254665 0.141135
v -1.289963 0.979455 0.141135
v -0.925093 -0.254665 0.331129
v -1.289963 0.156709 0.141135
v -1.289963 0.568082 0.141135
v -1.261964 0.156709 0.231027
v -1.303279 0.494647 0.310370
v -1.303279 -0.181230 0.310370
v -1.499835 0.494647 0.208019
v -1.458520 0.494647 0.128677
v -1.458520 0.156709 0.128677
v -1.499835 -0.181230 0.208019
v -1.458520 -0.181230 0.128677
v -0.304757 1.171552 0.524639
v 0.304757 1.171552 0.524639
v -0.737287 1.194322 0.443574
v -0.737287 0.896829 0.534188
v 0.737287 0.896829 0.534188
v 0.737287 1.194322 0.443574
v -0.775724 1.224534 0.410845
v -0.775724 0.853502 0.523858
v 0.775724 0.853502 0.523858
v 0.775724 1.224534 0.410845
v -0.756178 1.205836 0.416540
v -0.756178 0.872200 0.518162
v 0.756178 0.872200 0.518162
v 0.756178 1.205836 0.416540
v -0.775724 1.232144 0.435828
v 0.775724 1.232144 0.435828
v -0.775724 0.861112 0.548841
v 0.775724 0.861112 0.548841
v -0.762069 1.226691 0.464791
v -0.762069 0.881785 0.569846
v 0.762069 0.881785 0.569846
v 0.762069 1.226691 0.464791
v -0.304757 1.204978 0.634377
v 0.304757 1.204978 0.634377
v 0.304757 1.554967 0.407854
v -0.304757 1.554967 0.407854
v 0.304757 1.588393 0.517592
v -0.304757 1.588393 0.517592
v -0.191197 0.775999 0.607504
v 0.191197 0.775999 0.607504
v -0.462555 0.799692 0.560289
v -0.462555 0.605649 0.580622
v 0.462555 0.605649 0.580622
v 0.462555 0.799692 0.560289
v -0.486669 0.822204 0.543733
v -0.486669 0.580194 0.569092
v 0.486669 0.580194 0.569092
v 0.486669 0.822204 0.543733
v -0.474407 0.810008 0.545011
v -0.474407 0.592390 0.567814
v 0.474407 0.592390 0.567814
v 0.474407 0.810008 0.545011
v -0.486669 0.823911 0.560029
v 0.486669 0.823911 0.560029
v -0.486669 0.581902 0.585388
v 0.486669 0.581902 0.585388
v -0.478102 0.817098 0.577217
v -0.478102 0.592130 0.600791
v 0.478102 0.592130 0.600791
v 0.478102 0.817098 0.577217
v -0.191197 0.783500 0.679082
v 0.191197 0.783500 0.679082
v 0.191197 1.026086 0.581298
v -0.191197 1.026086 0.581298
v 0.191197 1.033586 0.652877
v -0.191197 1.033586 0.652877
vt 0.500000 0.000000
vt 0.000000 0.500000
vt 0.000000 0.000000
vt 0.500000 0.000000
vt 0.000000 0.500000
vt 0.000000 0.000000
vt 0.500000 0.000000
vt 0.000000 0.500000
vt 0.000000 0.000000
vt 0.500000 0.000000
vt 0.000000 0.500000
vt 0.000000 0.000000
vt 0.500000 0.000000
vt 0.000000 0.500000
vt 0.000000 0.000000
vt 0.500000 0.000000
vt 0.000000 0.500000
vt 0.000000 0.000000
vt 0.500000 0.000000
vt 0.000000 0.500000
vt 0.000000 0.000000
vt 0.000000 0.000000
vt 0.500000 0.500000
vt 0.000000 0.500000
vt 0.500000 0.500000
vt 0.500000 0.000000
vt 0.000000 0.500000
vt 0.500000 0.000000
vt 0.000000 0.500000
vt 0.000000 0.000000
vt 0.500000 0.000000
vt 0.000000 0.000000
vt 0.500000 0.500000
vt 0.500000 0.000000
vt 0.500000 0.000000
vt 0.500000 0.000000
vt 0.000000 0.500000
vt 0.000000 0.000000
vt 0.000000 0.500000
vt 0.000000 0.000000
vt 0.000000 0.500000
vt 0.000000 0.000000
vt 0.000000 0.000000
vt 0.500000 0.500000
vt 0.000000 0.500000
vt 0.000000 0.500000
vt 0.000000 0.000000
vt 0.000000 0.000000
vt 0.500000 0.500000
vt 0.000000 0.500000
vt 0.000000 0.000000
vt 0.500000 0.500000
vt 0.000000 0.500000
vt 0.000000 0.500000
vt 0.000000 0.000000
vt 0.000000 0.500000
vt 0.000000 0.000000
vt 0.000000 0.000000
vt 0.000000 0.500000
vt 0.000000 0.500000
vt 0.000000 0.000000
vt 0.000000 0.000000
vt 0.500000 0.500000
vt 0.000000 0.500000
vt 0.000000 0.500000
vt 0.000000 0.000000
vt 0.000000 0.500000
vt 0.000000 0.000000
vt 0.000000 0.500000
vt 0.000000 0.000000
vt 0.000000 0.000000
vt 0.500000 0.500000
vt 0.000000 0.500000
vt 0.000000 0.000000
vt 0.500000 0.000000
vt 0.500000 0.500000
vt 0.000000 0.000000
vt 0.500000 0.000000
vt 0.500000 0.500000
vt 0.000000 0.000000
vt 0.500000 0.000000
vt 0.500000 0.500000
vt 0.500000 0.000000
vt 0.000000 0.500000
vt 0.500000 0.000000
vt 0.000000 0.500000
vt 0.000000 0.000000
vt 0.500000 0.000000
vt 0.000000 0.500000
vt 0.000000 0.000000
vt 0.500000 0.000000
vt 0.000000 0.500000
vt 0.500000 0.000000
vt 0.000000 0.500000
vt 0.000000 0.000000
vt 0.500000 0.000000
vt 0.500000 0.000000
vt 0.500000 0.000000
vt 0.000000 0.000000
vt 0.500000 0.500000
vt 0.500000 0.000000
vt 0.000000 0.500000
vt 0.000000 0.000000
vt 0.000000 0.000000
vt 0.500000 0.500000
vt 0.000000 0.500000
vt 0.500000 0.000000
vt 0.000000 0.500000
vt 0.000000 0.000000
vt 0.500000 0.000000
vt 0.000000 0.500000
vt 0.000000 0.000000
vt 0.500000 0.000000
vt 0.000000 0.500000
vt 0.000000 0.000000
vt 0.000000 0.000000
vt 0.500000 0.500000
vt 0.000000 0.500000
vt 0.500000 0.000000
vt 0.000000 0.500000
vt 0.000000 0.000000
vt 0.000000 0.000000
vt 0.500000 0.500000
vt 0.000000 0.500000
vt 0.500000 0.000000
vt 0.000000 0.500000
vt 0.000000 0.000000
vt 0.500000 0.000000
vt 0.000000 0.500000
vt 0.000000 0.000000
vt 0.500000 0.000000
vt 0.000000 0.500000
vt 0.000000 0.000000
vt 0.500000 0.000000
vt 0.000000 0.500000
vt 0.000000 0.000000
vt 0.000000 0.000000
vt 0.500000 0.500000
vt 0.000000 0.500000
vt 0.500000 0.500000
vt 0.000000 0.500000
vt 0.500000 0.000000
vt 0.000000 0.500000
vt 0.500000 0.000000
vt 0.000000 0.500000
vt 0.000000 0.000000
vt 0.000000 0.000000
vt 0.500000 0.500000
vt 0.000000 0.500000
vt 0.500000 0.500000
vt 0.000000 0.500000
vt 0.500000 0.000000
vt 0.000000 0.500000
vt 0.000000 0.500000
vt 0.000000 0.500000
vt 0.500000 0.000000
vt 0.000000 0.000000
vt 0.500000 0.000000
vt 0.000000 0.000000
vt 0.500000 0.000000
vt 0.000000 0.000000
vt 0.000000 0.000000
vt 0.500000 0.500000
vt 0.500000 0.000000
vt 0.000000 0.000000
vt 0.500000 0.000000
vt 0.000000 0.000000
vt 0.500000 0.000000
vt 0.000000 0.000000
vt 0.500000 0.000000
vt 0.000000 0.000000
vt 0.500000 0.000000
vt 0.000000 0.000000
vt 0.000000 0.000000
vt 0.500000 0.000000
vt 0.000000 0.000000
vt 0.000000 0.000000
vt 0.500000 0.500000
vt 0.500000 0.000000
vt 0.000000 0.000000
vt 0.000000 0.000000
vt 0.500000 0.500000
vt 0.500000 0.000000
vt 0.000000 0.000000
vt 0.000000 0.000000
vt 0.500000 0.500000
vt 0.000000 0.000000
vt 0.500000 0.000000
vt 0.500000 0.500000
vt 0.000000 0.000000
vt 0.500000 0.000000
vt 0.500000 0.500000
vt 0.000000 0.000000
vt 0.500000 0.000000
vt 0.500000 0.500000
vt 0.500000 0.000000
vt 0.000000 0.500000
vt 0.500000 0.000000
vt 0.000000 0.500000
vt 0.000000 0.000000
vt 0.500000 0.000000
vt 0.000000 0.500000
vt 0.000000 0.000000
vt 0.500000 0.000000
vt 0.000000 0.500000
vt 0.500000 0.000000
vt 0.000000 0.500000
vt 0.000000 0.000000
vt 0.000000 0.500000
vt 0.000000 0.500000
vt 0.000000 0.500000
vt 0.000000 0.500000
vt 0.000000 0.500000
vt 0.500000 0.000000
vt 0.500000 0.500000
vt 0.000000 0.500000
vt 0.000000 0.000000
vt 0.500000 0.000000
vt 0.500000 0.500000
vt 0.500000 0.000000
vt 0.000000 0.500000
vt 0.000000 0.000000
vt 0.500000 0.000000
vt 0.000000 0.500000
vt 0.000000 0.000000
vt 0.500000 0.000000
vt 0.000000 0.500000
vt 0.000000 0.000000
vt 0.000000 0.000000
vt 0.500000 0.500000
vt 0.000000 0.500000
vt 0.500000 0.000000
vt 0.000000 0.500000
vt 0.000000 0.000000
vt 0.000000 0.000000
vt 0.500000 0.500000
vt 0.000000 0.500000
vt 0.500000 0.000000
vt 0.000000 0.500000
vt 0.000000 0.000000
vt 0.500000 0.000000
vt 0.000000 0.500000
vt 0.000000 0.000000
vt 0.000000 0.500000
vt 0.000000 0.000000
vt 0.000000 0.500000
vt 0.000000 0.000000
vt 0.000000 0.000000
vt 0.500000 0.500000
vt 0.000000 0.500000
vt 0.500000 0.000000
vt 0.000000 0.500000
vt 0.000000 0.000000
vt 0.500000 0.000000
vt 0.000000 0.500000
vt 0.000000 0.000000
vt 0.500000 0.000000
vt 0.000000 0.500000
vt 0.000000 0.000000
vt 0.500000 0.000000
vt 0.000000 0.500000
vt 0.000000 0.000000
vt 0.500000 0.000000
vt 0.000000 0.500000
vt 0.000000 0.000000
vt 0.500000 0.000000
vt 0.000000 0.500000
vt 0.000000 0.000000
vt 0.500000 0.000000
vt 0.000000 0.500000
vt 0.000000 0.000000
vt 0.500000 0.000000
vt 0.000000 0.500000
vt 0.000000 0.000000
vt 0.000000 0.000000
vt 0.500000 0.500000
vt 0.000000 0.500000
vt 0.500000 0.000000
vt 0.000000 0.500000
vt 0.000000 0.000000
vt 0.500000 0.000000
vt 0.000000 0.500000
vt 0.000000 0.000000
vt 0.000000 0.000000
vt 0.500000 0.500000
vt 0.000000 0.500000
vt 0.500000 0.000000
vt 0.000000 0.500000
vt 0.000000 0.000000
vt 0.000000 0.000000
vt 0.500000 0.500000
vt 0.000000 0.500000
vt 0.500000 0.000000
vt 0.000000 0.500000
vt 0.000000 0.000000
vt 0.500000 0.000000
vt 0.000000 0.500000
vt 0.000000 0.000000
vt 0.000000 0.500000
vt 0.000000 0.000000
vt 0.000000 0.500000
vt 0.000000 0.000000
vt 0.000000 0.000000
vt 0.500000 0.500000
vt 0.000000 0.500000
vt 0.500000 0.000000
vt 0.000000 0.500000
vt 0.000000 0.000000
vt 0.500000 0.000000
vt 0.000000 0.500000
vt 0.000000 0.000000
vt 0.500000 0.000000
vt 0.000000 0.500000
vt 0.000000 0.000000
vt 0.500000 0.000000
vt 0.000000 0.500000
vt 0.000000 0.000000
vt 0.000000 0.000000
vt 0.500000 0.500000
vt 0.000000 0.500000
vt 0.500000 0.000000
vt 0.000000 0.500000
vt 0.000000 0.000000
vt 0.500000 0.000000
vt 0.000000 0.500000
vt 0.000000 0.000000
vt 0.500000 0.000000
vt 0.000000 0.500000
vt 0.000000 0.000000
vt 0.000000 0.000000
vt 0.500000 0.500000
vt 0.000000 0.500000
vt 0.500000 0.000000
vt 0.000000 0.500000
vt 0.000000 0.000000
vt 0.500000 0.000000
vt 0.000000 0.500000
vt 0.000000 0.000000
vt 0.500000 0.500000
vt 0.500000 0.500000
vt 0.500000 0.500000
vt 0.500000 0.500000
vt 0.500000 0.500000
vt 0.500000 0.000000
vt 0.500000 0.000000
vt 0.500000 0.500000
vt 0.500000 0.500000
vt 0.500000 0.000000
vt 0.500000 0.500000
vt 0.500000 0.500000
vt 0.500000 0.500000
vt 0.500000 0.500000
vt 0.500000 0.500000
vt 0.500000 0.500000
vt 0.500000 0.500000
vt 0.500000 0.500000
vt 0.500000 0.500000
vt 0.500000 0.500000
vt 0.500000 0.500000
vt 0.500000 0.500000
vt 0.500000 0.500000
vt 0.500000 0.500000
vt 0.500000 0.000000
vt 0.500000 0.500000
vt 0.500000 0.500000
vt 0.500000 0.500000
vt 0.500000 0.000000
vt 0.500000 0.000000
vt 0.500000 0.000000
vt 0.500000 0.000000
vt 0.500000 0.000000
vt 0.500000 0.500000
vt 0.500000 0.500000
vt 0.500000 0.500000
vt 0.500000 0.500000
vt 0.500000 0.500000
vt 0.500000 0.500000
vt 0.500000 0.500000
vt 0.500000 0.500000
vt 0.500000 0.500000
vt 0.500000 0.000000
vt 0.500000 0.500000
vt 0.500000 0.500000
vt 0.500000 0.500000
vt 0.500000 0.500000
vt 0.500000 0.500000
vt 0.500000 0.500000
vt 0.500000 0.500000
vt 0.500000 0.500000
vt 0.500000 0.500000
vt 0.500000 0.000000
vt 0.500000 0.500000
vt 0.500000 0.500000
vt 0.500000 0.000000
vt 0.500000 0.500000
vt 0.500000 0.500000
vt 0.500000 0.500000
vt 0.500000 0.500000
vt 0.500000 0.500000
vt 0.500000 0.000000
vt 0.500000 0.500000
vt 0.500000 0.500000
vt 0.500000 0.500000
vt 0.500000 0.000000
vt 0.500000 0.500000
vt 0.500000 0.500000
vn -0.4619 0.0000 -0.8870
vn 0.3592 0.0000 -0.9333
vn -0.3057 0.7496 -0.5870
vn -0.9706 0.0000 -0.2408
vn -0.3057 -0.7496 -0.5870
vn 0.3592 0.0000 -0.9332
vn 0.9954 0.0000 0.0956
vn -0.4925 0.0000 0.8703
vn 0.0000 -1.0000 0.0000
vn 0.8870 0.0000 -0.4619
vn -0.8870 0.0000 0.4619
vn 0.0000 1.0000 -0.0000
vn 0.4619 -0.0000 -0.8870
vn -0.3592 0.0000 -0.9333
vn 0.3057 0.7496 -0.5870
vn 0.9706 0.0000 -0.2408
vn 0.3057 -0.7496 -0.5870
vn -0.3592 0.0000 -0.9332
vn -0.9954 0.0000 0.0956
vn 0.4925 0.0000 0.8703
vn -0.8870 0.0000 -0.4619
vn 0.8870 0.0000 0.4619
vn -1.0000 0.0000 0.0000
vn 0.0000 0.9566 -0.2914
vn 0.0000 0.9956 -0.0940
vn -0.9798 0.0583 0.1915
vn 0.0000 -0.9566 0.2914
vn 0.0000 -0.8789 0.4770
vn 1.0000 0.0000 0.0000
vn 0.9798 0.0583 0.1915
vn -0.0000 -0.2914 -0.9566
vn 0.0000 0.5454 -0.8382
vn -0.7659 -0.1873 -0.6150
vn 0.0000 -0.9200 -0.3918
vn 0.7659 -0.1873 -0.6150
vn 0.0000 0.9827 0.1850
vn 0.8862 0.1350 0.4432
vn 0.0000 -0.7127 0.7015
vn -0.8862 0.1350 0.4432
vn 0.0000 0.9946 -0.1042
vn 0.0000 0.9953 0.0970
vn -0.9798 0.0209 0.1991
vn 0.0000 -0.9946 0.1042
vn 0.0000 -0.9536 0.3012
vn 0.9798 0.0209 0.1991
vn 0.0000 -0.1042 -0.9946
vn 0.0000 0.6948 -0.7192
vn -0.7659 -0.0670 -0.6394
vn -0.7660 -0.0670 -0.6394
vn 0.0000 -0.8288 -0.5596
vn 0.7660 -0.0670 -0.6394
vn 0.7659 -0.0670 -0.6394
vn 0.0000 0.9296 0.3685
vn 0.8862 0.0483 0.4608
vn 0.0000 -0.8331 0.5532
vn -0.8862 0.0483 0.4608
s 1
f 33/1/1 10/2/1 5/3/1
f 30/4/1 4/5/1 10/6/1
f 31/7/1 3/8/1 4/9/1
f 32/10/1 5/11/1 3/12/1
f 28/13/1 2/14/1 1/15/1
f 29/16/1 8/17/1 2/18/1
f 38/19/1 7/20/1 8/21/1
f 7/22/1 28/23/1 1/24/1
f 7/22/1 39/25/1 8/17/1
f 39/26/1 9/27/1 8/21/1
f 40/28/1 6/29/1 9/30/1
f 36/31/1 7/20/1 6/32/1
f 6/32/1 41/33/1 9/27/1
f 41/34/1 10/2/1 9/30/1
f 42/35/1 5/11/1 10/6/1
f 34/36/1 6/29/1 5/3/1
f 28/13/2 18/37/2 15/38/2
f 29/16/3 15/39/3 16/40/3
f 31/7/4 12/41/4 13/42/4
f 14/43/5 31/44/5 13/45/5
f 33/1/2 14/46/2 11/47/2
f 23/48/6 34/49/2 26/50/2
f 19/51/2 36/52/2 22/53/2
f 38/19/4 16/54/4 17/55/4
f 40/28/4 20/56/4 21/57/4
f 25/58/4 41/33/4 24/59/4
f 30/4/3 11/60/3 12/61/3
f 18/62/5 38/63/5 17/64/5
f 39/26/3 19/65/3 20/66/3
f 36/31/5 21/67/5 22/68/5
f 41/34/3 23/69/3 24/70/3
f 26/71/5 42/72/5 25/73/5
f 44/74/7 51/75/7 56/76/7
f 43/77/8 58/78/8 52/79/8
f 45/80/8 55/81/8 54/82/8
f 56/83/7 49/84/7 44/74/7
f 53/85/8 43/86/8 47/87/8
f 59/88/7 46/89/7 49/90/7
f 54/91/8 47/92/8 45/80/8
f 69/93/9 63/94/9 48/95/9
f 60/96/10 9/27/10 10/6/10
f 58/78/11 6/29/11 7/22/11
f 57/97/10 10/2/10 4/9/10
f 59/88/10 8/17/10 9/30/10
f 52/98/11 7/20/11 1/15/11
f 55/81/12 4/5/12 3/12/12
f 56/83/10 2/14/10 8/21/10
f 54/91/11 3/8/11 5/3/11
f 53/85/11 5/11/11 6/32/11
f 51/75/9 1/24/9 2/18/9
f 46/99/7 60/96/7 57/100/7
f 67/101/1 48/102/1 61/103/1
f 62/104/12 66/105/12 50/106/12
f 66/107/1 61/108/1 50/109/1
f 64/110/10 67/111/10 66/112/10
f 65/113/10 69/114/10 67/115/10
f 74/116/13 99/117/13 102/118/13
f 73/119/13 99/120/13 79/121/13
f 73/122/13 101/123/13 100/124/13
f 74/125/13 101/126/13 72/127/13
f 71/128/13 97/129/13 70/130/13
f 77/131/13 98/132/13 71/133/13
f 76/134/13 107/135/13 77/136/13
f 76/137/13 97/138/13 96/139/13
f 76/137/13 108/140/13 106/141/13
f 78/142/13 108/143/13 77/136/13
f 75/144/13 109/145/13 78/146/13
f 75/147/13 106/148/13 105/149/13
f 75/147/13 110/150/13 104/151/13
f 79/152/13 110/153/13 78/146/13
f 74/125/13 111/154/13 79/121/13
f 75/144/13 103/155/13 74/116/13
f 87/156/14 97/129/14 84/157/14
f 84/158/15 98/132/15 85/159/15
f 81/160/16 100/124/16 82/161/16
f 83/162/17 100/163/17 101/126/17
f 83/164/14 102/118/14 80/165/14
f 95/166/14 104/151/14 92/167/18
f 91/168/14 106/141/14 88/169/14
f 85/170/16 107/135/16 86/171/16
f 89/172/16 109/145/16 90/173/16
f 94/174/16 110/150/16 111/154/16
f 80/175/15 99/120/15 81/176/15
f 87/177/17 107/178/17 96/139/17
f 88/179/15 108/143/15 89/180/15
f 91/181/17 109/182/17 105/149/17
f 92/183/15 110/153/15 93/184/15
f 95/185/17 111/186/17 103/155/17
f 113/187/19 125/188/19 120/189/19
f 112/190/20 121/191/20 127/192/20
f 114/193/20 123/194/20 124/195/20
f 118/196/19 125/197/19 113/187/19
f 112/198/20 122/199/20 116/200/20
f 115/201/19 128/202/19 118/203/19
f 116/204/20 123/205/20 114/193/20
f 132/206/9 137/207/9 117/208/9
f 78/142/21 129/209/21 79/121/21
f 75/144/22 127/210/22 76/137/22
f 79/152/21 126/211/21 73/122/21
f 77/131/21 128/202/21 78/146/21
f 76/134/22 121/212/22 70/130/22
f 73/119/12 124/213/12 72/127/12
f 71/128/21 125/197/21 77/136/21
f 72/214/22 123/205/22 74/116/22
f 74/125/22 122/199/22 75/147/22
f 71/133/9 121/215/9 120/216/9
f 115/217/19 126/218/19 129/219/19
f 117/220/13 135/221/13 130/222/13
f 119/223/12 133/224/12 131/225/12
f 130/226/13 134/227/13 119/228/13
f 160/229/23 163/230/23 138/231/23
f 147/232/24 152/233/25 153/234/25
f 152/235/26 145/236/23 154/237/26
f 145/238/27 155/239/28 154/240/28
f 146/241/29 153/242/30 155/243/30
f 145/238/31 148/244/31 149/245/31
f 146/241/31 149/246/31 150/247/31
f 151/248/31 146/249/31 150/250/31
f 144/251/31 151/252/31 148/253/31
f 150/254/32 141/255/32 142/256/32
f 151/257/33 142/258/33 143/259/33
f 148/260/34 143/261/34 140/262/34
f 149/263/35 140/264/35 141/265/35
f 153/266/25 156/267/36 159/268/36
f 155/269/30 159/270/37 158/271/37
f 154/272/28 158/273/38 157/274/38
f 156/275/39 154/276/26 157/277/39
f 163/278/31 139/279/31 138/280/31
f 162/281/29 161/282/29 139/283/29
f 188/284/23 191/285/23 166/286/23
f 175/287/40 180/288/41 181/289/41
f 180/290/42 173/291/23 182/292/42
f 173/293/43 183/294/44 182/295/44
f 174/296/29 181/297/45 183/298/45
f 173/293/46 176/299/46 177/300/46
f 174/296/46 177/301/46 178/302/46
f 179/303/46 174/304/46 178/305/46
f 172/306/46 179/307/46 176/308/46
f 178/309/47 169/310/47 170/311/47
f 179/312/48 170/313/49 171/314/48
f 176/315/50 171/316/50 168/317/50
f 169/318/51 176/319/52 168/320/52
f 181/321/41 184/322/53 187/323/53
f 183/324/45 187/325/54 186/326/54
f 182/327/44 186/328/55 185/329/55
f 184/330/56 182/331/42 185/332/56
f 191/333/46 167/334/46 166/335/46
f 190/336/29 189/337/29 167/338/29
f 33/1/1 30/339/1 10/2/1
f 30/4/1 31/44/1 4/5/1
f 31/7/1 32/340/1 3/8/1
f 32/10/1 33/341/1 5/11/1
f 28/13/1 29/342/1 2/14/1
f 29/16/1 38/63/1 8/17/1
f 38/19/1 27/343/1 7/20/1
f 7/22/1 27/344/1 28/23/1
f 7/22/1 37/345/1 39/25/1
f 39/26/1 40/346/1 9/27/1
f 40/28/1 36/52/1 6/29/1
f 36/31/1 37/347/1 7/20/1
f 6/32/1 35/348/1 41/33/1
f 41/34/1 42/72/1 10/2/1
f 42/35/1 34/49/1 5/11/1
f 34/36/1 35/349/1 6/29/1
f 28/13/2 27/343/2 18/37/2
f 29/16/3 28/23/3 15/39/3
f 31/7/4 30/339/4 12/41/4
f 14/43/5 32/10/5 31/44/5
f 33/1/2 32/340/2 14/46/2
f 23/48/6 35/348/6 34/49/2
f 19/51/2 37/345/2 36/52/2
f 38/19/4 29/342/4 16/54/4
f 40/28/4 39/25/4 20/56/4
f 25/58/4 42/35/4 41/33/4
f 30/4/3 33/341/3 11/60/3
f 18/62/5 27/344/5 38/63/5
f 39/26/3 37/347/3 19/65/3
f 36/31/5 40/346/5 21/67/5
f 41/34/3 35/349/3 23/69/3
f 26/71/5 34/36/5 42/72/5
f 56/83/7 59/350/7 49/84/7
f 53/85/8 58/351/8 43/86/8
f 59/88/7 60/352/7 46/89/7
f 54/91/8 53/353/8 47/92/8
f 69/93/9 68/354/9 63/94/9
f 60/96/10 59/350/10 9/27/10
f 58/78/11 53/353/11 6/29/11
f 57/97/10 60/352/10 10/2/10
f 59/88/10 56/76/10 8/17/10
f 52/98/11 58/351/11 7/20/11
f 55/81/12 57/100/12 4/5/12
f 56/83/10 51/355/10 2/14/10
f 54/91/11 55/356/11 3/8/11
f 53/85/11 54/82/11 5/11/11
f 51/75/9 52/79/9 1/24/9
f 67/101/1 69/357/1 48/102/1
f 62/104/12 64/110/12 66/105/12
f 66/107/1 67/358/1 61/108/1
f 64/110/10 65/359/10 67/111/10
f 65/113/10 68/354/10 69/114/10
f 74/116/13 79/152/13 99/117/13
f 73/119/13 100/163/13 99/120/13
f 73/122/13 72/214/13 101/123/13
f 74/125/13 102/360/13 101/126/13
f 71/128/13 98/361/13 97/129/13
f 77/131/13 107/178/13 98/132/13
f 76/134/13 96/362/13 107/135/13
f 76/137/13 70/363/13 97/138/13
f 76/137/13 77/131/13 108/140/13
f 78/142/13 109/182/13 108/143/13
f 75/144/13 105/364/13 109/145/13
f 75/147/13 76/134/13 106/148/13
f 75/147/13 78/142/13 110/150/13
f 79/152/13 111/186/13 110/153/13
f 74/125/13 103/365/13 111/154/13
f 75/144/13 104/366/13 103/155/13
f 87/156/14 96/362/14 97/129/14
f 84/158/15 97/138/15 98/132/15
f 81/160/16 99/117/16 100/124/16
f 83/162/17 82/367/17 100/163/17
f 83/164/14 101/123/14 102/118/14
f 95/166/14 103/365/14 104/151/14
f 91/168/14 105/364/14 106/141/14
f 85/170/16 98/361/16 107/135/16
f 89/172/16 108/140/16 109/145/16
f 94/174/16 93/368/16 110/150/16
f 80/175/15 102/360/15 99/120/15
f 87/177/17 86/369/17 107/178/17
f 88/179/15 106/148/15 108/143/15
f 91/181/17 90/370/17 109/182/17
f 92/183/15 104/366/15 110/153/15
f 95/185/17 94/371/17 111/186/17
f 118/196/19 128/372/19 125/197/19
f 112/198/20 127/192/20 122/199/20
f 115/201/19 129/219/19 128/202/19
f 116/204/20 122/373/20 123/205/20
f 132/206/9 136/374/9 137/207/9
f 78/142/21 128/372/21 129/209/21
f 75/144/22 122/373/22 127/210/22
f 79/152/21 129/219/21 126/211/21
f 77/131/21 125/375/21 128/202/21
f 76/134/22 127/192/22 121/212/22
f 73/119/12 126/376/12 124/213/12
f 71/128/21 120/189/21 125/197/21
f 72/214/22 124/195/22 123/205/22
f 74/125/22 123/377/22 122/199/22
f 71/133/9 70/363/9 121/215/9
f 117/220/13 137/378/13 135/221/13
f 119/223/12 134/379/12 133/224/12
f 130/226/13 135/380/13 134/227/13
f 160/229/23 165/381/23 163/230/23
f 147/232/24 144/382/24 152/233/25
f 152/235/26 144/251/23 145/236/23
f 145/238/27 146/249/27 155/239/28
f 146/241/29 147/383/29 153/242/30
f 145/238/31 144/382/31 148/244/31
f 146/241/31 145/236/31 149/246/31
f 151/248/31 147/232/31 146/249/31
f 144/251/31 147/383/31 151/252/31
f 150/254/32 149/384/32 141/255/32
f 151/257/33 150/385/33 142/258/33
f 148/260/34 151/386/34 143/261/34
f 149/263/35 148/387/35 140/264/35
f 153/266/25 152/388/25 156/267/36
f 155/269/30 153/389/30 159/270/37
f 154/272/28 155/390/28 158/273/38
f 156/275/39 152/391/26 154/276/26
f 163/278/31 162/392/31 139/279/31
f 162/281/29 164/393/29 161/282/29
f 188/284/23 193/394/23 191/285/23
f 175/287/40 172/395/40 180/288/41
f 180/290/42 172/306/23 173/291/23
f 173/293/43 174/304/43 183/294/44
f 174/296/29 175/396/29 181/297/45
f 173/293/46 172/395/46 176/299/46
f 174/296/46 173/291/46 177/301/46
f 179/303/46 175/287/46 174/304/46
f 172/306/46 175/396/46 179/307/46
f 178/309/47 177/397/47 169/310/47
f 179/312/48 178/398/49 170/313/49
f 176/315/50 179/399/50 171/316/50
f 169/318/51 177/400/51 176/319/52
f 181/321/41 180/401/41 184/322/53
f 183/324/45 181/402/45 187/325/54
f 182/327/44 183/403/44 186/328/55
f 184/330/56 180/404/42 182/331/42
f 191/333/46 190/405/46 167/334/46
f 190/336/29 192/406/29 189/337/29
