# Blender v2.79 (sub 0) OBJ File: 'mode.blend'
# www.blender.org
o Icosphere
v -0.149011 0.091214 -0.183599
v -0.001242 -0.127717 -0.218905
v -0.209352 -0.132830 -0.052540
v -0.220239 0.101999 0.072963
v -0.018857 0.252242 -0.015840
v 0.116490 0.110269 -0.196223
v 0.018857 -0.252242 0.015840
v -0.116490 -0.110269 0.196223
v 0.001242 0.127717 0.218905
v 0.209352 0.132830 0.052540
v 0.220239 -0.101999 -0.072963
v 0.149011 -0.091214 0.183599
v -0.210640 -0.024460 -0.138799
v -0.088317 -0.021455 -0.236585
v -0.123784 -0.153145 -0.159552
v 0.067741 -0.010256 -0.244006
v -0.019116 0.118428 -0.223253
v -0.217040 0.113568 -0.065030
v -0.252508 -0.018121 0.012005
v -0.098670 0.201878 -0.117227
v -0.140538 0.208217 0.033577
v 0.057387 0.213078 -0.124648
v 0.128724 -0.135024 -0.171556
v 0.197925 0.004860 -0.158224
v -0.111971 -0.226340 -0.021572
v 0.010354 -0.223336 -0.119360
v -0.197925 -0.004860 0.158224
v -0.191526 -0.142890 0.084455
v -0.010354 0.223336 0.119360
v -0.128724 0.135024 0.171556
v 0.191526 0.142890 -0.084455
v 0.111971 0.226340 0.021572
v 0.140538 -0.208217 -0.033577
v -0.057387 -0.213078 0.124648
v -0.067741 0.010256 0.244006
v 0.123784 0.153145 0.159552
v 0.252508 0.018121 -0.012005
v 0.098670 -0.201878 0.117227
v 0.217040 -0.113568 0.065030
v 0.019116 -0.118428 0.223253
v 0.088317 0.021455 0.236585
v 0.210640 0.024460 0.138799
v -0.247664 0.076392 -0.250507
v -0.318459 0.104842 -0.132360
v -0.340772 0.117330 0.005938
v -0.311205 0.111956 0.143332
v -0.234260 0.089538 0.258905
v -0.121651 0.053488 0.335062
v 0.009478 0.009295 0.360209
v 0.139164 -0.036313 0.330517
v 0.247664 -0.076392 0.250507
v 0.318459 -0.104842 0.132360
v 0.340772 -0.117330 -0.005938
v 0.311205 -0.111956 -0.143332
v 0.234260 -0.089538 -0.258905
v 0.121651 -0.053488 -0.335062
v -0.009478 -0.009295 -0.360209
v -0.139164 0.036313 -0.330517
v -0.343778 0.106039 -0.347725
v -0.442047 0.145529 -0.183726
v -0.473019 0.162864 0.008243
v -0.431978 0.155404 0.198957
v -0.325173 0.124286 0.359382
v -0.168862 0.074246 0.465094
v 0.013156 0.012903 0.500000
v 0.193171 -0.050405 0.458785
v 0.343778 -0.106039 0.347725
v 0.442047 -0.145529 0.183726
v 0.473019 -0.162864 -0.008243
v 0.431978 -0.155404 -0.198957
v 0.325173 -0.124286 -0.359382
v 0.168862 -0.074246 -0.465094
v -0.013156 -0.012903 -0.500000
v -0.193171 0.050405 -0.458785
v 0.238023 0.272765 0.383551
v 0.266333 0.244252 0.394472
v 0.230598 0.247276 0.415628
v 0.220629 0.287611 0.418347
v 0.250203 0.309516 0.398871
v 0.278449 0.282718 0.384116
v 0.266436 0.241477 0.436018
v 0.238189 0.268275 0.450774
v 0.250306 0.306741 0.440418
v 0.286041 0.303717 0.419262
v 0.296010 0.263381 0.416542
v 0.278616 0.278228 0.451338
v 0.230095 0.257303 0.396455
v 0.251099 0.255526 0.384020
v 0.246735 0.240544 0.402874
v 0.274862 0.261376 0.384352
v 0.258221 0.278135 0.377933
v 0.224235 0.281012 0.398053
v 0.219871 0.266030 0.416907
v 0.241618 0.293887 0.386606
v 0.231394 0.302614 0.407058
v 0.265381 0.299737 0.386938
v 0.285184 0.250010 0.403411
v 0.292306 0.272620 0.397324
v 0.246796 0.238912 0.427294
v 0.267800 0.237135 0.414859
v 0.224333 0.278373 0.437565
v 0.230193 0.254664 0.435967
v 0.248838 0.313858 0.420031
v 0.231455 0.300982 0.431478
v 0.286446 0.296329 0.398923
v 0.269843 0.312080 0.407596
v 0.285244 0.248379 0.427832
v 0.251258 0.251255 0.447952
v 0.241777 0.289616 0.450538
v 0.269903 0.310449 0.432016
v 0.296768 0.284963 0.417982
v 0.275020 0.257106 0.448284
v 0.292403 0.269981 0.436837
v 0.258417 0.272857 0.456957
v 0.265539 0.295467 0.450870
v 0.286544 0.293689 0.438435
vt 0.000000 0.000000
vt 0.500000 0.000000
vt 0.500000 0.500000
vt 0.000000 0.000000
vt 0.500000 0.500000
vt 0.500000 0.000000
vt 0.500000 0.500000
vt 0.500000 0.000000
vt 0.500000 0.500000
vt 0.500000 0.000000
vt 0.500000 0.500000
vt 0.500000 0.000000
vt 0.500000 0.500000
vt 0.000000 0.000000
vt 0.500000 0.000000
vt 0.500000 0.500000
vt 0.000000 0.000000
vt 0.500000 0.000000
vt 0.500000 0.500000
vt 0.000000 0.000000
vt 0.500000 0.000000
vt 0.500000 0.500000
vt 0.000000 0.000000
vt 0.500000 0.000000
vt 0.500000 0.500000
vt 0.500000 0.000000
vt 0.500000 0.500000
vt 0.500000 0.000000
vt 0.500000 0.500000
vt 0.500000 0.000000
vt 0.500000 0.500000
vt 0.500000 0.000000
vt 0.500000 0.500000
vt 0.500000 0.000000
vt 0.500000 0.500000
vt 0.000000 0.000000
vt 0.500000 0.000000
vt 0.500000 0.500000
vt 0.000000 0.000000
vt 0.500000 0.000000
vt 0.500000 0.500000
vt 0.000000 0.000000
vt 0.500000 0.000000
vt 0.500000 0.500000
vt 0.000000 0.000000
vt 0.500000 0.000000
vt 0.500000 0.500000
vt 0.000000 0.000000
vt 0.500000 0.000000
vt 0.500000 0.500000
vt 0.000000 0.000000
vt 0.500000 0.000000
vt 0.500000 0.500000
vt 0.000000 0.000000
vt 0.500000 0.000000
vt 0.000000 0.000000
vt 0.500000 0.000000
vt 0.000000 0.000000
vt 0.500000 0.000000
vt 0.000000 0.000000
vt 0.500000 0.000000
vt 0.000000 0.000000
vt 0.500000 0.000000
vt 0.000000 0.000000
vt 0.500000 0.000000
vt 0.000000 0.000000
vt 0.500000 0.000000
vt 0.000000 0.000000
vt 0.500000 0.000000
vt 0.000000 0.000000
vt 0.500000 0.000000
vt 0.000000 0.000000
vt 0.500000 0.500000
vt 0.500000 0.500000
vt 0.000000 0.000000
vt 0.000000 0.000000
vt 0.500000 0.500000
vt 0.500000 0.500000
vt 0.000000 0.000000
vt 0.000000 0.000000
vt 0.500000 0.500000
vt 0.500000 0.500000
vt 0.000000 0.000000
vt 0.000000 0.000000
vt 0.500000 0.500000
vt 0.500000 0.500000
vt 0.000000 0.000000
vt 0.000000 0.000000
vt 0.500000 0.500000
vt 0.500000 0.500000
vt 0.000000 0.000000
vt 0.500000 0.000000
vt 0.000000 0.000000
vt 0.500000 0.000000
vt 0.500000 0.000000
vt 0.000000 0.000000
vt 0.500000 0.000000
vt 0.500000 0.000000
vt 0.000000 0.000000
vt 0.500000 0.000000
vt 0.500000 0.000000
vt 0.000000 0.000000
vt 0.500000 0.000000
vt 0.500000 0.000000
vt 0.000000 0.000000
vt 0.500000 0.000000
vt 0.000000 0.000000
vt 0.500000 0.500000
vt 0.500000 0.500000
vt 0.000000 0.000000
vt 0.500000 0.500000
vt 0.500000 0.500000
vt 0.000000 0.000000
vt 0.500000 0.500000
vt 0.500000 0.500000
vt 0.000000 0.000000
vt 0.500000 0.000000
vt 0.000000 0.000000
vt 0.500000 0.000000
vt 0.500000 0.500000
vt 0.500000 0.500000
vt 0.500000 0.000000
vt 0.000000 0.500000
vt 0.000000 0.000000
vt 0.000000 0.000000
vt 0.500000 0.500000
vt 0.000000 0.500000
vt 0.000000 0.000000
vt 0.500000 0.500000
vt 0.000000 0.500000
vt 0.000000 0.000000
vt 0.500000 0.500000
vt 0.000000 0.500000
vt 0.500000 0.000000
vt 0.000000 0.500000
vt 0.000000 0.000000
vt 0.000000 0.000000
vt 0.500000 0.500000
vt 0.000000 0.500000
vt 0.500000 0.000000
vt 0.000000 0.500000
vt 0.000000 0.000000
vt 0.500000 0.000000
vt 0.000000 0.500000
vt 0.000000 0.000000
vt 0.000000 0.000000
vt 0.500000 0.500000
vt 0.000000 0.500000
vt 0.000000 0.000000
vt 0.500000 0.500000
vt 0.000000 0.500000
vt 0.500000 0.000000
vt 0.000000 0.500000
vt 0.000000 0.000000
vt 0.500000 0.000000
vt 0.000000 0.500000
vt 0.000000 0.000000
vt 0.500000 0.000000
vt 0.000000 0.500000
vt 0.000000 0.000000
vt 0.500000 0.000000
vt 0.000000 0.500000
vt 0.000000 0.000000
vt 0.500000 0.000000
vt 0.000000 0.500000
vt 0.000000 0.000000
vt 0.000000 0.000000
vt 0.500000 0.500000
vt 0.000000 0.500000
vt 0.000000 0.000000
vt 0.500000 0.000000
vt 0.500000 0.500000
vt 0.000000 0.000000
vt 0.500000 0.500000
vt 0.500000 0.000000
vt 0.500000 0.500000
vt 0.500000 0.000000
vt 0.500000 0.500000
vt 0.500000 0.000000
vt 0.500000 0.500000
vt 0.500000 0.000000
vt 0.500000 0.500000
vt 0.000000 0.000000
vt 0.500000 0.000000
vt 0.500000 0.500000
vt 0.000000 0.000000
vt 0.500000 0.000000
vt 0.500000 0.500000
vt 0.000000 0.000000
vt 0.500000 0.000000
vt 0.500000 0.500000
vt 0.000000 0.000000
vt 0.500000 0.000000
vt 0.500000 0.500000
vt 0.500000 0.000000
vt 0.500000 0.500000
vt 0.500000 0.000000
vt 0.500000 0.500000
vt 0.500000 0.000000
vt 0.500000 0.500000
vt 0.500000 0.000000
vt 0.500000 0.500000
vt 0.500000 0.000000
vt 0.500000 0.500000
vt 0.000000 0.000000
vt 0.500000 0.000000
vt 0.500000 0.500000
vt 0.000000 0.000000
vt 0.500000 0.000000
vt 0.500000 0.500000
vt 0.000000 0.000000
vt 0.500000 0.000000
vt 0.500000 0.500000
vt 0.000000 0.000000
vt 0.500000 0.000000
vt 0.500000 0.500000
vt 0.000000 0.000000
vt 0.500000 0.000000
vt 0.500000 0.500000
vt 0.000000 0.000000
vt 0.500000 0.000000
vt 0.500000 0.500000
vt 0.000000 0.000000
vt 0.500000 0.000000
vt 0.000000 0.000000
vt 0.500000 0.000000
vt 0.000000 0.000000
vt 0.500000 0.000000
vt 0.000000 0.000000
vt 0.500000 0.000000
vt 0.000000 0.000000
vt 0.500000 0.000000
vt 0.000000 0.000000
vt 0.500000 0.000000
vt 0.000000 0.000000
vt 0.500000 0.000000
vt 0.000000 0.000000
vt 0.500000 0.000000
vt 0.000000 0.000000
vt 0.500000 0.000000
vt 0.000000 0.000000
vt 0.500000 0.500000
vt 0.500000 0.500000
vt 0.000000 0.000000
vt 0.000000 0.000000
vt 0.500000 0.500000
vt 0.500000 0.500000
vt 0.000000 0.000000
vt 0.000000 0.000000
vt 0.500000 0.500000
vt 0.500000 0.500000
vt 0.000000 0.000000
vt 0.000000 0.000000
vt 0.500000 0.500000
vt 0.500000 0.500000
vt 0.000000 0.000000
vt 0.000000 0.000000
vt 0.500000 0.500000
vt 0.500000 0.500000
vt 0.000000 0.000000
vt 0.500000 0.000000
vt 0.000000 0.000000
vt 0.500000 0.000000
vt 0.500000 0.000000
vt 0.000000 0.000000
vt 0.500000 0.000000
vt 0.500000 0.000000
vt 0.000000 0.000000
vt 0.500000 0.000000
vt 0.500000 0.000000
vt 0.000000 0.000000
vt 0.500000 0.000000
vt 0.500000 0.000000
vt 0.000000 0.000000
vt 0.500000 0.000000
vt 0.000000 0.000000
vt 0.500000 0.500000
vt 0.500000 0.500000
vt 0.000000 0.000000
vt 0.500000 0.500000
vt 0.500000 0.500000
vt 0.000000 0.000000
vt 0.500000 0.500000
vt 0.500000 0.500000
vt 0.000000 0.000000
vt 0.500000 0.000000
vt 0.000000 0.000000
vt 0.500000 0.000000
vt 0.500000 0.500000
vt 0.500000 0.500000
vt 0.500000 0.500000
vt 0.500000 0.000000
vt 0.500000 0.000000
vt 0.500000 0.000000
vt 0.500000 0.500000
vt 0.500000 0.000000
vt 0.500000 0.500000
vt 0.500000 0.500000
vt 0.500000 0.000000
vt 0.500000 0.000000
vt 0.500000 0.500000
vt 0.500000 0.500000
vt 0.500000 0.500000
vt 0.500000 0.500000
vt 0.500000 0.500000
vt 0.500000 0.000000
vn -0.5880 0.3599 -0.7244
vn -0.3485 -0.0847 -0.9335
vn -0.8311 -0.0965 -0.5477
vn -0.0049 -0.5039 -0.8637
vn 0.2673 -0.0405 -0.9628
vn -0.8564 0.4481 -0.2566
vn -0.3893 0.7965 -0.4625
vn -0.0754 0.4673 -0.8809
vn 0.5079 -0.5328 -0.6769
vn -0.8260 -0.5241 -0.2073
vn -0.4884 -0.6043 -0.6295
vn -0.4418 -0.8931 -0.0851
vn -0.8690 0.4025 0.2879
vn -0.9963 -0.0715 0.0474
vn -0.7809 -0.0192 0.6243
vn -0.0744 0.9953 -0.0625
vn -0.5545 0.8216 0.1325
vn -0.0409 0.8812 0.4710
vn 0.4596 0.4351 -0.7742
vn 0.2264 0.8407 -0.4918
vn 0.7557 0.5638 -0.3332
vn 0.0409 -0.8812 -0.4710
vn -0.7557 -0.5638 0.3332
vn -0.5079 0.5328 0.6769
vn 0.4418 0.8931 0.0851
vn 0.7809 0.0192 -0.6243
vn 0.0744 -0.9953 0.0625
vn 0.5545 -0.8216 -0.1325
vn 0.3893 -0.7965 0.4625
vn -0.4596 -0.4351 0.7742
vn -0.2264 -0.8407 0.4918
vn 0.0754 -0.4673 0.8809
vn 0.0049 0.5039 0.8637
vn -0.2673 0.0405 0.9628
vn 0.3485 0.0847 0.9335
vn 0.8260 0.5241 0.2073
vn 0.4884 0.6043 0.6295
vn 0.8311 0.0965 0.5477
vn 0.8690 -0.4025 -0.2879
vn 0.9963 0.0715 -0.0474
vn 0.8564 -0.4481 0.2566
vn 0.5880 -0.3599 0.7244
vn 0.3249 0.9452 -0.0329
vn -0.5125 -0.0690 -0.8559
vn -0.1823 -0.5043 -0.8441
vn -0.7127 -0.4594 -0.5300
vn 0.2024 -0.7890 -0.5801
vn 0.4177 -0.3566 -0.8357
vn -0.8607 0.1393 -0.4897
vn -0.4217 0.4644 -0.7788
vn -0.0025 0.0666 -0.9978
vn 0.6784 -0.6436 -0.3544
vn -0.7000 -0.7126 -0.0459
vn -0.2925 -0.8826 -0.3679
vn -0.2910 -0.9238 0.2487
vn -0.9518 0.3059 0.0228
vn -0.9709 -0.2390 -0.0136
vn -0.8582 0.0726 0.5081
vn -0.2050 0.8591 -0.4690
vn -0.6799 0.6848 -0.2623
vn -0.2394 0.9687 0.0653
vn 0.5083 0.1824 -0.8416
vn 0.1783 0.6121 -0.7704
vn 0.7103 0.5261 -0.4677
vn 0.2394 -0.9687 -0.0653
vn -0.7103 -0.5261 0.4677
vn -0.6784 0.6436 0.3544
vn 0.2910 0.9238 -0.2487
vn 0.8582 -0.0726 -0.5081
vn 0.2050 -0.8591 0.4690
vn 0.6799 -0.6848 0.2623
vn 0.4217 -0.4644 0.7788
vn -0.5083 -0.1824 0.8416
vn -0.1783 -0.6121 0.7704
vn 0.0025 -0.0666 0.9978
vn -0.2024 0.7890 0.5801
vn -0.4177 0.3566 0.8357
vn 0.1823 0.5043 0.8441
vn 0.7000 0.7126 0.0459
vn 0.2925 0.8826 0.3679
vn 0.7127 0.4594 0.5300
vn 0.9518 -0.3059 -0.0228
vn 0.9709 0.2390 0.0136
vn 0.8607 -0.1393 0.4897
vn 0.5125 0.0690 0.8559
s 1
f 1/1/1 14/2/2 13/3/3
f 2/4/4 14/2/2 16/5/5
f 1/1/1 13/6/3 18/7/6
f 1/1/1 18/8/6 20/9/7
f 1/1/1 20/10/7 17/11/8
f 2/4/4 16/12/5 23/13/9
f 3/14/10 15/15/11 25/16/12
f 4/17/13 19/18/14 27/19/15
f 5/20/16 21/21/17 29/22/18
f 6/23/19 22/24/20 31/25/21
f 2/4/4 23/26/9 26/27/22
f 3/14/10 25/28/12 28/29/23
f 4/17/13 27/30/15 30/31/24
f 5/20/16 29/32/18 32/33/25
f 6/23/19 31/34/21 24/35/26
f 7/36/27 33/37/28 38/38/29
f 8/39/30 34/40/31 40/41/32
f 9/42/33 35/43/34 41/44/35
f 10/45/36 36/46/37 42/47/38
f 11/48/39 37/49/40 39/50/41
f 39/51/41 42/52/38 12/53/42
f 39/51/41 37/49/40 42/47/38
f 37/54/40 10/55/36 42/47/38
f 42/56/38 41/57/35 12/53/42
f 42/56/38 36/46/37 41/44/35
f 36/58/37 9/59/33 41/44/35
f 41/60/35 40/61/32 12/53/42
f 41/60/35 35/43/34 40/41/32
f 35/62/34 8/63/30 40/41/32
f 40/64/32 38/65/29 12/53/42
f 40/64/32 34/40/31 38/38/29
f 34/66/31 7/67/27 38/38/29
f 38/68/29 39/69/41 12/53/42
f 38/68/29 33/37/28 39/50/41
f 33/70/28 11/71/39 39/50/41
f 24/72/26 37/49/40 11/73/39
f 24/72/26 31/34/21 37/74/40
f 31/75/21 10/55/36 37/74/40
f 32/76/25 36/46/37 10/77/36
f 32/76/25 29/32/18 36/78/37
f 29/79/18 9/59/33 36/78/37
f 30/80/24 35/43/34 9/81/33
f 30/80/24 27/30/15 35/82/34
f 27/83/15 8/63/30 35/82/34
f 28/84/23 34/40/31 8/85/30
f 28/84/23 25/28/12 34/86/31
f 25/87/12 7/67/27 34/86/31
f 26/88/22 33/37/28 7/89/27
f 26/88/22 23/26/9 33/90/28
f 23/91/9 11/71/39 33/90/28
f 31/75/21 32/92/25 10/77/36
f 31/75/21 22/24/20 32/33/25
f 22/93/20 5/94/16 32/33/25
f 29/79/18 30/95/24 9/81/33
f 29/79/18 21/21/17 30/31/24
f 21/96/17 4/97/13 30/31/24
f 27/83/15 28/98/23 8/85/30
f 27/83/15 19/18/14 28/29/23
f 19/99/14 3/100/10 28/29/23
f 25/87/12 26/101/22 7/89/27
f 25/87/12 15/15/11 26/27/22
f 15/102/11 2/103/4 26/27/22
f 23/91/9 24/104/26 11/73/39
f 23/91/9 16/12/5 24/35/26
f 16/105/5 6/106/19 24/35/26
f 17/107/8 22/24/20 6/108/19
f 17/107/8 20/10/7 22/109/20
f 20/110/7 5/94/16 22/109/20
f 20/110/7 21/21/17 5/111/16
f 20/110/7 18/8/6 21/112/17
f 18/113/6 4/97/13 21/112/17
f 18/113/6 19/18/14 4/114/13
f 18/113/6 13/6/3 19/115/14
f 13/116/3 3/100/10 19/115/14
f 16/105/5 17/117/8 6/108/19
f 16/105/5 14/2/2 17/11/8
f 14/118/2 1/119/1 17/11/8
f 13/116/3 15/15/11 3/120/10
f 13/116/3 14/2/2 15/121/11
f 14/118/2 2/103/4 15/121/11
f 46/122/43 63/123/43 47/124/43
f 53/125/43 68/126/43 69/127/43
f 52/128/43 67/129/43 68/130/43
f 58/131/43 73/132/43 74/133/43
f 45/134/43 62/135/43 46/136/43
f 51/137/43 66/138/43 67/139/43
f 56/140/43 73/141/43 57/142/43
f 55/143/43 72/144/43 56/145/43
f 45/146/43 60/147/43 61/148/43
f 44/149/43 59/150/43 60/151/43
f 49/152/43 66/153/43 50/154/43
f 54/155/43 71/156/43 55/157/43
f 48/158/43 65/159/43 49/160/43
f 47/161/43 64/162/43 48/163/43
f 53/164/43 70/165/43 54/166/43
f 43/167/43 74/168/43 59/169/43
f 75/170/44 88/171/45 87/172/46
f 76/173/47 88/171/45 90/174/48
f 75/170/44 87/175/46 92/176/49
f 75/170/44 92/177/49 94/178/50
f 75/170/44 94/179/50 91/180/51
f 76/173/47 90/181/48 97/182/52
f 77/183/53 89/184/54 99/185/55
f 78/186/56 93/187/57 101/188/58
f 79/189/59 95/190/60 103/191/61
f 80/192/62 96/193/63 105/194/64
f 76/173/47 97/195/52 100/196/65
f 77/183/53 99/197/55 102/198/66
f 78/186/56 101/199/58 104/200/67
f 79/189/59 103/201/61 106/202/68
f 80/192/62 105/203/64 98/204/69
f 81/205/70 107/206/71 112/207/72
f 82/208/73 108/209/74 114/210/75
f 83/211/76 109/212/77 115/213/78
f 84/214/79 110/215/80 116/216/81
f 85/217/82 111/218/83 113/219/84
f 113/220/84 116/221/81 86/222/85
f 113/220/84 111/218/83 116/216/81
f 111/223/83 84/224/79 116/216/81
f 116/225/81 115/226/78 86/222/85
f 116/225/81 110/215/80 115/213/78
f 110/227/80 83/228/76 115/213/78
f 115/229/78 114/230/75 86/222/85
f 115/229/78 109/212/77 114/210/75
f 109/231/77 82/232/73 114/210/75
f 114/233/75 112/234/72 86/222/85
f 114/233/75 108/209/74 112/207/72
f 108/235/74 81/236/70 112/207/72
f 112/237/72 113/238/84 86/222/85
f 112/237/72 107/206/71 113/219/84
f 107/239/71 85/240/82 113/219/84
f 98/241/69 111/218/83 85/242/82
f 98/241/69 105/203/64 111/243/83
f 105/244/64 84/224/79 111/243/83
f 106/245/68 110/215/80 84/246/79
f 106/245/68 103/201/61 110/247/80
f 103/248/61 83/228/76 110/247/80
f 104/249/67 109/212/77 83/250/76
f 104/249/67 101/199/58 109/251/77
f 101/252/58 82/232/73 109/251/77
f 102/253/66 108/209/74 82/254/73
f 102/253/66 99/197/55 108/255/74
f 99/256/55 81/236/70 108/255/74
f 100/257/65 107/206/71 81/258/70
f 100/257/65 97/195/52 107/259/71
f 97/260/52 85/240/82 107/259/71
f 105/244/64 106/261/68 84/246/79
f 105/244/64 96/193/63 106/202/68
f 96/262/63 79/263/59 106/202/68
f 103/248/61 104/264/67 83/250/76
f 103/248/61 95/190/60 104/200/67
f 95/265/60 78/266/56 104/200/67
f 101/252/58 102/267/66 82/254/73
f 101/252/58 93/187/57 102/198/66
f 93/268/57 77/269/53 102/198/66
f 99/256/55 100/270/65 81/258/70
f 99/256/55 89/184/54 100/196/65
f 89/271/54 76/272/47 100/196/65
f 97/260/52 98/273/69 85/242/82
f 97/260/52 90/181/48 98/204/69
f 90/274/48 80/275/62 98/204/69
f 91/276/51 96/193/63 80/277/62
f 91/276/51 94/179/50 96/278/63
f 94/279/50 79/263/59 96/278/63
f 94/279/50 95/190/60 79/280/59
f 94/279/50 92/177/49 95/281/60
f 92/282/49 78/266/56 95/281/60
f 92/282/49 93/187/57 78/283/56
f 92/282/49 87/175/46 93/284/57
f 87/285/46 77/269/53 93/284/57
f 90/274/48 91/286/51 80/277/62
f 90/274/48 88/171/45 91/180/51
f 88/287/45 75/288/44 91/180/51
f 87/285/46 89/184/54 77/289/53
f 87/285/46 88/171/45 89/290/54
f 88/287/45 76/272/47 89/290/54
f 46/122/43 62/291/43 63/123/43
f 53/125/43 52/292/43 68/126/43
f 52/128/43 51/293/43 67/129/43
f 58/131/43 57/294/43 73/132/43
f 45/134/43 61/295/43 62/135/43
f 51/137/43 50/296/43 66/138/43
f 56/140/43 72/297/43 73/141/43
f 55/143/43 71/298/43 72/144/43
f 45/146/43 44/299/43 60/147/43
f 44/149/43 43/300/43 59/150/43
f 49/152/43 65/301/43 66/153/43
f 54/155/43 70/302/43 71/156/43
f 48/158/43 64/303/43 65/159/43
f 47/161/43 63/304/43 64/162/43
f 53/164/43 69/305/43 70/165/43
f 43/167/43 58/306/43 74/168/43
