# Blender v2.79 (sub 0) OBJ File: 'rocket.blend'
# www.blender.org
o Cylinder.007
v -0.197523 -0.052099 0.037852
v 0.353064 0.019900 0.061246
v -0.197523 0.019900 0.061246
v -0.197523 0.019900 -0.061246
v 0.353064 -0.052099 -0.037853
v -0.197523 -0.052099 -0.037852
v -0.197523 0.064399 0.000000
v 0.353064 0.019900 -0.061246
v -0.451548 -0.016344 0.011875
v -0.451548 0.020202 0.000000
v -0.451548 -0.016344 -0.011874
v 0.353064 -0.052099 0.037852
v 0.426009 -0.033404 -0.024269
v 0.426009 -0.033404 0.024269
v 0.426009 0.012759 -0.039268
v 0.426009 0.041289 -0.000000
v 0.426009 0.012759 0.039268
v -0.451548 0.006243 -0.019213
v -0.451548 0.006243 0.019214
v 0.408241 0.136507 0.000428
v 0.336064 0.050391 0.000856
v 0.336064 0.050391 -0.000000
v 0.180810 0.050391 -0.000000
v 0.408241 0.041776 0.129959
v 0.336064 0.014758 0.048189
v 0.336064 0.015572 0.047925
v 0.180810 0.015572 0.047925
v 0.408241 -0.110688 0.079891
v 0.336064 -0.041270 0.028927
v 0.336064 -0.040767 0.029619
v 0.180810 -0.040767 0.029619
v 0.408241 -0.110185 -0.080583
v 0.336064 -0.040265 -0.030311
v 0.336064 -0.040767 -0.029619
v 0.180810 -0.040767 -0.029619
v 0.408241 0.042590 -0.129694
v 0.336064 0.016385 -0.047660
v 0.336064 0.015572 -0.047925
v 0.180810 0.015572 -0.047925
v 0.180810 0.050391 0.000856
v 0.180810 0.014758 0.048189
v 0.180810 -0.041270 0.028927
v 0.180810 -0.040265 -0.030311
v 0.180810 0.016385 -0.047660
v 0.353064 0.064399 -0.000000
v -0.321822 0.016694 0.051381
v -0.321822 -0.043707 0.031755
v -0.321822 0.016694 -0.051381
v -0.321822 -0.043707 -0.031755
v -0.321822 0.054025 0.000000
vt 0.500000 0.000000
vt 0.000000 0.500000
vt 0.000000 0.000000
vt 0.500000 0.000000
vt 0.000000 0.500000
vt 0.000000 0.000000
vt 0.487764 0.327254
vt 0.103054 0.047746
vt 0.250000 0.500000
vt 0.500000 0.000000
vt 0.000000 0.500000
vt 0.000000 0.000000
vt 0.000000 0.000000
vt 0.500000 0.500000
vt 0.000000 0.500000
vt 0.500000 0.000000
vt 0.000000 0.500000
vt 0.000000 0.000000
vt 0.000000 0.000000
vt 0.500000 0.500000
vt 0.000000 0.500000
vt 0.000000 0.000000
vt 0.500000 0.500000
vt 0.000000 0.500000
vt 0.500000 0.000000
vt 0.000000 0.500000
vt 0.000000 0.000000
vt 0.500000 0.000000
vt 0.000000 0.000000
vt 0.000000 0.000000
vt 0.500000 0.500000
vt 0.000000 0.500000
vt 0.000000 0.000000
vt 0.500000 0.500000
vt 0.000000 0.000000
vt 0.500000 0.000000
vt 0.500000 0.500000
vt 0.000000 0.000000
vt 0.500000 0.000000
vt 0.500000 0.500000
vt 0.000000 0.000000
vt 0.500000 0.000000
vt 0.500000 0.500000
vt 0.000000 0.000000
vt 0.500000 0.000000
vt 0.500000 0.500000
vt 0.000000 0.000000
vt 0.500000 0.000000
vt 0.500000 0.500000
vt 0.500000 0.500000
vt 0.000000 0.500000
vt 0.000000 0.000000
vt 0.500000 0.500000
vt 0.000000 0.500000
vt 0.500000 0.000000
vt 0.500000 0.500000
vt 0.500000 0.000000
vt 0.500000 0.500000
vt 0.500000 0.000000
vt 0.500000 0.500000
vt 0.500000 0.000000
vt 0.500000 0.500000
vt 0.500000 0.000000
vt 0.500000 0.500000
vt 0.000000 0.500000
vt 0.000000 0.000000
vt 0.000000 0.000000
vt 0.500000 0.500000
vt 0.000000 0.500000
vt 0.396946 0.047746
vt 0.103054 0.047746
vt 0.012236 0.327254
vt 0.500000 0.000000
vt 0.500000 0.500000
vt 0.000000 0.500000
vt 0.500000 0.000000
vt 0.000000 0.000000
vt 0.500000 0.500000
vt 0.012236 0.327254
vt 0.396946 0.047746
vt 0.500000 0.500000
vt 0.500000 0.500000
vt 0.500000 0.000000
vt 0.500000 0.500000
vt 0.500000 0.000000
vt 0.500000 0.000000
vt 0.500000 0.000000
vt 0.250000 0.500000
vt 0.487764 0.327254
vt 0.500000 0.500000
vt 0.500000 0.000000
vt 0.500000 0.500000
vt 0.500000 0.500000
vn 0.1176 0.8034 0.5837
vn -0.0332 0.8086 0.5875
vn 0.1176 -0.3069 0.9445
vn -0.0332 -0.3088 0.9505
vn -1.0000 -0.0000 0.0000
vn 0.1176 0.8034 -0.5837
vn -0.0332 0.8086 -0.5875
vn 0.2483 0.7837 0.5694
vn 0.1176 -0.9931 -0.0000
vn 0.2483 -0.9687 0.0000
vn 0.1176 -0.3069 -0.9445
vn 0.2483 -0.2993 -0.9213
vn 0.2483 0.7837 -0.5694
vn -0.2064 0.7916 0.5751
vn -0.1327 0.8019 0.5826
vn -0.1327 0.8019 -0.5826
vn -0.1327 -0.9912 0.0000
vn -0.2064 -0.9785 0.0000
vn 0.2483 -0.2993 0.9213
vn -0.0000 0.0050 -1.0000
vn -0.0000 0.9526 -0.3043
vn 0.0000 0.5838 0.8119
vn 0.0000 -0.5918 0.8061
vn 0.0000 -0.9495 -0.3137
vn -0.1327 -0.3063 0.9426
vn -0.2064 -0.3024 0.9306
vn -0.1327 -0.3063 -0.9426
vn -0.2064 -0.3024 -0.9306
vn 0.0000 0.0050 1.0000
vn 0.0000 -0.9495 0.3137
vn -0.0000 -0.5918 -0.8061
vn -0.0000 0.5838 -0.8119
vn -0.0000 0.9526 0.3043
vn -0.0332 -0.9994 -0.0000
vn -0.0332 -0.3088 -0.9505
vn 1.0000 0.0000 0.0000
vn -0.2064 0.7916 -0.5751
s 1
f 2/1/1 7/2/2 3/3/2
f 12/4/3 3/5/4 1/6/4
f 18/7/5 9/8/5 10/9/5
f 45/10/6 4/11/7 7/12/7
f 16/13/8 2/14/1 17/15/8
f 5/16/9 14/17/10 12/18/9
f 5/19/11 15/20/12 13/21/12
f 8/22/6 16/23/13 15/24/13
f 10/25/14 46/26/15 50/27/15
f 50/28/16 4/11/7 48/29/16
f 47/30/17 11/31/18 49/32/17
f 17/33/19 12/34/3 14/17/19
f 20/35/20 22/36/20 23/37/20
f 24/38/21 26/39/21 27/40/21
f 28/41/22 30/42/22 31/43/22
f 32/44/23 34/45/23 35/46/23
f 36/47/24 38/48/24 39/49/24
f 47/30/25 19/50/26 9/51/26
f 49/52/27 18/53/28 48/54/27
f 20/35/29 40/55/29 21/56/29
f 24/38/30 41/57/30 25/58/30
f 28/41/31 42/59/31 29/60/31
f 32/44/32 43/61/32 33/62/32
f 36/47/33 44/63/33 37/64/33
f 5/16/9 1/65/34 6/66/34
f 4/67/35 5/68/11 6/69/35
f 17/70/36 14/71/36 13/72/36
f 49/73/27 4/11/35 6/66/35
f 1/6/4 46/74/25 47/75/25
f 47/76/17 6/69/34 1/6/34
f 10/25/37 48/54/16 18/77/37
f 50/28/15 3/5/2 7/12/2
f 2/1/1 45/78/1 7/2/2
f 12/4/3 2/14/3 3/5/4
f 19/79/5 10/9/5 9/8/5
f 18/7/5 11/80/5 9/8/5
f 45/10/6 8/81/6 4/11/7
f 16/13/8 45/10/1 2/14/1
f 5/16/9 13/82/10 14/17/10
f 5/19/11 8/83/11 15/20/12
f 8/22/6 45/10/6 16/23/13
f 10/25/14 19/50/14 46/26/15
f 50/28/16 7/84/7 4/11/7
f 47/30/17 9/85/18 11/31/18
f 17/33/19 2/1/3 12/34/3
f 47/30/25 46/86/25 19/50/26
f 49/52/27 11/87/28 18/53/28
f 5/16/9 12/34/9 1/65/34
f 4/67/35 8/83/11 5/68/11
f 13/72/36 15/88/36 16/89/36
f 16/89/36 17/70/36 13/72/36
f 49/73/27 48/90/27 4/11/35
f 1/6/4 3/91/4 46/74/25
f 47/76/17 49/92/17 6/69/34
f 10/25/37 50/93/16 48/54/16
f 50/28/15 46/74/15 3/5/2
