# Blender v2.79 (sub 0) OBJ File: 'shield.blend'
# www.blender.org
o Sphere
v 0.000000 -0.191342 -0.026492
v -0.000000 -0.000000 -0.031250
v 0.135299 -0.135299 -0.026492
v 0.250000 -0.250000 -0.012944
v 0.326641 -0.326641 0.007332
v 0.353553 -0.353553 0.031250
v 0.191342 -0.000000 -0.026492
v 0.353553 -0.000000 -0.012944
v 0.461940 -0.000000 0.007332
v 0.500000 -0.000000 0.031250
v 0.135299 0.135299 -0.026492
v 0.250000 0.250000 -0.012944
v 0.326641 0.326641 0.007332
v 0.353553 0.353553 0.031250
v 0.000000 0.191342 -0.026492
v 0.000000 0.353553 -0.012944
v 0.000000 0.461940 0.007332
v 0.000000 0.500000 0.031250
v -0.135299 0.135299 -0.026492
v -0.250000 0.250000 -0.012944
v -0.326641 0.326641 0.007332
v -0.353553 0.353553 0.031250
v -0.191342 -0.000000 -0.026492
v -0.353553 -0.000000 -0.012944
v -0.461940 -0.000000 0.007332
v -0.500000 -0.000000 0.031250
v -0.135299 -0.135299 -0.026492
v -0.250000 -0.250000 -0.012944
v -0.326641 -0.326641 0.007332
v -0.353553 -0.353553 0.031250
v -0.000000 -0.353553 -0.012944
v -0.000000 -0.461940 0.007332
v 0.000000 -0.500000 0.031250
vt 0.691376 0.625346
vt 0.146541 0.306549
vt 0.853570 0.306549
vt 0.961944 0.090096
vt 0.038167 0.090096
vt 1.000000 0.000000
vt 0.000111 0.000000
vt 0.500056 1.000000
vt 0.308735 0.625346
vt 0.691375 0.625346
vt 0.146541 0.306550
vt 0.853569 0.306550
vt 0.038167 0.090096
vt 0.961944 0.090096
vt 0.000111 0.000000
vt 1.000000 0.000000
vt 0.308735 0.625346
vt 0.691341 0.625346
vt 0.499998 1.000000
vt 0.308657 0.625346
vt 0.853553 0.306550
vt 0.146446 0.306549
vt 0.961940 0.090096
vt 0.038060 0.090096
vt 0.000000 0.000000
vt 1.000000 0.000000
vt 0.961940 0.090170
vt 0.000000 0.000090
vt 1.000000 0.000090
vt 0.691341 0.625323
vt 0.499999 0.999910
vt 0.308658 0.625323
vt 0.853553 0.306585
vt 0.146446 0.306584
vt 0.038060 0.090170
vt 0.853553 0.306612
vt 0.038060 0.090178
vt 0.961940 0.090178
vt 1.000000 0.000090
vt 0.000000 0.000090
vt 0.691341 0.625380
vt 0.308658 0.625380
vt 0.146447 0.306612
vt 0.691341 0.625380
vt 0.146446 0.306612
vt 0.853553 0.306612
vt 0.038060 0.090178
vt 0.961940 0.090179
vt 1.000000 0.000090
vt 0.000000 0.000090
vt 0.308658 0.625380
vt 0.691342 0.625380
vt 0.308658 0.625380
vt 0.146447 0.306612
vt 0.853553 0.306612
vt 0.038060 0.090178
vt 0.961940 0.090178
vt 1.000000 0.000090
vt 0.000000 0.000090
vt 1.000000 0.000000
vt 0.038061 0.090097
vt 0.000000 0.000000
vt 0.691342 0.625346
vt 0.308659 0.625346
vt 0.853554 0.306550
vt 0.146447 0.306550
vt 0.961940 0.090097
vn -0.0000 -0.0613 -0.9981
vn 0.1033 -0.1033 -0.9893
vn -0.0000 -0.1461 -0.9893
vn -0.0000 -0.4034 -0.9150
vn 0.2852 -0.2852 -0.9150
vn 0.0000 -0.5321 -0.8467
vn 0.3762 -0.3762 -0.8467
vn -0.0000 -0.0000 -1.0000
vn 0.0434 -0.0434 -0.9981
vn 0.1461 -0.0000 -0.9893
vn 0.4034 -0.0000 -0.9150
vn 0.5321 -0.0000 -0.8467
vn 0.0613 -0.0000 -0.9981
vn 0.0434 0.0434 -0.9981
vn 0.1033 0.1033 -0.9893
vn 0.2852 0.2852 -0.9150
vn 0.3762 0.3762 -0.8467
vn -0.0000 0.5321 -0.8467
vn -0.0000 0.0613 -0.9981
vn -0.0000 0.1461 -0.9893
vn -0.0000 0.4034 -0.9150
vn -0.2852 0.2852 -0.9150
vn -0.3762 0.3762 -0.8467
vn -0.0434 0.0434 -0.9981
vn -0.1033 0.1033 -0.9893
vn -0.1461 -0.0000 -0.9893
vn -0.4034 0.0000 -0.9150
vn -0.5321 -0.0000 -0.8467
vn -0.0613 -0.0000 -0.9981
vn -0.0434 -0.0434 -0.9981
vn -0.1033 -0.1033 -0.9893
vn -0.2852 -0.2852 -0.9150
vn -0.3762 -0.3762 -0.8467
s 1
f 1/1/1 4/2/2 31/3/3
f 32/4/4 4/2/2 5/5/5
f 33/6/6 5/5/5 6/7/7
f 1/1/1 2/8/8 3/9/9
f 3/10/9 8/11/10 4/12/2
f 4/12/2 9/13/11 5/14/5
f 5/14/5 10/15/12 6/16/7
f 3/10/9 2/8/8 7/17/13
f 7/18/13 2/19/8 11/20/14
f 8/21/10 11/20/14 12/22/15
f 9/23/11 12/22/15 13/24/16
f 9/23/11 14/25/17 10/26/12
f 13/27/16 18/28/18 14/29/17
f 11/30/14 2/31/8 15/32/19
f 12/33/15 15/32/19 16/34/20
f 12/33/15 17/35/21 13/27/16
f 16/36/20 21/37/22 17/38/21
f 18/39/18 21/37/22 22/40/23
f 15/41/19 2/19/8 19/42/24
f 15/41/19 20/43/25 16/36/20
f 19/44/24 24/45/26 20/46/25
f 20/46/25 25/47/27 21/48/22
f 22/49/23 25/47/27 26/50/28
f 19/44/24 2/19/8 23/51/29
f 23/52/29 2/19/8 27/53/30
f 23/52/29 28/54/31 24/55/26
f 24/55/26 29/56/32 25/57/27
f 26/58/28 29/56/32 30/59/33
f 30/60/33 32/61/4 33/62/6
f 27/63/30 2/19/8 1/64/1
f 28/65/31 1/64/1 31/66/3
f 28/65/31 32/61/4 29/67/32
f 1/1/1 3/9/9 4/2/2
f 32/4/4 31/3/3 4/2/2
f 33/6/6 32/4/4 5/5/5
f 3/10/9 7/17/13 8/11/10
f 4/12/2 8/11/10 9/13/11
f 5/14/5 9/13/11 10/15/12
f 8/21/10 7/18/13 11/20/14
f 9/23/11 8/21/10 12/22/15
f 9/23/11 13/24/16 14/25/17
f 13/27/16 17/35/21 18/28/18
f 12/33/15 11/30/14 15/32/19
f 12/33/15 16/34/20 17/35/21
f 16/36/20 20/43/25 21/37/22
f 18/39/18 17/38/21 21/37/22
f 15/41/19 19/42/24 20/43/25
f 19/44/24 23/51/29 24/45/26
f 20/46/25 24/45/26 25/47/27
f 22/49/23 21/48/22 25/47/27
f 23/52/29 27/53/30 28/54/31
f 24/55/26 28/54/31 29/56/32
f 26/58/28 25/57/27 29/56/32
f 30/60/33 29/67/32 32/61/4
f 28/65/31 27/63/30 1/64/1
f 28/65/31 31/66/3 32/61/4
