# Blender v2.79 (sub 0) OBJ File: 'cannon4.blend'
# www.blender.org
o Cube.002
v 0.108227 0.581872 0.164622
v 0.108227 0.671649 0.164622
v 0.085919 0.575708 -0.057394
v 0.085919 0.677813 -0.141693
v 0.165716 0.581872 0.164622
v 0.165716 0.671649 0.164622
v 0.188024 0.575708 -0.057394
v 0.188024 0.677813 -0.141693
v 0.085919 0.575708 0.164622
v 0.085919 0.677813 0.164622
v 0.188024 0.677813 0.164622
v 0.188024 0.575708 0.164622
v 0.108227 0.581872 0.360501
v 0.114296 0.664891 0.482400
v 0.159647 0.664891 0.482400
v 0.165716 0.581872 0.360501
v 0.085919 0.626761 0.164622
v 0.085919 0.626761 -0.141693
v 0.188024 0.626761 -0.141693
v 0.188024 0.626761 0.164622
v 0.108227 0.626761 0.164622
v 0.165716 0.626761 0.164622
v 0.114296 0.632580 0.482400
v 0.159647 0.632580 0.482400
v 0.108227 0.626761 0.482400
v 0.108227 0.671649 0.482400
v 0.165716 0.671649 0.482400
v 0.165716 0.626761 0.482400
v 0.119034 0.636966 1.031540
v 0.119034 0.660504 1.031540
v 0.154909 0.660504 1.031540
v 0.154909 0.636966 1.031540
v 0.114296 0.632580 1.031540
v 0.114296 0.664891 1.031540
v 0.159647 0.664891 1.031540
v 0.159647 0.632580 1.031540
v 0.119034 0.636966 0.369319
v 0.119034 0.660504 0.369319
v 0.154909 0.660504 0.369319
v 0.154909 0.636966 0.369319
v 0.085919 0.677813 -0.057394
v 0.188024 0.677813 -0.057394
v 0.188024 0.626761 -0.057394
v 0.085919 0.626761 -0.057394
v -0.108227 0.581872 0.164622
v -0.108227 0.671649 0.164622
v -0.085919 0.575708 -0.057394
v -0.085919 0.677813 -0.141693
v -0.165716 0.581872 0.164622
v -0.165716 0.671649 0.164622
v -0.188024 0.575708 -0.057394
v -0.188024 0.677813 -0.141693
v -0.085919 0.575708 0.164622
v -0.085919 0.677813 0.164622
v -0.188024 0.677813 0.164622
v -0.188024 0.575708 0.164622
v -0.108227 0.581872 0.360501
v -0.114296 0.664891 0.482400
v -0.159647 0.664891 0.482400
v -0.165716 0.581872 0.360501
v -0.085919 0.626761 0.164622
v -0.085919 0.626761 -0.141693
v -0.188024 0.626761 -0.141693
v -0.188024 0.626761 0.164622
v -0.108227 0.626761 0.164622
v -0.165716 0.626761 0.164622
v -0.114296 0.632580 0.482400
v -0.159647 0.632580 0.482400
v -0.108227 0.626761 0.482400
v -0.108227 0.671649 0.482400
v -0.165716 0.671649 0.482400
v -0.165716 0.626761 0.482400
v -0.119034 0.636966 1.031540
v -0.119034 0.660504 1.031540
v -0.154909 0.660504 1.031540
v -0.154909 0.636966 1.031540
v -0.114296 0.632580 1.031540
v -0.114296 0.664891 1.031540
v -0.159647 0.664891 1.031540
v -0.159647 0.632580 1.031540
v -0.119034 0.636966 0.369319
v -0.119034 0.660504 0.369319
v -0.154909 0.660504 0.369319
v -0.154909 0.636966 0.369319
v -0.085919 0.677813 -0.057394
v -0.188024 0.677813 -0.057394
v -0.188024 0.626761 -0.057394
v -0.085919 0.626761 -0.057394
vt 0.500000 0.000000
vt 0.000000 0.500000
vt 0.000000 0.000000
vt 0.500000 0.000000
vt 0.000000 0.500000
vt 0.000000 0.000000
vt 0.500000 0.000000
vt 0.000000 0.500000
vt 0.000000 0.000000
vt 0.500000 0.000000
vt 0.000000 0.500000
vt 0.000000 0.000000
vt 0.500000 0.000000
vt 0.000000 0.500000
vt 0.000000 0.000000
vt 0.000000 0.500000
vt 0.000000 0.000000
vt 0.500000 0.000000
vt 0.000000 0.500000
vt 0.000000 0.000000
vt 0.500000 0.000000
vt 0.500000 0.000000
vt 0.000000 0.500000
vt 0.000000 0.000000
vt 0.000000 0.500000
vt 0.000000 0.000000
vt 0.500000 0.000000
vt 0.000000 0.500000
vt 0.000000 0.000000
vt 0.000000 0.500000
vt 0.000000 0.000000
vt 0.000000 0.500000
vt 0.000000 0.000000
vt 0.500000 0.500000
vt 0.000000 0.500000
vt 0.500000 0.000000
vt 0.000000 0.500000
vt 0.500000 0.000000
vt 0.000000 0.000000
vt 0.500000 0.500000
vt 0.500000 0.500000
vt 0.500000 0.000000
vt 0.000000 0.500000
vt 0.500000 0.000000
vt 0.000000 0.000000
vt 0.500000 0.000000
vt 0.000000 0.500000
vt 0.500000 0.000000
vt 0.500000 0.500000
vt 0.000000 0.000000
vt 0.000000 0.000000
vt 0.500000 0.500000
vt 0.500000 0.500000
vt 0.500000 0.000000
vt 0.000000 0.000000
vt 0.500000 0.000000
vt 0.000000 0.500000
vt 0.000000 0.000000
vt 0.500000 0.000000
vt 0.000000 0.500000
vt 0.500000 0.000000
vt 0.000000 0.500000
vt 0.000000 0.500000
vt 0.000000 0.000000
vt 0.500000 0.000000
vt 0.000000 0.000000
vt 0.500000 0.000000
vt 0.500000 0.000000
vt 0.000000 0.000000
vt 0.500000 0.000000
vt 0.000000 0.500000
vt 0.000000 0.000000
vt 0.000000 0.500000
vt 0.000000 0.500000
vt 0.500000 0.000000
vt 0.000000 0.500000
vt 0.000000 0.000000
vt 0.500000 0.000000
vt 0.500000 0.500000
vt 0.000000 0.500000
vt 0.000000 0.000000
vt 0.500000 0.000000
vt 0.000000 0.500000
vt 0.000000 0.000000
vt 0.500000 0.000000
vt 0.000000 0.500000
vt 0.000000 0.000000
vt 0.000000 0.500000
vt 0.500000 0.000000
vt 0.000000 0.000000
vt 0.000000 0.500000
vt 0.500000 0.000000
vt 0.000000 0.000000
vt 0.000000 0.500000
vt 0.500000 0.000000
vt 0.000000 0.000000
vt 0.000000 0.500000
vt 0.500000 0.000000
vt 0.000000 0.000000
vt 0.000000 0.500000
vt 0.500000 0.000000
vt 0.000000 0.000000
vt 0.000000 0.500000
vt 0.000000 0.000000
vt 0.000000 0.500000
vt 0.500000 0.000000
vt 0.000000 0.000000
vt 0.500000 0.000000
vt 0.000000 0.500000
vt 0.500000 0.000000
vt 0.000000 0.000000
vt 0.000000 0.500000
vt 0.000000 0.000000
vt 0.000000 0.500000
vt 0.500000 0.000000
vt 0.000000 0.000000
vt 0.000000 0.500000
vt 0.000000 0.000000
vt 0.000000 0.500000
vt 0.000000 0.000000
vt 0.500000 0.500000
vt 0.000000 0.500000
vt 0.500000 0.000000
vt 0.500000 0.000000
vt 0.000000 0.000000
vt 0.500000 0.500000
vt 0.500000 0.000000
vt 0.500000 0.500000
vt 0.000000 0.500000
vt 0.500000 0.000000
vt 0.000000 0.000000
vt 0.000000 0.500000
vt 0.500000 0.000000
vt 0.500000 0.500000
vt 0.500000 0.000000
vt 0.000000 0.500000
vt 0.000000 0.000000
vt 0.000000 0.000000
vt 0.500000 0.500000
vt 0.500000 0.000000
vt 0.500000 0.500000
vt 0.500000 0.000000
vt 0.500000 0.000000
vt 0.000000 0.000000
vt 0.000000 0.500000
vt 0.500000 0.000000
vt 0.000000 0.000000
vt 0.000000 0.500000
vt 0.000000 0.500000
vt 0.000000 0.500000
vt 0.000000 0.000000
vt 0.500000 0.000000
vt 0.000000 0.000000
vt 0.500000 0.000000
vt 0.500000 0.000000
vt 0.000000 0.000000
vt 0.000000 0.500000
vt 0.500000 0.000000
vt 0.000000 0.000000
vt 0.000000 0.500000
vt 0.000000 0.500000
vt 0.000000 0.500000
vt 0.500000 0.000000
vt 0.000000 0.000000
vt 0.500000 0.500000
vt 0.500000 0.000000
vt 0.000000 0.500000
vt 0.000000 0.000000
vt 0.000000 0.500000
vt 0.500000 0.000000
vt 0.000000 0.000000
vt 0.000000 0.500000
vt 0.500000 0.000000
vt 0.000000 0.000000
vt 0.500000 0.500000
vt 0.500000 0.500000
vt 0.500000 0.500000
vt 0.500000 0.500000
vt 0.500000 0.500000
vt 0.500000 0.500000
vt 0.500000 0.500000
vt 0.500000 0.500000
vt 0.500000 0.500000
vt 0.500000 0.500000
vt 0.500000 0.500000
vt 0.500000 0.500000
vt 0.500000 0.500000
vt 0.500000 0.500000
vt 0.500000 0.500000
vt 0.500000 0.500000
vt 0.500000 0.500000
vt 0.500000 0.500000
vt 0.500000 0.500000
vt 0.500000 0.500000
vt 0.500000 0.500000
vt 0.500000 0.500000
vt 0.500000 0.500000
vt 0.500000 0.500000
vt 0.500000 0.500000
vt 0.500000 0.500000
vt 0.500000 0.500000
vt 0.500000 0.500000
vt 0.500000 0.500000
vt 0.500000 0.500000
vt 0.500000 0.500000
vt 0.500000 0.500000
vt 0.500000 0.500000
vt 0.500000 0.500000
vt 0.500000 0.500000
vt 0.500000 0.500000
vt 0.500000 0.500000
vt 0.500000 0.500000
vt 0.500000 0.500000
vt 0.500000 0.500000
vt 0.500000 0.500000
vt 0.500000 0.500000
vn -1.0000 0.0000 0.0000
vn 0.0000 0.0000 -1.0000
vn 1.0000 0.0000 0.0000
vn 0.0000 -1.0000 0.0000
vn 0.0000 1.0000 0.0000
vn 0.0000 0.0000 1.0000
vn 0.0000 -0.9845 0.1755
vn 0.0000 -0.9384 0.3456
vn 0.0000 -0.8554 -0.5180
s 1
f 41/1/1 18/2/1 44/3/1
f 4/4/2 19/5/2 18/6/2
f 42/7/3 20/8/3 43/9/3
f 6/10/3 28/11/3 22/12/3
f 7/13/4 9/14/4 3/15/4
f 41/1/5 11/16/5 42/17/5
f 2/18/6 17/19/6 21/20/6
f 5/21/6 20/8/6 22/12/6
f 1/22/6 12/23/6 5/24/6
f 6/10/6 10/25/6 2/26/6
f 14/27/5 35/28/5 15/29/5
f 5/21/4 13/30/7 1/31/4
f 2/18/5 27/32/5 6/33/5
f 21/20/1 13/34/1 25/35/1
f 21/36/1 26/37/1 2/26/1
f 28/38/8 13/30/7 16/39/7
f 6/33/6 20/40/6 11/16/6
f 1/31/6 17/41/6 9/14/6
f 22/42/3 16/43/3 5/24/3
f 43/44/3 12/23/3 7/45/3
f 18/46/9 7/47/9 3/15/9
f 3/15/1 44/48/1 18/49/1
f 14/27/6 25/35/6 23/50/6
f 14/51/6 27/52/6 26/37/6
f 15/29/6 28/53/6 27/32/6
f 23/54/6 28/11/6 24/55/6
f 30/56/4 39/57/4 31/58/4
f 15/59/3 36/60/3 24/55/3
f 24/61/4 33/62/4 23/50/4
f 23/54/1 34/63/1 14/51/1
f 30/56/6 33/62/6 29/64/6
f 31/65/6 34/63/6 30/66/6
f 32/67/6 35/28/6 31/58/6
f 29/68/6 36/60/6 32/69/6
f 39/70/6 37/71/6 40/72/6
f 31/65/1 40/73/1 32/69/1
f 32/67/5 37/71/5 29/64/5
f 29/68/3 38/74/3 30/66/3
f 17/75/1 3/76/1 9/77/1
f 7/45/3 19/78/3 43/79/3
f 4/4/5 42/80/5 8/81/5
f 8/82/3 43/83/3 19/84/3
f 10/85/1 44/86/1 17/87/1
f 62/88/3 85/89/3 88/90/3
f 63/91/2 48/92/2 62/93/2
f 64/94/1 86/95/1 87/96/1
f 72/97/1 50/98/1 66/99/1
f 53/100/4 51/101/4 47/102/4
f 55/103/5 85/89/5 86/104/5
f 61/105/6 46/106/6 65/107/6
f 64/94/6 49/108/6 66/99/6
f 56/109/6 45/110/6 49/111/6
f 54/112/6 50/98/6 46/113/6
f 79/114/5 58/115/5 59/116/5
f 57/117/7 49/108/4 45/118/4
f 71/119/5 46/106/5 50/120/5
f 65/107/3 57/121/3 45/110/3
f 70/122/3 65/123/3 46/113/3
f 57/117/7 72/124/8 60/125/7
f 50/120/6 64/126/6 66/127/6
f 45/118/6 61/128/6 65/123/6
f 60/129/1 66/127/1 49/111/1
f 56/109/1 87/130/1 51/131/1
f 51/132/9 62/133/9 47/102/9
f 47/102/3 62/134/3 88/135/3
f 69/136/6 58/115/6 67/137/6
f 58/138/6 71/139/6 59/140/6
f 59/116/6 72/141/6 68/142/6
f 72/97/6 67/143/6 68/144/6
f 83/145/4 74/146/4 75/147/4
f 80/148/1 59/140/1 68/144/1
f 77/149/4 68/142/4 67/137/4
f 78/150/3 67/143/3 58/138/3
f 77/149/6 74/146/6 73/151/6
f 78/150/6 75/152/6 74/153/6
f 79/114/6 76/154/6 75/147/6
f 80/148/6 73/155/6 76/156/6
f 81/157/6 83/158/6 84/159/6
f 84/160/3 75/152/3 76/156/3
f 81/157/5 76/154/5 73/151/5
f 82/161/1 73/155/1 74/153/1
f 47/162/3 61/163/3 53/164/3
f 51/131/1 87/165/1 63/166/1
f 86/167/5 48/92/5 52/168/5
f 87/169/1 52/170/1 63/171/1
f 88/172/3 54/173/3 61/174/3
f 41/1/1 4/175/1 18/2/1
f 4/4/2 8/176/2 19/5/2
f 42/7/3 11/177/3 20/8/3
f 6/10/3 27/52/3 28/11/3
f 7/13/4 12/178/4 9/14/4
f 41/1/5 10/179/5 11/16/5
f 2/18/6 10/179/6 17/19/6
f 5/21/6 12/178/6 20/8/6
f 1/22/6 9/180/6 12/23/6
f 6/10/6 11/177/6 10/25/6
f 14/27/5 34/181/5 35/28/5
f 5/21/4 16/182/7 13/30/7
f 2/18/5 26/183/5 27/32/5
f 21/20/1 1/22/1 13/34/1
f 21/36/1 25/184/1 26/37/1
f 28/38/8 25/184/8 13/30/7
f 6/33/6 22/42/6 20/40/6
f 1/31/6 21/36/6 17/41/6
f 22/42/3 28/53/3 16/43/3
f 43/44/3 20/40/3 12/23/3
f 18/46/9 19/185/9 7/47/9
f 14/27/6 26/183/6 25/35/6
f 14/51/6 15/59/6 27/52/6
f 15/29/6 24/61/6 28/53/6
f 23/54/6 25/184/6 28/11/6
f 30/56/4 38/186/4 39/57/4
f 15/59/3 35/187/3 36/60/3
f 24/61/4 36/188/4 33/62/4
f 23/54/1 33/189/1 34/63/1
f 30/56/6 34/181/6 33/62/6
f 31/65/6 35/187/6 34/63/6
f 32/67/6 36/188/6 35/28/6
f 29/68/6 33/189/6 36/60/6
f 39/70/6 38/186/6 37/71/6
f 31/65/1 39/190/1 40/73/1
f 32/67/5 40/191/5 37/71/5
f 29/68/3 37/192/3 38/74/3
f 17/75/1 44/193/1 3/76/1
f 4/4/5 41/194/5 42/80/5
f 8/82/3 42/195/3 43/83/3
f 10/85/1 41/194/1 44/86/1
f 62/88/3 48/196/3 85/89/3
f 63/91/2 52/197/2 48/92/2
f 64/94/1 55/198/1 86/95/1
f 72/97/1 71/139/1 50/98/1
f 53/100/4 56/199/4 51/101/4
f 55/103/5 54/200/5 85/89/5
f 61/105/6 54/200/6 46/106/6
f 64/94/6 56/199/6 49/108/6
f 56/109/6 53/201/6 45/110/6
f 54/112/6 55/198/6 50/98/6
f 79/114/5 78/202/5 58/115/5
f 57/117/7 60/203/7 49/108/4
f 71/119/5 70/204/5 46/106/5
f 65/107/3 69/136/3 57/121/3
f 70/122/3 69/205/3 65/123/3
f 57/117/7 69/205/8 72/124/8
f 50/120/6 55/103/6 64/126/6
f 45/118/6 53/100/6 61/128/6
f 60/129/1 72/141/1 66/127/1
f 56/109/1 64/126/1 87/130/1
f 51/132/9 63/206/9 62/133/9
f 69/136/6 70/204/6 58/115/6
f 58/138/6 70/122/6 71/139/6
f 59/116/6 71/119/6 72/141/6
f 72/97/6 69/205/6 67/143/6
f 83/145/4 82/207/4 74/146/4
f 80/148/1 79/208/1 59/140/1
f 77/149/4 80/209/4 68/142/4
f 78/150/3 77/210/3 67/143/3
f 77/149/6 78/202/6 74/146/6
f 78/150/6 79/208/6 75/152/6
f 79/114/6 80/209/6 76/154/6
f 80/148/6 77/210/6 73/155/6
f 81/157/6 82/207/6 83/158/6
f 84/160/3 83/211/3 75/152/3
f 81/157/5 84/212/5 76/154/5
f 82/161/1 81/213/1 73/155/1
f 47/162/3 88/214/3 61/163/3
f 86/167/5 85/215/5 48/92/5
f 87/169/1 86/216/1 52/170/1
f 88/172/3 85/215/3 54/173/3
