# Blender v2.79 (sub 0) OBJ File: 'cannon8.blend'
# www.blender.org
o Cube.001_Cube.004
v 0.000000 0.819023 -0.333333
v 0.127561 0.485689 -0.307959
v 0.000000 0.485689 -0.333333
v 0.127561 0.819023 -0.307959
v 0.235702 0.485689 -0.235702
v 0.235702 0.819023 -0.235702
v 0.307959 0.485689 -0.127561
v 0.307959 0.819023 -0.127561
v 0.333333 0.485689 0.000000
v 0.333333 0.819023 0.000000
v 0.307959 0.485689 0.127561
v 0.307959 0.819023 0.127561
v 0.235702 0.485689 0.235702
v 0.235702 0.819023 0.235702
v 0.127561 0.485689 0.307959
v 0.127561 0.819023 0.307959
v 0.000000 0.485689 0.333333
v 0.000000 0.819023 0.333333
v -0.127561 0.485689 0.307959
v -0.127561 0.819023 0.307959
v -0.235702 0.485689 0.235702
v -0.235702 0.819023 0.235702
v -0.307959 0.485689 0.127561
v -0.307959 0.819023 0.127561
v -0.333333 0.485689 0.000000
v -0.333333 0.819023 0.000000
v -0.307959 0.485689 -0.127561
v -0.307959 0.819023 -0.127561
v -0.235702 0.485689 -0.235702
v -0.127561 0.819023 -0.127561
v -0.235702 0.819023 -0.235702
v -0.127561 0.485689 -0.307959
v -0.127561 0.819023 -0.307959
v 0.096012 0.985689 -0.127561
v 0.096012 0.985689 -0.282068
v 0.096012 1.152356 -0.106519
v 0.127561 0.819023 0.127561
v -0.096012 0.985689 0.127561
v -0.096012 0.985689 0.282068
v -0.096012 1.152356 0.106519
v 0.096012 0.985689 0.000000
v 0.096012 1.152356 0.000000
v -0.096012 0.985689 0.000000
v -0.096012 1.152356 0.000000
v -0.127561 0.819023 0.127561
v 0.127561 0.819023 0.000000
v 0.096013 0.985689 0.282068
v 0.000000 1.152356 0.127561
v 0.000000 0.985689 0.301166
v -0.096012 0.985689 -0.282068
v -0.096012 0.985689 -0.127561
v -0.096012 1.152356 -0.106519
v -0.127561 0.819023 0.000000
v 0.127561 0.819023 -0.127561
v 0.000000 1.152356 -0.127561
v 0.000000 0.985689 -0.301166
v 0.096012 0.819023 -0.282068
v 0.000000 0.819023 -0.301166
v 0.096013 0.819023 0.282068
v -0.096012 0.819023 0.282068
v 0.000000 0.819023 0.301166
v -0.096012 0.819023 -0.282068
v 0.096013 0.819023 0.127561
v -0.096012 0.819023 0.000000
v -0.096012 0.819023 0.127561
v 0.096012 0.819023 0.000000
v -0.096012 0.819023 -0.127561
v 0.096012 0.819023 -0.127561
v 0.000000 1.152356 0.108662
v 0.054272 1.179098 0.064149
v 0.000000 1.179098 0.076044
v -0.077551 1.152356 0.000000
v -0.054272 1.179098 -0.064149
v -0.077551 1.152356 -0.091666
v 0.077551 1.152356 0.000000
v 0.077551 1.152356 0.091666
v 0.000000 1.152356 -0.108662
v 0.000000 1.179098 -0.076043
v 0.096013 1.152356 0.106519
v 0.096013 0.985689 0.127561
v -0.077551 1.152356 0.091666
v 0.077551 1.152356 -0.091666
v 0.000000 1.179098 0.000000
v 0.054272 1.179098 0.000000
v -0.054272 1.179098 0.064149
v 0.054272 1.179098 -0.064149
v -0.054272 1.179098 0.000000
vt 0.500000 0.000000
vt 0.000000 0.500000
vt 0.000000 0.000000
vt 0.000000 0.000000
vt 0.500000 0.500000
vt 0.000000 0.500000
vt 0.000000 0.000000
vt 0.500000 0.500000
vt 0.000000 0.500000
vt 0.000000 0.000000
vt 0.500000 0.500000
vt 0.000000 0.500000
vt 0.000000 0.000000
vt 0.500000 0.500000
vt 0.000000 0.500000
vt 0.500000 0.000000
vt 0.000000 0.500000
vt 0.000000 0.000000
vt 0.500000 0.000000
vt 0.000000 0.500000
vt 0.000000 0.000000
vt 0.500000 0.000000
vt 0.000000 0.500000
vt 0.000000 0.000000
vt 0.500000 0.500000
vt 0.000000 0.500000
vt 0.500000 0.000000
vt 0.000000 0.500000
vt 0.000000 0.000000
vt 0.500000 0.000000
vt 0.000000 0.500000
vt 0.000000 0.000000
vt 0.500000 0.000000
vt 0.000000 0.500000
vt 0.000000 0.000000
vt 0.500000 0.000000
vt 0.000000 0.500000
vt 0.000000 0.000000
vt 0.500000 0.000000
vt 0.000000 0.500000
vt 0.000000 0.000000
vt 0.000000 0.000000
vt 0.500000 0.500000
vt 0.000000 0.000000
vt 0.500000 0.500000
vt 0.000000 0.500000
vt 0.500000 0.000000
vt 0.000000 0.500000
vt 0.000000 0.000000
vt 0.000000 0.000000
vt 0.500000 0.000000
vt 0.500000 0.500000
vt 0.000000 0.000000
vt 0.500000 0.000000
vt 0.500000 0.500000
vt 0.000000 0.000000
vt 0.500000 0.000000
vt 0.500000 0.500000
vt 0.000000 0.000000
vt 0.500000 0.500000
vt 0.000000 0.500000
vt 0.000000 0.500000
vt 0.000000 0.000000
vt 0.500000 0.000000
vt 0.500000 0.500000
vt 0.000000 0.000000
vt 0.000000 0.500000
vt 0.000000 0.000000
vt 0.500000 0.500000
vt 0.000000 0.500000
vt 0.000000 0.000000
vt 0.500000 0.000000
vt 0.500000 0.500000
vt 0.000000 0.000000
vt 0.500000 0.500000
vt 0.000000 0.500000
vt 0.000000 0.000000
vt 0.500000 0.000000
vt 0.500000 0.500000
vt 0.000000 0.000000
vt 0.500000 0.500000
vt 0.000000 0.500000
vt 0.000000 0.000000
vt 0.000000 0.500000
vt 0.000000 0.000000
vt 0.500000 0.500000
vt 0.000000 0.500000
vt 0.500000 0.500000
vt 0.000000 0.500000
vt 0.500000 0.500000
vt 0.000000 0.500000
vt 0.000000 0.000000
vt 0.500000 0.500000
vt 0.000000 0.500000
vt 0.000000 0.000000
vt 0.000000 0.000000
vt 0.000000 0.500000
vt 0.500000 0.500000
vt 0.000000 0.500000
vt 0.000000 0.000000
vt 0.000000 0.500000
vt 0.500000 0.000000
vt 0.000000 0.500000
vt 0.500000 0.500000
vt 0.500000 0.500000
vt 0.000000 0.500000
vt 0.500000 0.000000
vt 0.000000 0.500000
vt 0.000000 0.000000
vt 0.000000 0.000000
vt 0.500000 0.500000
vt 0.000000 0.500000
vt 0.000000 0.000000
vt 0.500000 0.500000
vt 0.500000 0.500000
vt 0.000000 0.500000
vt 0.000000 0.000000
vt 0.000000 0.500000
vt 0.000000 0.000000
vt 0.000000 0.500000
vt 0.000000 0.000000
vt 0.000000 0.500000
vt 0.000000 0.000000
vt 0.000000 0.500000
vt 0.000000 0.000000
vt 0.500000 0.000000
vt 0.000000 0.500000
vt 0.000000 0.000000
vt 0.500000 0.000000
vt 0.500000 0.000000
vt 0.000000 0.500000
vt 0.000000 0.000000
vt 0.500000 0.000000
vt 0.000000 0.500000
vt 0.000000 0.500000
vt 0.000000 0.000000
vt 0.500000 0.000000
vt 0.000000 0.500000
vt 0.500000 0.000000
vt 0.000000 0.500000
vt 0.000000 0.000000
vt 0.500000 0.000000
vt 0.000000 0.500000
vt 0.000000 0.000000
vt 0.500000 0.000000
vt 0.000000 0.000000
vt 0.000000 0.500000
vt 0.500000 0.500000
vt 0.000000 0.500000
vt 0.500000 0.500000
vt 0.000000 0.500000
vt 0.000000 0.000000
vt 0.500000 0.500000
vt 0.000000 0.000000
vt 0.000000 0.500000
vt 0.000000 0.500000
vt 0.000000 0.000000
vt 0.000000 0.500000
vt 0.000000 0.000000
vt 0.000000 0.500000
vt 0.500000 0.500000
vt 0.000000 0.500000
vt 0.000000 0.500000
vt 0.000000 0.500000
vt 0.500000 0.500000
vt 0.500000 0.500000
vt 0.500000 0.000000
vt 0.500000 0.500000
vt 0.500000 0.000000
vt 0.000000 0.500000
vt 0.000000 0.000000
vt 0.500000 0.000000
vt 0.500000 0.000000
vt 0.500000 0.000000
vt 0.500000 0.500000
vt 0.500000 0.500000
vt 0.500000 0.500000
vt 0.500000 0.500000
vt 0.500000 0.500000
vt 0.500000 0.500000
vt 0.500000 0.500000
vt 0.500000 0.000000
vt 0.500000 0.500000
vt 0.500000 0.000000
vt 0.500000 0.000000
vt 0.500000 0.000000
vt 0.500000 0.000000
vt 0.500000 0.000000
vt 0.500000 0.000000
vt 0.500000 0.500000
vt 0.500000 0.000000
vt 0.500000 0.500000
vt 0.500000 0.500000
vt 0.500000 0.000000
vt 0.500000 0.000000
vt 0.500000 0.000000
vt 0.500000 0.000000
vt 0.500000 0.000000
vt 0.500000 0.000000
vt 0.500000 0.500000
vt 0.500000 0.500000
vt 0.500000 0.500000
vt 0.500000 0.500000
vt 0.500000 0.500000
vt 0.500000 0.500000
vt 0.500000 0.500000
vt 0.500000 0.500000
vt 0.500000 0.500000
vt 0.500000 0.500000
vt 0.500000 0.500000
vt 0.500000 0.000000
vt 0.500000 0.000000
vt 0.500000 0.000000
vt 0.500000 0.000000
vt 0.500000 0.000000
vt 0.500000 0.000000
vt 0.500000 0.000000
vt 0.500000 0.000000
vt 0.500000 0.000000
vt 0.500000 0.000000
vt 0.500000 0.500000
vn 0.0000 1.0000 0.0000
vn -0.1951 0.0000 -0.9808
vn 0.0000 0.0000 -1.0000
vn -0.7071 -0.0000 0.7071
vn -0.9239 -0.0000 0.3827
vn -1.0000 0.0000 0.0000
vn 1.0000 -0.0000 0.0000
vn -0.3827 -0.0000 0.9239
vn 0.9239 -0.0000 0.3827
vn -0.7071 0.0000 -0.7071
vn -0.9239 0.0000 -0.3827
vn -0.0000 -0.0000 1.0000
vn -0.1951 -0.0000 0.9808
vn 0.3827 0.0000 -0.9239
vn 0.1951 0.0000 -0.9808
vn 0.1395 0.7152 -0.6848
vn 0.0000 0.7243 -0.6895
vn 0.1492 0.7171 -0.6808
vn -0.1395 0.7152 0.6848
vn -0.0000 0.7243 0.6895
vn -0.1492 0.7171 0.6808
vn 0.1951 -0.0000 0.9808
vn -0.7543 0.6566 0.0000
vn 0.7543 0.6566 0.0000
vn 0.0000 0.7733 0.6340
vn -0.1376 0.7660 0.6280
vn 0.0000 0.7733 -0.6340
vn 0.1376 0.7660 -0.6280
vn -0.1395 0.7152 -0.6848
vn 0.0000 0.7214 -0.6925
vn -0.3827 0.0000 -0.9239
vn 0.7071 0.0000 -0.7071
vn 0.9239 0.0000 -0.3827
vn 0.7071 -0.0000 0.7071
vn 0.3827 -0.0000 0.9239
vn 0.1395 0.7152 0.6848
vn -0.0000 0.7214 0.6925
vn 0.1376 0.7660 0.6280
vn -0.1376 0.7660 -0.6280
vn -0.1492 0.7171 -0.6808
vn 0.1492 0.7171 0.6808
s 1
f 46/1/1 68/2/1 66/3/1
f 62/4/2 56/5/3 58/6/3
f 22/7/4 23/8/5 21/9/4
f 24/10/5 25/11/6 23/12/5
f 65/13/6 43/14/6 64/15/6
f 34/16/7 66/17/7 68/18/7
f 53/19/1 65/20/1 64/21/1
f 41/22/7 63/23/7 66/3/7
f 20/24/8 21/25/4 19/26/8
f 12/27/9 9/28/7 10/29/7
f 31/30/10 27/31/11 28/32/11
f 20/33/8 17/34/12 18/35/12
f 49/36/12 60/37/13 61/38/12
f 4/39/14 3/40/3 1/41/3
f 30/42/1 31/30/1 28/43/1
f 26/44/6 27/45/11 25/46/6
f 56/47/3 57/48/15 58/49/3
f 34/50/7 35/51/7 36/52/7
f 37/53/1 14/54/1 12/55/1
f 38/56/6 39/57/6 40/58/6
f 41/59/7 79/60/7 80/61/7
f 41/59/7 36/52/7 42/62/7
f 45/63/1 22/64/1 20/65/1
f 53/66/1 28/43/1 26/67/1
f 35/68/16 55/69/17 36/70/18
f 50/71/6 51/72/6 52/73/6
f 8/74/1 46/75/1 10/76/1
f 6/77/1 54/78/1 8/79/1
f 39/80/19 48/81/20 40/82/21
f 43/83/6 40/58/6 44/84/6
f 86/85/1 83/86/1 84/87/1
f 53/66/1 24/88/1 45/89/1
f 62/4/1 1/90/1 33/91/1
f 60/92/1 18/93/1 61/94/1
f 57/95/1 1/90/1 58/6/1
f 74/96/1 55/69/1 52/97/1
f 57/95/1 54/98/1 4/99/1
f 59/100/1 18/93/1 16/101/1
f 47/102/22 61/94/12 59/100/22
f 43/83/6 52/73/6 51/103/6
f 59/100/1 37/104/1 63/23/1
f 62/4/1 30/105/1 67/106/1
f 80/107/7 59/108/7 63/109/7
f 39/57/6 65/20/6 60/92/6
f 72/110/23 85/111/23 87/112/23
f 75/113/24 86/114/24 84/87/24
f 72/110/23 73/115/23 74/116/23
f 69/117/25 85/111/26 81/118/26
f 77/119/27 86/114/28 82/120/28
f 46/121/1 12/55/1 10/76/1
f 50/71/29 55/69/17 56/122/30
f 47/123/7 80/107/7 79/60/7
f 35/51/7 68/2/7 57/95/7
f 51/72/6 62/124/6 67/125/6
f 33/126/31 29/127/10 31/128/10
f 30/129/1 64/15/1 67/125/1
f 6/130/32 2/131/14 4/132/14
f 10/133/7 7/134/33 8/74/33
f 14/54/34 11/135/9 12/136/9
f 63/109/1 46/75/1 66/17/1
f 8/137/33 5/138/32 6/77/32
f 16/139/35 13/140/34 14/141/34
f 1/142/3 32/143/31 33/144/31
f 43/145/6 67/106/6 64/21/6
f 76/146/1 48/81/1 79/147/1
f 60/92/1 45/148/1 20/149/1
f 74/96/1 44/150/1 72/151/1
f 82/152/1 42/153/1 36/70/1
f 81/154/1 44/150/1 40/82/1
f 81/154/1 48/81/1 69/155/1
f 82/152/1 55/69/1 77/156/1
f 83/157/1 85/111/1 71/158/1
f 73/159/1 83/86/1 78/160/1
f 83/157/1 70/161/1 84/87/1
f 47/123/36 48/81/20 49/162/37
f 76/146/1 42/153/1 75/163/1
f 69/117/25 70/161/38 71/158/25
f 77/119/27 73/115/39 78/160/27
f 75/113/24 70/161/24 76/164/24
f 30/42/1 33/126/1 31/165/1
f 37/53/1 16/139/1 14/166/1
f 45/63/1 24/167/1 22/168/1
f 6/77/1 4/39/1 54/98/1
f 18/169/12 15/170/35 16/171/35
f 46/1/1 54/98/1 68/2/1
f 62/4/2 50/172/2 56/5/3
f 22/7/4 24/167/5 23/8/5
f 24/10/5 26/173/6 25/11/6
f 65/13/6 38/174/6 43/14/6
f 34/16/7 41/175/7 66/17/7
f 53/19/1 45/148/1 65/20/1
f 41/22/7 80/176/7 63/23/7
f 20/24/8 22/64/4 21/25/4
f 12/27/9 11/177/9 9/28/7
f 31/30/10 29/178/10 27/31/11
f 20/33/8 19/179/8 17/34/12
f 49/36/12 39/180/13 60/37/13
f 4/39/14 2/181/14 3/40/3
f 26/44/6 28/182/11 27/45/11
f 56/47/3 35/183/15 57/48/15
f 41/59/7 42/184/7 79/60/7
f 41/59/7 34/16/7 36/52/7
f 53/66/1 30/129/1 28/43/1
f 35/68/16 56/47/30 55/69/17
f 8/74/1 54/78/1 46/75/1
f 39/80/19 49/36/37 48/81/20
f 43/83/6 38/174/6 40/58/6
f 86/85/1 78/185/1 83/86/1
f 53/66/1 26/173/1 24/88/1
f 62/4/1 58/186/1 1/90/1
f 60/92/1 20/33/1 18/93/1
f 57/95/1 4/39/1 1/90/1
f 74/96/1 77/187/1 55/69/1
f 57/95/1 68/188/1 54/98/1
f 59/100/1 61/189/1 18/93/1
f 47/102/22 49/190/12 61/94/12
f 43/83/6 44/191/6 52/73/6
f 59/100/1 16/139/1 37/104/1
f 62/4/1 33/126/1 30/105/1
f 80/107/7 47/192/7 59/108/7
f 39/57/6 38/193/6 65/20/6
f 72/110/23 81/194/23 85/111/23
f 75/113/24 82/195/24 86/114/24
f 72/110/23 87/196/23 73/115/23
f 69/117/25 71/197/25 85/111/26
f 77/119/27 78/185/27 86/114/28
f 46/121/1 37/198/1 12/55/1
f 50/71/29 52/199/40 55/69/17
f 35/51/7 34/200/7 68/2/7
f 51/72/6 50/201/6 62/124/6
f 33/126/31 32/202/31 29/127/10
f 30/129/1 53/203/1 64/15/1
f 6/130/32 5/204/32 2/131/14
f 10/133/7 9/205/7 7/134/33
f 14/54/34 13/206/34 11/135/9
f 63/109/1 37/198/1 46/75/1
f 8/137/33 7/207/33 5/138/32
f 16/139/35 15/208/35 13/140/34
f 1/142/3 3/209/3 32/143/31
f 43/145/6 51/210/6 67/106/6
f 76/146/1 69/211/1 48/81/1
f 60/92/1 65/212/1 45/148/1
f 74/96/1 52/199/1 44/150/1
f 82/152/1 75/213/1 42/153/1
f 81/154/1 72/214/1 44/150/1
f 81/154/1 40/215/1 48/81/1
f 82/152/1 36/216/1 55/69/1
f 83/157/1 87/196/1 85/111/1
f 73/159/1 87/196/1 83/86/1
f 83/157/1 71/197/1 70/161/1
f 47/123/36 79/217/41 48/81/20
f 76/146/1 79/217/1 42/153/1
f 69/117/25 76/218/38 70/161/38
f 77/119/27 74/219/39 73/115/39
f 75/113/24 84/220/24 70/161/24
f 18/169/12 17/221/12 15/170/35
