# Blender v2.79 (sub 0) OBJ File: 'cannon0.blend'
# www.blender.org
o Static_Cube.002
v -0.054173 0.065736 -0.026690
v -0.063593 0.000000 -0.500872
v -0.063593 -0.000000 -0.026690
v 0.054173 0.065737 -0.500872
v 0.063593 -0.000000 -0.026690
v 0.063593 0.000000 -0.500872
v -0.054173 0.065737 -0.500872
v 0.000000 0.077167 -0.026690
v 0.000000 0.077167 -0.500872
v 0.054173 0.065736 -0.026690
v -0.051426 -0.000000 -0.026690
v -0.034744 0.044537 0.073171
v -0.041126 -0.000000 0.073171
v 0.000000 0.064857 -0.026690
v 0.034744 0.044537 0.073171
v 0.000000 0.051867 0.073171
v -0.043323 0.052570 0.073171
v 0.043323 0.052570 0.073171
v -0.050857 -0.000000 0.073171
v 0.000000 0.061712 0.073171
v 0.050857 -0.000000 0.073171
v -0.043446 0.055690 -0.026690
v 0.051426 -0.000000 -0.026690
v 0.043446 0.055690 -0.026690
v -0.054173 -0.065737 -0.026690
v 0.054173 -0.065736 -0.500872
v 0.000000 -0.077167 -0.026690
v -0.054173 -0.065736 -0.500872
v 0.000000 -0.077167 -0.500872
v 0.054173 -0.065737 -0.026690
v -0.034744 -0.044537 0.073171
v -0.043446 -0.055690 -0.026690
v 0.000000 -0.064857 -0.026690
v 0.034744 -0.044537 0.073171
v 0.043446 -0.055690 -0.026690
v -0.043323 -0.052571 0.073171
v 0.043323 -0.052571 0.073171
v 0.000000 -0.061712 0.073171
v 0.000000 -0.051868 0.073171
v 0.041126 -0.000000 0.073171
v -0.035239 0.032426 -0.026690
v -0.032439 0.043645 0.259450
v -0.032439 0.043645 -0.026690
v 0.035239 0.032426 -0.026690
v 0.032439 0.043645 0.259450
v 0.035239 0.032426 0.271773
v 0.000000 0.033867 0.283689
v -0.035239 0.032426 0.271773
v 0.000000 0.033867 -0.026690
v 0.000000 0.051141 -0.026690
v 0.032439 0.043645 -0.026690
v 0.000000 0.051141 0.259450
v -0.032439 -0.043645 0.259450
v -0.035239 -0.032426 -0.026690
v -0.032439 -0.043645 -0.026690
v 0.035239 -0.032426 -0.026690
v 0.032439 -0.043645 0.259450
v 0.032439 -0.043645 -0.026690
v 0.000000 -0.033867 0.283689
v 0.000000 -0.051141 0.259450
v 0.035239 -0.032427 0.271773
v -0.035239 -0.032427 0.271773
v 0.000000 -0.033867 -0.026690
v 0.000000 -0.051141 -0.026690
v 0.050849 -0.060244 -0.024475
v -0.050849 0.060243 -0.024475
v -0.050849 -0.060244 -0.024475
v 0.050849 0.060243 -0.024475
v 0.015333 0.026559 0.357652
v 0.030668 -0.000000 -0.055917
v 0.015333 0.026559 -0.055917
v 0.015333 -0.026559 0.357652
v 0.015333 -0.026559 -0.055917
v -0.015333 -0.026559 -0.055917
v -0.015333 -0.026559 0.357652
v -0.030668 -0.000000 -0.055917
v 0.030668 -0.000000 0.357652
v 0.018700 -0.032389 0.388677
v -0.030668 -0.000000 0.357652
v -0.015333 0.026559 -0.055917
v -0.015333 0.026559 0.357652
v -0.023899 -0.000000 0.499128
v 0.000000 0.020697 0.021037
v -0.011950 0.020697 0.499128
v -0.037400 -0.000000 0.388677
v -0.018700 0.032389 0.388677
v -0.018700 0.032389 0.468104
v -0.030668 -0.000000 0.499128
v -0.015333 0.026559 0.499128
v -0.018700 -0.032389 0.388677
v 0.018700 0.032389 0.388677
v 0.018700 0.032389 0.468104
v 0.030668 -0.000000 0.499128
v 0.037400 -0.000000 0.468104
v 0.037400 -0.000000 0.388677
v -0.018700 -0.032390 0.468104
v -0.037400 -0.000000 0.468104
v 0.015333 0.026559 0.499128
v 0.018700 -0.032390 0.468104
v -0.015333 -0.026559 0.499128
v 0.015333 -0.026559 0.499128
v 0.011950 0.020697 0.499128
v 0.011950 -0.020698 0.499128
v 0.023899 -0.000000 0.499128
v -0.011950 -0.020698 0.499128
v 0.017924 -0.010349 0.021037
v -0.017924 -0.010349 0.021037
vt 0.500000 0.000000
vt 0.000000 0.500000
vt 0.000000 0.000000
vt 0.500000 0.000000
vt 0.000000 0.500000
vt 0.000000 0.000000
vt 0.500000 0.000000
vt 0.000000 0.500000
vt 0.000000 0.000000
vt 0.000000 0.000000
vt 0.500000 0.500000
vt 0.000000 0.500000
vt 0.000000 0.000000
vt 0.500000 0.500000
vt 0.000000 0.500000
vt 0.000000 0.000000
vt 0.500000 0.500000
vt 0.000000 0.500000
vt 0.500000 0.500000
vt 0.000000 0.500000
vt 0.000000 0.000000
vt 0.500000 0.500000
vt 0.000000 0.500000
vt 0.000000 0.000000
vt 0.500000 0.500000
vt 0.000000 0.500000
vt 0.000000 0.000000
vt 0.500000 0.500000
vt 0.000000 0.500000
vt 0.000000 0.000000
vt 0.500000 0.500000
vt 0.000000 0.500000
vt 0.500000 0.000000
vt 0.000000 0.500000
vt 0.000000 0.000000
vt 0.000000 0.000000
vt 0.500000 0.500000
vt 0.000000 0.500000
vt 0.000000 0.500000
vt 0.000000 0.000000
vt 0.500000 0.500000
vt 0.000000 0.500000
vt 0.000000 0.000000
vt 0.000000 0.500000
vt 0.500000 0.500000
vt 0.000000 0.500000
vt 0.500000 0.000000
vt 0.000000 0.000000
vt 0.000000 0.000000
vt 0.500000 0.500000
vt 0.000000 0.500000
vt 0.500000 0.000000
vt 0.000000 0.500000
vt 0.500000 0.500000
vt 0.500000 0.000000
vt 0.000000 0.500000
vt 0.000000 0.000000
vt 0.500000 0.500000
vt 0.000000 0.500000
vt 0.000000 0.000000
vt 0.500000 0.500000
vt 0.000000 0.500000
vt 0.000000 0.500000
vt 0.000000 0.000000
vt 0.000000 0.000000
vt 0.500000 0.500000
vt 0.000000 0.000000
vt 0.500000 0.500000
vt 0.000000 0.000000
vt 0.000000 0.000000
vt 0.000000 0.500000
vt 0.000000 0.000000
vt 0.500000 0.500000
vt 0.000000 0.000000
vt 0.500000 0.000000
vt 0.500000 0.500000
vt 0.000000 0.000000
vt 0.500000 0.000000
vt 0.500000 0.500000
vt 0.000000 0.500000
vt 0.000000 0.000000
vt 0.500000 0.500000
vt 0.000000 0.500000
vt 0.000000 0.000000
vt 0.000000 0.500000
vt 0.000000 0.000000
vt 0.500000 0.500000
vt 0.000000 0.500000
vt 0.000000 0.000000
vt 0.500000 0.500000
vt 0.000000 0.500000
vt 0.500000 0.000000
vt 0.000000 0.500000
vt 0.000000 0.000000
vt 0.000000 0.000000
vt 0.500000 0.000000
vt 0.500000 0.500000
vt 0.000000 0.000000
vt 0.500000 0.000000
vt 0.500000 0.500000
vt 0.000000 0.000000
vt 0.500000 0.500000
vt 0.000000 0.500000
vt 0.000000 0.000000
vt 0.500000 0.500000
vt 0.000000 0.500000
vt 0.500000 0.500000
vt 0.000000 0.500000
vt 0.500000 0.000000
vt 0.000000 0.500000
vt 0.000000 0.000000
vt 0.500000 0.500000
vt 0.000000 0.500000
vt 0.000000 0.000000
vt 0.500000 0.500000
vt 0.500000 0.000000
vt 0.000000 0.500000
vt 0.000000 0.000000
vt 0.500000 0.000000
vt 0.500000 0.000000
vt 0.500000 0.500000
vt 0.500000 0.000000
vt 0.500000 0.500000
vt 0.500000 0.000000
vt 0.500000 0.000000
vt 0.000000 0.500000
vt 0.000000 0.000000
vt 0.500000 0.000000
vt 0.000000 0.500000
vt 0.000000 0.000000
vt 0.500000 0.000000
vt 0.000000 0.500000
vt 0.000000 0.000000
vt 0.000000 0.500000
vt 0.000000 0.000000
vt 0.000000 0.000000
vt 0.500000 0.500000
vt 0.000000 0.500000
vt 0.500000 0.500000
vt 0.000000 0.500000
vt 0.000000 0.500000
vt 0.000000 0.000000
vt 0.500000 0.000000
vt 0.000000 0.500000
vt 0.000000 0.000000
vt 0.500000 0.000000
vt 0.000000 0.500000
vt 0.000000 0.000000
vt 0.500000 0.000000
vt 0.000000 0.000000
vt 0.000000 0.000000
vt 0.500000 0.500000
vt 0.000000 0.500000
vt 0.500000 0.000000
vt 0.000000 0.500000
vt 0.500000 0.500000
vt 0.000000 0.500000
vt 0.500000 0.000000
vt 0.000000 0.500000
vt 0.000000 0.000000
vt 0.500000 0.500000
vt 0.000000 0.500000
vt 0.500000 0.500000
vt 0.000000 0.500000
vt 0.500000 0.000000
vt 0.000000 0.500000
vt 0.000000 0.000000
vt 0.500000 0.500000
vt 0.000000 0.500000
vt 0.500000 0.000000
vt 0.500000 0.000000
vt 0.000000 0.500000
vt 0.500000 0.000000
vt 0.000000 0.500000
vt 0.000000 0.000000
vt 0.000000 0.000000
vt 0.000000 0.500000
vt 0.000000 0.500000
vt 0.500000 0.000000
vt 0.500000 0.000000
vt 0.000000 0.000000
vt 0.500000 0.000000
vt 0.000000 0.000000
vt 0.000000 0.500000
vt 0.000000 0.000000
vt 0.000000 0.500000
vt 0.000000 0.500000
vt 0.000000 0.500000
vt 0.000000 0.000000
vt 0.000000 0.000000
vt 0.500000 0.000000
vt 0.500000 0.500000
vt 0.500000 0.000000
vt 0.500000 0.500000
vt 0.500000 0.000000
vt 0.500000 0.500000
vt 0.500000 0.000000
vt 0.500000 0.000000
vt 0.500000 0.500000
vt 0.000000 0.500000
vt 0.500000 0.500000
vt 0.500000 0.500000
vt 0.500000 0.500000
vt 0.500000 0.000000
vt 0.500000 0.000000
vt 0.500000 0.000000
vt 0.500000 0.000000
vt 0.500000 0.000000
vt 0.500000 0.000000
vt 0.500000 0.500000
vt 0.500000 0.000000
vt 0.500000 0.000000
vt 0.500000 0.000000
vt 0.500000 0.000000
vt 0.500000 0.000000
vt 0.500000 0.500000
vt 0.500000 0.000000
vt 0.500000 0.500000
vt 0.500000 0.000000
vt 0.500000 0.000000
vt 0.500000 0.000000
vt 0.500000 0.000000
vt 0.500000 0.000000
vt 0.500000 0.000000
vt 0.500000 0.000000
vt 0.500000 0.000000
vt 0.500000 0.500000
vt 0.500000 0.000000
vt 0.500000 0.500000
vt 0.500000 0.500000
vt 0.500000 0.500000
vt 0.500000 0.500000
vt 0.500000 0.500000
vt 0.500000 0.500000
vt 0.500000 0.000000
vt 0.500000 0.000000
vt 0.500000 0.000000
vt 0.500000 0.000000
vt 0.500000 0.500000
vt 0.500000 0.500000
vt 0.500000 0.000000
vt 0.500000 0.500000
vt 0.500000 0.500000
vn -0.9899 -0.1419 -0.0000
vn -0.9980 0.0000 0.0630
vn -1.0000 -0.0000 0.0000
vn -0.0000 0.9971 0.0759
vn 0.2065 0.9785 0.0000
vn 0.0000 1.0000 0.0000
vn 0.0000 -0.9971 0.0759
vn 0.2065 -0.9785 -0.0000
vn 0.2059 -0.9758 0.0732
vn -0.2065 0.9785 0.0000
vn 0.9980 0.0000 0.0630
vn 0.9821 0.1407 0.1253
vn 0.9920 0.0000 0.1265
vn 0.0000 -0.9916 -0.1290
vn 0.2048 -0.9706 -0.1263
vn 0.9821 -0.1407 0.1253
vn 0.9881 -0.1416 0.0604
vn -0.2041 0.9674 0.1497
vn 0.0000 0.9882 0.1529
vn 0.0000 -0.0000 1.0000
vn -0.2041 -0.9674 0.1497
vn -0.2059 -0.9758 0.0732
vn 0.2041 0.9674 0.1497
vn 0.2059 0.9758 0.0732
vn 0.9947 0.0000 -0.1026
vn 0.9848 0.1411 -0.1016
vn -0.9821 0.1407 0.1253
vn -0.9881 0.1416 0.0604
vn 0.9899 -0.1419 -0.0000
vn 1.0000 -0.0000 0.0000
vn 0.9881 0.1416 0.0604
vn 0.9899 0.1419 0.0000
vn -0.8625 -0.4980 0.0895
vn -0.8625 -0.4980 -0.0895
vn -0.8626 -0.4980 0.0895
vn 0.0000 -1.0000 -0.0000
vn 0.9848 -0.1411 -0.1016
vn -0.2048 -0.9706 -0.1263
vn 0.8625 0.4980 -0.0895
vn 0.8620 0.4977 -0.0958
vn -0.9848 0.1411 -0.1016
vn -0.9947 0.0000 -0.1026
vn 0.2041 -0.9674 0.1497
vn -0.0000 0.9916 -0.1290
vn -0.2048 0.9706 -0.1263
vn -0.9848 -0.1411 -0.1016
vn -0.9821 -0.1407 0.1253
vn -0.9881 -0.1416 0.0604
vn -0.9702 0.2422 0.0000
vn 0.9702 0.2422 0.0000
vn 0.0000 0.8001 0.5998
vn -0.2179 0.7685 0.6016
vn -0.2410 0.7443 0.6228
vn -0.0409 -0.9992 -0.0000
vn -0.8625 0.4980 0.0895
vn -0.8625 0.4980 -0.0895
vn -0.0408 0.9992 0.0000
vn -0.0409 0.9992 0.0000
vn 0.2251 0.9743 0.0000
vn -0.9702 -0.2422 -0.0000
vn 0.9702 -0.2422 -0.0000
vn 0.0000 -0.8002 0.5998
vn 0.2179 -0.7685 0.6016
vn 0.2410 -0.7443 0.6228
vn 0.2179 0.7685 0.6016
vn 0.2410 0.7443 0.6228
vn -0.2179 -0.7685 0.6016
vn 0.0000 -0.8144 0.5803
vn 0.8660 0.5000 0.0000
vn 0.0408 0.9992 0.0000
vn 0.0409 0.9992 0.0000
vn -0.2251 -0.9743 -0.0000
vn -0.8620 0.4977 -0.0958
vn -0.8660 0.5000 0.0000
vn 0.2251 -0.9743 -0.0000
vn -0.2251 0.9743 0.0000
vn 0.8625 0.4980 0.0895
vn 0.8511 0.4914 0.1847
vn 0.8620 -0.4977 -0.0958
vn 0.8660 -0.5000 -0.0000
vn -0.8658 -0.4999 0.0216
vn -0.8620 -0.4977 -0.0958
vn 0.0000 -0.9828 0.1847
vn 0.0000 -0.9960 0.0895
vn 0.0000 0.9954 -0.0958
vn 0.0000 0.9960 -0.0895
vn 0.8625 -0.4980 0.0895
vn 0.8511 -0.4914 0.1847
vn 0.8626 -0.4980 0.0895
vn -0.8511 0.4914 0.1847
vn 0.8625 -0.4980 -0.0895
vn 0.0409 -0.9992 -0.0000
vn 0.0000 -0.9960 -0.0895
vn 0.0000 -0.9954 -0.0958
vn 0.0000 0.9960 0.0895
vn 0.0000 0.9828 0.1847
vn 0.0000 0.9998 0.0216
vn -0.8660 -0.5000 -0.0000
vn -0.8511 -0.4914 0.1847
vn 0.8658 -0.4999 0.0216
vn 0.2048 0.9706 -0.1263
vn -0.2059 0.9758 0.0732
vn 0.0000 -0.9882 0.1529
vn -0.9920 0.0000 0.1265
vn -0.2065 -0.9785 -0.0000
vn 0.0000 0.8144 0.5803
vn -0.2410 -0.7443 0.6228
vn -0.9899 0.1419 0.0000
s 1
f 28/1/1 3/2/2 2/3/3
f 8/4/4 4/5/5 9/6/6
f 27/7/7 26/8/8 30/9/9
f 7/10/10 8/11/4 9/12/6
f 5/13/11 18/14/12 21/15/13
f 14/16/14 12/17/15 22/18/15
f 5/13/11 37/19/16 30/20/17
f 8/21/4 17/22/18 20/23/19
f 34/24/20 21/25/20 40/26/20
f 15/27/20 20/28/20 16/29/20
f 12/30/20 19/31/20 13/32/20
f 98/33/20 84/34/20 102/35/20
f 27/36/7 36/37/21 25/38/22
f 8/21/4 18/14/23 10/39/24
f 11/40/25 31/41/26 32/42/26
f 3/43/2 17/22/27 1/44/28
f 5/13/11 26/45/29 6/46/30
f 10/47/31 6/46/30 4/48/32
f 97/49/33 90/50/34 96/51/35
f 25/52/22 29/53/36 27/36/7
f 11/40/25 12/17/37 13/32/25
f 14/16/14 15/54/38 16/29/14
f 91/55/39 77/56/40 69/57/40
f 34/24/41 23/58/42 35/59/41
f 38/60/20 34/61/20 39/62/20
f 12/30/20 20/28/20 17/63/20
f 19/64/20 31/41/20 13/32/20
f 31/65/20 38/66/20 39/62/20
f 37/67/43 27/68/7 30/20/9
f 33/69/44 34/61/45 35/59/45
f 23/70/42 15/54/46 24/71/46
f 36/72/47 3/73/2 25/38/48
f 41/74/49 42/75/49 43/76/49
f 44/77/50 45/78/50 46/79/50
f 15/27/20 21/25/20 18/80/20
f 47/81/51 42/82/52 48/83/53
f 49/84/36 46/79/54 47/85/36
f 87/86/55 85/87/56 97/88/55
f 63/89/6 61/90/57 56/91/58
f 52/92/6 51/93/59 50/94/6
f 53/95/60 54/96/60 55/97/60
f 56/98/61 57/99/61 58/100/61
f 59/101/62 57/102/63 61/103/64
f 45/104/65 47/105/51 46/106/66
f 59/101/62 53/107/67 60/108/68
f 77/109/40 71/110/69 69/57/40
f 62/111/70 63/112/6 54/113/71
f 1/114/28 2/115/3 3/2/2
f 53/116/72 64/117/36 60/118/36
f 41/74/49 48/119/49 42/82/49
f 44/77/50 51/120/50 45/121/50
f 53/95/60 62/122/60 54/123/60
f 56/98/61 61/124/61 57/102/61
f 81/125/73 76/126/74 79/127/73
f 60/128/36 58/129/75 57/130/75
f 68/131/20 67/132/20 65/133/20
f 42/75/76 50/134/6 43/135/76
f 92/136/77 93/137/78 94/138/77
f 92/136/77 95/139/39 91/140/39
f 77/109/79 73/141/80 70/142/80
f 102/143/81 106/144/81 104/145/81
f 90/146/34 79/147/82 75/148/82
f 101/149/83 96/51/84 99/150/84
f 81/151/85 91/152/86 69/153/85
f 94/154/87 101/155/88 99/150/89
f 87/86/55 88/156/90 89/157/90
f 79/158/73 86/159/56 81/151/73
f 77/160/79 78/161/91 72/162/79
f 49/84/36 48/163/92 41/164/92
f 78/165/93 75/166/94 72/167/94
f 87/86/95 98/168/96 92/169/95
f 75/170/94 73/141/36 72/167/94
f 69/171/85 80/172/6 81/151/85
f 106/173/97 105/174/97 103/175/97
f 94/176/87 78/161/91 95/177/91
f 79/158/82 74/178/98 75/148/82
f 92/179/95 86/159/86 87/86/95
f 100/180/99 97/88/33 96/181/35
f 88/182/20 105/174/20 82/183/20
f 103/175/20 93/137/20 104/184/20
f 84/185/20 88/156/20 82/186/20
f 102/35/20 93/137/20 98/187/20
f 100/180/20 103/188/20 105/189/20
f 106/190/20 83/191/20 107/192/20
f 107/193/100 84/34/100 82/183/100
f 31/65/101 33/194/44 32/42/101
f 102/35/36 84/195/36 83/196/36
f 82/183/69 105/197/69 107/192/69
f 103/175/74 104/198/74 106/199/74
f 90/146/93 99/200/84 96/181/84
f 28/1/1 25/201/48 3/2/2
f 8/4/4 10/202/24 4/5/5
f 27/7/7 29/203/36 26/8/8
f 7/10/10 1/204/102 8/11/4
f 5/13/11 10/47/31 18/14/12
f 14/16/14 16/205/14 12/17/15
f 5/13/11 21/206/13 37/19/16
f 8/21/4 1/204/102 17/22/18
f 34/24/20 37/207/20 21/25/20
f 15/27/20 18/208/20 20/28/20
f 12/30/20 17/209/20 19/31/20
f 98/33/20 89/210/20 84/34/20
f 27/36/7 38/211/103 36/37/21
f 8/21/4 20/212/19 18/14/23
f 11/40/25 13/213/25 31/41/26
f 3/43/2 19/214/104 17/22/27
f 5/13/11 30/215/17 26/45/29
f 10/47/31 5/216/11 6/46/30
f 97/49/33 85/217/34 90/50/34
f 25/52/22 28/218/105 29/53/36
f 11/40/25 22/219/37 12/17/37
f 14/16/14 24/220/38 15/54/38
f 91/55/39 95/139/39 77/56/40
f 34/24/41 40/221/42 23/58/42
f 38/60/20 37/207/20 34/61/20
f 12/30/20 16/205/20 20/28/20
f 19/64/20 36/222/20 31/41/20
f 31/65/20 36/222/20 38/66/20
f 37/67/43 38/211/103 27/68/7
f 33/69/44 39/223/44 34/61/45
f 23/70/42 40/221/42 15/54/46
f 36/72/47 19/214/104 3/73/2
f 15/27/20 40/221/20 21/25/20
f 47/81/51 52/92/106 42/82/52
f 49/84/36 44/224/54 46/79/54
f 87/86/55 86/225/56 85/87/56
f 63/89/6 59/226/6 61/90/57
f 52/92/6 45/121/59 51/93/59
f 59/101/62 60/128/68 57/102/63
f 45/104/65 52/92/106 47/105/51
f 59/101/62 62/122/107 53/107/67
f 77/109/40 70/227/69 71/110/69
f 62/111/70 59/226/6 63/112/6
f 1/114/28 7/228/108 2/115/3
f 53/116/72 55/97/72 64/117/36
f 81/125/73 80/229/74 76/126/74
f 60/128/36 64/230/36 58/129/75
f 68/131/20 66/231/20 67/132/20
f 42/75/76 52/232/6 50/134/6
f 92/136/77 98/33/78 93/137/78
f 92/136/77 94/154/77 95/139/39
f 77/109/79 72/233/79 73/141/80
f 102/143/81 83/196/81 106/144/81
f 90/146/34 85/87/34 79/147/82
f 101/149/83 100/234/83 96/51/84
f 81/151/85 86/225/86 91/152/86
f 94/154/87 93/137/88 101/155/88
f 87/86/55 97/235/55 88/156/90
f 79/158/73 85/87/56 86/159/56
f 77/160/79 95/236/91 78/161/91
f 49/84/36 47/237/36 48/163/92
f 78/165/93 90/50/93 75/166/94
f 87/86/95 89/238/96 98/168/96
f 75/170/94 74/239/36 73/141/36
f 69/171/85 71/240/6 80/172/6
f 106/173/97 107/192/97 105/174/97
f 94/176/87 99/241/89 78/161/91
f 79/158/82 76/242/98 74/178/98
f 92/179/95 91/152/86 86/159/86
f 100/180/99 88/156/99 97/88/33
f 88/182/20 100/234/20 105/174/20
f 103/175/20 101/149/20 93/137/20
f 84/185/20 89/238/20 88/156/20
f 102/35/20 104/198/20 93/137/20
f 100/180/20 101/243/20 103/188/20
f 107/193/100 83/196/100 84/34/100
f 31/65/101 39/223/44 33/194/44
f 90/146/93 78/161/93 99/200/84
