# Blender v2.79 (sub 0) OBJ File: 'cannon7.blend'
# www.blender.org
o Cylinder.001_Cylinder.003
v 0.000000 0.910321 -0.701922
v -0.088640 1.019669 -0.881938
v 0.000000 0.968494 -0.881938
v -0.139018 0.990583 -0.701922
v -0.088640 1.122023 -0.881938
v 0.000000 1.231371 -0.701922
v 0.000000 1.173198 -0.881938
v -0.084090 1.119393 -0.178971
v 0.000000 1.167942 1.464500
v 0.000000 1.167942 -0.178971
v -0.139018 1.151109 -0.701922
v 0.000000 1.231371 -0.598289
v 0.139018 1.151109 -0.701922
v 0.088640 1.019669 -0.881938
v 0.088640 1.122023 -0.881938
v 0.000000 1.148831 -0.881938
v -0.067537 1.109839 -0.916222
v -0.067537 1.109839 -0.881938
v 0.139018 0.990583 -0.701922
v -0.118715 1.002305 -0.178971
v -0.139018 1.151109 -0.225483
v -0.139018 0.990583 -0.225483
v 0.000000 0.933765 -0.178971
v 0.000000 0.910321 -0.225483
v 0.118715 1.002305 -0.178971
v 0.139018 0.990583 -0.225483
v 0.118715 1.139387 -0.178971
v 0.139018 1.151109 -0.225483
v 0.000000 1.207927 -0.178971
v 0.000000 1.231371 -0.225483
v -0.139018 0.990583 -0.456871
v 0.000000 0.910321 -0.456871
v 0.139018 1.151109 -0.598289
v 0.000000 1.231371 -0.456871
v -0.139018 1.151109 -0.456871
v 0.139018 1.151109 -0.456871
v 0.139018 0.990583 -0.598289
v 0.084090 1.119396 -0.178971
v 0.084090 1.022298 -0.178971
v 0.000000 0.973750 -0.178971
v -0.084090 1.022298 -0.178971
v -0.118715 1.139387 -0.178971
v 0.000000 1.149603 1.500218
v -0.068206 1.110225 1.500218
v 0.000000 1.149601 0.309979
v 0.084090 1.022298 1.464500
v 0.000000 0.973749 1.464500
v -0.084090 1.022298 1.464500
v -0.084090 1.119393 1.464500
v 0.084090 1.119396 1.464500
v 0.068206 1.110225 1.500218
v 0.000000 0.992088 1.500218
v 0.068206 1.031466 1.500218
v -0.068206 1.031466 1.500218
v 0.068206 1.031466 0.309979
v -0.068206 1.031466 0.309979
v 0.067537 1.109839 -0.881938
v 0.067537 1.031853 -0.881938
v 0.000000 0.992861 -0.881938
v -0.067537 1.031853 -0.881938
v 0.067537 1.031853 -0.916222
v 0.000000 0.992862 -0.916222
v 0.067537 1.109839 -0.916222
v -0.067537 1.031853 -0.916222
v 0.000000 1.148831 -0.916222
v 0.139018 0.990583 -0.456871
v 0.000000 0.910321 -0.598289
v 0.129376 1.145542 -0.461774
v 0.000000 1.220236 -0.593383
v 0.000000 1.220236 -0.461774
v 0.129376 0.996150 -0.593383
v -0.129376 0.996150 -0.461774
v 0.129376 1.145542 -0.593383
v -0.139018 0.990583 -0.598289
v -0.129376 1.145542 -0.593383
v -0.139018 1.151109 -0.598289
v 0.000000 0.921456 -0.461774
v 0.129376 0.996150 -0.461774
v 0.000000 0.921456 -0.593383
v -0.129376 1.145542 -0.461774
v -0.129376 0.996150 -0.593383
v 0.209933 1.070847 -0.592260
v 0.000000 1.013602 -0.561356
v 0.000000 1.070847 -0.592260
v 0.209933 1.013602 -0.561356
v 0.000000 1.013602 -0.499550
v 0.209933 1.013602 -0.499550
v 0.000000 1.070847 -0.468649
v 0.209933 1.070847 -0.468649
v 0.000000 1.128090 -0.499550
v 0.209933 1.128090 -0.499550
v 0.000000 1.128090 -0.561356
v 0.209933 1.128090 -0.561356
v -0.209933 1.070847 -0.592260
v -0.209933 1.013602 -0.561356
v -0.209933 1.013602 -0.499550
v -0.209933 1.070847 -0.468649
v -0.209933 1.128090 -0.499550
v -0.209933 1.128090 -0.561356
vt 0.000000 0.000000
vt 0.500000 0.500000
vt 0.000000 0.500000
vt 0.000000 0.000000
vt 0.500000 0.500000
vt 0.000000 0.500000
vt 0.000000 0.000000
vt 0.500000 0.500000
vt 0.000000 0.500000
vt 0.500000 0.000000
vt 0.000000 0.500000
vt 0.000000 0.000000
vt 0.500000 0.000000
vt 0.000000 0.500000
vt 0.000000 0.000000
vt 0.000000 0.000000
vt 0.500000 0.500000
vt 0.000000 0.500000
vt 0.500000 0.000000
vt 0.000000 0.500000
vt 0.000000 0.000000
vt 0.500000 0.000000
vt 0.000000 0.500000
vt 0.000000 0.000000
vt 0.000000 0.000000
vt 0.500000 0.500000
vt 0.000000 0.500000
vt 0.500000 0.000000
vt 0.000000 0.500000
vt 0.000000 0.000000
vt 0.500000 0.000000
vt 0.000000 0.500000
vt 0.000000 0.000000
vt 0.000000 0.000000
vt 0.500000 0.500000
vt 0.000000 0.500000
vt 0.000000 0.000000
vt 0.500000 0.500000
vt 0.000000 0.000000
vt 0.500000 0.500000
vt 0.000000 0.500000
vt 0.000000 0.000000
vt 0.500000 0.500000
vt 0.000000 0.500000
vt 0.500000 0.000000
vt 0.000000 0.500000
vt 0.000000 0.000000
vt 0.500000 0.000000
vt 0.000000 0.500000
vt 0.000000 0.000000
vt 0.500000 0.000000
vt 0.000000 0.500000
vt 0.000000 0.000000
vt 0.500000 0.000000
vt 0.000000 0.500000
vt 0.000000 0.000000
vt 0.000000 0.000000
vt 0.500000 0.500000
vt 0.000000 0.500000
vt 0.000000 0.000000
vt 0.000000 0.500000
vt 0.000000 0.500000
vt 0.000000 0.000000
vt 0.500000 0.000000
vt 0.000000 0.500000
vt 0.000000 0.000000
vt 0.000000 0.000000
vt 0.500000 0.500000
vt 0.000000 0.500000
vt 0.000000 0.000000
vt 0.000000 0.500000
vt 0.500000 0.500000
vt 0.000000 0.500000
vt 0.500000 0.000000
vt 0.000000 0.000000
vt 0.500000 0.000000
vt 0.000000 0.500000
vt 0.000000 0.000000
vt 0.500000 0.000000
vt 0.000000 0.500000
vt 0.000000 0.000000
vt 0.500000 0.500000
vt 0.000000 0.500000
vt 0.000000 0.000000
vt 0.500000 0.500000
vt 0.000000 0.500000
vt 0.000000 0.000000
vt 0.500000 0.500000
vt 0.000000 0.500000
vt 0.500000 0.500000
vt 0.000000 0.500000
vt 0.000000 0.500000
vt 0.000000 0.000000
vt 0.500000 0.000000
vt 0.000000 0.500000
vt 0.000000 0.000000
vt 0.000000 0.000000
vt 0.500000 0.500000
vt 0.000000 0.500000
vt 0.500000 0.000000
vt 0.000000 0.500000
vt 0.000000 0.000000
vt 0.500000 0.000000
vt 0.500000 0.500000
vt 0.000000 0.000000
vt 0.500000 0.500000
vt 0.500000 0.500000
vt 0.000000 0.500000
vt 0.000000 0.000000
vt 0.000000 0.500000
vt 0.000000 0.000000
vt 0.500000 0.500000
vt 0.000000 0.000000
vt 0.000000 0.500000
vt 0.500000 0.000000
vt 0.000000 0.500000
vt 0.000000 0.000000
vt 0.500000 0.000000
vt 0.000000 0.500000
vt 0.000000 0.000000
vt 0.500000 0.500000
vt 0.500000 0.000000
vt 0.000000 0.500000
vt 0.500000 0.000000
vt 0.500000 0.000000
vt 0.000000 0.500000
vt 0.500000 0.000000
vt 0.000000 0.500000
vt 0.000000 0.000000
vt 0.500000 0.000000
vt 0.000000 0.000000
vt 0.500000 0.000000
vt 0.000000 0.000000
vt 0.000000 0.500000
vt 0.000000 0.000000
vt 0.500000 0.500000
vt 0.000000 0.500000
vt 0.500000 0.000000
vt 0.000000 0.500000
vt 0.500000 0.000000
vt 0.000000 0.500000
vt 0.000000 0.000000
vt 0.500000 0.000000
vt 0.000000 0.500000
vt 0.000000 0.000000
vt 0.000000 0.000000
vt 0.500000 0.500000
vt 0.500000 0.000000
vt 0.000000 0.500000
vt 0.000000 0.000000
vt 0.000000 0.000000
vt 0.500000 0.500000
vt 0.000000 0.000000
vt 0.000000 0.500000
vt 0.500000 0.000000
vt 0.000000 0.500000
vt 0.000000 0.000000
vt 0.500000 0.500000
vt 0.000000 0.500000
vt 0.500000 0.000000
vt 0.000000 0.500000
vt 0.000000 0.000000
vt 0.500000 0.000000
vt 0.000000 0.500000
vt 0.000000 0.000000
vt 0.500000 0.000000
vt 0.000000 0.500000
vt 0.500000 0.000000
vt 0.000000 0.000000
vt 0.500000 0.000000
vt 0.000000 0.000000
vt 0.500000 0.000000
vt 0.000000 0.000000
vt 0.500000 0.500000
vt 0.500000 0.000000
vt 0.000000 0.000000
vt 0.500000 0.000000
vt 0.000000 0.000000
vt 0.000000 0.000000
vt 0.500000 0.500000
vt 0.000000 0.500000
vt 0.000000 0.500000
vt 0.500000 0.000000
vt 0.000000 0.500000
vt 0.500000 0.000000
vt 0.000000 0.000000
vt 0.500000 0.000000
vt 0.000000 0.000000
vt 0.500000 0.000000
vt 0.000000 0.000000
vt 0.500000 0.000000
vt 0.500000 0.000000
vt 0.000000 0.000000
vt 0.500000 0.000000
vt 0.000000 0.000000
vt 0.000000 0.000000
vt 0.000000 0.500000
vt 0.500000 0.000000
vt 0.000000 0.500000
vt 0.500000 0.500000
vt 0.500000 0.000000
vt 0.000000 0.000000
vt 0.500000 0.000000
vt 0.500000 0.000000
vt 0.500000 0.000000
vt 0.000000 0.000000
vt 0.500000 0.500000
vt 0.000000 0.000000
vt 0.500000 0.000000
vt 0.500000 0.500000
vt 0.500000 0.000000
vt 0.000000 0.000000
vt 0.500000 0.000000
vt 0.500000 0.000000
vt 0.500000 0.000000
vt 0.500000 0.500000
vt 0.500000 0.500000
vt 0.500000 0.500000
vt 0.500000 0.500000
vt 0.500000 0.000000
vt 0.500000 0.500000
vt 0.500000 0.500000
vt 0.500000 0.000000
vt 0.500000 0.000000
vt 0.500000 0.000000
vt 0.500000 0.500000
vt 0.500000 0.500000
vt 0.500000 0.500000
vt 0.500000 0.500000
vt 0.500000 0.000000
vt 0.500000 0.500000
vt 0.500000 0.500000
vt 0.500000 0.000000
vt 0.500000 0.000000
vt 0.500000 0.500000
vt 0.500000 0.500000
vt 0.500000 0.500000
vt 0.500000 0.000000
vt 0.500000 0.000000
vt 0.500000 0.000000
vt 0.500000 0.000000
vt 0.500000 0.000000
vt 0.500000 0.000000
vt 0.500000 0.500000
vt 0.500000 0.500000
vt 0.500000 0.500000
vt 0.500000 0.500000
vt 0.500000 0.500000
vt 0.500000 0.500000
vt 0.500000 0.500000
vt 0.500000 0.000000
vt 0.500000 0.500000
vt 0.500000 0.000000
vt 0.500000 0.500000
vt 0.500000 0.500000
vt 0.500000 0.500000
vt 0.500000 0.500000
vt 0.500000 0.500000
vt 0.500000 0.000000
vt 0.500000 0.500000
vt 0.500000 0.500000
vt 0.500000 0.000000
vt 0.500000 0.000000
vt 0.500000 0.500000
vt 0.500000 0.500000
vt 0.500000 0.500000
vt 0.500000 0.500000
vt 0.500000 0.500000
vt 0.500000 0.500000
vn 0.4582 0.7937 0.4001
vn 0.4910 0.8505 0.1884
vn 0.4815 0.8340 -0.2695
vn 0.4958 0.8588 -0.1290
vn 0.4958 -0.8588 -0.1290
vn 0.4815 -0.8340 -0.2695
vn -0.9821 -0.0000 0.1884
vn -1.0000 -0.0000 0.0000
vn 0.0000 -0.4750 0.8800
vn -0.9916 0.0000 -0.1290
vn -0.9630 0.0000 -0.2695
vn 1.0000 0.0000 0.0000
vn 0.9916 0.0000 -0.1290
vn -0.4958 -0.8588 -0.1290
vn -0.4815 -0.8340 -0.2695
vn 0.9165 -0.0000 0.4001
vn 0.9821 -0.0000 0.1884
vn 0.4582 -0.7937 0.4001
vn 0.4910 -0.8505 0.1884
vn -0.9165 -0.0000 0.4001
vn -0.9137 -0.0000 0.4063
vn -0.9815 -0.0000 0.1912
vn -0.4910 0.8505 0.1884
vn -0.4582 0.7937 0.4001
vn 0.5000 0.8660 0.0000
vn 0.5000 -0.8660 0.0000
vn -0.5000 0.8660 0.0000
vn -0.4958 0.8588 -0.1290
vn -0.4815 0.8340 -0.2695
vn -0.4582 -0.7937 0.4001
vn -0.4910 -0.8505 0.1884
vn -0.0000 0.0000 -1.0000
vn -0.0000 -0.0000 1.0000
vn 0.3492 0.2016 0.9151
vn -0.0000 0.4032 0.9151
vn 0.9630 0.0000 -0.2695
vn 0.0000 -1.0000 0.0000
vn 0.4908 0.8501 0.1912
vn -0.4569 -0.7913 0.4063
vn -0.4908 -0.8500 0.1912
vn -0.4908 0.8500 0.1912
vn -0.4569 0.7913 0.4063
vn 0.4908 -0.8500 0.1912
vn 0.4569 -0.7913 0.4063
vn 0.9137 -0.0000 0.4063
vn 0.9815 -0.0000 0.1912
vn 0.4568 0.7913 0.4063
vn 0.4569 0.7913 0.4063
vn -0.8655 -0.4997 0.0331
vn -0.5000 -0.8660 0.0000
vn 0.0000 -0.4750 -0.8800
vn -0.4908 0.8501 0.1912
vn 0.0000 0.4750 0.8800
vn 0.0000 1.0000 0.0000
vn 0.3490 -0.2015 -0.9152
vn 0.3490 0.2015 -0.9152
vn -0.0000 -0.4030 -0.9152
vn -0.3492 0.2016 0.9151
vn 0.3492 -0.2016 0.9151
vn -0.3492 -0.2016 0.9151
vn 0.0000 0.4751 -0.8800
vn -0.0000 0.4030 -0.9152
vn -0.3490 0.2015 -0.9152
vn -0.3490 -0.2015 -0.9152
vn -0.0000 -0.4032 0.9151
vn 0.4907 0.8501 0.1912
vn 0.8655 -0.4997 0.0331
vn 0.0000 0.9995 0.0331
s 1
f 29/1/1 28/2/2 30/3/2
f 7/4/3 13/5/4 15/6/3
f 19/7/5 3/8/6 14/9/6
f 21/10/7 31/11/8 22/12/7
f 89/13/9 86/14/9 87/15/9
f 4/16/10 5/17/11 2/18/11
f 37/19/12 13/20/13 33/21/12
f 4/22/14 3/23/15 1/24/14
f 27/25/16 26/26/17 28/27/17
f 23/28/18 26/29/19 25/30/18
f 42/31/20 22/32/7 20/33/20
f 54/34/21 49/35/22 48/36/22
f 21/37/23 29/38/24 30/3/23
f 30/39/2 36/40/25 34/41/25
f 28/42/17 66/43/12 36/44/12
f 67/45/26 19/46/5 37/47/26
f 76/48/27 6/49/28 11/50/28
f 63/51/25 16/52/25 57/53/25
f 11/54/28 7/55/29 5/56/29
f 23/57/30 22/58/31 24/59/31
f 58/60/32 3/8/32 59/61/32
f 42/31/33 41/62/33 8/63/33
f 20/64/33 40/65/33 41/66/33
f 10/67/33 42/68/33 8/69/33
f 38/70/33 29/38/33 10/71/33
f 33/21/34 69/72/35 73/73/34
f 19/74/13 15/6/36 13/75/13
f 87/76/37 83/77/37 85/78/37
f 9/79/38 38/80/25 10/67/25
f 78/81/26 79/82/26 71/83/26
f 80/84/8 81/85/8 72/86/8
f 63/87/32 62/88/32 17/89/32
f 54/34/39 47/90/40 52/91/39
f 9/79/41 44/92/42 43/93/42
f 47/94/43 53/95/44 52/96/44
f 51/97/45 46/98/46 50/99/46
f 51/100/47 9/101/38 43/93/48
f 55/102/33 45/103/33 56/104/33
f 53/105/8 51/100/8 55/106/8
f 51/97/49 45/107/49 55/108/49
f 44/109/26 45/107/26 43/110/26
f 18/111/32 7/112/32 16/52/32
f 60/113/32 5/17/32 18/114/32
f 3/115/32 60/116/32 59/117/32
f 15/118/32 58/119/32 57/53/32
f 57/53/32 7/112/32 15/6/32
f 39/120/33 27/121/33 38/80/33
f 52/122/25 56/123/25 54/34/25
f 62/124/26 58/119/26 59/117/26
f 60/113/50 62/88/50 59/61/50
f 50/125/46 39/126/12 38/70/12
f 95/127/51 84/128/51 83/129/51
f 96/130/37 83/77/37 86/131/37
f 49/132/52 10/71/27 8/63/27
f 68/133/25 69/72/25 70/134/25
f 67/135/50 4/136/14 1/137/14
f 30/138/23 35/139/27 21/37/23
f 91/140/53 88/141/53 89/142/53
f 93/143/54 90/144/54 91/145/54
f 66/146/55 68/147/56 36/44/56
f 77/148/57 66/149/55 32/150/57
f 40/151/33 25/152/33 39/126/33
f 76/153/58 69/72/35 12/154/35
f 73/155/34 37/156/59 33/21/34
f 74/157/60 75/158/58 76/159/58
f 69/160/27 80/161/27 70/162/27
f 94/163/61 92/164/61 84/165/61
f 74/166/8 11/167/10 4/16/10
f 85/168/51 84/128/51 82/169/51
f 24/170/19 66/149/26 26/171/19
f 17/172/8 60/116/8 18/111/8
f 36/173/56 70/174/62 34/41/62
f 80/175/63 31/11/64 35/176/63
f 70/177/62 35/139/63 34/178/62
f 31/179/64 77/180/57 32/181/57
f 37/47/59 79/82/65 67/182/65
f 79/183/65 74/184/60 67/135/65
f 22/185/31 32/181/50 24/186/31
f 97/187/9 86/14/9 88/188/9
f 33/189/25 6/49/4 12/190/25
f 46/191/43 40/65/26 39/120/26
f 65/192/27 18/114/27 16/193/27
f 99/194/54 90/144/54 92/195/54
f 72/196/50 79/82/50 77/197/50
f 61/198/12 57/199/12 58/60/12
f 68/133/12 71/200/12 73/73/12
f 47/94/40 41/62/50 40/151/50
f 98/201/53 88/141/53 90/202/53
f 48/203/22 8/69/8 41/66/8
f 52/96/27 53/204/27 55/106/27
f 44/109/12 54/205/12 56/104/12
f 17/206/32 65/192/32 63/207/32
f 62/208/32 64/209/32 17/210/32
f 82/211/61 92/164/61 93/212/61
f 29/1/1 27/213/1 28/2/2
f 7/4/3 6/214/4 13/5/4
f 19/7/5 1/215/5 3/8/6
f 21/10/7 35/216/8 31/11/8
f 89/13/9 88/217/9 86/14/9
f 4/16/10 11/54/10 5/17/11
f 37/19/12 19/218/13 13/20/13
f 4/22/14 2/219/15 3/23/15
f 27/25/16 25/220/16 26/26/17
f 23/28/18 24/221/19 26/29/19
f 42/31/20 21/222/7 22/32/7
f 54/34/21 44/223/21 49/35/22
f 21/37/23 42/31/24 29/38/24
f 30/39/2 28/224/2 36/40/25
f 28/42/17 26/225/17 66/43/12
f 67/45/26 1/226/5 19/46/5
f 76/48/27 12/227/27 6/49/28
f 63/51/25 65/228/25 16/52/25
f 11/54/28 6/229/28 7/55/29
f 23/57/30 20/64/30 22/58/31
f 58/60/32 14/230/32 3/8/32
f 42/31/33 20/231/33 41/62/33
f 20/64/33 23/232/33 40/65/33
f 10/67/33 29/233/33 42/68/33
f 38/70/33 27/213/33 29/38/33
f 33/21/34 12/234/35 69/72/35
f 19/74/13 14/235/36 15/6/36
f 87/76/37 86/236/37 83/77/37
f 9/79/38 50/237/66 38/80/25
f 78/81/26 77/148/26 79/82/26
f 80/84/8 75/238/8 81/85/8
f 63/87/32 61/198/32 62/88/32
f 54/34/39 48/203/40 47/90/40
f 9/79/41 49/35/52 44/92/42
f 47/94/43 46/98/43 53/95/44
f 51/97/45 53/204/45 46/98/46
f 51/100/47 50/237/66 9/101/38
f 51/97/50 43/239/50 45/107/50
f 44/109/67 56/240/67 45/107/67
f 18/111/32 5/241/32 7/112/32
f 60/113/32 2/242/32 5/17/32
f 3/115/32 2/219/32 60/116/32
f 15/118/32 14/235/32 58/119/32
f 57/53/32 16/243/32 7/112/32
f 39/120/33 25/220/33 27/121/33
f 52/122/68 55/106/68 56/123/68
f 62/124/26 61/244/26 58/119/26
f 60/113/50 64/209/50 62/88/50
f 50/125/46 46/98/46 39/126/12
f 95/127/51 94/245/51 84/128/51
f 96/130/37 95/246/37 83/77/37
f 49/132/52 9/247/41 10/71/27
f 68/133/25 73/155/25 69/72/25
f 67/135/50 74/166/50 4/136/14
f 30/138/23 34/248/27 35/139/27
f 91/140/53 90/249/53 88/141/53
f 93/143/54 92/250/54 90/144/54
f 66/146/55 78/251/55 68/147/56
f 77/148/57 78/252/55 66/149/55
f 40/151/33 23/28/33 25/152/33
f 76/153/58 75/238/58 69/72/35
f 73/155/34 71/200/59 37/156/59
f 74/157/60 81/253/60 75/158/58
f 69/160/27 75/158/27 80/161/27
f 94/163/61 99/254/61 92/164/61
f 74/166/8 76/255/8 11/167/10
f 85/168/51 83/256/51 84/128/51
f 24/170/19 32/257/26 66/149/26
f 17/172/8 64/258/8 60/116/8
f 36/173/56 68/259/56 70/174/62
f 80/175/63 72/260/64 31/11/64
f 70/177/62 80/261/63 35/139/63
f 31/179/64 72/262/64 77/180/57
f 37/47/59 71/263/59 79/82/65
f 79/183/65 81/85/60 74/184/60
f 22/185/31 31/264/50 32/181/50
f 97/187/9 96/265/9 86/14/9
f 33/189/25 13/5/4 6/49/4
f 46/191/43 47/90/43 40/65/26
f 65/192/27 17/210/27 18/114/27
f 99/194/54 98/266/54 90/144/54
f 72/196/50 81/253/50 79/82/50
f 61/198/12 63/207/12 57/199/12
f 68/133/12 78/251/12 71/200/12
f 47/94/40 48/267/40 41/62/50
f 98/201/53 97/268/53 88/141/53
f 48/203/22 49/35/22 8/69/8
f 82/211/61 84/269/61 92/164/61
