# Blender v2.79 (sub 0) OBJ File: 'cannon6.blend'
# www.blender.org
o Cylinder.001
v 0.000000 0.637156 -0.500000
v 0.250001 0.000752 -0.433014
v 0.000000 0.000752 -0.500000
v 0.250001 0.637156 -0.433014
v 0.433014 0.000752 -0.250001
v 0.433014 0.637156 -0.250001
v 0.500000 0.000752 -0.000000
v 0.500000 0.637156 0.000000
v 0.433014 0.000752 0.250001
v 0.433014 0.637156 0.250001
v 0.250001 0.000752 0.433014
v 0.250001 0.637156 0.433014
v 0.000000 0.000752 0.500000
v 0.000000 0.637156 0.500000
v -0.250001 0.000752 0.433014
v -0.250001 0.637156 0.433014
v -0.433012 0.000752 0.250001
v -0.433012 0.637156 0.250001
v -0.500000 0.000752 -0.000000
v -0.500000 0.637156 0.000000
v -0.433014 0.000752 -0.250001
v -0.320584 0.747248 -0.185088
v 0.000000 0.747248 0.370179
v 0.320584 0.747248 -0.185090
v -0.433014 0.637156 -0.250001
v -0.250001 0.000752 -0.433012
v -0.250001 0.637156 -0.433012
v 0.185089 0.747248 -0.320584
v 0.000000 0.747248 -0.370179
v 0.370179 0.747248 0.000000
v 0.320584 0.747248 0.185090
v 0.185090 0.747248 0.320584
v -0.320584 0.747248 0.185090
v -0.185089 0.747248 0.320584
v -0.370179 0.747248 0.000000
v -0.185090 0.747248 -0.320584
vt 0.500000 0.000000
vt 0.000000 0.500000
vt 0.000000 0.000000
vt 0.500000 0.000000
vt 0.000000 0.500000
vt 0.000000 0.000000
vt 0.500000 0.000000
vt 0.000000 0.500000
vt 0.000000 0.000000
vt 0.500000 0.000000
vt 0.000000 0.500000
vt 0.000000 0.000000
vt 0.500000 0.000000
vt 0.000000 0.500000
vt 0.000000 0.000000
vt 0.500000 0.000000
vt 0.000000 0.500000
vt 0.000000 0.000000
vt 0.500000 0.000000
vt 0.000000 0.500000
vt 0.000000 0.000000
vt 0.500000 0.000000
vt 0.000000 0.500000
vt 0.000000 0.000000
vt 0.500000 0.000000
vt 0.000000 0.500000
vt 0.000000 0.000000
vt 0.500000 0.000000
vt 0.000000 0.500000
vt 0.000000 0.000000
vt 0.500000 0.000000
vt 0.000000 0.500000
vt 0.000000 0.000000
vt 0.500000 0.000000
vt 0.000000 0.500000
vt 0.000000 0.000000
vt 0.000000 0.500000
vt 0.000000 0.000000
vt 0.000000 0.500000
vt 0.000000 0.000000
vt 0.000000 0.500000
vt 0.000000 0.000000
vt 0.500000 0.000000
vt 0.000000 0.500000
vt 0.000000 0.000000
vt 0.500000 0.500000
vt 0.000000 0.500000
vt 0.000000 0.000000
vt 0.500000 0.500000
vt 0.000000 0.500000
vt 0.000000 0.000000
vt 0.500000 0.500000
vt 0.000000 0.500000
vt 0.000000 0.500000
vt 0.000000 0.000000
vt 0.500000 0.000000
vt 0.000000 0.500000
vt 0.000000 0.000000
vt 0.500000 0.500000
vt 0.000000 0.500000
vt 0.000000 0.000000
vt 0.500000 0.500000
vt 0.000000 0.500000
vt 0.375000 0.033494
vt 0.125000 0.033494
vt 0.125000 0.466506
vt 0.000000 0.500000
vt 0.000000 0.000000
vt 0.500000 0.500000
vt 0.500000 0.500000
vt 0.500000 0.500000
vt 0.500000 0.500000
vt 0.500000 0.500000
vt 0.500000 0.500000
vt 0.500000 0.500000
vt 0.500000 0.500000
vt 0.500000 0.500000
vt 0.500000 0.500000
vt 0.500000 0.500000
vt 0.500000 0.500000
vt 0.500000 0.500000
vt 0.500000 0.500000
vt 0.500000 0.500000
vt 0.500000 0.500000
vt 0.250000 0.500000
vt 0.375000 0.466506
vt 0.466506 0.375000
vt 0.500000 0.250000
vt 0.466506 0.125000
vt 0.250000 0.000000
vt 0.033494 0.125000
vt 0.000000 0.250000
vt 0.033494 0.375000
vt 0.500000 0.500000
vn -0.2588 -0.0000 0.9659
vn 0.0000 -0.0000 1.0000
vn 0.2588 -0.0000 0.9659
vn -0.8660 -0.0000 0.5000
vn -0.7071 -0.0000 0.7071
vn -0.0000 0.0000 -1.0000
vn -0.5000 0.0000 -0.8660
vn 0.7071 0.0000 -0.7071
vn -0.6468 0.7627 0.0000
vn -0.5601 0.7627 0.3234
vn -0.9659 -0.0000 -0.2588
vn -1.0000 0.0000 0.0000
vn -0.7071 0.0000 -0.7071
vn 0.9659 0.0000 0.2588
vn 1.0000 0.0000 0.0000
vn 0.7071 -0.0000 0.7071
vn 0.2588 0.0000 -0.9659
vn 0.9659 -0.0000 -0.2588
vn 0.3234 0.7627 0.5601
vn 0.5601 0.7627 0.3234
vn -0.0000 0.7627 0.6468
vn 0.6468 0.7627 0.0000
vn 0.5601 0.7627 -0.3234
vn -0.5601 0.7627 -0.3234
vn -0.3234 0.7627 0.5601
vn 0.3234 0.7627 -0.5601
vn -0.0000 0.7627 -0.6468
vn -0.3234 0.7627 -0.5601
vn -0.0000 1.0000 0.0000
s 1
f 16/1/1 13/2/2 14/3/2
f 14/4/2 11/5/3 12/6/3
f 18/7/4 15/8/5 16/9/5
f 1/10/6 26/11/7 27/12/7
f 6/13/8 2/14/8 4/15/8
f 20/16/9 33/17/10 35/18/9
f 25/19/11 19/20/12 20/21/12
f 27/22/7 21/23/13 25/24/13
f 10/25/14 7/26/15 8/27/15
f 12/28/16 9/29/16 10/30/16
f 4/31/17 3/32/6 1/33/6
f 8/34/15 5/35/18 6/36/18
f 12/28/19 31/37/20 32/38/19
f 14/4/21 32/39/19 23/40/21
f 8/34/22 24/41/23 30/42/22
f 22/43/24 20/44/9 35/18/9
f 33/45/10 16/46/25 34/47/25
f 28/48/26 1/49/27 29/50/27
f 36/51/28 25/52/24 22/53/24
f 1/10/27 36/54/28 29/55/27
f 34/56/25 14/57/21 23/40/21
f 24/58/23 4/59/26 28/60/26
f 31/61/20 8/62/22 30/63/22
f 34/64/29 32/65/29 28/66/29
f 20/16/12 17/67/4 18/68/4
f 16/1/1 15/69/1 13/2/2
f 14/4/2 13/70/2 11/5/3
f 18/7/4 17/71/4 15/8/5
f 1/10/6 3/72/6 26/11/7
f 6/13/8 5/73/8 2/14/8
f 20/16/9 18/74/10 33/17/10
f 25/19/11 21/75/11 19/20/12
f 27/22/7 26/76/7 21/23/13
f 10/25/14 9/77/14 7/26/15
f 12/28/16 11/78/16 9/29/16
f 4/31/17 2/79/17 3/32/6
f 8/34/15 7/80/15 5/35/18
f 12/28/19 10/81/20 31/37/20
f 14/4/21 12/82/19 32/39/19
f 8/34/22 6/83/23 24/41/23
f 22/43/24 25/52/24 20/44/9
f 33/45/10 18/7/10 16/46/25
f 28/48/26 4/31/26 1/49/27
f 36/51/28 27/22/28 25/52/24
f 1/10/27 27/84/28 36/54/28
f 34/56/25 16/46/25 14/57/21
f 24/58/23 6/13/23 4/59/26
f 31/61/20 10/25/20 8/62/22
f 28/66/29 29/85/29 36/86/29
f 36/86/29 22/87/29 28/66/29
f 35/88/29 33/89/29 34/64/29
f 34/64/29 23/90/29 32/65/29
f 32/65/29 31/91/29 30/92/29
f 30/92/29 24/93/29 28/66/29
f 28/66/29 22/87/29 35/88/29
f 35/88/29 34/64/29 28/66/29
f 32/65/29 30/92/29 28/66/29
f 20/16/12 19/94/12 17/67/4
