# Blender v2.79 (sub 0) OBJ File: 'cannon7.blend'
# www.blender.org
o Cube_Cube.002
v 0.356787 0.708717 0.500000
v -0.356787 -0.002277 0.500000
v 0.356787 -0.002277 0.500000
v 0.500000 0.708717 -0.356787
v 0.500000 -0.002277 0.356787
v 0.500000 -0.002277 -0.356787
v -0.500000 0.708717 -0.356787
v -0.356787 0.708717 0.500000
v 0.500000 0.708717 0.356787
v -0.500000 0.708717 0.356787
v -0.500000 -0.002277 -0.356787
v -0.500000 -0.002277 0.356787
v -0.356787 0.708717 -0.500000
v 0.356787 -0.002277 -0.500000
v -0.356787 -0.002277 -0.500000
v 0.356787 0.708717 -0.500000
vt 0.500000 0.000000
vt 0.000000 0.500000
vt 0.000000 0.000000
vt 0.500000 0.000000
vt 0.000000 0.500000
vt 0.000000 0.000000
vt 0.500000 0.000000
vt 0.000000 0.500000
vt 0.000000 0.000000
vt 0.500000 0.000000
vt 0.000000 0.500000
vt 0.000000 0.000000
vt 0.500000 0.000000
vt 0.000000 0.500000
vt 0.000000 0.000000
vt 0.500000 0.000000
vt 0.000000 0.500000
vt 0.000000 0.000000
vt 0.500000 0.000000
vt 0.000000 0.500000
vt 0.000000 0.000000
vt 0.426777 0.073223
vt 0.073223 0.073223
vt 0.073223 0.426777
vt 0.500000 0.000000
vt 0.000000 0.500000
vt 0.000000 0.000000
vt 0.500000 0.500000
vt 0.500000 0.500000
vt 0.500000 0.500000
vt 0.500000 0.500000
vt 0.500000 0.500000
vt 0.500000 0.500000
vt 0.500000 0.500000
vt 0.250000 0.500000
vt 0.426777 0.426777
vt 0.500000 0.250000
vt 0.250000 0.000000
vt 0.000000 0.250000
vt 0.500000 0.500000
vn 0.0000 0.0000 -1.0000
vn -0.7071 -0.0000 0.7071
vn 0.7071 0.0000 -0.7071
vn -1.0000 0.0000 0.0000
vn 0.7071 -0.0000 0.7071
vn 0.0000 -0.0000 1.0000
vn 1.0000 0.0000 0.0000
vn -0.0000 1.0000 0.0000
vn -0.7071 0.0000 -0.7071
s 1
f 16/1/1 15/2/1 13/3/1
f 10/4/2 2/5/2 8/6/2
f 14/7/3 4/8/3 6/9/3
f 7/10/4 12/11/4 10/12/4
f 5/13/5 1/14/5 3/15/5
f 8/16/6 3/17/6 1/18/6
f 9/19/7 6/20/7 4/21/7
f 4/22/8 13/23/8 10/24/8
f 11/25/9 13/26/9 15/27/9
f 16/1/1 14/28/1 15/2/1
f 10/4/2 12/29/2 2/5/2
f 14/7/3 16/30/3 4/8/3
f 7/10/4 11/31/4 12/11/4
f 5/13/5 9/32/5 1/14/5
f 8/16/6 2/33/6 3/17/6
f 9/19/7 5/34/7 6/20/7
f 10/24/8 8/35/8 1/36/8
f 1/36/8 9/37/8 4/22/8
f 4/22/8 16/38/8 13/23/8
f 13/23/8 7/39/8 10/24/8
f 10/24/8 1/36/8 4/22/8
f 11/25/9 7/40/9 13/26/9
