# Blender v2.79 (sub 0) OBJ File: 'gun0.blend'
# www.blender.org
o Cube
v -0.058540 -0.058540 -0.165571
v -0.058540 0.058540 -0.165571
v -0.064181 0.025589 -0.500906
v -0.084489 0.095051 -0.500906
v 0.058540 -0.058540 -0.165571
v 0.058540 0.058540 -0.165571
v 0.064181 0.025589 -0.500906
v 0.084489 0.095051 -0.500906
v -0.065857 0.000000 -0.165571
v 0.065857 0.000000 -0.165571
v -0.095051 0.000000 -0.165571
v -0.084489 0.095051 -0.165571
v 0.095051 0.000000 -0.165571
v 0.084489 -0.084489 -0.165571
v -0.084489 -0.084489 -0.165571
v 0.084489 0.095051 -0.165571
v -0.084489 -0.084489 -0.390876
v 0.028577 0.000000 0.063076
v -0.047217 0.000000 0.063076
v -0.025402 0.025402 0.063076
v 0.025402 -0.025402 0.063076
v -0.025402 -0.025402 0.063076
v 0.025402 0.025402 0.063076
v -0.028577 0.000000 0.063076
v -0.041971 0.041971 0.063076
v 0.047217 0.000000 0.063076
v 0.041971 -0.041971 0.063076
v -0.041971 -0.041971 0.063076
v 0.041971 0.041971 0.063076
v 0.014288 0.000000 0.499094
v -0.014288 0.000000 0.499094
v -0.012701 0.012701 0.499094
v 0.012701 -0.012701 0.499094
v -0.012701 -0.012701 0.499094
v 0.012701 0.012701 0.499094
v -0.084489 -0.084489 -0.278224
v -0.084489 0.095051 -0.278224
v -0.084489 0.095051 -0.390876
v 0.084489 -0.084489 -0.278224
v 0.084489 -0.084489 -0.390876
v 0.084489 0.095051 -0.390876
v 0.084489 0.095051 -0.278224
v 0.095051 0.000000 -0.390876
v 0.095051 0.000000 -0.278224
v -0.095051 0.000000 -0.278224
v -0.095051 0.000000 -0.390876
vt 0.000000 0.000000
vt 0.500000 0.000000
vt 0.500000 0.500000
vt 0.500000 0.000000
vt 0.000000 0.500000
vt 0.000000 0.000000
vt 0.500000 0.000000
vt 0.000000 0.500000
vt 0.000000 0.000000
vt 0.500000 0.000000
vt 0.000000 0.500000
vt 0.000000 0.000000
vt 0.500000 0.000000
vt 0.000000 0.500000
vt 0.000000 0.000000
vt 0.500000 0.000000
vt 0.000000 0.500000
vt 0.000000 0.000000
vt 0.000000 0.000000
vt 0.500000 0.500000
vt 0.000000 0.500000
vt 0.500000 0.000000
vt 0.000000 0.000000
vt 0.500000 0.000000
vt 0.000000 0.500000
vt 0.500000 0.000000
vt 0.000000 0.000000
vt 0.500000 0.000000
vt 0.000000 0.000000
vt 0.500000 0.000000
vt 0.000000 0.500000
vt 0.500000 0.000000
vt 0.000000 0.000000
vt 0.500000 0.000000
vt 0.000000 0.500000
vt 0.500000 0.000000
vt 0.000000 0.500000
vt 0.000000 0.000000
vt 0.000000 0.000000
vt 0.500000 0.500000
vt 0.000000 0.000000
vt 0.500000 0.500000
vt 0.000000 0.500000
vt 0.000000 0.500000
vt 0.000000 0.000000
vt 0.000000 0.000000
vt 0.500000 0.500000
vt 0.000000 0.500000
vt 0.500000 0.000000
vt 0.000000 0.500000
vt 0.500000 0.500000
vt 0.000000 0.500000
vt 0.500000 0.500000
vt 0.000000 0.500000
vt 0.500000 0.000000
vt 0.000000 0.500000
vt 0.500000 0.000000
vt 0.500000 0.000000
vt 0.000000 0.000000
vt 0.500000 0.000000
vt 0.500000 0.000000
vt 0.000000 0.000000
vt 0.000000 0.000000
vt 0.500000 0.500000
vt 0.000000 0.000000
vt 0.500000 0.500000
vt 0.000000 0.500000
vt 0.000000 0.500000
vt 0.500000 0.000000
vt 0.500000 0.500000
vt 0.000000 0.500000
vt 0.500000 0.000000
vt 0.000000 0.500000
vt 0.500000 0.000000
vt 0.000000 0.500000
vt 0.000000 0.000000
vt 0.500000 0.000000
vt 0.000000 0.500000
vt 0.000000 0.000000
vt 0.500000 0.500000
vt 0.000000 0.500000
vt 0.500000 0.000000
vt 0.000000 0.500000
vt 0.000000 0.000000
vt 0.500000 0.000000
vt 0.000000 0.500000
vt 0.000000 0.000000
vt 0.500000 0.000000
vt 0.000000 0.000000
vt 0.500000 0.000000
vt 0.500000 0.000000
vt 0.000000 0.500000
vt 0.000000 0.000000
vt 0.500000 0.000000
vt 0.000000 0.500000
vt 0.000000 0.000000
vt 0.500000 0.000000
vt 0.000000 0.500000
vt 0.000000 0.000000
vt 0.000000 0.000000
vt 0.500000 0.500000
vt 0.500000 0.500000
vt 0.500000 0.500000
vt 0.500000 0.500000
vt 0.500000 0.500000
vt 0.500000 0.500000
vt 0.500000 0.500000
vt 0.500000 0.500000
vt 0.500000 0.500000
vt 0.500000 0.500000
vt 0.500000 0.500000
vt 0.500000 0.500000
vt 0.500000 0.500000
vt 0.500000 0.500000
vt 0.500000 0.500000
vt 0.500000 0.500000
vt 0.500000 0.500000
vt 0.500000 0.500000
vn -0.9929 -0.0442 -0.1104
vn -0.9939 0.1104 0.0000
vn -0.9773 -0.1047 -0.1842
vn 0.0000 0.9974 0.0723
vn 0.9939 0.1104 0.0000
vn 1.0000 -0.0068 0.0000
vn 0.0000 0.0000 1.0000
vn 0.0000 0.0000 -1.0000
vn 0.0000 -1.0000 0.0000
vn -0.9967 0.0000 0.0813
vn -0.9890 -0.1236 0.0806
vn 0.9967 0.0000 0.0813
vn 0.9890 -0.1236 0.0806
vn 0.9923 -0.1240 0.0000
vn -0.9218 -0.2301 -0.3121
vn -0.9871 -0.1234 -0.1020
vn 0.0000 0.9996 0.0291
vn 0.0000 1.0000 0.0000
vn -0.9995 0.0000 0.0328
vn -0.9918 -0.1240 0.0325
vn 0.9995 0.0000 0.0328
vn 0.9918 -0.1240 0.0325
vn 0.0000 -0.9974 0.0723
vn 0.9890 0.1236 0.0806
vn -0.9890 0.1236 0.0806
vn 0.0000 -0.9996 0.0291
vn 0.9918 0.1240 0.0325
vn -0.9918 0.1240 0.0325
vn -1.0000 -0.0068 0.0000
vn -0.9923 -0.1240 0.0000
vn 0.9218 -0.2301 -0.3121
vn 0.9929 -0.0442 -0.1104
vn 0.9871 -0.1234 -0.1020
vn 0.0000 -0.7069 -0.7073
vn 0.9773 -0.1047 -0.1842
s 1
f 46/1/1 38/2/2 4/3/3
f 25/4/4 6/5/4 2/6/4
f 42/7/5 13/8/6 44/9/6
f 22/10/7 27/11/7 21/12/7
f 8/13/8 3/14/8 4/15/8
f 39/16/9 15/17/9 36/18/9
f 9/19/10 28/20/11 19/21/10
f 10/22/12 27/11/13 5/23/13
f 1/24/7 14/25/7 5/23/7
f 44/26/6 14/25/14 39/27/14
f 46/28/1 3/14/15 17/29/16
f 2/30/7 11/31/7 9/19/7
f 5/32/7 13/8/7 10/33/7
f 6/34/7 12/35/7 2/6/7
f 32/36/17 23/37/17 20/38/17
f 1/39/7 11/40/7 15/17/7
f 6/41/7 13/42/7 16/43/7
f 38/2/18 42/44/18 41/45/18
f 24/46/19 34/47/20 31/48/19
f 18/49/21 33/50/22 21/12/22
f 1/39/23 27/51/23 28/52/23
f 10/33/12 29/53/24 26/54/12
f 9/55/10 25/56/25 2/6/25
f 20/57/7 19/21/7 24/46/7
f 21/58/7 26/54/7 18/59/7
f 23/60/7 25/56/7 20/38/7
f 31/61/7 33/50/7 30/62/7
f 22/63/7 19/64/7 28/52/7
f 23/65/7 26/66/7 29/67/7
f 21/58/26 34/68/26 22/63/26
f 35/69/7 31/48/7 30/62/7
f 18/59/21 35/70/27 30/71/21
f 24/72/19 32/73/28 20/38/28
f 11/74/29 36/75/30 15/76/30
f 45/77/29 17/78/16 36/18/30
f 7/79/31 43/80/32 40/81/33
f 43/82/32 39/83/14 40/84/33
f 4/85/18 41/86/18 8/87/18
f 7/88/34 17/78/34 3/89/34
f 40/90/9 36/75/9 17/29/9
f 8/87/35 41/91/5 43/80/32
f 41/91/5 44/92/6 43/93/32
f 12/94/2 45/95/29 11/96/29
f 37/97/2 46/98/1 45/99/29
f 37/97/18 16/43/18 42/100/18
f 25/4/4 29/53/4 6/5/4
f 42/7/5 16/101/5 13/8/6
f 22/10/7 28/20/7 27/11/7
f 8/13/8 7/102/8 3/14/8
f 39/16/9 14/103/9 15/17/9
f 9/19/10 1/24/11 28/20/11
f 10/22/12 26/66/12 27/11/13
f 1/24/7 15/104/7 14/25/7
f 44/26/6 13/42/6 14/25/14
f 46/28/1 4/3/3 3/14/15
f 2/30/7 12/105/7 11/31/7
f 5/32/7 14/103/7 13/8/7
f 6/34/7 16/101/7 12/35/7
f 32/36/17 35/70/17 23/37/17
f 1/39/7 9/55/7 11/40/7
f 6/41/7 10/22/7 13/42/7
f 38/2/18 37/106/18 42/44/18
f 24/46/19 22/10/20 34/47/20
f 18/49/21 30/107/21 33/50/22
f 1/39/23 5/32/23 27/51/23
f 10/33/12 6/34/24 29/53/24
f 9/55/10 19/64/10 25/56/25
f 20/57/7 25/108/7 19/21/7
f 21/58/7 27/51/7 26/54/7
f 23/60/7 29/53/7 25/56/7
f 31/61/7 34/47/7 33/50/7
f 22/63/7 24/72/7 19/64/7
f 23/65/7 18/49/7 26/66/7
f 21/58/26 33/109/26 34/68/26
f 35/69/7 32/110/7 31/48/7
f 18/59/21 23/60/27 35/70/27
f 24/72/19 31/111/19 32/73/28
f 11/74/29 45/112/29 36/75/30
f 45/77/29 46/113/1 17/78/16
f 7/79/31 8/13/35 43/80/32
f 43/82/32 44/114/6 39/83/14
f 4/85/18 38/115/18 41/86/18
f 7/88/34 40/116/34 17/78/34
f 40/90/9 39/117/9 36/75/9
f 41/91/5 42/118/5 44/92/6
f 12/94/2 37/106/2 45/95/29
f 37/97/2 38/115/2 46/98/1
f 37/97/18 12/105/18 16/43/18
