# Blender v2.79 (sub 0) OBJ File: 'gun2.blend'
# www.blender.org
o Cube
v -0.048725 -0.048725 -0.090793
v -0.048725 0.048725 -0.090793
v -0.048725 -0.048725 -0.501259
v -0.048725 0.048725 -0.501259
v 0.048725 -0.048725 -0.090793
v 0.048725 0.048725 -0.090793
v 0.048725 -0.048725 -0.501259
v 0.048725 0.048725 -0.501259
v 0.000000 -0.060906 -0.501259
v 0.000000 0.060906 -0.501259
v 0.000000 -0.060906 -0.090793
v 0.000000 0.060906 -0.090793
v -0.060906 0.000000 -0.090793
v -0.060906 -0.000000 -0.501259
v 0.060906 -0.000000 -0.501259
v 0.060906 0.000000 -0.090793
v 0.000000 -0.000000 -0.501259
v -0.030453 0.000000 -0.090793
v -0.024362 0.024362 -0.090793
v 0.030453 0.000000 -0.090793
v 0.024362 -0.024362 -0.090793
v 0.000000 -0.030453 -0.090793
v 0.000000 0.030453 -0.090793
v -0.024362 -0.024362 -0.090793
v 0.024362 0.024362 -0.090793
v -0.024424 0.000000 0.498741
v -0.019539 0.019539 0.498741
v 0.024424 0.000000 0.498741
v 0.019539 -0.019539 0.498741
v 0.000000 -0.024424 0.498741
v 0.000000 0.024424 0.498741
v -0.019539 -0.019539 0.498741
v 0.019539 0.019539 0.498741
v -0.024362 0.024362 0.296598
v -0.024362 0.024362 0.468644
v -0.035034 0.000000 0.459819
v -0.030453 0.000000 0.296598
v -0.024362 -0.024362 0.296598
v -0.024362 -0.024362 0.468644
v 0.000000 -0.035034 0.459819
v 0.000000 -0.030453 0.296598
v 0.000000 0.030453 0.296598
v 0.000000 0.030453 0.468644
v 0.028027 0.028027 0.459819
v 0.024362 0.024362 0.296598
v 0.030453 0.000000 0.296598
v 0.030453 0.000000 0.468644
v 0.028027 -0.028027 0.459819
v 0.024362 -0.024362 0.296598
v -0.028027 -0.028027 0.459819
v -0.030453 0.000000 0.468644
v -0.035034 0.000000 0.305423
v -0.028027 -0.028027 0.305423
v 0.035034 0.000000 0.459819
v 0.024362 -0.024362 0.468644
v 0.028027 -0.028027 0.305423
v 0.035034 0.000000 0.305423
v 0.000000 -0.030453 0.468644
v 0.000000 -0.035034 0.305423
v 0.000000 0.035034 0.459819
v 0.024362 0.024362 0.468644
v 0.028027 0.028027 0.305423
v 0.000000 0.035034 0.305423
v -0.028027 0.028027 0.459819
v -0.028027 0.028027 0.305423
v -0.028778 -0.025025 0.456724
v -0.034283 -0.003002 0.456724
v -0.034283 -0.003002 0.308518
v -0.028778 -0.025025 0.308518
v 0.034283 -0.003002 0.456724
v 0.028778 -0.025025 0.456724
v 0.028778 -0.025025 0.308518
v 0.034283 -0.003002 0.308518
v 0.025025 -0.028778 0.456724
v 0.003002 -0.034283 0.456724
v 0.003002 -0.034283 0.308518
v 0.025025 -0.028778 0.308518
v 0.003002 0.034283 0.456724
v 0.025025 0.028778 0.456724
v 0.025025 0.028778 0.308518
v 0.003002 0.034283 0.308518
v -0.025025 0.028778 0.456724
v -0.003002 0.034283 0.456724
v -0.003002 0.034283 0.308518
v -0.025025 0.028778 0.308518
v 0.028778 0.025025 0.456724
v 0.034283 0.003002 0.456724
v 0.034283 0.003002 0.308518
v 0.028778 0.025025 0.308518
v -0.003002 -0.034283 0.456724
v -0.025025 -0.028778 0.456724
v -0.025025 -0.028778 0.308518
v -0.003002 -0.034283 0.308518
v -0.034283 0.003002 0.456724
v -0.028778 0.025025 0.456724
v -0.028778 0.025025 0.308518
v -0.034283 0.003002 0.308518
v -0.024708 -0.024007 0.456724
v -0.030214 -0.001985 0.456724
v -0.024708 -0.024007 0.308518
v -0.030214 -0.001985 0.308518
v 0.030214 -0.001985 0.456724
v 0.024708 -0.024007 0.456724
v 0.030214 -0.001985 0.308518
v 0.024708 -0.024007 0.308518
v 0.024007 -0.024708 0.456724
v 0.001985 -0.030214 0.456724
v 0.024007 -0.024708 0.308518
v 0.001985 -0.030214 0.308518
v 0.001985 0.030214 0.456724
v 0.024007 0.024708 0.456724
v 0.001985 0.030214 0.308518
v 0.024007 0.024708 0.308518
v -0.024007 0.024708 0.456724
v -0.001985 0.030214 0.456724
v -0.024007 0.024708 0.308518
v -0.001985 0.030214 0.308518
v 0.024708 0.024007 0.456724
v 0.030214 0.001985 0.456724
v 0.024708 0.024007 0.308518
v 0.030214 0.001985 0.308518
v -0.001985 -0.030214 0.456724
v -0.024007 -0.024708 0.456724
v -0.001985 -0.030214 0.308518
v -0.024007 -0.024708 0.308518
v -0.030214 0.001985 0.456724
v -0.024708 0.024007 0.456724
v -0.030214 0.001985 0.308518
v -0.024708 0.024007 0.308518
v -0.030453 0.000000 0.498741
v -0.024362 0.024362 0.498741
v 0.030453 0.000000 0.498741
v 0.024362 -0.024362 0.498741
v 0.000000 -0.030453 0.498741
v 0.000000 0.030453 0.498741
v -0.024362 -0.024362 0.498741
v 0.024362 0.024362 0.498741
v 0.000000 0.000000 0.248741
v 0.000000 -0.024424 0.248741
v 0.000000 0.024424 0.248741
v 0.024424 0.000000 0.248741
v -0.024424 0.000000 0.248741
v -0.019539 0.019539 0.248741
v 0.019539 -0.019539 0.248741
v -0.019539 -0.019539 0.248741
v 0.019539 0.019539 0.248741
vt 0.000000 0.000000
vt 0.500000 0.500000
vt 0.000000 0.500000
vt 0.000000 0.000000
vt 0.500000 0.500000
vt 0.000000 0.500000
vt 0.500000 0.000000
vt 0.000000 0.500000
vt 0.000000 0.000000
vt 0.000000 0.000000
vt 0.500000 0.500000
vt 0.000000 0.500000
vt 0.500000 0.000000
vt 0.000000 0.500000
vt 0.000000 0.000000
vt 0.500000 0.000000
vt 0.000000 0.500000
vt 0.000000 0.000000
vt 0.500000 0.000000
vt 0.000000 0.500000
vt 0.000000 0.000000
vt 0.500000 0.000000
vt 0.000000 0.500000
vt 0.000000 0.000000
vt 0.500000 0.000000
vt 0.000000 0.500000
vt 0.000000 0.000000
vt 0.000000 0.500000
vt 0.000000 0.000000
vt 0.500000 0.500000
vt 0.000000 0.500000
vt 0.500000 0.000000
vt 0.000000 0.500000
vt 0.000000 0.000000
vt 0.500000 0.000000
vt 0.000000 0.500000
vt 0.000000 0.000000
vt 0.500000 0.000000
vt 0.000000 0.500000
vt 0.000000 0.000000
vt 0.500000 0.000000
vt 0.000000 0.500000
vt 0.000000 0.500000
vt 0.500000 0.000000
vt 0.000000 0.500000
vt 0.000000 0.000000
vt 0.500000 0.000000
vt 0.000000 0.500000
vt 0.000000 0.000000
vt 0.500000 0.000000
vt 0.000000 0.500000
vt 0.000000 0.000000
vt 0.500000 0.000000
vt 0.000000 0.500000
vt 0.000000 0.000000
vt 0.000000 0.000000
vt 0.500000 0.500000
vt 0.000000 0.500000
vt 0.500000 0.000000
vt 0.000000 0.500000
vt 0.000000 0.000000
vt 0.000000 0.000000
vt 0.500000 0.500000
vt 0.000000 0.500000
vt 0.500000 0.500000
vt 0.000000 0.500000
vt 0.500000 0.000000
vt 0.000000 0.500000
vt 0.000000 0.000000
vt 0.500000 0.000000
vt 0.000000 0.500000
vt 0.000000 0.000000
vt 0.500000 0.000000
vt 0.000000 0.500000
vt 0.000000 0.000000
vt 0.500000 0.000000
vt 0.000000 0.500000
vt 0.000000 0.000000
vt 0.500000 0.000000
vt 0.000000 0.500000
vt 0.000000 0.000000
vt 0.500000 0.000000
vt 0.000000 0.500000
vt 0.000000 0.000000
vt 0.500000 0.000000
vt 0.000000 0.500000
vt 0.000000 0.000000
vt 0.500000 0.000000
vt 0.000000 0.500000
vt 0.000000 0.000000
vt 0.500000 0.000000
vt 0.000000 0.500000
vt 0.000000 0.000000
vt 0.500000 0.000000
vt 0.000000 0.500000
vt 0.000000 0.000000
vt 0.500000 0.000000
vt 0.000000 0.500000
vt 0.000000 0.000000
vt 0.500000 0.000000
vt 0.000000 0.500000
vt 0.000000 0.000000
vt 0.500000 0.000000
vt 0.000000 0.500000
vt 0.000000 0.000000
vt 0.500000 0.000000
vt 0.000000 0.500000
vt 0.000000 0.000000
vt 0.500000 0.000000
vt 0.000000 0.500000
vt 0.000000 0.000000
vt 0.500000 0.000000
vt 0.000000 0.500000
vt 0.000000 0.000000
vt 0.500000 0.000000
vt 0.000000 0.500000
vt 0.000000 0.000000
vt 0.500000 0.000000
vt 0.000000 0.500000
vt 0.000000 0.000000
vt 0.500000 0.000000
vt 0.000000 0.500000
vt 0.000000 0.000000
vt 0.500000 0.000000
vt 0.000000 0.500000
vt 0.000000 0.000000
vt 0.500000 0.000000
vt 0.000000 0.500000
vt 0.000000 0.000000
vt 0.500000 0.000000
vt 0.000000 0.500000
vt 0.000000 0.000000
vt 0.500000 0.000000
vt 0.000000 0.500000
vt 0.000000 0.000000
vt 0.500000 0.000000
vt 0.000000 0.500000
vt 0.000000 0.000000
vt 0.000000 0.000000
vt 0.500000 0.500000
vt 0.000000 0.500000
vt 0.500000 0.000000
vt 0.000000 0.000000
vt 0.500000 0.000000
vt 0.000000 0.500000
vt 0.000000 0.000000
vt 0.000000 0.000000
vt 0.500000 0.500000
vt 0.000000 0.000000
vt 0.500000 0.500000
vt 0.000000 0.500000
vt 0.500000 0.000000
vt 0.000000 0.000000
vt 0.500000 0.000000
vt 0.000000 0.500000
vt 0.000000 0.000000
vt 0.000000 0.000000
vt 0.500000 0.500000
vt 0.000000 0.000000
vt 0.500000 0.500000
vt 0.000000 0.500000
vt 0.500000 0.000000
vt 0.000000 0.000000
vt 0.000000 0.000000
vt 0.500000 0.500000
vt 0.000000 0.500000
vt 0.500000 0.000000
vt 0.000000 0.000000
vt 0.500000 0.000000
vt 0.000000 0.500000
vt 0.000000 0.000000
vt 0.000000 0.000000
vt 0.500000 0.500000
vt 0.500000 0.000000
vt 0.000000 0.500000
vt 0.000000 0.000000
vt 0.000000 0.000000
vt 0.500000 0.500000
vt 0.000000 0.500000
vt 0.000000 0.500000
vt 0.500000 0.000000
vt 0.000000 0.500000
vt 0.500000 0.000000
vt 0.000000 0.500000
vt 0.500000 0.000000
vt 0.000000 0.500000
vt 0.500000 0.000000
vt 0.000000 0.500000
vt 0.000000 0.500000
vt 0.000000 0.500000
vt 0.000000 0.500000
vt 0.000000 0.500000
vt 0.000000 0.500000
vt 0.000000 0.500000
vt 0.500000 0.000000
vt 0.000000 0.500000
vt 0.500000 0.000000
vt 0.000000 0.500000
vt 0.000000 0.500000
vt 0.000000 0.500000
vt 0.000000 0.500000
vt 0.000000 0.500000
vt 0.500000 0.000000
vt 0.000000 0.500000
vt 0.500000 0.000000
vt 0.000000 0.500000
vt 0.000000 0.500000
vt 0.000000 0.500000
vt 0.000000 0.500000
vt 0.000000 0.500000
vt 0.000000 0.500000
vt 0.000000 0.500000
vt 0.000000 0.500000
vt 0.000000 0.500000
vt 0.000000 0.500000
vt 0.000000 0.500000
vt 0.000000 0.500000
vt 0.000000 0.500000
vt 0.500000 0.000000
vt 0.000000 0.500000
vt 0.000000 0.000000
vt 0.500000 0.000000
vt 0.000000 0.000000
vt 0.500000 0.000000
vt 0.000000 0.500000
vt 0.000000 0.000000
vt 0.500000 0.000000
vt 0.000000 0.500000
vt 0.000000 0.000000
vt 0.500000 0.000000
vt 0.000000 0.000000
vt 0.500000 0.000000
vt 0.000000 0.500000
vt 0.000000 0.000000
vt 0.500000 0.000000
vt 0.000000 0.500000
vt 0.000000 0.000000
vt 0.500000 0.000000
vt 0.000000 0.000000
vt 0.500000 0.000000
vt 0.000000 0.500000
vt 0.000000 0.000000
vt 0.500000 0.000000
vt 0.000000 0.500000
vt 0.000000 0.000000
vt 0.500000 0.000000
vt 0.000000 0.500000
vt 0.000000 0.000000
vt 0.500000 0.000000
vt 0.000000 0.500000
vt 0.000000 0.000000
vt 0.500000 0.000000
vt 0.000000 0.000000
vt 0.500000 0.000000
vt 0.000000 0.000000
vt 0.500000 0.000000
vt 0.000000 0.500000
vt 0.000000 0.000000
vt 0.500000 0.000000
vt 0.000000 0.500000
vt 0.000000 0.000000
vt 0.500000 0.000000
vt 0.000000 0.500000
vt 0.000000 0.000000
vt 0.500000 0.000000
vt 0.000000 0.500000
vt 0.000000 0.000000
vt 0.500000 0.000000
vt 0.000000 0.500000
vt 0.000000 0.000000
vt 0.500000 0.000000
vt 0.000000 0.500000
vt 0.000000 0.000000
vt 0.500000 0.000000
vt 0.000000 0.500000
vt 0.000000 0.000000
vt 0.500000 0.000000
vt 0.000000 0.500000
vt 0.000000 0.000000
vt 0.500000 0.000000
vt 0.000000 0.000000
vt 0.500000 0.000000
vt 0.000000 0.500000
vt 0.000000 0.000000
vt 0.500000 0.000000
vt 0.000000 0.000000
vt 0.500000 0.000000
vt 0.000000 0.500000
vt 0.000000 0.000000
vt 0.500000 0.000000
vt 0.000000 0.500000
vt 0.000000 0.000000
vt 0.500000 0.000000
vt 0.000000 0.000000
vt 0.500000 0.000000
vt 0.000000 0.500000
vt 0.000000 0.000000
vt 0.500000 0.000000
vt 0.000000 0.500000
vt 0.000000 0.000000
vt 0.500000 0.000000
vt 0.000000 0.500000
vt 0.000000 0.000000
vt 0.500000 0.000000
vt 0.000000 0.500000
vt 0.000000 0.000000
vt 0.000000 0.000000
vt 0.500000 0.500000
vt 0.000000 0.000000
vt 0.500000 0.500000
vt 0.000000 0.000000
vt 0.500000 0.500000
vt 0.000000 0.000000
vt 0.500000 0.500000
vt 0.000000 0.000000
vt 0.500000 0.500000
vt 0.500000 0.000000
vt 0.000000 0.500000
vt 0.000000 0.000000
vt 0.000000 0.000000
vt 0.500000 0.500000
vt 0.500000 0.000000
vt 0.000000 0.500000
vt 0.000000 0.000000
vt 0.500000 0.000000
vt 0.500000 0.000000
vt 0.000000 0.500000
vt 0.500000 0.000000
vt 0.000000 0.500000
vt 0.500000 0.000000
vt 0.000000 0.500000
vt 0.500000 0.000000
vt 0.500000 0.500000
vt 0.500000 0.000000
vt 0.500000 0.500000
vt 0.500000 0.500000
vt 0.500000 0.500000
vt 0.500000 0.500000
vt 0.500000 0.500000
vt 0.500000 0.500000
vt 0.500000 0.000000
vt 0.500000 0.500000
vt 0.500000 0.500000
vt 0.500000 0.500000
vt 0.500000 0.500000
vt 0.500000 0.500000
vt 0.500000 0.500000
vt 0.500000 0.500000
vt 0.500000 0.000000
vt 0.500000 0.500000
vt 0.500000 0.000000
vt 0.500000 0.500000
vt 0.500000 0.500000
vt 0.500000 0.500000
vt 0.500000 0.500000
vt 0.500000 0.500000
vt 0.500000 0.500000
vt 0.500000 0.500000
vt 0.500000 0.500000
vt 0.500000 0.500000
vt 0.500000 0.500000
vt 0.500000 0.500000
vt 0.500000 0.500000
vt 0.500000 0.500000
vt 0.500000 0.500000
vt 0.500000 0.500000
vt 0.500000 0.500000
vt 0.500000 0.500000
vt 0.500000 0.500000
vt 0.500000 0.500000
vt 0.500000 0.500000
vt 0.500000 0.500000
vt 0.500000 0.500000
vt 0.500000 0.500000
vt 0.500000 0.500000
vt 0.500000 0.500000
vt 0.500000 0.500000
vt 0.500000 0.500000
vt 0.500000 0.500000
vt 0.500000 0.500000
vt 0.500000 0.500000
vt 0.500000 0.500000
vt 0.500000 0.500000
vt 0.500000 0.500000
vt 0.500000 0.500000
vt 0.500000 0.500000
vt 0.500000 0.500000
vt 0.500000 0.500000
vt 0.500000 0.500000
vt 0.500000 0.500000
vt 0.500000 0.500000
vt 0.500000 0.500000
vt 0.500000 0.500000
vt 0.500000 0.500000
vt 0.500000 0.500000
vt 0.500000 0.500000
vt 0.500000 0.500000
vt 0.500000 0.500000
vt 0.500000 0.500000
vt 0.500000 0.500000
vt 0.500000 0.500000
vt 0.500000 0.500000
vt 0.500000 0.500000
vt 0.500000 0.500000
vt 0.500000 0.500000
vt 0.500000 0.500000
vt 0.500000 0.500000
vt 0.500000 0.500000
vt 0.500000 0.500000
vt 0.500000 0.500000
vt 0.500000 0.500000
vt 0.500000 0.500000
vt 0.500000 0.500000
vt 0.500000 0.500000
vt 0.500000 0.500000
vt 0.500000 0.500000
vt 0.500000 0.500000
vt 0.500000 0.500000
vt 0.500000 0.500000
vt 0.500000 0.500000
vt 0.500000 0.500000
vt 0.500000 0.500000
vt 0.500000 0.500000
vt 0.500000 0.500000
vt 0.500000 0.500000
vt 0.500000 0.500000
vt 0.500000 0.500000
vt 0.500000 0.500000
vt 0.500000 0.000000
vt 0.500000 0.500000
vt 0.500000 0.000000
vt 0.500000 0.500000
vt 0.500000 0.500000
vt 0.500000 0.500000
vn -1.0000 0.0000 -0.0000
vn -0.9701 0.2425 -0.0000
vn -0.0000 0.0000 -1.0000
vn 0.9701 0.2425 0.0000
vn 1.0000 0.0000 0.0000
vn 0.0000 0.0000 1.0000
vn 0.2425 -0.9701 0.0000
vn 0.0000 -1.0000 0.0000
vn -0.2425 0.9701 0.0000
vn -0.0000 1.0000 0.0000
vn 0.2425 0.9701 0.0000
vn -0.2425 -0.9701 0.0000
vn 0.9701 -0.2425 0.0000
vn -0.9701 -0.2425 -0.0000
vn 0.0000 -0.9693 0.2460
vn -0.2349 -0.9396 0.2490
vn -0.0000 0.9693 0.2460
vn 0.2349 0.9396 0.2490
vn 0.9396 -0.2349 -0.2490
vn 0.2349 0.9396 -0.2490
vn 0.0000 0.9693 -0.2460
vn 0.9693 -0.0000 0.2460
vn 0.9396 -0.2349 0.2490
vn -0.2349 -0.9396 -0.2490
vn -0.9396 0.2349 -0.2490
vn -0.9396 -0.2349 0.2490
vn -0.9693 0.0000 0.2460
vn 0.2349 -0.9396 0.2490
vn 0.9693 -0.0000 -0.2460
vn -0.9693 0.0000 -0.2460
vn 0.9396 0.2349 0.2490
vn -0.0000 -0.9693 -0.2460
vn -0.2349 0.9396 0.2490
vn -0.9396 0.2349 0.2490
vn -0.9734 -0.0000 0.2291
vn -0.9734 0.0000 -0.2291
vn -0.9396 -0.2349 -0.2490
vn -0.9485 -0.2371 -0.2099
vn 0.9734 0.0000 0.2291
vn 0.9485 -0.2371 0.2099
vn 0.9734 -0.0000 -0.2291
vn -0.0000 -0.9734 0.2291
vn -0.0000 -0.9734 -0.2291
vn 0.2349 -0.9396 -0.2490
vn 0.2371 -0.9485 -0.2099
vn 0.0000 0.9734 0.2291
vn 0.2371 0.9485 0.2099
vn 0.0000 0.9734 -0.2291
vn -0.2349 0.9396 -0.2490
vn -0.2371 0.9485 -0.2099
vn 0.9396 0.2349 -0.2490
vn 0.9485 0.2371 -0.2099
vn -0.2371 -0.9485 0.2099
vn -0.9485 0.2371 0.2099
vn -0.9485 -0.2371 0.2099
vn 0.9485 -0.2371 -0.2099
vn 0.2371 -0.9485 0.2099
vn 0.2371 0.9485 -0.2099
vn -0.2371 0.9485 0.2099
vn 0.9485 0.2371 0.2099
vn -0.2371 -0.9485 -0.2099
vn -0.9485 0.2371 -0.2099
s 1
f 13/1/1 4/2/2 14/3/1
f 17/4/3 8/5/3 15/6/3
f 8/7/4 16/8/5 15/9/5
f 11/10/6 21/11/6 22/12/6
f 7/13/7 11/14/8 9/15/8
f 4/16/9 12/17/10 10/18/10
f 10/19/10 6/20/11 8/21/11
f 9/22/8 1/23/12 3/24/12
f 11/25/6 24/26/6 1/27/6
f 4/16/3 17/28/3 14/29/3
f 3/24/3 17/30/3 9/31/3
f 13/32/6 19/33/6 2/34/6
f 16/35/6 21/36/6 5/37/6
f 15/38/5 5/39/13 7/40/13
f 17/41/3 7/42/3 9/15/3
f 13/32/1 3/43/14 1/27/14
f 58/44/15 136/45/12 39/46/16
f 43/47/17 137/48/11 61/49/18
f 20/50/5 49/51/19 21/52/13
f 23/53/10 45/54/20 25/55/11
f 16/56/6 25/57/6 20/58/6
f 12/59/6 25/60/6 6/61/6
f 12/62/6 19/63/6 23/64/6
f 13/1/6 24/65/6 18/66/6
f 27/67/7 140/68/8 31/69/8
f 33/70/14 141/71/1 28/72/1
f 29/73/9 139/74/10 30/75/10
f 32/76/4 142/77/5 26/78/5
f 19/79/9 42/80/21 23/81/10
f 47/82/22 133/83/13 55/84/23
f 22/85/8 38/86/24 24/87/12
f 18/88/1 34/89/25 19/90/2
f 39/91/26 130/92/1 51/93/27
f 55/94/28 134/95/8 58/96/15
f 25/97/4 46/98/29 20/99/5
f 24/100/14 37/101/30 18/102/1
f 61/103/31 132/104/5 47/105/22
f 21/106/7 41/107/32 22/108/8
f 35/109/33 135/110/10 43/111/17
f 69/112/6 101/113/6 68/114/6
f 70/115/12 104/116/12 73/117/12
f 76/118/4 107/119/4 75/120/4
f 81/121/6 113/122/6 80/123/6
f 88/124/9 119/125/9 87/126/9
f 93/127/6 125/128/6 92/129/6
f 82/130/4 116/131/4 85/132/4
f 94/133/11 128/134/11 97/135/11
f 51/136/27 131/137/2 35/138/34
f 36/139/35 39/140/26 51/141/27
f 52/142/36 38/86/37 53/143/38
f 54/144/39 55/145/23 48/146/40
f 57/147/41 49/148/19 46/98/29
f 40/149/42 55/150/28 58/151/15
f 59/152/43 49/51/44 56/153/45
f 60/154/46 61/155/18 44/156/47
f 63/157/48 45/158/20 42/80/21
f 60/159/46 35/160/33 43/161/17
f 63/162/48 34/89/49 65/163/50
f 54/164/39 61/165/31 47/166/22
f 57/167/41 45/54/51 62/168/52
f 40/169/42 39/170/16 50/171/53
f 59/172/43 38/173/24 41/107/32
f 36/174/35 35/175/34 64/176/54
f 52/177/36 34/178/25 37/101/30
f 36/174/35 66/179/14 50/171/55
f 52/142/36 67/180/14 36/139/35
f 53/181/38 68/182/14 52/177/36
f 50/183/55 69/184/14 53/143/38
f 48/185/40 70/186/13 54/164/39
f 56/187/56 71/188/13 48/146/40
f 57/167/41 72/189/13 56/153/56
f 54/144/39 73/190/13 57/147/41
f 40/169/42 74/191/7 48/146/57
f 59/152/43 75/192/7 40/149/42
f 56/187/45 76/193/7 59/172/43
f 48/185/57 77/194/7 56/153/45
f 44/195/47 78/196/11 60/159/46
f 62/197/58 79/198/11 44/156/47
f 63/162/48 80/199/11 62/168/58
f 60/154/46 81/200/11 63/157/48
f 60/154/46 82/201/9 64/176/59
f 63/162/48 83/202/9 60/159/46
f 65/203/50 84/204/9 63/157/48
f 64/205/59 85/206/9 65/163/50
f 54/144/39 86/207/4 44/156/60
f 57/167/41 87/208/4 54/164/39
f 62/197/52 88/209/4 57/147/41
f 44/195/60 89/210/4 62/168/52
f 50/183/53 90/211/12 40/149/42
f 53/181/61 91/212/12 50/171/53
f 59/152/43 92/213/12 53/143/61
f 40/169/42 93/214/12 59/172/43
f 64/205/54 94/215/2 36/139/35
f 65/203/62 95/216/2 64/176/54
f 52/142/36 96/217/2 65/163/62
f 36/174/35 97/218/2 52/177/36
f 99/219/14 100/220/14 98/221/14
f 103/222/13 104/116/13 102/223/13
f 107/224/7 108/225/7 106/226/7
f 111/227/11 112/228/11 110/229/11
f 115/230/9 116/131/9 114/231/9
f 119/232/4 120/233/4 118/234/4
f 123/235/12 124/236/12 122/237/12
f 127/238/2 128/134/2 126/239/2
f 87/240/3 118/241/3 86/242/3
f 75/243/3 106/244/3 74/245/3
f 97/246/6 129/247/6 96/248/6
f 92/249/13 123/250/13 91/251/13
f 86/252/7 120/233/7 89/253/7
f 74/254/14 108/225/14 77/255/14
f 85/256/6 117/257/6 84/258/6
f 80/259/2 111/260/2 79/261/2
f 73/262/6 105/263/6 72/264/6
f 68/265/7 99/266/7 67/267/7
f 91/268/3 122/269/3 90/270/3
f 79/271/3 110/272/3 78/273/3
f 67/274/3 98/275/3 66/276/3
f 96/277/12 127/278/12 95/279/12
f 90/280/2 124/236/2 93/281/2
f 84/282/14 115/283/14 83/284/14
f 78/285/13 112/228/13 81/286/13
f 89/287/6 121/288/6 88/289/6
f 72/290/11 103/291/11 71/292/11
f 66/293/9 100/220/9 69/294/9
f 77/295/6 109/296/6 76/297/6
f 95/298/3 126/299/3 94/300/3
f 83/301/3 114/302/3 82/303/3
f 71/304/3 102/305/3 70/306/3
f 27/67/6 130/92/6 26/78/6
f 29/73/6 132/104/6 28/72/6
f 29/307/6 134/308/6 133/83/6
f 27/309/6 135/310/6 131/137/6
f 32/76/6 134/95/6 30/75/6
f 33/70/6 135/110/6 31/69/6
f 32/311/6 130/312/6 136/45/6
f 33/313/6 132/314/6 137/48/6
f 138/315/6 143/316/6 142/77/6
f 146/317/6 138/318/6 141/319/6
f 144/320/6 138/321/6 139/74/6
f 138/322/6 145/323/6 139/324/6
f 30/325/10 145/323/11 32/311/11
f 26/326/5 143/327/13 27/309/13
f 31/328/8 146/329/12 33/313/12
f 28/330/1 144/331/2 29/307/2
f 13/1/1 2/332/2 4/2/2
f 17/4/3 10/19/3 8/5/3
f 8/7/4 6/333/4 16/8/5
f 11/10/6 5/334/6 21/11/6
f 7/13/7 5/335/7 11/14/8
f 4/16/9 2/336/9 12/17/10
f 10/19/10 12/337/10 6/20/11
f 9/22/8 11/338/8 1/23/12
f 11/25/6 22/339/6 24/26/6
f 4/16/3 10/340/3 17/28/3
f 3/24/3 14/341/3 17/30/3
f 13/32/6 18/342/6 19/33/6
f 16/35/6 20/343/6 21/36/6
f 15/38/5 16/344/5 5/39/13
f 17/41/3 15/345/3 7/42/3
f 13/32/1 14/346/1 3/43/14
f 58/44/15 134/308/8 136/45/12
f 43/47/17 135/310/10 137/48/11
f 20/50/5 46/347/29 49/51/19
f 23/53/10 42/348/21 45/54/20
f 16/56/6 6/349/6 25/57/6
f 12/59/6 23/350/6 25/60/6
f 12/62/6 2/332/6 19/63/6
f 13/1/6 1/351/6 24/65/6
f 27/67/7 143/316/7 140/68/8
f 33/70/14 146/352/14 141/71/1
f 29/73/9 144/353/9 139/74/10
f 32/76/4 145/354/4 142/77/5
f 19/79/9 34/178/49 42/80/21
f 47/82/22 132/314/5 133/83/13
f 22/85/8 41/355/32 38/86/24
f 18/88/1 37/356/30 34/89/25
f 39/91/26 136/357/14 130/92/1
f 55/94/28 133/358/7 134/95/8
f 25/97/4 45/158/51 46/98/29
f 24/100/14 38/173/37 37/101/30
f 61/103/31 137/359/4 132/104/5
f 21/106/7 49/148/44 41/107/32
f 35/109/33 131/360/9 135/110/10
f 69/112/6 100/361/6 101/113/6
f 70/115/12 102/362/12 104/116/12
f 76/118/4 109/363/4 107/119/4
f 81/121/6 112/364/6 113/122/6
f 88/124/9 121/365/9 119/125/9
f 93/127/6 124/366/6 125/128/6
f 82/130/4 114/367/4 116/131/4
f 94/133/11 126/368/11 128/134/11
f 51/136/27 130/312/1 131/137/2
f 36/139/35 50/183/55 39/140/26
f 52/142/36 37/356/30 38/86/37
f 54/144/39 47/369/22 55/145/23
f 57/147/41 56/187/56 49/148/19
f 40/149/42 48/185/57 55/150/28
f 59/152/43 41/355/32 49/51/44
f 60/154/46 43/370/17 61/155/18
f 63/157/48 62/197/58 45/158/20
f 60/159/46 64/205/59 35/160/33
f 63/162/48 42/348/21 34/89/49
f 54/164/39 44/195/60 61/165/31
f 57/167/41 46/347/29 45/54/51
f 40/169/42 58/371/15 39/170/16
f 59/172/43 53/181/61 38/173/24
f 36/174/35 51/372/27 35/175/34
f 52/177/36 65/203/62 34/178/25
f 36/174/35 67/373/14 66/179/14
f 52/142/36 68/374/14 67/180/14
f 53/181/38 69/375/14 68/182/14
f 50/183/55 66/376/14 69/184/14
f 48/185/40 71/377/13 70/186/13
f 56/187/56 72/378/13 71/188/13
f 57/167/41 73/379/13 72/189/13
f 54/144/39 70/380/13 73/190/13
f 40/169/42 75/381/7 74/191/7
f 59/152/43 76/382/7 75/192/7
f 56/187/45 77/383/7 76/193/7
f 48/185/57 74/384/7 77/194/7
f 44/195/47 79/385/11 78/196/11
f 62/197/58 80/386/11 79/198/11
f 63/162/48 81/387/11 80/199/11
f 60/154/46 78/388/11 81/200/11
f 60/154/46 83/389/9 82/201/9
f 63/162/48 84/390/9 83/202/9
f 65/203/50 85/391/9 84/204/9
f 64/205/59 82/392/9 85/206/9
f 54/144/39 87/393/4 86/207/4
f 57/167/41 88/394/4 87/208/4
f 62/197/52 89/395/4 88/209/4
f 44/195/60 86/396/4 89/210/4
f 50/183/53 91/397/12 90/211/12
f 53/181/61 92/398/12 91/212/12
f 59/152/43 93/399/12 92/213/12
f 40/169/42 90/400/12 93/214/12
f 64/205/54 95/401/2 94/215/2
f 65/203/62 96/402/2 95/216/2
f 52/142/36 97/403/2 96/217/2
f 36/174/35 94/404/2 97/218/2
f 99/219/14 101/405/14 100/220/14
f 103/222/13 105/406/13 104/116/13
f 107/224/7 109/363/7 108/225/7
f 111/227/11 113/407/11 112/228/11
f 115/230/9 117/408/9 116/131/9
f 119/232/4 121/365/4 120/233/4
f 123/235/12 125/409/12 124/236/12
f 127/238/2 129/410/2 128/134/2
f 87/240/3 119/411/3 118/241/3
f 75/243/3 107/412/3 106/244/3
f 97/246/6 128/413/6 129/247/6
f 92/249/13 125/409/13 123/250/13
f 86/252/7 118/414/7 120/233/7
f 74/254/14 106/415/14 108/225/14
f 85/256/6 116/416/6 117/257/6
f 80/259/2 113/407/2 111/260/2
f 73/262/6 104/417/6 105/263/6
f 68/265/7 101/405/7 99/266/7
f 91/268/3 123/418/3 122/269/3
f 79/271/3 111/419/3 110/272/3
f 67/274/3 99/420/3 98/275/3
f 96/277/12 129/410/12 127/278/12
f 90/280/2 122/421/2 124/236/2
f 84/282/14 117/408/14 115/283/14
f 78/285/13 110/422/13 112/228/13
f 89/287/6 120/423/6 121/288/6
f 72/290/11 105/406/11 103/291/11
f 66/293/9 98/424/9 100/220/9
f 77/295/6 108/425/6 109/296/6
f 95/298/3 127/426/3 126/299/3
f 83/301/3 115/427/3 114/302/3
f 71/304/3 103/428/3 102/305/3
f 27/67/6 131/360/6 130/92/6
f 29/73/6 133/358/6 132/104/6
f 29/307/6 30/325/6 134/308/6
f 27/309/6 31/328/6 135/310/6
f 32/76/6 136/357/6 134/95/6
f 33/70/6 137/359/6 135/110/6
f 32/311/6 26/326/6 130/312/6
f 33/313/6 28/330/6 132/314/6
f 138/315/6 140/429/6 143/316/6
f 146/317/6 140/430/6 138/318/6
f 144/320/6 141/431/6 138/321/6
f 138/322/6 142/432/6 145/323/6
f 30/325/10 139/433/10 145/323/11
f 26/326/5 142/432/5 143/327/13
f 31/328/8 140/430/8 146/329/12
f 28/330/1 141/434/1 144/331/2
