# Blender v2.79 (sub 0) OBJ File: 'launcher5.blend'
# www.blender.org
o Cube_Cube.000
v -0.051016 -0.051016 -0.356508
v 0.051016 -0.051016 -0.356508
v 0.036157 0.036157 -0.459655
v 0.051016 0.051016 -0.356508
v -0.071549 0.090715 -0.500000
v -0.051016 0.051016 -0.356508
v -0.071549 0.090715 0.500000
v 0.071549 0.090715 0.500000
v 0.071549 0.090715 -0.500000
v -0.000000 0.048351 0.345038
v 0.034189 0.034189 -0.294427
v -0.000000 0.048351 -0.294427
v 0.034189 0.034189 0.345038
v 0.048351 0.000000 -0.294427
v 0.048351 -0.000000 0.345038
v 0.034189 -0.034189 -0.294427
v 0.034189 -0.034189 0.345038
v -0.000000 -0.048351 -0.294427
v -0.000000 -0.048351 0.345038
v -0.034189 -0.034189 -0.294427
v -0.034189 -0.034189 0.345038
v -0.048351 0.000000 -0.294427
v -0.048351 -0.000000 0.345038
v -0.034189 0.034189 -0.294427
v -0.034189 0.034189 0.345038
v 0.032250 0.032250 -0.143273
v 0.045609 0.000000 -0.143273
v 0.032250 -0.032250 -0.143273
v -0.000000 -0.045609 -0.143273
v -0.032250 -0.032250 -0.143273
v -0.045609 0.000000 -0.143273
v -0.000000 0.045609 -0.143273
v -0.036157 0.036157 -0.459655
v 0.036157 -0.036157 -0.459655
v -0.036157 -0.036157 -0.459655
v 0.071549 0.170012 0.500000
v -0.071549 0.170012 0.500000
v -0.071549 0.170012 -0.500000
v 0.071549 0.170012 -0.500000
v -0.032250 0.032250 -0.143273
v 0.051016 0.051016 0.356508
v 0.051016 -0.051016 0.356508
v -0.051016 0.051016 0.356508
v -0.051016 -0.051016 0.356508
v 0.048193 0.048193 -0.308887
v 0.048193 -0.048193 -0.308887
v -0.048193 0.048193 -0.308887
v -0.048193 -0.048193 -0.308887
vt 0.500000 0.000000
vt 0.000000 0.500000
vt 0.000000 0.000000
vt 0.500000 0.000000
vt 0.000000 0.500000
vt 0.000000 0.000000
vt 0.500000 0.000000
vt 0.000000 0.500000
vt 0.000000 0.000000
vt 0.500000 0.000000
vt 0.000000 0.500000
vt 0.000000 0.000000
vt 0.500000 0.000000
vt 0.000000 0.500000
vt 0.000000 0.000000
vt 0.000000 0.000000
vt 0.500000 0.500000
vt 0.000000 0.500000
vt 0.500000 0.000000
vt 0.000000 0.500000
vt 0.000000 0.000000
vt 0.500000 0.000000
vt 0.000000 0.500000
vt 0.000000 0.000000
vt 0.500000 0.500000
vt 0.500000 0.000000
vt 0.000000 0.500000
vt 0.500000 0.000000
vt 0.000000 0.500000
vt 0.000000 0.000000
vt 0.500000 0.000000
vt 0.000000 0.500000
vt 0.000000 0.000000
vt 0.500000 0.000000
vt 0.000000 0.500000
vt 0.000000 0.000000
vt 0.500000 0.000000
vt 0.000000 0.500000
vt 0.000000 0.000000
vt 0.500000 0.000000
vt 0.000000 0.500000
vt 0.000000 0.000000
vt 0.500000 0.000000
vt 0.000000 0.500000
vt 0.000000 0.000000
vt 0.000000 0.000000
vt 0.500000 0.500000
vt 0.000000 0.500000
vt 0.500000 0.000000
vt 0.000000 0.500000
vt 0.000000 0.000000
vt 0.500000 0.000000
vt 0.000000 0.500000
vt 0.000000 0.000000
vt 0.000000 0.500000
vt 0.000000 0.000000
vt 0.500000 0.000000
vt 0.000000 0.500000
vt 0.000000 0.000000
vt 0.000000 0.000000
vt 0.500000 0.500000
vt 0.500000 0.000000
vt 0.000000 0.500000
vt 0.000000 0.000000
vt 0.500000 0.000000
vt 0.000000 0.500000
vt 0.000000 0.000000
vt 0.500000 0.000000
vt 0.000000 0.500000
vt 0.000000 0.000000
vt 0.500000 0.000000
vt 0.000000 0.000000
vt 0.500000 0.000000
vt 0.500000 0.500000
vt 0.000000 0.500000
vt 0.500000 0.000000
vt 0.500000 0.000000
vt 0.000000 0.500000
vt 0.500000 0.000000
vt 0.000000 0.500000
vt 0.000000 0.000000
vt 0.500000 0.000000
vt 0.000000 0.500000
vt 0.500000 0.000000
vt 0.000000 0.500000
vt 0.000000 0.000000
vt 0.500000 0.000000
vt 0.500000 0.500000
vt 0.500000 0.500000
vt 0.500000 0.500000
vt 0.500000 0.500000
vt 0.500000 0.000000
vt 0.000000 0.000000
vt 0.500000 0.500000
vt 0.000000 0.000000
vt 0.500000 0.500000
vt 0.500000 0.000000
vt 0.000000 0.500000
vt 0.000000 0.000000
vt 0.000000 0.500000
vt 0.500000 0.500000
vt 0.500000 0.500000
vt 0.500000 0.500000
vt 0.500000 0.500000
vt 0.500000 0.500000
vt 0.500000 0.000000
vt 0.500000 0.500000
vt 0.500000 0.500000
vt 0.500000 0.000000
vt 0.500000 0.500000
vt 0.500000 0.500000
vt 0.500000 0.500000
vt 0.500000 0.500000
vt 0.500000 0.500000
vt 0.500000 0.500000
vt 0.500000 0.500000
vt 0.500000 0.000000
vt 0.500000 0.500000
vt 0.500000 0.500000
vt 0.500000 0.500000
vt 0.500000 0.500000
vt 0.500000 0.500000
vt 0.500000 0.500000
vt 0.500000 0.500000
vt 0.500000 0.500000
vt 0.500000 0.500000
vt 0.500000 0.500000
vt 0.500000 0.500000
vt 0.500000 0.500000
vt 0.500000 0.000000
vt 0.500000 0.500000
vn 0.0000 0.0000 1.0000
vn 0.0000 -0.9898 -0.1426
vn 0.0000 -0.9977 -0.0681
vn -0.9724 -0.2303 -0.0360
vn -1.0000 0.0000 0.0000
vn -0.9528 -0.3037 -0.0000
vn 1.0000 0.0000 0.0000
vn 0.9972 -0.0752 -0.0000
vn 0.9528 -0.3037 -0.0000
vn 0.9724 -0.2303 -0.0360
vn -0.9898 0.0000 -0.1426
vn -0.9977 0.0000 -0.0681
vn 0.0000 -0.9638 0.2666
vn 0.0000 -0.9898 0.1424
vn 0.0000 0.0000 -1.0000
vn 0.0000 -1.0000 0.0042
vn 0.0000 -0.9638 -0.2666
vn -0.9239 0.3827 0.0000
vn -0.3827 -0.9239 -0.0000
vn 0.3827 0.9239 0.0000
vn 0.9239 0.3827 0.0000
vn 0.9239 0.3827 0.0052
vn 0.3827 -0.9239 -0.0000
vn -0.9239 -0.3827 -0.0000
vn 0.9239 -0.3827 -0.0000
vn 0.3827 -0.9239 0.0052
vn 0.9239 -0.3827 0.0052
vn 0.3827 0.9239 0.0052
vn -0.3827 -0.9239 0.0052
vn -0.9239 -0.3827 0.0052
vn -0.3827 0.9239 0.0052
vn -0.9239 0.3827 0.0052
vn 0.0000 -1.0000 -0.0000
vn 0.9898 0.0000 -0.1426
vn 0.9977 0.0000 -0.0681
vn 0.0000 0.9898 -0.1426
vn -0.9972 -0.0752 -0.0000
vn -0.3827 0.9239 0.0000
vn 1.0000 0.0000 0.0042
vn 0.0000 1.0000 0.0042
vn -1.0000 0.0000 0.0042
s 1
f 36/1/1 7/2/1 8/3/1
f 35/4/2 2/5/3 1/6/3
f 6/7/4 44/8/5 43/9/6
f 39/10/7 8/11/8 9/12/8
f 9/13/8 41/14/9 4/15/10
f 6/16/4 35/17/11 1/18/12
f 8/19/13 43/20/14 41/21/14
f 38/22/15 9/23/15 5/24/15
f 43/9/14 45/25/16 41/14/14
f 5/26/17 4/27/17 6/16/17
f 25/28/18 22/29/18 23/30/18
f 21/31/19 18/32/19 19/33/19
f 13/34/20 12/35/20 10/36/20
f 15/37/21 11/38/21 13/39/21
f 31/40/22 21/41/22 30/42/22
f 19/43/23 16/44/23 17/45/23
f 21/46/24 22/47/24 20/48/24
f 17/49/25 14/50/25 15/51/25
f 40/52/26 10/53/26 25/54/26
f 40/52/27 23/55/27 31/56/27
f 30/57/28 19/58/28 29/59/28
f 32/60/29 13/61/29 10/53/29
f 27/62/30 13/63/30 26/64/30
f 29/65/31 17/66/31 28/67/31
f 28/68/32 15/69/32 27/70/32
f 42/71/33 1/18/3 2/72/3
f 34/73/34 4/27/10 2/72/35
f 4/15/36 33/74/36 6/75/36
f 7/76/37 6/75/4 43/9/6
f 10/77/38 24/78/38 25/54/38
f 37/79/5 5/80/37 7/81/37
f 32/82/1 29/83/1 27/70/1
f 3/84/15 35/85/15 33/86/15
f 27/70/1 26/87/1 32/88/1
f 32/60/1 40/52/1 31/89/1
f 31/56/1 30/57/1 29/90/1
f 29/59/1 28/68/1 27/91/1
f 41/92/9 2/5/35 4/15/10
f 44/93/39 47/94/39 43/20/39
f 42/95/40 48/96/40 44/8/40
f 48/97/1 45/98/1 47/99/1
f 41/92/41 46/100/41 42/95/41
f 36/1/1 37/101/1 7/2/1
f 35/4/2 34/102/2 2/5/3
f 6/7/4 1/103/12 44/8/5
f 39/10/7 36/104/7 8/11/8
f 9/13/8 8/105/8 41/14/9
f 6/16/4 33/106/11 35/17/11
f 8/19/13 7/107/13 43/20/14
f 38/22/15 39/108/15 9/23/15
f 43/9/14 47/109/16 45/25/16
f 5/26/17 9/110/17 4/27/17
f 25/28/18 24/111/18 22/29/18
f 21/31/19 20/112/19 18/32/19
f 13/34/20 11/113/20 12/35/20
f 15/37/21 14/114/21 11/38/21
f 31/40/22 23/115/22 21/41/22
f 19/43/23 18/116/23 16/44/23
f 21/46/24 23/117/24 22/47/24
f 17/49/25 16/118/25 14/50/25
f 40/52/26 32/88/26 10/53/26
f 40/52/27 25/119/27 23/55/27
f 30/57/28 21/120/28 19/58/28
f 32/60/29 26/87/29 13/61/29
f 27/62/30 15/121/30 13/63/30
f 29/65/31 19/122/31 17/66/31
f 28/68/32 17/123/32 15/69/32
f 42/71/33 44/124/33 1/18/3
f 34/73/34 3/125/34 4/27/10
f 4/15/36 3/84/36 33/74/36
f 7/76/37 5/126/37 6/75/4
f 10/77/38 12/127/38 24/78/38
f 37/79/5 38/128/5 5/80/37
f 32/82/1 31/89/1 29/83/1
f 3/84/15 34/102/15 35/85/15
f 41/92/9 42/129/7 2/5/35
f 44/93/39 48/97/39 47/94/39
f 42/95/40 46/130/40 48/96/40
f 48/97/1 46/131/1 45/98/1
f 41/92/41 45/25/41 46/100/41
