# Blender v2.79 (sub 0) OBJ File: 'launcher8.blend'
# www.blender.org
o Cube
v -0.400000 0.000000 0.400000
v -0.400000 0.000000 -0.400000
v 0.400000 0.000000 0.400000
v 0.400000 0.000000 -0.400000
v 0.000000 0.000000 -0.500000
v 0.000000 0.000000 0.500000
v -0.500000 0.000000 0.000000
v 0.500000 0.000000 0.000000
v -0.500000 0.617236 0.000000
v -0.400000 0.617236 -0.400000
v 0.000000 0.617236 -0.500000
v 0.400000 0.617236 -0.400000
v 0.500000 0.617236 0.000000
v 0.400000 0.617236 0.400000
v 0.000000 0.617236 0.500000
v -0.400000 0.617236 0.400000
vt 0.500000 0.000000
vt 0.000000 0.500000
vt 0.000000 0.000000
vt 0.500000 0.000000
vt 0.000000 0.500000
vt 0.000000 0.000000
vt 0.500000 0.000000
vt 0.000000 0.500000
vt 0.000000 0.000000
vt 0.500000 0.000000
vt 0.000000 0.500000
vt 0.000000 0.000000
vt 0.500000 0.000000
vt 0.000000 0.500000
vt 0.000000 0.000000
vt 0.500000 0.000000
vt 0.000000 0.500000
vt 0.000000 0.000000
vt 0.500000 0.000000
vt 0.000000 0.500000
vt 0.000000 0.000000
vt 0.500000 0.000000
vt 0.000000 0.500000
vt 0.000000 0.000000
vt 0.250000 0.000000
vt 0.000000 0.250000
vt 0.250000 0.500000
vt 0.500000 0.500000
vt 0.500000 0.500000
vt 0.500000 0.500000
vt 0.500000 0.500000
vt 0.500000 0.500000
vt 0.500000 0.500000
vt 0.500000 0.500000
vt 0.500000 0.500000
vt 0.073223 0.426777
vt 0.426777 0.426777
vt 0.500000 0.250000
vt 0.426777 0.073223
vt 0.073223 0.073223
vn -0.2425 0.0000 -0.9701
vn -0.0000 0.0000 -1.0000
vn 0.9701 0.0000 -0.2425
vn 1.0000 0.0000 0.0000
vn 0.2425 0.0000 0.9701
vn 0.0000 0.0000 1.0000
vn -0.2425 0.0000 0.9701
vn 0.2425 0.0000 -0.9701
vn 0.9701 0.0000 0.2425
vn -1.0000 0.0000 0.0000
vn -0.9701 0.0000 -0.2425
vn -0.9701 0.0000 0.2425
vn 0.0000 1.0000 0.0000
s 1
f 10/1/1 5/2/2 2/3/1
f 12/4/3 8/5/4 4/6/3
f 14/7/5 6/8/6 3/9/5
f 15/10/6 1/11/7 6/12/6
f 11/13/2 4/14/8 5/15/2
f 13/16/4 3/17/9 8/18/4
f 9/19/10 2/20/11 7/21/10
f 16/22/12 7/23/10 1/24/12
f 15/25/13 13/26/13 11/27/13
f 10/1/1 11/28/2 5/2/2
f 12/4/3 13/29/4 8/5/4
f 14/7/5 15/30/6 6/8/6
f 15/10/6 16/31/7 1/11/7
f 11/13/2 12/32/8 4/14/8
f 13/16/4 14/33/9 3/17/9
f 9/19/10 10/34/11 2/20/11
f 16/22/12 9/35/10 7/23/10
f 12/36/13 11/27/13 13/26/13
f 10/37/13 9/38/13 11/27/13
f 16/39/13 15/25/13 9/38/13
f 14/40/13 13/26/13 15/25/13
f 11/27/13 9/38/13 15/25/13
