# Blender v2.79 (sub 0) OBJ File: 'launcher3.blend'
# www.blender.org
o Cylinder.000
v 0.080249 0.415597 0.473494
v 0.113488 0.335349 -0.313713
v 0.080249 0.415598 -0.313713
v -0.034318 0.238842 0.227271
v 0.034318 -0.001581 0.227271
v 0.034318 0.238842 0.227271
v 0.000000 0.448837 0.473494
v 0.000000 0.448837 -0.313713
v -0.080249 0.415597 0.473494
v -0.113488 0.335349 -0.313713
v -0.113488 0.335349 0.473494
v -0.080249 0.415598 -0.313713
v 0.000000 0.221861 0.473494
v 0.080249 0.255100 -0.313713
v 0.080249 0.255100 0.473494
v -0.080249 0.255100 -0.313713
v -0.080249 0.255100 0.473494
v 0.000000 0.221861 -0.313713
v 0.034318 0.238842 -0.226685
v -0.034318 -0.001581 -0.226685
v -0.034318 0.238842 -0.226685
v -0.034318 -0.001581 0.227271
v 0.066970 0.268378 0.500880
v 0.000000 0.240638 -0.076829
v 0.000000 0.240638 0.500880
v 0.034318 -0.001581 -0.226685
v 0.094711 0.335349 -0.076829
v -0.094711 0.335349 -0.076829
v -0.066970 0.402319 0.500880
v 0.066970 0.402319 0.500880
v 0.094711 0.335349 0.500880
v -0.066970 0.268378 0.500880
v -0.094711 0.335349 0.500880
v 0.113488 0.335349 0.473494
v 0.000000 0.430060 -0.076829
v 0.070882 0.335349 -0.499120
v -0.050121 0.385470 -0.499120
v -0.070882 0.335349 -0.499120
v 0.000000 0.430059 0.500880
v 0.000000 0.264466 -0.499120
v 0.050121 0.285227 -0.499120
v 0.000000 0.406231 -0.499120
v 0.050121 0.385470 -0.499120
v -0.050121 0.285227 -0.499120
vt 0.500000 0.000000
vt 0.000000 0.500000
vt 0.000000 0.000000
vt 0.500000 0.000000
vt 0.000000 0.500000
vt 0.000000 0.000000
vt 0.000000 0.000000
vt 0.500000 0.500000
vt 0.000000 0.500000
vt 0.500000 0.000000
vt 0.000000 0.500000
vt 0.000000 0.000000
vt 0.500000 0.000000
vt 0.000000 0.500000
vt 0.000000 0.000000
vt 0.500000 0.000000
vt 0.000000 0.500000
vt 0.000000 0.000000
vt 0.500000 0.000000
vt 0.000000 0.500000
vt 0.000000 0.000000
vt 0.000000 0.000000
vt 0.500000 0.500000
vt 0.000000 0.500000
vt 0.000000 0.000000
vt 0.500000 0.500000
vt 0.000000 0.500000
vt 0.500000 0.000000
vt 0.000000 0.500000
vt 0.000000 0.000000
vt 0.500000 0.000000
vt 0.000000 0.500000
vt 0.000000 0.000000
vt 0.000000 0.000000
vt 0.000000 0.500000
vt 0.000000 0.000000
vt 0.500000 0.500000
vt 0.000000 0.500000
vt 0.000000 0.000000
vt 0.500000 0.500000
vt 0.000000 0.500000
vt 0.500000 0.500000
vt 0.000000 0.500000
vt 0.000000 0.000000
vt 0.500000 0.500000
vt 0.000000 0.500000
vt 0.000000 0.000000
vt 0.000000 0.500000
vt 0.500000 0.500000
vt 0.500000 0.500000
vt 0.000000 0.500000
vt 0.500000 0.500000
vt 0.500000 0.000000
vt 0.000000 0.500000
vt 0.000000 0.000000
vt 0.000000 0.000000
vt 0.500000 0.000000
vt 0.000000 0.500000
vt 0.000000 0.000000
vt 0.500000 0.500000
vt 0.000000 0.500000
vt 0.000000 0.000000
vt 0.500000 0.500000
vt 0.000000 0.500000
vt 0.000000 0.000000
vt 0.000000 0.000000
vt 0.500000 0.000000
vt 0.000000 0.000000
vt 0.000000 0.500000
vt 0.500000 0.000000
vt 0.500000 0.500000
vt 0.500000 0.000000
vt 0.000000 0.500000
vt 0.000000 0.000000
vt 0.500000 0.000000
vt 0.000000 0.500000
vt 0.000000 0.000000
vt 0.250000 0.000000
vt 0.073223 0.073223
vt 0.073223 0.426777
vt 0.500000 0.000000
vt 0.000000 0.000000
vt 0.500000 0.500000
vt 0.500000 0.500000
vt 0.500000 0.500000
vt 0.500000 0.000000
vt 0.500000 0.500000
vt 0.500000 0.500000
vt 0.500000 0.500000
vt 0.500000 0.000000
vt 0.500000 0.000000
vt 0.500000 0.500000
vt 0.500000 0.500000
vt 0.500000 0.000000
vt 0.500000 0.000000
vt 0.500000 0.000000
vt 0.500000 0.000000
vt 0.500000 0.000000
vt 0.500000 0.000000
vt 0.500000 0.500000
vt 0.500000 0.000000
vt 0.500000 0.500000
vt 0.500000 0.000000
vt 0.500000 0.500000
vt 0.500000 0.000000
vt 0.500000 0.500000
vt 0.250000 0.500000
vt 0.426777 0.426777
vt 0.500000 0.250000
vt 0.426777 0.073223
vt 0.000000 0.250000
vt 0.500000 0.000000
vt 0.500000 0.000000
vn 0.3807 -0.9191 -0.1015
vn 0.3827 -0.9239 -0.0000
vn 1.0000 0.0000 0.0000
vn 0.9239 0.3827 0.0000
vn 0.9191 0.3807 -0.1015
vn 0.9191 -0.3807 -0.1015
vn 0.9239 -0.3827 -0.0000
vn 0.0000 -0.0000 1.0000
vn 0.0000 0.0000 -1.0000
vn -1.0000 -0.0000 0.0000
vn -0.3827 -0.9239 -0.0000
vn -0.3807 -0.9191 -0.1015
vn -0.6846 -0.7276 0.0444
vn -0.7071 -0.7071 0.0038
vn -0.9191 -0.3807 -0.1015
vn -0.9239 -0.3827 -0.0000
vn 0.9037 0.3743 -0.2077
vn -0.3743 -0.9037 -0.2077
vn 0.7805 -0.3233 0.5351
vn 0.7071 0.7071 0.0038
vn 0.6846 0.7276 0.0444
vn 0.7276 0.6846 0.0444
vn 0.3233 -0.7805 0.5351
vn -0.7805 0.3233 0.5351
vn 0.7805 0.3233 0.5351
vn 0.7805 0.3233 0.5352
vn -0.3233 -0.7805 0.5351
vn 0.7071 -0.7071 0.0038
vn 0.7276 -0.6846 0.0444
vn 0.6846 -0.7276 0.0444
vn -0.7805 -0.3233 0.5351
vn -0.9037 0.3743 -0.2077
vn -0.9191 0.3807 -0.1015
vn -0.7071 0.7071 0.0038
vn -0.6846 0.7276 0.0444
vn -0.3827 0.9239 0.0000
vn 0.3743 0.9037 -0.2077
vn 0.3807 0.9191 -0.1015
vn -0.3233 0.7805 0.5351
vn -0.3233 0.7805 0.5352
vn 0.3743 -0.9037 -0.2077
vn -0.3743 0.9037 -0.2077
vn -0.3807 0.9191 -0.1015
vn 0.9037 -0.3743 -0.2077
vn 0.3827 0.9239 0.0000
vn 0.3233 0.7805 0.5351
vn -0.9239 0.3827 0.0000
vn -0.7276 0.6846 0.0444
vn -0.7276 -0.6846 0.0444
vn -0.9037 -0.3743 -0.2077
vn -0.7805 0.3233 0.5352
vn 0.3233 0.7805 0.5352
s 1
f 18/1/1 15/2/2 13/3/2
f 5/4/3 19/5/3 6/6/3
f 1/7/4 2/8/5 3/9/5
f 14/10/6 34/11/7 15/12/7
f 22/13/8 6/14/8 4/15/8
f 26/16/9 21/17/9 19/18/9
f 20/19/10 4/20/10 21/21/10
f 17/22/11 18/23/12 13/24/11
f 39/25/11 35/26/13 30/27/14
f 10/28/15 17/29/16 11/30/16
f 43/31/17 2/32/5 36/33/17
f 44/34/18 18/23/12 16/35/12
f 23/36/19 34/37/19 31/38/19
f 32/39/20 24/40/21 28/41/22
f 13/3/23 23/42/23 25/43/23
f 29/44/24 11/45/24 33/46/24
f 30/47/25 34/37/25 1/48/26
f 32/39/27 13/49/27 25/43/27
f 29/44/28 28/50/29 35/51/30
f 11/30/31 32/52/31 33/46/31
f 37/53/32 10/54/33 12/55/33
f 33/56/4 32/57/20 28/50/22
f 23/36/34 24/40/35 25/43/36
f 43/31/37 8/58/38 3/59/38
f 29/44/39 7/60/39 9/61/40
f 18/62/1 41/63/41 14/64/1
f 37/53/42 8/58/43 42/65/42
f 41/66/44 2/8/6 14/64/6
f 1/67/45 8/58/38 7/68/45
f 30/47/46 7/60/46 39/69/46
f 23/36/34 31/70/47 27/71/48
f 28/72/8 27/73/8 35/74/8
f 12/75/33 11/76/47 9/77/47
f 40/78/9 44/79/9 37/80/9
f 8/81/43 9/61/36 7/68/36
f 30/47/14 27/71/49 31/38/16
f 10/82/15 44/83/50 16/35/15
f 18/1/1 14/84/1 15/2/2
f 5/4/3 26/85/3 19/5/3
f 1/7/4 34/86/4 2/8/5
f 14/10/6 2/8/6 34/11/7
f 22/13/8 5/87/8 6/14/8
f 26/16/9 20/88/9 21/17/9
f 20/19/10 22/89/10 4/20/10
f 17/22/11 16/90/12 18/23/12
f 39/25/2 29/91/28 35/26/30
f 10/28/15 16/92/15 17/29/16
f 43/31/17 3/93/5 2/32/5
f 44/34/18 40/94/18 18/23/12
f 23/36/19 15/95/19 34/37/19
f 32/39/20 25/96/45 24/40/21
f 13/3/23 15/95/23 23/42/23
f 29/44/24 9/97/51 11/45/24
f 30/47/25 31/70/25 34/37/25
f 32/39/27 17/98/27 13/49/27
f 29/44/28 33/99/7 28/50/29
f 11/30/31 17/98/31 32/52/31
f 37/53/32 38/100/32 10/54/33
f 23/36/34 27/101/48 24/40/35
f 43/31/37 42/102/37 8/58/38
f 29/44/39 39/103/39 7/60/39
f 18/62/1 40/94/41 41/63/41
f 37/53/42 12/104/43 8/58/43
f 41/66/44 36/105/44 2/8/6
f 1/67/45 3/93/38 8/58/38
f 30/47/46 1/67/52 7/60/46
f 28/72/8 24/40/8 27/73/8
f 12/75/33 10/106/33 11/76/47
f 37/80/9 42/107/9 43/108/9
f 43/108/9 36/109/9 37/80/9
f 41/110/9 40/78/9 37/80/9
f 44/79/9 38/111/9 37/80/9
f 37/80/9 36/109/9 41/110/9
f 8/81/43 12/104/43 9/61/36
f 30/47/14 35/112/13 27/71/49
f 10/82/15 38/113/50 44/83/50
