# Blender v2.79 (sub 0) OBJ File: 'launcher7.blend'
# www.blender.org
o Cube_Cube.001
v 0.125115 -0.000942 -0.375346
v -0.125115 -0.000942 -0.375346
v -0.067610 0.776610 -0.434217
v 0.067610 0.776610 -0.434217
v -0.125115 -0.000942 0.375346
v 0.125115 -0.000942 0.375346
v 0.105089 0.749748 0.355320
v -0.105089 0.749748 0.355320
v -0.264810 -0.000942 0.375346
v -0.375346 -0.000942 0.264810
v -0.353278 0.749748 0.255669
v -0.255669 0.749748 0.353278
v -0.375346 -0.000942 -0.264810
v -0.264810 -0.000942 -0.375346
v -0.255669 0.749748 -0.353278
v -0.353278 0.749748 -0.255669
v 0.375346 -0.000942 0.264810
v 0.264810 -0.000942 0.375346
v 0.255669 0.749748 0.353278
v 0.353278 0.749748 0.255669
v 0.264810 -0.000942 -0.375346
v 0.375346 -0.000942 -0.264810
v 0.353278 0.749748 -0.255669
v 0.255669 0.749748 -0.353278
v -0.147183 0.749748 -0.353278
v 0.147183 0.749748 -0.353278
v 0.147183 0.749748 0.353278
v -0.147183 0.749748 0.353278
v -0.026388 0.972195 -0.317087
v 0.026388 0.972195 -0.317087
v 0.052545 0.999058 0.355320
v -0.052545 0.999058 0.355320
v -0.105089 0.749748 -0.355320
v 0.105089 0.749748 -0.355320
v -0.052545 0.999058 -0.206017
v 0.052545 0.999058 -0.206017
v 0.125115 0.749748 -0.375346
v 0.125115 0.749748 0.375346
v -0.125115 0.749748 -0.375346
v -0.125115 0.749748 0.375346
v -0.264810 0.749748 0.375346
v -0.375346 0.749748 0.264810
v -0.375346 0.749748 -0.264810
v -0.264810 0.749748 -0.375346
v 0.264810 0.749748 -0.375346
v 0.375346 0.749748 -0.264810
v 0.375346 0.749748 0.264810
v 0.264810 0.749748 0.375346
v 0.234586 0.719969 -0.091522
v 0.234586 0.719969 0.091522
v -0.234586 0.719969 -0.091522
v -0.234586 0.719969 0.091522
v 0.234586 0.849766 0.091522
v -0.266137 0.719969 0.071489
v -0.266137 0.719969 -0.071489
v 0.234586 0.849766 -0.091522
v 0.266137 0.719969 -0.071489
v 0.266137 0.719969 0.071489
v 0.154778 0.719969 -0.327690
v 0.154778 0.719969 0.327690
v -0.154778 0.719969 -0.327690
v -0.154778 0.719969 0.327690
v -0.255407 0.719969 0.327690
v -0.345945 0.719969 0.237151
v -0.345945 0.719969 -0.237151
v -0.255407 0.719969 -0.327690
v 0.255407 0.719969 -0.327690
v 0.345945 0.719969 -0.237151
v 0.345945 0.719969 0.237151
v 0.255407 0.719969 0.327690
v -0.234586 0.849766 -0.091522
v -0.234586 0.849766 0.091522
v -0.266137 0.849766 0.071489
v -0.266137 0.849766 -0.071489
v 0.266137 0.849766 -0.071489
v 0.266137 0.849766 0.071489
vt 0.500000 0.000000
vt 0.000000 0.500000
vt 0.000000 0.000000
vt 0.500000 0.000000
vt 0.000000 0.500000
vt 0.000000 0.000000
vt 0.500000 0.000000
vt 0.000000 0.500000
vt 0.000000 0.000000
vt 0.500000 0.000000
vt 0.000000 0.500000
vt 0.000000 0.000000
vt 0.500000 0.000000
vt 0.000000 0.500000
vt 0.000000 0.000000
vt 0.500000 0.000000
vt 0.000000 0.500000
vt 0.000000 0.000000
vt 0.500000 0.000000
vt 0.000000 0.500000
vt 0.000000 0.000000
vt 0.500000 0.000000
vt 0.000000 0.500000
vt 0.000000 0.000000
vt 0.500000 0.000000
vt 0.000000 0.500000
vt 0.000000 0.000000
vt 0.500000 0.000000
vt 0.000000 0.500000
vt 0.000000 0.000000
vt 0.500000 0.000000
vt 0.000000 0.500000
vt 0.000000 0.000000
vt 0.500000 0.000000
vt 0.000000 0.500000
vt 0.000000 0.000000
vt 0.500000 0.000000
vt 0.000000 0.500000
vt 0.000000 0.000000
vt 0.500000 0.000000
vt 0.000000 0.500000
vt 0.000000 0.000000
vt 0.500000 0.000000
vt 0.000000 0.500000
vt 0.000000 0.000000
vt 0.500000 0.000000
vt 0.000000 0.500000
vt 0.000000 0.000000
vt 0.500000 0.000000
vt 0.000000 0.500000
vt 0.000000 0.000000
vt 0.500000 0.000000
vt 0.000000 0.500000
vt 0.000000 0.000000
vt 0.500000 0.000000
vt 0.000000 0.500000
vt 0.000000 0.000000
vt 0.500000 0.000000
vt 0.000000 0.500000
vt 0.000000 0.000000
vt 0.000000 0.500000
vt 0.500000 0.500000
vt 0.000000 0.500000
vt 0.500000 0.000000
vt 0.000000 0.500000
vt 0.000000 0.000000
vt 0.500000 0.000000
vt 0.000000 0.500000
vt 0.000000 0.000000
vt 0.000000 0.000000
vt 0.500000 0.500000
vt 0.500000 0.000000
vt 0.000000 0.500000
vt 0.500000 0.000000
vt 0.500000 0.000000
vt 0.000000 0.000000
vt 0.500000 0.000000
vt 0.000000 0.500000
vt 0.000000 0.000000
vt 0.500000 0.000000
vt 0.000000 0.000000
vt 0.500000 0.000000
vt 0.000000 0.000000
vt 0.000000 0.000000
vt 0.000000 0.500000
vt 0.000000 0.000000
vt 0.000000 0.000000
vt 0.500000 0.500000
vt 0.500000 0.000000
vt 0.000000 0.500000
vt 0.500000 0.000000
vt 0.000000 0.500000
vt 0.000000 0.000000
vt 0.500000 0.000000
vt 0.000000 0.500000
vt 0.000000 0.000000
vt 0.000000 0.000000
vt 0.500000 0.500000
vt 0.500000 0.000000
vt 0.000000 0.500000
vt 0.000000 0.000000
vt 0.500000 0.000000
vt 0.000000 0.500000
vt 0.000000 0.000000
vt 0.000000 0.500000
vt 0.000000 0.500000
vt 0.000000 0.500000
vt 0.500000 0.500000
vt 0.000000 0.500000
vt 0.500000 0.500000
vt 0.000000 0.500000
vt 0.000000 0.500000
vt 0.500000 0.500000
vt 0.000000 0.500000
vt 0.500000 0.500000
vt 0.000000 0.500000
vt 0.000000 0.500000
vt 0.000000 0.500000
vt 0.000000 0.000000
vt 0.000000 0.000000
vt 0.487764 0.327254
vt 0.103054 0.047746
vt 0.012236 0.327254
vt 0.500000 0.000000
vt 0.000000 0.500000
vt 0.000000 0.000000
vt 0.500000 0.500000
vt 0.500000 0.000000
vt 0.000000 0.000000
vt 0.000000 0.000000
vt 0.500000 0.500000
vt 0.000000 0.500000
vt 0.500000 0.500000
vt 0.487764 0.327254
vt 0.103054 0.047746
vt 0.012236 0.327254
vt 0.396946 0.047746
vt 0.103054 0.047746
vt 0.250000 0.500000
vt 0.396946 0.047746
vt 0.103054 0.047746
vt 0.250000 0.500000
vt 0.500000 0.000000
vt 0.000000 0.500000
vt 0.500000 0.000000
vt 0.000000 0.000000
vt 0.500000 0.000000
vt 0.000000 0.500000
vt 0.500000 0.000000
vt 0.000000 0.500000
vt 0.000000 0.000000
vt 0.500000 0.000000
vt 0.000000 0.500000
vt 0.000000 0.000000
vt 0.500000 0.500000
vt 0.500000 0.500000
vt 0.500000 0.500000
vt 0.500000 0.500000
vt 0.500000 0.500000
vt 0.500000 0.500000
vt 0.500000 0.500000
vt 0.500000 0.500000
vt 0.500000 0.500000
vt 0.500000 0.500000
vt 0.500000 0.500000
vt 0.500000 0.500000
vt 0.500000 0.500000
vt 0.500000 0.500000
vt 0.500000 0.500000
vt 0.500000 0.500000
vt 0.500000 0.500000
vt 0.500000 0.500000
vt 0.500000 0.500000
vt 0.500000 0.000000
vt 0.500000 0.000000
vt 0.500000 0.500000
vt 0.500000 0.500000
vt 0.500000 0.500000
vt 0.500000 0.500000
vt 0.500000 0.500000
vt 0.500000 0.500000
vt 0.500000 0.500000
vt 0.250000 0.500000
vt 0.396946 0.047746
vt 0.500000 0.500000
vt 0.500000 0.500000
vt 0.500000 0.000000
vt 0.250000 0.500000
vt 0.396946 0.047746
vt 0.012236 0.327254
vt 0.487764 0.327254
vt 0.012236 0.327254
vt 0.487764 0.327254
vt 0.500000 0.500000
vt 0.500000 0.500000
vt 0.500000 0.500000
vn 0.0000 0.0000 1.0000
vn 0.6026 0.5231 0.6026
vn 1.0000 0.0000 0.0000
vn 0.0000 0.0000 -1.0000
vn 0.0000 0.5138 -0.8579
vn -1.0000 0.0000 0.0000
vn 0.0000 0.6517 -0.7585
vn -0.7071 0.0000 0.7071
vn -0.7071 0.0000 -0.7071
vn 0.7071 0.0000 -0.7071
vn 0.7071 0.0000 0.7071
vn 0.0000 1.0000 -0.0000
vn 0.0000 0.9940 -0.1092
vn 0.9785 0.2062 0.0000
vn 0.9626 0.2561 -0.0889
vn -0.9785 0.2062 0.0000
vn -0.9626 0.2561 -0.0889
vn -0.9331 0.3079 -0.1857
vn 0.0000 -0.9466 -0.3223
vn 0.0000 0.9720 -0.2351
vn -0.8834 0.3634 -0.2959
vn 0.8834 0.3634 -0.2959
vn 0.9331 0.3079 -0.1857
vn -0.5360 0.0000 0.8442
vn 0.5360 0.0000 -0.8442
vn 0.0000 0.6517 0.7585
vn -0.9690 0.2471 0.0000
vn 0.9710 0.2391 0.0000
vn -0.6026 0.5231 0.6026
vn -0.9710 0.2391 0.0000
vn 0.6026 0.5231 -0.6026
vn 0.9690 0.2471 0.0000
vn -0.6026 0.5231 -0.6026
vn -0.5360 0.0000 -0.8442
vn 0.5360 0.0000 0.8442
s 1
f 40/1/1 9/2/1 5/3/1
f 48/4/1 6/5/1 18/6/1
f 16/7/2 66/8/2 15/9/2
f 46/10/3 17/11/3 22/12/3
f 44/13/4 2/14/4 14/15/4
f 37/16/4 21/17/4 1/18/4
f 3/19/5 30/20/5 4/21/5
f 42/22/6 13/23/6 10/24/6
f 19/25/7 60/26/7 27/27/7
f 38/28/1 5/29/1 6/30/1
f 39/31/4 1/32/4 2/33/4
f 41/34/8 10/35/8 9/36/8
f 14/37/9 43/38/9 44/39/9
f 22/40/10 45/41/10 46/42/10
f 18/43/11 47/44/11 48/45/11
f 34/46/12 39/47/12 33/48/12
f 8/49/12 38/50/12 7/51/12
f 7/52/12 37/53/12 34/54/12
f 33/55/12 40/56/12 8/57/12
f 35/58/13 31/59/12 36/60/13
f 7/52/1 32/61/1 8/57/1
f 7/51/14 36/62/15 31/59/14
f 8/49/16 35/63/17 33/48/18
f 4/64/19 33/65/19 3/66/19
f 29/67/20 36/68/13 30/69/20
f 29/70/21 33/71/18 35/63/17
f 30/72/22 34/73/23 4/21/22
f 26/74/12 38/50/12 27/27/12
f 28/75/12 39/47/12 25/76/12
f 11/77/12 41/78/12 12/79/12
f 15/80/12 43/38/12 16/81/12
f 23/82/12 45/41/12 24/83/12
f 19/25/12 47/44/12 20/84/12
f 16/7/12 42/85/12 11/86/12
f 28/87/12 41/88/12 40/56/12
f 25/89/12 44/90/12 15/9/12
f 20/91/12 46/92/12 23/93/12
f 27/94/12 48/95/12 19/96/12
f 26/97/12 45/98/12 37/53/12
f 52/99/24 73/100/24 54/101/24
f 49/102/25 75/103/25 57/104/25
f 15/80/26 61/105/26 25/76/26
f 25/89/27 62/106/27 28/87/27
f 11/77/28 65/107/28 16/81/28
f 24/83/26 59/108/26 67/109/26
f 23/93/29 67/110/29 68/111/29
f 23/82/30 69/112/30 20/84/30
f 11/86/31 63/113/31 64/114/31
f 12/79/7 62/115/7 63/116/7
f 27/94/32 59/117/32 26/97/32
f 20/91/33 70/118/33 19/96/33
f 49/102/12 60/26/12 50/119/12
f 52/99/12 61/105/12 51/120/12
f 51/121/12 66/122/12 65/123/12
f 74/124/12 72/125/12 71/126/12
f 54/101/12 65/127/12 64/114/12
f 51/128/3 72/125/3 52/129/3
f 75/130/12 53/131/12 76/132/12
f 57/104/12 69/133/12 68/111/12
f 50/134/12 70/135/12 69/136/12
f 68/137/12 67/138/12 49/139/12
f 64/140/12 63/141/12 52/142/12
f 55/143/34 71/144/34 51/120/34
f 57/145/3 76/132/3 58/146/3
f 58/147/35 53/148/35 50/119/35
f 54/149/6 74/150/6 55/151/6
f 50/152/6 56/153/6 49/154/6
f 40/1/1 41/88/1 9/2/1
f 48/4/1 38/155/1 6/5/1
f 16/7/2 65/127/2 66/8/2
f 46/10/3 47/156/3 17/11/3
f 44/13/4 39/157/4 2/14/4
f 37/16/4 45/98/4 21/17/4
f 3/19/5 29/158/5 30/20/5
f 42/22/6 43/159/6 13/23/6
f 19/25/7 70/160/7 60/26/7
f 38/28/1 40/161/1 5/29/1
f 39/31/4 37/162/4 1/32/4
f 41/34/8 42/163/8 10/35/8
f 14/37/9 13/164/9 43/38/9
f 22/40/10 21/165/10 45/41/10
f 18/43/11 17/166/11 47/44/11
f 34/46/12 37/162/12 39/47/12
f 8/49/12 40/161/12 38/50/12
f 7/52/12 38/155/12 37/53/12
f 33/55/12 39/157/12 40/56/12
f 35/58/13 32/167/12 31/59/12
f 7/52/1 31/168/1 32/61/1
f 7/51/14 34/46/23 36/62/15
f 8/49/16 32/167/16 35/63/17
f 4/64/19 34/169/19 33/65/19
f 29/67/20 35/170/13 36/68/13
f 29/70/21 3/19/21 33/71/18
f 30/72/22 36/62/15 34/73/23
f 26/74/12 37/162/12 38/50/12
f 28/75/12 40/161/12 39/47/12
f 11/77/12 42/163/12 41/78/12
f 15/80/12 44/171/12 43/38/12
f 23/82/12 46/172/12 45/41/12
f 19/25/12 48/173/12 47/44/12
f 16/7/12 43/159/12 42/85/12
f 28/87/12 12/174/12 41/88/12
f 25/89/12 39/157/12 44/90/12
f 20/91/12 47/156/12 46/92/12
f 27/94/12 38/155/12 48/95/12
f 26/97/12 24/175/12 45/98/12
f 52/99/24 72/176/24 73/100/24
f 49/102/25 56/177/25 75/103/25
f 15/80/26 66/178/26 61/105/26
f 25/89/27 61/179/27 62/106/27
f 11/77/28 64/180/28 65/107/28
f 24/83/26 26/74/26 59/108/26
f 23/93/29 24/175/29 67/110/29
f 23/82/30 68/181/30 69/112/30
f 11/86/31 12/174/31 63/113/31
f 12/79/7 28/75/7 62/115/7
f 27/94/32 60/182/32 59/117/32
f 20/91/33 69/133/33 70/118/33
f 49/102/12 59/108/12 60/26/12
f 52/99/12 62/115/12 61/105/12
f 65/123/12 55/183/12 51/121/12
f 51/121/12 61/184/12 66/122/12
f 74/124/12 73/185/12 72/125/12
f 54/101/12 55/143/12 65/127/12
f 51/128/3 71/186/3 72/125/3
f 75/130/12 56/187/12 53/131/12
f 57/104/12 58/147/12 69/133/12
f 69/136/12 58/188/12 50/134/12
f 50/134/12 60/189/12 70/135/12
f 59/190/12 49/139/12 67/138/12
f 57/191/12 68/137/12 49/139/12
f 62/192/12 52/142/12 63/141/12
f 54/193/12 64/140/12 52/142/12
f 55/143/34 74/194/34 71/144/34
f 57/145/3 75/195/3 76/132/3
f 58/147/35 76/196/35 53/148/35
f 54/149/6 73/185/6 74/150/6
f 50/152/6 53/131/6 56/153/6
