# Blender v2.79 (sub 0) OBJ File: 'launcher6.blend'
# www.blender.org
o Cube_Cube.001
v -0.235714 0.302721 0.471428
v -0.235714 0.774149 0.471428
v -0.192301 0.346134 -0.528572
v -0.192301 0.730736 -0.528572
v 0.235714 0.302721 0.471428
v 0.235714 0.774149 0.471428
v 0.192301 0.346134 -0.528572
v 0.192301 0.730736 -0.528572
v 0.000000 0.346134 -0.528572
v 0.000000 0.730736 -0.528572
v 0.000000 0.302721 0.471428
v 0.000000 0.774149 0.471428
v -0.235714 0.538435 0.471428
v -0.192301 0.538435 -0.528572
v 0.192301 0.538435 -0.528572
v 0.235714 0.538435 0.471428
v 0.000000 0.538435 0.471428
v 0.000000 0.538435 -0.528572
v -0.028115 0.618679 0.471428
v -0.080244 0.566550 0.471428
v -0.000008 0.538443 0.471428
v -0.080244 0.746034 0.471428
v -0.028115 0.693904 0.471428
v -0.000008 0.774141 0.471428
v -0.207599 0.693904 0.471428
v -0.155469 0.746034 0.471428
v -0.235706 0.774141 0.471428
v -0.155469 0.566550 0.471428
v -0.207599 0.618679 0.471428
v -0.235706 0.538443 0.471428
v 0.207599 0.618679 0.471428
v 0.155469 0.566550 0.471428
v 0.235706 0.538443 0.471428
v 0.155469 0.746034 0.471428
v 0.207599 0.693904 0.471428
v 0.235706 0.774141 0.471428
v 0.028115 0.693904 0.471428
v 0.080244 0.746034 0.471428
v 0.000008 0.774141 0.471428
v 0.080244 0.566550 0.471428
v 0.028115 0.618679 0.471428
v 0.000008 0.538443 0.471428
v 0.207599 0.382965 0.471428
v 0.155469 0.330836 0.471428
v 0.235706 0.302729 0.471428
v 0.155469 0.510320 0.471428
v 0.207599 0.458191 0.471428
v 0.235706 0.538427 0.471428
v 0.028115 0.458191 0.471428
v 0.080244 0.510320 0.471428
v 0.000008 0.538427 0.471428
v 0.080244 0.330836 0.471428
v 0.028115 0.382965 0.471428
v 0.000008 0.302729 0.471428
v -0.028115 0.382965 0.471428
v -0.080244 0.330836 0.471428
v -0.000008 0.302729 0.471428
v -0.080244 0.510320 0.471428
v -0.028115 0.458191 0.471428
v -0.000008 0.538427 0.471428
v -0.207599 0.458191 0.471428
v -0.155469 0.510320 0.471428
v -0.235706 0.538427 0.471428
v -0.155469 0.330836 0.471428
v -0.207599 0.382965 0.471428
v -0.235706 0.302729 0.471428
v -0.028115 0.693904 -0.105495
v -0.080244 0.746034 -0.105495
v -0.080244 0.566550 -0.105495
v -0.028115 0.618679 -0.105495
v -0.207599 0.618679 -0.105495
v -0.155469 0.566550 -0.105495
v -0.155469 0.746034 -0.105495
v -0.207599 0.693904 -0.105495
v 0.207599 0.693904 -0.105495
v 0.155469 0.746034 -0.105495
v 0.155469 0.566550 -0.105495
v 0.207599 0.618679 -0.105495
v 0.028115 0.618679 -0.105495
v 0.080244 0.566550 -0.105495
v 0.080244 0.746034 -0.105495
v 0.028115 0.693904 -0.105495
v 0.207599 0.458191 -0.105495
v 0.155469 0.510320 -0.105495
v 0.155469 0.330836 -0.105495
v 0.207599 0.382965 -0.105495
v 0.028115 0.382965 -0.105495
v 0.080244 0.330836 -0.105495
v 0.080244 0.510320 -0.105495
v 0.028115 0.458191 -0.105495
v -0.028115 0.458191 -0.105495
v -0.080244 0.510320 -0.105495
v -0.080244 0.330836 -0.105495
v -0.028115 0.382965 -0.105495
v -0.207599 0.382965 -0.105495
v -0.155469 0.330836 -0.105495
v -0.155469 0.510320 -0.105495
v -0.207599 0.458191 -0.105495
v -0.108766 0.000988 0.108766
v -0.108766 0.323914 0.108766
v -0.108766 0.000988 -0.108766
v -0.108766 0.323914 -0.108766
v 0.108766 0.000988 0.108766
v 0.108766 0.323914 0.108766
v 0.108766 0.000988 -0.108766
v 0.108766 0.323914 -0.108766
v -0.235714 0.538435 -0.420595
v -0.235714 0.302721 -0.420595
v 0.000000 0.302721 -0.420595
v 0.000000 0.774149 -0.420595
v 0.235714 0.774149 -0.420595
v 0.235714 0.538435 -0.420595
v 0.235714 0.302721 -0.420595
v -0.235714 0.774149 -0.420595
vt 0.500000 0.000000
vt 0.000000 0.500000
vt 0.000000 0.000000
vt 0.500000 0.000000
vt 0.000000 0.500000
vt 0.000000 0.000000
vt 0.500000 0.000000
vt 0.000000 0.500000
vt 0.000000 0.000000
vt 0.500000 0.000000
vt 0.000000 0.500000
vt 0.000000 0.000000
vt 0.500000 0.000000
vt 0.000000 0.500000
vt 0.000000 0.000000
vt 0.500000 0.000000
vt 0.000000 0.500000
vt 0.000000 0.000000
vt 0.500000 0.000000
vt 0.000000 0.500000
vt 0.000000 0.000000
vt 0.500000 0.000000
vt 0.000000 0.500000
vt 0.000000 0.000000
vt 0.466506 0.375000
vt 0.250000 0.000000
vt 0.250000 0.500000
vt 0.500000 0.000000
vt 0.000000 0.500000
vt 0.000000 0.000000
vt 0.500000 0.000000
vt 0.000000 0.500000
vt 0.000000 0.000000
vt 0.500000 0.000000
vt 0.000000 0.500000
vt 0.000000 0.000000
vt 0.500000 0.000000
vt 0.000000 0.500000
vt 0.000000 0.000000
vt 0.500000 0.000000
vt 0.000000 0.500000
vt 0.000000 0.000000
vt 0.500000 0.000000
vt 0.000000 0.500000
vt 0.000000 0.000000
vt 0.500000 0.000000
vt 0.000000 0.500000
vt 0.000000 0.000000
vt 0.500000 0.000000
vt 0.000000 0.500000
vt 0.000000 0.000000
vt 0.500000 0.000000
vt 0.000000 0.500000
vt 0.000000 0.000000
vt 0.466506 0.375000
vt 0.250000 0.000000
vt 0.250000 0.500000
vt 0.466506 0.375000
vt 0.250000 0.000000
vt 0.500000 0.000000
vt 0.000000 0.500000
vt 0.000000 0.000000
vt 0.500000 0.000000
vt 0.000000 0.500000
vt 0.000000 0.000000
vt 0.500000 0.000000
vt 0.000000 0.500000
vt 0.000000 0.000000
vt 0.500000 0.000000
vt 0.000000 0.500000
vt 0.000000 0.000000
vt 0.500000 0.000000
vt 0.000000 0.500000
vt 0.000000 0.000000
vt 0.466506 0.375000
vt 0.250000 0.000000
vt 0.500000 0.000000
vt 0.000000 0.500000
vt 0.000000 0.000000
vt 0.250000 0.000000
vt 0.250000 0.500000
vt 0.500000 0.000000
vt 0.000000 0.500000
vt 0.000000 0.000000
vt 0.500000 0.000000
vt 0.000000 0.500000
vt 0.000000 0.000000
vt 0.250000 0.000000
vt 0.073223 0.073223
vt 0.073223 0.426777
vt 0.466506 0.375000
vt 0.250000 0.000000
vt 0.250000 0.500000
vt 0.426777 0.073223
vt 0.073223 0.073223
vt 0.073223 0.426777
vt 0.426777 0.073223
vt 0.073223 0.073223
vt 0.073223 0.426777
vt 0.426777 0.073223
vt 0.000000 0.250000
vt 0.073223 0.426777
vt 0.250000 0.000000
vt 0.250000 0.000000
vt 0.250000 0.500000
vt 0.466506 0.375000
vt 0.250000 0.000000
vt 0.250000 0.500000
vt 0.500000 0.000000
vt 0.000000 0.500000
vt 0.000000 0.000000
vt 0.250000 0.000000
vt 0.250000 0.500000
vt 0.250000 0.000000
vt 0.250000 0.000000
vt 0.250000 0.500000
vt 0.466506 0.375000
vt 0.250000 0.000000
vt 0.466506 0.375000
vt 0.250000 0.000000
vt 0.466506 0.375000
vt 0.250000 0.000000
vt 0.500000 0.000000
vt 0.000000 0.500000
vt 0.000000 0.000000
vt 0.250000 0.000000
vt 0.250000 0.500000
vt 0.000000 0.000000
vt 0.500000 0.500000
vt 0.500000 0.000000
vt 0.500000 0.500000
vt 0.500000 0.500000
vt 0.500000 0.500000
vt 0.500000 0.500000
vt 0.500000 0.500000
vt 0.500000 0.500000
vt 0.500000 0.500000
vt 0.500000 0.500000
vt 0.500000 0.500000
vt 0.500000 0.500000
vt 0.500000 0.500000
vt 0.500000 0.500000
vt 0.500000 0.500000
vt 0.500000 0.500000
vt 0.500000 0.500000
vt 0.500000 0.000000
vt 0.000000 0.500000
vt 0.000000 0.000000
vt 0.500000 0.000000
vt 0.000000 0.500000
vt 0.000000 0.000000
vt 0.500000 0.000000
vt 0.000000 0.500000
vt 0.000000 0.000000
vt 0.500000 0.000000
vt 0.000000 0.500000
vt 0.000000 0.000000
vt 0.000000 0.000000
vt 0.500000 0.000000
vt 0.000000 0.500000
vt 0.500000 0.000000
vt 0.000000 0.500000
vt 0.000000 0.000000
vt 0.500000 0.000000
vt 0.000000 0.500000
vt 0.500000 0.000000
vt 0.000000 0.500000
vt 0.000000 0.000000
vt 0.000000 0.000000
vt 0.000000 0.500000
vt 0.500000 0.000000
vt 0.000000 0.500000
vt 0.000000 0.000000
vt 0.500000 0.000000
vt 0.000000 0.500000
vt 0.000000 0.000000
vt 0.500000 0.000000
vt 0.000000 0.500000
vt 0.000000 0.000000
vt 0.500000 0.000000
vt 0.000000 0.500000
vt 0.000000 0.000000
vt 0.500000 0.000000
vt 0.500000 0.500000
vt 0.000000 0.000000
vt 0.500000 0.500000
vt 0.000000 0.500000
vt 0.000000 0.000000
vt 0.500000 0.500000
vt 0.000000 0.500000
vt 0.500000 0.000000
vt 0.000000 0.500000
vt 0.000000 0.500000
vt 0.000000 0.000000
vt 0.000000 0.000000
vt 0.500000 0.500000
vt 0.000000 0.500000
vt 0.500000 0.000000
vt 0.000000 0.500000
vt 0.000000 0.000000
vt 0.500000 0.500000
vt 0.500000 0.500000
vt 0.500000 0.500000
vt 0.500000 0.500000
vt 0.500000 0.500000
vt 0.500000 0.500000
vt 0.500000 0.500000
vt 0.500000 0.500000
vt 0.033494 0.375000
vt 0.466506 0.125000
vt 0.033494 0.125000
vt 0.500000 0.500000
vt 0.500000 0.500000
vt 0.500000 0.500000
vt 0.500000 0.500000
vt 0.500000 0.500000
vt 0.500000 0.500000
vt 0.500000 0.500000
vt 0.500000 0.500000
vt 0.033494 0.375000
vt 0.466506 0.125000
vt 0.033494 0.125000
vt 0.033494 0.375000
vt 0.466506 0.125000
vt 0.033494 0.125000
vt 0.500000 0.500000
vt 0.500000 0.500000
vt 0.500000 0.500000
vt 0.500000 0.500000
vt 0.500000 0.500000
vt 0.033494 0.375000
vt 0.466506 0.125000
vt 0.033494 0.125000
vt 0.500000 0.500000
vt 0.033494 0.375000
vt 0.466506 0.125000
vt 0.033494 0.125000
vt 0.500000 0.500000
vt 0.500000 0.500000
vt 0.250000 0.500000
vt 0.426777 0.426777
vt 0.500000 0.250000
vt 0.426777 0.073223
vt 0.000000 0.250000
vt 0.033494 0.375000
vt 0.466506 0.125000
vt 0.033494 0.125000
vt 0.250000 0.500000
vt 0.426777 0.426777
vt 0.500000 0.250000
vt 0.250000 0.000000
vt 0.000000 0.250000
vt 0.250000 0.500000
vt 0.426777 0.426777
vt 0.500000 0.250000
vt 0.250000 0.000000
vt 0.000000 0.250000
vt 0.250000 0.500000
vt 0.426777 0.426777
vt 0.500000 0.250000
vt 0.250000 0.000000
vt 0.073223 0.073223
vt 0.033494 0.375000
vt 0.466506 0.125000
vt 0.033494 0.125000
vt 0.033494 0.375000
vt 0.466506 0.125000
vt 0.033494 0.125000
vt 0.033494 0.375000
vt 0.466506 0.125000
vt 0.033494 0.125000
vt 0.500000 0.500000
vt 0.033494 0.375000
vt 0.466506 0.125000
vt 0.033494 0.125000
vt 0.033494 0.375000
vt 0.466506 0.125000
vt 0.033494 0.125000
vt 0.033494 0.375000
vt 0.466506 0.125000
vt 0.033494 0.125000
vt 0.033494 0.375000
vt 0.466506 0.125000
vt 0.033494 0.125000
vt 0.033494 0.375000
vt 0.466506 0.125000
vt 0.033494 0.125000
vt 0.033494 0.375000
vt 0.466506 0.125000
vt 0.033494 0.125000
vt 0.500000 0.500000
vt 0.033494 0.375000
vt 0.466506 0.125000
vt 0.033494 0.125000
vt 0.500000 0.500000
vt 0.500000 0.500000
vt 0.500000 0.500000
vt 0.500000 0.500000
vt 0.500000 0.500000
vt 0.500000 0.500000
vt 0.500000 0.500000
vt 0.500000 0.500000
vt 0.500000 0.500000
vt 0.500000 0.500000
vt 0.500000 0.500000
vt 0.500000 0.500000
vt 0.500000 0.500000
vt 0.500000 0.500000
vt 0.500000 0.000000
vt 0.500000 0.000000
vt 0.500000 0.500000
vt 0.500000 0.500000
vn -1.0000 0.0000 0.0000
vn -0.9818 0.0000 -0.1900
vn 0.0000 0.0000 -1.0000
vn 0.9862 0.0000 -0.1656
vn 1.0000 0.0000 0.0000
vn 0.9818 0.0000 -0.1900
vn 0.0000 -0.9862 -0.1656
vn 0.0000 -1.0000 0.0000
vn 0.0000 -0.9818 -0.1900
vn 0.0000 0.9862 -0.1656
vn 0.0000 1.0000 0.0000
vn 0.0000 0.9818 -0.1900
vn 0.0000 0.0000 1.0000
vn -0.9862 0.0000 -0.1656
vn -0.7071 0.7071 0.0000
vn 0.7071 0.7071 0.0000
vn 0.7071 -0.7071 0.0000
vn -0.7071 -0.7071 -0.0000
vn -0.9278 0.0000 -0.3730
vn 0.0000 -0.9278 -0.3730
vn 0.0000 0.9278 -0.3730
vn 0.9278 0.0000 -0.3730
s 1
f 2/1/1 107/2/2 13/3/1
f 10/4/3 15/5/3 18/6/3
f 111/7/4 16/8/5 112/9/6
f 59/10/1 94/11/1 55/12/1
f 113/13/7 11/14/8 109/15/9
f 114/16/10 12/17/11 110/18/12
f 110/19/12 6/20/11 111/21/10
f 109/22/9 1/23/8 108/24/7
f 16/25/13 32/26/13 17/27/13
f 4/28/3 18/29/3 14/30/3
f 14/31/3 9/32/3 3/33/3
f 29/34/5 74/35/5 25/36/5
f 62/37/8 92/38/8 58/39/8
f 112/40/6 5/41/5 113/42/4
f 18/43/3 7/44/3 9/45/3
f 13/46/1 108/47/14 1/48/1
f 20/49/11 72/50/11 28/51/11
f 26/52/8 68/53/8 22/54/8
f 6/55/13 35/56/13 16/57/13
f 12/58/13 23/59/13 17/27/13
f 32/60/11 80/61/11 40/62/11
f 41/63/5 82/64/5 37/65/5
f 47/66/1 86/67/1 43/68/1
f 38/69/8 76/70/8 34/71/8
f 44/72/11 88/73/11 52/74/11
f 11/75/13 53/76/13 17/27/13
f 53/77/5 90/78/5 49/79/5
f 16/25/13 47/80/13 5/81/13
f 56/82/11 96/83/11 64/84/11
f 65/85/5 98/86/5 61/87/5
f 73/88/13 74/89/13 72/90/13
f 17/91/13 59/92/13 11/93/13
f 76/94/13 82/95/13 80/96/13
f 84/97/13 90/98/13 88/99/13
f 92/100/13 95/101/13 96/102/13
f 17/91/13 50/103/13 16/57/13
f 11/75/13 56/104/13 1/105/13
f 2/106/13 26/107/13 12/108/13
f 50/109/8 84/110/8 46/111/8
f 17/91/13 20/112/13 13/113/13
f 17/91/13 41/114/13 12/108/13
f 12/58/13 38/115/13 6/116/13
f 5/117/13 44/118/13 11/93/13
f 1/119/13 65/120/13 13/113/13
f 13/121/13 62/122/13 17/27/13
f 35/123/1 78/124/1 31/125/1
f 13/121/13 29/126/13 2/127/13
f 19/128/13 20/49/13 21/129/13
f 22/54/13 23/130/13 24/131/13
f 25/36/13 26/52/13 27/132/13
f 28/51/13 29/34/13 30/133/13
f 31/125/13 32/60/13 33/134/13
f 34/71/13 35/123/13 36/135/13
f 37/65/13 38/69/13 39/136/13
f 40/62/13 41/63/13 42/137/13
f 43/68/13 44/72/13 45/138/13
f 46/111/13 47/66/13 48/139/13
f 49/79/13 50/109/13 51/140/13
f 52/74/13 53/77/13 54/141/13
f 55/12/13 56/82/13 57/142/13
f 58/39/13 59/10/13 60/143/13
f 61/87/13 62/37/13 63/144/13
f 64/84/13 65/85/13 66/145/13
f 94/146/15 56/147/15 55/12/15
f 65/85/16 96/83/16 95/148/16
f 74/149/17 26/150/17 25/36/17
f 23/130/18 68/53/18 67/151/18
f 76/152/18 35/153/18 34/71/18
f 32/60/15 78/124/15 77/154/15
f 88/155/16 53/156/16 52/74/16
f 50/109/17 90/78/17 89/157/17
f 47/66/18 84/110/18 83/158/18
f 92/159/18 59/160/18 58/39/18
f 70/161/15 20/162/15 19/128/15
f 29/34/16 72/50/16 71/163/16
f 86/164/15 44/165/15 43/68/15
f 80/166/16 41/167/16 40/62/16
f 38/69/17 82/64/17 81/168/17
f 62/37/17 98/86/17 97/169/17
f 23/130/1 70/170/1 19/128/1
f 100/171/1 101/172/1 99/173/1
f 102/174/3 105/175/3 101/176/3
f 106/177/5 103/178/5 105/179/5
f 104/180/13 99/181/13 103/182/13
f 3/183/19 107/2/2 14/30/19
f 3/33/20 109/184/9 108/47/7
f 8/185/21 110/186/12 111/187/10
f 7/188/22 112/189/6 113/190/4
f 7/191/20 109/192/9 9/45/20
f 4/28/21 110/193/12 10/194/21
f 4/195/19 107/196/2 114/197/14
f 8/198/22 112/199/6 15/200/22
f 2/1/1 114/201/14 107/2/2
f 10/4/3 8/202/3 15/5/3
f 111/7/4 6/203/5 16/8/5
f 59/10/1 91/204/1 94/11/1
f 113/13/7 5/205/8 11/14/8
f 114/16/10 2/206/11 12/17/11
f 110/19/12 12/207/11 6/20/11
f 109/22/9 11/208/8 1/23/8
f 42/209/13 17/27/13 32/26/13
f 16/25/13 33/210/13 32/26/13
f 32/26/13 40/211/13 42/209/13
f 4/28/3 10/212/3 18/29/3
f 14/31/3 18/213/3 9/32/3
f 29/34/5 71/214/5 74/35/5
f 62/37/8 97/215/8 92/38/8
f 112/40/6 16/216/5 5/41/5
f 18/43/3 15/217/3 7/44/3
f 13/46/1 107/196/2 108/47/14
f 20/49/11 69/218/11 72/50/11
f 26/52/8 73/219/8 68/53/8
f 33/220/13 16/57/13 35/56/13
f 6/55/13 36/221/13 35/56/13
f 35/56/13 31/222/13 33/220/13
f 21/223/13 17/27/13 23/59/13
f 12/58/13 24/224/13 23/59/13
f 23/59/13 19/225/13 21/223/13
f 32/60/11 77/226/11 80/61/11
f 41/63/5 79/227/5 82/64/5
f 47/66/1 83/228/1 86/67/1
f 38/69/8 81/229/8 76/70/8
f 44/72/11 85/230/11 88/73/11
f 51/231/13 17/27/13 53/76/13
f 11/75/13 54/232/13 53/76/13
f 53/76/13 49/233/13 51/231/13
f 53/77/5 87/234/5 90/78/5
f 45/235/13 5/81/13 47/80/13
f 16/25/13 48/236/13 47/80/13
f 47/80/13 43/237/13 45/235/13
f 56/82/11 93/238/11 96/83/11
f 65/85/5 95/239/5 98/86/5
f 72/90/13 69/240/13 70/241/13
f 70/241/13 67/242/13 68/243/13
f 68/243/13 73/88/13 72/90/13
f 74/89/13 71/244/13 72/90/13
f 72/90/13 70/241/13 68/243/13
f 57/245/13 11/93/13 59/92/13
f 17/91/13 60/246/13 59/92/13
f 59/92/13 55/247/13 57/245/13
f 80/96/13 77/248/13 76/94/13
f 78/249/13 75/250/13 76/94/13
f 76/94/13 81/251/13 82/95/13
f 82/95/13 79/252/13 80/96/13
f 77/248/13 78/249/13 76/94/13
f 88/99/13 85/253/13 86/254/13
f 86/254/13 83/255/13 84/97/13
f 84/97/13 89/256/13 90/98/13
f 90/98/13 87/257/13 88/99/13
f 88/99/13 86/254/13 84/97/13
f 96/102/13 93/258/13 94/259/13
f 94/259/13 91/260/13 92/100/13
f 92/100/13 97/261/13 98/262/13
f 98/262/13 95/101/13 92/100/13
f 96/102/13 94/259/13 92/100/13
f 48/263/13 16/57/13 50/103/13
f 17/91/13 51/264/13 50/103/13
f 50/103/13 46/265/13 48/263/13
f 66/266/13 1/105/13 56/104/13
f 11/75/13 57/267/13 56/104/13
f 56/104/13 64/268/13 66/266/13
f 24/269/13 12/108/13 26/107/13
f 2/106/13 27/270/13 26/107/13
f 26/107/13 22/271/13 24/269/13
f 50/109/8 89/272/8 84/110/8
f 30/273/13 13/113/13 20/112/13
f 17/91/13 21/274/13 20/112/13
f 20/112/13 28/275/13 30/273/13
f 39/276/13 12/108/13 41/114/13
f 17/91/13 42/277/13 41/114/13
f 41/114/13 37/278/13 39/276/13
f 36/279/13 6/116/13 38/115/13
f 12/58/13 39/280/13 38/115/13
f 38/115/13 34/281/13 36/279/13
f 54/282/13 11/93/13 44/118/13
f 5/117/13 45/283/13 44/118/13
f 44/118/13 52/284/13 54/282/13
f 63/285/13 13/113/13 65/120/13
f 1/119/13 66/286/13 65/120/13
f 65/120/13 61/287/13 63/285/13
f 60/288/13 17/27/13 62/122/13
f 13/121/13 63/289/13 62/122/13
f 62/122/13 58/290/13 60/288/13
f 35/123/1 75/291/1 78/124/1
f 27/292/13 2/127/13 29/126/13
f 13/121/13 30/293/13 29/126/13
f 29/126/13 25/294/13 27/292/13
f 94/146/15 93/238/15 56/147/15
f 65/85/16 64/295/16 96/83/16
f 74/149/17 73/219/17 26/150/17
f 23/130/18 22/296/18 68/53/18
f 76/152/18 75/291/18 35/153/18
f 32/60/15 31/297/15 78/124/15
f 88/155/16 87/234/16 53/156/16
f 50/109/17 49/298/17 90/78/17
f 47/66/18 46/299/18 84/110/18
f 92/159/18 91/204/18 59/160/18
f 70/161/15 69/218/15 20/162/15
f 29/34/16 28/300/16 72/50/16
f 86/164/15 85/230/15 44/165/15
f 80/166/16 79/227/16 41/167/16
f 38/69/17 37/301/17 82/64/17
f 62/37/17 61/302/17 98/86/17
f 23/130/1 67/303/1 70/170/1
f 100/171/1 102/304/1 101/172/1
f 102/174/3 106/305/3 105/175/3
f 106/177/5 104/306/5 103/178/5
f 104/180/13 100/307/13 99/181/13
f 3/183/19 108/308/14 107/2/2
f 3/33/20 9/309/20 109/184/9
f 8/185/21 10/4/21 110/186/12
f 7/188/22 15/310/22 112/189/6
f 7/191/20 113/311/7 109/192/9
f 4/28/21 114/201/10 110/193/12
f 4/195/19 14/31/19 107/196/2
f 8/198/22 111/312/4 112/199/6
