# Blender v2.79 (sub 0) OBJ File: 'launcher8.blend'
# www.blender.org
o Cube.001
v -0.358075 0.575086 0.000000
v 0.358075 0.575086 0.000000
v -0.321095 0.680440 -0.000000
v 0.321095 0.680440 -0.000000
v -0.116239 1.135038 -0.000000
v -0.116239 1.135038 -0.266381
v 0.116239 1.135038 -0.266381
v 0.116239 1.135038 -0.000000
v -0.114285 0.764738 0.225219
v -0.159226 0.680440 0.230081
v -0.112613 0.680440 0.309368
v -0.071298 0.734954 0.268205
v -0.032006 0.715751 -0.266381
v 0.114285 0.764738 0.225219
v 0.071298 0.734954 0.268205
v 0.112613 0.680440 0.309368
v 0.159226 0.680440 0.230081
v 0.032006 0.715751 -0.266381
v -0.334801 0.575086 -0.288316
v -0.307106 0.575086 -0.337385
v 0.268365 0.575086 -0.347070
v 0.334801 0.575086 -0.288316
v 0.334801 0.575086 0.288316
v 0.227489 0.575086 0.357289
v -0.227489 0.575086 0.357289
v -0.334801 0.575086 0.288316
v -0.159226 0.680440 -0.000000
v -0.116239 0.764738 -0.000000
v -0.300583 0.680440 -0.254098
v -0.272888 0.680440 -0.303167
v 0.234147 0.680440 -0.312852
v 0.300583 0.680440 -0.254098
v 0.159226 0.680440 -0.000000
v 0.116239 0.764738 -0.000000
v 0.300583 0.680440 0.254098
v 0.193271 0.680440 0.323071
v -0.193271 0.680440 0.323071
v -0.300583 0.680440 0.254098
v 0.067317 1.305304 -0.000000
v 0.116239 1.256636 -0.000000
v -0.067317 1.305304 -0.266381
v -0.116239 1.256636 -0.266381
v 0.116239 1.256636 -0.266381
v 0.067317 1.305304 -0.266381
v -0.067317 1.305304 0.000000
v -0.116239 1.256636 -0.000000
v 0.116239 1.135038 0.190238
v 0.067317 1.135038 0.266381
v -0.116239 1.135038 0.190238
v -0.067317 1.135038 0.266381
v 0.032006 0.880440 -0.331070
v 0.080928 0.880440 -0.302486
v 0.067317 1.135038 -0.366381
v 0.116239 1.135038 -0.337797
v -0.116239 1.135038 -0.337797
v -0.067317 1.135038 -0.366381
v -0.080928 0.880440 -0.302486
v -0.032006 0.880440 -0.331070
v 0.159226 0.680440 -0.230081
v 0.058814 0.680440 -0.283063
v 0.116239 0.753211 -0.266381
v -0.116239 0.753211 -0.266381
v -0.058814 0.683275 -0.266381
v -0.159226 0.680440 -0.230081
v 0.116239 0.880440 -0.337797
v 0.067317 0.880440 -0.366381
v -0.067317 0.880440 -0.366381
v -0.116239 0.880440 -0.337797
v 0.116239 0.880440 -0.266381
v 0.116239 0.880440 -0.000000
v -0.116239 0.880440 -0.000000
v -0.116239 0.880440 -0.266381
v 0.080928 0.880440 -0.266381
v -0.080928 0.880440 -0.266381
v -0.073252 0.723427 0.266381
v -0.116239 0.753211 0.223394
v 0.116239 0.753211 0.223394
v 0.073252 0.723427 0.266381
v -0.070285 0.880440 0.266381
v -0.116239 0.880440 0.206816
v -0.116239 0.753211 -0.000000
v 0.116239 0.753211 -0.000000
v 0.070285 0.880440 0.266381
v 0.116239 0.880440 0.206816
v 0.080928 0.788522 -0.266381
v -0.080928 0.788522 -0.266381
v -0.105596 0.768568 0.209512
v -0.065877 0.741048 0.249231
v 0.105596 0.768568 0.209512
v 0.065877 0.741048 0.249231
v -0.107401 0.768568 0.001418
v 0.107401 0.768568 0.001418
vt 0.500000 0.000000
vt 0.000000 0.500000
vt 0.000000 0.000000
vt 0.000000 0.000000
vt 0.500000 0.500000
vt 0.000000 0.500000
vt 0.000000 0.000000
vt 0.500000 0.500000
vt 0.000000 0.500000
vt 0.500000 0.000000
vt 0.000000 0.500000
vt 0.000000 0.000000
vt 0.500000 0.000000
vt 0.000000 0.500000
vt 0.000000 0.000000
vt 0.000000 0.000000
vt 0.500000 0.500000
vt 0.000000 0.500000
vt 0.500000 0.000000
vt 0.000000 0.500000
vt 0.000000 0.000000
vt 0.000000 0.000000
vt 0.500000 0.500000
vt 0.000000 0.500000
vt 0.500000 0.000000
vt 0.000000 0.500000
vt 0.000000 0.000000
vt 0.500000 0.000000
vt 0.000000 0.500000
vt 0.000000 0.000000
vt 0.000000 0.000000
vt 0.500000 0.500000
vt 0.000000 0.500000
vt 0.500000 0.000000
vt 0.000000 0.000000
vt 0.500000 0.000000
vt 0.000000 0.500000
vt 0.000000 0.000000
vt 0.500000 0.000000
vt 0.000000 0.500000
vt 0.000000 0.000000
vt 0.000000 0.000000
vt 0.500000 0.000000
vt 0.500000 0.500000
vt 0.500000 0.000000
vt 0.000000 0.500000
vt 0.000000 0.000000
vt 0.500000 0.000000
vt 0.000000 0.500000
vt 0.000000 0.000000
vt 0.500000 0.000000
vt 0.000000 0.500000
vt 0.000000 0.000000
vt 0.500000 0.000000
vt 0.000000 0.500000
vt 0.000000 0.000000
vt 0.500000 0.500000
vt 0.000000 0.500000
vt 0.500000 0.000000
vt 0.000000 0.500000
vt 0.000000 0.000000
vt 0.000000 0.000000
vt 0.500000 0.000000
vt 0.500000 0.000000
vt 0.000000 0.500000
vt 0.000000 0.000000
vt 0.000000 0.000000
vt 0.500000 0.000000
vt 0.500000 0.500000
vt 0.500000 0.000000
vt 0.000000 0.500000
vt 0.000000 0.000000
vt 0.500000 0.000000
vt 0.000000 0.500000
vt 0.000000 0.000000
vt 0.000000 0.000000
vt 0.500000 0.000000
vt 0.500000 0.500000
vt 0.000000 0.000000
vt 0.500000 0.500000
vt 0.000000 0.500000
vt 0.500000 0.000000
vt 0.000000 0.500000
vt 0.000000 0.000000
vt 0.500000 0.000000
vt 0.000000 0.500000
vt 0.000000 0.000000
vt 0.500000 0.000000
vt 0.000000 0.500000
vt 0.500000 0.000000
vt 0.500000 0.500000
vt 0.500000 0.000000
vt 0.000000 0.500000
vt 0.000000 0.000000
vt 0.500000 0.000000
vt 0.000000 0.500000
vt 0.000000 0.000000
vt 0.000000 0.000000
vt 0.500000 0.000000
vt 0.500000 0.500000
vt 0.000000 0.000000
vt 0.500000 0.500000
vt 0.000000 0.500000
vt 0.000000 0.500000
vt 0.000000 0.000000
vt 0.500000 0.500000
vt 0.500000 0.000000
vt 0.000000 0.500000
vt 0.000000 0.000000
vt 0.500000 0.000000
vt 0.000000 0.500000
vt 0.000000 0.000000
vt 0.500000 0.500000
vt 0.000000 0.000000
vt 0.500000 0.000000
vt 0.500000 0.500000
vt 0.500000 0.000000
vt 0.000000 0.500000
vt 0.500000 0.500000
vt 0.000000 0.500000
vt 0.500000 0.500000
vt 0.000000 0.500000
vt 0.500000 0.000000
vt 0.000000 0.500000
vt 0.000000 0.000000
vt 0.500000 0.500000
vt 0.000000 0.500000
vt 0.000000 0.000000
vt 0.000000 0.500000
vt 0.500000 0.000000
vt 0.000000 0.500000
vt 0.000000 0.000000
vt 0.500000 0.000000
vt 0.000000 0.000000
vt 0.500000 0.500000
vt 0.000000 0.500000
vt 0.500000 0.000000
vt 0.000000 0.500000
vt 0.000000 0.000000
vt 0.500000 0.000000
vt 0.000000 0.500000
vt 0.500000 0.500000
vt 0.000000 0.500000
vt 0.500000 0.000000
vt 0.500000 0.500000
vt 0.000000 0.500000
vt 0.500000 0.500000
vt 0.500000 0.000000
vt 0.000000 0.500000
vt 0.500000 0.000000
vt 0.000000 0.500000
vt 0.000000 0.500000
vt 0.000000 0.000000
vt 0.500000 0.500000
vt 0.000000 0.500000
vt 0.500000 0.000000
vt 0.000000 0.500000
vt 0.000000 0.000000
vt 0.000000 0.000000
vt 0.000000 0.500000
vt 0.000000 0.000000
vt 0.500000 0.500000
vt 0.000000 0.500000
vt 0.500000 0.000000
vt 0.000000 0.500000
vt 0.000000 0.000000
vt 0.500000 0.000000
vt 0.000000 0.500000
vt 0.500000 0.000000
vt 0.000000 0.500000
vt 0.000000 0.000000
vt 0.500000 0.500000
vt 0.000000 0.500000
vt 0.500000 0.000000
vt 0.000000 0.500000
vt 0.000000 0.000000
vt 0.500000 0.500000
vt 0.500000 0.000000
vt 0.000000 0.500000
vt 0.500000 0.500000
vt 0.000000 0.500000
vt 0.500000 0.500000
vt 0.000000 0.500000
vt 0.500000 0.500000
vt 0.000000 0.500000
vt 0.500000 0.000000
vt 0.500000 0.500000
vt 0.000000 0.000000
vt 0.500000 0.500000
vt 0.000000 0.500000
vt 0.500000 0.000000
vt 0.000000 0.500000
vt 0.000000 0.000000
vt 0.500000 0.000000
vt 0.000000 0.500000
vt 0.000000 0.000000
vt 0.500000 0.500000
vt 0.000000 0.000000
vt 0.500000 0.500000
vt 0.500000 0.000000
vt 0.000000 0.500000
vt 0.500000 0.500000
vt 0.000000 0.500000
vt 0.500000 0.000000
vt 0.000000 0.500000
vt 0.500000 0.500000
vt 0.500000 0.500000
vt 0.000000 0.500000
vt 0.500000 0.000000
vt 0.500000 0.500000
vt 0.500000 0.500000
vt 0.500000 0.500000
vt 0.500000 0.000000
vt 0.500000 0.000000
vt 0.500000 0.500000
vt 0.500000 0.500000
vt 0.500000 0.000000
vt 0.500000 0.500000
vt 0.500000 0.500000
vt 0.500000 0.500000
vt 0.500000 0.500000
vt 0.500000 0.000000
vt 0.500000 0.500000
vt 0.500000 0.000000
vt 0.500000 0.500000
vt 0.500000 0.500000
vt 0.500000 0.500000
vt 0.500000 0.000000
vt 0.500000 0.000000
vt 0.500000 0.500000
vt 0.500000 0.500000
vt 0.500000 0.000000
vt 0.500000 0.000000
vt 0.500000 0.000000
vt 0.500000 0.500000
vt 0.500000 0.000000
vt 0.500000 0.500000
vt 0.500000 0.000000
vt 0.500000 0.000000
vt 0.500000 0.500000
vt 0.500000 0.500000
vt 0.500000 0.000000
vt 0.500000 0.500000
vt 0.500000 0.000000
vt 0.500000 0.000000
vt 0.500000 0.000000
vt 0.500000 0.000000
vt 0.500000 0.000000
vt 0.500000 0.500000
vt 0.500000 0.500000
vt 0.500000 0.000000
vt 0.500000 0.500000
vn -0.9992 -0.0394 0.0000
vn -1.0000 0.0000 0.0000
vn -0.9999 -0.0066 0.0082
vn -0.7844 -0.0314 0.6195
vn -0.7543 -0.0923 0.6500
vn -0.7387 -0.1053 0.6658
vn 0.9999 -0.0066 0.0082
vn 1.0000 0.0000 0.0000
vn 0.9992 -0.0394 0.0000
vn 0.0000 0.3089 0.9511
vn 0.9408 0.3302 -0.0759
vn 0.9436 0.3312 0.0000
vn 0.0004 1.0000 -0.0064
vn -0.0031 1.0000 -0.0008
vn 0.0033 0.9954 -0.0957
vn -0.9408 0.3302 0.0759
vn -0.9436 0.3312 -0.0000
vn 0.9408 0.3302 0.0759
vn 0.0000 1.0000 0.0000
vn -0.0163 0.3052 -0.9521
vn -0.0178 0.3126 -0.9497
vn -0.0181 0.3142 -0.9492
vn 0.0000 -1.0000 0.0000
vn 0.0000 0.8426 0.5386
vn 0.3288 0.3303 -0.8848
vn -0.1701 0.4990 -0.8497
vn 0.1701 0.4990 -0.8497
vn -0.0628 0.0941 -0.9936
vn -0.1079 0.3229 -0.9403
vn -0.1360 -0.0470 -0.9896
vn 0.9989 -0.0461 0.0031
vn 0.2310 -0.3557 -0.9056
vn -0.1494 -0.3615 -0.9203
vn -0.2310 -0.3557 -0.9056
vn 0.0000 0.0000 -1.0000
vn 0.3947 0.9186 -0.0203
vn 0.3980 0.9174 0.0035
vn -0.0092 0.9999 0.0143
vn 0.0000 0.7071 0.7071
vn -0.8956 0.3708 -0.2460
vn 0.7844 -0.0314 0.6195
vn 0.7543 -0.0923 0.6500
vn 0.7974 -0.0213 0.6031
vn -0.5132 0.3741 0.7724
vn -0.6385 0.1639 0.7520
vn -0.6326 0.1757 0.7543
vn 0.6385 0.1639 0.7520
vn 0.5132 0.3741 0.7724
vn 0.6326 0.1757 0.7543
vn 0.4604 -0.1633 -0.8726
vn -0.1107 -0.0909 -0.9897
vn -0.3213 -0.2638 -0.9095
vn 0.0000 -0.1221 0.9925
vn 0.0000 -0.0608 0.9982
vn -0.7964 0.4046 -0.4495
vn -0.8773 0.3801 -0.2930
vn 0.6022 0.4168 -0.6809
vn 0.6022 0.4167 -0.6809
vn 0.4933 0.4095 0.7675
vn -0.4933 0.4095 0.7675
vn -0.8610 0.5086 0.0000
vn 0.8610 0.5086 0.0000
vn -0.1129 0.9362 0.3329
vn 0.1409 0.9302 0.3390
vn 0.1129 0.9362 0.3329
vn 0.8323 0.0304 0.5535
vn 0.6936 0.6972 0.1812
vn 0.7053 0.7089 0.0000
vn -0.6424 0.6457 0.4127
vn -0.6936 0.6972 0.1812
vn -0.6856 0.6892 0.2344
vn -0.7053 0.7089 0.0000
vn 0.6424 0.6457 0.4127
vn 0.6856 0.6892 0.2344
vn -0.7974 -0.0213 0.6031
vn -0.8323 0.0304 0.5535
vn -0.8408 0.0352 0.5402
vn -0.3947 0.9186 -0.0203
vn -0.3980 0.9174 0.0035
vn -0.3954 0.9184 -0.0157
vn -0.4778 -0.3212 -0.8177
vn 0.5045 0.0000 -0.8634
vn -0.4884 0.2501 -0.8360
vn -0.5045 0.0000 -0.8634
vn 0.4778 -0.3212 -0.8177
vn -0.3288 0.3303 -0.8848
vn -0.4499 0.4523 -0.7701
vn 0.4499 0.4523 -0.7701
vn -0.0304 0.0683 -0.9972
vn -0.0492 0.3406 -0.9389
vn 0.0000 0.0000 1.0000
vn -0.9975 -0.0701 0.0060
vn -0.7046 0.0071 0.7096
vn 0.7046 0.0071 0.7096
vn 0.7046 0.0071 0.7095
vn -1.0000 0.0028 0.0001
vn 1.0000 0.0028 0.0001
vn 0.9869 0.1609 0.0083
vn 0.0000 -0.1563 0.9877
vn -0.9869 0.1609 0.0083
vn -0.9861 0.1658 0.0086
vn -0.9989 -0.0461 0.0031
vn 0.9975 -0.0701 0.0060
vn -0.3919 0.9192 -0.0398
vn -0.2589 0.8956 0.3616
vn -0.1409 0.9302 0.3390
vn 0.3919 0.9192 -0.0398
vn 0.3954 0.9184 -0.0157
vn 0.2589 0.8956 0.3616
vn -0.0160 0.3042 -0.9525
vn 0.1494 -0.3615 -0.9203
vn 0.7387 -0.1053 0.6658
vn -0.5266 0.7918 0.3096
vn 0.5266 0.7918 0.3096
vn 0.8408 0.0352 0.5402
vn 0.4884 0.2501 -0.8360
vn -0.9995 0.0000 0.0330
vn 0.9861 0.1658 0.0086
vn -0.9955 -0.0945 0.0086
vn 0.9955 -0.0945 0.0086
vn 0.9995 0.0000 0.0330
s 1
f 71/1/1 6/2/2 72/3/3
f 79/4/4 87/5/5 88/6/6
f 71/7/1 49/8/2 5/9/2
f 69/10/7 8/11/8 70/12/9
f 25/13/10 36/14/10 37/15/10
f 32/16/11 2/17/12 22/18/11
f 60/19/13 30/20/14 63/21/15
f 38/22/16 1/23/17 26/24/16
f 35/25/18 2/26/12 4/27/12
f 41/28/19 39/29/19 44/30/19
f 59/31/19 4/32/19 32/33/19
f 11/34/19 36/14/19 16/35/19
f 17/36/19 4/37/19 33/38/19
f 40/39/8 7/40/8 43/41/8
f 6/42/2 42/43/2 55/44/2
f 31/45/20 20/46/21 30/47/22
f 52/48/23 69/49/23 73/50/23
f 45/51/24 48/52/24 39/53/24
f 53/54/25 41/55/26 44/30/27
f 13/56/28 60/57/29 63/58/30
f 70/59/9 47/60/8 84/61/31
f 46/62/2 5/63/2 49/8/2
f 51/64/32 13/65/33 58/66/34
f 40/67/8 47/68/8 8/69/8
f 67/70/35 53/71/35 66/72/35
f 58/73/23 66/74/23 51/75/23
f 52/76/8 73/77/8 85/78/8
f 10/79/19 3/80/19 38/81/19
f 34/82/36 89/83/37 14/84/37
f 64/85/38 3/86/19 27/87/19
f 6/88/2 68/89/2 72/3/3
f 43/41/8 7/90/8 54/91/8
f 42/43/2 5/9/2 46/62/2
f 75/92/39 16/93/39 78/94/39
f 29/95/40 1/96/17 3/97/17
f 57/98/2 86/99/2 74/100/2
f 83/101/41 89/102/42 84/103/43
f 69/10/7 54/104/8 7/105/8
f 57/98/23 72/106/23 68/89/23
f 10/107/44 75/108/45 76/109/46
f 78/110/47 17/111/48 77/112/49
f 59/31/50 60/19/50 61/113/50
f 62/114/51 63/115/30 64/116/52
f 88/117/53 83/118/54 79/4/54
f 30/47/55 19/119/56 29/120/40
f 32/16/57 21/121/57 31/122/58
f 24/123/59 35/124/59 36/125/59
f 38/22/60 25/126/60 37/127/60
f 81/128/61 64/116/61 27/129/61
f 77/130/62 33/131/62 82/132/62
f 15/133/63 88/6/64 12/134/65
f 76/109/61 27/135/61 10/136/61
f 82/137/62 59/138/62 61/139/62
f 30/140/14 64/141/38 63/21/15
f 59/31/19 31/142/19 60/143/13
f 36/144/19 17/111/19 16/35/19
f 10/79/19 37/145/19 11/146/19
f 84/61/43 48/147/66 83/118/41
f 39/148/67 43/149/68 44/30/68
f 49/150/69 45/151/70 46/62/71
f 41/28/72 46/152/71 45/153/70
f 39/53/67 47/154/73 40/155/74
f 80/156/75 50/157/76 49/158/77
f 28/159/78 87/5/79 91/160/80
f 86/161/81 58/162/34 13/65/33
f 53/54/25 65/163/82 66/72/82
f 55/164/83 67/165/84 68/166/84
f 85/167/85 51/168/32 52/76/85
f 56/169/86 42/170/87 41/171/26
f 43/41/88 53/172/25 44/173/27
f 61/174/89 18/175/90 85/176/35
f 62/114/51 13/177/28 63/58/30
f 66/178/23 52/179/23 51/75/23
f 57/98/23 67/180/23 58/181/23
f 79/4/54 48/147/91 50/157/91
f 72/3/3 91/182/92 71/183/1
f 12/134/93 76/184/46 75/108/45
f 15/133/94 77/185/49 14/84/95
f 28/159/96 62/186/2 81/187/2
f 34/188/97 77/189/98 82/190/8
f 12/191/99 78/192/99 15/193/99
f 28/194/96 76/195/100 9/196/101
f 61/139/8 34/82/97 82/197/8
f 91/198/92 80/199/102 71/183/1
f 84/200/31 92/201/103 70/12/9
f 72/3/35 86/202/35 62/203/51
f 62/114/104 28/194/78 91/182/80
f 14/204/105 90/205/106 15/193/63
f 34/188/36 61/174/107 92/206/108
f 9/196/109 88/207/64 87/208/109
f 92/209/103 69/49/7 70/12/9
f 85/167/35 69/49/35 61/139/89
f 71/1/1 5/210/2 6/2/2
f 79/4/4 80/156/75 87/5/5
f 71/7/1 80/156/102 49/8/2
f 69/10/7 7/211/8 8/11/8
f 25/13/10 24/212/10 36/14/10
f 32/16/11 4/213/12 2/17/12
f 60/19/13 31/142/19 30/20/14
f 38/22/16 3/214/17 1/23/17
f 35/25/18 23/215/18 2/26/12
f 41/28/19 45/216/19 39/29/19
f 59/31/19 33/217/19 4/32/19
f 11/34/19 37/145/19 36/14/19
f 17/36/19 35/218/19 4/37/19
f 40/39/8 8/69/8 7/40/8
f 31/45/20 21/121/110 20/46/21
f 52/48/23 65/219/23 69/49/23
f 45/51/24 50/220/24 48/52/24
f 53/54/25 56/221/86 41/55/26
f 13/56/28 18/222/90 60/57/29
f 70/59/9 8/69/8 47/60/8
f 51/64/32 18/223/111 13/65/33
f 67/70/35 56/221/35 53/71/35
f 58/73/23 67/180/23 66/74/23
f 10/79/19 27/224/19 3/80/19
f 34/82/36 92/206/108 89/83/37
f 64/85/38 29/225/19 3/86/19
f 6/88/2 55/44/2 68/89/2
f 42/43/2 6/226/2 5/9/2
f 75/92/39 11/227/39 16/93/39
f 29/95/40 19/119/56 1/96/17
f 83/101/41 90/228/112 89/102/42
f 69/10/7 65/219/8 54/104/8
f 57/98/23 74/229/23 72/106/23
f 10/107/113 11/227/113 75/108/113
f 78/110/114 16/230/114 17/111/114
f 88/117/53 90/231/53 83/118/54
f 30/47/55 20/232/55 19/119/56
f 32/16/57 22/233/57 21/121/57
f 24/123/59 23/215/59 35/124/59
f 38/22/60 26/234/60 25/126/60
f 81/128/61 62/186/61 64/116/61
f 77/130/62 17/235/62 33/131/62
f 15/133/63 90/231/106 88/6/64
f 76/109/61 81/236/61 27/135/61
f 82/137/62 33/237/62 59/138/62
f 30/140/14 29/225/19 64/141/38
f 59/31/19 32/238/19 31/142/19
f 36/144/19 35/218/19 17/111/19
f 10/79/19 38/239/19 37/145/19
f 84/61/43 47/68/115 48/147/66
f 39/148/67 40/240/74 43/149/68
f 49/150/69 50/220/69 45/151/70
f 41/28/72 42/241/72 46/152/71
f 39/53/67 48/242/73 47/154/73
f 80/156/75 79/243/4 50/157/76
f 28/159/78 9/244/79 87/5/79
f 86/161/81 57/245/81 58/162/34
f 53/54/25 54/91/116 65/163/82
f 55/164/83 56/221/86 67/165/84
f 85/167/85 18/223/111 51/168/32
f 56/169/86 55/44/83 42/170/87
f 43/41/88 54/246/116 53/172/25
f 61/174/89 60/57/29 18/175/90
f 62/114/51 86/99/35 13/177/28
f 66/178/23 65/219/23 52/179/23
f 57/98/23 68/247/23 67/180/23
f 79/4/54 83/248/54 48/147/91
f 72/3/3 62/186/117 91/182/92
f 12/134/93 9/244/93 76/184/46
f 15/133/94 78/249/47 77/185/49
f 34/188/97 14/204/118 77/189/98
f 12/191/99 75/250/99 78/192/99
f 28/194/96 81/187/2 76/195/100
f 91/198/92 87/251/119 80/199/102
f 84/200/31 89/102/120 92/201/103
f 72/3/35 74/229/35 86/202/35
f 14/204/105 89/102/105 90/205/106
f 9/196/109 12/191/65 88/207/64
f 92/209/103 61/113/121 69/49/7
f 85/167/35 73/252/35 69/49/35
