# Blender v2.79 (sub 0) OBJ File: 'launcher4.blend'
# www.blender.org
o Cube_Cube.011
v 0.242411 -0.395478 -0.169651
v 0.053238 -0.395478 0.433782
v 0.242411 -0.395478 0.433782
v -0.053238 -0.202811 0.433782
v -0.053238 -0.395478 -0.169651
v -0.053238 -0.395478 0.433782
v -0.242411 0.395478 -0.169651
v -0.053238 0.395478 0.433782
v -0.242411 0.395478 0.433782
v -0.295649 0.448716 -0.498900
v -0.295649 0.149572 0.501100
v -0.295649 0.448716 0.501100
v -0.053238 -0.096333 0.433782
v -0.295649 -0.149572 0.501100
v 0.000000 -0.149572 0.501100
v 0.000000 0.448716 0.501100
v 0.295649 0.448716 -0.498900
v 0.000000 0.448716 -0.498900
v -0.242411 0.096333 -0.169651
v -0.053238 0.096333 0.433782
v -0.242411 0.096333 0.433782
v -0.053238 -0.096333 -0.169651
v -0.053238 0.096333 -0.169651
v 0.053238 0.395478 -0.169651
v 0.242411 0.202811 -0.169651
v 0.242411 0.395478 -0.169651
v 0.053238 0.096333 -0.169651
v 0.242411 0.096333 0.433782
v 0.053238 0.096333 0.433782
v -0.242411 -0.395478 0.433782
v 0.242411 -0.096333 -0.169651
v 0.242411 0.096333 -0.169651
v 0.295649 -0.448716 0.501099
v 0.000000 -0.448716 -0.498901
v 0.295649 -0.448716 -0.498901
v 0.053238 -0.202811 -0.169651
v 0.242411 -0.202811 -0.169651
v 0.053238 -0.096333 -0.169651
v 0.053238 -0.096333 0.433782
v -0.053238 0.202811 0.433782
v 0.000000 0.149572 0.501100
v 0.242411 -0.202811 0.433782
v 0.295649 -0.149572 0.501100
v 0.242411 0.395478 0.433782
v 0.295649 0.448716 0.501100
v 0.053238 0.202811 0.433782
v 0.000000 -0.448716 0.501099
v -0.295649 -0.448716 0.501099
v -0.242411 -0.202811 0.433782
v 0.242411 -0.096333 0.433782
v 0.295649 0.149572 0.501100
v 0.242411 0.202811 0.433782
v -0.242411 0.202811 0.433782
v -0.053238 0.202811 -0.169651
v -0.053238 0.395478 -0.169651
v -0.242411 0.202811 -0.169651
v -0.242411 -0.202811 -0.169651
v -0.053238 -0.202811 -0.169651
v 0.053238 0.395478 0.433782
v 0.295649 -0.149572 -0.498901
v 0.295649 0.149572 -0.498900
v -0.242411 -0.096333 0.433782
v -0.295649 -0.448716 -0.498901
v 0.053238 0.202811 -0.169651
v -0.295649 0.149572 -0.498900
v 0.053238 -0.395478 -0.169651
v 0.053238 -0.202811 0.433782
v -0.295649 -0.149572 -0.498901
v -0.242411 -0.395478 -0.169651
v -0.242411 -0.096333 -0.169651
vt 0.500000 0.000000
vt 0.000000 0.500000
vt 0.000000 0.000000
vt 0.500000 0.000000
vt 0.000000 0.500000
vt 0.000000 0.000000
vt 0.500000 0.000000
vt 0.000000 0.500000
vt 0.000000 0.000000
vt 0.500000 0.000000
vt 0.000000 0.500000
vt 0.000000 0.000000
vt 0.500000 0.000000
vt 0.000000 0.500000
vt 0.000000 0.000000
vt 0.000000 0.000000
vt 0.500000 0.500000
vt 0.000000 0.500000
vt 0.500000 0.000000
vt 0.000000 0.500000
vt 0.000000 0.000000
vt 0.500000 0.000000
vt 0.000000 0.500000
vt 0.000000 0.000000
vt 0.500000 0.000000
vt 0.000000 0.500000
vt 0.000000 0.000000
vt 0.500000 0.000000
vt 0.000000 0.500000
vt 0.500000 0.000000
vt 0.000000 0.500000
vt 0.000000 0.000000
vt 0.000000 0.500000
vt 0.000000 0.000000
vt 0.500000 0.000000
vt 0.000000 0.500000
vt 0.000000 0.000000
vt 0.500000 0.000000
vt 0.000000 0.500000
vt 0.000000 0.000000
vt 0.500000 0.000000
vt 0.000000 0.500000
vt 0.500000 0.000000
vt 0.000000 0.500000
vt 0.000000 0.000000
vt 0.500000 0.000000
vt 0.000000 0.500000
vt 0.000000 0.000000
vt 0.500000 0.000000
vt 0.000000 0.000000
vt 0.500000 0.000000
vt 0.000000 0.500000
vt 0.000000 0.000000
vt 0.500000 0.000000
vt 0.000000 0.000000
vt 0.500000 0.000000
vt 0.000000 0.500000
vt 0.000000 0.000000
vt 0.500000 0.000000
vt 0.000000 0.500000
vt 0.000000 0.000000
vt 0.500000 0.000000
vt 0.000000 0.500000
vt 0.000000 0.000000
vt 0.500000 0.000000
vt 0.500000 0.000000
vt 0.500000 0.000000
vt 0.000000 0.000000
vt 0.000000 0.000000
vt 0.500000 0.500000
vt 0.000000 0.500000
vt 0.000000 0.000000
vt 0.500000 0.500000
vt 0.500000 0.000000
vt 0.000000 0.000000
vt 0.500000 0.000000
vt 0.000000 0.000000
vt 0.000000 0.500000
vt 0.000000 0.000000
vt 0.500000 0.000000
vt 0.000000 0.000000
vt 0.500000 0.500000
vt 0.000000 0.000000
vt 0.500000 0.500000
vt 0.500000 0.000000
vt 0.000000 0.500000
vt 0.500000 0.000000
vt 0.000000 0.000000
vt 0.000000 0.500000
vt 0.500000 0.000000
vt 0.000000 0.500000
vt 0.500000 0.000000
vt 0.000000 0.500000
vt 0.000000 0.000000
vt 0.500000 0.000000
vt 0.000000 0.500000
vt 0.500000 0.000000
vt 0.000000 0.500000
vt 0.000000 0.000000
vt 0.500000 0.000000
vt 0.000000 0.000000
vt 0.500000 0.000000
vt 0.000000 0.500000
vt 0.000000 0.000000
vt 0.500000 0.000000
vt 0.000000 0.500000
vt 0.000000 0.000000
vt 0.000000 0.500000
vt 0.000000 0.000000
vt 0.000000 0.500000
vt 0.000000 0.000000
vt 0.500000 0.000000
vt 0.000000 0.500000
vt 0.000000 0.000000
vt 0.000000 0.500000
vt 0.500000 0.000000
vt 0.000000 0.500000
vt 0.000000 0.000000
vt 0.000000 0.000000
vt 0.000000 0.500000
vt 0.000000 0.000000
vt 0.000000 0.000000
vt 0.500000 0.000000
vt 0.000000 0.500000
vt 0.000000 0.000000
vt 0.500000 0.000000
vt 0.000000 0.000000
vt 0.500000 0.000000
vt 0.000000 0.500000
vt 0.000000 0.000000
vt 0.500000 0.000000
vt 0.000000 0.000000
vt 0.500000 0.000000
vt 0.000000 0.500000
vt 0.000000 0.000000
vt 0.500000 0.000000
vt 0.000000 0.500000
vt 0.000000 0.000000
vt 0.000000 0.500000
vt 0.000000 0.000000
vt 0.500000 0.500000
vt 0.500000 0.500000
vt 0.500000 0.500000
vt 0.500000 0.500000
vt 0.500000 0.500000
vt 0.500000 0.000000
vt 0.500000 0.500000
vt 0.500000 0.500000
vt 0.500000 0.500000
vt 0.500000 0.500000
vt 0.500000 0.500000
vt 0.500000 0.500000
vt 0.500000 0.500000
vt 0.500000 0.500000
vt 0.500000 0.500000
vt 0.500000 0.500000
vt 0.500000 0.500000
vt 0.500000 0.500000
vt 0.500000 0.500000
vt 0.500000 0.500000
vt 0.500000 0.500000
vt 0.500000 0.000000
vt 0.500000 0.500000
vt 0.500000 0.500000
vt 0.500000 0.000000
vt 0.500000 0.500000
vt 0.500000 0.500000
vt 0.500000 0.500000
vt 0.500000 0.500000
vt 0.500000 0.500000
vt 0.500000 0.500000
vt 0.500000 0.500000
vt 0.500000 0.500000
vt 0.500000 0.500000
vt 0.500000 0.500000
vt 0.500000 0.500000
vt 0.500000 0.500000
vt 0.500000 0.500000
vt 0.500000 0.500000
vt 0.500000 0.500000
vt 0.500000 0.500000
vt 0.500000 0.500000
vn 0.0000 -0.0000 1.0000
vn 1.0000 0.0000 0.0000
vn 0.0000 -1.0000 -0.0000
vn 0.0000 0.7844 0.6203
vn 0.0000 -0.7844 0.6203
vn 0.0000 1.0000 0.0000
vn -1.0000 -0.0000 0.0000
vn -0.7844 0.0000 0.6203
vn 0.7844 -0.0000 0.6203
s 1
f 38/1/1 32/2/1 27/3/1
f 36/4/2 2/5/2 66/6/2
f 51/7/2 17/8/2 45/9/2
f 26/10/3 59/11/3 24/12/3
f 39/13/4 43/14/4 50/15/4
f 11/16/5 20/17/5 41/18/5
f 70/19/6 13/20/6 22/21/6
f 7/22/2 53/23/2 56/24/2
f 66/25/1 37/26/1 36/27/1
f 37/28/3 67/29/3 36/27/3
f 56/30/1 55/31/1 7/32/1
f 26/10/7 52/33/7 44/34/7
f 48/35/3 34/36/3 47/37/3
f 45/38/6 18/39/6 16/40/6
f 55/41/3 9/42/3 7/32/3
f 23/43/3 21/44/3 19/45/3
f 46/46/4 51/47/4 52/48/4
f 50/49/8 51/47/8 28/50/8
f 67/51/9 47/52/9 2/53/9
f 3/54/8 43/14/8 42/55/8
f 40/56/4 11/57/4 41/58/4
f 4/59/5 14/60/5 49/61/5
f 2/62/4 33/63/4 3/64/4
f 8/65/8 41/18/8 16/40/8
f 44/66/8 51/47/8 45/9/8
f 13/67/8 41/18/8 20/68/8
f 13/69/4 14/70/4 15/71/4
f 29/72/5 51/73/5 41/18/5
f 29/74/9 15/71/9 39/75/9
f 59/76/9 41/18/9 46/77/9
f 8/65/5 12/78/5 9/79/5
f 30/80/9 14/60/9 48/81/9
f 11/16/9 9/82/9 12/78/9
f 15/83/8 6/84/8 47/52/8
f 6/85/4 48/86/4 47/37/4
f 62/87/9 11/57/9 14/88/9
f 67/51/5 43/14/5 15/83/5
f 59/76/5 45/89/5 16/40/5
f 32/90/3 29/91/3 27/3/3
f 19/92/2 62/93/2 70/94/2
f 64/95/1 26/96/1 24/12/1
f 58/97/7 6/98/7 4/99/7
f 68/100/7 11/57/7 65/101/7
f 47/102/3 35/103/3 33/104/3
f 69/105/1 58/106/1 57/107/1
f 56/30/6 40/108/6 54/109/6
f 66/25/6 3/110/6 1/111/6
f 27/112/2 39/113/2 38/114/2
f 58/97/3 49/115/3 57/107/3
f 16/116/6 10/117/6 12/118/6
f 64/95/6 52/33/6 25/119/6
f 38/1/6 50/120/6 31/121/6
f 69/105/6 6/98/6 5/122/6
f 23/43/7 13/20/7 20/68/7
f 32/90/7 50/120/7 28/50/7
f 37/28/7 3/110/7 42/55/7
f 57/123/2 30/124/2 69/125/2
f 65/126/7 12/78/7 10/127/7
f 43/128/2 61/129/2 51/130/2
f 63/131/7 14/60/7 68/132/7
f 24/133/2 46/134/2 64/135/2
f 33/136/2 60/137/2 43/138/2
f 70/19/1 23/139/1 19/45/1
f 55/41/7 40/108/7 8/140/7
f 38/1/1 31/141/1 32/2/1
f 36/4/2 67/142/2 2/5/2
f 51/7/2 61/143/2 17/8/2
f 26/10/3 44/144/3 59/11/3
f 39/13/4 15/145/4 43/14/4
f 11/16/5 21/146/5 20/17/5
f 70/19/6 62/147/6 13/20/6
f 7/22/2 9/82/2 53/23/2
f 66/25/1 1/148/1 37/26/1
f 37/28/3 42/149/3 67/29/3
f 56/30/1 54/150/1 55/31/1
f 26/10/7 25/151/7 52/33/7
f 48/35/3 63/152/3 34/36/3
f 45/38/6 17/153/6 18/39/6
f 55/41/3 8/154/3 9/42/3
f 23/43/3 20/17/3 21/44/3
f 46/46/4 41/155/4 51/47/4
f 50/49/8 43/156/8 51/47/8
f 67/51/9 15/145/9 47/52/9
f 3/54/8 33/157/8 43/14/8
f 40/56/4 53/158/4 11/57/4
f 4/59/5 15/145/5 14/60/5
f 2/62/4 47/159/4 33/63/4
f 8/65/8 40/160/8 41/18/8
f 44/66/8 52/161/8 51/47/8
f 13/67/8 15/145/8 41/18/8
f 13/69/4 62/87/4 14/70/4
f 29/72/5 28/162/5 51/73/5
f 29/74/9 41/155/9 15/71/9
f 59/76/9 16/163/9 41/18/9
f 8/65/5 16/163/5 12/78/5
f 30/80/9 49/164/9 14/60/9
f 11/16/9 53/165/9 9/82/9
f 15/83/8 4/59/8 6/84/8
f 6/85/4 30/166/4 48/86/4
f 62/87/9 21/167/9 11/57/9
f 67/51/5 42/149/5 43/14/5
f 59/76/5 44/144/5 45/89/5
f 32/90/3 28/168/3 29/91/3
f 19/92/2 21/167/2 62/93/2
f 64/95/1 25/151/1 26/96/1
f 58/97/7 5/169/7 6/98/7
f 68/100/7 14/70/7 11/57/7
f 47/102/3 34/170/3 35/103/3
f 69/105/1 5/169/1 58/106/1
f 56/30/6 53/158/6 40/108/6
f 66/25/6 2/171/6 3/110/6
f 27/112/2 29/172/2 39/113/2
f 58/97/3 4/173/3 49/115/3
f 16/116/6 18/174/6 10/117/6
f 64/95/6 46/175/6 52/33/6
f 38/1/6 39/176/6 50/120/6
f 69/105/6 30/166/6 6/98/6
f 23/43/7 22/177/7 13/20/7
f 32/90/7 31/141/7 50/120/7
f 37/28/7 1/148/7 3/110/7
f 57/123/2 49/164/2 30/124/2
f 65/126/7 11/178/7 12/78/7
f 43/128/2 60/179/2 61/129/2
f 63/131/7 48/180/7 14/60/7
f 24/133/2 59/181/2 46/134/2
f 33/136/2 35/182/2 60/137/2
f 70/19/1 22/177/1 23/139/1
f 55/41/7 54/150/7 40/108/7
