# Blender v2.79 (sub 0) OBJ File: 'turret6.blend'
# www.blender.org
o Static_Plane.003
v 0.499998 0.601868 -0.288674
v 0.279865 0.747906 0.161580
v 0.499998 0.601867 0.288675
v -0.499999 0.601867 0.288675
v -0.288675 0.003850 0.499998
v -0.288675 0.601867 0.499998
v 0.288675 0.601868 -0.499998
v 0.499998 0.003850 -0.288675
v 0.288675 0.003850 -0.499998
v -0.499999 0.601868 -0.288674
v -0.499999 0.003850 0.288675
v 0.499998 0.003850 0.288675
v -0.288675 0.601868 -0.499998
v -0.499999 0.003850 -0.288675
v -0.161581 0.747906 -0.279865
v -0.279866 0.747906 0.161580
v -0.288675 0.003850 -0.499998
v 0.288675 0.601867 0.499998
v 0.288675 0.003850 0.499998
v 0.161580 0.747906 -0.279865
v 0.161580 0.747906 0.279866
v -0.161581 0.747906 0.279866
v -0.279866 0.747906 -0.161581
v 0.279865 0.747906 -0.161581
vt 0.000000 0.000000
vt 0.500000 0.500000
vt 0.000000 0.500000
vt 0.500000 0.000000
vt 0.000000 0.500000
vt 0.000000 0.000000
vt 0.000000 0.000000
vt 0.500000 0.500000
vt 0.000000 0.500000
vt 0.000000 0.000000
vt 0.500000 0.500000
vt 0.000000 0.500000
vt 0.500000 0.000000
vt 0.000000 0.500000
vt 0.000000 0.000000
vt 0.000000 0.000000
vt 0.500000 0.500000
vt 0.000000 0.500000
vt 0.500000 0.000000
vt 0.000000 0.500000
vt 0.500000 0.000000
vt 0.000000 0.000000
vt 0.000000 0.000000
vt 0.000000 0.500000
vt 0.000000 0.000000
vt 0.500000 0.500000
vt 0.000000 0.000000
vt 0.000000 0.000000
vt 0.500000 0.500000
vt 0.000000 0.500000
vt 0.500000 0.500000
vt 0.000000 0.500000
vt 0.000000 0.000000
vt 0.500000 0.500000
vt 0.426777 0.073223
vt 0.000000 0.250000
vt 0.073223 0.426777
vt 0.000000 0.000000
vt 0.500000 0.500000
vt 0.500000 0.000000
vt 0.000000 0.500000
vt 0.500000 0.000000
vt 0.500000 0.000000
vt 0.500000 0.500000
vt 0.500000 0.000000
vt 0.500000 0.500000
vt 0.500000 0.500000
vt 0.500000 0.000000
vt 0.500000 0.000000
vt 0.500000 0.000000
vt 0.500000 0.000000
vt 0.500000 0.000000
vt 0.500000 0.000000
vt 0.250000 0.500000
vt 0.426777 0.426777
vt 0.500000 0.250000
vt 0.250000 0.000000
vt 0.073223 0.073223
vt 0.500000 0.000000
vt 0.500000 0.500000
vn 0.1739 0.8639 -0.4727
vn -0.2012 0.8658 -0.4582
vn -0.1739 0.8639 -0.4727
vn 0.0000 -0.0000 1.0000
vn -0.7071 0.0000 -0.7071
vn 0.7071 0.0000 -0.7071
vn -1.0000 0.0000 0.0000
vn 0.4582 0.8658 0.2012
vn 0.1739 0.8639 0.4727
vn 0.2012 0.8658 0.4582
vn 0.7071 -0.0000 0.7071
vn 1.0000 0.0000 0.0000
vn -0.2012 0.8658 0.4582
vn -0.1739 0.8639 0.4727
vn -0.4727 0.8639 0.1739
vn -0.4582 0.8658 -0.2012
vn -0.4582 0.8658 0.2012
vn -0.4727 0.8639 -0.1739
vn 0.2012 0.8658 -0.4582
vn 0.4727 0.8639 -0.1739
vn 0.4582 0.8658 -0.2012
vn 0.4727 0.8639 0.1739
vn 0.0000 1.0000 0.0000
vn -0.7071 -0.0000 0.7071
vn 0.0000 0.0000 -1.0000
s 1
f 20/1/1 13/2/2 15/3/3
f 6/4/4 19/5/4 18/6/4
f 13/7/5 14/8/5 10/9/5
f 7/10/6 8/11/6 9/12/6
f 14/13/7 4/14/7 10/15/7
f 3/16/8 21/17/9 18/18/10
f 19/19/11 3/20/11 18/6/11
f 8/21/12 3/20/12 12/22/12
f 6/23/13 21/17/9 22/24/14
f 16/25/15 10/26/16 4/14/17
f 23/27/18 13/2/2 10/9/16
f 22/28/14 4/29/17 6/30/13
f 7/10/19 24/31/20 1/32/21
f 1/33/21 2/34/22 3/20/8
f 20/35/23 16/36/23 22/37/23
f 4/38/24 5/39/24 6/30/24
f 7/40/25 17/41/25 13/7/25
f 20/1/1 7/40/19 13/2/2
f 6/4/4 5/39/4 19/5/4
f 13/7/5 17/42/5 14/8/5
f 7/10/6 1/43/6 8/11/6
f 14/13/7 11/44/7 4/14/7
f 3/16/8 2/45/22 21/17/9
f 19/19/11 12/46/11 3/20/11
f 8/21/12 1/47/12 3/20/12
f 6/23/13 18/48/10 21/17/9
f 16/25/15 23/49/18 10/26/16
f 23/27/18 15/50/3 13/2/2
f 22/28/14 16/51/15 4/29/17
f 7/10/19 20/52/1 24/31/20
f 1/33/21 24/53/20 2/34/22
f 22/37/23 21/54/23 2/55/23
f 2/55/23 24/56/23 20/35/23
f 20/35/23 15/57/23 23/58/23
f 23/58/23 16/36/23 20/35/23
f 22/37/23 2/55/23 20/35/23
f 4/38/24 11/59/24 5/39/24
f 7/40/25 9/60/25 17/41/25
