# Blender v2.79 (sub 0) OBJ File: 'cannon10.blend'
# www.blender.org
o Icosphere.001
v 0.000000 0.237659 0.000000
v 0.163751 0.360856 0.118971
v -0.062546 0.360856 0.192500
v -0.202407 0.360857 0.000000
v -0.062546 0.360856 -0.192500
v 0.163751 0.360856 -0.118971
v 0.062546 0.416039 0.192500
v -0.163751 0.416039 0.118971
v -0.163751 0.416039 -0.118971
v 0.062546 0.416039 -0.192500
v 0.202407 0.416039 0.000000
v 0.000000 0.277579 0.000000
v -0.036763 0.271455 0.113148
v 0.096250 0.271455 0.069929
v 0.059487 0.344745 0.183078
v 0.192500 0.344745 0.000000
v 0.096250 0.271455 -0.069929
v -0.118972 0.271456 0.000000
v -0.155736 0.344745 0.113148
v -0.036763 0.271455 -0.113148
v -0.155736 0.344745 -0.113148
v 0.059487 0.344745 -0.183078
v 0.215223 0.420358 0.069929
v 0.215223 0.420358 -0.069929
v 0.000000 0.420358 0.226298
v 0.133015 0.420358 0.183079
v -0.215223 0.420358 0.069929
v -0.133015 0.420358 0.183079
v -0.133015 0.420358 -0.183079
v -0.215223 0.420358 -0.069929
v 0.133015 0.420358 -0.183079
v 0.000000 0.420358 -0.226298
v 0.155736 0.407289 0.113148
v -0.059487 0.407289 0.183078
v -0.192500 0.407289 0.000000
v -0.059487 0.407289 -0.183078
v 0.155736 0.407289 -0.113148
v 0.036763 0.337375 0.113148
v 0.118972 0.337376 0.000000
v -0.096250 0.337375 0.069929
v -0.096250 0.337375 -0.069929
v 0.036763 0.337375 -0.113148
v -0.036912 -0.000094 0.036912
v -0.036912 0.289744 0.036912
v -0.036912 -0.000094 -0.036912
v -0.036912 0.289744 -0.036912
v 0.036912 -0.000094 0.036912
v 0.036912 0.289744 0.036912
v 0.036912 -0.000094 -0.036912
v 0.036912 0.289744 -0.036912
vt 0.000000 0.000000
vt 0.500000 0.000000
vt 0.500000 0.500000
vt 0.000000 0.000000
vt 0.500000 0.500000
vt 0.500000 0.000000
vt 0.500000 0.500000
vt 0.500000 0.000000
vt 0.500000 0.500000
vt 0.500000 0.000000
vt 0.500000 0.500000
vt 0.500000 0.000000
vt 0.500000 0.500000
vt 0.000000 0.000000
vt 0.500000 0.000000
vt 0.500000 0.500000
vt 0.000000 0.000000
vt 0.500000 0.000000
vt 0.500000 0.500000
vt 0.000000 0.000000
vt 0.500000 0.000000
vt 0.500000 0.500000
vt 0.000000 0.000000
vt 0.500000 0.000000
vt 0.500000 0.500000
vt 0.500000 0.000000
vt 0.500000 0.500000
vt 0.500000 0.000000
vt 0.500000 0.500000
vt 0.500000 0.000000
vt 0.500000 0.500000
vt 0.500000 0.000000
vt 0.500000 0.500000
vt 0.500000 0.000000
vt 0.500000 0.500000
vt 0.000000 0.000000
vt 0.500000 0.000000
vt 0.500000 0.500000
vt 0.000000 0.000000
vt 0.500000 0.000000
vt 0.500000 0.500000
vt 0.000000 0.000000
vt 0.500000 0.000000
vt 0.500000 0.500000
vt 0.000000 0.000000
vt 0.500000 0.000000
vt 0.500000 0.500000
vt 0.000000 0.000000
vt 0.500000 0.000000
vt 0.500000 0.500000
vt 0.000000 0.000000
vt 0.500000 0.000000
vt 0.500000 0.500000
vt 0.000000 0.000000
vt 0.500000 0.000000
vt 0.000000 0.000000
vt 0.500000 0.000000
vt 0.000000 0.000000
vt 0.500000 0.000000
vt 0.000000 0.000000
vt 0.500000 0.000000
vt 0.000000 0.000000
vt 0.500000 0.000000
vt 0.000000 0.000000
vt 0.500000 0.000000
vt 0.000000 0.000000
vt 0.500000 0.000000
vt 0.000000 0.000000
vt 0.500000 0.000000
vt 0.000000 0.000000
vt 0.500000 0.000000
vt 0.000000 0.000000
vt 0.500000 0.500000
vt 0.500000 0.500000
vt 0.000000 0.000000
vt 0.000000 0.000000
vt 0.500000 0.500000
vt 0.500000 0.500000
vt 0.000000 0.000000
vt 0.000000 0.000000
vt 0.500000 0.500000
vt 0.500000 0.500000
vt 0.000000 0.000000
vt 0.000000 0.000000
vt 0.500000 0.500000
vt 0.500000 0.500000
vt 0.000000 0.000000
vt 0.000000 0.000000
vt 0.500000 0.500000
vt 0.500000 0.500000
vt 0.000000 0.000000
vt 0.500000 0.000000
vt 0.000000 0.000000
vt 0.500000 0.000000
vt 0.500000 0.000000
vt 0.000000 0.000000
vt 0.500000 0.000000
vt 0.500000 0.000000
vt 0.000000 0.000000
vt 0.500000 0.000000
vt 0.500000 0.000000
vt 0.000000 0.000000
vt 0.500000 0.000000
vt 0.500000 0.000000
vt 0.000000 0.000000
vt 0.500000 0.000000
vt 0.000000 0.000000
vt 0.500000 0.500000
vt 0.500000 0.500000
vt 0.000000 0.000000
vt 0.500000 0.500000
vt 0.500000 0.500000
vt 0.000000 0.000000
vt 0.500000 0.500000
vt 0.500000 0.500000
vt 0.000000 0.000000
vt 0.500000 0.000000
vt 0.000000 0.000000
vt 0.500000 0.000000
vt 0.500000 0.500000
vt 0.500000 0.500000
vt 0.500000 0.000000
vt 0.000000 0.500000
vt 0.000000 0.000000
vt 0.500000 0.000000
vt 0.000000 0.500000
vt 0.000000 0.000000
vt 0.500000 0.000000
vt 0.000000 0.500000
vt 0.000000 0.000000
vt 0.500000 0.000000
vt 0.000000 0.500000
vt 0.000000 0.000000
vt 0.500000 0.500000
vt 0.500000 0.500000
vt 0.500000 0.500000
vt 0.500000 0.500000
vn -0.0000 -1.0000 -0.0000
vn 0.4227 -0.8526 0.3071
vn -0.1615 -0.8526 0.4970
vn 0.6977 -0.5062 0.5069
vn 0.8156 -0.5786 -0.0000
vn -0.5225 -0.8526 0.0000
vn -0.1615 -0.8526 -0.4970
vn 0.4227 -0.8526 -0.3071
vn 0.8849 -0.3768 0.2739
vn -0.2665 -0.5062 0.8202
vn 0.2520 -0.5786 0.7757
vn 0.0129 -0.3768 0.9262
vn -0.8624 -0.5062 0.0000
vn -0.6599 -0.5786 0.4794
vn -0.8769 -0.3768 0.2985
vn -0.2665 -0.5062 -0.8202
vn -0.6599 -0.5786 -0.4794
vn -0.5549 -0.3768 -0.7417
vn 0.6977 -0.5062 -0.5069
vn 0.2520 -0.5786 -0.7757
vn 0.5340 -0.3768 -0.7569
vn 0.5340 -0.3768 0.7569
vn -0.5549 -0.3768 0.7417
vn -0.8769 -0.3768 -0.2985
vn 0.0129 -0.3768 -0.9262
vn 0.8849 -0.3768 -0.2739
vn -0.2120 0.7276 -0.6524
vn -0.5267 0.7590 -0.3827
vn -0.1705 0.8341 -0.5247
vn 0.5550 0.7276 -0.4032
vn 0.2012 0.7590 -0.6192
vn 0.4463 0.8341 -0.3243
vn 0.5550 0.7276 0.4032
vn 0.6511 0.7590 0.0000
vn 0.4463 0.8341 0.3243
vn -0.2120 0.7276 0.6524
vn 0.2012 0.7590 0.6192
vn -0.1705 0.8341 0.5247
vn -0.6860 0.7276 0.0000
vn -0.5267 0.7590 0.3827
vn -0.5517 0.8341 0.0000
vn -0.4269 0.8494 0.3102
vn 0.1631 0.8494 0.5019
vn 0.5277 0.8494 0.0000
vn 0.1631 0.8494 -0.5019
vn -0.4269 0.8494 -0.3102
vn -0.2609 0.9637 0.0561
vn -0.3305 0.9128 0.2401
vn -0.2922 0.9564 0.0000
vn -0.1340 0.9637 0.2308
vn -0.0903 0.9564 0.2779
vn -0.0272 0.9637 0.2655
vn 0.1262 0.9128 0.3885
vn 0.1781 0.9637 0.1988
vn 0.2364 0.9564 0.1717
vn 0.2441 0.9637 0.1079
vn 0.4085 0.9128 0.0000
vn 0.2441 0.9637 -0.1079
vn 0.2364 0.9564 -0.1717
vn 0.1781 0.9637 -0.1988
vn 0.1262 0.9128 -0.3885
vn -0.0272 0.9637 -0.2655
vn -0.0903 0.9564 -0.2779
vn -0.1340 0.9637 -0.2308
vn -0.3305 0.9128 -0.2401
vn -0.2609 0.9637 -0.0561
vn -1.0000 0.0000 0.0000
vn 0.0000 0.0000 -1.0000
vn 1.0000 0.0000 0.0000
vn 0.0000 0.0000 1.0000
s 1
f 1/1/1 14/2/2 13/3/3
f 2/4/4 14/2/2 16/5/5
f 1/1/1 13/6/3 18/7/6
f 1/1/1 18/8/6 20/9/7
f 1/1/1 20/10/7 17/11/8
f 2/4/4 16/12/5 23/13/9
f 3/14/10 15/15/11 25/16/12
f 4/17/13 19/18/14 27/19/15
f 5/20/16 21/21/17 29/22/18
f 6/23/19 22/24/20 31/25/21
f 2/4/4 23/26/9 26/27/22
f 3/14/10 25/28/12 28/29/23
f 4/17/13 27/30/15 30/31/24
f 5/20/16 29/32/18 32/33/25
f 6/23/19 31/34/21 24/35/26
f 7/36/27 33/37/28 38/38/29
f 8/39/30 34/40/31 40/41/32
f 9/42/33 35/43/34 41/44/35
f 10/45/36 36/46/37 42/47/38
f 11/48/39 37/49/40 39/50/41
f 39/51/41 42/52/38 12/53/42
f 39/51/41 37/49/40 42/47/38
f 37/54/40 10/55/36 42/47/38
f 42/56/38 41/57/35 12/53/43
f 42/56/38 36/46/37 41/44/35
f 36/58/37 9/59/33 41/44/35
f 41/60/35 40/61/32 12/53/44
f 41/60/35 35/43/34 40/41/32
f 35/62/34 8/63/30 40/41/32
f 40/64/32 38/65/29 12/53/45
f 40/64/32 34/40/31 38/38/29
f 34/66/31 7/67/27 38/38/29
f 38/68/29 39/69/41 12/53/46
f 38/68/29 33/37/28 39/50/41
f 33/70/28 11/71/39 39/50/41
f 24/72/47 37/49/48 11/73/49
f 24/72/47 31/34/50 37/74/48
f 31/75/50 10/55/51 37/74/48
f 32/76/52 36/46/53 10/77/51
f 32/76/52 29/32/54 36/78/53
f 29/79/54 9/59/55 36/78/53
f 30/80/56 35/43/57 9/81/55
f 30/80/56 27/30/58 35/82/57
f 27/83/58 8/63/59 35/82/57
f 28/84/60 34/40/61 8/85/59
f 28/84/60 25/28/62 34/86/61
f 25/87/62 7/67/63 34/86/61
f 26/88/64 33/37/65 7/89/63
f 26/88/64 23/26/66 33/90/65
f 23/91/66 11/71/49 33/90/65
f 31/75/50 32/92/52 10/77/51
f 31/75/21 22/24/20 32/33/25
f 22/93/20 5/94/16 32/33/25
f 29/79/54 30/95/56 9/81/55
f 29/79/18 21/21/17 30/31/24
f 21/96/17 4/97/13 30/31/24
f 27/83/58 28/98/60 8/85/59
f 27/83/15 19/18/14 28/29/23
f 19/99/14 3/100/10 28/29/23
f 25/87/62 26/101/64 7/89/63
f 25/87/12 15/15/11 26/27/22
f 15/102/11 2/103/4 26/27/22
f 23/91/66 24/104/47 11/73/49
f 23/91/9 16/12/5 24/35/26
f 16/105/5 6/106/19 24/35/26
f 17/107/8 22/24/20 6/108/19
f 17/107/8 20/10/7 22/109/20
f 20/110/7 5/94/16 22/109/20
f 20/110/7 21/21/17 5/111/16
f 20/110/7 18/8/6 21/112/17
f 18/113/6 4/97/13 21/112/17
f 18/113/6 19/18/14 4/114/13
f 18/113/6 13/6/3 19/115/14
f 13/116/3 3/100/10 19/115/14
f 16/105/5 17/117/8 6/108/19
f 16/105/5 14/2/2 17/11/8
f 14/118/2 1/119/1 17/11/8
f 13/116/3 15/15/11 3/120/10
f 13/116/3 14/2/2 15/121/11
f 14/118/2 2/103/4 15/121/11
f 44/122/67 45/123/67 43/124/67
f 46/125/68 49/126/68 45/127/68
f 50/128/69 47/129/69 49/130/69
f 48/131/70 43/132/70 47/133/70
f 44/122/67 46/134/67 45/123/67
f 46/125/68 50/135/68 49/126/68
f 50/128/69 48/136/69 47/129/69
f 48/131/70 44/137/70 43/132/70
