# Blender v2.79 (sub 0) OBJ File: 'turret5.blend'
# www.blender.org
o Static_Plane.001
v 0.499998 0.556225 -0.288674
v 0.449509 0.731447 0.259524
v 0.499998 0.556224 0.288675
v 0.380649 0.731447 -0.219768
v 0.259524 0.731447 -0.449509
v 0.219769 0.731447 -0.380650
v 0.380649 0.731447 0.219769
v 0.259524 0.731447 0.449509
v -0.288675 0.556224 0.499998
v 0.288675 0.556224 0.499998
v -0.288675 0.556225 -0.499998
v -0.259525 0.731447 -0.449509
v -0.380650 0.731447 -0.219768
v -0.219770 0.731447 -0.380650
v -0.449510 0.731447 -0.259524
v -0.499999 0.556224 0.288675
v -0.449510 0.731447 0.259524
v -0.380650 0.731447 0.219769
v -0.259525 0.731447 0.449509
v -0.219770 0.731447 0.380650
v 0.288675 0.556225 -0.499998
v 0.449509 0.731447 -0.259524
v -0.288675 0.003496 -0.499998
v 0.288675 0.003496 -0.499998
v 0.499998 0.003496 -0.288675
v 0.288675 0.003496 0.499998
v -0.288675 0.003496 0.499998
v -0.499999 0.003496 -0.288675
v -0.499999 0.003496 0.288675
v 0.499998 0.003496 0.288675
v -0.499999 0.556225 -0.288674
v 0.219769 0.731447 0.380650
v -0.279866 0.817084 0.161580
v -0.380650 0.731447 -0.219768
v -0.380650 0.731447 0.219769
v -0.161581 0.817084 -0.279865
v 0.219769 0.731447 -0.380650
v -0.219770 0.731447 -0.380650
v -0.161581 0.817084 0.279866
v 0.219769 0.731447 0.380650
v 0.161580 0.817084 0.279866
v 0.380649 0.731447 -0.219768
v 0.161580 0.817084 -0.279865
v 0.279865 0.817084 -0.161581
v 0.380649 0.731447 0.219769
v -0.219770 0.731447 0.380650
v 0.279865 0.817084 0.161580
v -0.279866 0.817084 -0.161581
vt 0.000000 0.000000
vt 0.500000 0.500000
vt 0.000000 0.500000
vt 0.000000 0.000000
vt 0.500000 0.500000
vt 0.000000 0.500000
vt 0.500000 0.000000
vt 0.000000 0.500000
vt 0.000000 0.000000
vt 0.000000 0.000000
vt 0.500000 0.500000
vt 0.000000 0.500000
vt 0.500000 0.000000
vt 0.000000 0.500000
vt 0.000000 0.000000
vt 0.500000 0.000000
vt 0.000000 0.500000
vt 0.000000 0.000000
vt 0.000000 0.000000
vt 0.500000 0.500000
vt 0.000000 0.500000
vt 0.000000 0.000000
vt 0.500000 0.500000
vt 0.000000 0.500000
vt 0.000000 0.000000
vt 0.500000 0.500000
vt 0.000000 0.500000
vt 0.000000 0.500000
vt 0.000000 0.000000
vt 0.500000 0.000000
vt 0.000000 0.500000
vt 0.000000 0.000000
vt 0.500000 0.500000
vt 0.000000 0.500000
vt 0.500000 0.000000
vt 0.000000 0.500000
vt 0.000000 0.000000
vt 0.500000 0.000000
vt 0.000000 0.000000
vt 0.000000 0.000000
vt 0.500000 0.500000
vt 0.000000 0.500000
vt 0.000000 0.000000
vt 0.500000 0.500000
vt 0.000000 0.500000
vt 0.500000 0.000000
vt 0.000000 0.000000
vt 0.500000 0.000000
vt 0.000000 0.500000
vt 0.500000 0.000000
vt 0.000000 0.500000
vt 0.000000 0.000000
vt 0.500000 0.000000
vt 0.000000 0.000000
vt 0.500000 0.500000
vt 0.000000 0.500000
vt 0.500000 0.000000
vt 0.000000 0.500000
vt 0.500000 0.000000
vt 0.000000 0.500000
vt 0.500000 0.000000
vt 0.000000 0.000000
vt 0.500000 0.000000
vt 0.000000 0.500000
vt 0.000000 0.000000
vt 0.500000 0.000000
vt 0.000000 0.500000
vt 0.000000 0.000000
vt 0.500000 0.500000
vt 0.000000 0.500000
vt 0.000000 0.000000
vt 0.500000 0.500000
vt 0.000000 0.500000
vt 0.000000 0.000000
vt 0.500000 0.500000
vt 0.000000 0.500000
vt 0.500000 0.000000
vt 0.000000 0.000000
vt 0.426777 0.073223
vt 0.073223 0.073223
vt 0.073223 0.426777
vt 0.500000 0.000000
vt 0.500000 0.500000
vt 0.500000 0.000000
vt 0.500000 0.500000
vt 0.500000 0.500000
vt 0.500000 0.000000
vt 0.500000 0.000000
vt 0.500000 0.500000
vt 0.500000 0.500000
vt 0.500000 0.000000
vt 0.500000 0.500000
vt 0.500000 0.000000
vt 0.500000 0.500000
vt 0.500000 0.500000
vt 0.500000 0.000000
vt 0.500000 0.500000
vt 0.500000 0.500000
vt 0.500000 0.500000
vt 0.500000 0.500000
vt 0.500000 0.000000
vt 0.500000 0.500000
vt 0.250000 0.500000
vt 0.426777 0.426777
vt 0.500000 0.250000
vt 0.250000 0.000000
vt 0.000000 0.250000
vn -0.2088 0.8014 0.5605
vn -0.5451 0.8037 0.2387
vn -0.2387 0.8037 0.5451
vn 0.0000 1.0000 0.0000
vn 0.5451 0.8037 -0.2387
vn 0.5605 0.8014 0.2088
vn 0.5451 0.8037 0.2387
vn 0.0000 0.2769 -0.9609
vn 0.0000 0.1324 -0.9912
vn -0.9912 0.1324 0.0000
vn -0.9609 0.2769 0.0000
vn 0.9912 0.1324 0.0000
vn 0.9609 0.2769 0.0000
vn 0.6990 0.1507 0.6990
vn 0.7071 -0.0000 0.7071
vn -1.0000 0.0000 0.0000
vn 1.0000 -0.0000 0.0000
vn -0.6990 0.1507 -0.6990
vn -0.7071 0.0000 -0.7071
vn -0.6732 0.3060 -0.6732
vn -0.6990 0.1507 0.6990
vn -0.6732 0.3060 0.6732
vn 0.6732 0.3060 0.6732
vn 0.6990 0.1507 -0.6990
vn 0.6732 0.3060 -0.6732
vn -0.7071 -0.0000 0.7071
vn 0.7071 0.0000 -0.7071
vn 0.0000 0.1324 0.9912
vn 0.0000 -0.0000 1.0000
vn -0.2088 0.8014 -0.5605
vn 0.2387 0.8037 -0.5451
vn -0.2387 0.8037 -0.5451
vn 0.2088 0.8014 0.5605
vn -0.5605 0.8014 -0.2088
vn -0.5451 0.8037 -0.2387
vn 0.5605 0.8014 -0.2088
vn 0.2387 0.8037 0.5451
vn 0.0000 0.2769 0.9609
vn -0.5605 0.8014 0.2088
vn 0.0000 0.0000 -1.0000
vn 0.2088 0.8014 -0.5605
s 1
f 39/1/1 35/2/2 46/3/3
f 18/4/4 19/5/4 20/6/4
f 42/7/5 47/8/6 45/9/7
f 5/10/8 11/11/9 12/12/8
f 31/13/10 17/14/11 15/15/11
f 22/16/4 6/17/4 4/18/4
f 1/19/12 2/20/13 3/21/12
f 7/22/4 8/23/4 2/24/4
f 3/25/14 26/26/15 30/27/15
f 31/13/10 29/28/16 16/29/10
f 30/30/17 1/31/12 3/25/12
f 11/32/18 28/33/19 31/34/18
f 31/13/18 12/12/20 11/32/18
f 16/35/21 19/36/22 17/37/22
f 8/38/23 3/21/14 2/39/23
f 21/40/24 22/41/25 1/31/24
f 16/35/21 27/42/26 9/43/21
f 21/40/24 25/44/27 24/45/27
f 10/46/28 27/42/29 26/47/29
f 17/48/4 13/49/4 15/15/4
f 19/50/4 32/51/4 20/52/4
f 12/53/4 6/17/4 5/10/4
f 36/54/30 37/55/31 38/56/32
f 46/57/3 41/58/33 39/1/1
f 2/59/4 4/60/4 7/22/4
f 48/61/34 38/56/32 34/62/35
f 37/63/31 44/64/36 42/65/5
f 15/66/4 14/67/4 12/68/4
f 45/9/7 41/69/33 40/70/37
f 8/71/38 9/72/28 10/73/28
f 33/74/39 34/75/35 35/76/2
f 11/77/9 24/45/40 23/78/40
f 39/79/4 47/80/4 43/81/4
f 39/1/1 33/82/39 35/2/2
f 18/4/4 17/48/4 19/5/4
f 42/7/5 44/83/36 47/8/6
f 5/10/8 21/84/9 11/11/9
f 31/13/10 16/85/10 17/14/11
f 22/16/4 5/86/4 6/17/4
f 1/19/12 22/16/13 2/20/13
f 7/22/4 32/87/4 8/23/4
f 3/25/14 10/46/14 26/26/15
f 31/13/10 28/33/16 29/28/16
f 30/30/17 25/44/17 1/31/12
f 11/32/18 23/88/19 28/33/19
f 31/13/18 15/89/20 12/12/20
f 16/35/21 9/72/21 19/36/22
f 8/38/23 10/90/14 3/21/14
f 21/40/24 5/91/25 22/41/25
f 16/35/21 29/92/26 27/42/26
f 21/40/24 1/93/24 25/44/27
f 10/46/28 9/72/28 27/42/29
f 17/48/4 18/94/4 13/49/4
f 19/50/4 8/23/4 32/51/4
f 12/53/4 14/95/4 6/17/4
f 36/54/30 43/96/41 37/55/31
f 46/57/3 40/97/37 41/58/33
f 2/59/4 22/41/4 4/60/4
f 48/61/34 36/98/30 38/56/32
f 37/63/31 43/99/41 44/64/36
f 15/66/4 13/100/4 14/67/4
f 45/9/7 47/101/6 41/69/33
f 8/71/38 19/50/38 9/72/28
f 33/74/39 48/61/34 34/75/35
f 11/77/9 21/102/9 24/45/40
f 43/81/4 36/103/4 48/104/4
f 48/104/4 33/105/4 43/81/4
f 39/79/4 41/106/4 47/80/4
f 47/80/4 44/107/4 43/81/4
f 43/81/4 33/105/4 39/79/4
