# Blender v2.79 (sub 0) OBJ File: 'turret2.blend'
# www.blender.org
o Static_Cylinder.000
v 0.000000 0.576378 0.525732
v 0.500001 0.576378 0.162460
v 0.309017 0.576378 -0.425326
v -0.309017 0.576378 -0.425326
v -0.500001 0.576378 0.162460
v 0.500001 0.003451 0.162460
v -0.500001 0.003451 0.162460
v -0.309017 0.003451 -0.425326
v 0.309017 0.003451 -0.425326
v 0.000000 0.003451 0.525732
vt 0.487764 0.327254
vt 0.103054 0.047746
vt 0.012236 0.327254
vt 0.500000 0.000000
vt 0.000000 0.500000
vt 0.000000 0.000000
vt 0.500000 0.000000
vt 0.000000 0.500000
vt 0.000000 0.000000
vt 0.500000 0.500000
vt 0.000000 0.500000
vt 0.500000 0.000000
vt 0.000000 0.500000
vt 0.000000 0.000000
vt 0.500000 0.000000
vt 0.000000 0.500000
vt 0.000000 0.000000
vt 0.250000 0.500000
vt 0.396946 0.047746
vt 0.500000 0.500000
vt 0.500000 0.500000
vt 0.500000 0.000000
vt 0.500000 0.500000
vn 0.0000 1.0000 0.0000
vn 0.0000 0.0000 -1.0000
vn -0.5878 -0.0000 0.8090
vn 0.5878 -0.0000 0.8090
vn 0.9511 0.0000 -0.3090
vn -0.9511 0.0000 -0.3090
s 1
f 1/1/1 3/2/1 4/3/1
f 9/4/2 4/5/2 3/6/2
f 5/7/3 10/8/3 1/9/3
f 1/9/4 6/10/4 2/11/4
f 6/12/5 3/13/5 2/14/5
f 8/15/6 5/16/6 4/17/6
f 4/3/1 5/18/1 1/1/1
f 1/1/1 2/19/1 3/2/1
f 9/4/2 8/20/2 4/5/2
f 5/7/3 7/21/3 10/8/3
f 1/9/4 10/22/4 6/10/4
f 6/12/5 9/23/5 3/13/5
f 8/15/6 7/21/6 5/16/6
