# Blender v2.79 (sub 0) OBJ File: 'turret2.blend'
# www.blender.org
o Static_Cylinder.001
v -0.083689 1.132433 -0.045286
v -0.083689 0.957057 -0.191034
v -0.083689 1.132433 -0.191034
v 0.379330 0.576378 0.123252
v 0.000000 0.720774 0.314085
v 0.000000 0.576378 0.398852
v 0.298713 0.720774 0.097058
v 0.184614 0.720774 -0.254100
v 0.234439 0.576378 -0.322677
v -0.379330 0.576378 0.123252
v -0.298713 0.720774 0.097058
v -0.184614 0.720774 -0.254100
v -0.234439 0.576378 -0.322677
v -0.255375 0.694326 -0.014371
v -0.154278 0.983703 -0.045286
v -0.154278 0.983703 -0.191034
v 0.138529 0.694326 -0.014371
v 0.154278 0.983703 -0.191034
v 0.255375 0.694326 -0.014371
v -0.154278 1.105788 -0.191034
v -0.154278 1.105787 -0.045286
v -0.083689 0.957057 -0.045286
v 0.083689 0.957057 -0.045286
v 0.138529 0.694326 0.131377
v 0.154278 0.983703 -0.045286
v 0.255375 0.694326 0.131377
v -0.138529 0.694326 -0.014371
v -0.138529 0.694326 0.131377
v 0.154278 1.105787 -0.045286
v -0.255375 0.694326 0.131377
v 0.083689 1.132433 -0.045286
v 0.154278 1.105788 -0.191034
v 0.083689 1.132433 -0.191034
v 0.083689 0.957057 -0.191034
vt 0.500000 0.000000
vt 0.000000 0.500000
vt 0.000000 0.000000
vt 0.000000 0.000000
vt 0.500000 0.500000
vt 0.000000 0.500000
vt 0.000000 0.000000
vt 0.500000 0.500000
vt 0.000000 0.500000
vt 0.000000 0.000000
vt 0.500000 0.500000
vt 0.000000 0.500000
vt 0.000000 0.000000
vt 0.500000 0.500000
vt 0.000000 0.500000
vt 0.000000 0.000000
vt 0.500000 0.500000
vt 0.000000 0.500000
vt 0.500000 0.500000
vt 0.000000 0.500000
vt 0.000000 0.000000
vt 0.500000 0.500000
vt 0.500000 0.000000
vt 0.000000 0.500000
vt 0.000000 0.000000
vt 0.000000 0.000000
vt 0.500000 0.500000
vt 0.000000 0.500000
vt 0.000000 0.000000
vt 0.500000 0.500000
vt 0.000000 0.500000
vt 0.000000 0.000000
vt 0.000000 0.500000
vt 0.000000 0.000000
vt 0.000000 0.500000
vt 0.000000 0.000000
vt 0.500000 0.500000
vt 0.000000 0.500000
vt 0.000000 0.000000
vt 0.000000 0.500000
vt 0.000000 0.500000
vt 0.000000 0.000000
vt 0.500000 0.500000
vt 0.000000 0.500000
vt 0.000000 0.000000
vt 0.500000 0.500000
vt 0.000000 0.000000
vt 0.500000 0.500000
vt 0.000000 0.500000
vt 0.000000 0.000000
vt 0.500000 0.500000
vt 0.500000 0.500000
vt 0.000000 0.500000
vt 0.500000 0.500000
vt 0.000000 0.500000
vt 0.500000 0.000000
vt 0.000000 0.500000
vt 0.487764 0.327254
vt 0.103054 0.047746
vt 0.250000 0.500000
vt 0.500000 0.500000
vt 0.500000 0.000000
vt 0.500000 0.000000
vt 0.500000 0.000000
vt 0.500000 0.000000
vt 0.500000 0.000000
vt 0.500000 0.500000
vt 0.500000 0.000000
vt 0.500000 0.000000
vt 0.500000 0.000000
vt 0.500000 0.000000
vt 0.500000 0.000000
vt 0.500000 0.000000
vt 0.500000 0.000000
vt 0.500000 0.000000
vt 0.500000 0.000000
vt 0.500000 0.000000
vt 0.500000 0.500000
vt 0.012236 0.327254
vt 0.396946 0.047746
vn 0.0000 0.4290 -0.9033
vn -0.9929 -0.1187 -0.0000
vn -0.9789 -0.2043 -0.0000
vn 0.8591 0.4290 -0.2791
vn 0.9910 0.1338 0.0000
vn 1.0000 -0.0000 0.0000
vn 0.9816 0.1911 0.0000
vn 0.9789 -0.2043 -0.0000
vn 0.9929 -0.1187 -0.0000
vn 0.0250 0.5219 0.8526
vn 0.1540 0.5209 0.8396
vn 0.0000 0.5211 0.8535
vn -0.0250 -0.5219 -0.8526
vn -0.1540 -0.5209 -0.8396
vn -0.1958 -0.5187 -0.8322
vn 0.0000 0.0000 -1.0000
vn -0.8591 0.4290 -0.2791
vn -0.5309 0.4290 0.7308
vn 0.5309 0.4290 0.7308
vn -0.9440 0.3298 0.0000
vn -0.9816 0.1911 0.0000
vn -0.9910 0.1338 0.0000
vn 0.0250 -0.5219 -0.8526
vn 0.1540 -0.5209 -0.8396
vn 0.0000 -0.5211 -0.8535
vn -0.0000 -0.0000 1.0000
vn -1.0000 -0.0000 0.0000
vn -0.1540 0.5209 0.8396
vn -0.0250 0.5219 0.8526
vn 0.3532 0.9356 0.0000
vn 0.3531 0.9356 0.0000
vn 0.9440 0.3298 0.0000
vn -0.3532 0.9356 0.0000
vn 0.0000 1.0000 0.0000
vn -0.9968 -0.0793 -0.0000
vn 0.9968 -0.0793 -0.0000
vn 0.1958 0.5187 0.8322
vn 0.1958 -0.5187 -0.8322
vn -0.1958 0.5187 0.8322
vn -0.3531 0.9356 0.0000
s 1
f 8/1/1 13/2/1 12/3/1
f 23/4/2 17/5/3 24/6/3
f 9/7/4 7/8/4 4/9/4
f 18/10/5 29/11/6 25/12/7
f 27/13/8 22/14/9 28/15/8
f 28/16/10 15/17/11 30/18/12
f 27/13/13 16/19/14 2/20/15
f 16/21/16 3/22/16 2/20/16
f 22/23/9 3/24/6 1/25/6
f 11/26/17 13/27/17 10/28/17
f 10/29/18 5/30/18 11/31/18
f 4/32/19 5/30/19 6/33/19
f 14/34/20 15/17/21 16/35/22
f 17/36/23 18/37/24 19/38/25
f 21/39/26 22/14/26 1/40/26
f 21/39/27 16/19/22 15/41/21
f 25/42/28 24/43/29 26/44/12
f 29/45/26 23/46/26 25/12/26
f 31/47/30 32/48/30 33/49/31
f 19/50/32 25/51/7 26/44/32
f 1/25/33 20/52/33 21/53/33
f 18/10/16 33/54/16 32/55/16
f 33/56/27 23/57/2 31/47/27
f 12/58/34 5/59/34 8/60/34
f 8/1/1 9/61/1 13/2/1
f 23/4/2 34/62/35 17/5/3
f 9/7/4 8/1/4 7/8/4
f 18/10/5 32/63/6 29/11/6
f 27/13/8 2/64/36 22/14/9
f 28/16/10 22/23/37 15/17/11
f 27/13/13 14/65/25 16/19/14
f 16/21/16 20/66/16 3/22/16
f 22/23/9 2/67/36 3/24/6
f 11/26/17 12/68/17 13/27/17
f 10/29/18 6/69/18 5/30/18
f 4/32/19 7/70/19 5/30/19
f 14/34/20 30/71/20 15/17/21
f 17/36/23 34/62/38 18/37/24
f 21/39/26 15/72/26 22/14/26
f 21/39/27 20/66/27 16/19/22
f 25/42/28 23/73/39 24/43/29
f 29/45/26 31/74/26 23/46/26
f 31/47/30 29/75/30 32/48/30
f 19/50/32 18/76/5 25/51/7
f 1/25/33 3/77/40 20/52/33
f 18/10/16 34/62/16 33/54/16
f 33/56/27 34/78/35 23/57/2
f 7/79/34 8/60/34 5/59/34
f 12/58/34 11/80/34 5/59/34
