# Blender v2.79 (sub 0) OBJ File: 'turret1.blend'
# www.blender.org
o Static_Cube.002
v 0.000000 0.537298 -0.312791
v -0.270886 0.491187 -0.156395
v -0.270886 0.537298 -0.156395
v 0.000000 0.546869 0.270152
v 0.233959 0.658766 0.135076
v 0.000000 0.658766 0.270152
v 0.270886 0.714448 -0.156395
v 0.000000 0.714448 -0.312791
v 0.000000 0.793968 0.000000
v -0.233959 0.658766 0.135076
v -0.233959 0.546869 0.135076
v -0.270886 0.491187 0.156395
v -0.270886 0.537298 0.156395
v -0.233959 0.546869 -0.135076
v 0.000000 0.658766 -0.270152
v 0.000000 0.546869 -0.270152
v 0.270886 0.668337 -0.156395
v 0.270886 0.668337 0.156395
v -0.233959 0.658766 -0.135076
v 0.000000 0.537298 0.312791
v 0.233959 0.546869 -0.135076
v 0.270886 0.537298 0.156395
v 0.270886 0.537298 -0.156395
v -0.270886 0.668337 -0.156395
v -0.270886 0.668337 0.156395
v 0.000000 0.491187 0.312791
v -0.270886 0.714448 -0.156395
v -0.270886 0.714448 0.156395
v 0.270886 0.714448 0.156395
v 0.000000 0.668337 0.312791
v 0.000000 0.714448 0.312791
v 0.270886 0.491187 0.156395
v 0.270886 0.491187 -0.156395
v 0.000000 0.668337 -0.312791
v 0.233959 0.658766 -0.135076
v 0.000000 0.491187 -0.312791
v 0.233959 0.546869 0.135076
vt 0.500000 0.000000
vt 0.000000 0.500000
vt 0.000000 0.000000
vt 0.500000 0.000000
vt 0.000000 0.500000
vt 0.000000 0.000000
vt 0.000000 0.000000
vt 0.500000 0.000000
vt 0.500000 0.500000
vt 0.500000 0.000000
vt 0.000000 0.500000
vt 0.000000 0.000000
vt 0.500000 0.000000
vt 0.000000 0.500000
vt 0.000000 0.000000
vt 0.500000 0.500000
vt 0.000000 0.500000
vt 0.500000 0.000000
vt 0.000000 0.500000
vt 0.000000 0.000000
vt 0.000000 0.500000
vt 0.000000 0.000000
vt 0.500000 0.500000
vt 0.000000 0.500000
vt 0.500000 0.000000
vt 0.000000 0.500000
vt 0.000000 0.000000
vt 0.000000 0.000000
vt 0.500000 0.000000
vt 0.000000 0.500000
vt 0.000000 0.000000
vt 0.500000 0.500000
vt 0.000000 0.000000
vt 0.500000 0.000000
vt 0.500000 0.500000
vt 0.500000 0.000000
vt 0.000000 0.000000
vt 0.000000 0.000000
vt 0.500000 0.500000
vt 0.000000 0.500000
vt 0.500000 0.000000
vt 0.000000 0.500000
vt 0.000000 0.000000
vt 0.500000 0.000000
vt 0.000000 0.500000
vt 0.000000 0.000000
vt 0.500000 0.500000
vt 0.000000 0.000000
vt 0.000000 0.000000
vt 0.500000 0.500000
vt 0.000000 0.500000
vt 0.000000 0.000000
vt 0.500000 0.500000
vt 0.000000 0.500000
vt 0.500000 0.000000
vt 0.000000 0.500000
vt 0.000000 0.000000
vt 0.500000 0.000000
vt 0.000000 0.500000
vt 0.500000 0.000000
vt 0.000000 0.500000
vt 0.500000 0.000000
vt 0.000000 0.500000
vt 0.000000 0.000000
vt 0.000000 0.000000
vt 0.500000 0.500000
vt 0.000000 0.500000
vt 0.000000 0.000000
vt 0.500000 0.500000
vt 0.500000 0.500000
vt 0.000000 0.000000
vt 0.500000 0.500000
vt 0.000000 0.500000
vt 0.000000 0.000000
vt 0.500000 0.500000
vt 0.500000 0.000000
vt 0.000000 0.500000
vt 0.500000 0.500000
vt 0.500000 0.000000
vt 0.500000 0.500000
vt 0.500000 0.500000
vt 0.500000 0.000000
vt 0.500000 0.500000
vt 0.500000 0.500000
vt 0.500000 0.500000
vt 0.500000 0.000000
vt 0.500000 0.000000
vt 0.500000 0.500000
vt 0.500000 0.000000
vt 0.500000 0.000000
vt 0.500000 0.500000
vt 0.500000 0.500000
vt 0.500000 0.000000
vt 0.500000 0.500000
vn -0.5000 -0.0000 0.8660
vn 0.5000 0.0000 -0.8660
vn -0.0000 1.0000 0.0000
vn 0.0000 0.9692 -0.2464
vn -0.2134 0.9692 -0.1232
vn -0.1897 -0.9757 -0.1095
vn -0.1897 -0.9757 0.1095
vn 0.5000 -0.0000 0.8660
vn -0.5000 0.0000 -0.8660
vn -0.1897 0.9757 -0.1095
vn -0.1897 0.9757 0.1095
vn 0.0000 0.9757 -0.2190
vn 0.1897 0.9757 -0.1095
vn 0.1897 -0.9757 -0.1095
vn 0.1897 -0.9757 0.1095
vn 0.1897 0.9757 0.1095
vn -1.0000 -0.0000 0.0000
vn 0.0000 0.9692 0.2464
vn 0.2134 0.9692 0.1232
vn 0.0000 -0.9757 0.2190
vn 0.2134 0.9692 -0.1232
vn 0.0000 -0.9757 -0.2190
vn 1.0000 -0.0000 0.0000
vn 0.0000 0.9757 0.2190
vn -0.2134 0.9692 0.1232
s 1
f 6/1/1 11/2/1 4/3/1
f 7/4/2 34/5/2 8/6/2
f 9/7/3 8/8/4 27/9/5
f 19/10/6 25/11/7 24/12/6
f 37/13/8 6/14/8 4/3/8
f 1/15/9 2/16/9 3/17/9
f 14/18/10 13/19/11 11/20/11
f 19/10/9 16/21/9 14/22/9
f 1/15/12 21/23/13 23/24/13
f 35/25/14 18/26/15 5/27/15
f 37/13/16 23/24/13 21/28/13
f 16/29/2 35/30/2 21/28/2
f 3/31/17 12/32/17 13/19/17
f 31/33/18 29/34/19 9/35/3
f 31/36/8 18/26/8 29/37/8
f 27/38/17 25/39/17 28/40/17
f 25/41/1 31/42/1 28/43/1
f 23/44/2 36/45/2 1/15/2
f 30/46/20 5/47/15 18/26/15
f 7/48/21 8/8/4 9/35/3
f 35/49/14 34/50/22 17/51/14
f 23/52/23 32/53/23 33/54/23
f 20/55/8 32/56/8 22/57/8
f 34/58/9 27/59/9 8/6/9
f 10/60/17 14/61/17 11/20/17
f 12/62/1 20/63/1 13/64/1
f 34/65/22 19/66/6 24/67/6
f 10/68/7 30/69/20 25/11/7
f 14/22/10 1/70/12 3/17/10
f 37/71/16 20/72/24 22/73/16
f 20/74/24 11/75/11 13/19/11
f 21/76/23 5/77/23 37/71/23
f 7/48/23 18/78/23 17/51/23
f 28/43/25 31/36/18 9/35/3
f 28/43/25 9/79/3 27/9/5
f 29/37/19 7/4/21 9/35/3
f 6/1/1 10/80/1 11/2/1
f 7/4/2 17/81/2 34/5/2
f 19/10/6 10/80/7 25/11/7
f 37/13/8 5/47/8 6/14/8
f 1/15/9 36/82/9 2/16/9
f 14/18/10 3/83/10 13/19/11
f 19/10/9 15/84/9 16/21/9
f 1/15/12 16/29/12 21/23/13
f 35/25/14 17/81/14 18/26/15
f 37/13/16 22/85/16 23/24/13
f 16/29/2 15/84/2 35/30/2
f 3/31/17 2/86/17 12/32/17
f 31/36/8 30/69/8 18/26/8
f 27/38/17 24/87/17 25/39/17
f 25/41/1 30/69/1 31/42/1
f 23/44/2 33/88/2 36/45/2
f 30/46/20 6/1/20 5/47/15
f 35/49/14 15/89/22 34/50/22
f 23/52/23 22/90/23 32/53/23
f 20/55/8 26/91/8 32/56/8
f 34/58/9 24/92/9 27/59/9
f 10/60/17 19/66/17 14/61/17
f 12/62/1 26/91/1 20/63/1
f 34/65/22 15/89/22 19/66/6
f 10/68/7 6/1/20 30/69/20
f 14/22/10 16/29/12 1/70/12
f 37/71/16 4/93/24 20/72/24
f 20/74/24 4/93/24 11/75/11
f 21/76/23 35/94/23 5/77/23
f 7/48/23 29/34/23 18/78/23
