# Blender v2.79 (sub 0) OBJ File: 'turret14.blend'
# www.blender.org
o Cube
v -0.400000 -0.001730 0.400000
v -0.289101 0.798270 0.289101
v -0.400000 -0.001730 -0.400000
v -0.289101 0.798270 -0.289101
v 0.400000 -0.001730 0.400000
v 0.289101 0.798270 0.289101
v 0.400000 -0.001730 -0.400000
v 0.289101 0.798270 -0.289101
v 0.000000 -0.001730 -0.500000
v 0.000000 0.798270 -0.361377
v 0.000000 -0.001730 0.500000
v 0.000000 0.798270 0.361377
v -0.500000 -0.001730 0.000000
v -0.361377 0.798270 0.000000
v 0.500000 -0.001730 0.000000
v 0.361377 0.798270 0.000000
v -0.500000 0.798270 0.000000
v -0.400000 0.798270 -0.400000
v 0.000000 0.798270 -0.500000
v 0.400000 0.798270 -0.400000
v 0.500000 0.798270 0.000000
v 0.400000 0.798270 0.400000
v 0.000000 0.798270 0.500000
v -0.400000 0.798270 0.400000
v 0.000000 0.897872 0.000000
v 0.000000 0.897872 0.312452
v 0.000000 0.897872 -0.312452
v 0.312452 0.897872 0.000000
v -0.312452 0.897872 0.000000
v -0.249961 0.897872 -0.249961
v 0.249961 0.897872 -0.249961
v 0.249961 0.897872 0.249961
v -0.249961 0.897872 0.249961
vt 0.500000 0.000000
vt 0.000000 0.500000
vt 0.000000 0.000000
vt 0.500000 0.000000
vt 0.000000 0.500000
vt 0.000000 0.000000
vt 0.500000 0.000000
vt 0.000000 0.500000
vt 0.000000 0.000000
vt 0.500000 0.000000
vt 0.000000 0.500000
vt 0.000000 0.000000
vt 0.500000 0.000000
vt 0.000000 0.500000
vt 0.000000 0.000000
vt 0.000000 0.000000
vt 0.500000 0.500000
vt 0.000000 0.500000
vt 0.500000 0.000000
vt 0.000000 0.500000
vt 0.000000 0.000000
vt 0.500000 0.000000
vt 0.000000 0.500000
vt 0.000000 0.000000
vt 0.500000 0.000000
vt 0.000000 0.500000
vt 0.000000 0.000000
vt 0.000000 0.000000
vt 0.500000 0.500000
vt 0.000000 0.500000
vt 0.500000 0.000000
vt 0.000000 0.500000
vt 0.000000 0.000000
vt 0.500000 0.000000
vt 0.000000 0.500000
vt 0.000000 0.000000
vt 0.500000 0.000000
vt 0.000000 0.500000
vt 0.500000 0.000000
vt 0.000000 0.500000
vt 0.000000 0.000000
vt 0.500000 0.000000
vt 0.000000 0.500000
vt 0.000000 0.000000
vt 0.500000 0.000000
vt 0.000000 0.500000
vt 0.000000 0.000000
vt 0.500000 0.500000
vt 0.000000 0.500000
vt 0.500000 0.500000
vt 0.000000 0.500000
vt 0.000000 0.000000
vt 0.500000 0.500000
vt 0.000000 0.500000
vt 0.500000 0.500000
vt 0.000000 0.500000
vt 0.000000 0.000000
vt 0.500000 0.000000
vt 0.000000 0.000000
vt 0.000000 0.000000
vt 0.500000 0.500000
vt 0.000000 0.500000
vt 0.500000 0.000000
vt 0.000000 0.500000
vt 0.000000 0.000000
vt 0.500000 0.500000
vt 0.500000 0.000000
vt 0.000000 0.500000
vt 0.500000 0.500000
vt 0.000000 0.500000
vt 0.500000 0.000000
vt 0.000000 0.500000
vt 0.500000 0.500000
vt 0.500000 0.500000
vt 0.500000 0.500000
vt 0.500000 0.500000
vt 0.500000 0.500000
vt 0.500000 0.500000
vt 0.500000 0.000000
vt 0.500000 0.500000
vt 0.500000 0.000000
vt 0.500000 0.500000
vn -1.0000 0.0000 0.0000
vn -0.9701 0.0000 -0.2425
vn 0.0000 0.0000 -1.0000
vn 0.2425 0.0000 -0.9701
vn 1.0000 0.0000 -0.0000
vn 0.9701 0.0000 0.2425
vn 0.0000 0.0000 1.0000
vn -0.2425 0.0000 0.9701
vn 0.8976 0.4409 -0.0000
vn 0.8758 0.4302 0.2189
vn -0.8976 0.4409 0.0000
vn -0.8758 0.4302 0.2189
vn 0.2425 0.0000 0.9701
vn -0.2425 0.0000 -0.9701
vn 0.0000 0.4409 -0.8976
vn 0.2189 0.4302 -0.8758
vn -0.0000 0.4409 0.8976
vn 0.2189 0.4302 0.8758
vn 0.9701 0.0000 -0.2425
vn -0.9701 0.0000 0.2425
vn 0.0000 1.0000 0.0000
vn 0.8758 0.4302 -0.2189
vn -0.2189 0.4302 0.8758
vn -0.2189 0.4302 -0.8758
vn -0.8758 0.4302 -0.2189
s 1
f 17/1/1 3/2/2 13/3/1
f 19/4/3 7/5/4 9/6/3
f 21/7/5 5/8/6 15/9/5
f 23/10/7 1/11/8 11/12/7
f 16/13/9 32/14/10 6/15/10
f 14/16/11 33/17/12 29/18/11
f 22/19/13 11/20/7 5/21/13
f 18/22/14 9/23/3 3/24/14
f 10/25/15 31/26/16 8/27/16
f 12/28/17 32/29/18 26/30/17
f 20/31/19 15/32/5 7/33/19
f 24/34/20 13/35/1 1/36/20
f 4/37/21 17/38/21 14/16/21
f 8/39/21 19/40/21 10/41/21
f 6/42/21 21/43/21 16/44/21
f 2/45/21 23/46/21 12/28/21
f 4/47/21 19/48/21 18/49/21
f 6/15/21 23/50/21 22/51/21
f 2/52/21 17/53/21 24/54/21
f 8/27/21 21/55/21 20/56/21
f 25/57/21 33/17/21 26/30/21
f 25/58/21 32/14/21 28/59/21
f 31/60/21 25/61/21 28/62/21
f 30/63/21 25/64/21 27/65/21
f 16/44/9 31/66/22 28/62/9
f 12/67/17 33/68/23 2/52/23
f 10/41/15 30/69/24 27/70/15
f 14/71/11 30/72/25 4/47/25
f 17/1/1 18/73/2 3/2/2
f 19/4/3 20/74/4 7/5/4
f 21/7/5 22/75/6 5/8/6
f 23/10/7 24/76/8 1/11/8
f 16/13/9 28/77/9 32/14/10
f 14/16/11 2/45/12 33/17/12
f 22/19/13 23/50/7 11/20/7
f 18/22/14 19/48/3 9/23/3
f 10/25/15 27/78/15 31/26/16
f 12/28/17 6/42/18 32/29/18
f 20/31/19 21/55/5 15/32/5
f 24/34/20 17/53/1 13/35/1
f 4/37/21 18/73/21 17/38/21
f 8/39/21 20/74/21 19/40/21
f 6/42/21 22/75/21 21/43/21
f 2/45/21 24/76/21 23/46/21
f 4/47/21 10/25/21 19/48/21
f 6/15/21 12/67/21 23/50/21
f 2/52/21 14/71/21 17/53/21
f 8/27/21 16/13/21 21/55/21
f 25/57/21 29/79/21 33/17/21
f 25/58/21 26/80/21 32/14/21
f 31/60/21 27/81/21 25/61/21
f 30/63/21 29/82/21 25/64/21
f 16/44/9 8/39/22 31/66/22
f 12/67/17 26/80/17 33/68/23
f 10/41/15 4/37/24 30/69/24
f 14/71/11 29/82/11 30/72/25
