# Blender v2.79 (sub 0) OBJ File: 'turret6.blend'
# www.blender.org
o Cube_Cube.001
v -0.323293 0.000000 0.499999
v -0.500000 0.000000 0.323292
v -0.323293 0.488655 0.499999
v -0.500000 0.488655 0.323292
v -0.500000 0.000000 -0.323292
v -0.323293 0.000000 -0.499999
v -0.500000 0.488655 -0.323292
v -0.323293 0.488655 -0.499999
v 0.500000 0.000000 0.323292
v 0.323293 0.000000 0.499999
v 0.500000 0.488655 0.323292
v 0.323293 0.488655 0.499999
v 0.323293 0.000000 -0.499999
v 0.500000 0.000000 -0.323292
v 0.323293 0.488655 -0.499999
v 0.500000 0.488655 -0.323292
v -0.408077 0.639766 0.231369
v -0.231369 0.639766 0.408076
v -0.231369 0.639766 -0.408076
v -0.408077 0.639766 -0.231369
v 0.408077 0.639766 -0.231369
v 0.231369 0.639766 -0.408076
v 0.231369 0.639766 0.408076
v 0.408077 0.639766 0.231369
v 0.000000 0.639766 -0.286135
v -0.286135 0.639766 0.000000
v 0.286135 0.639766 0.000000
v 0.000000 0.639766 0.286135
v 0.000000 0.689987 -0.228862
v -0.228862 0.689987 0.000000
v 0.228862 0.689987 0.000000
v 0.000000 0.689987 0.228862
vt 0.500000 0.000000
vt 0.000000 0.500000
vt 0.000000 0.000000
vt 0.500000 0.000000
vt 0.000000 0.500000
vt 0.000000 0.000000
vt 0.500000 0.000000
vt 0.000000 0.500000
vt 0.000000 0.000000
vt 0.500000 0.000000
vt 0.000000 0.500000
vt 0.000000 0.000000
vt 0.000000 0.500000
vt 0.000000 0.000000
vt 0.000000 0.500000
vt 0.000000 0.000000
vt 0.000000 0.500000
vt 0.000000 0.000000
vt 0.000000 0.000000
vt 0.500000 0.000000
vt 0.500000 0.500000
vt 0.000000 0.500000
vt 0.000000 0.000000
vt 0.500000 0.000000
vt 0.000000 0.500000
vt 0.000000 0.000000
vt 0.500000 0.000000
vt 0.000000 0.500000
vt 0.000000 0.000000
vt 0.500000 0.000000
vt 0.000000 0.500000
vt 0.000000 0.000000
vt 0.500000 0.000000
vt 0.000000 0.500000
vt 0.000000 0.000000
vt 0.000000 0.500000
vt 0.000000 0.000000
vt 0.500000 0.000000
vt 0.000000 0.500000
vt 0.500000 0.500000
vt 0.000000 0.500000
vt 0.500000 0.000000
vt 0.000000 0.500000
vt 0.000000 0.000000
vt 0.000000 0.000000
vt 0.500000 0.500000
vt 0.500000 0.000000
vt 0.000000 0.500000
vt 0.000000 0.000000
vt 0.500000 0.000000
vt 0.000000 0.500000
vt 0.000000 0.000000
vt 0.500000 0.000000
vt 0.000000 0.000000
vt 0.500000 0.000000
vt 0.000000 0.500000
vt 0.000000 0.000000
vt 0.500000 0.000000
vt 0.500000 0.500000
vt 0.000000 0.000000
vt 0.500000 0.000000
vt 0.500000 0.500000
vt 0.500000 0.000000
vt 0.000000 0.500000
vt 0.000000 0.000000
vt 0.000000 0.500000
vt 0.500000 0.500000
vt 0.000000 0.500000
vt 0.500000 0.500000
vt 0.500000 0.500000
vt 0.500000 0.500000
vt 0.500000 0.500000
vt 0.500000 0.500000
vt 0.500000 0.500000
vt 0.500000 0.500000
vt 0.500000 0.500000
vt 0.500000 0.500000
vt 0.500000 0.500000
vt 0.500000 0.500000
vt 0.500000 0.000000
vt 0.500000 0.500000
vt 0.500000 0.500000
vt 0.500000 0.500000
vt 0.500000 0.500000
vn 0.0000 0.0000 1.0000
vn 0.0000 0.5197 -0.8543
vn 0.8543 0.5197 0.0000
vn -0.8543 0.5197 0.0000
vn -1.0000 0.0000 0.0000
vn 0.0000 0.5197 0.8543
vn 0.0000 0.0000 -1.0000
vn 0.0000 1.0000 -0.0000
vn 1.0000 0.0000 0.0000
vn -0.7071 0.0000 0.7071
vn -0.7071 0.0000 -0.7071
vn 0.7071 0.0000 -0.7071
vn 0.7071 0.0000 0.7071
vn -0.5360 0.6522 0.5360
vn -0.5360 0.6522 -0.5360
vn 0.5360 0.6522 0.5360
vn 0.5360 0.6522 -0.5360
vn 0.5504 0.6277 -0.5504
vn -0.5504 0.6277 0.5504
vn -0.5504 0.6277 -0.5504
vn 0.5504 0.6277 0.5504
s 1
f 12/1/1 1/2/1 10/3/1
f 8/4/2 22/5/2 15/6/2
f 16/7/3 24/8/3 11/9/3
f 4/10/4 20/11/4 7/12/4
f 4/10/5 5/13/5 2/14/5
f 12/1/6 18/15/6 3/16/6
f 8/4/7 13/17/7 6/18/7
f 26/19/8 20/20/8 17/21/8
f 16/7/9 9/22/9 14/23/9
f 3/24/10 2/25/10 1/26/10
f 6/27/11 7/28/11 8/29/11
f 14/30/12 15/31/12 16/32/12
f 10/33/13 11/34/13 12/35/13
f 3/16/14 17/21/14 4/36/14
f 8/4/15 20/11/15 19/37/15
f 24/38/16 12/39/16 11/9/16
f 15/6/17 21/40/17 16/41/17
f 19/42/8 26/43/8 25/44/8
f 22/45/8 19/42/8 25/46/8
f 25/47/18 31/48/18 27/49/18
f 22/50/8 27/51/8 21/52/8
f 26/53/8 18/15/8 28/54/8
f 27/55/8 23/56/8 24/57/8
f 24/57/8 21/58/8 27/59/8
f 23/60/8 28/61/8 18/62/8
f 29/63/8 32/64/8 31/65/8
f 28/61/19 30/66/19 26/19/19
f 25/44/20 30/67/20 29/68/20
f 28/54/21 31/69/21 32/64/21
f 12/1/1 3/70/1 1/2/1
f 8/4/2 19/71/2 22/5/2
f 16/7/3 21/40/3 24/8/3
f 4/10/4 17/21/4 20/11/4
f 4/10/5 7/72/5 5/13/5
f 12/1/6 23/73/6 18/15/6
f 8/4/7 15/74/7 13/17/7
f 16/7/9 11/75/9 9/22/9
f 3/24/10 4/76/10 2/25/10
f 6/27/11 5/77/11 7/28/11
f 14/30/12 13/78/12 15/31/12
f 10/33/13 9/79/13 11/34/13
f 3/16/14 18/80/14 17/21/14
f 8/4/15 7/72/15 20/11/15
f 24/38/16 23/73/16 12/39/16
f 15/6/17 22/50/17 21/40/17
f 19/42/8 20/81/8 26/43/8
f 25/47/18 29/82/18 31/48/18
f 22/50/8 25/46/8 27/51/8
f 26/53/8 17/21/8 18/15/8
f 27/55/8 28/83/8 23/56/8
f 29/63/8 30/67/8 32/64/8
f 28/61/19 32/84/19 30/66/19
f 25/44/20 26/53/20 30/67/20
f 28/54/21 27/55/21 31/69/21
