# Blender v2.79 (sub 0) OBJ File: 'turret11.blend'
# www.blender.org
o Cylinder
v 0.000000 0.558214 -0.500000
v 0.353553 0.002484 -0.353553
v 0.000000 0.002484 -0.500000
v 0.353553 0.558214 -0.353553
v 0.500000 0.002484 -0.000000
v 0.500000 0.558214 0.000000
v 0.353553 0.002484 0.353553
v 0.353553 0.558214 0.353553
v 0.000000 0.002484 0.500000
v 0.000000 0.558214 0.500000
v -0.353553 0.002484 0.353553
v -0.353553 0.558214 0.353553
v -0.500000 0.002484 -0.000000
v -0.500000 0.558214 0.000000
v -0.353553 0.002484 -0.353553
v -0.353553 0.558214 -0.353553
vt 0.500000 0.000000
vt 0.000000 0.500000
vt 0.000000 0.000000
vt 0.500000 0.000000
vt 0.000000 0.500000
vt 0.000000 0.000000
vt 0.500000 0.000000
vt 0.000000 0.500000
vt 0.000000 0.000000
vt 0.500000 0.000000
vt 0.000000 0.500000
vt 0.000000 0.000000
vt 0.500000 0.000000
vt 0.000000 0.500000
vt 0.000000 0.000000
vt 0.500000 0.000000
vt 0.000000 0.500000
vt 0.000000 0.000000
vt 0.500000 0.000000
vt 0.000000 0.500000
vt 0.000000 0.000000
vt 0.500000 0.000000
vt 0.000000 0.500000
vt 0.000000 0.000000
vt 0.426777 0.073223
vt 0.073223 0.073223
vt 0.073223 0.426777
vt 0.500000 0.500000
vt 0.500000 0.500000
vt 0.500000 0.500000
vt 0.500000 0.500000
vt 0.500000 0.500000
vt 0.500000 0.500000
vt 0.500000 0.500000
vt 0.500000 0.500000
vt 0.250000 0.500000
vt 0.426777 0.426777
vt 0.500000 0.250000
vt 0.250000 0.000000
vt 0.000000 0.250000
vn -0.3827 -0.0000 0.9239
vn 0.3827 0.0000 -0.9239
vn -0.3827 0.0000 -0.9239
vn 0.3827 -0.0000 0.9239
vn 0.9239 0.0000 0.3827
vn 0.9239 0.0000 -0.3827
vn -0.9239 0.0000 0.3827
vn -0.9239 0.0000 -0.3827
vn -0.0000 1.0000 0.0000
s 1
f 12/1/1 9/2/1 10/3/1
f 4/4/2 3/5/2 1/6/2
f 1/7/3 15/8/3 16/9/3
f 10/10/4 7/11/4 8/12/4
f 8/13/5 5/14/5 6/15/5
f 6/16/6 2/17/6 4/18/6
f 14/19/7 11/20/7 12/21/7
f 16/22/8 13/23/8 14/24/8
f 8/25/9 4/26/9 16/27/9
f 12/1/1 11/28/1 9/2/1
f 4/4/2 2/29/2 3/5/2
f 1/7/3 3/30/3 15/8/3
f 10/10/4 9/31/4 7/11/4
f 8/13/5 7/32/5 5/14/5
f 6/16/6 5/33/6 2/17/6
f 14/19/7 13/34/7 11/20/7
f 16/22/8 15/35/8 13/23/8
f 16/27/9 14/36/9 12/37/9
f 12/37/9 10/38/9 8/25/9
f 8/25/9 6/39/9 4/26/9
f 4/26/9 1/40/9 16/27/9
f 16/27/9 12/37/9 8/25/9
