# Blender v2.79 (sub 0) OBJ File: 'turret17.blend'
# www.blender.org
o Cylinder
v 0.000000 0.000000 -0.500000
v 0.191342 0.000000 -0.461940
v 0.353553 0.000000 -0.353553
v 0.461940 0.000000 -0.191342
v 0.500000 0.000000 0.000000
v 0.461940 0.000000 0.191342
v 0.353553 0.000000 0.353553
v 0.191342 0.000000 0.461940
v 0.000000 0.000000 0.500000
v -0.191342 0.000000 0.461940
v -0.353553 0.000000 0.353554
v -0.461940 0.000000 0.191342
v -0.500000 0.000000 -0.000000
v -0.461940 0.000000 -0.191342
v -0.353553 0.000000 -0.353554
v -0.191341 0.000000 -0.461940
v 0.121057 0.500000 -0.292258
v -0.000000 0.500000 -0.316338
v 0.223685 0.500000 -0.223685
v 0.292258 0.500000 -0.121057
v 0.316338 0.500000 0.000000
v 0.292258 0.500000 0.121057
v 0.223685 0.500000 0.223685
v 0.121057 0.500000 0.292258
v 0.000000 0.500000 0.316338
v -0.121057 0.500000 0.292258
v -0.223685 0.500000 0.223685
v -0.292258 0.500000 0.121057
v -0.316338 0.500000 0.000000
v -0.292258 0.500000 -0.121057
v -0.223685 0.500000 -0.223685
v -0.121057 0.500000 -0.292258
v 0.191342 0.500000 -0.461940
v 0.000000 0.500000 -0.500000
v 0.353553 0.500000 -0.353553
v 0.461940 0.500000 -0.191342
v 0.500000 0.500000 0.000000
v 0.461940 0.500000 0.191342
v 0.353553 0.500000 0.353553
v 0.191342 0.500000 0.461940
v 0.000000 0.500000 0.500000
v -0.191342 0.500000 0.461940
v -0.353553 0.500000 0.353554
v -0.461940 0.500000 0.191342
v -0.500000 0.500000 -0.000000
v -0.461940 0.500000 -0.191342
v -0.353553 0.500000 -0.353554
v -0.191341 0.500000 -0.461940
vt 0.500000 0.000000
vt 0.000000 0.500000
vt 0.000000 0.000000
vt 0.500000 0.000000
vt 0.000000 0.500000
vt 0.000000 0.000000
vt 0.500000 0.000000
vt 0.000000 0.500000
vt 0.000000 0.000000
vt 0.500000 0.000000
vt 0.000000 0.500000
vt 0.000000 0.000000
vt 0.500000 0.000000
vt 0.000000 0.500000
vt 0.000000 0.000000
vt 0.500000 0.000000
vt 0.000000 0.500000
vt 0.000000 0.000000
vt 0.500000 0.000000
vt 0.000000 0.500000
vt 0.000000 0.000000
vt 0.500000 0.000000
vt 0.000000 0.500000
vt 0.000000 0.000000
vt 0.500000 0.000000
vt 0.000000 0.500000
vt 0.000000 0.000000
vt 0.500000 0.000000
vt 0.000000 0.500000
vt 0.000000 0.000000
vt 0.500000 0.000000
vt 0.000000 0.500000
vt 0.000000 0.000000
vt 0.500000 0.000000
vt 0.000000 0.500000
vt 0.000000 0.000000
vt 0.500000 0.000000
vt 0.000000 0.500000
vt 0.000000 0.000000
vt 0.500000 0.000000
vt 0.000000 0.500000
vt 0.000000 0.000000
vt 0.500000 0.000000
vt 0.000000 0.500000
vt 0.000000 0.000000
vt 0.500000 0.000000
vt 0.000000 0.500000
vt 0.000000 0.000000
vt 0.500000 0.000000
vt 0.000000 0.500000
vt 0.000000 0.000000
vt 0.500000 0.000000
vt 0.000000 0.500000
vt 0.000000 0.000000
vt 0.500000 0.000000
vt 0.000000 0.500000
vt 0.000000 0.000000
vt 0.000000 0.000000
vt 0.500000 0.500000
vt 0.000000 0.500000
vt 0.000000 0.000000
vt 0.500000 0.500000
vt 0.000000 0.500000
vt 0.500000 0.000000
vt 0.000000 0.500000
vt 0.000000 0.000000
vt 0.500000 0.000000
vt 0.000000 0.500000
vt 0.000000 0.000000
vt 0.000000 0.000000
vt 0.500000 0.500000
vt 0.000000 0.500000
vt 0.000000 0.000000
vt 0.500000 0.500000
vt 0.000000 0.500000
vt 0.500000 0.000000
vt 0.000000 0.500000
vt 0.000000 0.000000
vt 0.500000 0.000000
vt 0.000000 0.500000
vt 0.000000 0.000000
vt 0.000000 0.000000
vt 0.500000 0.500000
vt 0.000000 0.500000
vt 0.500000 0.000000
vt 0.000000 0.500000
vt 0.000000 0.000000
vt 0.000000 0.000000
vt 0.500000 0.500000
vt 0.000000 0.500000
vt 0.500000 0.000000
vt 0.000000 0.500000
vt 0.000000 0.000000
vt 0.500000 0.000000
vt 0.000000 0.500000
vt 0.000000 0.000000
vt 0.500000 0.500000
vt 0.500000 0.500000
vt 0.500000 0.500000
vt 0.500000 0.500000
vt 0.500000 0.500000
vt 0.500000 0.500000
vt 0.500000 0.500000
vt 0.500000 0.500000
vt 0.500000 0.500000
vt 0.500000 0.500000
vt 0.500000 0.000000
vt 0.500000 0.000000
vt 0.500000 0.000000
vt 0.500000 0.000000
vt 0.500000 0.000000
vt 0.500000 0.000000
vn 0.0000 0.0000 -1.0000
vn 0.3827 0.0000 -0.9239
vn 0.7071 0.0000 -0.7071
vn 0.9239 0.0000 -0.3827
vn 1.0000 0.0000 0.0000
vn 0.9239 0.0000 0.3827
vn 0.7071 0.0000 0.7071
vn 0.3827 0.0000 0.9239
vn 0.0000 0.0000 1.0000
vn -0.3827 0.0000 0.9239
vn -0.7071 0.0000 0.7071
vn -0.9239 0.0000 0.3827
vn -1.0000 0.0000 -0.0000
vn -0.9239 0.0000 -0.3827
vn -0.7071 0.0000 -0.7071
vn -0.3827 0.0000 -0.9239
vn 0.0000 1.0000 0.0000
s 1
f 34/1/1 2/2/2 1/3/1
f 33/4/2 3/5/3 2/6/2
f 35/7/3 4/8/4 3/9/3
f 36/10/4 5/11/5 4/12/4
f 37/13/5 6/14/6 5/15/5
f 38/16/6 7/17/7 6/18/6
f 39/19/7 8/20/8 7/21/7
f 40/22/8 9/23/9 8/24/8
f 41/25/9 10/26/10 9/27/9
f 42/28/10 11/29/11 10/30/10
f 43/31/11 12/32/12 11/33/11
f 44/34/12 13/35/13 12/36/12
f 45/37/13 14/38/14 13/39/13
f 46/40/14 15/41/15 14/42/14
f 47/43/15 16/44/16 15/45/15
f 48/46/16 1/47/1 16/48/16
f 17/49/17 34/50/17 18/51/17
f 19/52/17 33/53/17 17/54/17
f 20/55/17 35/56/17 19/57/17
f 20/58/17 37/59/17 36/60/17
f 21/61/17 38/62/17 37/63/17
f 23/64/17 38/65/17 22/66/17
f 24/67/17 39/68/17 23/69/17
f 24/70/17 41/71/17 40/72/17
f 25/73/17 42/74/17 41/75/17
f 27/76/17 42/77/17 26/78/17
f 28/79/17 43/80/17 27/81/17
f 28/82/17 45/83/17 44/84/17
f 30/85/17 45/86/17 29/87/17
f 30/88/17 47/89/17 46/90/17
f 32/91/17 47/92/17 31/93/17
f 18/94/17 48/95/17 32/96/17
f 34/1/1 33/97/2 2/2/2
f 33/4/2 35/98/3 3/5/3
f 35/7/3 36/99/4 4/8/4
f 36/10/4 37/59/5 5/11/5
f 37/13/5 38/62/6 6/14/6
f 38/16/6 39/100/7 7/17/7
f 39/19/7 40/101/8 8/20/8
f 40/22/8 41/71/9 9/23/9
f 41/25/9 42/74/10 10/26/10
f 42/28/10 43/102/11 11/29/11
f 43/31/11 44/103/12 12/32/12
f 44/34/12 45/83/13 13/35/13
f 45/37/13 46/104/14 14/38/14
f 46/40/14 47/89/15 15/41/15
f 47/43/15 48/105/16 16/44/16
f 48/46/16 34/106/1 1/47/1
f 17/49/17 33/97/17 34/50/17
f 19/52/17 35/98/17 33/53/17
f 20/55/17 36/99/17 35/56/17
f 20/58/17 21/107/17 37/59/17
f 21/61/17 22/108/17 38/62/17
f 23/64/17 39/100/17 38/65/17
f 24/67/17 40/101/17 39/68/17
f 24/70/17 25/109/17 41/71/17
f 25/73/17 26/110/17 42/74/17
f 27/76/17 43/102/17 42/77/17
f 28/79/17 44/103/17 43/80/17
f 28/82/17 29/111/17 45/83/17
f 30/85/17 46/104/17 45/86/17
f 30/88/17 31/112/17 47/89/17
f 32/91/17 48/105/17 47/92/17
f 18/94/17 34/106/17 48/95/17
