# Blender v2.79 (sub 0) OBJ File: 'turret12.blend'
# www.blender.org
o Cube_Cube.003
v 0.307903 0.634559 0.451011
v -0.341347 0.530990 0.500000
v 0.341347 0.530990 0.500000
v 0.451011 0.634559 -0.307903
v 0.500000 0.530990 0.341348
v 0.500000 0.530990 -0.341347
v -0.451011 0.634559 -0.307903
v -0.307903 0.634559 0.451011
v 0.451011 0.634559 0.307903
v -0.451011 0.634559 0.307903
v -0.500000 0.530990 -0.341347
v -0.500000 0.530990 0.341348
v -0.307903 0.634559 -0.451011
v 0.341347 0.530990 -0.500000
v -0.341347 0.530990 -0.500000
v -0.341347 0.003049 -0.500000
v 0.500000 0.003048 -0.341348
v 0.341347 0.003048 0.500000
v 0.307903 0.634559 -0.451011
v -0.500000 0.003048 0.341347
v -0.341347 0.003048 0.500000
v 0.341347 0.003049 -0.500000
v -0.500000 0.003048 -0.341348
v 0.500000 0.003048 0.341347
vt 0.500000 0.000000
vt 0.000000 0.500000
vt 0.000000 0.000000
vt 0.500000 0.000000
vt 0.000000 0.500000
vt 0.000000 0.000000
vt 0.500000 0.000000
vt 0.000000 0.500000
vt 0.000000 0.000000
vt 0.000000 0.000000
vt 0.500000 0.500000
vt 0.000000 0.500000
vt 0.500000 0.000000
vt 0.000000 0.500000
vt 0.000000 0.000000
vt 0.500000 0.000000
vt 0.000000 0.000000
vt 0.500000 0.000000
vt 0.000000 0.500000
vt 0.000000 0.000000
vt 0.500000 0.000000
vt 0.000000 0.500000
vt 0.000000 0.000000
vt 0.500000 0.000000
vt 0.000000 0.500000
vt 0.000000 0.000000
vt 0.000000 0.000000
vt 0.500000 0.500000
vt 0.000000 0.500000
vt 0.500000 0.000000
vt 0.000000 0.500000
vt 0.000000 0.000000
vt 0.500000 0.500000
vt 0.500000 0.000000
vt 0.000000 0.500000
vt 0.000000 0.500000
vt 0.000000 0.000000
vt 0.500000 0.000000
vt 0.000000 0.000000
vt 0.426777 0.073223
vt 0.073223 0.073223
vt 0.073223 0.426777
vt 0.000000 0.500000
vt 0.500000 0.500000
vt 0.500000 0.500000
vt 0.500000 0.000000
vt 0.500000 0.500000
vt 0.500000 0.500000
vt 0.500000 0.500000
vt 0.500000 0.500000
vt 0.500000 0.500000
vt 0.500000 0.000000
vt 0.500000 0.500000
vt 0.500000 0.500000
vt 0.250000 0.500000
vt 0.426777 0.426777
vt 0.500000 0.250000
vt 0.250000 0.000000
vt 0.000000 0.250000
vt 0.500000 0.500000
vn 0.0000 0.4276 -0.9040
vn 0.0000 0.1973 -0.9803
vn -0.9040 0.4276 0.0000
vn -0.9803 0.1973 0.0000
vn -0.6854 0.2458 -0.6854
vn -0.6162 0.4905 -0.6162
vn 0.9040 0.4276 0.0000
vn 0.9803 0.1973 0.0000
vn 0.0000 0.4276 0.9040
vn 0.0000 0.1973 0.9803
vn 0.7071 0.0000 -0.7071
vn 0.6854 0.2458 -0.6854
vn 1.0000 -0.0000 0.0000
vn -0.6854 0.2458 0.6854
vn -0.7071 -0.0000 0.7071
vn -0.6162 0.4905 0.6162
vn 0.6854 0.2458 0.6854
vn 0.6162 0.4905 0.6162
vn 0.6162 0.4905 -0.6162
vn -0.7071 0.0000 -0.7071
vn 0.0000 -0.0000 1.0000
vn -1.0000 -0.0000 0.0000
vn 0.7071 -0.0000 0.7071
vn -0.0000 1.0000 0.0000
vn 0.0000 0.0000 -1.0000
s 1
f 19/1/1 15/2/2 13/3/1
f 7/4/3 12/5/4 10/6/3
f 11/7/5 13/8/6 15/9/5
f 4/10/7 5/11/8 6/12/8
f 8/13/9 3/14/10 1/15/9
f 22/16/11 6/12/12 17/17/11
f 5/18/8 17/19/13 6/20/8
f 12/21/14 21/22/15 2/23/14
f 10/24/16 2/25/14 8/26/16
f 3/27/17 9/28/18 1/29/18
f 14/30/12 4/31/19 6/20/12
f 16/32/20 11/33/5 15/2/5
f 2/34/10 18/35/21 3/27/10
f 11/7/4 20/36/22 12/37/4
f 24/38/23 3/14/17 18/39/23
f 4/40/24 13/41/24 10/42/24
f 14/30/2 16/43/25 15/9/2
f 19/1/1 14/44/2 15/2/2
f 7/4/3 11/33/4 12/5/4
f 11/7/5 7/45/6 13/8/6
f 4/10/7 9/46/7 5/11/8
f 8/13/9 2/47/10 3/14/10
f 22/16/11 14/44/12 6/12/12
f 5/18/8 24/48/13 17/19/13
f 12/21/14 20/49/15 21/22/15
f 10/24/16 12/50/14 2/25/14
f 3/27/17 5/18/17 9/28/18
f 14/30/12 19/51/19 4/31/19
f 16/32/20 23/52/20 11/33/5
f 2/34/10 21/53/21 18/35/21
f 11/7/4 23/54/22 20/36/22
f 24/38/23 5/11/17 3/14/17
f 10/42/24 8/55/24 1/56/24
f 1/56/24 9/57/24 4/40/24
f 4/40/24 19/58/24 13/41/24
f 13/41/24 7/59/24 10/42/24
f 10/42/24 1/56/24 4/40/24
f 14/30/2 22/60/25 16/43/25
