# Blender v2.79 (sub 0) OBJ File: 'turret16.blend'
# www.blender.org
o Cube
v -0.251952 0.468470 0.281662
v -0.167968 0.676379 0.187775
v -0.251952 0.468470 -0.281662
v -0.167968 0.676379 -0.187775
v 0.251952 0.468470 0.281662
v 0.167968 0.676379 0.187775
v 0.251952 0.468470 -0.281662
v 0.167968 0.676379 -0.187775
v -0.314940 0.468470 0.000000
v -0.209960 0.676379 0.000000
v 0.314940 0.468470 0.000000
v 0.209960 0.676379 0.000000
v -0.064353 0.468470 -0.332654
v 0.064353 0.468470 -0.332654
v 0.064353 0.676379 -0.215295
v -0.064353 0.676379 -0.215295
v 0.064353 0.468470 0.332654
v -0.064353 0.468470 0.332654
v -0.064353 0.676379 0.215295
v 0.064353 0.676379 0.215295
v -0.064353 0.676379 0.000000
v 0.064353 0.676379 0.000000
v 0.064353 0.468470 0.000000
v -0.064353 0.468470 0.000000
v -0.240425 0.548298 0.268776
v -0.240425 0.548298 -0.268775
v 0.240425 0.548298 -0.268775
v 0.240425 0.548298 0.268776
v 0.300531 0.548298 0.000000
v -0.300531 0.548298 0.000000
v -0.066991 0.548298 0.315749
v 0.066991 0.548298 0.315749
v -0.064353 0.548298 0.000000
v 0.064353 0.548298 0.000000
v 0.066991 0.548298 -0.315749
v -0.066991 0.548298 -0.315749
v 0.064353 0.548298 0.215295
v -0.064353 0.548298 0.215295
vt 0.000000 0.000000
vt 0.500000 0.000000
vt 0.500000 0.500000
vt 0.000000 0.000000
vt 0.500000 0.500000
vt 0.000000 0.500000
vt 0.000000 0.500000
vt 0.000000 0.000000
vt 0.000000 0.000000
vt 0.500000 0.500000
vt 0.000000 0.500000
vt 0.500000 0.000000
vt 0.000000 0.500000
vt 0.000000 0.000000
vt 0.500000 0.000000
vt 0.000000 0.500000
vt 0.000000 0.000000
vt 0.000000 0.000000
vt 0.500000 0.500000
vt 0.000000 0.500000
vt 0.500000 0.000000
vt 0.000000 0.000000
vt 0.000000 0.000000
vt 0.500000 0.500000
vt 0.000000 0.500000
vt 0.500000 0.000000
vt 0.000000 0.500000
vt 0.000000 0.000000
vt 0.500000 0.000000
vt 0.000000 0.500000
vt 0.000000 0.000000
vt 0.500000 0.000000
vt 0.000000 0.500000
vt 0.500000 0.000000
vt 0.000000 0.500000
vt 0.000000 0.000000
vt 0.500000 0.500000
vt 0.500000 0.000000
vt 0.000000 0.500000
vt 0.500000 0.500000
vt 0.000000 0.500000
vt 0.500000 0.000000
vt 0.000000 0.500000
vt 0.000000 0.000000
vt 0.500000 0.000000
vt 0.000000 0.000000
vt 0.000000 0.000000
vt 0.500000 0.500000
vt 0.000000 0.500000
vt 0.500000 0.000000
vt 0.000000 0.500000
vt 0.500000 0.500000
vt 0.000000 0.500000
vt 0.500000 0.500000
vt 0.000000 0.500000
vt 0.500000 0.000000
vt 0.000000 0.000000
vt 0.500000 0.000000
vt 0.000000 0.500000
vt 0.000000 0.000000
vt 0.500000 0.000000
vt 0.000000 0.500000
vt 0.000000 0.000000
vt 0.500000 0.000000
vt 0.000000 0.500000
vt 0.000000 0.000000
vt 0.500000 0.000000
vt 0.000000 0.000000
vt 0.500000 0.000000
vt 0.000000 0.000000
vt 0.000000 0.000000
vt 0.500000 0.500000
vt 0.000000 0.500000
vt 0.000000 0.000000
vt 0.500000 0.500000
vt 0.000000 0.500000
vt 0.500000 0.000000
vt 0.000000 0.500000
vt 0.000000 0.000000
vt 0.000000 0.000000
vt 0.500000 0.500000
vt 0.000000 0.500000
vt 0.500000 0.500000
vt 0.000000 0.500000
vt 0.000000 0.500000
vt 0.000000 0.000000
vt 0.500000 0.500000
vt 0.000000 0.500000
vt 0.500000 0.000000
vt 0.500000 0.500000
vt 0.500000 0.000000
vt 0.500000 0.500000
vt 0.500000 0.500000
vt 0.500000 0.000000
vt 0.500000 0.500000
vt 0.500000 0.000000
vt 0.500000 0.500000
vt 0.500000 0.500000
vt 0.500000 0.000000
vt 0.500000 0.500000
vt 0.500000 0.500000
vt 0.500000 0.000000
vt 0.500000 0.500000
vt 0.500000 0.500000
vt 0.500000 0.500000
vt 0.500000 0.500000
vt 0.500000 0.000000
vt 0.500000 0.000000
vt 0.500000 0.000000
vt 0.500000 0.000000
vt 0.500000 0.000000
vn -1.0000 0.0000 0.0078
vn -0.9999 0.0000 0.0131
vn -0.9997 0.0000 0.0263
vn 0.0000 1.0000 0.0000
vn 0.9999 0.0000 0.0131
vn 1.0000 0.0000 0.0000
vn 1.0000 0.0000 0.0078
vn 0.0000 -1.0000 0.0000
vn 0.9997 0.0000 0.0263
vn -0.1603 0.3340 0.9289
vn 0.1246 0.2014 0.9716
vn 0.1603 0.3340 0.9289
vn 0.1246 0.2014 -0.9716
vn -0.1205 0.4118 -0.9033
vn 0.1205 0.4118 -0.9033
vn -0.2422 0.3797 -0.8928
vn -0.1246 0.2014 -0.9716
vn -0.2575 0.1901 -0.9474
vn -0.2063 0.6054 -0.7687
vn 0.1065 0.6150 -0.7813
vn -0.1065 0.6150 -0.7813
vn 0.2422 0.3797 -0.8928
vn 0.2575 0.1901 -0.9474
vn 0.2063 0.6054 -0.7687
vn -0.9165 0.3435 0.2050
vn -0.9841 0.1776 0.0000
vn -0.9611 0.1735 0.2149
vn -0.8032 0.5680 0.1796
vn -0.9265 0.3763 0.0000
vn 0.9165 0.3435 -0.2050
vn 0.9841 0.1776 -0.0000
vn 0.9611 0.1735 -0.2149
vn 0.8032 0.5680 -0.1796
vn 0.9265 0.3763 -0.0000
vn 0.2422 0.3797 0.8928
vn 0.2575 0.1901 0.9474
vn 0.2063 0.6054 0.7687
vn -0.1246 0.2014 0.9716
vn -0.2422 0.3797 0.8928
vn -0.2575 0.1901 0.9474
vn -0.2063 0.6054 0.7687
vn 0.9165 0.3435 0.2050
vn 0.9611 0.1735 0.2149
vn -1.0000 0.0000 0.0000
vn 0.8032 0.5680 0.1796
vn -0.9165 0.3435 -0.2050
vn -0.9611 0.1735 -0.2149
vn 0.0000 0.0000 1.0000
vn -0.8032 0.5680 -0.1796
vn -0.8165 0.5774 0.0000
vn 0.8165 0.5774 -0.0000
vn 0.2040 0.6068 0.7683
vn -0.2040 0.6068 0.7683
s 1
f 20/1/1 37/2/2 32/3/3
f 8/4/4 22/5/4 12/6/4
f 37/2/4 33/7/4 38/8/4
f 21/9/4 2/10/4 19/11/4
f 38/12/5 21/13/6 19/14/7
f 22/15/4 6/16/4 12/17/4
f 3/18/8 24/19/8 9/20/8
f 4/21/4 21/13/4 16/22/4
f 23/23/8 5/24/8 17/25/8
f 24/26/8 1/27/8 9/28/8
f 7/29/8 23/30/8 14/31/8
f 23/32/8 13/33/8 14/31/8
f 21/34/4 15/35/4 16/22/4
f 31/36/9 38/12/5 19/37/7
f 17/38/8 24/39/8 23/23/8
f 31/36/10 17/40/11 32/41/12
f 14/42/13 36/43/14 35/44/15
f 26/45/16 13/33/17 3/18/18
f 4/21/19 36/43/14 26/46/16
f 15/47/20 36/48/14 16/49/21
f 32/50/4 38/51/4 31/36/4
f 14/31/13 27/52/22 7/53/23
f 35/44/15 8/54/24 27/55/22
f 25/56/25 9/20/26 1/57/27
f 2/58/28 30/59/29 25/60/25
f 27/61/30 11/62/31 7/63/32
f 8/64/33 29/65/34 27/66/30
f 28/67/35 17/25/11 5/68/36
f 6/69/37 32/41/12 28/70/35
f 18/71/38 25/72/39 1/27/40
f 31/36/10 2/10/41 25/73/39
f 11/74/31 28/75/42 5/76/43
f 34/77/44 20/78/1 22/79/44
f 29/80/34 6/81/45 28/82/42
f 9/28/26 26/83/46 3/84/47
f 21/34/48 34/85/48 22/79/48
f 30/86/29 4/87/49 26/88/46
f 8/4/4 15/89/4 22/5/4
f 37/2/4 34/90/4 33/7/4
f 21/9/4 10/91/4 2/10/4
f 38/12/5 33/92/6 21/13/6
f 22/15/4 20/93/4 6/16/4
f 3/18/8 13/94/8 24/19/8
f 4/21/4 10/95/4 21/13/4
f 23/23/8 11/96/8 5/24/8
f 24/26/8 18/97/8 1/27/8
f 7/29/8 11/98/8 23/30/8
f 23/32/8 24/19/8 13/33/8
f 21/34/4 22/5/4 15/35/4
f 17/38/8 18/97/8 24/39/8
f 31/36/10 18/99/38 17/40/11
f 14/42/13 13/100/17 36/43/14
f 26/45/16 36/48/14 13/33/17
f 4/21/19 16/101/21 36/43/14
f 15/47/20 35/102/15 36/48/14
f 32/50/4 37/103/4 38/51/4
f 14/31/13 35/102/15 27/52/22
f 35/44/15 15/89/20 8/54/24
f 25/56/25 30/104/29 9/20/26
f 2/58/28 10/95/50 30/59/29
f 27/61/30 29/105/34 11/62/31
f 8/64/33 12/106/51 29/65/34
f 28/67/35 32/3/12 17/25/11
f 6/69/37 20/93/52 32/41/12
f 18/71/38 31/107/10 25/72/39
f 31/36/10 19/108/53 2/10/41
f 11/74/31 29/109/34 28/75/42
f 34/77/44 37/103/2 20/78/1
f 29/80/34 12/110/51 6/81/45
f 9/28/26 30/111/29 26/83/46
f 21/34/48 33/92/48 34/85/48
f 30/86/29 10/91/50 4/87/49
