# Blender v2.79 (sub 0) OBJ File: 'turret10.blend'
# www.blender.org
o Cube_Cube.001
v -0.500000 0.888427 0.000000
v -0.392787 0.001588 -0.392787
v -0.500000 0.001588 -0.000000
v 0.000000 0.888427 -0.500000
v 0.392787 0.001588 -0.392787
v 0.000000 0.001588 -0.500000
v 0.500000 0.888427 0.000000
v 0.392787 0.001588 0.392787
v 0.500000 0.001588 -0.000000
v 0.000000 0.888427 0.500000
v -0.392787 0.001588 0.392787
v 0.000000 0.001588 0.500000
v -0.392787 0.888427 0.392787
v -0.392787 0.888427 -0.392787
v 0.392787 0.888427 -0.392787
v 0.392787 0.888427 0.392787
vt 0.500000 0.000000
vt 0.000000 0.500000
vt 0.000000 0.000000
vt 0.500000 0.000000
vt 0.000000 0.500000
vt 0.000000 0.000000
vt 0.500000 0.000000
vt 0.000000 0.500000
vt 0.000000 0.000000
vt 0.000000 0.000000
vt 0.500000 0.500000
vt 0.000000 0.500000
vt 0.500000 0.000000
vt 0.000000 0.500000
vt 0.000000 0.000000
vt 0.250000 0.000000
vt 0.000000 0.250000
vt 0.250000 0.500000
vt 0.500000 0.000000
vt 0.000000 0.500000
vt 0.000000 0.000000
vt 0.500000 0.000000
vt 0.000000 0.500000
vt 0.000000 0.000000
vt 0.500000 0.000000
vt 0.000000 0.500000
vt 0.000000 0.000000
vt 0.500000 0.500000
vt 0.500000 0.500000
vt 0.500000 0.500000
vt 0.500000 0.000000
vt 0.500000 0.500000
vt 0.073223 0.426777
vt 0.426777 0.426777
vt 0.500000 0.250000
vt 0.426777 0.073223
vt 0.073223 0.073223
vt 0.500000 0.500000
vt 0.500000 0.500000
vt 0.500000 0.500000
vn 0.9647 -0.0000 0.2633
vn -0.2633 -0.0000 0.9647
vn 0.2633 0.0000 -0.9647
vn 0.2633 -0.0000 0.9647
vn -0.9647 0.0000 -0.2633
vn 0.0000 1.0000 0.0000
vn -0.2633 0.0000 -0.9647
vn 0.9647 0.0000 -0.2633
vn -0.9647 -0.0000 0.2633
s 1
f 16/1/1 9/2/1 7/3/1
f 13/4/2 12/5/2 10/6/2
f 15/7/3 6/8/3 4/9/3
f 16/10/4 12/11/4 8/12/4
f 14/13/5 3/14/5 1/15/5
f 4/16/6 1/17/6 10/18/6
f 4/19/7 2/20/7 14/21/7
f 7/22/8 5/23/8 15/24/8
f 1/25/9 11/26/9 13/27/9
f 16/1/1 8/28/1 9/2/1
f 13/4/2 11/29/2 12/5/2
f 15/7/3 5/30/3 6/8/3
f 16/10/4 10/31/4 12/11/4
f 14/13/5 2/32/5 3/14/5
f 13/33/6 10/18/6 1/17/6
f 16/34/6 7/35/6 10/18/6
f 15/36/6 4/16/6 7/35/6
f 14/37/6 1/17/6 4/16/6
f 10/18/6 7/35/6 4/16/6
f 4/19/7 6/38/7 2/20/7
f 7/22/8 9/39/8 5/23/8
f 1/25/9 3/40/9 11/26/9
