# Blender v2.79 (sub 0) OBJ File: 'turret3.blend'
# www.blender.org
o Cylinder
v 0.000000 0.000000 -0.500000
v 0.353553 0.000000 -0.353553
v 0.500000 0.000000 0.000000
v 0.353553 0.000000 0.353553
v -0.000000 0.000000 0.500000
v -0.353553 0.000000 0.353553
v -0.500000 0.000000 -0.000000
v -0.353553 0.000000 -0.353553
v -0.000000 0.977251 -0.450778
v 0.000000 0.869459 -0.500000
v 0.318748 0.977251 -0.318748
v 0.353553 0.869459 -0.353553
v 0.450778 0.977251 0.000000
v 0.500000 0.869459 0.000000
v 0.318748 0.977251 0.318748
v 0.353553 0.869459 0.353553
v -0.000000 0.977251 0.450778
v -0.000000 0.869459 0.500000
v -0.318748 0.977251 0.318748
v -0.353553 0.869459 0.353553
v -0.450778 0.977251 -0.000000
v -0.500000 0.869459 -0.000000
v -0.318748 0.977251 -0.318748
v -0.353553 0.869459 -0.353553
vt 0.500000 0.000000
vt 0.000000 0.500000
vt 0.000000 0.000000
vt 0.500000 0.000000
vt 0.000000 0.500000
vt 0.000000 0.000000
vt 0.500000 0.000000
vt 0.000000 0.500000
vt 0.000000 0.000000
vt 0.500000 0.000000
vt 0.000000 0.500000
vt 0.000000 0.000000
vt 0.500000 0.000000
vt 0.000000 0.500000
vt 0.000000 0.000000
vt 0.500000 0.000000
vt 0.000000 0.500000
vt 0.000000 0.000000
vt 0.500000 0.000000
vt 0.000000 0.500000
vt 0.000000 0.000000
vt 0.500000 0.000000
vt 0.000000 0.500000
vt 0.000000 0.000000
vt 0.500000 0.000000
vt 0.000000 0.500000
vt 0.000000 0.000000
vt 0.500000 0.000000
vt 0.000000 0.500000
vt 0.000000 0.000000
vt 0.000000 0.000000
vt 0.500000 0.500000
vt 0.000000 0.500000
vt 0.500000 0.000000
vt 0.000000 0.500000
vt 0.000000 0.000000
vt 0.000000 0.500000
vt 0.000000 0.000000
vt 0.000000 0.000000
vt 0.500000 0.500000
vt 0.000000 0.500000
vt 0.426777 0.073223
vt 0.073223 0.073223
vt 0.426777 0.426777
vt 0.000000 0.500000
vt 0.000000 0.000000
vt 0.500000 0.000000
vt 0.000000 0.500000
vt 0.000000 0.000000
vt 0.500000 0.500000
vt 0.500000 0.500000
vt 0.500000 0.500000
vt 0.500000 0.500000
vt 0.500000 0.500000
vt 0.500000 0.500000
vt 0.500000 0.500000
vt 0.500000 0.500000
vt 0.500000 0.500000
vt 0.073223 0.426777
vt 0.250000 0.500000
vt 0.500000 0.250000
vt 0.250000 0.000000
vt 0.000000 0.250000
vt 0.500000 0.500000
vn -0.3759 0.1877 -0.9075
vn -0.3827 0.0000 -0.9239
vn 0.9075 0.1877 0.3759
vn 0.9239 0.0000 0.3827
vn 0.3759 0.1877 0.9075
vn 0.3827 0.0000 0.9239
vn -0.3759 0.1877 0.9075
vn -0.3827 0.0000 0.9239
vn -0.9075 0.1877 0.3759
vn -0.9239 0.0000 0.3827
vn -0.9075 0.1877 -0.3759
vn -0.9239 0.0000 -0.3827
vn 0.3759 0.1877 -0.9075
vn 0.3827 0.0000 -0.9239
vn 0.9075 0.1877 -0.3759
vn 0.9239 0.0000 -0.3827
vn 0.3526 0.3887 -0.8512
vn 0.8512 0.3887 0.3526
vn 0.3526 0.3887 0.8512
vn -0.3526 0.3887 0.8512
vn -0.8512 0.3887 0.3526
vn -0.8512 0.3887 -0.3526
vn 0.0000 1.0000 -0.0000
vn 0.8512 0.3887 -0.3526
vn -0.3526 0.3887 -0.8512
s 1
f 24/1/1 1/2/2 8/3/2
f 14/4/3 4/5/4 3/6/4
f 16/7/5 5/8/6 4/9/6
f 18/10/7 6/11/8 5/12/8
f 20/13/9 7/14/10 6/15/10
f 22/16/11 8/17/12 7/18/12
f 10/19/13 2/20/14 1/21/14
f 12/22/15 3/23/16 2/24/16
f 9/25/17 12/26/13 10/27/13
f 13/28/18 16/29/3 14/30/3
f 17/31/19 16/32/5 15/33/19
f 17/34/20 20/35/7 18/36/7
f 22/16/9 19/37/21 21/38/21
f 23/39/22 22/40/11 21/41/22
f 21/42/23 17/43/23 9/44/23
f 14/4/15 11/45/24 13/46/24
f 23/47/25 10/48/1 24/49/1
f 24/1/1 10/50/1 1/2/2
f 14/4/3 16/32/3 4/5/4
f 16/7/5 18/51/5 5/8/6
f 18/10/7 20/52/7 6/11/8
f 20/13/9 22/40/9 7/14/10
f 22/16/11 24/53/11 8/17/12
f 10/19/13 12/54/13 2/20/14
f 12/22/15 14/55/15 3/23/16
f 9/25/17 11/56/17 12/26/13
f 13/28/18 15/57/18 16/29/3
f 17/31/19 18/10/5 16/32/5
f 17/34/20 19/58/20 20/35/7
f 22/16/9 20/52/9 19/37/21
f 23/39/22 24/1/11 22/40/11
f 13/59/23 11/60/23 9/44/23
f 9/44/23 23/61/23 21/42/23
f 21/42/23 19/62/23 17/43/23
f 17/43/23 15/63/23 13/59/23
f 13/59/23 9/44/23 17/43/23
f 14/4/15 12/54/15 11/45/24
f 23/47/25 9/64/25 10/48/1
