# Blender v2.79 (sub 0) OBJ File: 'turret16.blend'
# www.blender.org
o Cube.001
v -0.000000 0.648206 -0.056994
v -0.000000 0.649140 0.214763
v 0.031266 0.644014 -0.056994
v 0.032090 0.644838 0.214763
v 0.035458 0.612748 -0.056994
v 0.036392 0.612748 0.214763
v 0.031266 0.581482 -0.056994
v 0.032090 0.580658 0.214763
v -0.000000 0.577290 -0.056994
v -0.000000 0.576356 0.214763
v -0.031266 0.581482 -0.056994
v -0.032090 0.580658 0.214763
v -0.035458 0.612748 -0.056994
v -0.036392 0.612748 0.214763
v -0.031266 0.644014 -0.056994
v -0.032090 0.644838 0.214763
v 0.054540 0.667288 0.214763
v -0.000000 0.674600 0.214763
v 0.061852 0.612748 0.214763
v 0.054540 0.558208 0.214763
v -0.000000 0.550896 0.214763
v -0.054540 0.558208 0.214763
v -0.061852 0.612748 0.214763
v -0.054540 0.667288 0.214763
v 0.022364 0.635112 0.330782
v -0.000000 0.638110 0.330782
v 0.025362 0.612748 0.330782
v 0.022364 0.590384 0.330782
v -0.000000 0.587386 0.330782
v -0.022364 0.590384 0.330782
v -0.025362 0.612748 0.330782
v -0.022364 0.635112 0.330782
v 0.032090 0.644838 0.330782
v -0.000000 0.649140 0.330782
v 0.036392 0.612748 0.330782
v 0.032090 0.580658 0.330782
v -0.000000 0.576356 0.330782
v -0.032090 0.580658 0.330782
v -0.036392 0.612748 0.330782
v -0.032090 0.644838 0.330782
v 0.022364 0.635112 0.791559
v -0.000000 0.638110 0.791559
v 0.025362 0.612748 0.791559
v 0.022364 0.590384 0.791559
v -0.000000 0.587385 0.791559
v -0.022364 0.590384 0.791559
v -0.025362 0.612748 0.791559
v -0.022364 0.635112 0.791559
v -0.000000 0.674600 0.034882
v 0.054540 0.667288 0.034882
v 0.061852 0.612748 0.034882
v 0.054540 0.558208 0.034882
v -0.000000 0.550896 0.034882
v -0.054540 0.558208 0.034882
v -0.061852 0.612748 0.034882
v -0.054540 0.667288 0.034882
v -0.019573 0.593175 0.401415
v -0.019573 0.593175 0.686469
v -0.000000 0.590551 0.686469
v -0.000000 0.590551 0.401415
v 0.019573 0.632321 0.401415
v 0.019573 0.632321 0.686469
v -0.000000 0.634945 0.686469
v -0.000000 0.634945 0.401415
v -0.022364 0.590384 0.686469
v -0.022364 0.590384 0.401415
v -0.025362 0.612748 0.401415
v -0.025362 0.612748 0.686469
v 0.022364 0.635112 0.686469
v 0.022364 0.635112 0.401415
v 0.025362 0.612748 0.401415
v 0.025362 0.612748 0.686469
v -0.022364 0.635112 0.401415
v -0.022364 0.635112 0.686469
v 0.022364 0.590384 0.401415
v 0.022364 0.590384 0.686469
v -0.000000 0.638110 0.401415
v -0.000000 0.638110 0.686469
v -0.000000 0.587386 0.401415
v -0.000000 0.587385 0.686469
v 0.019573 0.593175 0.401415
v 0.019573 0.593175 0.686469
v -0.019573 0.632321 0.401415
v -0.019573 0.632321 0.686469
v 0.022197 0.612748 0.401415
v 0.022197 0.612748 0.686469
v -0.022197 0.612748 0.401415
v -0.022197 0.612748 0.686469
vt 0.000000 0.000000
vt 0.500000 0.500000
vt 0.000000 0.500000
vt 0.500000 0.000000
vt 0.000000 0.500000
vt 0.000000 0.000000
vt 0.000000 0.000000
vt 0.500000 0.500000
vt 0.000000 0.500000
vt 0.500000 0.000000
vt 0.000000 0.500000
vt 0.000000 0.000000
vt 0.000000 0.000000
vt 0.500000 0.500000
vt 0.000000 0.500000
vt 0.500000 0.000000
vt 0.000000 0.500000
vt 0.000000 0.000000
vt 0.000000 0.000000
vt 0.500000 0.500000
vt 0.000000 0.500000
vt 0.000000 0.000000
vt 0.500000 0.500000
vt 0.000000 0.500000
vt 0.500000 0.000000
vt 0.000000 0.500000
vt 0.000000 0.000000
vt 0.500000 0.000000
vt 0.000000 0.500000
vt 0.000000 0.000000
vt 0.000000 0.000000
vt 0.500000 0.500000
vt 0.000000 0.500000
vt 0.500000 0.000000
vt 0.000000 0.500000
vt 0.000000 0.000000
vt 0.000000 0.000000
vt 0.500000 0.500000
vt 0.000000 0.500000
vt 0.500000 0.000000
vt 0.000000 0.500000
vt 0.000000 0.000000
vt 0.000000 0.000000
vt 0.500000 0.500000
vt 0.000000 0.500000
vt 0.500000 0.000000
vt 0.000000 0.500000
vt 0.000000 0.000000
vt 0.500000 0.500000
vt 0.000000 0.500000
vt 0.500000 0.000000
vt 0.000000 0.500000
vt 0.000000 0.000000
vt 0.500000 0.500000
vt 0.000000 0.500000
vt 0.500000 0.000000
vt 0.000000 0.500000
vt 0.500000 0.000000
vt 0.000000 0.500000
vt 0.500000 0.500000
vt 0.000000 0.500000
vt 0.500000 0.500000
vt 0.000000 0.500000
vt 0.500000 0.000000
vt 0.000000 0.500000
vt 0.500000 0.000000
vt 0.000000 0.500000
vt 0.500000 0.000000
vt 0.000000 0.000000
vt 0.000000 0.000000
vt 0.500000 0.500000
vt 0.500000 0.000000
vt 0.000000 0.000000
vt 0.000000 0.000000
vt 0.500000 0.500000
vt 0.500000 0.000000
vt 0.000000 0.000000
vt 0.500000 0.500000
vt 0.500000 0.000000
vt 0.000000 0.000000
vt 0.000000 0.000000
vt 0.500000 0.500000
vt 0.426777 0.073223
vt 0.073223 0.073223
vt 0.073223 0.426777
vt 0.500000 0.500000
vt 0.000000 0.500000
vt 0.000000 0.000000
vt 0.500000 0.500000
vt 0.000000 0.500000
vt 0.000000 0.500000
vt 0.000000 0.500000
vt 0.500000 0.000000
vt 0.000000 0.500000
vt 0.000000 0.000000
vt 0.000000 0.500000
vt 0.000000 0.500000
vt 0.000000 0.000000
vt 0.500000 0.500000
vt 0.500000 0.000000
vt 0.000000 0.000000
vt 0.000000 0.000000
vt 0.500000 0.500000
vt 0.500000 0.000000
vt 0.000000 0.000000
vt 0.000000 0.000000
vt 0.500000 0.500000
vt 0.500000 0.000000
vt 0.000000 0.000000
vt 0.000000 0.000000
vt 0.500000 0.500000
vt 0.500000 0.000000
vt 0.000000 0.000000
vt 0.500000 0.000000
vt 0.000000 0.500000
vt 0.500000 0.000000
vt 0.000000 0.500000
vt 0.500000 0.000000
vt 0.000000 0.500000
vt 0.000000 0.000000
vt 0.500000 0.000000
vt 0.000000 0.500000
vt 0.000000 0.000000
vt 0.000000 0.000000
vt 0.500000 0.500000
vt 0.000000 0.500000
vt 0.000000 0.000000
vt 0.500000 0.500000
vt 0.000000 0.500000
vt 0.500000 0.000000
vt 0.000000 0.500000
vt 0.000000 0.000000
vt 0.500000 0.000000
vt 0.000000 0.500000
vt 0.000000 0.000000
vt 0.500000 0.500000
vt 0.000000 0.500000
vt 0.500000 0.500000
vt 0.000000 0.500000
vt 0.500000 0.000000
vt 0.000000 0.500000
vt 0.000000 0.000000
vt 0.000000 0.000000
vt 0.500000 0.500000
vt 0.500000 0.000000
vt 0.000000 0.500000
vt 0.000000 0.000000
vt 0.500000 0.000000
vt 0.000000 0.500000
vt 0.500000 0.500000
vt 0.000000 0.500000
vt 0.500000 0.000000
vt 0.000000 0.500000
vt 0.000000 0.000000
vt 0.500000 0.500000
vt 0.000000 0.500000
vt 0.000000 0.000000
vt 0.500000 0.500000
vt 0.000000 0.500000
vt 0.500000 0.000000
vt 0.000000 0.500000
vt 0.000000 0.000000
vt 0.500000 0.000000
vt 0.000000 0.000000
vt 0.000000 0.000000
vt 0.500000 0.500000
vt 0.000000 0.500000
vt 0.500000 0.000000
vt 0.000000 0.500000
vt 0.000000 0.000000
vt 0.500000 0.000000
vt 0.000000 0.000000
vt 0.500000 0.000000
vt 0.000000 0.500000
vt 0.000000 0.000000
vt 0.500000 0.000000
vt 0.000000 0.000000
vt 0.500000 0.000000
vt 0.000000 0.500000
vt 0.000000 0.000000
vt 0.500000 0.000000
vt 0.000000 0.500000
vt 0.500000 0.500000
vt 0.000000 0.500000
vt 0.000000 0.000000
vt 0.500000 0.000000
vt 0.000000 0.000000
vt 0.000000 0.000000
vt 0.500000 0.500000
vt 0.500000 0.000000
vt 0.500000 0.000000
vt 0.500000 0.000000
vt 0.500000 0.000000
vt 0.500000 0.500000
vt 0.500000 0.000000
vt 0.250000 0.500000
vt 0.426777 0.426777
vt 0.500000 0.250000
vt 0.250000 0.000000
vt 0.000000 0.250000
vt 0.500000 0.500000
vt 0.500000 0.500000
vt 0.500000 0.500000
vt 0.500000 0.500000
vt 0.500000 0.000000
vt 0.500000 0.500000
vt 0.500000 0.000000
vt 0.500000 0.500000
vt 0.500000 0.000000
vt 0.500000 0.500000
vt 0.500000 0.000000
vt 0.500000 0.500000
vt 0.500000 0.500000
vt 0.500000 0.500000
vt 0.500000 0.500000
vt 0.500000 0.500000
vt 0.500000 0.500000
vt 0.500000 0.500000
vt 0.500000 0.500000
vt 0.500000 0.000000
vt 0.500000 0.500000
vt 0.500000 0.500000
vt 0.500000 0.500000
vt 0.500000 0.000000
vt 0.500000 0.500000
vt 0.500000 0.000000
vt 0.500000 0.500000
vt 0.500000 0.500000
vt 0.500000 0.000000
vt 0.500000 0.500000
vt 0.500000 0.000000
vt 0.500000 0.000000
vn -0.0000 0.9905 -0.1378
vn 0.1329 0.9911 0.0000
vn 0.1318 0.9829 -0.1285
vn 0.9911 0.1329 0.0000
vn 0.9905 -0.0000 -0.1378
vn 0.9829 0.1318 -0.1285
vn 0.9911 -0.1329 0.0000
vn 0.9829 -0.1318 -0.1285
vn 0.1329 -0.9911 0.0000
vn -0.0000 -0.9905 -0.1378
vn 0.1318 -0.9829 -0.1285
vn -0.1329 -0.9911 0.0000
vn -0.1318 -0.9829 -0.1285
vn -0.9911 -0.1329 0.0000
vn -0.9905 -0.0000 -0.1378
vn -0.9829 -0.1318 -0.1285
vn -1.0000 0.0000 -0.0000
vn -0.9911 0.1329 0.0000
vn -0.9829 0.1318 -0.1285
vn -0.1329 0.9911 0.0000
vn -0.1318 0.9829 -0.1285
vn 0.0000 0.0000 1.0000
vn -0.0000 -1.0000 0.0000
vn 1.0000 0.0000 0.0000
vn -0.0000 1.0000 0.0000
vn 0.1278 0.9532 -0.2739
vn 0.9532 0.1278 -0.2739
vn 0.9611 -0.0000 -0.2761
vn 0.9532 -0.1278 -0.2739
vn 0.1278 -0.9532 -0.2739
vn -0.0000 -0.9611 -0.2761
vn -0.1278 -0.9532 -0.2739
vn -0.9532 -0.1278 -0.2739
vn -0.9611 -0.0000 -0.2761
vn -0.9532 0.1278 -0.2739
vn -0.1278 0.9532 -0.2739
vn -0.0000 0.9611 -0.2761
vn 0.0000 0.0000 -1.0000
s 1
f 49/1/1 17/2/2 50/3/3
f 17/4/4 51/5/5 50/6/6
f 51/7/5 20/8/7 52/9/8
f 20/10/9 53/11/10 52/12/11
f 53/13/10 22/14/12 54/15/13
f 22/16/14 55/17/15 54/18/16
f 14/19/17 38/20/14 39/21/17
f 55/22/15 24/23/18 56/24/19
f 24/25/20 49/26/1 56/27/21
f 4/28/22 18/29/22 2/30/22
f 4/31/22 19/32/22 17/33/22
f 8/34/22 19/35/22 6/36/22
f 8/37/22 21/38/22 20/39/22
f 12/40/22 21/41/22 10/42/22
f 12/43/22 23/44/22 22/45/22
f 16/46/22 23/47/22 14/19/22
f 16/48/22 18/49/22 24/50/22
f 29/51/23 66/52/12 30/53/12
f 6/36/24 33/54/4 35/55/24
f 14/56/17 40/57/18 16/48/18
f 6/58/24 36/59/7 8/37/7
f 2/30/25 40/60/20 34/61/25
f 10/42/23 36/62/9 37/63/23
f 10/64/23 38/65/12 12/43/12
f 2/66/25 33/67/2 4/31/2
f 25/68/22 34/61/22 26/69/22
f 25/70/22 35/71/22 33/67/22
f 28/72/22 35/55/22 27/73/22
f 28/74/22 37/75/22 36/59/22
f 30/76/22 37/63/22 29/77/22
f 30/53/22 39/78/22 38/65/22
f 32/79/22 39/21/22 31/80/22
f 32/81/22 34/82/22 40/57/22
f 47/83/22 45/84/22 43/85/22
f 25/70/2 77/86/25 70/87/2
f 69/88/2 42/89/25 41/90/2
f 32/79/20 77/91/25 26/69/25
f 28/72/9 79/92/23 29/77/23
f 62/93/2 64/94/25 63/95/25
f 30/76/14 67/96/17 31/80/17
f 25/68/4 71/97/24 27/73/24
f 3/98/26 49/99/1 50/3/3
f 3/100/27 51/5/5 5/101/28
f 7/102/29 51/103/5 52/9/8
f 7/104/30 53/11/10 9/105/31
f 11/106/32 53/107/10 54/15/13
f 11/108/33 55/17/15 13/109/34
f 15/110/35 55/111/15 56/24/19
f 15/112/36 49/26/1 1/113/37
f 27/114/24 75/115/7 28/74/7
f 31/116/17 73/117/18 32/81/18
f 76/118/9 45/119/23 80/120/23
f 74/121/20 42/122/25 78/123/25
f 76/124/7 43/125/24 44/126/7
f 74/127/18 47/128/17 48/129/18
f 69/130/4 43/131/24 72/132/24
f 65/133/14 47/134/17 68/135/17
f 78/123/38 62/136/38 63/137/38
f 68/135/38 84/138/38 88/139/38
f 67/140/22 83/141/22 73/142/22
f 77/143/22 83/144/22 64/94/22
f 77/145/22 61/146/22 70/147/22
f 72/148/38 62/149/38 69/88/38
f 72/132/38 82/150/38 86/151/38
f 80/152/38 82/153/38 76/124/38
f 65/154/12 45/155/23 46/156/12
f 59/157/23 57/158/12 60/159/23
f 59/160/23 81/161/9 82/162/9
f 63/163/25 83/141/20 84/164/20
f 86/165/24 81/166/7 85/167/24
f 84/168/18 87/169/17 88/170/17
f 86/171/24 61/146/4 62/172/4
f 88/173/17 57/174/14 58/175/14
f 79/176/22 57/174/22 66/177/22
f 78/178/38 84/179/38 74/127/38
f 67/180/22 57/158/22 87/169/22
f 68/181/38 58/182/38 65/154/38
f 80/120/38 58/183/38 59/184/38
f 79/185/22 81/166/22 60/159/22
f 71/186/22 81/161/22 75/187/22
f 71/188/22 61/189/22 85/167/22
f 49/1/1 18/190/25 17/2/2
f 17/4/4 19/32/24 51/5/5
f 51/7/5 19/191/24 20/8/7
f 20/10/9 21/38/23 53/11/10
f 53/13/10 21/192/23 22/14/12
f 22/16/14 23/44/17 55/17/15
f 14/19/17 12/40/14 38/20/14
f 55/22/15 23/193/17 24/23/18
f 24/25/20 18/49/25 49/26/1
f 4/28/22 17/2/22 18/29/22
f 4/31/22 6/58/22 19/32/22
f 8/34/22 20/8/22 19/35/22
f 8/37/22 10/64/22 21/38/22
f 12/40/22 22/14/22 21/41/22
f 12/43/22 14/56/22 23/44/22
f 16/46/22 24/23/22 23/47/22
f 16/48/22 2/66/22 18/49/22
f 29/51/23 79/194/23 66/52/12
f 6/36/24 4/28/4 33/54/4
f 14/56/17 39/78/17 40/57/18
f 6/58/24 35/71/24 36/59/7
f 2/30/25 16/46/20 40/60/20
f 10/42/23 8/34/9 36/62/9
f 10/64/23 37/75/23 38/65/12
f 2/66/25 34/82/25 33/67/2
f 25/68/22 33/54/22 34/61/22
f 25/70/22 27/114/22 35/71/22
f 28/72/22 36/62/22 35/55/22
f 28/74/22 29/51/22 37/75/22
f 30/76/22 38/20/22 37/63/22
f 30/53/22 31/116/22 39/78/22
f 32/79/22 40/60/22 39/21/22
f 32/81/22 26/195/22 34/82/22
f 43/85/22 41/196/22 42/197/22
f 42/197/22 48/198/22 47/83/22
f 47/83/22 46/199/22 45/84/22
f 45/84/22 44/200/22 43/85/22
f 43/85/22 42/197/22 47/83/22
f 25/70/2 26/195/25 77/86/25
f 69/88/2 78/178/25 42/89/25
f 32/79/20 73/201/20 77/91/25
f 28/72/9 75/202/9 79/92/23
f 62/93/2 61/189/2 64/94/25
f 30/76/14 66/203/14 67/96/17
f 25/68/4 70/204/4 71/97/24
f 3/98/26 1/205/37 49/99/1
f 3/100/27 50/206/6 51/5/5
f 7/102/29 5/207/28 51/103/5
f 7/104/30 52/208/11 53/11/10
f 11/106/32 9/209/31 53/107/10
f 11/108/33 54/210/16 55/17/15
f 15/110/35 13/211/34 55/111/15
f 15/112/36 56/212/21 49/26/1
f 27/114/24 71/213/24 75/115/7
f 31/116/17 67/214/17 73/117/18
f 76/118/9 44/215/9 45/119/23
f 74/121/20 48/216/20 42/122/25
f 76/124/7 72/148/24 43/125/24
f 74/127/18 68/181/17 47/128/17
f 69/130/4 41/217/4 43/131/24
f 65/133/14 46/218/14 47/134/17
f 78/123/38 69/130/38 62/136/38
f 68/135/38 74/121/38 84/138/38
f 67/140/22 87/219/22 83/141/22
f 77/143/22 73/220/22 83/144/22
f 77/145/22 64/221/22 61/146/22
f 72/148/38 86/222/38 62/149/38
f 72/132/38 76/118/38 82/150/38
f 80/152/38 59/223/38 82/153/38
f 65/154/12 80/152/23 45/155/23
f 59/157/23 58/224/12 57/158/12
f 59/160/23 60/225/23 81/161/9
f 63/163/25 64/221/25 83/141/20
f 86/165/24 82/226/7 81/166/7
f 84/168/18 83/144/18 87/169/17
f 86/171/24 85/227/24 61/146/4
f 88/173/17 87/219/17 57/174/14
f 79/176/22 60/225/22 57/174/22
f 78/178/38 63/228/38 84/179/38
f 67/180/22 66/229/22 57/158/22
f 68/181/38 88/230/38 58/182/38
f 80/120/38 65/133/38 58/183/38
f 79/185/22 75/231/22 81/166/22
f 71/186/22 85/227/22 81/161/22
f 71/188/22 70/232/22 61/189/22
