# Blender v2.79 (sub 0) OBJ File: 'turret5.blend'
# www.blender.org
o Dynamic_Plane.001
v 0.194957 0.930024 -0.242217
v 0.073078 0.712835 -0.134986
v 0.073078 0.930024 -0.242217
v 0.194957 0.712835 -0.134986
v 0.073078 0.713135 0.107231
v 0.194957 0.713135 0.107231
v 0.073078 0.930624 0.242218
v 0.194957 0.930624 0.242218
v 0.073078 1.147814 0.134986
v 0.194957 1.147512 -0.107230
v 0.194957 1.147814 0.134986
v 0.073078 1.147512 -0.107230
v -0.073078 0.712835 -0.134986
v -0.194957 0.930024 -0.242217
v -0.073078 0.930024 -0.242217
v -0.073078 0.713135 0.107231
v -0.194957 0.712835 -0.134986
v -0.073078 0.930624 0.242218
v -0.194957 0.713135 0.107231
v -0.194957 1.147814 0.134986
v -0.194957 0.930624 0.242218
v -0.194957 1.147512 -0.107230
v -0.073078 1.147512 -0.107230
v -0.073078 1.147814 0.134986
v 0.104873 0.959669 0.973381
v 0.104873 0.901382 0.186975
v 0.104873 0.901381 0.973381
v 0.163161 0.959670 0.186975
v 0.163161 0.901381 0.973381
v 0.163161 0.901382 0.186975
v 0.163161 0.959669 0.973381
v 0.104873 0.959670 0.186975
v -0.104873 0.901382 0.186975
v -0.104873 0.959669 0.973381
v -0.104873 0.901381 0.973381
v -0.163161 0.901381 0.973381
v -0.163161 0.959670 0.186975
v -0.163161 0.901382 0.186975
v -0.163161 0.959669 0.973381
v -0.104873 0.959670 0.186975
vt 0.500000 0.000000
vt 0.000000 0.500000
vt 0.000000 0.000000
vt 0.500000 0.000000
vt 0.000000 0.500000
vt 0.000000 0.000000
vt 0.500000 0.000000
vt 0.000000 0.500000
vt 0.000000 0.000000
vt 0.500000 0.000000
vt 0.000000 0.500000
vt 0.000000 0.000000
vt 0.466506 0.125000
vt 0.250000 0.000000
vt 0.250000 0.500000
vt 0.500000 0.000000
vt 0.000000 0.500000
vt 0.000000 0.000000
vt 0.500000 0.000000
vt 0.000000 0.500000
vt 0.000000 0.000000
vt 0.466506 0.375000
vt 0.250000 0.000000
vt 0.250000 0.500000
vt 0.500000 0.000000
vt 0.000000 0.500000
vt 0.000000 0.000000
vt 0.500000 0.000000
vt 0.000000 0.500000
vt 0.000000 0.000000
vt 0.500000 0.000000
vt 0.000000 0.500000
vt 0.000000 0.000000
vt 0.500000 0.000000
vt 0.000000 0.500000
vt 0.000000 0.000000
vt 0.000000 0.500000
vt 0.000000 0.000000
vt 0.500000 0.000000
vt 0.000000 0.500000
vt 0.000000 0.000000
vt 0.466506 0.375000
vt 0.033494 0.125000
vt 0.250000 0.500000
vt 0.466506 0.375000
vt 0.250000 0.000000
vt 0.250000 0.500000
vt 0.500000 0.000000
vt 0.000000 0.500000
vt 0.000000 0.000000
vt 0.500000 0.000000
vt 0.000000 0.500000
vt 0.000000 0.000000
vt 0.500000 0.000000
vt 0.000000 0.500000
vt 0.000000 0.000000
vt 0.500000 0.000000
vt 0.000000 0.500000
vt 0.000000 0.000000
vt 0.000000 0.500000
vt 0.500000 0.000000
vt 0.000000 0.500000
vt 0.000000 0.000000
vt 0.500000 0.000000
vt 0.000000 0.500000
vt 0.000000 0.000000
vt 0.500000 0.000000
vt 0.000000 0.500000
vt 0.000000 0.000000
vt 0.500000 0.000000
vt 0.000000 0.500000
vt 0.500000 0.000000
vt 0.000000 0.500000
vt 0.000000 0.000000
vt 0.500000 0.500000
vt 0.500000 0.500000
vt 0.500000 0.500000
vt 0.033494 0.375000
vt 0.466506 0.375000
vt 0.033494 0.125000
vt 0.500000 0.500000
vt 0.033494 0.375000
vt 0.033494 0.125000
vt 0.466506 0.125000
vt 0.500000 0.500000
vt 0.500000 0.500000
vt 0.500000 0.500000
vt 0.500000 0.500000
vt 0.500000 0.500000
vt 0.500000 0.500000
vt 0.033494 0.375000
vt 0.466506 0.125000
vt 0.250000 0.000000
vt 0.033494 0.375000
vt 0.033494 0.125000
vt 0.466506 0.125000
vt 0.500000 0.500000
vt 0.500000 0.500000
vt 0.500000 0.500000
vt 0.500000 0.500000
vt 0.500000 0.500000
vt 0.500000 0.500000
vt 0.500000 0.500000
vt 0.500000 0.500000
vt 0.500000 0.500000
vt 0.500000 0.500000
vn 0.0000 -1.0000 -0.0000
vn 0.0000 1.0000 0.0000
vn 0.0000 0.4427 0.8967
vn 0.0000 1.0000 -0.0012
vn 1.0000 0.0000 0.0000
vn 0.0000 -0.0000 1.0000
vn -1.0000 0.0000 0.0000
vn 0.0000 0.5273 -0.8496
vn 0.0000 -0.4427 -0.8967
vn 0.0000 -1.0000 0.0012
vn 0.0000 -0.5273 0.8497
s 1
f 29/1/1 26/2/1 30/3/1
f 34/4/2 37/5/2 39/6/2
f 24/7/3 21/8/3 18/9/3
f 22/10/4 24/11/4 23/12/4
f 18/13/5 16/14/5 23/15/5
f 11/16/3 7/17/3 8/18/3
f 25/19/6 29/20/6 31/21/6
f 7/22/7 12/23/7 5/24/7
f 1/25/8 12/26/8 10/27/8
f 4/28/9 3/29/9 1/30/9
f 10/31/4 9/32/4 11/33/4
f 19/34/10 13/35/10 16/36/10
f 25/19/2 28/37/2 32/38/2
f 6/39/10 2/40/10 4/41/10
f 10/42/5 6/43/5 1/44/5
f 21/45/7 22/46/7 19/47/7
f 40/48/5 35/49/5 33/50/5
f 39/51/7 38/52/7 36/53/7
f 36/54/1 33/55/1 35/56/1
f 32/57/7 27/58/7 25/59/7
f 34/4/6 36/60/6 35/56/6
f 31/61/5 30/62/5 28/63/5
f 8/64/11 5/65/11 6/66/11
f 14/67/8 23/68/8 15/69/8
f 21/70/11 16/71/11 18/9/11
f 17/72/9 15/73/9 13/74/9
f 29/1/1 27/75/1 26/2/1
f 34/4/2 40/76/2 37/5/2
f 24/7/3 20/77/3 21/8/3
f 22/10/4 20/77/4 24/11/4
f 15/78/5 23/15/5 16/14/5
f 24/79/5 18/13/5 23/15/5
f 16/14/5 13/80/5 15/78/5
f 11/16/3 9/81/3 7/17/3
f 25/19/6 27/75/6 29/20/6
f 2/82/7 5/24/7 3/83/7
f 7/22/7 9/84/7 12/23/7
f 12/23/7 3/83/7 5/24/7
f 1/25/8 3/85/8 12/26/8
f 4/28/9 2/86/9 3/29/9
f 10/31/4 12/87/4 9/32/4
f 19/34/10 17/88/10 13/35/10
f 25/19/2 31/89/2 28/37/2
f 6/39/10 5/90/10 2/40/10
f 4/91/5 1/44/5 6/43/5
f 10/42/5 11/92/5 8/93/5
f 8/93/5 6/43/5 10/42/5
f 17/94/7 19/47/7 14/95/7
f 21/45/7 20/96/7 22/46/7
f 22/46/7 14/95/7 19/47/7
f 40/48/5 34/97/5 35/49/5
f 39/51/7 37/98/7 38/52/7
f 36/54/1 38/99/1 33/55/1
f 32/57/7 26/100/7 27/58/7
f 34/4/6 39/101/6 36/60/6
f 31/61/5 29/102/5 30/62/5
f 8/64/11 7/103/11 5/65/11
f 14/67/8 22/104/8 23/68/8
f 21/70/11 19/105/11 16/71/11
f 17/72/9 14/106/9 15/73/9
