# Blender v2.79 (sub 0) OBJ File: 'turret18.blend'
# www.blender.org
o Cube
v 0.292927 0.793022 0.292927
v 0.292927 0.793022 -0.292927
v 0.325643 0.889302 0.433198
v 0.366159 0.793022 -0.000000
v 0.307181 1.072496 -0.492034
v 0.307181 0.808771 -0.453459
v 0.422687 0.808771 0.004525
v 0.422687 1.093748 0.004525
v 0.325643 1.078792 0.433198
v 0.189586 1.060604 0.770420
v 0.189586 0.959825 0.770420
v 0.377902 1.063291 0.438911
v 0.378746 0.904783 0.437004
v 0.477512 1.078247 0.011916
v 0.477017 0.824253 0.010239
v 0.373891 1.060138 -0.473970
v 0.373891 0.824253 -0.435395
v -0.292927 0.793022 0.292927
v -0.292927 0.793022 -0.292927
v -0.325643 0.889302 0.433198
v -0.366159 0.793022 -0.000000
v 0.000000 0.808771 -0.476829
v 0.000000 1.072496 -0.515404
v 0.000000 0.889302 0.432656
v -0.000000 1.078792 0.432656
v 0.000000 0.793022 -0.366159
v 0.000000 0.793022 0.366159
v 0.000000 1.093748 0.000000
v 0.000000 0.959825 0.782686
v 0.000000 1.060604 0.782686
v -0.307181 1.072496 -0.492034
v -0.307181 0.808771 -0.453459
v -0.422687 0.808771 0.004525
v -0.422687 1.093748 0.004525
v -0.325643 1.078792 0.433198
v -0.189586 1.060604 0.770420
v -0.189586 0.959825 0.770420
v -0.377902 1.063291 0.438911
v -0.378746 0.904783 0.437004
v -0.477512 1.078247 0.011916
v -0.477017 0.824253 0.010239
v -0.373891 1.060138 -0.473970
v -0.373891 0.824253 -0.435395
v 0.292927 0.683536 0.292927
v 0.292927 0.683536 -0.292927
v 0.366159 0.683536 -0.000000
v -0.292927 0.683536 0.292927
v -0.292927 0.683536 -0.292927
v -0.366159 0.683536 -0.000000
v 0.000000 0.683536 -0.366159
v 0.000000 0.683536 0.366159
vt 0.000000 0.000000
vt 0.500000 0.500000
vt 0.000000 0.500000
vt 0.000000 0.000000
vt 0.500000 0.500000
vt 0.000000 0.500000
vt 0.500000 0.000000
vt 0.000000 0.500000
vt 0.000000 0.000000
vt 0.500000 0.000000
vt 0.000000 0.500000
vt 0.000000 0.000000
vt 0.000000 0.000000
vt 0.500000 0.500000
vt 0.000000 0.500000
vt 0.000000 0.000000
vt 0.500000 0.500000
vt 0.000000 0.500000
vt 0.500000 0.000000
vt 0.000000 0.000000
vt 0.500000 0.000000
vt 0.000000 0.500000
vt 0.000000 0.000000
vt 0.000000 0.000000
vt 0.500000 0.500000
vt 0.000000 0.500000
vt 0.500000 0.000000
vt 0.000000 0.000000
vt 0.500000 0.000000
vt 0.000000 0.500000
vt 0.000000 0.000000
vt 0.500000 0.500000
vt 0.500000 0.000000
vt 0.000000 0.000000
vt 0.500000 0.000000
vt 0.500000 0.000000
vt 0.000000 0.500000
vt 0.000000 0.000000
vt 0.000000 0.000000
vt 0.500000 0.500000
vt 0.500000 0.000000
vt 0.500000 0.000000
vt 0.000000 0.000000
vt 0.000000 0.000000
vt 0.500000 0.500000
vt 0.000000 0.500000
vt 0.500000 0.500000
vt 0.000000 0.500000
vt 0.500000 0.500000
vt 0.000000 0.500000
vt 0.000000 0.000000
vt 0.500000 0.500000
vt 0.000000 0.500000
vt 0.500000 0.000000
vt 0.000000 0.500000
vt 0.000000 0.000000
vt 0.500000 0.000000
vt 0.000000 0.500000
vt 0.000000 0.000000
vt 0.500000 0.500000
vt 0.000000 0.500000
vt 0.000000 0.000000
vt 0.500000 0.000000
vt 0.000000 0.500000
vt 0.000000 0.000000
vt 0.500000 0.000000
vt 0.000000 0.500000
vt 0.000000 0.000000
vt 0.500000 0.500000
vt 0.000000 0.500000
vt 0.500000 0.000000
vt 0.000000 0.500000
vt 0.000000 0.000000
vt 0.500000 0.000000
vt 0.000000 0.500000
vt 0.000000 0.000000
vt 0.500000 0.500000
vt 0.000000 0.500000
vt 0.000000 0.500000
vt 0.000000 0.000000
vt 0.500000 0.000000
vt 0.000000 0.500000
vt 0.500000 0.000000
vt 0.000000 0.500000
vt 0.000000 0.000000
vt 0.000000 0.000000
vt 0.500000 0.000000
vt 0.500000 0.500000
vt 0.000000 0.500000
vt 0.000000 0.000000
vt 0.000000 0.000000
vt 0.500000 0.500000
vt 0.000000 0.500000
vt 0.500000 0.500000
vt 0.500000 0.000000
vt 0.000000 0.500000
vt 0.000000 0.500000
vt 0.000000 0.500000
vt 0.000000 0.500000
vt 0.000000 0.000000
vt 0.500000 0.000000
vt 0.000000 0.500000
vt 0.500000 0.000000
vt 0.000000 0.500000
vt 0.500000 0.000000
vt 0.000000 0.500000
vt 0.500000 0.000000
vt 0.000000 0.500000
vt 0.500000 0.000000
vt 0.500000 0.000000
vt 0.500000 0.500000
vt 0.500000 0.500000
vt 0.500000 0.500000
vt 0.500000 0.000000
vt 0.500000 0.500000
vt 0.500000 0.500000
vt 0.500000 0.000000
vt 0.500000 0.000000
vt 0.500000 0.500000
vt 0.500000 0.000000
vt 0.500000 0.500000
vt 0.500000 0.000000
vt 0.500000 0.000000
vt 0.500000 0.500000
vt 0.500000 0.500000
vt 0.500000 0.500000
vt 0.500000 0.500000
vt 0.500000 0.500000
vt 0.500000 0.500000
vt 0.500000 0.500000
vt 0.500000 0.500000
vn 0.0000 -0.1447 -0.9895
vn 0.1491 -0.1431 -0.9784
vn 0.1729 -0.1487 -0.9737
vn 0.2091 0.9738 -0.0897
vn 0.1553 0.9879 -0.0059
vn 0.2711 0.9625 0.0074
vn 0.1924 -0.9781 -0.0788
vn 0.2668 -0.9628 0.0424
vn 0.2687 -0.9632 -0.0041
vn 0.0443 -0.7768 0.6282
vn 0.0000 -0.8657 0.5006
vn 0.0000 -0.5683 0.8228
vn 0.7054 -0.6503 0.2819
vn 0.0772 0.9952 -0.0597
vn 0.0000 1.0000 -0.0041
vn 0.0000 -0.9918 -0.1278
vn 0.1310 -0.9876 -0.0860
vn 0.1424 0.9858 0.0893
vn 0.0227 -0.9781 0.2070
vn 0.0000 -0.9803 0.1975
vn 0.0646 0.0000 0.9979
vn -0.0000 0.0000 1.0000
vn 0.0000 0.9990 0.0439
vn 0.0189 0.9980 0.0597
vn 0.8695 -0.0003 0.4939
vn 0.9316 0.0007 0.3636
vn 0.8695 0.0000 0.4939
vn 0.2436 -0.9680 -0.0611
vn 0.2694 0.9554 0.1213
vn 0.2526 -0.9323 0.2589
vn 0.1437 -0.9327 0.3307
vn 1.0000 -0.0065 0.0040
vn 0.9371 -0.0003 0.3489
vn 0.9999 -0.0018 -0.0154
vn 0.9768 -0.0241 -0.2126
vn 0.2431 -0.1428 -0.9594
vn -0.1491 -0.1431 -0.9784
vn -0.2091 0.9738 -0.0897
vn -0.1553 0.9879 -0.0059
vn -0.0772 0.9952 -0.0597
vn -0.2668 -0.9628 0.0424
vn -0.1924 -0.9781 -0.0788
vn -0.2687 -0.9632 -0.0041
vn -0.0443 -0.7768 0.6282
vn -0.2629 -0.9626 0.0657
vn 0.0000 0.9992 -0.0412
vn -0.1310 -0.9876 -0.0860
vn -0.1424 0.9858 0.0893
vn -0.0227 -0.9781 0.2070
vn -0.1437 -0.9327 0.3307
vn -0.0646 0.0000 0.9979
vn -0.0189 0.9980 0.0597
vn -0.8695 -0.0003 0.4939
vn -0.9316 0.0007 0.3636
vn -0.9371 -0.0003 0.3489
vn -0.2436 -0.9680 -0.0611
vn -0.2694 0.9554 0.1213
vn -0.2526 -0.9323 0.2589
vn -1.0000 -0.0065 0.0040
vn -0.9999 -0.0018 -0.0154
vn -0.9768 -0.0241 -0.2126
vn -0.9777 -0.0339 -0.2072
vn -0.2431 -0.1428 -0.9594
vn -0.1729 -0.1487 -0.9737
vn -0.2915 -0.1544 -0.9440
vn -1.0000 0.0000 0.0000
vn -0.9701 0.0000 0.2425
vn 0.9701 0.0000 0.2425
vn 1.0000 0.0000 -0.0000
vn -0.0000 0.0000 -1.0000
vn -0.2425 0.0000 -0.9701
vn 0.2425 0.0000 -0.9701
vn -0.9701 0.0000 -0.2425
vn 0.9701 0.0000 -0.2425
vn -0.2425 0.0000 0.9701
vn 0.2425 0.0000 0.9701
vn 0.2629 -0.9626 0.0657
vn 0.0000 -0.9900 -0.1409
vn 0.0000 0.9987 0.0519
vn 0.2630 -0.9597 0.0993
vn 0.9777 -0.0339 -0.2072
vn 0.2915 -0.1544 -0.9440
vn -0.2711 0.9625 0.0074
vn -0.7054 -0.6503 0.2819
vn -0.8695 0.0000 0.4939
vn -0.2630 -0.9597 0.0993
s 1
f 22/1/1 5/2/2 6/3/3
f 16/4/4 8/5/5 14/6/6
f 2/7/7 7/8/8 4/9/9
f 1/10/10 24/11/11 27/12/12
f 1/13/13 7/14/13 3/15/13
f 5/16/14 28/17/15 8/18/5
f 26/19/16 6/3/17 2/20/7
f 28/21/15 9/22/18 8/23/5
f 24/24/11 11/25/19 29/26/20
f 10/27/21 29/26/22 11/28/21
f 25/29/23 10/30/24 9/31/18
f 11/28/25 12/32/26 10/30/27
f 17/33/28 7/8/8 6/34/17
f 12/35/29 8/18/5 9/31/18
f 7/36/8 13/37/30 3/38/31
f 10/39/24 12/35/29 9/40/18
f 3/38/31 13/41/30 11/25/19
f 14/42/32 13/37/33 15/43/34
f 17/44/35 14/45/32 15/46/34
f 16/4/36 6/47/3 5/48/2
f 22/1/1 31/49/37 23/50/1
f 42/51/38 34/52/39 31/53/40
f 33/54/41 19/55/42 21/56/43
f 24/57/11 18/58/44 27/12/12
f 18/59/45 33/60/41 21/61/43
f 31/62/40 28/17/15 23/50/46
f 32/63/47 26/64/16 19/65/42
f 35/66/48 28/67/15 34/68/39
f 24/24/11 37/69/49 20/70/50
f 29/71/22 36/72/51 37/73/51
f 36/74/52 25/75/23 35/76/48
f 37/73/53 38/77/54 39/78/55
f 33/54/41 43/79/56 32/80/47
f 34/81/39 38/82/57 35/76/48
f 39/83/58 33/84/41 20/85/50
f 36/86/52 35/66/48 38/77/57
f 20/85/50 37/87/49 39/88/58
f 39/83/55 40/89/59 41/90/60
f 43/91/61 40/92/59 42/93/62
f 42/51/63 32/94/64 43/79/65
f 21/95/66 47/96/67 18/59/67
f 1/10/68 46/97/69 4/9/69
f 26/19/70 48/98/71 19/65/71
f 2/7/72 50/99/70 26/100/70
f 19/101/73 49/102/66 21/56/66
f 4/103/69 45/104/74 2/20/74
f 18/105/75 51/106/22 27/12/22
f 27/107/22 44/108/76 1/13/76
f 22/1/1 23/109/1 5/2/2
f 16/4/4 5/110/14 8/5/5
f 2/7/7 6/47/17 7/8/8
f 1/10/10 3/111/31 24/11/11
f 1/13/77 4/103/9 7/14/8
f 5/16/14 23/109/46 28/17/15
f 26/19/16 22/112/78 6/3/17
f 28/21/15 25/113/23 9/22/18
f 24/24/11 3/114/31 11/25/19
f 10/27/21 30/115/22 29/26/22
f 25/29/23 30/115/79 10/30/24
f 11/28/25 13/41/33 12/32/26
f 17/33/28 15/116/80 7/8/8
f 12/35/29 14/45/6 8/18/5
f 7/36/8 15/116/80 13/37/30
f 14/42/32 12/32/26 13/37/33
f 17/44/35 16/117/81 14/45/32
f 16/4/36 17/33/82 6/47/3
f 22/1/1 32/63/64 31/49/37
f 42/51/38 40/118/83 34/52/39
f 33/54/41 32/94/47 19/55/42
f 24/57/11 20/119/50 18/58/44
f 18/59/84 20/120/84 33/60/84
f 31/62/40 34/81/39 28/17/15
f 32/63/47 22/112/78 26/64/16
f 35/66/48 25/113/23 28/67/15
f 24/24/11 29/71/20 37/69/49
f 29/71/22 30/115/22 36/72/51
f 36/74/52 30/115/79 25/75/23
f 37/73/53 36/74/85 38/77/54
f 33/54/41 41/121/86 43/79/56
f 34/81/39 40/92/83 38/82/57
f 39/83/58 41/121/86 33/84/41
f 39/83/55 38/77/54 40/89/59
f 43/91/61 41/122/60 40/92/59
f 42/51/63 31/123/37 32/94/64
f 21/95/66 49/124/66 47/96/67
f 1/10/68 44/125/68 46/97/69
f 26/19/70 50/126/70 48/98/71
f 2/7/72 45/127/72 50/99/70
f 19/101/73 48/128/73 49/102/66
f 4/103/69 46/129/69 45/104/74
f 18/105/75 47/130/75 51/106/22
f 27/107/22 51/131/22 44/108/76
