# Blender v2.79 (sub 0) OBJ File: 'turret13.blend'
# www.blender.org
o Cube.001_Cube.001
v 0.110818 1.162646 -0.025199
v 0.033924 1.029462 -0.359467
v 0.110818 1.162646 -0.359467
v -0.076894 1.221404 -0.025199
v 0.076894 1.221404 -0.359467
v -0.076894 1.221404 -0.359467
v 0.017026 1.083446 -0.025199
v 0.033924 1.029462 -0.025199
v -0.033924 1.029462 -0.025199
v -0.110818 1.162646 -0.359467
v -0.033924 1.029462 -0.359467
v -0.110818 1.162647 -0.025199
v 0.076894 1.221404 -0.025199
v 0.110818 1.162646 -0.531891
v -0.017026 1.083446 -0.025199
v 0.038591 1.179778 -0.025199
v -0.105092 1.165159 -0.025199
v -0.076206 1.215188 0.116122
v -0.076206 1.215188 -0.025199
v 0.105092 1.165159 -0.025199
v 0.057464 1.154497 0.116122
v 0.057464 1.154497 -0.025199
v -0.038591 1.179778 -0.025199
v 0.014305 1.079742 -0.025199
v 0.028884 1.033165 0.116122
v 0.028884 1.033165 -0.025199
v -0.055617 1.150288 -0.025199
v -0.028884 1.033165 -0.025199
v 0.076206 1.215188 -0.025199
v -0.014305 1.079742 -0.025199
v -0.043160 1.179274 -0.025199
v 0.043160 1.179273 -0.025199
v 0.055617 1.150288 -0.025199
v -0.057464 1.154497 -0.025199
v 0.105092 1.165159 0.736060
v 0.043160 1.179272 0.736060
v 0.057464 1.154497 0.736060
v -0.105092 1.165159 0.736060
v -0.043160 1.179274 0.736060
v -0.076206 1.215188 0.736060
v 0.028884 1.033165 0.736060
v -0.014305 1.079742 0.736060
v -0.028884 1.033165 0.736060
v 0.014305 1.079742 0.116122
v 0.105092 1.165159 0.116122
v -0.043160 1.179274 0.116122
v 0.043160 1.179273 0.116122
v -0.014305 1.079742 0.219835
v 0.014305 1.079742 0.736060
v 0.014305 1.079742 0.219835
v -0.057464 1.154497 0.219835
v -0.105092 1.165159 0.219835
v -0.105092 1.165159 0.116122
v 0.028884 1.033165 0.219835
v -0.028884 1.033165 0.116122
v 0.076206 1.215188 0.219835
v 0.105092 1.165159 0.219835
v 0.076206 1.215188 0.116122
v 0.043160 1.179273 0.219835
v 0.076206 1.215188 0.736060
v 0.057464 1.154497 0.219835
v -0.014305 1.079742 0.116122
v -0.028884 1.033165 0.219835
v -0.076206 1.215188 0.219835
v -0.043160 1.179274 0.219835
v -0.057464 1.154497 0.736060
v -0.057464 1.154497 0.116122
v -0.110818 1.162646 -0.531891
v 0.076894 1.221404 -0.531891
v -0.076894 1.221404 -0.531891
vt 0.000000 0.000000
vt 0.500000 0.500000
vt 0.000000 0.500000
vt 0.500000 0.000000
vt 0.000000 0.500000
vt 0.000000 0.000000
vt 0.000000 0.000000
vt 0.500000 0.500000
vt 0.000000 0.500000
vt 0.500000 0.500000
vt 0.000000 0.500000
vt 0.500000 0.000000
vt 0.000000 0.500000
vt 0.000000 0.000000
vt 0.500000 0.000000
vt 0.000000 0.500000
vt 0.000000 0.000000
vt 0.500000 0.000000
vt 0.000000 0.500000
vt 0.000000 0.000000
vt 0.000000 0.000000
vt 0.500000 0.000000
vt 0.500000 0.500000
vt 0.500000 0.000000
vt 0.000000 0.500000
vt 0.000000 0.000000
vt 0.500000 0.000000
vt 0.000000 0.000000
vt 0.500000 0.000000
vt 0.000000 0.500000
vt 0.000000 0.000000
vt 0.000000 0.500000
vt 0.000000 0.000000
vt 0.466506 0.125000
vt 0.250000 0.000000
vt 0.033494 0.375000
vt 0.000000 0.000000
vt 0.500000 0.500000
vt 0.000000 0.500000
vt 0.500000 0.000000
vt 0.000000 0.500000
vt 0.000000 0.000000
vt 0.000000 0.000000
vt 0.000000 0.500000
vt 0.500000 0.000000
vt 0.000000 0.500000
vt 0.000000 0.000000
vt 0.500000 0.500000
vt 0.000000 0.000000
vt 0.500000 0.500000
vt 0.500000 0.500000
vt 0.000000 0.500000
vt 0.500000 0.500000
vt 0.000000 0.500000
vt 0.500000 0.500000
vt 0.000000 0.000000
vt 0.500000 0.500000
vt 0.000000 0.500000
vt 0.000000 0.500000
vt 0.000000 0.000000
vt 0.000000 0.500000
vt 0.000000 0.000000
vt 0.500000 0.500000
vt 0.000000 0.500000
vt 0.000000 0.000000
vt 0.500000 0.500000
vt 0.000000 0.500000
vt 0.500000 0.000000
vt 0.000000 0.000000
vt 0.500000 0.000000
vt 0.000000 0.500000
vt 0.000000 0.000000
vt 0.500000 0.000000
vt 0.000000 0.500000
vt 0.500000 0.000000
vt 0.000000 0.500000
vt 0.500000 0.000000
vt 0.000000 0.000000
vt 0.000000 0.000000
vt 0.500000 0.500000
vt 0.000000 0.500000
vt 0.500000 0.000000
vt 0.000000 0.500000
vt 0.000000 0.000000
vt 0.500000 0.000000
vt 0.000000 0.500000
vt 0.500000 0.000000
vt 0.000000 0.000000
vt 0.500000 0.500000
vt 0.000000 0.500000
vt 0.000000 0.000000
vt 0.500000 0.500000
vt 0.000000 0.500000
vt 0.500000 0.000000
vt 0.500000 0.000000
vt 0.000000 0.500000
vt 0.500000 0.000000
vt 0.000000 0.500000
vt 0.000000 0.000000
vt 0.000000 0.000000
vt 0.000000 0.500000
vt 0.500000 0.000000
vt 0.000000 0.500000
vt 0.000000 0.000000
vt 0.500000 0.000000
vt 0.000000 0.000000
vt 0.500000 0.000000
vt 0.000000 0.500000
vt 0.000000 0.500000
vt 0.000000 0.000000
vt 0.000000 0.000000
vt 0.500000 0.500000
vt 0.000000 0.500000
vt 0.500000 0.000000
vt 0.000000 0.000000
vt 0.000000 0.500000
vt 0.500000 0.000000
vt 0.000000 0.500000
vt 0.000000 0.000000
vt 0.500000 0.000000
vt 0.000000 0.500000
vt 0.500000 0.000000
vt 0.000000 0.500000
vt 0.500000 0.000000
vt 0.000000 0.000000
vt 0.500000 0.000000
vt 0.500000 0.000000
vt 0.000000 0.500000
vt 0.500000 0.000000
vt 0.000000 0.500000
vt 0.000000 0.000000
vt 0.000000 0.500000
vt 0.500000 0.000000
vt 0.000000 0.000000
vt 0.500000 0.000000
vt 0.000000 0.000000
vt 0.500000 0.000000
vt 0.000000 0.500000
vt 0.000000 0.000000
vt 0.500000 0.000000
vt 0.500000 0.000000
vt 0.000000 0.500000
vt 0.500000 0.000000
vt 0.500000 0.000000
vt 0.000000 0.000000
vt 0.000000 0.500000
vt 0.500000 0.000000
vt 0.000000 0.500000
vt 0.000000 0.000000
vt 0.500000 0.500000
vt 0.500000 0.500000
vt 0.500000 0.500000
vt 0.500000 0.500000
vt 0.500000 0.500000
vt 0.500000 0.500000
vt 0.500000 0.500000
vt 0.250000 0.500000
vt 0.466506 0.375000
vt 0.033494 0.125000
vt 0.500000 0.500000
vt 0.500000 0.000000
vt 0.500000 0.000000
vt 0.500000 0.000000
vt 0.500000 0.000000
vt 0.500000 0.000000
vt 0.500000 0.000000
vt 0.500000 0.000000
vt 0.500000 0.500000
vt 0.500000 0.500000
vt 0.500000 0.500000
vt 0.500000 0.500000
vt 0.500000 0.500000
vt 0.500000 0.500000
vt 0.500000 0.000000
vt 0.500000 0.500000
vt 0.500000 0.500000
vt 0.500000 0.500000
vt 0.500000 0.500000
vt 0.500000 0.500000
vt 0.500000 0.000000
vt 0.500000 0.500000
vt 0.500000 0.500000
vt 0.500000 0.500000
vt 0.500000 0.500000
vt 0.500000 0.500000
vt 0.500000 0.500000
vt 0.500000 0.500000
vt 0.500000 0.500000
vt 0.500000 0.500000
vt 0.500000 0.000000
vt 0.500000 0.000000
vn -0.8660 0.5000 -0.0000
vn 0.8660 -0.5000 0.0000
vn -0.0000 -0.0000 1.0000
vn 0.8660 0.5000 0.0000
vn 0.0000 0.0000 -1.0000
vn -0.7359 0.6771 0.0000
vn -0.9543 0.2987 0.0000
vn 0.2185 -0.9758 0.0000
vn 0.0000 -0.7914 -0.6113
vn -0.2185 -0.9758 0.0000
vn 0.0000 1.0000 0.0000
vn -0.8660 -0.5000 0.0000
vn 0.0000 -1.0000 0.0000
vn 0.9543 0.2987 0.0000
vn 0.7359 0.6771 0.0000
s 1
f 6/1/1 68/2/1 10/3/1
f 46/4/2 34/5/2 31/6/2
f 26/7/3 7/8/3 24/9/3
f 6/1/1 12/10/1 4/11/1
f 8/12/2 3/13/2 1/14/2
f 49/15/3 43/16/3 41/17/3
f 45/18/4 56/19/4 57/20/4
f 3/21/2 2/22/2 14/23/2
f 70/24/5 14/25/5 68/26/5
f 36/27/6 56/19/6 59/28/6
f 43/29/7 48/30/7 63/31/7
f 45/18/8 22/32/8 20/33/8
f 27/34/3 15/35/3 33/36/3
f 56/37/3 65/38/3 59/39/3
f 9/40/3 26/41/3 28/42/3
f 19/43/3 12/10/3 17/44/3
f 34/45/3 23/46/3 31/6/3
f 32/47/3 33/48/3 22/32/3
f 17/49/3 27/50/3 34/5/3
f 28/42/3 15/51/3 9/52/3
f 20/33/3 13/53/3 29/54/3
f 19/43/3 23/55/3 4/11/3
f 29/56/3 16/57/3 32/58/3
f 20/33/3 33/48/3 1/59/3
f 11/60/9 14/23/9 2/61/9
f 35/62/3 36/63/3 37/64/3
f 38/65/3 39/66/3 40/67/3
f 67/68/10 17/44/10 34/69/10
f 13/70/11 6/71/11 4/72/11
f 53/73/1 19/74/1 17/49/1
f 54/75/2 45/76/2 57/20/2
f 69/77/11 6/71/11 5/78/11
f 51/79/2 46/80/2 65/81/2
f 18/82/1 52/83/1 64/84/1
f 55/85/7 30/86/7 28/42/7
f 44/87/11 48/30/11 50/88/11
f 29/56/4 45/89/4 20/90/4
f 9/91/12 10/92/12 11/93/12
f 47/94/6 29/54/6 32/47/6
f 25/95/13 28/96/13 26/7/13
f 64/97/11 58/98/11 18/99/11
f 9/40/13 2/61/13 8/100/13
f 55/85/13 54/101/13 63/31/13
f 14/102/4 5/103/4 3/21/4
f 44/87/14 26/41/14 24/104/14
f 21/105/12 32/58/12 22/106/12
f 60/107/4 57/108/4 56/37/4
f 53/73/5 62/109/5 55/110/5
f 52/111/1 40/112/1 64/113/1
f 48/114/3 52/83/3 63/31/3
f 58/115/5 46/80/5 18/116/5
f 57/117/3 50/118/3 54/119/3
f 49/15/14 54/101/14 50/88/14
f 52/120/12 55/121/12 63/31/12
f 35/122/8 61/123/8 57/20/8
f 62/124/11 24/9/11 30/125/11
f 66/126/10 52/83/10 51/79/10
f 61/127/1 44/128/1 50/88/1
f 39/129/2 51/130/2 65/131/2
f 19/43/15 46/80/15 31/132/15
f 42/133/11 50/118/11 48/134/11
f 37/135/12 59/39/12 61/136/12
f 41/137/13 63/138/13 54/119/13
f 45/18/5 44/128/5 21/139/5
f 40/140/15 65/81/15 64/84/15
f 7/141/3 30/86/3 24/104/3
f 9/91/3 27/50/3 12/142/3
f 11/60/12 10/143/12 68/2/12
f 5/144/4 1/59/4 3/21/4
f 46/4/13 59/39/13 65/131/13
f 67/68/4 48/30/4 62/145/4
f 1/14/3 7/8/3 8/146/3
f 47/94/12 61/123/12 59/28/12
f 4/147/3 16/148/3 13/149/3
f 6/1/1 70/24/1 68/2/1
f 46/4/2 67/150/2 34/5/2
f 26/7/3 8/12/3 7/8/3
f 6/1/1 10/143/1 12/10/1
f 8/12/2 2/151/2 3/13/2
f 49/15/3 42/152/3 43/16/3
f 45/18/4 58/153/4 56/19/4
f 70/24/5 69/154/5 14/25/5
f 36/27/6 60/155/6 56/19/6
f 43/29/7 42/152/7 48/30/7
f 45/18/8 21/156/8 22/32/8
f 33/36/3 16/157/3 23/158/3
f 23/158/3 27/34/3 33/36/3
f 15/35/3 7/159/3 33/36/3
f 56/37/3 64/97/3 65/38/3
f 9/40/3 8/160/3 26/41/3
f 19/43/3 4/147/3 12/10/3
f 34/45/3 27/50/3 23/46/3
f 32/47/3 16/161/3 33/48/3
f 17/49/3 12/162/3 27/50/3
f 28/42/3 30/163/3 15/51/3
f 20/33/3 1/164/3 13/53/3
f 19/43/3 31/165/3 23/55/3
f 29/56/3 13/70/3 16/57/3
f 20/33/3 22/166/3 33/48/3
f 11/60/9 68/167/9 14/23/9
f 35/62/3 60/107/3 36/63/3
f 38/65/3 66/126/3 39/66/3
f 67/68/10 53/168/10 17/44/10
f 13/70/11 5/169/11 6/71/11
f 53/73/1 18/170/1 19/74/1
f 54/75/2 25/171/2 45/76/2
f 69/77/11 70/172/11 6/71/11
f 51/79/2 67/68/2 46/80/2
f 18/82/1 53/168/1 52/83/1
f 55/85/7 62/173/7 30/86/7
f 44/87/11 62/173/11 48/30/11
f 29/56/4 58/174/4 45/89/4
f 9/91/12 12/162/12 10/92/12
f 47/94/6 58/153/6 29/54/6
f 25/95/13 55/175/13 28/96/13
f 64/97/11 56/176/11 58/98/11
f 9/40/13 11/177/13 2/61/13
f 55/85/13 25/171/13 54/101/13
f 14/102/4 69/154/4 5/103/4
f 44/87/14 25/171/14 26/41/14
f 21/105/12 47/178/12 32/58/12
f 60/107/4 35/179/4 57/108/4
f 53/73/5 67/150/5 62/109/5
f 52/111/1 38/180/1 40/112/1
f 48/114/3 51/181/3 52/83/3
f 58/115/5 47/94/5 46/80/5
f 57/117/3 61/182/3 50/118/3
f 49/15/14 41/183/14 54/101/14
f 52/120/12 53/168/12 55/121/12
f 35/122/8 37/184/8 61/123/8
f 62/124/11 44/185/11 24/9/11
f 66/126/10 38/186/10 52/83/10
f 61/127/1 21/156/1 44/128/1
f 39/129/2 66/187/2 51/130/2
f 19/43/15 18/82/15 46/80/15
f 42/133/11 49/188/11 50/118/11
f 37/135/12 36/63/12 59/39/12
f 41/137/13 43/189/13 63/138/13
f 45/18/5 25/171/5 44/128/5
f 40/140/15 39/66/15 65/81/15
f 7/141/3 15/51/3 30/86/3
f 9/91/3 15/190/3 27/50/3
f 5/144/4 13/53/4 1/59/4
f 46/4/13 47/178/13 59/39/13
f 67/68/4 51/181/4 48/30/4
f 1/14/3 33/191/3 7/8/3
f 47/94/12 21/156/12 61/123/12
f 4/147/3 23/55/3 16/148/3
