# Blender v2.79 (sub 0) OBJ File: 'turret11.blend'
# www.blender.org
o Cylinder.001_Cylinder.003
v 0.049461 0.659181 0.321890
v 0.230101 0.619835 0.313653
v 0.192636 0.659181 0.262584
v 0.242096 0.659181 0.242097
v 0.289181 0.619835 0.289181
v 0.049462 0.659181 -0.321890
v 0.230101 0.619835 -0.313653
v 0.059081 0.619835 -0.384492
v 0.049461 0.659181 -0.147238
v 0.192636 0.659181 -0.135186
v 0.036947 0.807832 0.313527
v 0.036947 0.807832 -0.161001
v 0.205151 0.807832 -0.145086
v 0.232518 0.807832 0.232518
v 0.242096 0.807832 -0.138300
v 0.242096 0.659181 -0.242097
v 0.408963 0.619835 0.000000
v 0.289181 0.619835 -0.289181
v 0.408963 0.430930 0.000000
v 0.289181 0.430930 -0.289181
v 0.289181 0.430930 0.289181
v 0.230101 0.430930 -0.313653
v 0.230101 0.430930 0.313653
v 0.059081 0.619835 0.384492
v 0.059081 0.430930 0.384492
v 0.059081 0.430930 -0.384492
v 0.342376 0.659181 0.000000
v 0.192636 0.659181 -0.262584
v 0.232518 0.807832 -0.232518
v 0.044671 0.807832 -0.310326
v 0.187847 0.807832 -0.251022
v 0.049461 0.733507 -0.147238
v 0.192636 0.733507 -0.135186
v 0.328830 0.807832 0.000000
v 0.049462 0.733507 -0.321890
v 0.242096 0.733507 -0.242097
v 0.342376 0.733507 0.000000
v 0.192636 0.733507 -0.262584
v 0.205151 0.807832 0.243854
v 0.242096 0.733507 0.242097
v 0.049461 0.733506 0.321890
v 0.192636 0.733507 0.262584
v -0.230101 0.619835 0.313653
v -0.049461 0.659181 0.321890
v -0.192636 0.659181 0.262584
v -0.242096 0.659181 0.242097
v -0.049462 0.659181 -0.321890
v -0.230101 0.619835 -0.313653
v -0.192636 0.659181 -0.262584
v -0.049461 0.659181 -0.147238
v -0.036947 0.807832 0.313527
v -0.036947 0.807832 -0.161001
v -0.232518 0.807832 0.232518
v -0.205151 0.807832 -0.145086
v -0.242096 0.807832 -0.138300
v -0.242096 0.659181 -0.242097
v -0.408963 0.619835 0.000000
v -0.342376 0.659181 0.000000
v -0.408963 0.430930 0.000000
v -0.289181 0.619835 -0.289181
v -0.289181 0.430930 -0.289181
v -0.289181 0.430930 0.289181
v -0.230101 0.430930 -0.313653
v -0.230101 0.430930 0.313653
v -0.289181 0.619835 0.289181
v -0.059081 0.619835 0.384492
v -0.059081 0.430930 0.384492
v -0.059081 0.430930 -0.384492
v -0.059081 0.619835 -0.384492
v -0.232518 0.807832 -0.232518
v -0.187847 0.807832 -0.251022
v -0.044671 0.807832 -0.310326
v -0.192636 0.659181 -0.135186
v -0.049461 0.733507 -0.147238
v -0.192636 0.733507 -0.135186
v -0.328830 0.807832 0.000000
v -0.192636 0.733507 -0.262584
v -0.342376 0.733507 0.000000
v -0.242096 0.733507 0.242097
v -0.205151 0.807832 0.243854
v -0.049462 0.733507 -0.321890
v -0.049461 0.733506 0.321890
v -0.192636 0.733507 0.262584
v -0.242096 0.733507 -0.242097
vt 0.000000 0.000000
vt 0.500000 0.500000
vt 0.000000 0.500000
vt 0.000000 0.000000
vt 0.500000 0.500000
vt 0.000000 0.500000
vt 0.000000 0.000000
vt 0.500000 0.500000
vt 0.000000 0.500000
vt 0.500000 0.000000
vt 0.000000 0.500000
vt 0.000000 0.000000
vt 0.000000 0.000000
vt 0.500000 0.500000
vt 0.000000 0.500000
vt 0.500000 0.000000
vt 0.000000 0.500000
vt 0.000000 0.000000
vt 0.000000 0.500000
vt 0.000000 0.000000
vt 0.500000 0.000000
vt 0.000000 0.500000
vt 0.000000 0.000000
vt 0.500000 0.000000
vt 0.000000 0.500000
vt 0.000000 0.000000
vt 0.500000 0.000000
vt 0.000000 0.500000
vt 0.000000 0.000000
vt 0.500000 0.000000
vt 0.000000 0.500000
vt 0.000000 0.000000
vt 0.500000 0.000000
vt 0.000000 0.500000
vt 0.000000 0.000000
vt 0.500000 0.000000
vt 0.000000 0.500000
vt 0.000000 0.000000
vt 0.500000 0.000000
vt 0.000000 0.500000
vt 0.000000 0.000000
vt 0.500000 0.000000
vt 0.000000 0.000000
vt 0.000000 0.000000
vt 0.500000 0.500000
vt 0.000000 0.000000
vt 0.000000 0.500000
vt 0.500000 0.000000
vt 0.000000 0.500000
vt 0.000000 0.000000
vt 0.000000 0.000000
vt 0.500000 0.500000
vt 0.500000 0.000000
vt 0.500000 0.000000
vt 0.000000 0.500000
vt 0.000000 0.500000
vt 0.000000 0.000000
vt 0.000000 0.000000
vt 0.500000 0.000000
vt 0.500000 0.500000
vt 0.000000 0.000000
vt 0.500000 0.500000
vt 0.500000 0.000000
vt 0.000000 0.500000
vt 0.500000 0.500000
vt 0.000000 0.500000
vt 0.000000 0.000000
vt 0.500000 0.500000
vt 0.000000 0.500000
vt 0.500000 0.000000
vt 0.000000 0.500000
vt 0.000000 0.000000
vt 0.000000 0.000000
vt 0.500000 0.500000
vt 0.000000 0.500000
vt 0.000000 0.000000
vt 0.500000 0.500000
vt 0.000000 0.000000
vt 0.500000 0.500000
vt 0.000000 0.500000
vt 0.500000 0.000000
vt 0.000000 0.000000
vt 0.500000 0.000000
vt 0.000000 0.000000
vt 0.500000 0.000000
vt 0.000000 0.500000
vt 0.000000 0.000000
vt 0.000000 0.500000
vt 0.000000 0.000000
vt 0.500000 0.000000
vt 0.000000 0.000000
vt 0.500000 0.000000
vt 0.000000 0.500000
vt 0.000000 0.500000
vt 0.000000 0.000000
vt 0.500000 0.000000
vt 0.000000 0.500000
vt 0.000000 0.000000
vt 0.500000 0.000000
vt 0.000000 0.500000
vt 0.000000 0.000000
vt 0.500000 0.000000
vt 0.000000 0.000000
vt 0.000000 0.500000
vt 0.000000 0.000000
vt 0.500000 0.500000
vt 0.000000 0.000000
vt 0.500000 0.500000
vt 0.000000 0.500000
vt 0.000000 0.000000
vt 0.000000 0.000000
vt 0.000000 0.500000
vt 0.500000 0.000000
vt 0.500000 0.000000
vt 0.000000 0.000000
vt 0.500000 0.000000
vt 0.000000 0.500000
vt 0.000000 0.000000
vt 0.500000 0.000000
vt 0.000000 0.500000
vt 0.000000 0.000000
vt 0.500000 0.000000
vt 0.000000 0.500000
vt 0.000000 0.000000
vt 0.500000 0.000000
vt 0.000000 0.500000
vt 0.500000 0.000000
vt 0.000000 0.500000
vt 0.000000 0.000000
vt 0.000000 0.000000
vt 0.500000 0.500000
vt 0.500000 0.500000
vt 0.000000 0.500000
vt 0.000000 0.000000
vt 0.500000 0.500000
vt 0.000000 0.500000
vt 0.500000 0.000000
vt 0.000000 0.500000
vt 0.000000 0.000000
vt 0.000000 0.000000
vt 0.500000 0.000000
vt 0.500000 0.500000
vt 0.500000 0.500000
vt 0.000000 0.500000
vt 0.000000 0.500000
vt 0.000000 0.000000
vt 0.500000 0.500000
vt 0.000000 0.500000
vt 0.500000 0.500000
vt 0.500000 0.500000
vt 0.000000 0.500000
vt 0.000000 0.000000
vt 0.500000 0.500000
vt 0.500000 0.500000
vt 0.000000 0.500000
vt 0.500000 0.000000
vt 0.000000 0.500000
vt 0.000000 0.000000
vt 0.000000 0.500000
vt 0.000000 0.000000
vt 0.000000 0.500000
vt 0.000000 0.000000
vt 0.000000 0.500000
vt 0.500000 0.000000
vt 0.000000 0.500000
vt 0.000000 0.000000
vt 0.500000 0.000000
vt 0.000000 0.500000
vt 0.000000 0.000000
vt 0.500000 0.000000
vt 0.000000 0.000000
vt 0.500000 0.000000
vt 0.000000 0.500000
vt 0.500000 0.000000
vt 0.500000 0.500000
vt 0.500000 0.000000
vt 0.500000 0.500000
vt 0.500000 0.000000
vt 0.500000 0.000000
vt 0.500000 0.500000
vt 0.500000 0.000000
vt 0.500000 0.500000
vt 0.500000 0.500000
vt 0.500000 0.500000
vt 0.500000 0.500000
vt 0.500000 0.500000
vt 0.500000 0.500000
vt 0.500000 0.500000
vt 0.500000 0.500000
vt 0.500000 0.500000
vt 0.500000 0.000000
vt 0.500000 0.500000
vt 0.500000 0.500000
vt 0.500000 0.500000
vt 0.500000 0.000000
vt 0.500000 0.500000
vt 0.500000 0.500000
vt 0.500000 0.500000
vt 0.500000 0.000000
vt 0.500000 0.000000
vt 0.500000 0.000000
vt 0.500000 0.500000
vt 0.500000 0.000000
vt 0.500000 0.500000
vt 0.500000 0.500000
vt 0.500000 0.500000
vt 0.500000 0.500000
vt 0.500000 0.500000
vt 0.500000 0.000000
vt 0.500000 0.000000
vt 0.500000 0.000000
vt 0.500000 0.500000
vt 0.500000 0.500000
vt 0.500000 0.000000
vt 0.500000 0.000000
vt 0.500000 0.000000
vt 0.500000 0.500000
vt 0.500000 0.500000
vt 0.500000 0.500000
vt 0.500000 0.500000
vt 0.500000 0.500000
vn 0.1059 0.8492 -0.5174
vn 0.2062 0.8424 -0.4978
vn 0.1009 0.8493 -0.5183
vn -0.3597 0.8609 0.3597
vn -0.2062 0.8424 0.4978
vn -0.1059 0.8492 -0.5174
vn -0.2062 0.8424 -0.4978
vn 0.1963 0.0810 -0.9772
vn -0.1951 0.0000 -0.9808
vn -0.1963 0.0810 -0.9772
vn 0.0000 1.0000 -0.0000
vn -0.3597 0.8609 -0.3597
vn -0.5087 0.8609 0.0000
vn -0.3827 0.0000 -0.9239
vn -0.9239 0.0000 -0.3827
vn 0.3814 0.0814 0.9208
vn 0.3827 0.0000 0.9239
vn 0.9239 0.0000 -0.3827
vn -0.3774 0.1660 -0.9111
vn -0.1885 0.1628 -0.9685
vn -0.3827 -0.0000 0.9239
vn -0.1951 -0.0000 0.9808
vn 0.3597 0.8609 -0.3597
vn 0.0000 0.1118 0.9937
vn 0.0000 0.0529 0.9986
vn -0.1009 0.8493 0.5182
vn 0.5087 0.8609 0.0000
vn -0.9239 -0.0000 0.3827
vn -0.3814 0.0833 -0.9207
vn 0.1951 0.0000 -0.9808
vn -0.9111 0.1660 -0.3774
vn -0.9208 0.0814 -0.3814
vn 0.3774 0.1660 0.9111
vn 0.0000 0.0000 1.0000
vn -0.3814 0.0814 0.9208
vn -0.3774 0.1660 0.9111
vn -0.9961 0.0878 0.0000
vn -0.9861 0.1660 0.0000
vn 0.9861 0.1660 0.0000
vn 0.9962 0.0866 0.0000
vn -0.3816 0.0763 0.9212
vn 0.1951 -0.0000 0.9808
vn 0.9208 0.0814 -0.3814
vn -0.3814 0.0815 -0.9208
vn 0.3827 0.0000 -0.9239
vn 0.9208 0.0814 0.3814
vn 0.9239 0.0000 0.3827
vn 0.1009 0.8493 0.5182
vn 0.2062 0.8424 0.4978
vn 0.1059 0.8492 0.5174
vn -0.1059 0.8492 0.5174
vn 0.3597 0.8609 0.3597
vn -1.0000 0.0000 0.0000
vn -0.9968 0.0803 0.0000
vn 0.3814 0.0833 -0.9207
vn 0.9961 0.0878 0.0000
vn 1.0000 0.0000 0.0000
vn 0.0839 -0.0000 0.9965
vn 0.0836 0.0762 0.9936
vn -0.0839 -0.0000 0.9965
vn -0.0836 0.0762 0.9936
vn -0.0876 0.0850 0.9925
vn 0.3774 0.1660 -0.9111
vn 0.1885 0.1628 -0.9685
vn 0.9111 0.1660 -0.3774
vn 0.9111 0.1660 0.3774
vn 0.0861 0.1519 0.9846
vn 0.0876 0.0850 0.9925
vn 0.0929 0.1661 0.9817
vn -0.9208 0.0814 0.3814
vn -0.9111 0.1660 0.3774
vn -0.0861 0.1519 0.9846
vn -0.9962 0.0866 0.0000
vn -0.9971 0.0763 0.0000
vn 0.9971 0.0763 0.0000
vn -0.1009 0.8493 -0.5183
vn 0.3816 0.0763 0.9212
vn 0.9968 0.0803 0.0000
vn 0.3814 0.0815 -0.9208
vn -0.0929 0.1661 0.9817
s 1
f 6/1/1 7/2/2 8/3/3
f 46/4/4 43/5/5 45/6/5
f 47/7/6 48/8/7 49/9/7
f 35/10/8 47/11/9 81/12/10
f 71/13/11 52/14/11 72/15/11
f 60/16/12 58/17/13 56/18/12
f 60/16/14 63/19/14 61/20/14
f 57/21/15 61/22/15 59/23/15
f 11/24/11 52/25/11 51/26/11
f 40/27/16 3/28/17 4/29/17
f 17/30/18 20/31/18 18/32/18
f 81/33/10 71/34/19 72/35/20
f 68/36/9 48/37/14 69/38/9
f 64/39/21 66/40/22 43/41/21
f 65/42/4 58/17/13 57/43/13
f 48/44/7 56/45/12 49/9/7
f 16/46/23 7/2/2 28/47/2
f 51/48/24 41/49/25 11/50/24
f 70/51/11 54/52/11 71/34/11
f 66/53/26 45/6/5 43/41/5
f 27/54/27 18/55/23 16/46/23
f 65/42/28 59/56/28 62/57/28
f 34/58/11 15/59/11 14/60/11
f 77/61/29 70/62/19 71/34/19
f 8/63/30 68/64/9 69/38/9
f 70/51/31 78/65/32 76/66/31
f 39/67/33 40/68/16 14/69/33
f 41/70/25 44/71/34 1/72/34
f 79/73/35 80/74/36 53/75/36
f 74/76/37 51/77/38 52/25/38
f 80/78/39 75/79/40 54/80/39
f 77/81/29 47/11/9 49/82/14
f 79/83/35 45/6/21 83/84/41
f 72/85/11 12/86/11 30/87/11
f 66/53/22 25/88/42 24/89/42
f 84/90/32 58/17/15 78/91/32
f 36/92/43 27/93/18 16/46/18
f 77/81/29 56/94/14 84/95/44
f 26/96/30 7/97/45 22/98/45
f 37/99/46 4/100/47 27/101/47
f 24/102/48 3/28/49 1/72/50
f 53/103/11 54/52/11 55/104/11
f 50/105/11 45/106/11 44/71/11
f 9/107/11 3/108/11 10/109/11
f 24/102/48 44/71/51 66/110/26
f 13/111/11 14/60/11 15/112/11
f 5/113/52 27/93/27 4/29/52
f 74/114/37 44/71/53 82/115/54
f 38/116/55 6/117/30 35/118/8
f 18/119/45 22/120/45 7/121/45
f 2/122/17 21/123/17 5/124/17
f 32/125/56 1/126/57 9/107/57
f 50/127/58 75/128/59 73/129/58
f 29/130/11 13/131/11 15/112/11
f 4/29/52 2/132/49 5/133/52
f 31/134/11 12/135/11 13/136/11
f 9/137/60 33/138/61 32/139/62
f 55/140/11 76/141/11 53/142/11
f 31/134/63 35/143/8 30/144/64
f 37/99/43 29/145/65 34/58/65
f 14/146/66 37/147/46 34/148/66
f 11/50/39 32/149/56 12/86/39
f 29/130/63 38/150/55 31/151/63
f 54/152/67 74/153/68 52/25/69
f 78/91/70 53/142/71 76/66/71
f 13/111/72 32/149/62 33/138/61
f 39/67/38 33/154/73 42/155/74
f 83/156/75 73/157/57 75/158/40
f 38/116/55 16/159/45 28/160/45
f 5/113/47 19/161/47 17/162/47
f 72/85/20 35/163/8 81/12/10
f 23/164/17 24/165/42 25/166/42
f 43/167/21 62/168/21 64/169/21
f 42/170/74 10/109/53 3/171/53
f 78/172/70 46/173/28 79/73/70
f 34/58/11 29/174/11 15/175/11
f 55/140/11 70/176/11 76/177/11
f 8/63/3 47/11/6 6/1/1
f 6/1/1 28/178/2 7/2/2
f 46/4/4 65/42/4 43/5/5
f 47/7/6 69/179/76 48/8/7
f 35/10/8 6/180/30 47/11/9
f 71/13/11 54/181/11 52/14/11
f 60/16/12 57/182/13 58/17/13
f 60/16/14 48/8/14 63/19/14
f 57/21/15 60/183/15 61/22/15
f 11/24/11 12/135/11 52/25/11
f 40/27/16 42/184/77 3/28/17
f 17/30/18 19/185/18 20/31/18
f 81/33/10 77/186/29 71/34/19
f 68/36/9 63/187/14 48/37/14
f 64/39/21 67/188/22 66/40/22
f 65/42/4 46/189/4 58/17/13
f 48/44/7 60/16/12 56/45/12
f 16/46/23 18/119/23 7/2/2
f 51/48/24 82/190/25 41/49/25
f 70/51/11 55/191/11 54/52/11
f 66/53/26 44/192/51 45/6/5
f 27/54/27 17/193/27 18/55/23
f 65/42/28 57/182/28 59/56/28
f 77/61/29 84/90/44 70/62/19
f 8/63/30 26/194/30 68/64/9
f 70/51/31 84/90/32 78/65/32
f 39/67/33 42/170/77 40/68/16
f 41/70/25 82/190/25 44/71/34
f 79/73/35 83/156/41 80/74/36
f 74/76/37 82/195/54 51/77/38
f 80/78/39 83/156/75 75/79/40
f 77/81/29 81/196/10 47/11/9
f 79/83/35 46/189/21 45/6/21
f 72/85/11 52/14/11 12/86/11
f 66/53/22 67/188/22 25/88/42
f 84/90/32 56/45/15 58/17/15
f 36/92/43 37/147/43 27/93/18
f 77/81/29 49/197/14 56/94/14
f 26/96/30 8/198/30 7/97/45
f 37/99/46 40/68/46 4/100/47
f 24/102/48 2/132/49 3/28/49
f 53/103/11 80/199/11 54/52/11
f 50/105/11 73/200/11 45/106/11
f 9/107/11 1/201/11 3/108/11
f 24/102/48 1/202/50 44/71/51
f 13/111/11 39/203/11 14/60/11
f 5/113/52 17/193/27 27/93/27
f 74/114/37 50/204/53 44/71/53
f 38/116/55 28/205/45 6/117/30
f 18/119/45 20/206/45 22/120/45
f 2/122/17 23/207/17 21/123/17
f 32/125/56 41/208/78 1/126/57
f 50/127/58 74/153/68 75/128/59
f 29/130/11 31/209/11 13/131/11
f 4/29/52 3/210/49 2/132/49
f 31/134/11 30/211/11 12/135/11
f 9/137/60 10/212/60 33/138/61
f 31/134/63 38/116/55 35/143/8
f 37/99/43 36/213/43 29/145/65
f 14/146/66 40/27/46 37/147/46
f 11/50/39 41/70/78 32/149/56
f 29/130/63 36/92/79 38/150/55
f 54/152/67 75/214/59 74/153/68
f 78/91/70 79/83/70 53/142/71
f 13/111/72 12/215/80 32/149/62
f 39/67/38 13/216/38 33/154/73
f 83/156/75 45/106/57 73/157/57
f 38/116/55 36/213/79 16/159/45
f 5/113/47 21/217/47 19/161/47
f 72/85/20 30/218/64 35/163/8
f 23/164/17 2/132/17 24/165/42
f 43/167/21 65/219/21 62/168/21
f 42/170/74 33/154/73 10/109/53
f 78/172/70 58/220/28 46/173/28
f 8/63/3 69/221/76 47/11/6
