# Blender v2.79 (sub 0) OBJ File: 'turret10.blend'
# www.blender.org
o Cube.002_Cube.000
v 0.351995 1.235731 -0.219026
v 0.351995 1.038797 0.174840
v 0.351995 1.038797 -0.219026
v 0.000000 1.196577 -0.059313
v 0.187187 1.077951 -0.059313
v 0.000000 1.077951 -0.059313
v 0.187187 1.038797 0.174840
v 0.187187 1.077951 0.059313
v 0.187187 1.196577 -0.059313
v 0.187187 1.038797 -0.219026
v 0.000000 1.077951 0.059313
v 0.187187 1.235731 0.174840
v 0.187187 1.196577 0.059313
v 0.187187 1.235731 -0.219026
v 0.233903 1.172801 0.836892
v 0.295708 1.163271 0.513467
v 0.305279 1.172801 0.836892
v 0.219975 1.202942 -0.300879
v 0.319206 1.071586 -0.300879
v 0.219975 1.071586 -0.300879
v 0.225503 1.093326 0.174840
v 0.313680 1.093326 0.174840
v 0.351995 1.235731 0.174840
v 0.313680 1.181202 0.174840
v 0.225503 1.181202 0.174840
v 0.319206 1.202942 -0.300879
v 0.233903 1.101727 0.836892
v 0.305279 1.101727 0.836892
v 0.295708 1.111256 0.513467
v 0.243474 1.163271 0.513467
v 0.243474 1.111256 0.513467
v -0.351995 1.038797 0.174840
v -0.351995 1.235731 -0.219026
v -0.351995 1.038797 -0.219026
v -0.187187 1.077951 -0.059313
v -0.187187 1.038797 0.174840
v -0.187187 1.077951 0.059313
v -0.187187 1.038797 -0.219026
v -0.187187 1.196577 -0.059313
v -0.187187 1.235731 0.174840
v -0.187187 1.196577 0.059313
v -0.187187 1.235731 -0.219026
v -0.295708 1.163271 0.513467
v -0.233903 1.172801 0.836892
v -0.305279 1.172801 0.836892
v -0.319206 1.071586 -0.300879
v -0.219975 1.202942 -0.300879
v -0.219975 1.071586 -0.300879
v -0.225503 1.093326 0.174840
v -0.225503 1.181202 0.174840
v -0.351995 1.235731 0.174840
v -0.313680 1.093326 0.174840
v -0.313680 1.181202 0.174840
v -0.319206 1.202942 -0.300879
v -0.233903 1.101727 0.836892
v -0.305279 1.101727 0.836892
v -0.243474 1.163271 0.513467
v -0.295708 1.111256 0.513467
v -0.243474 1.111256 0.513467
v 0.000000 1.196577 0.059313
vt 0.500000 0.000000
vt 0.000000 0.500000
vt 0.000000 0.000000
vt 0.500000 0.000000
vt 0.000000 0.500000
vt 0.000000 0.000000
vt 0.000000 0.000000
vt 0.500000 0.000000
vt 0.500000 0.500000
vt 0.000000 0.000000
vt 0.500000 0.500000
vt 0.000000 0.500000
vt 0.000000 0.000000
vt 0.500000 0.500000
vt 0.000000 0.500000
vt 0.500000 0.000000
vt 0.000000 0.500000
vt 0.000000 0.000000
vt 0.500000 0.000000
vt 0.000000 0.500000
vt 0.000000 0.000000
vt 0.000000 0.000000
vt 0.500000 0.000000
vt 0.500000 0.500000
vt 0.000000 0.000000
vt 0.500000 0.500000
vt 0.000000 0.500000
vt 0.000000 0.500000
vt 0.000000 0.000000
vt 0.500000 0.000000
vt 0.000000 0.500000
vt 0.000000 0.000000
vt 0.500000 0.000000
vt 0.000000 0.500000
vt 0.000000 0.000000
vt 0.500000 0.500000
vt 0.000000 0.500000
vt 0.000000 0.000000
vt 0.500000 0.500000
vt 0.000000 0.500000
vt 0.000000 0.000000
vt 0.500000 0.500000
vt 0.000000 0.500000
vt 0.500000 0.000000
vt 0.000000 0.000000
vt 0.500000 0.000000
vt 0.000000 0.500000
vt 0.500000 0.000000
vt 0.000000 0.500000
vt 0.000000 0.000000
vt 0.500000 0.000000
vt 0.000000 0.500000
vt 0.000000 0.500000
vt 0.000000 0.000000
vt 0.500000 0.000000
vt 0.000000 0.500000
vt 0.000000 0.000000
vt 0.500000 0.500000
vt 0.500000 0.000000
vt 0.000000 0.500000
vt 0.000000 0.000000
vt 0.500000 0.000000
vt 0.000000 0.500000
vt 0.000000 0.000000
vt 0.500000 0.000000
vt 0.000000 0.000000
vt 0.500000 0.000000
vt 0.000000 0.000000
vt 0.500000 0.000000
vt 0.000000 0.500000
vt 0.000000 0.000000
vt 0.000000 0.500000
vt 0.500000 0.000000
vt 0.000000 0.000000
vt 0.500000 0.000000
vt 0.000000 0.500000
vt 0.000000 0.000000
vt 0.500000 0.000000
vt 0.000000 0.500000
vt 0.000000 0.000000
vt 0.500000 0.000000
vt 0.500000 0.500000
vt 0.000000 0.500000
vt 0.500000 0.000000
vt 0.000000 0.500000
vt 0.000000 0.000000
vt 0.000000 0.500000
vt 0.000000 0.000000
vt 0.500000 0.000000
vt 0.000000 0.000000
vt 0.500000 0.000000
vt 0.500000 0.500000
vt 0.000000 0.500000
vt 0.000000 0.000000
vt 0.500000 0.000000
vt 0.500000 0.000000
vt 0.000000 0.000000
vt 0.000000 0.500000
vt 0.000000 0.000000
vt 0.000000 0.500000
vt 0.000000 0.000000
vt 0.500000 0.500000
vt 0.500000 0.000000
vt 0.000000 0.500000
vt 0.000000 0.000000
vt 0.000000 0.500000
vt 0.000000 0.000000
vt 0.000000 0.500000
vt 0.500000 0.000000
vt 0.500000 0.000000
vt 0.000000 0.000000
vt 0.500000 0.500000
vt 0.000000 0.500000
vt 0.500000 0.000000
vt 0.500000 0.000000
vt 0.000000 0.500000
vt 0.000000 0.000000
vt 0.000000 0.500000
vt 0.000000 0.000000
vt 0.500000 0.000000
vt 0.000000 0.500000
vt 0.500000 0.000000
vt 0.000000 0.000000
vt 0.500000 0.500000
vt 0.500000 0.000000
vt 0.500000 0.500000
vt 0.000000 0.500000
vt 0.000000 0.000000
vt 0.500000 0.500000
vt 0.000000 0.500000
vt 0.500000 0.500000
vt 0.500000 0.000000
vt 0.500000 0.500000
vt 0.500000 0.500000
vt 0.500000 0.500000
vt 0.500000 0.000000
vt 0.500000 0.500000
vt 0.500000 0.500000
vt 0.500000 0.500000
vt 0.500000 0.500000
vt 0.500000 0.500000
vt 0.500000 0.000000
vt 0.500000 0.500000
vt 0.500000 0.500000
vt 0.500000 0.500000
vt 0.500000 0.500000
vt 0.500000 0.500000
vt 0.500000 0.500000
vt 0.500000 0.500000
vt 0.500000 0.500000
vt 0.500000 0.500000
vt 0.500000 0.500000
vt 0.500000 0.000000
vt 0.500000 0.500000
vt 0.500000 0.500000
vt 0.500000 0.500000
vt 0.500000 0.500000
vt 0.500000 0.000000
vn 0.0000 0.0000 -1.0000
vn 0.0000 -0.9863 -0.1651
vn 0.0000 -1.0000 0.0000
vn -1.0000 -0.0000 0.0000
vn 0.9863 -0.0000 -0.1651
vn 1.0000 0.0000 0.0000
vn 0.0000 0.9999 0.0127
vn 0.0000 -0.9283 -0.3719
vn 0.0000 -0.0000 1.0000
vn -0.9863 0.0000 -0.1651
vn 0.0000 1.0000 0.0000
vn 0.0000 0.9996 0.0295
vn 0.9283 0.0000 -0.3719
vn -0.9283 0.0000 -0.3719
vn 0.0000 0.9863 -0.1651
vn 0.0000 0.9283 -0.3719
vn 0.9999 0.0000 0.0127
vn 0.9996 0.0000 0.0296
vn 0.0000 -0.9999 0.0127
vn 0.0000 -0.9996 0.0295
vn -0.9996 0.0000 0.0296
vn -0.9999 0.0000 0.0127
s 1
f 39/1/1 6/2/1 35/3/1
f 3/4/2 7/5/3 10/6/2
f 5/7/4 7/8/4 8/9/4
f 38/10/5 39/11/6 35/12/6
f 50/13/7 45/14/7 44/15/7
f 19/16/8 10/17/2 20/18/8
f 60/19/9 37/20/9 11/21/9
f 9/22/4 12/23/4 14/24/10
f 1/25/5 2/26/6 3/27/5
f 60/19/11 39/28/11 41/29/11
f 58/30/12 55/31/12 59/32/12
f 34/33/2 36/34/3 32/35/3
f 32/35/4 33/36/10 34/37/10
f 51/38/9 52/39/9 53/40/9
f 49/41/9 40/42/9 50/43/9
f 51/44/9 50/43/9 40/45/9
f 36/46/9 52/47/9 32/35/9
f 38/48/5 47/49/13 42/50/5
f 10/51/10 18/52/14 20/18/14
f 38/48/2 46/53/8 48/54/8
f 14/55/15 26/56/16 18/57/16
f 49/41/17 44/58/17 55/31/17
f 43/59/18 56/60/18 58/61/18
f 22/62/17 17/63/17 28/64/17
f 49/65/19 56/60/19 52/66/19
f 9/67/1 6/2/1 4/68/1
f 57/69/20 45/70/20 43/71/20
f 14/55/10 5/72/4 9/22/4
f 59/73/21 44/15/21 57/74/21
f 54/75/1 48/76/1 46/77/1
f 26/78/1 20/79/1 18/57/1
f 36/80/6 35/81/6 37/82/6
f 36/46/6 41/83/6 40/45/6
f 16/84/9 31/85/9 29/86/9
f 7/8/4 13/87/4 8/88/4
f 37/89/3 6/2/3 11/21/3
f 39/90/6 40/91/6 41/92/6
f 51/44/11 42/93/15 33/94/15
f 8/95/3 6/2/3 5/7/3
f 30/96/20 17/63/20 15/97/20
f 60/19/9 8/98/9 13/99/9
f 60/19/11 9/100/11 4/68/11
f 21/101/9 12/102/9 7/5/9
f 23/103/9 25/104/9 24/105/9
f 7/8/9 22/106/9 21/101/9
f 26/78/13 3/27/5 19/107/13
f 34/33/10 54/108/14 46/77/14
f 42/109/15 54/108/16 33/94/15
f 52/110/22 45/70/22 53/111/22
f 15/97/22 21/112/22 27/113/22
f 17/114/7 25/104/7 15/97/7
f 21/115/19 28/116/19 27/117/19
f 23/103/11 14/118/15 12/119/11
f 31/120/18 15/121/18 27/117/18
f 29/122/12 27/113/12 28/64/12
f 16/84/21 28/116/21 17/123/21
f 5/7/4 10/51/10 7/124/4
f 9/22/4 13/125/4 12/102/4
f 36/80/6 38/48/5 35/126/6
f 39/90/6 42/109/5 40/42/6
f 43/59/9 59/127/9 57/74/9
f 22/128/9 23/129/9 24/130/9
f 39/1/1 4/131/1 6/2/1
f 3/4/2 2/26/3 7/5/3
f 38/10/5 42/109/5 39/11/6
f 50/13/7 53/132/7 45/14/7
f 19/16/8 3/133/2 10/17/2
f 60/19/9 41/92/9 37/20/9
f 1/25/5 23/103/6 2/26/6
f 60/19/11 4/131/11 39/28/11
f 58/30/12 56/134/12 55/31/12
f 34/33/2 38/135/2 36/34/3
f 32/35/4 51/44/4 33/36/10
f 51/38/9 32/136/9 52/39/9
f 49/41/9 36/46/9 40/42/9
f 51/44/9 53/137/9 50/43/9
f 36/46/9 49/138/9 52/47/9
f 38/48/5 48/139/13 47/49/13
f 10/51/10 14/24/10 18/52/14
f 38/48/2 34/140/2 46/53/8
f 14/55/15 1/141/15 26/56/16
f 49/41/17 50/142/17 44/58/17
f 43/59/18 45/14/18 56/60/18
f 22/62/17 24/143/17 17/63/17
f 49/65/19 55/144/19 56/60/19
f 9/67/1 5/145/1 6/2/1
f 57/69/20 44/58/20 45/70/20
f 14/55/10 10/146/10 5/72/4
f 59/73/21 55/144/21 44/15/21
f 54/75/1 47/147/1 48/76/1
f 26/78/1 19/148/1 20/79/1
f 36/46/6 37/82/6 41/83/6
f 16/84/9 30/149/9 31/85/9
f 7/8/4 12/102/4 13/87/4
f 37/89/3 35/126/3 6/2/3
f 51/44/11 40/42/11 42/93/15
f 8/95/3 11/150/3 6/2/3
f 30/96/20 16/151/20 17/63/20
f 60/19/9 11/150/9 8/98/9
f 60/19/11 13/152/11 9/100/11
f 21/101/9 25/153/9 12/102/9
f 23/103/9 12/102/9 25/104/9
f 7/8/9 2/26/9 22/106/9
f 26/78/13 1/141/5 3/27/5
f 34/33/10 33/36/10 54/108/14
f 42/109/15 47/147/16 54/108/16
f 52/110/22 56/134/22 45/70/22
f 15/97/22 25/153/22 21/112/22
f 17/114/7 24/143/7 25/104/7
f 21/115/19 22/154/19 28/116/19
f 23/103/11 1/141/15 14/118/15
f 31/120/18 30/149/18 15/121/18
f 29/122/12 31/155/12 27/113/12
f 16/84/21 29/156/21 28/116/21
f 43/59/9 58/157/9 59/127/9
f 22/128/9 2/158/9 23/129/9
