# Blender v2.79 (sub 0) OBJ File: 'turret13.blend'
# www.blender.org
o Cube.002_Cube.001
v 0.000000 0.752944 -0.357112
v 0.309268 0.538435 -0.178557
v 0.000000 0.538435 -0.357112
v 0.309268 0.752944 -0.178557
v 0.309268 0.538435 0.178557
v 0.309268 0.752944 0.178557
v 0.000000 0.538435 0.357112
v 0.000000 0.752944 0.357112
v -0.309268 0.538435 0.178557
v 0.000000 0.752944 0.255280
v -0.184866 0.804985 0.106732
v -0.221079 0.752944 0.127640
v -0.309268 0.752944 0.178557
v -0.309268 0.538435 -0.178557
v -0.309268 0.752944 -0.178557
v 0.221079 0.752944 -0.127640
v 0.000000 0.752944 -0.255280
v 0.221079 0.752944 0.127640
v -0.221079 0.752944 -0.127640
v 0.000000 0.839296 -0.090833
v -0.078664 0.839296 0.045417
v 0.078664 0.839296 -0.045417
v -0.184866 0.804985 -0.106732
v 0.184866 0.804985 -0.106732
v 0.000000 0.804985 -0.213466
v 0.184866 0.804985 0.106732
v 0.000000 0.804985 0.213466
v 0.107274 0.804985 -0.061934
v 0.000000 0.804985 -0.123870
v 0.107274 0.804985 0.061934
v 0.000000 0.804985 0.123870
v -0.112004 1.003219 -0.238693
v -0.175407 1.201454 -0.269836
v -0.116734 1.201454 -0.235962
v -0.107274 0.804985 -0.061934
v -0.180137 1.003219 -0.080948
v -0.180137 1.003219 -0.278030
v -0.107274 0.804985 0.061934
v 0.116734 1.201454 -0.123015
v 0.175407 1.201454 -0.269836
v 0.116734 1.201454 -0.235962
v 0.112004 1.003219 -0.238693
v 0.180137 1.003219 -0.278030
v 0.180137 1.003219 -0.080948
v 0.112004 1.003219 -0.120285
v 0.175407 1.201454 -0.089141
v -0.112004 1.003219 -0.120285
v -0.175407 1.201454 -0.089141
v -0.112777 1.064192 -0.147395
v -0.112777 1.064192 -0.211583
v -0.116734 1.201454 -0.123015
v -0.115960 1.140481 -0.209230
v 0.112777 1.064192 -0.147395
v 0.115960 1.140481 -0.149749
v 0.115960 1.140481 -0.209230
v -0.115960 1.140481 -0.149749
v 0.112777 1.064192 -0.211583
v 0.078664 0.839296 0.045417
v -0.078664 0.839296 -0.045417
v 0.000000 0.839296 0.090834
vt 0.000000 0.000000
vt 0.500000 0.500000
vt 0.000000 0.500000
vt 0.500000 0.000000
vt 0.000000 0.500000
vt 0.000000 0.000000
vt 0.500000 0.000000
vt 0.000000 0.500000
vt 0.000000 0.000000
vt 0.500000 0.000000
vt 0.000000 0.500000
vt 0.000000 0.000000
vt 0.500000 0.000000
vt 0.000000 0.500000
vt 0.000000 0.000000
vt 0.500000 0.000000
vt 0.000000 0.500000
vt 0.000000 0.000000
vt 0.500000 0.000000
vt 0.000000 0.500000
vt 0.000000 0.000000
vt 0.500000 0.500000
vt 0.000000 0.500000
vt 0.500000 0.000000
vt 0.000000 0.500000
vt 0.000000 0.000000
vt 0.500000 0.000000
vt 0.000000 0.500000
vt 0.000000 0.000000
vt 0.000000 0.000000
vt 0.500000 0.500000
vt 0.000000 0.500000
vt 0.000000 0.500000
vt 0.000000 0.000000
vt 0.500000 0.000000
vt 0.000000 0.000000
vt 0.500000 0.500000
vt 0.000000 0.500000
vt 0.000000 0.000000
vt 0.500000 0.500000
vt 0.000000 0.500000
vt 0.000000 0.000000
vt 0.500000 0.500000
vt 0.500000 0.000000
vt 0.500000 0.000000
vt 0.000000 0.000000
vt 0.500000 0.500000
vt 0.000000 0.500000
vt 0.000000 0.000000
vt 0.500000 0.500000
vt 0.000000 0.500000
vt 0.000000 0.500000
vt 0.000000 0.000000
vt 0.000000 0.000000
vt 0.500000 0.500000
vt 0.500000 0.000000
vt 0.500000 0.500000
vt 0.000000 0.500000
vt 0.500000 0.000000
vt 0.000000 0.500000
vt 0.000000 0.000000
vt 0.000000 0.000000
vt 0.500000 0.500000
vt 0.500000 0.500000
vt 0.000000 0.500000
vt 0.000000 0.000000
vt 0.000000 0.500000
vt 0.000000 0.000000
vt 0.500000 0.500000
vt 0.000000 0.500000
vt 0.500000 0.000000
vt 0.000000 0.500000
vt 0.000000 0.000000
vt 0.000000 0.000000
vt 0.500000 0.500000
vt 0.000000 0.000000
vt 0.000000 0.500000
vt 0.500000 0.000000
vt 0.000000 0.500000
vt 0.000000 0.000000
vt 0.500000 0.500000
vt 0.000000 0.500000
vt 0.000000 0.000000
vt 0.000000 0.500000
vt 0.500000 0.500000
vt 0.000000 0.500000
vt 0.000000 0.000000
vt 0.500000 0.500000
vt 0.000000 0.500000
vt 0.500000 0.000000
vt 0.000000 0.500000
vt 0.000000 0.000000
vt 0.000000 0.000000
vt 0.500000 0.500000
vt 0.000000 0.000000
vt 0.500000 0.500000
vt 0.500000 0.000000
vt 0.000000 0.500000
vt 0.000000 0.000000
vt 0.500000 0.500000
vt 0.000000 0.500000
vt 0.000000 0.000000
vt 0.466506 0.375000
vt 0.033494 0.125000
vt 0.033494 0.375000
vt 0.500000 0.000000
vt 0.000000 0.500000
vt 0.000000 0.000000
vt 0.500000 0.000000
vt 0.000000 0.500000
vt 0.500000 0.000000
vt 0.000000 0.500000
vt 0.000000 0.000000
vt 0.000000 0.000000
vt 0.500000 0.500000
vt 0.000000 0.000000
vt 0.500000 0.500000
vt 0.000000 0.500000
vt 0.500000 0.000000
vt 0.500000 0.500000
vt 0.000000 0.500000
vt 0.500000 0.000000
vt 0.000000 0.500000
vt 0.000000 0.000000
vt 0.000000 0.500000
vt 0.000000 0.000000
vt 0.500000 0.500000
vt 0.500000 0.500000
vt 0.500000 0.500000
vt 0.500000 0.500000
vt 0.500000 0.500000
vt 0.500000 0.500000
vt 0.500000 0.500000
vt 0.500000 0.500000
vt 0.500000 0.500000
vt 0.500000 0.000000
vt 0.500000 0.000000
vt 0.500000 0.000000
vt 0.500000 0.000000
vt 0.500000 0.000000
vt 0.500000 0.500000
vt 0.500000 0.500000
vt 0.500000 0.000000
vt 0.500000 0.000000
vt 0.500000 0.000000
vt 0.500000 0.500000
vt 0.500000 0.000000
vt 0.500000 0.000000
vt 0.500000 0.000000
vt 0.500000 0.000000
vt 0.500000 0.000000
vt 0.500000 0.000000
vt 0.250000 0.500000
vt 0.466506 0.125000
vt 0.250000 0.000000
vt 0.500000 0.500000
vt 0.500000 0.500000
vt 0.500000 0.000000
vt 0.500000 0.000000
vt 0.500000 0.500000
vt 0.500000 0.000000
vt 0.500000 0.500000
vn 0.4999 0.0239 0.8658
vn 0.4999 0.0238 0.8658
vn -0.5000 -0.0000 0.8660
vn 0.5000 0.0000 -0.8660
vn 0.0000 1.0000 0.0000
vn 0.4104 0.5712 -0.7109
vn -0.5000 0.0000 -0.8660
vn 0.5000 -0.0000 0.8660
vn 0.8208 0.5712 0.0000
vn -0.4104 0.5712 -0.7109
vn -0.3980 -0.6052 -0.6894
vn 0.4104 0.5712 0.7109
vn -0.8208 0.5712 0.0000
vn -0.4104 0.5712 0.7109
vn -0.4999 0.0239 -0.8658
vn -0.9997 0.0239 0.0000
vn -0.9998 0.0206 0.0027
vn -0.9998 0.0185 -0.0044
vn 0.7680 0.6404 0.0000
vn 0.3980 -0.6052 -0.6894
vn 0.3889 0.6285 0.6736
vn 0.9997 0.0239 0.0000
vn 0.9998 0.0206 0.0027
vn 0.4999 0.0239 -0.8658
vn 0.0000 0.0308 -0.9995
vn -0.4999 0.0239 0.8658
vn -0.4999 0.0238 0.8658
vn -0.3889 0.6285 0.6736
vn 0.9997 0.0200 0.0113
vn 0.9998 0.0181 -0.0062
vn 0.9997 0.0200 -0.0113
vn 0.9998 0.0181 0.0062
vn 0.9990 0.0283 0.0356
vn -0.9997 0.0200 0.0113
vn -0.9998 0.0181 -0.0062
vn -0.9990 0.0283 -0.0356
vn -0.9997 0.0200 -0.0113
vn -0.9998 0.0181 0.0062
vn -0.9990 0.0283 0.0356
vn 0.0000 -1.0000 0.0000
vn -1.0000 0.0000 0.0000
vn 0.0000 0.0308 0.9995
vn -0.7680 0.6404 0.0000
vn 0.3840 0.6404 -0.6651
vn -0.3840 0.6404 0.6651
vn -0.3840 0.6404 -0.6651
vn 0.3840 0.6404 0.6651
vn 0.9990 0.0283 -0.0356
vn 1.0000 0.0000 0.0000
vn 0.9998 0.0185 -0.0044
s 1
f 47/1/1 48/2/2 36/3/1
f 13/4/3 7/5/3 8/6/3
f 4/7/4 3/8/4 1/9/4
f 52/10/5 54/11/5 55/12/5
f 25/13/6 16/14/6 17/15/6
f 1/16/7 14/17/7 15/18/7
f 8/19/8 5/20/8 6/21/8
f 17/15/5 15/22/5 19/23/5
f 15/24/5 12/25/5 19/26/5
f 31/27/5 26/28/5 30/29/5
f 10/30/5 6/31/5 18/32/5
f 13/4/5 10/33/5 12/34/5
f 24/35/9 18/32/9 16/36/9
f 19/26/10 25/37/10 17/38/10
f 24/39/11 42/40/11 43/41/11
f 18/42/12 27/43/12 10/33/12
f 11/44/13 19/23/13 12/34/13
f 27/45/14 12/25/14 10/30/14
f 29/46/5 23/47/5 35/48/5
f 31/49/5 11/50/5 27/51/5
f 24/35/5 29/52/5 28/53/5
f 42/54/15 40/55/15 43/41/15
f 6/56/5 16/14/5 18/42/5
f 28/53/16 45/57/17 42/58/18
f 30/59/19 22/60/19 58/61/19
f 4/7/5 17/38/5 16/36/5
f 23/62/20 32/63/20 35/48/20
f 23/62/16 36/64/16 37/65/16
f 38/66/21 36/64/21 11/67/21
f 35/68/22 47/69/23 38/70/22
f 40/71/22 44/72/22 43/73/22
f 36/74/16 33/75/16 37/65/16
f 32/76/24 33/75/24 34/77/24
f 57/78/25 52/79/25 55/12/25
f 45/80/26 46/81/27 39/82/27
f 39/83/5 40/55/5 41/84/5
f 30/29/28 44/85/28 45/86/28
f 49/87/29 51/88/30 47/89/23
f 51/90/5 33/91/5 48/92/5
f 50/93/31 34/94/32 52/79/33
f 53/95/34 39/96/35 54/11/36
f 47/97/23 50/98/31 49/87/29
f 57/78/37 45/86/17 53/95/34
f 54/99/36 41/100/38 55/101/39
f 57/102/37 41/100/38 42/58/18
f 59/103/5 58/104/5 22/105/5
f 53/106/40 50/98/40 57/102/40
f 15/24/41 9/107/41 13/108/41
f 54/109/42 49/110/42 53/95/42
f 35/111/43 21/112/43 59/113/43
f 20/114/44 28/115/44 29/52/44
f 60/116/45 38/117/45 31/118/45
f 20/119/46 35/48/46 59/113/46
f 60/116/47 30/120/47 58/121/47
f 34/122/32 56/123/48 52/124/33
f 24/39/22 44/85/22 26/28/22
f 6/56/49 2/125/49 4/126/49
f 47/1/1 51/90/2 48/2/2
f 13/4/3 9/127/3 7/5/3
f 4/7/4 2/128/4 3/8/4
f 52/10/5 56/129/5 54/11/5
f 25/13/6 24/130/6 16/14/6
f 1/16/7 3/131/7 14/17/7
f 8/19/8 7/132/8 5/20/8
f 17/15/5 1/16/5 15/22/5
f 15/24/5 13/133/5 12/25/5
f 31/27/5 27/43/5 26/28/5
f 10/30/5 8/19/5 6/31/5
f 13/4/5 8/134/5 10/33/5
f 24/35/9 26/135/9 18/32/9
f 19/26/10 23/136/10 25/37/10
f 24/39/11 28/137/11 42/40/11
f 18/42/12 26/138/12 27/43/12
f 11/44/13 23/47/13 19/23/13
f 27/45/14 11/50/14 12/25/14
f 29/46/5 25/13/5 23/47/5
f 31/49/5 38/139/5 11/50/5
f 24/35/5 25/37/5 29/52/5
f 42/54/15 41/140/15 40/55/15
f 6/56/5 4/141/5 16/14/5
f 28/53/16 30/59/16 45/57/17
f 30/59/19 28/115/19 22/60/19
f 4/7/5 1/142/5 17/38/5
f 23/62/20 37/143/20 32/63/20
f 23/62/16 11/44/16 36/64/16
f 38/66/21 47/97/21 36/64/21
f 35/68/22 32/144/50 47/69/23
f 40/71/22 46/81/22 44/72/22
f 36/74/16 48/145/16 33/75/16
f 32/76/24 37/143/24 33/75/24
f 57/78/25 50/146/25 52/79/25
f 45/80/26 44/147/26 46/81/27
f 39/83/5 46/148/5 40/55/5
f 30/29/28 26/138/28 44/85/28
f 49/87/29 56/149/48 51/88/30
f 51/90/5 34/94/5 33/91/5
f 50/93/31 32/144/50 34/94/32
f 53/95/34 45/150/17 39/96/35
f 47/97/23 32/63/50 50/98/31
f 57/78/37 42/40/18 45/86/17
f 54/99/36 39/151/35 41/100/38
f 57/102/37 55/152/39 41/100/38
f 22/105/5 20/153/5 59/103/5
f 59/103/5 21/154/5 60/155/5
f 60/155/5 58/104/5 59/103/5
f 53/106/40 49/156/40 50/98/40
f 15/24/41 14/157/41 9/107/41
f 54/109/42 56/129/42 49/110/42
f 35/111/43 38/117/43 21/112/43
f 20/114/44 22/158/44 28/115/44
f 60/116/45 21/159/45 38/117/45
f 20/119/46 29/160/46 35/48/46
f 60/116/47 31/27/47 30/120/47
f 34/122/32 51/88/30 56/123/48
f 24/39/22 43/161/22 44/85/22
f 6/56/49 5/162/49 2/125/49
