# Blender v2.79 (sub 0) OBJ File: 'bullet1.blend'
# www.blender.org
o Cube_Cube.004
v 0.171679 -0.171679 -0.502041
v 0.171679 0.171679 -0.502041
v -0.171679 -0.171679 -0.502041
v -0.100986 -0.100986 0.497959
v 0.100986 0.100986 0.497959
v -0.171679 0.171679 -0.502041
v 0.100986 -0.100986 0.497959
v -0.100986 0.100986 0.497959
vt 0.000000 0.000000
vt 0.500000 0.500000
vt 0.000000 0.500000
vt 0.500000 0.000000
vt 0.000000 0.500000
vt 0.000000 0.000000
vt 0.500000 0.000000
vt 0.000000 0.500000
vt 0.000000 0.000000
vt 0.500000 0.000000
vt 0.000000 0.500000
vt 0.000000 0.000000
vt 0.000000 0.000000
vt 0.500000 0.500000
vt 0.000000 0.500000
vt 0.500000 0.000000
vt 0.000000 0.500000
vt 0.500000 0.500000
vt 0.500000 0.000000
vt 0.500000 0.500000
vn -0.9975 -0.0000 0.0705
vn 0.0000 0.0000 -1.0000
vn 0.0000 0.9975 0.0705
vn 0.0000 -0.9975 0.0705
vn 0.9975 -0.0000 0.0705
vn 0.0000 -0.0000 1.0000
s 1
f 8/1/1 3/2/1 4/3/1
f 2/4/2 3/5/2 6/6/2
f 6/7/3 5/8/3 2/9/3
f 4/10/4 1/11/4 7/12/4
f 5/13/5 1/14/5 2/15/5
f 8/16/6 7/17/6 5/13/6
f 8/1/1 6/7/1 3/2/1
f 2/4/2 1/14/2 3/5/2
f 6/7/3 8/18/3 5/8/3
f 4/10/4 3/2/4 1/11/4
f 5/13/5 7/19/5 1/14/5
f 8/16/6 4/20/6 7/17/6
