# Blender v2.79 (sub 0) OBJ File: 'clusterrocket0.blend'
# www.blender.org
o Cylinder.001
v -0.089722 0.051801 0.227593
v 0.000000 0.068276 0.166667
v -0.059128 0.034138 0.166667
v 0.059128 -0.034138 0.166667
v 0.000000 -0.103602 0.227593
v 0.000000 -0.068276 0.166667
v -0.059128 -0.034138 0.166667
v -0.089722 -0.051801 0.227593
v -0.059128 0.034138 0.500000
v -0.059128 -0.034138 0.500000
v 0.059128 -0.034138 0.500000
v 0.089722 0.051801 0.227593
v 0.059128 0.034138 0.166667
v 0.071851 -0.041483 -0.500000
v 0.000000 -0.082967 -0.500000
v 0.058669 -0.033873 -0.434582
v -0.051080 -0.029491 0.161726
v -0.070797 0.006990 -0.472382
v -0.070797 -0.006990 -0.472382
v -0.129627 0.000000 -0.488230
v 0.000000 0.068276 -0.166667
v 0.051080 0.029491 -0.161726
v 0.059128 0.034138 -0.166667
v 0.070797 0.006990 -0.472382
v 0.060183 0.000000 -0.194285
v 0.129626 0.000000 -0.488230
v 0.000000 -0.058982 0.161726
v -0.030091 0.052120 -0.194285
v -0.029345 0.064807 -0.472382
v -0.064813 0.112260 -0.488230
v -0.051080 0.029491 -0.161726
v 0.000000 0.058982 -0.161726
v 0.051080 -0.029491 0.161726
v 0.030091 0.052120 -0.194285
v 0.041452 0.057817 -0.472382
v 0.064813 0.112260 -0.488230
v -0.059128 -0.034138 -0.166667
v -0.059128 0.034138 -0.166667
v -0.089722 0.051801 0.439073
v -0.089722 -0.051801 0.439073
v 0.000000 -0.068276 0.500000
v 0.000000 -0.103602 0.439073
v 0.089722 -0.051801 0.439073
v 0.059128 0.034138 0.500000
v 0.089722 0.051801 0.439073
v 0.000000 0.068276 0.500000
v 0.000000 0.103602 0.439073
v 0.000000 0.103602 0.227593
v 0.089722 -0.051801 0.227593
v 0.000000 0.067745 -0.434582
v -0.058669 -0.033873 -0.434582
v -0.071851 0.041483 -0.500000
v 0.071851 0.041483 -0.500000
v -0.071851 -0.041483 -0.500000
v 0.000000 0.082967 -0.500000
v -0.041452 0.057817 -0.472382
v -0.060183 0.000000 -0.194285
v 0.000000 -0.068276 -0.166667
v -0.029345 -0.064807 -0.472382
v -0.030091 -0.052120 -0.194285
v -0.041452 -0.057817 -0.472382
v 0.059128 -0.034138 -0.166667
v 0.041452 -0.057817 -0.472382
v 0.030091 -0.052120 -0.194285
v 0.029345 -0.064807 -0.472382
v 0.070797 -0.006990 -0.472382
v 0.029345 0.064807 -0.472382
v -0.064813 -0.112260 -0.488230
v 0.064813 -0.112260 -0.488230
v -0.051080 0.029491 0.161726
v -0.051080 -0.029491 -0.161726
v 0.000000 -0.058982 -0.161726
v 0.051080 -0.029491 -0.161726
v 0.051080 0.029491 0.161726
v 0.000000 0.058982 0.161726
vt 0.500000 0.000000
vt 0.000000 0.500000
vt 0.000000 0.000000
vt 0.000000 0.500000
vt 0.000000 0.000000
vt 0.500000 0.000000
vt 0.000000 0.500000
vt 0.000000 0.000000
vt 0.500000 0.000000
vt 0.000000 0.500000
vt 0.500000 0.000000
vt 0.000000 0.000000
vt 0.500000 0.500000
vt 0.000000 0.500000
vt 0.500000 0.000000
vt 0.000000 0.500000
vt 0.000000 0.000000
vt 0.000000 0.000000
vt 0.500000 0.000000
vt 0.500000 0.500000
vt 0.500000 0.000000
vt 0.000000 0.500000
vt 0.000000 0.000000
vt 0.000000 0.000000
vt 0.500000 0.000000
vt 0.500000 0.500000
vt 0.500000 0.000000
vt 0.000000 0.500000
vt 0.000000 0.000000
vt 0.000000 0.000000
vt 0.500000 0.000000
vt 0.500000 0.500000
vt 0.000000 0.000000
vt 0.500000 0.500000
vt 0.000000 0.500000
vt 0.500000 0.000000
vt 0.000000 0.500000
vt 0.000000 0.000000
vt 0.000000 0.000000
vt 0.500000 0.000000
vt 0.500000 0.500000
vt 0.500000 0.000000
vt 0.000000 0.000000
vt 0.500000 0.000000
vt 0.000000 0.500000
vt 0.000000 0.000000
vt 0.500000 0.000000
vt 0.000000 0.500000
vt 0.000000 0.000000
vt 0.000000 0.000000
vt 0.500000 0.500000
vt 0.000000 0.500000
vt 0.000000 0.000000
vt 0.500000 0.500000
vt 0.000000 0.500000
vt 0.500000 0.000000
vt 0.000000 0.000000
vt 0.500000 0.000000
vt 0.000000 0.500000
vt 0.000000 0.000000
vt 0.000000 0.000000
vt 0.500000 0.500000
vt 0.000000 0.500000
vt 0.000000 0.000000
vt 0.000000 0.000000
vt 0.000000 0.500000
vt 0.000000 0.000000
vt 0.000000 0.000000
vt 0.500000 0.500000
vt 0.000000 0.500000
vt 0.000000 0.000000
vt 0.500000 0.500000
vt 0.000000 0.000000
vt 0.500000 0.000000
vt 0.500000 0.500000
vt 0.000000 0.000000
vt 0.500000 0.500000
vt 0.000000 0.500000
vt 0.500000 0.000000
vt 0.000000 0.500000
vt 0.000000 0.000000
vt 0.000000 0.000000
vt 0.500000 0.000000
vt 0.500000 0.500000
vt 0.000000 0.000000
vt 0.500000 0.000000
vt 0.500000 0.500000
vt 0.500000 0.000000
vt 0.500000 0.500000
vt 0.000000 0.000000
vt 0.500000 0.500000
vt 0.500000 0.500000
vt 0.500000 0.500000
vt 0.500000 0.000000
vt 0.500000 0.500000
vt 0.500000 0.000000
vt 0.500000 0.500000
vt 0.500000 0.000000
vt 0.500000 0.500000
vt 0.500000 0.000000
vt 0.000000 0.000000
vt 0.500000 0.000000
vt 0.500000 0.500000
vt 0.500000 0.000000
vt 0.500000 0.500000
vt 0.500000 0.000000
vt 0.000000 0.000000
vt 0.000000 0.000000
vt 0.500000 0.000000
vt 0.500000 0.500000
vt 0.500000 0.000000
vt 0.500000 0.500000
vt 0.500000 0.000000
vt 0.000000 0.000000
vt 0.500000 0.000000
vt 0.500000 0.000000
vt 0.500000 0.500000
vt 0.000000 0.000000
vt 0.500000 0.500000
vt 0.000000 0.000000
vt 0.500000 0.500000
vt 0.000000 0.000000
vt 0.500000 0.000000
vt 0.000000 0.000000
vt 0.000000 0.000000
vt 0.000000 0.000000
vt 0.000000 0.000000
vt 0.500000 0.000000
vt 0.000000 0.000000
vt 0.000000 0.000000
vt 0.500000 0.000000
vt 0.000000 0.000000
vt 0.000000 0.000000
vt 0.500000 0.000000
vt 0.000000 0.000000
vt 0.000000 0.000000
vt 0.000000 0.000000
vt 0.500000 0.000000
vt 0.000000 0.000000
vt 0.500000 0.000000
vt 0.000000 0.000000
vt 0.000000 0.000000
vt 0.000000 0.500000
vt 0.500000 0.000000
vt 0.000000 0.500000
vt 0.000000 0.000000
vt 0.500000 0.000000
vt 0.000000 0.000000
vt 0.000000 0.500000
vt 0.500000 0.000000
vt 0.000000 0.500000
vt 0.000000 0.000000
vt 0.500000 0.500000
vt 0.000000 0.500000
vt 0.500000 0.000000
vt 0.000000 0.500000
vt 0.000000 0.500000
vt 0.500000 0.500000
vt 0.500000 0.000000
vt 0.500000 0.500000
vt 0.500000 0.000000
vt 0.500000 0.000000
vt 0.500000 0.500000
vt 0.500000 0.500000
vt 0.500000 0.500000
vt 0.500000 0.500000
vt 0.500000 0.500000
vt 0.500000 0.500000
vt 0.500000 0.000000
vt 0.500000 0.500000
vt 0.500000 0.500000
vt 0.500000 0.000000
vt 0.500000 0.500000
vt 0.500000 0.500000
vt 0.500000 0.500000
vt 0.000000 0.500000
vt 0.000000 0.000000
vt 0.500000 0.500000
vt 0.500000 0.500000
vt 0.500000 0.500000
vt 0.500000 0.500000
vt 0.500000 0.500000
vt 0.500000 0.500000
vt 0.500000 0.500000
vt 0.500000 0.000000
vt 0.500000 0.500000
vt 0.500000 0.500000
vt 0.500000 0.500000
vt 0.500000 0.500000
vt 0.500000 0.000000
vt 0.500000 0.500000
vt 0.500000 0.500000
vt 0.500000 0.000000
vt 0.500000 0.500000
vt 0.500000 0.000000
vt 0.500000 0.500000
vt 0.500000 0.000000
vt 0.500000 0.500000
vt 0.500000 0.500000
vt 0.500000 0.000000
vt 0.500000 0.500000
vt 0.500000 0.000000
vt 0.500000 0.500000
vt 0.500000 0.500000
vn 0.4888 0.8467 -0.2103
vn 0.4468 0.7739 -0.4487
vn -0.4888 0.8467 -0.2103
vn -0.4468 0.7739 -0.4487
vn 0.0000 0.0000 1.0000
vn 0.4468 0.7739 0.4487
vn 0.4888 0.8467 0.2103
vn -0.2616 0.4531 -0.8522
vn -0.4888 -0.8467 -0.2103
vn -0.4468 -0.7739 -0.4487
vn -0.5232 0.0000 0.8522
vn 0.2601 0.0000 -0.9656
vn -0.2616 -0.4531 -0.8522
vn 0.1258 0.9916 0.0297
vn -0.2616 0.4531 0.8522
vn 0.7958 0.6048 0.0297
vn 0.2616 0.4531 -0.8522
vn -0.2616 -0.4531 0.8522
vn 0.9217 -0.3868 0.0297
vn 0.5232 0.0000 -0.8522
vn -0.9776 0.0000 -0.2103
vn -0.8937 0.0000 -0.4488
vn 0.8937 0.0000 0.4487
vn 0.9776 0.0000 0.2103
vn 0.4468 -0.7739 0.4487
vn 0.4888 -0.8467 0.2103
vn -0.4468 0.7739 0.4487
vn -0.4888 0.8467 0.2103
vn 0.9776 0.0000 -0.2103
vn 0.8937 0.0000 -0.4487
vn -0.4468 -0.7739 0.4487
vn -0.4888 -0.8467 0.2103
vn 0.4888 -0.8467 -0.2103
vn 0.5000 -0.8660 -0.0000
vn 0.5000 0.8660 0.0000
vn -0.8937 0.0000 0.4487
vn -0.9776 0.0000 0.2103
vn 0.4468 -0.7739 -0.4487
vn 0.0000 0.0000 -1.0000
vn -0.4902 0.8490 -0.1975
vn 0.9803 0.0000 -0.1975
vn -0.4902 -0.8490 -0.1975
vn -0.4996 0.8654 0.0381
vn -0.9993 -0.0000 0.0382
vn -0.9993 -0.0000 0.0381
vn -0.4996 -0.8654 0.0381
vn 0.4996 -0.8654 0.0381
vn 0.9993 0.0000 0.0382
vn 0.9993 0.0000 0.0381
vn 0.4996 0.8654 0.0381
vn -0.9217 0.3868 0.0297
vn -0.1301 0.2253 -0.9656
vn -0.1258 -0.9916 0.0297
vn 0.1258 -0.9916 0.0297
vn -0.1301 -0.2253 -0.9656
vn 0.1301 -0.2253 -0.9656
vn 0.9217 0.3868 0.0297
vn -0.1258 0.9916 0.0297
vn -0.7958 0.6048 0.0297
vn 0.1301 0.2253 -0.9656
vn -0.9217 -0.3868 0.0297
vn -0.7958 -0.6048 0.0297
vn -0.2601 0.0000 -0.9656
vn 0.7958 -0.6048 0.0297
vn 1.0000 0.0000 0.0000
vn -0.5000 -0.8660 -0.0000
vn -1.0000 0.0000 0.0000
vn -0.6927 -0.3999 -0.6002
vn 0.2616 -0.4531 -0.8522
vn -0.5232 0.0000 -0.8522
vn 0.2616 -0.4531 0.8522
vn 0.2616 0.4531 0.8522
vn 0.5232 0.0000 0.8522
vn 0.4902 -0.8490 -0.1975
vn 0.4902 0.8490 -0.1975
vn -0.5000 0.8660 0.0000
vn -0.8937 0.0000 -0.4487
vn 0.8937 0.0000 -0.4488
vn 0.0000 0.7998 -0.6002
vn 0.6927 -0.3999 -0.6002
vn -0.9803 0.0000 -0.1975
s 1
f 48/1/1 13/2/2 2/3/2
f 48/1/3 3/4/4 1/5/3
f 9/6/5 11/7/5 46/8/5
f 44/9/6 47/10/7 46/8/6
f 75/11/8 3/4/8 2/3/8
f 5/12/9 7/13/10 6/14/10
f 71/15/11 38/16/11 37/17/11
f 18/18/12 19/19/12 20/20/12
f 7/21/13 27/22/13 6/23/13
f 24/24/14 25/25/14 26/26/14
f 38/27/15 32/28/15 21/29/15
f 28/30/16 29/31/16 30/32/16
f 13/33/17 75/34/17 2/35/17
f 72/36/18 37/37/18 58/38/18
f 34/39/19 35/40/19 36/41/19
f 33/42/20 13/2/20 4/43/20
f 1/44/21 7/45/22 8/46/21
f 11/47/23 45/48/24 44/49/23
f 11/50/25 42/51/26 43/52/26
f 9/53/27 47/54/28 39/55/28
f 49/56/29 13/2/30 12/57/29
f 10/58/31 42/59/32 41/60/31
f 42/61/26 49/62/33 43/52/26
f 33/42/34 72/63/34 73/64/34
f 49/56/29 45/48/24 43/65/24
f 75/11/35 22/66/35 32/67/35
f 45/68/7 48/69/1 47/10/7
f 9/6/36 40/70/37 10/71/36
f 4/43/38 5/72/33 6/14/38
f 50/73/39 16/74/39 51/75/39
f 15/76/40 16/77/40 14/78/40
f 52/79/41 51/80/41 54/81/41
f 55/82/42 53/83/42 50/84/42
f 38/85/43 56/86/43 52/87/43
f 38/85/43 21/88/43 28/89/43
f 21/29/43 29/31/43 28/89/43
f 52/90/43 29/31/43 55/91/43
f 37/17/44 19/19/45 54/92/45
f 37/17/44 38/27/44 57/93/45
f 38/85/44 18/94/45 57/93/45
f 52/90/45 19/19/45 18/95/45
f 58/38/46 59/96/46 15/97/46
f 58/38/46 37/98/46 60/99/46
f 37/17/46 61/100/46 60/99/46
f 15/76/46 61/100/46 54/92/46
f 62/101/47 63/102/47 14/103/47
f 62/101/47 58/104/47 64/105/47
f 58/38/47 65/106/47 64/105/47
f 14/107/47 65/106/47 15/97/47
f 23/108/48 24/109/49 53/110/49
f 23/108/48 62/111/48 25/112/49
f 62/101/48 66/113/49 25/112/49
f 53/114/49 66/113/49 14/103/49
f 21/29/50 67/115/50 55/91/50
f 21/29/50 23/116/50 34/117/50
f 23/108/50 35/40/50 34/117/50
f 55/82/50 35/40/50 53/110/50
f 60/118/51 61/100/51 68/119/51
f 65/120/52 63/102/52 69/121/52
f 19/122/53 57/123/53 20/20/53
f 25/124/54 66/113/54 26/26/54
f 35/125/55 67/115/55 36/41/55
f 29/126/56 56/86/56 30/32/56
f 63/127/57 64/128/57 69/121/57
f 57/129/58 18/94/58 20/20/58
f 67/130/59 34/131/59 36/41/59
f 61/132/60 59/96/60 68/119/60
f 56/133/61 28/134/61 30/32/61
f 64/135/62 65/106/62 69/121/62
f 66/136/63 24/109/63 26/26/63
f 59/137/64 60/138/64 68/119/64
f 33/42/65 22/66/65 74/139/65
f 17/140/66 72/63/66 27/141/66
f 1/44/21 40/70/37 39/142/37
f 39/142/28 48/69/3 1/143/3
f 70/144/67 71/145/67 17/146/67
f 8/147/9 42/59/32 40/148/32
f 53/114/68 16/77/68 50/149/68
f 27/150/69 4/151/69 6/23/69
f 70/144/70 7/45/70 3/152/70
f 62/101/71 72/153/71 58/154/71
f 32/155/72 23/156/72 21/29/72
f 23/116/73 73/157/73 62/101/73
f 11/50/5 44/9/5 46/158/5
f 10/71/5 41/159/5 11/160/5
f 52/90/74 55/161/74 50/84/74
f 15/76/75 54/162/75 51/75/75
f 38/85/43 28/134/43 56/163/43
f 21/29/43 55/161/43 29/164/43
f 52/90/43 56/86/43 29/164/43
f 37/17/44 57/123/45 19/165/45
f 38/85/44 52/79/45 18/95/45
f 52/90/45 54/162/45 19/165/45
f 58/38/46 60/138/46 59/166/46
f 37/17/46 54/162/46 61/167/46
f 15/76/46 59/96/46 61/167/46
f 62/101/47 64/128/47 63/168/47
f 58/38/47 15/169/47 65/170/47
f 14/107/47 63/102/47 65/170/47
f 23/108/48 25/25/49 24/171/49
f 62/101/48 14/172/49 66/173/49
f 53/114/49 24/109/49 66/173/49
f 21/29/50 34/131/50 67/174/50
f 23/108/50 53/83/50 35/175/50
f 55/82/50 67/115/50 35/175/50
f 75/11/76 31/176/76 70/177/76
f 48/1/1 12/178/1 13/2/2
f 48/1/3 2/179/4 3/4/4
f 9/6/5 10/180/5 11/7/5
f 44/9/6 45/181/7 47/10/7
f 75/11/8 70/182/8 3/4/8
f 5/12/9 8/147/9 7/13/10
f 71/15/11 31/183/11 38/16/11
f 7/21/13 17/184/13 27/22/13
f 38/27/15 31/183/15 32/28/15
f 13/33/17 74/185/17 75/34/17
f 72/36/18 71/186/18 37/37/18
f 33/42/20 74/187/20 13/2/20
f 1/44/21 3/188/77 7/45/22
f 11/47/23 43/189/24 45/48/24
f 11/50/25 41/159/25 42/51/26
f 9/53/27 46/190/27 47/54/28
f 49/56/29 4/191/78 13/2/30
f 10/58/31 40/192/32 42/59/32
f 42/61/26 5/193/33 49/62/33
f 33/42/34 27/194/34 72/63/34
f 49/56/29 12/178/29 45/48/24
f 75/11/35 74/187/35 22/66/35
f 45/68/7 12/195/1 48/69/1
f 9/6/36 39/196/37 40/70/37
f 4/43/38 49/56/33 5/72/33
f 15/76/79 51/197/79 16/77/79
f 52/79/80 50/84/80 51/80/80
f 33/42/65 73/198/65 22/66/65
f 17/140/66 71/186/66 72/63/66
f 1/44/21 8/199/21 40/70/37
f 39/142/28 47/200/28 48/69/3
f 70/144/67 31/183/67 71/145/67
f 8/147/9 5/72/9 42/59/32
f 53/114/81 14/172/81 16/77/81
f 27/150/69 33/201/69 4/151/69
f 70/144/70 17/184/70 7/45/70
f 62/101/71 73/202/71 72/153/71
f 32/155/72 22/203/72 23/156/72
f 23/116/73 22/203/73 73/157/73
f 75/11/76 32/204/76 31/176/76
