# Blender v2.79 (sub 0) OBJ File: 'cluster.blend'
# www.blender.org
o Icosphere_Icosphere.001
v 0.000000 -0.500000 0.000000
v 0.361800 -0.223607 0.262861
v -0.138193 -0.223607 0.425321
v -0.447213 -0.223607 0.000000
v -0.138193 -0.223607 -0.425321
v 0.361800 -0.223607 -0.262861
v 0.138193 0.223607 0.425321
v -0.361800 0.223607 0.262861
v -0.361800 0.223607 -0.262861
v 0.138193 0.223607 -0.425321
v 0.447213 0.223607 0.000000
v 0.000000 0.500000 0.000000
vt 0.000000 0.000000
vt 0.500000 0.000000
vt 0.500000 0.500000
vt 0.000000 0.000000
vt 0.500000 0.000000
vt 0.500000 0.500000
vt 0.000000 0.000000
vt 0.500000 0.500000
vt 0.000000 0.000000
vt 0.500000 0.500000
vt 0.500000 0.500000
vt 0.000000 0.000000
vt 0.500000 0.500000
vt 0.000000 0.000000
vt 0.500000 0.000000
vt 0.000000 0.000000
vt 0.500000 0.000000
vt 0.000000 0.000000
vt 0.500000 0.000000
vt 0.000000 0.000000
vt 0.500000 0.000000
vt 0.500000 0.500000
vt 0.500000 0.500000
vt 0.500000 0.000000
vt 0.500000 0.500000
vt 0.500000 0.500000
vt 0.000000 0.000000
vt 0.500000 0.000000
vt 0.500000 0.000000
vt 0.500000 0.500000
vt 0.500000 0.000000
vt 0.500000 0.000000
vn 0.1876 -0.7947 0.5774
vn 0.6071 -0.7947 0.0000
vn -0.4911 -0.7947 0.3568
vn -0.4911 -0.7947 -0.3568
vn 0.1876 -0.7947 -0.5774
vn 0.9822 -0.1876 0.0000
vn 0.3035 -0.1876 0.9342
vn -0.7946 -0.1876 0.5774
vn -0.7946 -0.1876 -0.5774
vn 0.3035 -0.1876 -0.9342
vn 0.7946 0.1876 0.5774
vn -0.3035 0.1876 0.9342
vn -0.9822 0.1876 0.0000
vn -0.3035 0.1876 -0.9342
vn 0.7946 0.1876 -0.5774
vn 0.4911 0.7947 0.3568
vn -0.1876 0.7947 0.5774
vn -0.6071 0.7947 0.0000
vn -0.1876 0.7947 -0.5774
vn 0.4911 0.7947 -0.3568
s 1
f 3/1/1 1/2/1 2/3/1
f 6/4/2 2/5/2 1/6/2
f 4/7/3 1/2/3 3/8/3
f 5/9/4 1/2/4 4/10/4
f 6/4/5 1/2/5 5/11/5
f 11/12/6 2/5/6 6/13/6
f 7/14/7 3/15/7 2/3/7
f 8/16/8 4/17/8 3/8/8
f 9/18/9 5/19/9 4/10/9
f 10/20/10 6/21/10 5/11/10
f 7/14/11 2/5/11 11/22/11
f 8/16/12 3/15/12 7/23/12
f 8/16/13 9/24/13 4/10/13
f 10/20/14 5/19/14 9/25/14
f 11/12/15 6/21/15 10/26/15
f 12/27/16 7/28/16 11/22/16
f 12/27/17 8/29/17 7/23/17
f 12/27/18 9/24/18 8/30/18
f 12/27/19 10/31/19 9/25/19
f 12/27/20 11/32/20 10/26/20
