# Blender v2.79 (sub 0) OBJ File: 'laserC0.blend'
# www.blender.org
o Cylinder.003
v -0.035356 -0.035356 0.500000
v 0.000000 -0.048208 -0.500000
v 0.000000 -0.050000 0.500000
v -0.048209 0.000000 -0.500000
v -0.050000 -0.000000 0.500000
v 0.000000 0.048209 -0.500000
v -0.035356 0.035355 0.500000
v 0.000000 0.050000 0.500000
v 0.035356 -0.035356 0.500000
v 0.035356 0.035355 0.500000
v 0.048209 0.000000 -0.500000
v 0.050000 -0.000000 0.500000
vt 0.146445 1.000000
vt 0.500000 0.000000
vt 0.500000 1.000000
vt 0.017915 0.000000
vt 0.000000 1.000000
vt 0.853554 1.000000
vt 0.853554 1.000000
vt 0.500000 0.000000
vt 0.500000 1.000000
vt 0.146445 1.000000
vt 0.982085 0.000000
vt 1.000000 1.000000
vn -0.7071 -0.7071 -0.0021
vn -0.7004 -0.7136 -0.0156
vn -0.3827 -0.9239 -0.0017
vn -0.7136 -0.7004 -0.0156
vn -0.9239 -0.3827 -0.0017
vn 0.7004 -0.7136 -0.0156
vn 0.7071 -0.7071 -0.0021
vn 0.3827 -0.9239 -0.0017
vn 0.7071 0.7071 -0.0021
vn 0.7004 0.7136 -0.0156
vn 0.3827 0.9239 -0.0017
vn -0.7071 0.7071 -0.0021
vn -0.7136 0.7004 -0.0156
vn -0.9239 0.3827 -0.0017
vn 0.7136 -0.7004 -0.0156
vn -0.7004 0.7136 -0.0156
vn -0.3827 0.9239 -0.0017
vn 0.7136 0.7004 -0.0156
vn 0.9239 0.3827 -0.0017
vn 0.9239 -0.3827 -0.0017
s 1
f 1/1/1 2/2/2 3/3/3
f 4/4/4 1/1/1 5/5/5
f 2/2/6 9/6/7 3/3/8
f 10/7/9 6/8/10 8/9/11
f 7/10/12 4/4/13 5/5/14
f 11/11/15 9/6/7 2/2/6
f 6/8/16 7/10/12 8/9/17
f 11/11/18 10/7/9 12/12/19
f 4/4/4 2/2/2 1/1/1
f 11/11/15 12/12/20 9/6/7
f 6/8/16 4/4/13 7/10/12
f 11/11/18 6/8/10 10/7/9
