# Blender v2.79 (sub 0) OBJ File: 'rocket3.blend'
# www.blender.org
o Cylinder.008
v 0.000000 0.031908 0.342367
v 0.000000 -0.000000 0.500000
v 0.027633 0.015954 0.342367
v 0.027633 -0.015954 0.342367
v 0.000000 -0.031908 0.342367
v -0.027633 -0.015954 0.342367
v -0.027633 0.015954 0.342367
v -0.037231 0.021495 -0.500000
v 0.000000 0.034271 -0.433926
v -0.029679 -0.017135 -0.433926
v -0.044125 0.025475 0.141868
v 0.000000 0.053147 -0.358139
v -0.046026 0.026573 -0.358139
v 0.000000 -0.050951 0.141868
v -0.046026 -0.026573 -0.358139
v 0.000000 -0.053147 -0.358139
v 0.046026 -0.026573 -0.358139
v -0.044202 -0.000000 0.121596
v -0.045949 0.006256 -0.337867
v -0.133504 0.000000 -0.375706
v 0.000000 0.050951 0.141868
v 0.046026 0.026573 -0.358139
v -0.044125 -0.025475 0.141868
v 0.044125 -0.025475 0.141868
v 0.044125 0.025475 0.141868
v 0.000000 0.042991 -0.500000
v 0.037231 0.021495 -0.500000
v 0.037231 -0.021495 -0.500000
v 0.000000 -0.042991 -0.500000
v -0.037231 -0.021495 -0.500000
v 0.044202 -0.000000 0.121596
v 0.045949 0.006256 -0.337867
v 0.045949 -0.006256 -0.337867
v -0.045949 -0.006256 -0.337867
v 0.133504 0.000000 -0.375706
v 0.029679 -0.017135 -0.433926
vt 0.000000 0.000000
vt 0.500000 0.000000
vt 0.500000 0.500000
vt 0.000000 0.000000
vt 0.500000 0.500000
vt 0.000000 0.000000
vt 0.500000 0.500000
vt 0.000000 0.000000
vt 0.500000 0.500000
vt 0.000000 0.000000
vt 0.500000 0.500000
vt 0.000000 0.000000
vt 0.500000 0.500000
vt 0.500000 0.000000
vt 0.000000 0.500000
vt 0.000000 0.000000
vt 0.000000 0.000000
vt 0.500000 0.500000
vt 0.000000 0.500000
vt 0.000000 0.000000
vt 0.500000 0.500000
vt 0.000000 0.500000
vt 0.500000 0.000000
vt 0.000000 0.500000
vt 0.000000 0.000000
vt 0.000000 0.000000
vt 0.500000 0.000000
vt 0.500000 0.500000
vt 0.500000 0.000000
vt 0.000000 0.000000
vt 0.000000 0.000000
vt 0.500000 0.500000
vt 0.000000 0.500000
vt 0.500000 0.500000
vt 0.000000 0.500000
vt 0.500000 0.000000
vt 0.000000 0.500000
vt 0.500000 0.000000
vt 0.000000 0.500000
vt 0.500000 0.000000
vt 0.000000 0.000000
vt 0.500000 0.500000
vt 0.000000 0.500000
vt 0.500000 0.000000
vt 0.000000 0.000000
vt 0.500000 0.000000
vt 0.000000 0.500000
vt 0.500000 0.000000
vt 0.000000 0.500000
vt 0.000000 0.500000
vt 0.000000 0.000000
vt 0.000000 0.500000
vt 0.000000 0.000000
vt 0.500000 0.500000
vt 0.000000 0.000000
vt 0.500000 0.000000
vt 0.000000 0.000000
vt 0.500000 0.500000
vt 0.000000 0.000000
vt 0.500000 0.000000
vt 0.500000 0.500000
vt 0.000000 0.000000
vt 0.500000 0.500000
vt 0.000000 0.000000
vt 0.500000 0.000000
vt 0.500000 0.500000
vt 0.500000 0.000000
vt 0.500000 0.500000
vt 0.500000 0.500000
vt 0.500000 0.000000
vt 0.500000 0.500000
vt 0.500000 0.000000
vt 0.500000 0.000000
vt 0.500000 0.000000
vt 0.500000 0.000000
vt 0.000000 0.000000
vt 0.500000 0.000000
vt 0.500000 0.500000
vt 0.500000 0.000000
vt 0.000000 0.500000
vt 0.000000 0.000000
vt 0.500000 0.000000
vt 0.500000 0.500000
vt 0.500000 0.500000
vt 0.500000 0.500000
vt 0.000000 0.000000
vt 0.500000 0.000000
vt 0.000000 0.000000
vt 0.500000 0.000000
vt 0.500000 0.500000
vt 0.500000 0.000000
vt 0.000000 0.500000
vt 0.000000 0.000000
vt 0.500000 0.500000
vt 0.500000 0.000000
vt 0.500000 0.000000
vt 0.500000 0.500000
vt 0.500000 0.500000
vt 0.500000 0.500000
vt 0.500000 0.500000
vt 0.500000 0.000000
vn 0.4961 0.8592 0.1253
vn 0.4925 0.8530 0.1727
vn 0.9921 0.0000 0.1253
vn 0.9850 0.0000 0.1727
vn 0.4961 -0.8592 0.1253
vn 0.4925 -0.8530 0.1727
vn -0.4961 -0.8592 0.1253
vn -0.4925 -0.8530 0.1727
vn -0.9921 0.0000 0.1253
vn -0.9850 0.0000 0.1727
vn -0.4961 0.8592 0.1253
vn -0.4925 0.8530 0.1727
vn -0.4968 -0.8604 -0.1136
vn 0.4996 0.8652 0.0423
vn 0.4998 0.8657 -0.0287
vn 0.4998 -0.8657 -0.0287
vn 0.4996 -0.8652 0.0423
vn 0.4991 -0.8644 -0.0619
vn -0.0772 0.9969 0.0139
vn -0.4996 -0.8652 0.0423
vn -0.4998 -0.8657 -0.0287
vn 0.8065 -0.4656 -0.3644
vn 0.9991 0.0000 0.0423
vn -0.4996 0.8652 0.0423
vn -0.4991 -0.8644 -0.0619
vn -0.9991 0.0000 0.0423
vn -0.4998 0.8657 -0.0287
vn -0.4991 0.8644 -0.0619
vn -0.9996 0.0000 -0.0287
vn -0.9981 0.0000 -0.0619
vn 0.9996 -0.0000 -0.0287
vn 0.9981 0.0000 -0.0619
vn 0.4991 0.8644 -0.0619
vn -1.0000 0.0000 0.0038
vn 1.0000 0.0000 0.0038
vn -0.3967 0.0000 -0.9179
vn 0.0772 0.9969 0.0139
vn 0.3967 0.0000 -0.9179
vn 0.0772 -0.9969 0.0139
vn -0.0772 -0.9969 0.0139
vn 0.0000 0.0000 -1.0000
vn -0.4968 0.8604 -0.1136
vn 0.9935 0.0000 -0.1136
vn 0.4968 0.8604 -0.1136
vn -0.9935 0.0000 -0.1136
vn -0.8065 -0.4656 -0.3644
vn 0.4968 -0.8604 -0.1136
vn 0.0000 0.9312 -0.3644
s 1
f 1/1/1 2/2/2 3/3/1
f 3/4/3 2/2/4 4/5/3
f 4/6/5 2/2/6 5/7/5
f 5/8/7 2/2/8 6/9/7
f 6/10/9 2/2/10 7/11/9
f 7/12/11 2/2/12 1/13/11
f 27/14/13 9/15/13 26/16/13
f 21/17/14 22/18/15 12/19/15
f 17/20/16 14/21/17 16/22/16
f 17/23/16 29/24/18 28/25/18
f 18/26/19 19/27/19 20/28/19
f 23/29/20 16/22/21 14/30/20
f 8/31/22 9/32/22 10/33/22
f 3/4/3 24/34/23 25/35/23
f 3/36/1 21/37/14 1/1/1
f 6/38/7 14/39/20 5/8/7
f 4/40/5 14/39/17 24/41/17
f 7/12/11 21/42/24 11/43/24
f 15/44/21 29/24/25 16/45/21
f 7/46/9 23/47/26 6/10/9
f 13/48/27 26/49/28 8/31/28
f 13/48/29 30/50/30 15/51/29
f 17/23/31 27/52/32 22/53/31
f 26/16/33 22/18/15 27/52/33
f 18/26/34 23/29/26 11/54/26
f 31/55/35 25/56/23 24/34/23
f 32/57/35 25/56/23 31/58/35
f 33/59/35 24/60/23 17/61/31
f 34/62/34 23/29/26 18/63/34
f 19/64/34 11/65/26 13/66/29
f 33/59/35 22/67/31 32/68/35
f 19/64/34 15/44/29 34/69/34
f 33/59/36 32/70/36 35/71/36
f 32/57/37 31/72/37 35/71/37
f 19/64/38 34/73/38 20/28/38
f 31/55/39 33/74/39 35/71/39
f 34/62/40 18/75/40 20/28/40
f 9/76/41 36/77/41 10/78/41
f 29/79/42 36/80/42 28/25/42
f 30/81/43 8/82/43 10/78/43
f 32/57/35 22/67/31 25/83/23
f 33/59/35 31/72/35 24/34/23
f 34/62/34 15/44/29 23/84/26
f 19/64/34 18/75/34 11/54/26
f 33/59/35 17/23/31 22/18/31
f 19/64/34 13/48/29 15/85/29
f 29/86/44 30/87/44 10/78/44
f 27/88/45 28/89/45 36/90/45
f 21/91/24 13/92/27 11/93/24
f 27/14/46 36/90/46 9/15/46
f 21/17/14 25/56/14 22/18/15
f 17/20/16 24/60/17 14/21/17
f 17/23/16 16/94/16 29/24/18
f 23/29/20 15/85/21 16/22/21
f 8/31/47 26/95/47 9/32/47
f 3/4/3 4/40/3 24/34/23
f 3/36/1 25/83/14 21/37/14
f 6/38/7 23/84/20 14/39/20
f 4/40/5 5/7/5 14/39/17
f 7/12/11 1/96/11 21/42/24
f 15/44/21 30/97/25 29/24/25
f 7/46/9 11/54/26 23/47/26
f 13/48/27 12/98/27 26/49/28
f 13/48/29 8/99/30 30/50/30
f 17/23/31 28/100/32 27/52/32
f 26/16/33 12/101/15 22/18/15
f 29/79/48 10/78/48 36/80/48
f 21/91/24 12/98/27 13/92/27
