# Blender v2.79 (sub 0) OBJ File: 'rocket0.blend'
# www.blender.org
o Cylinder.006
v -0.036196 -0.020898 0.277703
v 0.000000 -0.041794 -0.377533
v 0.000000 -0.041795 0.277703
v -0.036196 0.020897 0.277703
v 0.000000 0.041795 -0.377533
v -0.036196 0.020898 -0.377533
v -0.036196 -0.020897 -0.377533
v 0.000000 0.041794 0.277703
v 0.036196 0.020898 -0.377533
v -0.029086 -0.016793 0.386041
v 0.036196 -0.020898 0.277703
v 0.036196 -0.020897 -0.377533
v -0.028003 0.016168 -0.500000
v -0.028003 -0.016167 -0.500000
v 0.029086 0.016792 0.386041
v 0.036196 0.020897 0.277703
v 0.029086 -0.016793 0.386041
v -0.029086 0.016792 0.386041
v 0.000000 0.033585 0.386041
v 0.000000 -0.000000 0.500000
v 0.000000 -0.033585 0.386041
v 0.000000 -0.032335 -0.500000
v 0.000000 0.032335 -0.500000
v -0.019532 -0.011277 -0.369992
v 0.028003 -0.016167 -0.500000
v 0.028003 0.016168 -0.500000
v 0.000000 0.022554 -0.369992
v 0.019532 -0.011277 -0.369992
v 0.105434 0.000382 -0.375210
v 0.035723 0.000382 -0.375210
v 0.035723 0.000382 -0.176027
v 0.105434 0.000000 -0.375210
v 0.035723 0.000000 -0.176027
v 0.035723 0.000000 -0.375210
v -0.105434 -0.000381 -0.375210
v -0.035723 -0.000381 -0.375210
v -0.035723 -0.000381 -0.176027
v -0.105434 0.000000 -0.375210
v -0.035723 0.000000 -0.176027
v -0.035723 0.000000 -0.375210
v 0.105434 0.000382 -0.416521
v 0.105434 0.000000 -0.416521
v -0.105434 -0.000381 -0.416521
v -0.105434 0.000000 -0.416521
vt 0.500000 0.000000
vt 0.000000 0.500000
vt 0.000000 0.000000
vt 0.500000 0.000000
vt 0.000000 0.500000
vt 0.000000 0.000000
vt 0.000000 0.000000
vt 0.500000 0.500000
vt 0.000000 0.500000
vt 0.500000 0.000000
vt 0.000000 0.500000
vt 0.000000 0.000000
vt 0.500000 0.500000
vt 0.000000 0.500000
vt 0.500000 0.000000
vt 0.000000 0.500000
vt 0.000000 0.000000
vt 0.000000 0.000000
vt 0.500000 0.500000
vt 0.000000 0.500000
vt 0.000000 0.000000
vt 0.000000 0.500000
vt 0.500000 0.000000
vt 0.000000 0.000000
vt 0.500000 0.500000
vt 0.000000 0.000000
vt 0.500000 0.500000
vt 0.000000 0.000000
vt 0.500000 0.500000
vt 0.500000 0.000000
vt 0.500000 0.000000
vt 0.500000 0.500000
vt 0.500000 0.000000
vt 0.500000 0.500000
vt 0.500000 0.000000
vt 0.000000 0.000000
vt 0.500000 0.500000
vt 0.500000 0.500000
vt 0.000000 0.500000
vt 0.000000 0.000000
vt 0.500000 0.500000
vt 0.000000 0.000000
vt 0.500000 0.500000
vt 0.000000 0.500000
vt 0.000000 0.000000
vt 0.500000 0.500000
vt 0.000000 0.500000
vt 0.000000 0.000000
vt 0.000000 0.000000
vt 0.500000 0.500000
vt 0.000000 0.000000
vt 0.500000 0.000000
vt 0.500000 0.500000
vt 0.000000 0.000000
vt 0.500000 0.000000
vt 0.500000 0.500000
vt 0.000000 0.000000
vt 0.500000 0.500000
vt 0.000000 0.000000
vt 0.500000 0.000000
vt 0.500000 0.500000
vt 0.000000 0.000000
vt 0.500000 0.000000
vt 0.500000 0.500000
vt 0.000000 0.000000
vt 0.500000 0.000000
vt 0.500000 0.500000
vt 0.000000 0.000000
vt 0.500000 0.000000
vt 0.500000 0.500000
vt 0.500000 0.000000
vt 0.500000 0.000000
vt 0.500000 0.500000
vt 0.500000 0.000000
vt 0.500000 0.500000
vt 0.500000 0.000000
vt 0.500000 0.500000
vt 0.500000 0.000000
vt 0.500000 0.500000
vt 0.500000 0.000000
vt 0.000000 0.500000
vt 0.500000 0.500000
vt 0.500000 0.000000
vt 0.500000 0.000000
vt 0.500000 0.500000
vt 0.500000 0.000000
vt 0.500000 0.000000
vt 0.500000 0.500000
vt 0.500000 0.000000
vt 0.500000 0.000000
vn 0.9995 0.0000 -0.0330
vn 0.9995 0.0000 0.0324
vn -0.9995 0.0000 -0.0330
vn -0.9995 0.0000 0.0324
vn 0.4997 0.8656 0.0324
vn 0.4997 0.8656 -0.0330
vn -0.4997 -0.8656 -0.0330
vn -0.4997 -0.8656 0.0324
vn -0.4997 0.8656 0.0324
vn -0.4942 0.8560 0.1517
vn 0.9884 0.0000 0.1517
vn -0.4989 0.8641 -0.0667
vn -0.4997 0.8656 -0.0330
vn 0.9978 0.0000 -0.0667
vn -0.9884 0.0000 0.1517
vn 0.4942 0.8560 0.1517
vn -0.4942 -0.8560 0.1517
vn 0.4845 0.8391 0.2473
vn 0.9689 0.0000 0.2473
vn 0.4845 -0.8391 0.2473
vn 0.4942 -0.8560 0.1517
vn -0.4845 -0.8391 0.2473
vn -0.9689 0.0000 0.2473
vn -0.4845 0.8391 0.2473
vn 0.4997 -0.8656 0.0324
vn 0.4989 -0.8641 -0.0667
vn 0.4997 -0.8656 -0.0330
vn 0.4989 0.8641 -0.0667
vn 0.4989 0.8642 -0.0650
vn -0.8549 -0.4936 -0.1599
vn -0.9978 0.0000 -0.0667
vn -0.4989 -0.8641 -0.0667
vn 0.0000 0.0000 -1.0000
vn 0.9979 0.0000 -0.0650
vn -0.4989 -0.8642 -0.0650
vn -0.4989 0.8642 -0.0650
vn 0.0000 1.0000 0.0000
vn 0.0000 -1.0000 -0.0000
vn 0.4989 -0.8642 -0.0650
vn 0.0000 0.9871 -0.1599
vn -0.9979 0.0000 -0.0650
vn 0.8549 -0.4936 -0.1599
s 1
f 12/1/1 16/2/2 11/3/2
f 6/4/3 1/5/4 4/6/4
f 8/7/5 9/8/6 5/9/6
f 7/10/7 3/11/8 1/12/8
f 8/7/9 18/13/10 19/14/10
f 15/15/11 11/16/2 16/17/2
f 13/18/12 5/19/13 23/20/12
f 25/21/14 9/8/1 12/22/1
f 18/23/15 1/5/4 10/24/15
f 8/7/5 15/25/16 16/2/5
f 3/26/8 10/27/17 1/5/8
f 20/28/18 15/15/16 19/29/16
f 20/28/19 17/30/11 15/25/11
f 20/28/20 21/31/21 17/32/21
f 20/28/22 10/33/17 21/34/17
f 20/28/23 18/23/15 10/27/15
f 20/28/24 19/35/10 18/13/10
f 17/36/21 3/37/25 11/16/25
f 25/21/26 2/38/27 22/39/26
f 5/40/6 26/41/28 23/20/28
f 24/42/29 22/43/29 14/44/29
f 26/45/30 28/46/30 27/47/30
f 6/4/3 14/44/31 7/48/3
f 2/49/7 14/50/32 22/39/32
f 27/51/33 28/52/33 24/53/33
f 13/18/34 24/53/34 14/44/34
f 23/54/35 26/55/35 27/56/35
f 22/57/36 28/52/36 25/58/36
f 29/59/37 30/60/37 31/61/37
f 32/62/38 33/63/38 34/64/38
f 35/65/38 36/66/38 37/67/38
f 38/68/37 39/69/37 40/70/37
f 13/18/39 23/71/39 27/56/39
f 29/59/37 41/72/37 30/73/37
f 32/62/38 34/74/38 42/75/38
f 35/65/38 43/76/38 36/77/38
f 38/68/37 40/78/37 44/79/37
f 3/80/25 12/22/27 11/3/25
f 4/6/9 5/19/13 6/81/13
f 12/1/1 9/8/1 16/2/2
f 6/4/3 7/82/3 1/5/4
f 8/7/5 16/83/5 9/8/6
f 7/10/7 2/38/7 3/11/8
f 8/7/9 4/84/9 18/13/10
f 15/15/11 17/32/11 11/16/2
f 13/18/12 6/4/13 5/19/13
f 25/21/14 26/55/14 9/8/1
f 18/23/15 4/85/4 1/5/4
f 8/7/5 19/35/16 15/25/16
f 3/26/8 21/31/17 10/27/17
f 17/36/21 21/31/21 3/37/25
f 25/21/26 12/1/27 2/38/27
f 5/40/6 9/86/6 26/41/28
f 24/42/40 28/52/40 22/43/40
f 26/45/41 25/87/41 28/46/41
f 6/4/3 13/88/31 14/44/31
f 2/49/7 7/10/7 14/50/32
f 13/18/42 27/89/42 24/53/42
f 3/80/25 2/38/27 12/22/27
f 4/6/9 8/90/9 5/19/13
