# Blender v2.79 (sub 0) OBJ File: 'DEBRIS.blend'
# www.blender.org
o 5_Plane.005
v -0.186846 0.245726 0.350878
v -0.089010 0.161942 0.393071
v -0.301263 0.192121 0.022850
v -0.293016 0.260807 0.168123
v 0.248200 0.079066 0.521291
v 0.390017 0.015305 0.292201
v 0.072839 0.017492 -0.444008
v -0.237805 0.178341 -0.333447
v 0.412348 0.079096 0.289344
v 0.261514 0.127986 0.519956
v -0.224561 0.196809 -0.335705
v 0.110677 0.072743 -0.451317
v 0.357879 -0.089750 -0.268978
vt 0.000000 0.000000
vt 0.500000 0.500000
vt 0.000000 0.500000
vt 0.000000 0.000000
vt 0.500000 0.500000
vt 0.000000 0.500000
vt 0.000000 0.000000
vt 0.500000 0.500000
vt 0.000000 0.500000
vt 0.500000 0.000000
vt 0.000000 0.500000
vt 0.000000 0.000000
vt 0.500000 0.000000
vt 0.000000 0.500000
vt 0.000000 0.000000
vt 0.500000 0.000000
vt 0.000000 0.500000
vt 0.000000 0.000000
vt 0.000000 0.000000
vt 0.500000 0.500000
vt 0.000000 0.500000
vt 0.500000 0.000000
vt 0.500000 0.500000
vt 0.500000 0.000000
vt 0.000000 0.000000
vt 0.000000 0.000000
vt 0.500000 0.000000
vt 0.500000 0.500000
vt 0.000000 0.500000
vt 0.000000 0.000000
vt 0.500000 0.500000
vt 0.500000 0.000000
vt 0.500000 0.000000
vt 0.500000 0.500000
vt 0.500000 0.500000
vt 0.500000 0.000000
vt 0.500000 0.500000
vt 0.500000 0.000000
vn -0.8163 0.5528 -0.1674
vn -0.8587 0.4809 -0.1774
vn -0.8597 0.4789 -0.1776
vn -0.6881 -0.6395 0.3430
vn -0.6902 -0.6352 0.3467
vn -0.6918 -0.6317 0.3498
vn -0.2371 -0.9711 0.0266
vn -0.3252 -0.9396 0.1066
vn -0.2896 -0.9556 0.0537
vn -0.2918 0.0910 -0.9521
vn -0.2985 0.0793 -0.9511
vn -0.2911 0.0923 -0.9522
vn 0.7982 -0.2094 0.5648
vn 0.7913 -0.2457 0.5599
vn 0.7994 -0.2021 0.5657
vn -0.3504 -0.9307 0.1045
vn 0.3179 0.9425 -0.1037
vn 0.2868 0.9522 -0.1051
vn 0.2517 0.9656 -0.0655
vn 0.9439 -0.3301 0.0077
vn -0.3316 0.0872 0.9394
vn -0.3286 0.1121 0.9378
vn -0.3318 0.0857 0.9395
vn -0.4164 -0.8918 0.1768
vn -0.4455 -0.8750 0.1893
vn 0.2820 0.9558 -0.0837
vn 0.3799 -0.3722 -0.8468
vn 0.6616 0.6974 -0.2755
vn 0.4236 0.8877 -0.1802
vn -0.8109 0.5612 -0.1661
vn -0.6875 -0.6406 0.3419
vn -0.1579 -0.9874 0.0101
vn -0.2988 0.0788 -0.9511
vn 0.7900 -0.2515 0.5591
vn -0.3283 0.1149 0.9376
vn 0.2832 0.9552 -0.0857
s 1
f 11/1/1 3/2/2 4/3/3
f 4/4/4 2/5/5 1/6/6
f 2/7/7 8/8/8 5/9/9
f 11/10/10 7/11/11 8/12/12
f 5/13/13 9/14/14 10/15/15
f 8/16/8 6/17/16 5/18/9
f 9/19/17 11/20/18 10/21/19
f 9/19/20 6/22/20 13/23/20
f 2/24/21 10/21/22 1/25/23
f 6/26/16 7/27/24 13/23/25
f 4/4/26 10/28/19 11/29/18
f 13/30/27 7/27/27 12/31/27
f 9/19/17 13/32/28 12/31/29
f 11/1/1 8/16/30 3/2/2
f 4/4/4 3/33/31 2/5/5
f 2/7/7 3/33/32 8/8/8
f 11/10/10 12/31/33 7/11/11
f 5/13/13 6/34/34 9/14/14
f 8/16/8 7/35/24 6/17/16
f 9/19/17 12/36/29 11/20/18
f 2/24/21 5/37/35 10/21/22
f 4/4/26 1/38/36 10/28/19
