# Blender v2.79 (sub 0) OBJ File: 'DEBRIS.blend'
# www.blender.org
o 6_Circle
v -0.744370 0.611119 -0.314152
v 0.055826 0.610822 -0.627417
v 0.731262 0.246382 -0.427858
v 0.681647 -0.237751 0.119393
v 0.182631 -0.428767 0.732802
v -0.468752 -0.254970 0.827840
v -1.038473 0.117009 0.282237
v 0.025286 0.008111 0.203173
v -0.557103 0.395049 -0.256874
v 0.154061 0.445029 -0.618547
v 0.663382 0.169322 -0.433825
v 0.701540 -0.321333 0.075786
v 0.251351 -0.492636 0.634430
v -0.452838 -0.297022 0.734191
v -0.741441 -0.075427 0.327591
v 0.349329 -0.297495 0.104141
vt 0.000000 0.000000
vt 0.500000 0.000000
vt 0.500000 0.500000
vt 0.500000 0.000000
vt 0.000000 0.500000
vt 0.000000 0.000000
vt 0.500000 0.000000
vt 0.000000 0.500000
vt 0.000000 0.000000
vt 0.000000 0.000000
vt 0.500000 0.500000
vt 0.000000 0.500000
vt 0.000000 0.000000
vt 0.500000 0.000000
vt 0.500000 0.500000
vt 0.500000 0.000000
vt 0.000000 0.500000
vt 0.000000 0.000000
vt 0.500000 0.000000
vt 0.000000 0.500000
vt 0.000000 0.000000
vt 0.000000 0.000000
vt 0.500000 0.500000
vt 0.000000 0.500000
vt 0.000000 0.000000
vt 0.500000 0.500000
vt 0.500000 0.000000
vt 0.000000 0.500000
vt 0.500000 0.500000
vt 0.500000 0.000000
vt 0.000000 0.500000
vt 0.000000 0.000000
vt 0.000000 0.000000
vt 0.000000 0.500000
vt 0.000000 0.000000
vt 0.500000 0.500000
vt 0.000000 0.500000
vt 0.500000 0.000000
vt 0.000000 0.500000
vt 0.500000 0.500000
vt 0.500000 0.000000
vt 0.500000 0.500000
vt 0.500000 0.000000
vt 0.500000 0.500000
vt 0.500000 0.000000
vt 0.500000 0.500000
vn 0.2533 0.7798 0.5725
vn 0.3176 0.7756 0.5454
vn 0.3469 0.7222 0.5984
vn 0.2867 0.7451 0.6021
vn 0.2378 0.7820 0.5762
vn 0.1930 0.8403 0.5065
vn 0.1255 0.7982 0.5892
vn 0.1744 0.7599 0.6262
vn -0.1827 -0.8296 -0.5276
vn -0.1013 -0.8097 -0.5781
vn -0.2538 -0.8916 -0.3750
vn -0.1264 -0.7115 -0.6912
vn -0.3017 -0.5800 -0.7567
vn -0.2643 -0.9041 -0.3358
vn -0.2970 -0.7702 -0.5645
vn -0.3453 -0.5984 -0.7230
vn -0.6970 -0.7058 0.1266
vn -0.5576 -0.8301 0.0060
vn -0.7382 -0.6533 0.1679
vn 0.2747 -0.1177 -0.9543
vn 0.3550 0.1449 -0.9236
vn 0.3599 0.1641 -0.9184
vn -0.3626 -0.6559 -0.6620
vn 0.6891 -0.5726 -0.4441
vn 0.7906 -0.1223 0.6000
vn 0.7867 -0.0957 0.6099
vn 0.7909 -0.1244 0.5992
vn -0.1814 -0.8798 0.4393
vn -0.1869 -0.9055 0.3810
vn -0.1810 -0.8778 0.4435
vn -0.4021 -0.3267 -0.8553
vn -0.3888 -0.5357 -0.7495
vn -0.5432 -0.8396 -0.0053
vn 0.2610 -0.1561 -0.9526
vn 0.9784 0.1805 0.1005
vn 0.7864 -0.0941 0.6105
vn -0.1873 -0.9076 0.3757
s 1
f 8/1/1 5/2/2 4/3/3
f 8/4/1 3/5/4 2/6/5
f 6/7/6 8/8/1 7/9/7
f 1/10/8 8/11/1 2/12/5
f 16/13/9 12/14/10 13/15/11
f 11/16/12 16/17/9 10/18/13
f 16/19/9 14/20/14 15/21/15
f 9/22/16 16/23/9 15/24/15
f 6/25/17 15/26/18 14/20/19
f 3/27/20 10/28/21 2/6/22
f 7/9/23 9/29/16 15/24/15
f 4/30/24 11/31/24 3/32/24
f 4/33/25 13/15/26 12/34/27
f 5/35/28 14/36/29 13/37/30
f 2/38/31 9/39/16 1/10/32
f 8/4/1 4/3/3 3/5/4
f 6/7/6 5/40/2 8/8/1
f 1/10/8 7/41/7 8/11/1
f 11/16/12 12/42/10 16/17/9
f 16/19/9 13/15/11 14/20/14
f 9/22/16 10/43/13 16/23/9
f 6/25/17 7/41/33 15/26/18
f 3/27/20 11/44/34 10/28/21
f 7/9/23 1/45/32 9/29/16
f 4/30/35 12/42/35 11/31/35
f 4/33/25 5/2/36 13/15/26
f 5/35/28 6/7/37 14/36/29
f 2/38/31 10/46/13 9/39/16
