# Blender v2.79 (sub 0) OBJ File: 'DEBRIS.blend'
# www.blender.org
o 7_Icosphere
v 0.281384 0.030818 0.394587
v 0.253912 -0.703154 0.143021
v -0.195389 0.243110 -0.217133
v -0.228287 0.823322 0.028608
v 0.200691 0.235624 0.540641
v 0.498701 -0.707781 0.611347
v -0.272740 -0.364272 -0.378440
v -0.570750 0.579134 -0.449146
v -0.325961 0.574507 0.019181
v 0.123340 -0.371757 0.379335
v -0.353433 -0.159465 -0.232386
vt 0.000000 0.000000
vt 0.500000 0.000000
vt 0.500000 0.500000
vt 0.000000 0.000000
vt 0.500000 0.000000
vt 0.500000 0.500000
vt 0.500000 0.000000
vt 0.500000 0.500000
vt 0.500000 0.000000
vt 0.500000 0.500000
vt 0.500000 0.000000
vt 0.000000 0.000000
vt 0.500000 0.500000
vt 0.000000 0.000000
vt 0.500000 0.500000
vt 0.000000 0.000000
vt 0.500000 0.500000
vt 0.000000 0.000000
vt 0.500000 0.500000
vt 0.500000 0.000000
vt 0.500000 0.000000
vt 0.500000 0.000000
vt 0.500000 0.000000
vt 0.500000 0.500000
vt 0.000000 0.000000
vt 0.500000 0.500000
vt 0.000000 0.000000
vt 0.000000 0.000000
vt 0.000000 0.000000
vn 0.9218 0.2873 -0.2602
vn 0.8284 0.1293 -0.5450
vn 0.7182 0.2004 -0.6663
vn 0.8799 0.1243 -0.4587
vn 0.7707 0.3191 -0.5515
vn 0.8942 0.4331 -0.1133
vn 0.9473 0.3063 0.0939
vn 0.7009 0.0984 -0.7065
vn 0.6616 0.2511 -0.7066
vn -0.6946 -0.0620 0.7167
vn -0.7324 0.2637 0.6277
vn -0.7986 0.0960 0.5941
vn -0.6039 -0.1319 0.7861
vn -0.7328 -0.3267 0.5969
vn -0.8862 -0.0091 0.4631
vn -0.7362 -0.5605 0.3793
vn -0.8104 -0.3317 0.4829
vn -0.9473 -0.3063 -0.0939
s 1
f 1/1/1 2/2/2 3/3/3
f 2/4/2 1/5/1 6/6/4
f 1/1/1 3/7/3 4/8/5
f 1/1/1 4/9/5 5/10/6
f 1/1/1 5/11/6 6/6/7
f 3/12/3 2/2/2 7/13/8
f 4/14/5 3/7/3 8/15/9
f 5/16/10 4/9/11 9/17/12
f 6/18/13 5/11/10 10/19/14
f 3/12/3 7/20/8 8/15/9
f 4/14/11 8/21/15 9/17/12
f 5/16/10 9/22/12 10/19/14
f 6/18/16 10/23/14 2/24/16
f 7/25/16 2/2/16 11/26/17
f 8/27/18 7/20/18 11/26/18
f 9/28/12 8/21/15 11/26/17
f 10/29/14 9/22/12 11/26/17
f 2/4/16 10/23/14 11/26/17
