# Blender v2.79 (sub 0) OBJ File: '11.blend'
# www.blender.org
o Icosphere.001
v 0.452962 -0.010843 -0.185652
v 0.316836 -0.010325 -0.373295
v 0.315828 0.010583 -0.373955
v 0.453398 0.010449 -0.184525
v -0.036476 -0.010493 -0.488225
v -0.257101 -0.010157 -0.416731
v -0.258026 0.010433 -0.415980
v -0.035311 0.010187 -0.488291
v -0.475839 -0.009456 -0.116034
v -0.475620 -0.010349 0.116185
v -0.475314 0.010115 0.117298
v -0.475457 0.009513 -0.117081
v -0.257107 -0.010197 0.416718
v -0.036503 -0.010555 0.488207
v -0.035334 0.010318 0.488269
v -0.258037 0.010495 0.415959
v 0.316771 -0.010511 0.373301
v 0.452845 -0.011129 0.185745
v 0.453272 0.011051 0.184594
v 0.315723 0.010871 0.373976
v 0.258412 -0.010318 -0.415787
v 0.035739 -0.010495 -0.488188
v 0.036937 0.010197 -0.488256
v 0.257430 0.010555 -0.416423
v -0.315590 -0.010115 -0.374279
v -0.453473 -0.009513 -0.184742
v -0.453166 0.009456 -0.185814
v -0.316492 0.010349 -0.373559
v -0.453254 -0.010433 0.184869
v -0.315578 -0.010187 0.374280
v -0.316481 0.010493 0.373542
v -0.452948 0.010157 0.186021
v 0.035705 -0.010583 0.488175
v 0.258344 -0.010449 0.415785
v 0.257328 0.010843 0.416441
v 0.036908 0.010325 0.488234
v 0.475207 -0.011051 0.117083
v 0.475243 -0.010872 -0.116974
v 0.475695 0.010511 -0.115812
v 0.475538 0.011129 0.115901
vt 0.500000 0.000000
vt 0.000000 0.500000
vt 0.000000 0.000000
vt 0.500000 0.000000
vt 0.000000 0.500000
vt 0.000000 0.000000
vt 0.000000 0.000000
vt 0.500000 0.500000
vt 0.000000 0.500000
vt 0.000000 0.000000
vt 0.500000 0.500000
vt 0.000000 0.500000
vt 0.000000 0.000000
vt 0.500000 0.500000
vt 0.000000 0.500000
vt 0.000000 0.000000
vt 0.500000 0.500000
vt 0.000000 0.500000
vt 0.000000 0.000000
vt 0.500000 0.500000
vt 0.000000 0.500000
vt 0.500000 0.000000
vt 0.000000 0.500000
vt 0.000000 0.000000
vt 0.500000 0.000000
vt 0.000000 0.500000
vt 0.000000 0.000000
vt 0.000000 0.000000
vt 0.500000 0.500000
vt 0.000000 0.500000
vt 0.500000 0.500000
vt 0.500000 0.500000
vt 0.500000 0.000000
vt 0.500000 0.000000
vt 0.500000 0.000000
vt 0.500000 0.000000
vt 0.500000 0.000000
vt 0.500000 0.500000
vt 0.500000 0.500000
vt 0.500000 0.000000
vn 0.8090 0.0201 -0.5875
vn 0.8093 0.0148 -0.5871
vn 0.8094 0.0145 -0.5871
vn -0.3087 0.0205 -0.9509
vn -0.3082 0.0147 -0.9512
vn -0.3082 0.0143 -0.9512
vn -0.9998 0.0199 0.0006
vn -0.9999 0.0152 0.0010
vn -0.9998 0.0201 0.0006
vn -0.3087 0.0206 0.9509
vn -0.3083 0.0148 0.9512
vn -0.3087 0.0210 0.9509
vn 0.8089 0.0208 0.5875
vn 0.8093 0.0153 0.5872
vn 0.8089 0.0211 0.5875
vn 0.3097 -0.0148 -0.9507
vn 0.3092 -0.0206 -0.9508
vn 0.3097 -0.0144 -0.9507
vn -0.8084 -0.0152 -0.5885
vn -0.8085 -0.0199 -0.5881
vn -0.8083 -0.0149 -0.5885
vn -0.8085 -0.0147 0.5883
vn -0.8087 -0.0205 0.5879
vn -0.8087 -0.0208 0.5878
vn 0.3097 -0.0149 0.9507
vn 0.3092 -0.0201 0.9508
vn 0.3092 -0.0204 0.9508
vn 0.9999 -0.0153 0.0007
vn 0.9998 -0.0208 0.0002
vn 0.9999 -0.0149 0.0007
vn 0.8090 0.0204 -0.5875
vn -0.3087 0.0208 -0.9509
vn -0.9999 0.0149 0.0010
vn -0.3082 0.0144 0.9512
vn 0.8093 0.0149 0.5871
vn 0.3092 -0.0210 -0.9508
vn -0.8085 -0.0201 -0.5881
vn -0.8085 -0.0143 0.5884
vn 0.3097 -0.0145 0.9507
vn 0.9998 -0.0211 0.0001
s 1
f 2/1/1 4/2/2 1/3/3
f 6/4/4 8/5/5 5/6/6
f 9/7/7 11/8/8 12/9/9
f 13/10/10 15/11/11 16/12/12
f 17/13/13 19/14/14 20/15/15
f 21/16/16 23/17/17 24/18/18
f 25/19/19 27/20/20 28/21/21
f 30/22/22 32/23/23 29/24/24
f 34/25/25 36/26/26 33/27/27
f 37/28/28 39/29/29 40/30/30
f 2/1/1 3/31/31 4/2/2
f 6/4/4 7/32/32 8/5/5
f 9/7/7 10/33/33 11/8/8
f 13/10/10 14/34/34 15/11/11
f 17/13/13 18/35/35 19/14/14
f 21/16/16 22/36/36 23/17/17
f 25/19/19 26/37/37 27/20/20
f 30/22/22 31/38/38 32/23/23
f 34/25/25 35/39/39 36/26/26
f 37/28/28 38/40/40 39/29/29
