# Blender v2.79 (sub 0) OBJ File: '11.blend'
# www.blender.org
o Icosphere
v 0.000000 -0.369251 0.000000
v 0.368830 -0.227952 0.267967
v -0.140878 -0.227952 0.433584
v -0.455898 -0.227950 0.000000
v -0.140878 -0.227952 -0.433584
v 0.368830 -0.227952 -0.267967
v 0.140878 0.227952 0.433584
v -0.368830 0.227952 0.267967
v -0.368830 0.227952 -0.267967
v 0.140878 0.227952 -0.433584
v 0.455898 0.227950 0.000000
v -0.038378 -0.388451 0.118117
v -0.082805 -0.433587 0.254852
v 0.116339 -0.487478 0.084524
v 0.133987 -0.267974 0.412361
v 0.433584 -0.267973 0.000000
v 0.116339 -0.487478 -0.084524
v -0.267970 -0.433586 0.000000
v -0.350777 -0.267973 0.254853
v -0.082805 -0.433587 -0.254852
v -0.350777 -0.267973 -0.254853
v 0.133987 -0.267974 -0.412361
v 0.350777 0.267973 0.254853
v -0.133987 0.267974 0.412361
v -0.433584 0.267973 0.000000
v -0.133987 0.267974 -0.412361
v 0.350777 0.267973 -0.254853
v 0.044437 0.487478 0.136764
v 0.267970 0.433586 0.000000
v -0.116339 0.487478 0.084524
v -0.116339 0.487478 -0.084524
v 0.044437 0.487478 -0.136764
v 0.143803 0.487478 0.000000
v 0.082805 0.433587 -0.254852
v -0.216791 0.433587 -0.157506
v -0.216791 0.433587 0.157506
v 0.082805 0.433587 0.254852
v 0.216791 -0.433587 -0.157506
v -0.044437 -0.487478 -0.136764
v -0.143803 -0.487478 0.000000
v -0.044437 -0.487478 0.136764
v 0.216791 -0.433587 0.157506
v -0.044437 -0.445037 0.136764
v -0.143804 -0.445038 0.000000
v -0.044437 -0.445037 -0.136764
v 0.143804 0.445038 -0.000000
v 0.116339 -0.445037 0.084524
v 0.116339 -0.445037 -0.084524
v 0.044437 0.445037 0.136764
v -0.116339 0.445037 0.084524
v -0.116339 0.445037 -0.084524
v 0.044437 0.445037 -0.136764
v -0.124197 -0.388452 0.000000
v -0.038378 -0.388451 -0.118117
v 0.124197 0.388452 -0.000000
v -0.000000 0.369251 -0.000000
v 0.100477 -0.388452 0.072999
v 0.100477 -0.388452 -0.072999
v 0.038378 0.388451 0.118117
v -0.100477 0.388452 0.072999
v -0.100477 0.388452 -0.072999
v 0.038378 0.388451 -0.118117
v 0.474370 -0.028485 0.157487
v 0.476344 0.028485 0.151413
v 0.476537 0.028082 -0.151292
v 0.474433 -0.028364 -0.157426
v -0.002991 -0.028172 0.499923
v 0.003393 0.028027 0.499984
v 0.291290 0.028364 0.406225
v 0.296598 -0.028082 0.402499
v -0.476388 -0.028105 0.151687
v -0.474487 0.027927 0.157780
v -0.296259 0.028146 0.402705
v -0.291127 -0.027939 0.406538
v -0.291125 -0.027927 -0.406544
v -0.296245 0.028105 -0.402732
v -0.474691 0.027522 -0.157592
v -0.476665 -0.027522 -0.151517
v 0.296629 -0.028027 -0.402501
v 0.291428 0.028172 -0.406204
v 0.003431 0.027939 -0.500016
v -0.002974 -0.028146 -0.499931
v 0.452962 -0.010843 -0.185652
v 0.316836 -0.010325 -0.373295
v 0.315828 0.010583 -0.373954
v 0.453398 0.010449 -0.184524
v -0.036476 -0.010493 -0.488224
v -0.257101 -0.010157 -0.416730
v -0.258026 0.010433 -0.415979
v -0.035311 0.010187 -0.488290
v -0.475839 -0.009456 -0.116034
v -0.475620 -0.010349 0.116185
v -0.475314 0.010115 0.117298
v -0.475457 0.009513 -0.117081
v -0.257107 -0.010197 0.416717
v -0.036503 -0.010555 0.488206
v -0.035334 0.010318 0.488269
v -0.258037 0.010495 0.415959
v 0.316771 -0.010511 0.373301
v 0.452845 -0.011129 0.185745
v 0.453272 0.011051 0.184594
v 0.315723 0.010871 0.373975
v 0.258412 -0.010318 -0.415786
v 0.035739 -0.010495 -0.488188
v 0.036937 0.010197 -0.488255
v 0.257430 0.010555 -0.416422
v -0.315590 -0.010115 -0.374279
v -0.453473 -0.009513 -0.184742
v -0.453166 0.009456 -0.185813
v -0.316492 0.010349 -0.373559
v -0.453254 -0.010433 0.184869
v -0.315578 -0.010187 0.374279
v -0.316481 0.010493 0.373541
v -0.452948 0.010157 0.186020
v 0.035705 -0.010583 0.488174
v 0.258344 -0.010449 0.415785
v 0.257328 0.010843 0.416440
v 0.036908 0.010325 0.488233
v 0.475207 -0.011051 0.117083
v 0.475243 -0.010872 -0.116974
v 0.475695 0.010511 -0.115812
v 0.475538 0.011129 0.115900
vt 0.500000 0.000000
vt 0.000000 0.500000
vt 0.000000 0.000000
vt 0.000000 0.000000
vt 0.500000 0.000000
vt 0.500000 0.500000
vt 0.500000 0.000000
vt 0.000000 0.500000
vt 0.000000 0.000000
vt 0.000000 0.000000
vt 0.500000 0.500000
vt 0.000000 0.500000
vt 0.000000 0.000000
vt 0.500000 0.500000
vt 0.000000 0.500000
vt 0.000000 0.000000
vt 0.500000 0.000000
vt 0.500000 0.500000
vt 0.000000 0.000000
vt 0.500000 0.000000
vt 0.500000 0.500000
vt 0.000000 0.000000
vt 0.500000 0.000000
vt 0.500000 0.500000
vt 0.000000 0.000000
vt 0.500000 0.000000
vt 0.500000 0.500000
vt 0.000000 0.000000
vt 0.500000 0.000000
vt 0.500000 0.500000
vt 0.000000 0.000000
vt 0.500000 0.000000
vt 0.000000 0.000000
vt 0.500000 0.000000
vt 0.000000 0.000000
vt 0.500000 0.000000
vt 0.000000 0.000000
vt 0.500000 0.000000
vt 0.000000 0.000000
vt 0.500000 0.000000
vt 0.500000 0.500000
vt 0.000000 0.000000
vt 0.500000 0.000000
vt 0.500000 0.500000
vt 0.000000 0.000000
vt 0.500000 0.000000
vt 0.500000 0.500000
vt 0.000000 0.000000
vt 0.500000 0.000000
vt 0.500000 0.500000
vt 0.000000 0.000000
vt 0.500000 0.000000
vt 0.500000 0.500000
vt 0.000000 0.000000
vt 0.500000 0.000000
vt 0.500000 0.500000
vt 0.500000 0.000000
vt 0.000000 0.500000
vt 0.000000 0.000000
vt 0.000000 0.000000
vt 0.000000 0.000000
vt 0.500000 0.000000
vt 0.000000 0.500000
vt 0.000000 0.000000
vt 0.000000 0.000000
vt 0.000000 0.000000
vt 0.500000 0.000000
vt 0.000000 0.500000
vt 0.000000 0.000000
vt 0.000000 0.000000
vt 0.000000 0.000000
vt 0.500000 0.000000
vt 0.000000 0.500000
vt 0.000000 0.000000
vt 0.000000 0.000000
vt 0.000000 0.000000
vt 0.000000 0.000000
vt 0.500000 0.500000
vt 0.000000 0.500000
vt 0.000000 0.000000
vt 0.000000 0.000000
vt 0.000000 0.000000
vt 0.500000 0.000000
vt 0.000000 0.000000
vt 0.500000 0.000000
vt 0.500000 0.500000
vt 0.500000 0.000000
vt 0.500000 0.500000
vt 0.000000 0.000000
vt 0.500000 0.000000
vt 0.500000 0.500000
vt 0.500000 0.000000
vt 0.500000 0.500000
vt 0.000000 0.000000
vt 0.500000 0.000000
vt 0.500000 0.500000
vt 0.500000 0.000000
vt 0.500000 0.500000
vt 0.000000 0.000000
vt 0.500000 0.000000
vt 0.500000 0.000000
vt 0.500000 0.500000
vt 0.000000 0.000000
vt 0.500000 0.000000
vt 0.500000 0.500000
vt 0.500000 0.000000
vt 0.500000 0.500000
vt 0.000000 0.000000
vt 0.500000 0.000000
vt 0.000000 0.000000
vt 0.500000 0.000000
vt 0.000000 0.000000
vt 0.500000 0.500000
vt 0.000000 0.000000
vt 0.500000 0.500000
vt 0.000000 0.000000
vt 0.500000 0.000000
vt 0.000000 0.000000
vt 0.500000 0.500000
vt 0.500000 0.000000
vt 0.000000 0.000000
vt 0.500000 0.000000
vt 0.500000 0.500000
vt 0.500000 0.000000
vt 0.000000 0.000000
vt 0.500000 0.000000
vt 0.500000 0.500000
vt 0.500000 0.000000
vt 0.000000 0.000000
vt 0.500000 0.500000
vt 0.500000 0.000000
vt 0.500000 0.500000
vt 0.000000 0.000000
vt 0.500000 0.500000
vt 0.500000 0.000000
vt 0.500000 0.500000
vt 0.000000 0.000000
vt 0.500000 0.500000
vt 0.500000 0.000000
vt 0.500000 0.500000
vt 0.000000 0.000000
vt 0.500000 0.000000
vt 0.500000 0.500000
vt 0.000000 0.000000
vt 0.500000 0.500000
vt 0.000000 0.500000
vt 0.500000 0.500000
vt 0.500000 0.500000
vt 0.000000 0.000000
vt 0.000000 0.500000
vt 0.000000 0.500000
vt 0.500000 0.000000
vt 0.000000 0.500000
vt 0.000000 0.500000
vt 0.000000 0.500000
vt 0.500000 0.500000
vt 0.000000 0.500000
vt 0.000000 0.500000
vt 0.500000 0.500000
vt 0.000000 0.500000
vt 0.500000 0.000000
vt 0.000000 0.500000
vt 0.000000 0.500000
vt 0.000000 0.000000
vt 0.500000 0.500000
vt 0.000000 0.500000
vt 0.500000 0.000000
vt 0.000000 0.500000
vt 0.000000 0.000000
vt 0.500000 0.000000
vt 0.000000 0.500000
vt 0.000000 0.000000
vt 0.000000 0.000000
vt 0.500000 0.500000
vt 0.000000 0.500000
vt 0.500000 0.000000
vt 0.000000 0.500000
vt 0.000000 0.000000
vt 0.000000 0.000000
vt 0.500000 0.500000
vt 0.000000 0.500000
vt 0.500000 0.000000
vt 0.000000 0.500000
vt 0.000000 0.000000
vt 0.500000 0.000000
vt 0.000000 0.500000
vt 0.000000 0.000000
vt 0.000000 0.000000
vt 0.500000 0.500000
vt 0.000000 0.500000
vt 0.500000 0.000000
vt 0.000000 0.500000
vt 0.000000 0.000000
vt 0.000000 0.000000
vt 0.500000 0.000000
vt 0.500000 0.500000
vt 0.500000 0.000000
vt 0.500000 0.000000
vt 0.500000 0.500000
vt 0.500000 0.000000
vt 0.000000 0.000000
vt 0.500000 0.000000
vt 0.500000 0.500000
vt 0.000000 0.000000
vt 0.500000 0.000000
vt 0.000000 0.000000
vt 0.500000 0.000000
vt 0.000000 0.000000
vt 0.500000 0.000000
vt 0.000000 0.000000
vt 0.500000 0.000000
vt 0.000000 0.000000
vt 0.500000 0.000000
vt 0.500000 0.000000
vt 0.000000 0.500000
vt 0.000000 0.000000
vt 0.500000 0.500000
vt 0.000000 0.500000
vt 0.000000 0.500000
vt 0.500000 0.000000
vt 0.000000 0.500000
vt 0.000000 0.500000
vt 0.000000 0.000000
vt 0.500000 0.500000
vt 0.000000 0.500000
vt 0.000000 0.500000
vt 0.500000 0.000000
vt 0.000000 0.500000
vt 0.000000 0.000000
vt 0.500000 0.500000
vt 0.000000 0.500000
vt 0.500000 0.500000
vt 0.000000 0.500000
vt 0.000000 0.500000
vt 0.500000 0.000000
vt 0.000000 0.500000
vt 0.000000 0.000000
vt 0.500000 0.500000
vt 0.000000 0.500000
vt 0.500000 0.500000
vt 0.000000 0.500000
vt 0.500000 0.500000
vt 0.000000 0.500000
vt 0.500000 0.000000
vt 0.000000 0.500000
vt 0.000000 0.000000
vt 0.500000 0.500000
vt 0.000000 0.500000
vt 0.500000 0.500000
vt 0.000000 0.500000
vt 0.000000 0.500000
vt 0.500000 0.000000
vt 0.000000 0.500000
vt 0.500000 0.500000
vt 0.000000 0.500000
vt 0.000000 0.500000
vt 0.500000 0.500000
vt 0.000000 0.500000
vt 0.500000 0.500000
vt 0.000000 0.500000
vt 0.000000 0.500000
vt 0.000000 0.500000
vt 0.500000 0.500000
vt 0.000000 0.500000
vt 0.500000 0.500000
vt 0.000000 0.500000
vt 0.000000 0.500000
vt 0.000000 0.500000
vt 0.000000 0.500000
vt 0.500000 0.500000
vt 0.000000 0.500000
vt 0.000000 0.500000
vt 0.000000 0.500000
vt 0.000000 0.500000
vt 0.500000 0.500000
vt 0.000000 0.500000
vt 0.000000 0.500000
vt 0.000000 0.500000
vt 0.500000 0.500000
vt 0.000000 0.500000
vt 0.500000 0.500000
vt 0.000000 0.500000
vt 0.500000 0.500000
vt 0.500000 0.500000
vt 0.500000 0.000000
vt 0.500000 0.500000
vt 0.500000 0.500000
vt 0.500000 0.500000
vt 0.500000 0.500000
vt 0.500000 0.000000
vt 0.500000 0.500000
vt 0.500000 0.500000
vt 0.500000 0.000000
vt 0.500000 0.500000
vt 0.500000 0.000000
vt 0.500000 0.000000
vt 0.500000 0.500000
vt 0.500000 0.500000
vt 0.500000 0.000000
vt 0.500000 0.500000
vt 0.500000 0.500000
vt 0.500000 0.500000
vt 0.500000 0.500000
vt 0.500000 0.500000
vt 0.500000 0.500000
vt 0.500000 0.500000
vt 0.500000 0.500000
vt 0.500000 0.500000
vt 0.500000 0.500000
vt 0.500000 0.500000
vt 0.500000 0.500000
vt 0.500000 0.500000
vt 0.500000 0.500000
vt 0.500000 0.500000
vt 0.500000 0.500000
vt 0.500000 0.500000
vt 0.500000 0.500000
vt 0.500000 0.500000
vt 0.500000 0.500000
vt 0.500000 0.500000
vt 0.500000 0.500000
vt 0.500000 0.500000
vn -1.0000 -0.0000 0.0000
vn -0.9919 -0.1273 0.0000
vn 0.7267 -0.4396 0.5279
vn 0.4544 -0.8274 0.3301
vn 0.8541 -0.5201 0.0000
vn 0.3090 0.0000 -0.9511
vn 0.3065 0.1273 -0.9433
vn -0.3090 -0.0000 0.9511
vn -0.3065 -0.1273 0.9433
vn -0.8090 -0.0000 0.5878
vn -0.8024 0.1273 0.5830
vn 0.9471 0.1055 0.3030
vn 0.8982 0.4395 0.0000
vn 0.6910 0.5201 0.5020
vn 0.0051 0.1048 0.9945
vn 0.2776 0.4396 0.8542
vn -0.2639 0.5202 0.8123
vn -0.9442 0.1046 0.3122
vn -0.7266 0.4396 0.5280
vn -0.8540 0.5202 0.0000
vn -0.5877 0.1059 -0.8021
vn -0.7266 0.4396 -0.5280
vn -0.2639 0.5202 -0.8123
vn 0.5812 0.1058 -0.8069
vn 0.2776 0.4396 -0.8542
vn 0.6910 0.5202 -0.5020
vn 0.5810 0.1061 0.8070
vn -0.5878 0.1060 0.8020
vn -0.9443 0.1050 -0.3118
vn 0.0051 0.1045 -0.9945
vn -0.2775 -0.4396 0.8542
vn -0.0041 -0.1058 0.9944
vn -0.5804 -0.1045 0.8076
vn 0.1736 0.8274 0.5342
vn -0.4544 0.8274 0.3301
vn -0.4544 0.8274 -0.3301
vn 0.1736 0.8274 -0.5342
vn 0.5616 0.8274 -0.0000
vn 0.8090 0.0000 -0.5878
vn 0.8024 -0.1273 -0.5830
vn 1.0000 0.0000 0.0000
vn 0.9919 0.1273 0.0000
vn -0.3090 -0.0000 -0.9511
vn -0.3065 -0.1273 -0.9433
vn -0.8090 -0.0000 -0.5878
vn -0.8024 0.1273 -0.5830
vn 0.8090 0.0000 0.5878
vn 0.8024 -0.1273 0.5830
vn 0.9474 0.1043 -0.3024
vn 0.7267 -0.4396 -0.5279
vn 0.9443 -0.1061 -0.3114
vn 0.2639 -0.5202 -0.8123
vn -0.2775 -0.4396 -0.8542
vn -0.0041 -0.1060 -0.9944
vn -0.6909 -0.5202 -0.5020
vn -0.8982 -0.4396 0.0000
vn -0.9473 -0.1050 -0.3028
vn -0.6909 -0.5202 0.5020
vn 0.2639 -0.5202 0.8123
vn 0.5887 -0.1043 0.8016
vn 0.5886 -0.1048 -0.8016
vn -0.5804 -0.1046 -0.8076
vn -0.9469 -0.1059 0.3035
vn 0.9443 -0.1055 0.3116
vn 0.4544 -0.8274 -0.3301
vn -0.1736 -0.8274 -0.5342
vn -0.5616 -0.8274 -0.0000
vn -0.1736 -0.8274 0.5342
vn 0.3090 0.0000 0.9511
vn 0.3065 0.1273 0.9433
vn 0.3825 0.8812 -0.2779
vn -0.1461 0.8812 -0.4496
vn -0.4727 0.8812 0.0000
vn -0.1461 0.8812 0.4496
vn 0.3825 0.8812 0.2779
vn 0.1461 -0.8812 -0.4496
vn -0.3825 -0.8812 -0.2779
vn -0.3825 -0.8812 0.2779
vn 0.4727 -0.8812 0.0000
vn 0.4728 -0.8812 0.0000
vn 0.1461 -0.8812 0.4496
vn 0.7790 -0.2699 -0.5660
vn 0.9629 0.2699 0.0000
vn -0.2976 -0.2699 -0.9158
vn -0.7790 0.2699 -0.5660
vn 0.7790 -0.2699 0.5660
vn 0.2976 0.2699 0.9158
vn -0.9629 -0.2699 0.0000
vn 0.2976 0.2699 -0.9158
vn -0.2976 -0.2699 0.9158
vn -0.7790 0.2699 0.5660
vn -0.0000 -1.0000 0.0000
vn -0.1236 -0.9883 -0.0898
vn 0.0472 -0.9883 -0.1453
vn 0.1528 -0.9883 0.0000
vn 0.0472 -0.9883 0.1453
vn -0.1236 -0.9883 0.0898
vn -0.1528 0.9883 -0.0000
vn -0.0472 0.9883 0.1453
vn 0.0000 1.0000 -0.0000
vn 0.1236 0.9883 0.0898
vn 0.1236 0.9883 -0.0898
vn -0.0472 0.9883 -0.1453
vn 0.8052 0.0329 -0.5921
vn 0.8091 0.0387 -0.5864
vn 0.8119 0.0346 -0.5827
vn 0.8080 0.0374 -0.5880
vn -0.3143 0.0328 -0.9488
vn -0.3076 0.0389 -0.9507
vn -0.3033 0.0349 -0.9523
vn -0.3095 0.0373 -0.9502
vn -0.9995 0.0327 -0.0053
vn -0.9994 0.0338 0.0060
vn -0.9993 0.0371 -0.0004
vn -0.9993 0.0377 0.0016
vn -0.3143 0.0331 0.9487
vn -0.3033 0.0351 0.9523
vn -0.3095 0.0376 0.9502
vn -0.3076 0.0392 0.9507
vn 0.8050 0.0342 0.5922
vn 0.8120 0.0359 0.5826
vn 0.8080 0.0388 0.5879
vn 0.8090 0.0399 0.5864
vn 0.3099 -0.0392 -0.9499
vn 0.3081 -0.0376 -0.9506
vn 0.3034 -0.0331 -0.9523
vn 0.3144 -0.0351 -0.9486
vn -0.8087 -0.0371 -0.5870
vn -0.8075 -0.0377 -0.5887
vn -0.8117 -0.0326 -0.5832
vn -0.8050 -0.0338 -0.5923
vn -0.8077 -0.0389 0.5883
vn -0.8089 -0.0373 0.5868
vn -0.8119 -0.0328 0.5828
vn -0.8051 -0.0349 0.5921
vn 0.3099 -0.0387 0.9500
vn 0.3081 -0.0374 0.9506
vn 0.3034 -0.0329 0.9523
vn 0.3143 -0.0346 0.9487
vn 0.9992 -0.0388 -0.0007
vn 0.9992 -0.0400 0.0011
vn 0.9994 -0.0342 -0.0059
vn 0.9993 -0.0359 0.0059
s 1
f 14/1/1 48/2/2 17/3/1
f 2/4/3 42/5/4 16/6/5
f 28/7/6 50/8/7 30/9/6
f 39/10/8 48/11/9 45/12/9
f 33/13/10 52/14/11 46/15/11
f 64/16/12 11/17/13 23/18/14
f 68/19/15 7/20/16 24/21/17
f 72/22/18 8/23/19 25/24/20
f 76/25/21 9/26/22 26/27/23
f 80/28/24 10/29/25 27/30/26
f 69/31/27 64/32/12 23/18/14
f 73/33/28 68/34/15 24/21/17
f 77/35/29 72/36/18 25/24/20
f 81/37/30 76/38/21 26/27/23
f 3/39/31 67/40/32 74/41/33
f 7/42/16 23/43/14 37/44/34
f 8/45/19 24/46/17 36/47/35
f 9/48/22 25/49/20 35/50/36
f 10/51/25 26/52/23 34/53/37
f 11/54/13 27/55/26 29/56/38
f 40/57/39 43/58/40 41/59/39
f 29/60/38 27/55/26 34/53/37
f 27/61/26 10/29/25 34/53/37
f 30/62/41 51/63/42 31/64/41
f 34/65/37 26/52/23 35/50/36
f 26/66/23 9/26/22 35/50/36
f 41/67/43 47/68/44 14/69/43
f 35/70/36 25/49/20 36/47/35
f 25/71/20 8/23/19 36/47/35
f 33/72/45 49/73/46 28/74/45
f 36/75/35 24/46/17 37/44/34
f 24/76/17 7/20/16 37/44/34
f 40/77/47 45/78/48 44/79/48
f 37/80/34 23/43/14 29/56/38
f 23/81/14 11/17/13 29/56/38
f 65/82/49 80/83/24 27/30/26
f 16/84/5 6/85/50 66/86/51
f 80/28/24 81/87/30 10/88/25
f 22/89/52 5/90/53 82/91/54
f 76/25/21 77/92/29 9/93/22
f 77/35/29 25/49/20 9/93/22
f 21/94/55 4/95/56 78/96/57
f 72/22/18 73/97/28 8/98/19
f 73/33/28 24/46/17 8/98/19
f 19/99/58 3/100/31 74/41/33
f 68/19/15 69/101/27 7/102/16
f 69/31/27 23/43/14 7/102/16
f 15/103/59 2/104/3 70/105/60
f 64/16/12 65/106/49 11/107/13
f 65/82/49 27/55/26 11/107/13
f 79/108/61 22/109/52 82/91/54
f 81/37/30 26/52/23 10/88/25
f 75/110/62 21/111/55 78/96/57
f 5/112/53 21/111/55 75/113/62
f 6/114/50 22/109/52 79/115/61
f 71/116/63 19/117/58 74/41/33
f 4/118/56 19/117/58 71/119/63
f 5/112/53 75/120/62 82/91/54
f 67/121/32 15/122/59 70/105/60
f 3/39/31 15/122/59 67/123/32
f 4/118/56 71/124/63 78/96/57
f 63/125/64 16/126/5 66/86/51
f 2/4/3 16/126/5 63/127/64
f 6/114/50 79/128/61 66/86/51
f 38/129/65 22/109/52 6/130/50
f 38/129/65 20/131/66 22/132/52
f 20/133/66 5/90/53 22/132/52
f 20/133/66 21/111/55 5/134/53
f 20/133/66 18/135/67 21/136/55
f 18/137/67 4/95/56 21/136/55
f 18/137/67 19/117/58 4/138/56
f 18/137/67 13/139/68 19/140/58
f 13/141/68 3/100/31 19/140/58
f 16/84/5 38/142/65 6/130/50
f 16/84/5 42/5/4 38/143/65
f 32/144/69 51/145/70 52/146/70
f 13/141/68 15/122/59 3/147/31
f 13/141/68 42/5/4 15/148/59
f 42/149/4 2/104/3 15/148/59
f 33/72/71 34/150/37 32/144/71
f 31/64/72 34/53/37 35/151/36
f 31/152/73 36/153/35 30/9/73
f 30/62/74 37/154/34 28/74/74
f 33/13/75 37/44/34 29/155/38
f 17/3/76 20/156/66 38/157/65
f 40/57/77 20/158/66 39/10/77
f 40/77/78 13/159/68 18/160/67
f 17/161/79 42/162/4 14/69/80
f 14/1/81 13/163/68 41/59/81
f 43/164/40 53/165/82 12/166/82
f 50/167/42 61/168/83 51/169/42
f 43/170/44 57/171/84 47/172/44
f 49/173/46 55/174/85 59/175/85
f 45/176/48 53/177/86 44/178/48
f 52/179/70 61/180/87 62/181/87
f 47/182/2 58/183/88 48/184/2
f 49/185/7 60/186/89 50/187/7
f 45/188/9 58/189/90 54/190/90
f 52/191/11 55/192/91 46/193/11
f 1/194/92 57/195/93 12/196/94
f 1/194/92 12/197/94 53/165/95
f 1/194/92 53/198/95 54/199/96
f 1/194/92 54/200/96 58/189/97
f 55/201/98 62/202/99 56/203/100
f 62/204/99 61/205/101 56/203/100
f 61/206/101 60/207/102 56/203/100
f 60/208/102 59/209/103 56/203/100
f 59/210/103 55/211/98 56/203/100
f 57/212/93 1/213/92 58/189/97
f 2/4/3 63/214/64 70/105/60
f 79/128/61 83/215/104 66/216/51
f 79/108/61 85/217/105 84/218/106
f 65/106/49 85/219/105 80/28/24
f 66/220/51 86/221/107 65/82/49
f 75/120/62 87/222/108 82/223/54
f 75/110/62 89/224/109 88/225/110
f 81/87/30 89/226/109 76/25/21
f 82/227/54 90/228/111 81/37/30
f 78/229/57 92/230/112 91/231/113
f 71/116/63 93/232/114 92/233/112
f 77/92/29 93/234/114 72/22/18
f 78/235/57 94/236/115 77/35/29
f 74/237/33 96/238/116 95/239/117
f 67/121/32 97/240/118 96/241/116
f 68/19/15 98/242/119 97/243/118
f 74/244/33 98/245/119 73/33/28
f 70/246/60 100/247/120 99/248/121
f 63/125/64 101/249/122 100/250/120
f 69/101/27 101/251/122 64/16/12
f 70/252/60 102/253/123 69/31/27
f 79/108/61 104/254/124 103/255/125
f 81/87/30 104/256/124 82/223/54
f 81/37/30 106/257/126 105/258/127
f 80/28/24 103/259/125 106/260/126
f 78/235/57 107/261/128 75/110/62
f 77/92/29 108/262/129 78/229/57
f 77/35/29 110/263/130 109/264/131
f 76/25/21 107/265/128 110/266/130
f 74/244/33 111/267/132 71/116/63
f 73/97/28 112/268/133 74/237/33
f 72/36/18 113/269/134 73/33/28
f 72/22/18 111/270/132 114/271/135
f 70/252/60 115/272/136 67/121/32
f 69/101/27 116/273/137 70/246/60
f 68/34/15 117/274/138 69/31/27
f 68/19/15 115/275/136 118/276/139
f 66/220/51 119/277/140 63/125/64
f 65/106/49 120/278/141 66/216/51
f 65/82/49 122/279/142 121/280/143
f 64/16/12 119/281/140 122/282/142
f 14/1/1 47/283/2 48/2/2
f 28/7/6 49/284/7 50/8/7
f 39/10/8 17/161/8 48/11/9
f 33/13/10 32/285/10 52/14/11
f 40/57/39 44/286/40 43/58/40
f 30/62/41 50/287/42 51/63/42
f 41/67/43 43/288/44 47/68/44
f 33/72/45 46/289/46 49/73/46
f 40/77/47 39/290/47 45/78/48
f 32/144/69 31/152/69 51/145/70
f 33/72/71 29/56/38 34/150/37
f 31/64/72 32/285/72 34/53/37
f 31/152/73 35/50/36 36/153/35
f 30/62/74 36/47/35 37/154/34
f 33/13/75 28/7/75 37/44/34
f 17/3/76 39/290/76 20/156/66
f 40/57/77 18/291/67 20/158/66
f 40/77/78 41/67/78 13/159/68
f 17/161/79 38/143/65 42/162/4
f 14/1/81 42/292/4 13/163/68
f 43/164/40 44/293/40 53/165/82
f 50/167/42 60/294/83 61/168/83
f 43/170/44 12/196/84 57/171/84
f 49/173/46 46/295/46 55/174/85
f 45/176/48 54/199/86 53/177/86
f 52/179/70 51/296/70 61/180/87
f 47/182/2 57/297/88 58/183/88
f 49/185/7 59/298/89 60/186/89
f 45/188/9 48/299/9 58/189/90
f 52/191/11 62/300/91 55/192/91
f 79/128/61 84/301/106 83/215/104
f 79/108/61 80/83/24 85/217/105
f 65/106/49 86/302/107 85/219/105
f 66/220/51 83/303/104 86/221/107
f 75/120/62 88/304/110 87/222/108
f 75/110/62 76/38/21 89/224/109
f 81/87/30 90/305/111 89/226/109
f 82/227/54 87/306/108 90/228/111
f 78/229/57 71/124/63 92/230/112
f 71/116/63 72/36/18 93/232/114
f 77/92/29 94/307/115 93/234/114
f 78/235/57 91/308/113 94/236/115
f 74/237/33 67/40/32 96/238/116
f 67/121/32 68/34/15 97/240/118
f 68/19/15 73/97/28 98/242/119
f 74/244/33 95/309/117 98/245/119
f 70/246/60 63/214/64 100/247/120
f 63/125/64 64/32/12 101/249/122
f 69/101/27 102/310/123 101/251/122
f 70/252/60 99/311/121 102/253/123
f 79/108/61 82/227/54 104/254/124
f 81/87/30 105/312/127 104/256/124
f 81/37/30 80/83/24 106/257/126
f 80/28/24 79/128/61 103/259/125
f 78/235/57 108/313/129 107/261/128
f 77/92/29 109/314/131 108/262/129
f 77/35/29 76/38/21 110/263/130
f 76/25/21 75/120/62 107/265/128
f 74/244/33 112/315/133 111/267/132
f 73/97/28 113/316/134 112/268/133
f 72/36/18 114/317/135 113/269/134
f 72/22/18 71/124/63 111/270/132
f 70/252/60 116/318/137 115/272/136
f 69/101/27 117/319/138 116/273/137
f 68/34/15 118/320/139 117/274/138
f 68/19/15 67/40/32 115/275/136
f 66/220/51 120/321/141 119/277/140
f 65/106/49 121/322/143 120/278/141
f 65/82/49 64/32/12 122/279/142
f 64/16/12 63/214/64 119/281/140
